<svg width="544" height="413" xmlns="http://www.w3.org/2000/svg" xmlns:xlink="http://www.w3.org/1999/xlink"><defs><rect id="b" width="531.692" height="398.769" rx="12"/><filter x="-1.3%" y="-1.8%" width="104.9%" height="107%" filterUnits="objectBoundingBox" id="a"><feOffset dx="12" dy="14" in="SourceAlpha" result="shadowOffsetOuter1"/><feColorMatrix values="0 0 0 0 0 0 0 0 0 0 0 0 0 0 0 0 0 0 0.12 0" in="shadowOffsetOuter1"/></filter><path id="c" d="M0 0H438V365H0z"/></defs><g fill="none" fill-rule="evenodd"><g><use fill="#000" filter="url(#a)" xlink:href="#b"/><use fill="#EEE" xlink:href="#b"/><circle stroke="#CCC" stroke-width="4" fill="#EEE" cx="30.115" cy="199.385" r="14.615"/><circle stroke="#CCC" stroke-width="3" fill="#9C9C9C" cx="513.519" cy="199.385" r="6.808"/><path fill="#000" d="M59.712 17.654H495.866V381.116H59.712z"/></g><g transform="translate(59 17)"><mask id="d" fill="#fff"><use xlink:href="#c"/></mask><use fill="#6553B9" xlink:href="#c"/><path fill-opacity=".1" fill="#000" mask="url(#d)" d="M438 339L-147 0 438 0z"/><g mask="url(#d)"><g transform="matrix(-1 0 0 1 353 65)" fill-rule="nonzero"><g transform="translate(0 146)" fill-opacity=".1" fill="#000"><path d="M.795 81.443l82.457 47.734a2.85 2.85 0 0 0 2.562 0L223.35 49.603a.777.777 0 0 0 0-1.477L140.894.386a2.869 2.869 0 0 0-2.569 0L.795 79.96a.784.784 0 0 0 0 1.483z"/><ellipse cx="209.004" cy="74.57" rx="39.54" ry="22.877"/></g><g transform="translate(11)"><path fill="#F5F5F5" d="M3.35609756 104.129822L6.17235772 105.771834 76.6634146 64.6755621 73.8406504 63.0335503z"/><path fill="#EBEBEB" d="M41.4178862 25.53L41.4178862 83.5849704 44.2406504 81.9363905 44.2406504 23.8879882z"/><path fill="#E0E0E0" d="M40.0065041 24.702426L41.4178862 25.53 41.4178862 83.5849704 40.0065041 82.7573964z"/><path fill="#FAFAFA" d="M41.4178862 25.53L44.2406504 23.8879882 42.8292683 23.0604142 40.0065041 24.702426z"/><path d="M79.48 1.688L3.382 46.075v64.63L79.48 66.336V1.688zm-2.817 62.988l-70.49 41.07v-58.03l70.49-41.095v58.055z" fill="#EBEBEB"/><path fill="#E0E0E0" d="M76.6634146 64.6755621L73.8406504 63.0335503 73.8406504 8.26260355 76.6634146 6.62059172z"/><path fill="#F5F5F5" d="M79.4796748 1.68798817L76.6634146 0.0459763314 0.533333333 44.4328402 3.35609756 46.0748521z"/><path fill="#E0E0E0" d="M0.533333333 44.4328402L3.35609756 46.0748521 3.35609756 110.704438 0.533333333 109.062426z"/><path fill="#000" opacity=".1" d="M41.4178862 27.1720118L44.2276423 25.53 44.2276423 27.1720118 41.4178862 28.8140237z"/><path fill="#000" opacity=".1" d="M41.4178862 28.8140237L40.0065041 27.9930178 41.4178862 27.1720118z"/></g><g transform="translate(3 30)"><g transform="translate(0 43.922)"><path d="M78.552 118.656v70.99c.026.498.288.954.706 1.226l1.497.871c.445.224.968.224 1.412 0l1.504-.871c.417-.273.679-.728.706-1.226v-70.99c0-.453-.32-.656-.706-.413l-1.504.871a1.572 1.572 0 0 1-1.412 0l-1.497-.871c-.392-.243-.706-.06-.706.413z" fill="#37474F"/><path d="M82.167 191.743l1.504-.871c.417-.273.679-.728.706-1.226v-70.99c0-.453-.32-.656-.706-.413l-1.504.871a1.568 1.568 0 0 0-.706 1.226v70.997c0 .446.32.63.706.406z" fill="#455A64"/><path d="M14.532 81.545v71.016c.026.499.288.955.706 1.226l1.504.872c.444.223.968.223 1.412 0l1.497-.872c.418-.271.681-.727.706-1.226V81.545c0-.446-.314-.656-.706-.407l-1.497.872a1.572 1.572 0 0 1-1.412 0l-1.504-.872c-.392-.223-.706-.04-.706.407z" fill="#37474F"/><path d="M18.154 154.659l1.497-.872c.418-.271.681-.727.706-1.226V81.545c0-.446-.314-.656-.706-.407l-1.497.872c-.423.275-.687.74-.706 1.246v70.99c0 .465.314.636.706.413z" fill="#455A64"/><path d="M195.387 51.402v71.016c.025.5.288.955.706 1.226l1.497.872c.444.227.969.227 1.412 0l1.504-.865c.418-.271.68-.727.706-1.226V51.402c0-.452-.314-.655-.706-.406l-1.504.865c-.442.23-.969.23-1.412 0l-1.47-.865c-.419-.23-.733-.046-.733.406z" fill="#37474F"/><path d="M199.002 124.51l1.504-.866c.418-.27.68-.727.706-1.226V51.402c0-.452-.314-.655-.706-.406l-1.504.865a1.58 1.58 0 0 0-.706 1.226v71.016c0 .453.32.636.706.407z" fill="#455A64"/><path d="M.601 86.533v-.518c.055-.91.541-1.738 1.308-2.228L145.076.878a2.817 2.817 0 0 1 2.57 0l69.452 40.225a2.853 2.853 0 0 1 1.307 2.23v.517a2.866 2.866 0 0 1-1.307 2.229L73.93 128.987a2.876 2.876 0 0 1-2.575 0L1.889 88.77a2.847 2.847 0 0 1-1.288-2.236z" fill="#90CAF9"/><path d="M.601 86.533v-.518c.055-.91.541-1.738 1.308-2.228L145.076.878a2.817 2.817 0 0 1 2.57 0l69.452 40.225a2.853 2.853 0 0 1 1.307 2.23v.517a2.866 2.866 0 0 1-1.307 2.229L73.93 128.987a2.876 2.876 0 0 1-2.575 0L1.889 88.77a2.847 2.847 0 0 1-1.288-2.236z" opacity=".7" fill="#FFF"/><path d="M72.623 125.814v3.488a2.674 2.674 0 0 1-1.307-.308L1.889 88.775A2.86 2.86 0 0 1 .582 86.54v-.518a2.854 2.854 0 0 1 1.052-2.058c-.464.393-.385.95.236 1.31L71.316 125.5a2.61 2.61 0 0 0 1.307.314z" fill="#90CAF9"/><path d="M72.623 125.814v3.488a2.674 2.674 0 0 1-1.307-.308L1.889 88.775A2.86 2.86 0 0 1 .582 86.54v-.518a2.854 2.854 0 0 1 1.052-2.058c-.464.393-.385.95.236 1.31L71.316 125.5a2.61 2.61 0 0 0 1.307.314z" opacity=".6" fill="#FFF"/><path d="M1.89 85.281L71.334 125.5a2.83 2.83 0 0 0 2.576 0L217.098 42.61a.787.787 0 0 0 0-1.488L147.645.885a2.817 2.817 0 0 0-2.569 0L1.91 83.793a.787.787 0 0 0-.02 1.488z" fill="#90CAF9"/><path d="M1.89 85.281L71.334 125.5a2.83 2.83 0 0 0 2.576 0L217.098 42.61a.787.787 0 0 0 0-1.488L147.645.885a2.817 2.817 0 0 0-2.569 0L1.91 83.793a.787.787 0 0 0-.02 1.488z" opacity=".8" fill="#FFF"/></g><g transform="translate(98.06 81.289)"><path d="M.896 29.146l15.192 8.824c.536.275 1.171.275 1.707 0l44.891-25.954a.524.524 0 0 0 0-.99L47.494 2.21a1.885 1.885 0 0 0-1.707 0L.896 28.19a.518.518 0 0 0 0 .957z" fill="#000" opacity=".05"/><g transform="translate(1.307)"><path d="M60.457 9.466a.596.596 0 0 0-.353-.491L45.827.708a1.891 1.891 0 0 0-1.7 0L.569 25.967c-.2.09-.334.28-.353.498v1.501a.603.603 0 0 0 .353.492l14.264 8.253c.536.276 1.17.276 1.706 0l43.565-25.22a.603.603 0 0 0 .353-.49V9.465z" fill="#EBEBEB"/><path d="M14.833 35.177L.57 26.957a.524.524 0 0 1 0-.99L44.127.708a1.891 1.891 0 0 1 1.7 0l14.277 8.267c.47.268.47.708 0 .983L16.54 35.178a1.865 1.865 0 0 1-1.706 0z" fill="#FFF"/><path d="M15.63 35.4v1.54c-.278 0-.552-.07-.797-.203L.57 28.477a.603.603 0 0 1-.353-.491v-1.508a.603.603 0 0 0 .353.492l14.264 8.233c.247.128.52.196.798.197z" fill="#E0E0E0"/><path d="M15.748 33.88h-.058l-1.413-.82 1.916-1.108 1.458.826-1.91 1.114.007-.013zm-2.216-1.312l-1.412-.82 1.504-.871 1.412.852-1.504.865v-.026zm4.89-.275l-1.425-.787 1.51-.872 1.458.82-1.504.871-.039-.032zm-7.1-1.01l-1.411-.813 2.431-1.41 1.465.82-2.432 1.41-.052-.007zm4.479-.033l-1.419-.786 1.196-.695 1.465.826-1.197.688-.045-.033zm4.89-.268h-.033l-1.412-.813 1.503-.872 1.478.859-1.504.871-.032-.045zm-2.93-.826h-.038l-1.38-.826 1.197-.695 1.464.826-1.229.695h-.013zm-8.648-.118H9.08l-1.412-.82 1.916-1.108 1.464.826-1.896 1.102h-.039zm13.846-.335h-.033l-1.412-.82 10.878-6.293 1.458.826-10.878 6.294-.013-.007zm-8.44-.203h-.032l-1.412-.852 1.196-.695 1.458.826-1.197.655-.013.066zm5.198-.446l-1.413-.865 1.197-.656 1.458.82-1.19.695-.052.006zm-12.814-.269h-.032l-1.419-.819 1.196-.695 1.465.826-1.197.688h-.013zm4.884-.268l-1.419-.813 1.197-.695 1.464.826-1.196.655-.046.027zm4.687-.151l-1.438-.833 1.196-.695 1.458.826-1.19.689-.026.013zm5.23-.446h-.033l-1.412-.82 1.196-.688 1.465.82-1.197.695-.02-.007zM8.89 27.658h-.033l-1.412-.82 1.196-.694 1.458.826-1.19.655-.02.033zm4.89-.269h-.053l-1.412-.82 1.197-.694 1.457.826-1.19.688zm4.68-.15h-.032l-1.432-.86 1.196-.694 1.465.826-1.197.688v.04zm-14.212 0l-1.412-.82 1.504-.872 1.464.826-1.503.865h-.053zm19.41-.446l-1.413-.82 1.197-.688 1.464.82-1.196.694-.052-.006zm-12.814-.263l-1.412-.82 1.197-.687 1.464.819-1.196.695-.053-.007zm4.845-.308l-1.413-.82 1.197-.694 1.464.826-1.216.688h-.032zm4.687-.15h-.033l-1.386-.827 1.197-.655 1.457.82-1.196.694-.04-.033zm5.197-.453l-1.412-.813 1.196-.695 1.445.8-1.19.688-.039.02zm-18.252-.223h-.033l-1.405-.826 1.196-.655 1.458.826-1.19.688-.026-.033zm5.439-.04l-1.412-.819 1.19-.655 1.464.82-1.196.694-.046-.04zm4.89-.268l-1.438-.832 1.196-.656 1.464.82-1.222.668zm4.68-.15H22.3l-1.38-.827 1.197-.688 1.418.833-1.17.655-.033.026zm5.198-.446l-1.412-.82 1.196-.695 1.451.82-1.196.655-.04.04zm-18.24-.236h-.032l-1.412-.813 1.196-.695 1.464.826-1.196.655-.02.027zm5.44-.04h-.033l-1.412-.813 1.196-.695 1.458.826-1.19.656-.02.026zm4.89-.269l-1.413-.819 1.197-.688 1.458.82-1.25.694.007-.007zm4.68-.15l-1.418-.82 1.196-.688 1.464.82-1.196.694-.046-.006zm5.23-.446l-1.419-.82 1.203-.694 1.458.826-1.196.688h-.046zm-18.252-.223l-1.471-.84 1.19-.694 1.464.826-1.196.688.013.02zm5.439-.046h-.033l-1.445-.793 1.197-.695 1.464.826-1.196.688.013-.026zm17.912-.124l-1.412-.813 1.504-.872 1.464.82-1.536.851-.02.014zm-13.055-.138l-1.412-.813 1.196-.695 1.465.826-1.249.682zm4.687-.15l-1.418-.82 1.196-.695 1.458.826-1.196.688h-.04zm5.23-.447h-.032l-1.413-.82 1.197-.655 1.458.82-1.19.695-.02-.04zM13.238 22l-1.47-.826 1.195-.694 1.458.826-1.19.694h.007zm5.44-.039h-.034l-1.412-.82 1.197-.694 1.458.826-1.197.688h-.013zm4.889-.275h-.033l-1.418-.82 1.203-.695 1.457.826-1.242.689h.033zm13.33-.033l-1.412-.82 1.503-.865 1.458.82-1.504.872-.045-.007zm-8.65-.111l-1.444-.826 1.196-.695 1.419.826-1.19.655.02.04zm5.23-.453h-.032l-1.412-.82 1.196-.655 1.465.82-1.197.695-.02-.04zm-12.813-.262l-1.412-.82 1.197-.655 1.458.82-1.19.694-.053-.039zm4.89-.269h-.032l-1.412-.82 1.196-.694 1.458.826-1.19.655-.02.033zm4.681-.15l-1.419-.82 1.197-.695 1.464.826-1.196.688h-.046zm-14.16 0l-1.418-.82 1.196-.695 1.464.826-1.196.656-.046.032zm23.116-.033h-.032l-1.413-.82 1.504-.872 1.464.826-1.503.872-.02-.006zm-3.759-.387l-1.412-.82 1.197-.688 1.457.826-1.196.688-.046-.006zm-12.813-.262h-.033l-1.412-.82 1.197-.688 1.464.82-1.262.629.046.059zm4.89-.27l-1.412-.819 1.196-.694 1.465.826-1.301.655.052.033zm4.687-.15h-.032l-1.412-.82 1.196-.655 1.458.82-1.197.694-.013-.039zm-14.16-.033h-.032l-1.412-.82 1.196-.687 1.458.819-1.196.695-.014-.007zm23.424-.21h-.033l-1.412-.819 1.915-1.108 1.458.826-1.974 1.05.046.052zm-4.067-.21h-.032l-1.412-.812 3.772-2.183 1.458.82-3.766 2.182-.02-.006zm-12.813-.261h-.032l-1.412-.82 1.196-.688 1.458.82-1.197.694-.013-.006zm4.89-.27l-1.412-.819 1.196-.655 1.458.82-1.294.622.052.033zm4.68-.15l-1.411-.82 1.196-.655 1.458.82-1.19.694-.052-.039zm-14.159 0l-1.412-.82 1.196-.688 1.458.82-1.19.695-.052-.007zm6.537-.656h-.032l-1.412-.812 1.196-.695 1.458.826-1.19.688-.02-.007zm17.926-.275l-1.419-.852 1.196-.656 1.465.82-1.197.695-.045-.007zm-13.075-.085h-.033l-1.412-.82 1.197-.655 1.458.82-1.21.655zm4.68-.15l-1.418-.82 1.098-.656a.23.23 0 0 0 0-.406l-1.85-1.075 1.4-.813 3.673 2.104-2.843 1.645-.06.02zM21.9 16.971l-1.419-.813 1.197-.694 1.464.826-1.196.655-.046.026zm6.537-.655l-1.412-.82 1.197-.695 1.464.826-1.196.656-.053.033zm18.017-.184h-.04l-1.411-.813 1.196-.695 1.458.826-1.196.656-.007.026zm-13.114-.111h-.032l-1.412-.813 1.196-.695 1.464.826-1.216.682zm-8.622-.656h-.033l-1.412-.813 1.196-.695 1.458.826-1.19.656-.02.026zm5.694-.183L29 14.363l1.196-.695 1.458.826-1.197.689h-.045zm18.01-.19l-1.412-.813 1.196-.695 1.465.826-1.197.688-.052-.006zm-4.17-.145l-1.413-.82 1.196-.687 1.465.819-1.197.695-.052-.007zm-17.58-.616l-1.412-.813 1.197-.695 1.464.826-1.196.689-.053-.007zm5.694-.183h-.032l-1.413-.82 2.125-1.226 1.458.82-2.118 1.232-.02-.006zm18.422-.427l-1.418-.812 3.157-1.83 1.406.82-3.151 1.822h.006zm-12.917-.203h-.033l-1.412-.82 1.196-.688 1.465.82-1.197.695-.02-.007zm-9.264-.308l-1.412-.82 1.197-.694 1.457.826-1.196.655-.046.033zm19.946-.76l-1.412-.82 1.196-.655 1.464.82-1.196.694-.052-.04zm-8.747-.06h-.033l-1.412-.812 1.196-.695 1.458.826-1.19.688-.02-.006zm-4.171-.144l-1.412-.819 1.196-.695 1.458.826-1.19.695-.052-.007zm-5.073-.17h-.033l-1.412-.833 1.197-.694 1.457.826-1.19.688-.02.013zm24.116-.61h-.033l-1.412-.878 1.197-.695 1.464.826-1.196.656-.02.091zm-4.17-.15h-.033l-1.412-.82 1.196-.688 1.464.82-1.196.694-.02-.006zm-8.748-.073h-.032l-1.412-.819 1.196-.695 1.464.826-1.196.656-.02.032zm4.576-.085h-.032l-1.412-.82 1.196-.694 1.458.826-1.19.688h-.02zM37.583 11h-.033l-1.412-.82 1.197-.688 1.464.82-1.196.695-.02-.007zm-4.635-.42l-1.419-.819 1.158-.714 1.464.826-1.196.688-.007.02zm23.678-.36h-.032l-3.622-2.098 1.196-.695 3.674 2.105-1.196.695-.02-.007zm-4.164-.15h-.033l-1.412-.814 1.197-.694 1.457.826-1.19.688-.02-.007zm-4.17-.145h-.034l-1.412-.82 1.197-.688 1.464.82-1.196.695-.02-.007zm-8.741-.092h-.033l-1.412-.82 1.196-.687 1.458.819-1.19.688h-.02zm4.576-.091h-.033l-1.418-.813 1.196-.695 1.464.826-1.196.655-.013.027zm-9.224-.328h-.033l-1.412-.82 1.196-.655 1.458.82-1.19.694-.02-.04zm15.35-.656h-.033l-1.419-.82 1.196-.655 1.465.82-1.197.695-.013-.04zm-4.171-.15h-.033l-1.412-.82 1.196-.695 1.458.826-1.19.656-.02.032zm-4.171-.145h-.033l-1.412-.82 1.196-.688 1.465.82-1.197.695-.02-.007zm-5.054-.183l-1.412-.82 1.197-.688 1.464.82-1.196.694-.053-.006zm15.35-.656h-.033l-3.628-2.098 1.196-.655 3.674 2.098-1.19.694-.019-.039zm-4.17-.144h-.034l-1.412-.82 1.197-.694 1.464.826-1.196.688h-.02zm-4.172-.15l-1.431-.774 1.19-.656 1.464.82-1.196.694-.027-.085zm-5.23-.748l-.614-.348 1.196-.695.654.354-1.19.689h-.045zm7.192-.387h-.033l-1.412-.813 1.196-.695 1.458.826-1.19.656-.02.026zm-5.23-.747h-.033L39.95 5.1l1.196-.695.654.36-1.19.69-.013-.007zm7.19-.387h-.032l-1.412-.82 1.196-.694 1.49.845-1.195.689-.046-.02zm-5.23-.747h-.032l-.608-.348 1.23-.688.653.36-1.19.689-.052-.013zm1.962-1.135h-.033l-.614-.347 1.196-.688.654.354-1.19.655-.013.026z" fill="#90CAF9"/><path d="M15.748 33.88h-.058l-1.413-.82 1.916-1.108 1.458.826-1.91 1.114.007-.013zm-2.216-1.312l-1.412-.82 1.504-.871 1.412.852-1.504.865v-.026zm4.89-.275l-1.425-.787 1.51-.872 1.458.82-1.504.871-.039-.032zm-7.1-1.01l-1.411-.813 2.431-1.41 1.465.82-2.432 1.41-.052-.007zm4.479-.033l-1.419-.786 1.196-.695 1.465.826-1.197.688-.045-.033zm4.89-.268h-.033l-1.412-.813 1.503-.872 1.478.859-1.504.871-.032-.045zm-2.93-.826h-.038l-1.38-.826 1.197-.695 1.464.826-1.229.695h-.013zm-8.648-.118H9.08l-1.412-.82 1.916-1.108 1.464.826-1.896 1.102h-.039zm13.846-.335h-.033l-1.412-.82 10.878-6.293 1.458.826-10.878 6.294-.013-.007zm-8.44-.203h-.032l-1.412-.852 1.196-.695 1.458.826-1.197.655-.013.066zm5.198-.446l-1.413-.865 1.197-.656 1.458.82-1.19.695-.052.006zm-12.814-.269h-.032l-1.419-.819 1.196-.695 1.465.826-1.197.688h-.013zm4.884-.268l-1.419-.813 1.197-.695 1.464.826-1.196.655-.046.027zm4.687-.151l-1.438-.833 1.196-.695 1.458.826-1.19.689-.026.013zm5.23-.446h-.033l-1.412-.82 1.196-.688 1.465.82-1.197.695-.02-.007zM8.89 27.658h-.033l-1.412-.82 1.196-.694 1.458.826-1.19.655-.02.033zm4.89-.269h-.053l-1.412-.82 1.197-.694 1.457.826-1.19.688zm4.68-.15h-.032l-1.432-.86 1.196-.694 1.465.826-1.197.688v.04zm-14.212 0l-1.412-.82 1.504-.872 1.464.826-1.503.865h-.053zm19.41-.446l-1.413-.82 1.197-.688 1.464.82-1.196.694-.052-.006zm-12.814-.263l-1.412-.82 1.197-.687 1.464.819-1.196.695-.053-.007zm4.845-.308l-1.413-.82 1.197-.694 1.464.826-1.216.688h-.032zm4.687-.15h-.033l-1.386-.827 1.197-.655 1.457.82-1.196.694-.04-.033zm5.197-.453l-1.412-.813 1.196-.695 1.445.8-1.19.688-.039.02zm-18.252-.223h-.033l-1.405-.826 1.196-.655 1.458.826-1.19.688-.026-.033zm5.439-.04l-1.412-.819 1.19-.655 1.464.82-1.196.694-.046-.04zm4.89-.268l-1.438-.832 1.196-.656 1.464.82-1.222.668zm4.68-.15H22.3l-1.38-.827 1.197-.688 1.418.833-1.17.655-.033.026zm5.198-.446l-1.412-.82 1.196-.695 1.451.82-1.196.655-.04.04zm-18.24-.236h-.032l-1.412-.813 1.196-.695 1.464.826-1.196.655-.02.027zm5.44-.04h-.033l-1.412-.813 1.196-.695 1.458.826-1.19.656-.02.026zm4.89-.269l-1.413-.819 1.197-.688 1.458.82-1.25.694.007-.007zm4.68-.15l-1.418-.82 1.196-.688 1.464.82-1.196.694-.046-.006zm5.23-.446l-1.419-.82 1.203-.694 1.458.826-1.196.688h-.046zm-18.252-.223l-1.471-.84 1.19-.694 1.464.826-1.196.688.013.02zm5.439-.046h-.033l-1.445-.793 1.197-.695 1.464.826-1.196.688.013-.026zm17.912-.124l-1.412-.813 1.504-.872 1.464.82-1.536.851-.02.014zm-13.055-.138l-1.412-.813 1.196-.695 1.465.826-1.249.682zm4.687-.15l-1.418-.82 1.196-.695 1.458.826-1.196.688h-.04zm5.23-.447h-.032l-1.413-.82 1.197-.655 1.458.82-1.19.695-.02-.04zM13.238 22l-1.47-.826 1.195-.694 1.458.826-1.19.694h.007zm5.44-.039h-.034l-1.412-.82 1.197-.694 1.458.826-1.197.688h-.013zm4.889-.275h-.033l-1.418-.82 1.203-.695 1.457.826-1.242.689h.033zm13.33-.033l-1.412-.82 1.503-.865 1.458.82-1.504.872-.045-.007zm-8.65-.111l-1.444-.826 1.196-.695 1.419.826-1.19.655.02.04zm5.23-.453h-.032l-1.412-.82 1.196-.655 1.465.82-1.197.695-.02-.04zm-12.813-.262l-1.412-.82 1.197-.655 1.458.82-1.19.694-.053-.039zm4.89-.269h-.032l-1.412-.82 1.196-.694 1.458.826-1.19.655-.02.033zm4.681-.15l-1.419-.82 1.197-.695 1.464.826-1.196.688h-.046zm-14.16 0l-1.418-.82 1.196-.695 1.464.826-1.196.656-.046.032zm23.116-.033h-.032l-1.413-.82 1.504-.872 1.464.826-1.503.872-.02-.006zm-3.759-.387l-1.412-.82 1.197-.688 1.457.826-1.196.688-.046-.006zm-12.813-.262h-.033l-1.412-.82 1.197-.688 1.464.82-1.262.629.046.059zm4.89-.27l-1.412-.819 1.196-.694 1.465.826-1.301.655.052.033zm4.687-.15h-.032l-1.412-.82 1.196-.655 1.458.82-1.197.694-.013-.039zm-14.16-.033h-.032l-1.412-.82 1.196-.687 1.458.819-1.196.695-.014-.007zm23.424-.21h-.033l-1.412-.819 1.915-1.108 1.458.826-1.974 1.05.046.052zm-4.067-.21h-.032l-1.412-.812 3.772-2.183 1.458.82-3.766 2.182-.02-.006zm-12.813-.261h-.032l-1.412-.82 1.196-.688 1.458.82-1.197.694-.013-.006zm4.89-.27l-1.412-.819 1.196-.655 1.458.82-1.294.622.052.033zm4.68-.15l-1.411-.82 1.196-.655 1.458.82-1.19.694-.052-.039zm-14.159 0l-1.412-.82 1.196-.688 1.458.82-1.19.695-.052-.007zm6.537-.656h-.032l-1.412-.812 1.196-.695 1.458.826-1.19.688-.02-.007zm17.926-.275l-1.419-.852 1.196-.656 1.465.82-1.197.695-.045-.007zm-13.075-.085h-.033l-1.412-.82 1.197-.655 1.458.82-1.21.655zm4.68-.15l-1.418-.82 1.098-.656a.23.23 0 0 0 0-.406l-1.85-1.075 1.4-.813 3.673 2.104-2.843 1.645-.06.02zM21.9 16.971l-1.419-.813 1.197-.694 1.464.826-1.196.655-.046.026zm6.537-.655l-1.412-.82 1.197-.695 1.464.826-1.196.656-.053.033zm18.017-.184h-.04l-1.411-.813 1.196-.695 1.458.826-1.196.656-.007.026zm-13.114-.111h-.032l-1.412-.813 1.196-.695 1.464.826-1.216.682zm-8.622-.656h-.033l-1.412-.813 1.196-.695 1.458.826-1.19.656-.02.026zm5.694-.183L29 14.363l1.196-.695 1.458.826-1.197.689h-.045zm18.01-.19l-1.412-.813 1.196-.695 1.465.826-1.197.688-.052-.006zm-4.17-.145l-1.413-.82 1.196-.687 1.465.819-1.197.695-.052-.007zm-17.58-.616l-1.412-.813 1.197-.695 1.464.826-1.196.689-.053-.007zm5.694-.183h-.032l-1.413-.82 2.125-1.226 1.458.82-2.118 1.232-.02-.006zm18.422-.427l-1.418-.812 3.157-1.83 1.406.82-3.151 1.822h.006zm-12.917-.203h-.033l-1.412-.82 1.196-.688 1.465.82-1.197.695-.02-.007zm-9.264-.308l-1.412-.82 1.197-.694 1.457.826-1.196.655-.046.033zm19.946-.76l-1.412-.82 1.196-.655 1.464.82-1.196.694-.052-.04zm-8.747-.06h-.033l-1.412-.812 1.196-.695 1.458.826-1.19.688-.02-.006zm-4.171-.144l-1.412-.819 1.196-.695 1.458.826-1.19.695-.052-.007zm-5.073-.17h-.033l-1.412-.833 1.197-.694 1.457.826-1.19.688-.02.013zm24.116-.61h-.033l-1.412-.878 1.197-.695 1.464.826-1.196.656-.02.091zm-4.17-.15h-.033l-1.412-.82 1.196-.688 1.464.82-1.196.694-.02-.006zm-8.748-.073h-.032l-1.412-.819 1.196-.695 1.464.826-1.196.656-.02.032zm4.576-.085h-.032l-1.412-.82 1.196-.694 1.458.826-1.19.688h-.02zM37.583 11h-.033l-1.412-.82 1.197-.688 1.464.82-1.196.695-.02-.007zm-4.635-.42l-1.419-.819 1.158-.714 1.464.826-1.196.688-.007.02zm23.678-.36h-.032l-3.622-2.098 1.196-.695 3.674 2.105-1.196.695-.02-.007zm-4.164-.15h-.033l-1.412-.814 1.197-.694 1.457.826-1.19.688-.02-.007zm-4.17-.145h-.034l-1.412-.82 1.197-.688 1.464.82-1.196.695-.02-.007zm-8.741-.092h-.033l-1.412-.82 1.196-.687 1.458.819-1.19.688h-.02zm4.576-.091h-.033l-1.418-.813 1.196-.695 1.464.826-1.196.655-.013.027zm-9.224-.328h-.033l-1.412-.82 1.196-.655 1.458.82-1.19.694-.02-.04zm15.35-.656h-.033l-1.419-.82 1.196-.655 1.465.82-1.197.695-.013-.04zm-4.171-.15h-.033l-1.412-.82 1.196-.695 1.458.826-1.19.656-.02.032zm-4.171-.145h-.033l-1.412-.82 1.196-.688 1.465.82-1.197.695-.02-.007zm-5.054-.183l-1.412-.82 1.197-.688 1.464.82-1.196.694-.053-.006zm15.35-.656h-.033l-3.628-2.098 1.196-.655 3.674 2.098-1.19.694-.019-.039zm-4.17-.144h-.034l-1.412-.82 1.197-.694 1.464.826-1.196.688h-.02zm-4.172-.15l-1.431-.774 1.19-.656 1.464.82-1.196.694-.027-.085zm-5.23-.748l-.614-.348 1.196-.695.654.354-1.19.689h-.045zm7.192-.387h-.033l-1.412-.813 1.196-.695 1.458.826-1.19.656-.02.026zm-5.23-.747h-.033L39.95 5.1l1.196-.695.654.36-1.19.69-.013-.007zm7.19-.387h-.032l-1.412-.82 1.196-.694 1.49.845-1.195.689-.046-.02zm-5.23-.747h-.032l-.608-.348 1.23-.688.653.36-1.19.689-.052-.013zm1.962-1.135h-.033l-.614-.347 1.196-.688.654.354-1.19.655-.013.026z" fill="#000" opacity=".5"/></g></g><g transform="translate(62.758)"><path d="M9.316 102.988l-7.91-4.59c-1.471-.851-1.471-2.235 0-3.087l60.888-35.256a5.869 5.869 0 0 1 5.341 0l7.904 4.59c1.477.852 1.477 2.235 0 3.087L14.65 102.988a5.869 5.869 0 0 1-5.334 0z" fill="#000" opacity=".05"/><g transform="translate(7.191)"><path d="M44.774 93.45l9.486-5.488a2.484 2.484 0 0 0 1.458-2.038v-1.311l-11.382-6.464a2.092 2.092 0 0 1-.941-1.633V64.815L26.88 74.379v11.695c.037.664.387 1.27.942 1.633l9.91 5.742a7.825 7.825 0 0 0 7.041 0z" fill="#E6E6E6"/><path d="M30.83 88.14v1.31l-3.027-1.75a2.092 2.092 0 0 1-.941-1.632V74.379l3.144-1.816c.066.8.138 1.626.203 2.433l-2.21 1.31v9.133c.034.664.384 1.272.942 1.632l1.889 1.068z" fill="#E0E0E0"/><path d="M28 85.412c.037.665.386 1.273.94 1.64l8.774 5.08a7.825 7.825 0 0 0 7.06 0l9.486-5.487c1.96-1.128 1.96-2.957 0-4.084l-8.773-5.08a2.086 2.086 0 0 1-.942-1.64V66.71l-16.52 9.571L28 85.412z" fill="#F5F5F5"/><path d="M47.376 78.588L45.46 77.48a2.086 2.086 0 0 1-.94-1.639V66.71L28 76.28v9.132c.037.665.386 1.273.94 1.64l1.883 1.087 16.553-9.551zm8.322 6.018v1.311a2.484 2.484 0 0 1-1.464 2.039l-9.453 5.48a7.065 7.065 0 0 1-3.374.84v-1.312a7.175 7.175 0 0 0 3.374-.839l9.479-5.48a2.478 2.478 0 0 0 1.438-2.039z" fill="#EBEBEB"/><path d="M1.484 98.025c.724.351 1.57.337 2.281-.04l63.87-36.979a2.624 2.624 0 0 0 1.177-2.045V2.898A2.224 2.224 0 0 0 67.708.894a2.21 2.21 0 0 0-2.283.037L1.555 37.91A2.624 2.624 0 0 0 .38 39.956V96.02a2.532 2.532 0 0 0 1.105 2.006z" fill="#455A64"/><path d="M3.765 97.98l63.87-36.974a2.624 2.624 0 0 0 1.177-2.045V2.898c0-.754-.53-1.056-1.177-.656l-63.87 36.98a2.624 2.624 0 0 0-1.176 2.045V97.33c.026.721.523 1.003 1.176.65z" fill="#90CAF9"/><path d="M3.765 97.98l63.87-36.974a2.624 2.624 0 0 0 1.177-2.045V2.898c0-.754-.53-1.056-1.177-.656l-63.87 36.98a2.624 2.624 0 0 0-1.176 2.045V97.33c.026.721.523 1.003 1.176.65z" fill="#37474F"/><path d="M3.589 98.071c-.696.36-1.53.321-2.19-.1a2.21 2.21 0 0 1-1.02-1.945v-6.307l2.203 1.279v6.306c.033.688.438 1.03 1.007.767z" fill="#E0E0E0"/><path d="M2.615 90.998v6.306c0 .747.523 1.056 1.177.656l63.87-36.974a2.624 2.624 0 0 0 1.176-2.045v-6.306L2.615 90.998z" fill="#FFF"/><path d="M4.792 86.343V41.956c.027-.498.29-.954.706-1.226L65.896 5.782c.392-.23.706-.046.706.406v44.375a1.561 1.561 0 0 1-.706 1.226L5.498 86.756c-.386.223-.706.04-.706-.413z" fill="#90CAF9"/><path d="M4.792 86.343V41.956c.027-.498.29-.954.706-1.226L65.896 5.782c.392-.23.706-.046.706.406v44.375a1.561 1.561 0 0 1-.706 1.226L5.498 86.756c-.386.223-.706.04-.706-.413z" fill="#FFF" opacity=".5"/><path d="M8.368 41.608l53.776-31.12c.385-.222.706-.038.706.414v39.261c-.028.498-.29.953-.706 1.226L8.368 82.502c-.392.23-.706.046-.706-.407V42.834c.025-.499.288-.955.706-1.226z" fill="#FFF"/><path d="M44.486 44.348l-1.34-.426c1.06-6.287-1.072-8.037-4.367-7.866 1.386.622 2.465 3.815 1.805 7.053l-1.308-.432c-.261-.086-.608.406-.562.8l.654 5.847c.032.269.235.334.444.144l4.576-4.15c.288-.301.36-.884.098-.97z" fill="#90CAF9"/><path d="M40.002 39.91c-.249-1.881-1.02-3.37-1.922-3.776 0 0-3.393.748-6.054 6.031.007 0 4.184-4.497 7.976-2.255z" fill="#90CAF9" opacity=".8"/><path d="M27.254 51.094l1.34.44c-1.059 6.286 1.072 8.03 4.367 7.866-1.386-.623-2.464-3.809-1.81-7.047l1.307.432c.261.086.608-.406.562-.8l-.654-5.847c-.032-.269-.242-.334-.45-.144l-4.577 4.143c-.275.295-.346.872-.085.957z" fill="#90CAF9"/><path d="M31.739 55.532c.248 1.882 1.02 3.37 1.922 3.776 0 0 3.392-.747 6.053-6.031 0 0-4.184 4.504-7.975 2.255z" fill="#90CAF9" opacity=".8"/><path d="M62.85 10.876c0-.446-.32-.656-.706-.407L8.368 41.61c-.418.27-.681.726-.706 1.225v3.016L62.85 13.898v-3.022z" fill="#E0E0E0"/><path d="M35.7 74.38a2.44 2.44 0 0 0-1.105 1.92c0 .708.49.99 1.105.656a2.433 2.433 0 0 0 1.105-1.915c0-.727-.497-1.01-1.105-.662z" fill="#455A64"/><path d="M2.935 40.074a2.463 2.463 0 0 0-.353 1.167v49.757L.38 89.719V39.99c.018-.412.137-.813.347-1.167l2.21 1.252z" fill="#263238"/></g></g><g transform="translate(81.063 108.167)"><path fill="#455A64" opacity=".1" d="M16.7747463 10.0168889L15.1077313 10.9805556 1.95465672 3.25811111 0.503373134 1.54711111 3.53014925 2.34688889z"/><path d="M3.406 1.173L.608.623a.091.091 0 0 0-.085.144l1.902 2.157.98-1.75z" fill="#FFA8A7"/><path d="M.523.767A.092.092 0 0 1 .608.623l.543.111a.486.486 0 0 0-.223.446v.046L.523.767z" fill="#263238"/><path d="M12.872 8.935l-.229-.13-.274-.158-9.944-5.723c-.088-.31-.06-.641.079-.931.148-.406.485-.712.902-.82l9.937 5.717.53.301c-.354-.177-1.354 1.56-1.001 1.744z" fill="#90CAF9"/><path d="M11.996 8.437l-.51-.295c-.15-.085-.065-.452.111-.84.236-.51.7-1.009.896-.897l.379.216.13.079c-.195-.105-.653.387-.888.898-.17.367-.255.728-.131.826l.013.013z" fill="#EBEBEB"/><path d="M11.872 8.358c-.353-.183.653-1.92 1.007-1.737l.51.295c-.347-.183-1.354 1.554-1 1.737l-.517-.295z" fill="#90CAF9"/><path d="M12.872 8.935l-.503-.288c-.347-.184.608-1.869.974-1.757l.51.295c-.334-.17-1.334 1.567-.981 1.75z" fill="#EBEBEB"/><path d="M.51.656L.608.603l2.033 1.115 10.512 6.05h.046c-.294.466-.523 1.056-.327 1.16l-.229-.13-.274-.158-9.944-5.723L.523.76A.079.079 0 0 1 .51.656z" fill="#000" opacity=".15"/><path d="M15.036 10.168l-2.151-1.233c-.15-.078-.065-.446.105-.832.235-.512.693-1.01.895-.912l2.158 1.233c.424.249 0 1.18-.445 1.6a.509.509 0 0 1-.562.144z" fill="#F28F8F"/><path d="M14.892 9.499c.11-.472.434-.865.876-1.062a.352.352 0 0 1 .32.04c.327.3-.052 1.16-.503 1.553a.509.509 0 0 1-.556.138c-.157-.092-.222-.335-.137-.669z" fill="#000" opacity=".1"/></g><g transform="translate(12.42 74.733)"><path d="M34.648 75.317L75.722 51.54a.82.82 0 0 0 0-1.547L44.676 32.037a2.941 2.941 0 0 0-2.667 0L.94 55.821a.813.813 0 0 0 0 1.54l31.046 17.962c.838.422 1.825.42 2.66-.006z" fill="#000" opacity=".05"/><g transform="translate(7.845)"><path d="M1.85 58.96c.053.697.43 1.327 1.02 1.699l22.227 12.875a2.25 2.25 0 0 0 2.046 0l39.152-22.67a1.922 1.922 0 0 0 0-3.395L44.068 34.594a2.25 2.25 0 0 0-2.046 0L2.87 57.256a2.204 2.204 0 0 0-1.02 1.705z" fill="#90CAF9"/><path d="M67.334 49.167a2.184 2.184 0 0 1-1.02 1.698L27.164 73.534a2.084 2.084 0 0 1-1.02.249V71.56c.355.008.706-.075 1.02-.242l39.152-22.67c.496-.288.555-.727.183-1.048.488.379.792.949.836 1.567z" fill="#000" opacity=".5"/><path d="M2.87 58.443l22.227 12.875a2.25 2.25 0 0 0 2.046 0l39.152-22.67a.656.656 0 0 0 0-1.18L44.068 34.595a2.25 2.25 0 0 0-2.046 0L2.87 57.256a.656.656 0 0 0 0 1.187z" fill="#000" opacity=".3"/><path d="M26.15 71.56v2.216a2.042 2.042 0 0 1-1.02-.242L2.902 60.659a2.204 2.204 0 0 1-1.02-1.698c.05-.655.385-1.254.915-1.64-.458.335-.418.814.105 1.122l22.226 12.875c.314.168.665.252 1.02.242z" fill="#000" opacity=".7"/><path d="M.89 57.296c-.524-.309-.498-.826-.498-1.475V25.009a2.27 2.27 0 0 1 1.02-1.776L40.564.563a2.198 2.198 0 0 1 1.961 0c.53.302.504.82.504 1.476v30.81a2.264 2.264 0 0 1-1.027 1.777L2.87 57.256a2.178 2.178 0 0 1-1.98.04z" fill="#90CAF9"/><path d="M43.048 2.02c0-.656-.457-.919-1.026-.59L2.87 24.097c-.3.188-.548.45-.72.76l-1.457-.845c.17-.313.418-.577.72-.767L40.563.576a2.178 2.178 0 0 1 1.961 0c.55.27.523.788.523 1.443z" fill="#000" opacity=".3"/><path d="M1.85 25.868V56.68c0 .656.458.918 1.02.59l39.152-22.662a2.263 2.263 0 0 0 1.026-1.777V2.02c0-.656-.457-.919-1.026-.59L2.87 24.097a2.256 2.256 0 0 0-1.02 1.77z" fill="#000" opacity=".5"/><path d="M2.752 57.322a2.21 2.21 0 0 1-1.856 0c-.53-.308-.504-.826-.504-1.475V25.036a2.05 2.05 0 0 1 .301-1.01l1.458.846a2.115 2.115 0 0 0-.3 1.01v30.81c0 .584.391.853.901.63z" fill="#000" opacity=".7"/><path d="M3.419 25.278l37.766-21.85c.333-.196.608-.039.608.355V30.66a1.351 1.351 0 0 1-.608 1.062L3.42 53.58c-.34.196-.608.039-.608-.354V26.347c.013-.436.241-.836.608-1.069z" fill="#90CAF9"/><path d="M3.419 25.278l37.766-21.85c.333-.196.608-.039.608.355V30.66a1.351 1.351 0 0 1-.608 1.062L3.42 53.58c-.34.196-.608.039-.608-.354V26.347c.013-.436.241-.836.608-1.069z" fill="#FFF" opacity=".5"/><path d="M5.7 57.322l36.341-21.044c.32-.163.7-.163 1.02 0l.608.335a.315.315 0 0 1 0 .59L7.322 58.24a1.135 1.135 0 0 1-1.027 0l-.594-.328c-.288-.164-.288-.433 0-.59zm39.185-19.346L8.545 59c-.282.164-.321.406-.092.544l9.46 5.474c.301.133.649.114.934-.052l36.295-21.011c.281-.164.32-.406.092-.544l-9.42-5.5a1.043 1.043 0 0 0-.929.065z" fill="#263238" opacity=".3"/><path d="M40.113 46.813l1.137-.655c.053 0 .053-.072 0-.099l-1.091-.655a.183.183 0 0 0-.164 0l-1.137.655c-.053.033-.053.072 0 .099l1.092.655c.05.03.112.03.163 0zm-1.66-2.275l-1.138.656c-.046 0-.052.072 0 .098l1.085.656a.183.183 0 0 0 .164 0l1.137-.656c.052 0 .052-.065 0-.091l-1.092-.656a.163.163 0 0 0-.157-.007zm-3.674 2.124l-1.929 1.115c-.046.033-.052.072 0 .098l1.085.656a.183.183 0 0 0 .164 0l1.928-1.115c.046 0 .052-.072 0-.091l-1.092-.656a.202.202 0 0 0-.156-.007zm2.013-1.166l-1.137.655c-.053 0-.053.072 0 .098l1.091.656a.202.202 0 0 0 .164 0l1.137-.656c.046 0 .052-.065 0-.091l-1.085-.656a.183.183 0 0 0-.17-.006zm-4.465 2.622l-1.137.655c-.053 0-.053.072 0 .099l1.091.655a.183.183 0 0 0 .164 0l1.137-.655c.052-.033.052-.072 0-.099l-1.092-.655a.163.163 0 0 0-.163-.033v.033zm-1.667.963l-1.137.656c-.046 0-.053.072 0 .098l1.085.656a.196.196 0 0 0 .17 0l1.137-.656c.046 0 .052-.065 0-.091l-1.085-.656a.176.176 0 0 0-.17-.04v.033zm4.269 2.57l1.137-.655c.053 0 .053-.066 0-.092l-1.091-.656a.183.183 0 0 0-.164 0l-1.137.656c-.053 0-.053.072 0 .098l1.091.656c.058.014.119 0 .164-.04v.033zm-1.66.964l1.137-.656c.046 0 .052-.072 0-.091l-1.085-.656a.196.196 0 0 0-.17 0l-1.138.656c-.046 0-.052.072 0 .091l1.085.656c.06.012.12 0 .17-.033v.033zm-1.668.964l1.138-.656c.052 0 .052-.072 0-.092l-1.092-.655a.202.202 0 0 0-.163 0l-1.138.655c-.046 0-.052.072 0 .092l1.085.656a.183.183 0 0 0 .17-.033v.033zm-1.66.957l1.137-.656c.046 0 .053-.072 0-.098l-1.091-.656a.183.183 0 0 0-.164 0l-1.137.656c-.053 0-.053.065 0 .092l1.091.655a.163.163 0 0 0 .164-.026v.033zm8.498-6.726l1.138-.656c.046-.033.052-.072 0-.098l-1.085-.656a.183.183 0 0 0-.164 0l-1.137.656c-.053.033-.06.072 0 .098l1.092.656a.183.183 0 0 0 .17-.033l-.014.033zm-1.83 2.845l2.536-1.469c.046 0 .053-.072 0-.098l-2.614-1.527a.163.163 0 0 0-.164 0l-1.307.76c-.053 0-.053.066 0 .092l1.399.813c.045 0 .039.065 0 .091l-1.053.61c-.046 0-.052.072 0 .098l1.085.656a.196.196 0 0 0 .118-.026zm-7.596-.656l-1.138.656c-.046 0-.052.072 0 .098l1.092.656a.202.202 0 0 0 .163 0l1.138-.656c.052 0 .052-.065 0-.092l-1.092-.655a.183.183 0 0 0-.176 0l.013-.007zm-1.66.964l-1.138.655c-.053 0-.053.073 0 .092l1.091.656a.202.202 0 0 0 .164 0l1.137-.656c.046 0 .053-.072 0-.092l-1.085-.655a.202.202 0 0 0-.183.006l.013-.006zm-9.205 10.279a.183.183 0 0 0 .163 0l1.138-.656c.052 0 .052-.072 0-.098l-1.092-.655a.202.202 0 0 0-.164 0l-1.137.655c-.052 0-.052.072 0 .092l1.092.662zm-4.1-2.576l-1.143.655c-.046 0-.053.072 0 .092l1.085.656a.222.222 0 0 0 .17 0l1.137-.656c.046 0 .053-.072 0-.092l-1.085-.655a.202.202 0 0 0-.176.006l.013-.006zm2.106 1.934a.183.183 0 0 0 .163 0l1.138-.656c.052 0 .052-.066 0-.092l-1.092-.655a.163.163 0 0 0-.164 0l-1.137.655c-.046 0-.052.072 0 .099l1.092.649zm4.576 1.035l1.137-.655c.046 0 .053-.072 0-.092l-1.091-.656a.202.202 0 0 0-.164 0l-1.137.656c-.053 0-.053.072 0 .092l1.091.655a.183.183 0 0 0 .164-.013v.013zm-1.83.964a.196.196 0 0 0 .17 0l1.137-.656c.046 0 .052-.072 0-.098l-1.085-.655a.196.196 0 0 0-.17 0l-1.138.655c-.046 0-.052.066 0 .092l1.085.662zm-3.21-4.91l-1.138.655c-.052 0-.052.073 0 .099l1.092.655a.202.202 0 0 0 .163 0l1.138-.655c.052 0 .052-.066 0-.092l-1.092-.656a.183.183 0 0 0-.163-.006zm8.315-4.812l-1.137.656c-.053 0-.053.065 0 .091l1.091.656c.05.03.113.03.164 0l1.137-.656c.052 0 .052-.072 0-.098l-1.092-.655a.183.183 0 0 0-.156.026l-.007-.02zm-6.655 3.855l-1.137.655c-.046 0-.053.072 0 .099l1.085.655a.196.196 0 0 0 .17 0l1.137-.655c.046 0 .052-.066 0-.092l-1.085-.656a.176.176 0 0 0-.163.013l-.007-.02zm8.315-4.819l-1.137.656c-.046 0-.052.066 0 .092l1.085.655a.196.196 0 0 0 .17 0l1.138-.655c.045 0 .052-.072 0-.099l-1.086-.655a.222.222 0 0 0-.163.026l-.007-.02zm-3.327 1.928l-1.137.655c-.046 0-.053.072 0 .099l1.085.655c.053.03.117.03.17 0l1.137-.655c.046 0 .052-.072 0-.099l-1.085-.655a.196.196 0 0 0-.163.02l-.007-.02zm-1.66.963l-1.138.656c-.046.033-.052.072 0 .098l1.085.656a.183.183 0 0 0 .164 0l1.137-.656c.052-.032.052-.072 0-.098l-1.092-.656a.183.183 0 0 0-.15.02l-.006-.02zm-1.661.964l-1.137.656c-.053 0-.053.072 0 .098l1.091.656a.183.183 0 0 0 .164 0l1.137-.656c.046-.033.053-.072 0-.098l-1.085-.656a.163.163 0 0 0-.163.02l-.007-.02zm7.59.656l1.137-.656c.053-.033.053-.072 0-.098l-1.091-.656a.183.183 0 0 0-.164 0l-1.137.656c-.053 0-.053.072 0 .098l1.091.656c.053.03.116.032.17.006l-.006-.006zM42.12 42.4l-1.138.656c-.045.033-.052.072 0 .098l1.086.656c.053.029.117.029.17 0l1.137-.656c.046 0 .052-.072 0-.098L42.29 42.4a.196.196 0 0 0-.164.007l-.006-.007zm-2.014 1.167l-1.137.656c-.046 0-.052.072 0 .098l1.085.656a.196.196 0 0 0 .17 0l1.138-.656c.045-.033.052-.072 0-.098l-1.086-.656a.176.176 0 0 0-.163.007l-.007-.007zm3.68-2.13l-1.137.655c-.052 0-.052.066 0 .092l1.092.656c.05.029.113.029.164 0l1.137-.656c.046 0 .052-.072 0-.098l-1.092-.656a.183.183 0 0 0-.15.013l-.013-.006zm-9.19 8.561l1.137-.655c.046 0 .052-.072 0-.099l-1.085-.655a.196.196 0 0 0-.17 0l-1.138.655c-.045.033-.052.072 0 .099l1.085.655c.054.034.121.036.177.007l-.007-.007zm11.015-9.532a.183.183 0 0 0-.164 0l-1.137.656c-.046 0-.052.066 0 .092l1.085.655a.183.183 0 0 0 .164 0l1.137-.655c.052 0 .059-.072 0-.099l-1.085-.649zM28.274 55.46l1.137-.656c.046 0 .053-.072 0-.098l-1.085-.655a.196.196 0 0 0-.17 0l-1.137.655c-.046.033-.053.072 0 .098l1.085.656c.053.034.12.036.176.007l-.006-.007zm20.39-11.8l1.137-.656c.053-.032.053-.072 0-.098l-1.091-.655a.183.183 0 0 0-.164 0l-1.137.655c-.046.033-.053.072 0 .098l1.091.656a.183.183 0 0 0 .17 0h-.006zm-3.217.066l1.138-.656c.046 0 .052-.072 0-.092l-1.085-.655a.183.183 0 0 0-.164 0l-1.137.655c-.053 0-.053.072 0 .092l1.092.656a.202.202 0 0 0 .163 0h-.007zm1.72-2.347a.183.183 0 0 0-.164 0l-1.137.655c-.046 0-.053.072 0 .099l1.085.655a.183.183 0 0 0 .163 0l1.138-.655c.052 0 .052-.066 0-.092l-1.085-.662zm.353-.204l2.615 1.528c.053.029.117.029.17 0l1.137-.656c.046 0 .052-.072 0-.098l-2.615-1.527a.176.176 0 0 0-.17 0l-1.137.655c-.033.026-.04.072.006.098h-.006zm-3.844 2.131l-1.138.656c-.045 0-.052.072 0 .091l1.085.656a.196.196 0 0 0 .17 0l1.138-.656c.046 0 .052-.072 0-.091l-1.085-.656a.222.222 0 0 0-.164 0h-.006zm-12.513 7.25l-1.137.656c-.052 0-.052.072 0 .098l1.092.656a.183.183 0 0 0 .163 0l1.138-.656c.045-.032.052-.072 0-.098l-1.086-.656a.163.163 0 0 0-.163 0h-.007zm15.69-5.9a.183.183 0 0 0 .163 0l1.138-.655c.046-.033.052-.072 0-.098l-1.085-.636a.163.163 0 0 0-.164 0l-1.144.655c-.052 0-.059.072 0 .099l1.092.635zM32.837 49.62l-1.138.656c-.045.032-.052.072 0 .098l1.086.655a.183.183 0 0 0 .163 0l1.138-.655c.052-.033.052-.072 0-.098l-1.092-.656a.183.183 0 0 0-.164-.026l.007.026zM19.795 60.311a.222.222 0 0 0 .17 0l1.137-.655c.046 0 .053-.073 0-.092l-1.085-.656a.222.222 0 0 0-.17 0l-1.137.656c-.046 0-.053.072 0 .092l1.085.655zm-1.961-2.032l-1.144.655c-.046 0-.053.073 0 .099l1.085.655a.196.196 0 0 0 .17 0l1.137-.655c.046-.033.053-.072 0-.099l-1.085-.655a.163.163 0 0 0-.13-.02l-.033.02zm3.759 1.062l1.137-.656c.046 0 .053-.065 0-.091l-1.091-.656a.183.183 0 0 0-.164 0l-1.137.656c-.053 0-.053.072 0 .098l1.091.655c.066.026.14.017.196-.026l-.032.02zm1.66-.964l1.138-.655c.052 0 .059-.066 0-.092l-1.092-.656a.163.163 0 0 0-.163 0l-1.138.656c-.046 0-.052.072 0 .098l1.085.656c.07.03.15.014.203-.04l-.033.033zm1.667-.963l1.138-.656c.045-.033.052-.072 0-.098l-1.085-.656a.163.163 0 0 0-.164 0l-1.144.656c-.046 0-.052.072 0 .098l1.085.656a.196.196 0 0 0 .203-.02l-.033.02zm-5.426-.099l-1.137.656c-.053.033-.053.072 0 .098l1.092.656a.183.183 0 0 0 .163 0l1.137-.656c.053-.033.053-.072 0-.098l-1.091-.656a.183.183 0 0 0-.131-.02l-.033.02zm1.66-.963l-1.137.655c-.046.033-.052.072 0 .098l1.085.656c.053.03.117.03.17 0l1.138-.656c.046 0 .052-.072 0-.098l-1.085-.655a.196.196 0 0 0-.138-.02l-.032.02zm6.656-3.855l-1.138.655c-.052 0-.052.073 0 .099l1.092.655a.202.202 0 0 0 .163 0l1.138-.655c.052 0 .052-.072 0-.092l-1.092-.656a.183.183 0 0 0-.13-.026l-.033.02zm-1.66.944l-1.138.655c-.046 0-.053.073 0 .092l1.085.656a.222.222 0 0 0 .17 0l1.137-.656c.046 0 .053-.072 0-.092l-1.085-.655a.222.222 0 0 0-.17 0zm3.327-1.92l-1.138.655c-.046 0-.052.072 0 .098l1.085.656a.196.196 0 0 0 .17 0l1.138-.656c.046 0 .052-.066 0-.092l-1.085-.655a.176.176 0 0 0-.144-.007h-.026zm-6.596 3.847l-1.138.656c-.052 0-.052.065 0 .092l1.092.655c.05.03.113.03.163 0l1.138-.655c.046 0 .052-.073 0-.099l-1.085-.655a.183.183 0 0 0-.17.006zm1.634-.957l-1.138.656c-.045 0-.052.065 0 .091l1.086.656a.183.183 0 0 0 .163 0l1.138-.656c.052 0 .052-.072 0-.098l-1.092-.655a.202.202 0 0 0-.157.006zm-2.125 6.274l1.138-.656c.052 0 .052-.072 0-.092l-1.092-.655a.176.176 0 0 0-.163 0l-1.138.655c-.046 0-.052.073 0 .092l1.085.656c.055.023.117.02.17-.007v.007zm-8.766-.42l-1.092-.655a.202.202 0 0 0-.163 0l-1.138.655c-.046 0-.052.066 0 .092l1.085.656a.183.183 0 0 0 .164 0l1.137-.656c.046-.046.046-.046.007-.098v.006zm2.17.55l-1.092-.655a.183.183 0 0 0-.163 0l-1.752 1.016c-.046 0-.052.073 0 .099l1.092.655a.183.183 0 0 0 .163 0l1.752-1.016c.033-.04.04-.085 0-.105v.007zM11.996 59l-1.085-.656a.202.202 0 0 0-.164 0l-1.405.813c-.046 0-.052.072 0 .099l1.085.655a.196.196 0 0 0 .17 0l1.399-.813c.04-.013.046-.059 0-.098zm1.079-.623a.183.183 0 0 0 .163 0l1.138-.655c.045 0 .052-.066 0-.092l-1.086-.656a.163.163 0 0 0-.163 0l-1.138.656c-.052 0-.052.072 0 .098l1.086.65zm4.706 3.055l-1.085-.655a.183.183 0 0 0-.163 0l-2.19 1.265c-.052 0-.052.072 0 .098l1.092.656a.183.183 0 0 0 .163 0l2.19-1.266c.033-.006.04-.052-.007-.078v-.02zm.772 1.357l-1.092-.655a.183.183 0 0 0-.163 0l-1.4.812c-.052 0-.052.073 0 .092l1.092.656a.183.183 0 0 0 .164 0l1.399-.813c.04 0 .04-.046 0-.072v-.02zm6.884-11.57a.183.183 0 0 0 .163 0l1.138-.656c.052 0 .052-.066 0-.092l-1.092-.655a.183.183 0 0 0-.164 0l-1.137.655c-.046 0-.052.072 0 .099l1.092.649zm-3.328 1.92a.196.196 0 0 0 .17 0l1.138-.655c.045 0 .052-.072 0-.092l-1.086-.656a.222.222 0 0 0-.17 0l-1.137.656c-.046 0-.052.072 0 .092l1.085.655zm-7.374 4.275a.183.183 0 0 0 .164 0l1.137-.656c.052-.033.052-.072 0-.098l-1.092-.656a.163.163 0 0 0-.163 0l-1.138.656c-.045 0-.052.072 0 .098l1.092.656zm9.041-5.245a.202.202 0 0 0 .164 0l1.137-.655c.046 0 .052-.073 0-.092l-1.085-.656a.202.202 0 0 0-.163 0l-1.138.656c-.052 0-.052.072 0 .092l1.085.655zm-3.327 1.92c.05.03.113.03.163 0l1.138-.655c.052 0 .052-.072 0-.098l-1.092-.656a.183.183 0 0 0-.164 0l-1.137.656c-.052 0-.052.066 0 .092l1.092.662zm-1.079 8.76a.196.196 0 0 0-.17 0l-1.745 1.015c-.053 0-.053.072 0 .099l1.091.655a.183.183 0 0 0 .164 0l1.752-1.016c.046 0 .052-.066 0-.092l-1.092-.662zm-1.307-7.376c.05.03.112.03.163 0l1.138-.655c.052-.033.052-.073 0-.099l-1.092-.655a.183.183 0 0 0-.164 0l-1.137.655c-.052.033-.052.072 0 .099l1.092.655zm-1.667.964a.196.196 0 0 0 .17 0l1.137-.656c.046-.033.052-.072 0-.098l-1.085-.656a.196.196 0 0 0-.17 0l-1.138.656c-.045.033-.052.072 0 .098l1.086.656zM50.18 45.01a.196.196 0 0 0-.17 0l-2.798 1.626c-.045 0-.052.072 0 .092l1.092.656a.202.202 0 0 0 .164 0l2.804-1.626c.046 0 .052-.072 0-.092l-1.092-.656zM46.5 47.2a.183.183 0 0 0-.164 0l-1.137.656c-.046 0-.052.065 0 .091l1.092.656c.05.03.113.03.163 0l1.138-.656c.052 0 .052-.072 0-.098L46.5 47.2zM24.057 59.715l1.138-.656c.046 0 .052-.066 0-.092l-1.085-.655a.163.163 0 0 0-.164 0l-1.144.655c-.046 0-.052.072 0 .099l1.085.655a.196.196 0 0 0 .17-.006zm19.09-10.62a.183.183 0 0 0-.164 0l-1.138.655c-.045.033-.052.072 0 .098l1.086.656a.183.183 0 0 0 .163 0l1.144-.656c.046-.032.052-.072 0-.098l-1.092-.655zm8.668-5.015a.163.163 0 0 0-.164 0l-1.137.655c-.052 0-.052.072 0 .098l1.092.656a.183.183 0 0 0 .163 0l1.137-.656c.046 0 .053-.065 0-.091l-1.091-.662zm2.752-.335l-2.615-1.534a.222.222 0 0 0-.17 0l-1.137.656c-.046 0-.053.072 0 .092l2.614 1.534a.183.183 0 0 0 .164 0l1.137-.656c.072-.026.072-.066.033-.092h-.026zm-17.65 8.949a.163.163 0 0 0-.164 0l-1.406.806c-.046.033-.052.072 0 .098l1.085.656a.196.196 0 0 0 .17 0l1.4-.807c.045-.032.052-.072 0-.098l-1.086-.655zm4.203-2.433a.176.176 0 0 0-.17 0l-1.726 1.017c-.046 0-.052.072 0 .098l1.092.655a.183.183 0 0 0 .163 0l1.752-1.016c.046 0 .052-.065 0-.091l-1.111-.663zm-8.054 4.661a.196.196 0 0 0-.17 0l-9.362 5.422c-.052 0-.052.072 0 .098l1.092.656a.202.202 0 0 0 .163 0l9.368-5.422c.046-.032.053-.072 0-.098l-1.091-.656zm-9.891 5.723a.202.202 0 0 0-.164 0l-1.405.813c-.046 0-.052.072 0 .099l1.085.655a.196.196 0 0 0 .17 0l1.399-.813c.046 0 .052-.072 0-.091l-1.085-.663zm11.813-6.837a.163.163 0 0 0-.164 0l-1.399.806c-.052.033-.052.072 0 .099l1.092.655c.05.03.113.03.163 0l1.4-.806c.052-.033.052-.072 0-.098l-1.092-.656zM21.259 61.76a.202.202 0 0 0-.163 0l-1.4.813c-.051 0-.051.072 0 .098l1.093.656a.183.183 0 0 0 .163 0l1.4-.813c.051 0 .051-.072 0-.092l-1.093-.662zm17.592-10.18a.163.163 0 0 0-.163 0l-1.4.805c-.045.033-.051.073 0 .099l1.093.655a.183.183 0 0 0 .163 0l1.399-.813c.052 0 .059-.065 0-.091l-1.092-.656zm5.956-3.45a.183.183 0 0 0-.164 0l-1.137.656c-.052.033-.059.073 0 .099l1.092.655c.05.03.112.03.163 0l1.137-.655c.046 0 .053-.072 0-.099l-1.091-.655zm3.726-2.621l1.138-.656c.045 0 .052-.072 0-.098l-1.086-.656a.196.196 0 0 0-.17 0l-1.137.656c-.046 0-.052.065 0 .092l1.085.655a.176.176 0 0 0 .203.02l-.033-.013zm-6.786.327l1.138-.655c.046 0 .052-.072 0-.098l-1.085-.656a.196.196 0 0 0-.17 0l-1.138.656c-.046 0-.052.065 0 .091l1.085.656a.176.176 0 0 0 .203.02l-.033-.014zM37.328 52l3.328-1.928c.045 0 .052-.072 0-.091l-1.086-.656a.222.222 0 0 0-.17 0l-3.32 1.927c-.053 0-.053.072 0 .099l1.091.655c.057.038.13.04.19.007l-.033-.013zm9.375-5.52c.05.03.112.03.163 0l1.137-.656c.053 0 .053-.072 0-.098l-1.091-.656a.183.183 0 0 0-.164 0l-1.137.656c-.046.033-.052.072 0 .098l1.092.656zm-1.393-.905l1.144-.655c.046 0 .052-.066 0-.092l-1.092-.656a.163.163 0 0 0-.163 0l-1.138.656c-.045 0-.052.072 0 .098l1.086.656c.058.04.135.042.196.006l-.033-.013zm-9.642 7.388l1.137-.655c.046 0 .052-.072 0-.092l-1.085-.656a.196.196 0 0 0-.17 0l-1.138.656c-.045 0-.052.072 0 .092l1.086.655a.222.222 0 0 0 .202.013l-.032-.013zm7.36-4.353a.183.183 0 0 0 .164 0l1.138-.655c.045 0 .052-.066 0-.092l-1.092-.655a.163.163 0 0 0-.164 0l-1.137.655c-.052 0-.052.072 0 .098l1.092.65zM27.34 57.787l1.138-.655c.045 0 .052-.072 0-.099l-1.02-.655a.196.196 0 0 0-.17 0l-1.138.655c-.046.033-.052.072 0 .099l1.085.655c.049.02.103.02.15 0h-.045zm1.66-.963l1.138-.656c.046-.033.052-.072 0-.098l-1.085-.656a.183.183 0 0 0-.164 0l-1.137.656c-.052.032-.052.072 0 .098l1.092.656c.059.047.143.047.202 0H29zm-3.327 1.927l1.138-.656c.052-.032.052-.072 0-.098l-1.092-.656a.163.163 0 0 0-.164 0l-1.137.656c-.052 0-.052.072 0 .098l1.092.656a.183.183 0 0 0 .209 0h-.046zm6.655-3.848l1.138-.656c.045 0 .052-.072 0-.098l-1.086-.656a.196.196 0 0 0-.17 0l-1.137.656c-.046 0-.052.065 0 .092l1.085.655a.196.196 0 0 0 .216.007h-.046zm-1.602.957l1.138-.656c.052 0 .052-.072 0-.098l-1.092-.656a.183.183 0 0 0-.163 0l-1.138.656c-.046 0-.052.066 0 .092l1.085.655a.163.163 0 0 0 .17.007zm3.328-1.92l1.137-.656c.053 0 .053-.073 0-.092l-1.091-.656a.202.202 0 0 0-.164 0l-1.137.656c-.053 0-.053.072 0 .092l1.091.655a.202.202 0 0 0 .144 0h.02zm9.074-13.4a.196.196 0 0 0 .17 0l1.137-.656c.046 0 .052-.072 0-.098l-.288-.164a.163.163 0 0 0-.163 0l-1.137.655c-.053.033-.06.072 0 .099l.28.164zm-8.264 5.244a.183.183 0 0 0 .164 0l1.137-.656c.053 0 .053-.072 0-.098l-1.091-.655a.163.163 0 0 0-.164 0l-1.137.655c-.046.033-.053.072 0 .098l1.091.656zm3.328-1.927c.05.029.113.029.163 0l1.138-.656c.046 0 .052-.072 0-.098l-1.092-.656a.183.183 0 0 0-.163 0l-1.138.656c-.052 0-.052.065 0 .092l1.092.662zm-5.36 3.1c.052.03.116.03.17 0l1.137-.655c.046 0 .052-.072 0-.098l-1.085-.656a.196.196 0 0 0-.17 0l-1.138.656c-.046 0-.052.065 0 .091l1.085.662zm3.693-2.137c.053.03.117.03.17 0l1.137-.655c.046-.033.053-.072 0-.099l-1.085-.655a.196.196 0 0 0-.17 0l-1.137.655c-.046.033-.053.073 0 .099l1.085.655zm-7.015 4.065a.183.183 0 0 0 .164 0l1.137-.656c.046-.033.053-.072 0-.098l-1.085-.656a.183.183 0 0 0-.163 0l-1.144.656c-.046 0-.053.072 0 .098l1.091.656zm1.66-.964c.051.03.114.03.164 0l1.138-.655c.052 0 .052-.073 0-.099l-1.092-.623a.183.183 0 0 0-.163 0l-1.144.656c-.053.033-.053.072 0 .098l1.098.623zm8.637-5.46c.05.029.113.029.163 0l1.138-.656c.045 0 .052-.072 0-.099l-.288-.163a.183.183 0 0 0-.163 0l-1.138.655c-.052 0-.052.072 0 .098l.288.164zm4.988-2.885a.202.202 0 0 0 .163 0l1.138-.656c.045 0 .052-.072 0-.091l-.295-.17a.183.183 0 0 0-.163 0l-1.138.655c-.045.032-.052.072 0 .098l.295.164zm2.288 1.311a.202.202 0 0 0 .163 0l1.138-.656c.045 0 .052-.072 0-.091l-1.086-.656a.202.202 0 0 0-.163 0l-1.137.656c-.053 0-.06.072 0 .091l1.085.656zm3.164 3.658l1.137-.656c.053 0 .053-.072 0-.098l-1.091-.655a.202.202 0 0 0-.164 0l-1.137.655c-.053 0-.053.066 0 .092l1.091.655c.04.033.093.048.144.04l.02-.033zm-8.78-3.061c.05.029.113.029.164 0l1.137-.656c.052 0 .052-.072 0-.098l-.294-.164a.163.163 0 0 0-.164 0l-1.137.655c-.046 0-.052.072 0 .099l.294.164zm-13.624 8.351a.183.183 0 0 0 .164 0l1.137-.655c.053-.033.06-.072 0-.099l-1.091-.655a.163.163 0 0 0-.164 0l-1.137.655c-.046 0-.053.073 0 .099l1.091.655z" fill="#90CAF9"/><path d="M40.113 46.813l1.137-.655c.053 0 .053-.072 0-.099l-1.091-.655a.183.183 0 0 0-.164 0l-1.137.655c-.053.033-.053.072 0 .099l1.092.655c.05.03.112.03.163 0zm-1.66-2.275l-1.138.656c-.046 0-.052.072 0 .098l1.085.656a.183.183 0 0 0 .164 0l1.137-.656c.052 0 .052-.065 0-.091l-1.092-.656a.163.163 0 0 0-.157-.007zm-3.674 2.124l-1.929 1.115c-.046.033-.052.072 0 .098l1.085.656a.183.183 0 0 0 .164 0l1.928-1.115c.046 0 .052-.072 0-.091l-1.092-.656a.202.202 0 0 0-.156-.007zm2.013-1.166l-1.137.655c-.053 0-.053.072 0 .098l1.091.656a.202.202 0 0 0 .164 0l1.137-.656c.046 0 .052-.065 0-.091l-1.085-.656a.183.183 0 0 0-.17-.006zm-4.465 2.622l-1.137.655c-.053 0-.053.072 0 .099l1.091.655a.183.183 0 0 0 .164 0l1.137-.655c.052-.033.052-.072 0-.099l-1.092-.655a.163.163 0 0 0-.163-.033v.033zm-1.667.963l-1.137.656c-.046 0-.053.072 0 .098l1.085.656a.196.196 0 0 0 .17 0l1.137-.656c.046 0 .052-.065 0-.091l-1.085-.656a.176.176 0 0 0-.17-.04v.033zm4.269 2.57l1.137-.655c.053 0 .053-.066 0-.092l-1.091-.656a.183.183 0 0 0-.164 0l-1.137.656c-.053 0-.053.072 0 .098l1.091.656c.058.014.119 0 .164-.04v.033zm-1.66.964l1.137-.656c.046 0 .052-.072 0-.091l-1.085-.656a.196.196 0 0 0-.17 0l-1.138.656c-.046 0-.052.072 0 .091l1.085.656c.06.012.12 0 .17-.033v.033zm-1.668.964l1.138-.656c.052 0 .052-.072 0-.092l-1.092-.655a.202.202 0 0 0-.163 0l-1.138.655c-.046 0-.052.072 0 .092l1.085.656a.183.183 0 0 0 .17-.033v.033zm-1.66.957l1.137-.656c.046 0 .053-.072 0-.098l-1.091-.656a.183.183 0 0 0-.164 0l-1.137.656c-.053 0-.053.065 0 .092l1.091.655a.163.163 0 0 0 .164-.026v.033zm8.498-6.726l1.138-.656c.046-.033.052-.072 0-.098l-1.085-.656a.183.183 0 0 0-.164 0l-1.137.656c-.053.033-.06.072 0 .098l1.092.656a.183.183 0 0 0 .17-.033l-.014.033zm-1.83 2.845l2.536-1.469c.046 0 .053-.072 0-.098l-2.614-1.527a.163.163 0 0 0-.164 0l-1.307.76c-.053 0-.053.066 0 .092l1.399.813c.045 0 .039.065 0 .091l-1.053.61c-.046 0-.052.072 0 .098l1.085.656a.196.196 0 0 0 .118-.026zm-7.596-.656l-1.138.656c-.046 0-.052.072 0 .098l1.092.656a.202.202 0 0 0 .163 0l1.138-.656c.052 0 .052-.065 0-.092l-1.092-.655a.183.183 0 0 0-.176 0l.013-.007zm-1.66.964l-1.138.655c-.053 0-.053.073 0 .092l1.091.656a.202.202 0 0 0 .164 0l1.137-.656c.046 0 .053-.072 0-.092l-1.085-.655a.202.202 0 0 0-.183.006l.013-.006zm-9.205 10.279a.183.183 0 0 0 .163 0l1.138-.656c.052 0 .052-.072 0-.098l-1.092-.655a.202.202 0 0 0-.164 0l-1.137.655c-.052 0-.052.072 0 .092l1.092.662zm-4.1-2.576l-1.143.655c-.046 0-.053.072 0 .092l1.085.656a.222.222 0 0 0 .17 0l1.137-.656c.046 0 .053-.072 0-.092l-1.085-.655a.202.202 0 0 0-.176.006l.013-.006zm2.106 1.934a.183.183 0 0 0 .163 0l1.138-.656c.052 0 .052-.066 0-.092l-1.092-.655a.163.163 0 0 0-.164 0l-1.137.655c-.046 0-.052.072 0 .099l1.092.649zm4.576 1.035l1.137-.655c.046 0 .053-.072 0-.092l-1.091-.656a.202.202 0 0 0-.164 0l-1.137.656c-.053 0-.053.072 0 .092l1.091.655a.183.183 0 0 0 .164-.013v.013zm-1.83.964a.196.196 0 0 0 .17 0l1.137-.656c.046 0 .052-.072 0-.098l-1.085-.655a.196.196 0 0 0-.17 0l-1.138.655c-.046 0-.052.066 0 .092l1.085.662zm-3.21-4.91l-1.138.655c-.052 0-.052.073 0 .099l1.092.655a.202.202 0 0 0 .163 0l1.138-.655c.052 0 .052-.066 0-.092l-1.092-.656a.183.183 0 0 0-.163-.006zm8.315-4.812l-1.137.656c-.053 0-.053.065 0 .091l1.091.656c.05.03.113.03.164 0l1.137-.656c.052 0 .052-.072 0-.098l-1.092-.655a.183.183 0 0 0-.156.026l-.007-.02zm-6.655 3.855l-1.137.655c-.046 0-.053.072 0 .099l1.085.655a.196.196 0 0 0 .17 0l1.137-.655c.046 0 .052-.066 0-.092l-1.085-.656a.176.176 0 0 0-.163.013l-.007-.02zm8.315-4.819l-1.137.656c-.046 0-.052.066 0 .092l1.085.655a.196.196 0 0 0 .17 0l1.138-.655c.045 0 .052-.072 0-.099l-1.086-.655a.222.222 0 0 0-.163.026l-.007-.02zm-3.327 1.928l-1.137.655c-.046 0-.053.072 0 .099l1.085.655c.053.03.117.03.17 0l1.137-.655c.046 0 .052-.072 0-.099l-1.085-.655a.196.196 0 0 0-.163.02l-.007-.02zm-1.66.963l-1.138.656c-.046.033-.052.072 0 .098l1.085.656a.183.183 0 0 0 .164 0l1.137-.656c.052-.032.052-.072 0-.098l-1.092-.656a.183.183 0 0 0-.15.02l-.006-.02zm-1.661.964l-1.137.656c-.053 0-.053.072 0 .098l1.091.656a.183.183 0 0 0 .164 0l1.137-.656c.046-.033.053-.072 0-.098l-1.085-.656a.163.163 0 0 0-.163.02l-.007-.02zm7.59.656l1.137-.656c.053-.033.053-.072 0-.098l-1.091-.656a.183.183 0 0 0-.164 0l-1.137.656c-.053 0-.053.072 0 .098l1.091.656c.053.03.116.032.17.006l-.006-.006zM42.12 42.4l-1.138.656c-.045.033-.052.072 0 .098l1.086.656c.053.029.117.029.17 0l1.137-.656c.046 0 .052-.072 0-.098L42.29 42.4a.196.196 0 0 0-.164.007l-.006-.007zm-2.014 1.167l-1.137.656c-.046 0-.052.072 0 .098l1.085.656a.196.196 0 0 0 .17 0l1.138-.656c.045-.033.052-.072 0-.098l-1.086-.656a.176.176 0 0 0-.163.007l-.007-.007zm3.68-2.13l-1.137.655c-.052 0-.052.066 0 .092l1.092.656c.05.029.113.029.164 0l1.137-.656c.046 0 .052-.072 0-.098l-1.092-.656a.183.183 0 0 0-.15.013l-.013-.006zm-9.19 8.561l1.137-.655c.046 0 .052-.072 0-.099l-1.085-.655a.196.196 0 0 0-.17 0l-1.138.655c-.045.033-.052.072 0 .099l1.085.655c.054.034.121.036.177.007l-.007-.007zm11.015-9.532a.183.183 0 0 0-.164 0l-1.137.656c-.046 0-.052.066 0 .092l1.085.655a.183.183 0 0 0 .164 0l1.137-.655c.052 0 .059-.072 0-.099l-1.085-.649zM28.274 55.46l1.137-.656c.046 0 .053-.072 0-.098l-1.085-.655a.196.196 0 0 0-.17 0l-1.137.655c-.046.033-.053.072 0 .098l1.085.656c.053.034.12.036.176.007l-.006-.007zm20.39-11.8l1.137-.656c.053-.032.053-.072 0-.098l-1.091-.655a.183.183 0 0 0-.164 0l-1.137.655c-.046.033-.053.072 0 .098l1.091.656a.183.183 0 0 0 .17 0h-.006zm-3.217.066l1.138-.656c.046 0 .052-.072 0-.092l-1.085-.655a.183.183 0 0 0-.164 0l-1.137.655c-.053 0-.053.072 0 .092l1.092.656a.202.202 0 0 0 .163 0h-.007zm1.72-2.347a.183.183 0 0 0-.164 0l-1.137.655c-.046 0-.053.072 0 .099l1.085.655a.183.183 0 0 0 .163 0l1.138-.655c.052 0 .052-.066 0-.092l-1.085-.662zm.353-.204l2.615 1.528c.053.029.117.029.17 0l1.137-.656c.046 0 .052-.072 0-.098l-2.615-1.527a.176.176 0 0 0-.17 0l-1.137.655c-.033.026-.04.072.006.098h-.006zm-3.844 2.131l-1.138.656c-.045 0-.052.072 0 .091l1.085.656a.196.196 0 0 0 .17 0l1.138-.656c.046 0 .052-.072 0-.091l-1.085-.656a.222.222 0 0 0-.164 0h-.006zm-12.513 7.25l-1.137.656c-.052 0-.052.072 0 .098l1.092.656a.183.183 0 0 0 .163 0l1.138-.656c.045-.032.052-.072 0-.098l-1.086-.656a.163.163 0 0 0-.163 0h-.007zm15.69-5.9a.183.183 0 0 0 .163 0l1.138-.655c.046-.033.052-.072 0-.098l-1.085-.636a.163.163 0 0 0-.164 0l-1.144.655c-.052 0-.059.072 0 .099l1.092.635zM32.837 49.62l-1.138.656c-.045.032-.052.072 0 .098l1.086.655a.183.183 0 0 0 .163 0l1.138-.655c.052-.033.052-.072 0-.098l-1.092-.656a.183.183 0 0 0-.164-.026l.007.026zM19.795 60.311a.222.222 0 0 0 .17 0l1.137-.655c.046 0 .053-.073 0-.092l-1.085-.656a.222.222 0 0 0-.17 0l-1.137.656c-.046 0-.053.072 0 .092l1.085.655zm-1.961-2.032l-1.144.655c-.046 0-.053.073 0 .099l1.085.655a.196.196 0 0 0 .17 0l1.137-.655c.046-.033.053-.072 0-.099l-1.085-.655a.163.163 0 0 0-.13-.02l-.033.02zm3.759 1.062l1.137-.656c.046 0 .053-.065 0-.091l-1.091-.656a.183.183 0 0 0-.164 0l-1.137.656c-.053 0-.053.072 0 .098l1.091.655c.066.026.14.017.196-.026l-.032.02zm1.66-.964l1.138-.655c.052 0 .059-.066 0-.092l-1.092-.656a.163.163 0 0 0-.163 0l-1.138.656c-.046 0-.052.072 0 .098l1.085.656c.07.03.15.014.203-.04l-.033.033zm1.667-.963l1.138-.656c.045-.033.052-.072 0-.098l-1.085-.656a.163.163 0 0 0-.164 0l-1.144.656c-.046 0-.052.072 0 .098l1.085.656a.196.196 0 0 0 .203-.02l-.033.02zm-5.426-.099l-1.137.656c-.053.033-.053.072 0 .098l1.092.656a.183.183 0 0 0 .163 0l1.137-.656c.053-.033.053-.072 0-.098l-1.091-.656a.183.183 0 0 0-.131-.02l-.033.02zm1.66-.963l-1.137.655c-.046.033-.052.072 0 .098l1.085.656c.053.03.117.03.17 0l1.138-.656c.046 0 .052-.072 0-.098l-1.085-.655a.196.196 0 0 0-.138-.02l-.032.02zm6.656-3.855l-1.138.655c-.052 0-.052.073 0 .099l1.092.655a.202.202 0 0 0 .163 0l1.138-.655c.052 0 .052-.072 0-.092l-1.092-.656a.183.183 0 0 0-.13-.026l-.033.02zm-1.66.944l-1.138.655c-.046 0-.053.073 0 .092l1.085.656a.222.222 0 0 0 .17 0l1.137-.656c.046 0 .053-.072 0-.092l-1.085-.655a.222.222 0 0 0-.17 0zm3.327-1.92l-1.138.655c-.046 0-.052.072 0 .098l1.085.656a.196.196 0 0 0 .17 0l1.138-.656c.046 0 .052-.066 0-.092l-1.085-.655a.176.176 0 0 0-.144-.007h-.026zm-6.596 3.847l-1.138.656c-.052 0-.052.065 0 .092l1.092.655c.05.03.113.03.163 0l1.138-.655c.046 0 .052-.073 0-.099l-1.085-.655a.183.183 0 0 0-.17.006zm1.634-.957l-1.138.656c-.045 0-.052.065 0 .091l1.086.656a.183.183 0 0 0 .163 0l1.138-.656c.052 0 .052-.072 0-.098l-1.092-.655a.202.202 0 0 0-.157.006zm-2.125 6.274l1.138-.656c.052 0 .052-.072 0-.092l-1.092-.655a.176.176 0 0 0-.163 0l-1.138.655c-.046 0-.052.073 0 .092l1.085.656c.055.023.117.02.17-.007v.007zm-8.766-.42l-1.092-.655a.202.202 0 0 0-.163 0l-1.138.655c-.046 0-.052.066 0 .092l1.085.656a.183.183 0 0 0 .164 0l1.137-.656c.046-.046.046-.046.007-.098v.006zm2.17.55l-1.092-.655a.183.183 0 0 0-.163 0l-1.752 1.016c-.046 0-.052.073 0 .099l1.092.655a.183.183 0 0 0 .163 0l1.752-1.016c.033-.04.04-.085 0-.105v.007zM11.996 59l-1.085-.656a.202.202 0 0 0-.164 0l-1.405.813c-.046 0-.052.072 0 .099l1.085.655a.196.196 0 0 0 .17 0l1.399-.813c.04-.013.046-.059 0-.098zm1.079-.623a.183.183 0 0 0 .163 0l1.138-.655c.045 0 .052-.066 0-.092l-1.086-.656a.163.163 0 0 0-.163 0l-1.138.656c-.052 0-.052.072 0 .098l1.086.65zm4.706 3.055l-1.085-.655a.183.183 0 0 0-.163 0l-2.19 1.265c-.052 0-.052.072 0 .098l1.092.656a.183.183 0 0 0 .163 0l2.19-1.266c.033-.006.04-.052-.007-.078v-.02zm.772 1.357l-1.092-.655a.183.183 0 0 0-.163 0l-1.4.812c-.052 0-.052.073 0 .092l1.092.656a.183.183 0 0 0 .164 0l1.399-.813c.04 0 .04-.046 0-.072v-.02zm6.884-11.57a.183.183 0 0 0 .163 0l1.138-.656c.052 0 .052-.066 0-.092l-1.092-.655a.183.183 0 0 0-.164 0l-1.137.655c-.046 0-.052.072 0 .099l1.092.649zm-3.328 1.92a.196.196 0 0 0 .17 0l1.138-.655c.045 0 .052-.072 0-.092l-1.086-.656a.222.222 0 0 0-.17 0l-1.137.656c-.046 0-.052.072 0 .092l1.085.655zm-7.374 4.275a.183.183 0 0 0 .164 0l1.137-.656c.052-.033.052-.072 0-.098l-1.092-.656a.163.163 0 0 0-.163 0l-1.138.656c-.045 0-.052.072 0 .098l1.092.656zm9.041-5.245a.202.202 0 0 0 .164 0l1.137-.655c.046 0 .052-.073 0-.092l-1.085-.656a.202.202 0 0 0-.163 0l-1.138.656c-.052 0-.052.072 0 .092l1.085.655zm-3.327 1.92c.05.03.113.03.163 0l1.138-.655c.052 0 .052-.072 0-.098l-1.092-.656a.183.183 0 0 0-.164 0l-1.137.656c-.052 0-.052.066 0 .092l1.092.662zm-1.079 8.76a.196.196 0 0 0-.17 0l-1.745 1.015c-.053 0-.053.072 0 .099l1.091.655a.183.183 0 0 0 .164 0l1.752-1.016c.046 0 .052-.066 0-.092l-1.092-.662zm-1.307-7.376c.05.03.112.03.163 0l1.138-.655c.052-.033.052-.073 0-.099l-1.092-.655a.183.183 0 0 0-.164 0l-1.137.655c-.052.033-.052.072 0 .099l1.092.655zm-1.667.964a.196.196 0 0 0 .17 0l1.137-.656c.046-.033.052-.072 0-.098l-1.085-.656a.196.196 0 0 0-.17 0l-1.138.656c-.045.033-.052.072 0 .098l1.086.656zM50.18 45.01a.196.196 0 0 0-.17 0l-2.798 1.626c-.045 0-.052.072 0 .092l1.092.656a.202.202 0 0 0 .164 0l2.804-1.626c.046 0 .052-.072 0-.092l-1.092-.656zM46.5 47.2a.183.183 0 0 0-.164 0l-1.137.656c-.046 0-.052.065 0 .091l1.092.656c.05.03.113.03.163 0l1.138-.656c.052 0 .052-.072 0-.098L46.5 47.2zM24.057 59.715l1.138-.656c.046 0 .052-.066 0-.092l-1.085-.655a.163.163 0 0 0-.164 0l-1.144.655c-.046 0-.052.072 0 .099l1.085.655a.196.196 0 0 0 .17-.006zm19.09-10.62a.183.183 0 0 0-.164 0l-1.138.655c-.045.033-.052.072 0 .098l1.086.656a.183.183 0 0 0 .163 0l1.144-.656c.046-.032.052-.072 0-.098l-1.092-.655zm8.668-5.015a.163.163 0 0 0-.164 0l-1.137.655c-.052 0-.052.072 0 .098l1.092.656a.183.183 0 0 0 .163 0l1.137-.656c.046 0 .053-.065 0-.091l-1.091-.662zm2.752-.335l-2.615-1.534a.222.222 0 0 0-.17 0l-1.137.656c-.046 0-.053.072 0 .092l2.614 1.534a.183.183 0 0 0 .164 0l1.137-.656c.072-.026.072-.066.033-.092h-.026zm-17.65 8.949a.163.163 0 0 0-.164 0l-1.406.806c-.046.033-.052.072 0 .098l1.085.656a.196.196 0 0 0 .17 0l1.4-.807c.045-.032.052-.072 0-.098l-1.086-.655zm4.203-2.433a.176.176 0 0 0-.17 0l-1.726 1.017c-.046 0-.052.072 0 .098l1.092.655a.183.183 0 0 0 .163 0l1.752-1.016c.046 0 .052-.065 0-.091l-1.111-.663zm-8.054 4.661a.196.196 0 0 0-.17 0l-9.362 5.422c-.052 0-.052.072 0 .098l1.092.656a.202.202 0 0 0 .163 0l9.368-5.422c.046-.032.053-.072 0-.098l-1.091-.656zm-9.891 5.723a.202.202 0 0 0-.164 0l-1.405.813c-.046 0-.052.072 0 .099l1.085.655a.196.196 0 0 0 .17 0l1.399-.813c.046 0 .052-.072 0-.091l-1.085-.663zm11.813-6.837a.163.163 0 0 0-.164 0l-1.399.806c-.052.033-.052.072 0 .099l1.092.655c.05.03.113.03.163 0l1.4-.806c.052-.033.052-.072 0-.098l-1.092-.656zM21.259 61.76a.202.202 0 0 0-.163 0l-1.4.813c-.051 0-.051.072 0 .098l1.093.656a.183.183 0 0 0 .163 0l1.4-.813c.051 0 .051-.072 0-.092l-1.093-.662zm17.592-10.18a.163.163 0 0 0-.163 0l-1.4.805c-.045.033-.051.073 0 .099l1.093.655a.183.183 0 0 0 .163 0l1.399-.813c.052 0 .059-.065 0-.091l-1.092-.656zm5.956-3.45a.183.183 0 0 0-.164 0l-1.137.656c-.052.033-.059.073 0 .099l1.092.655c.05.03.112.03.163 0l1.137-.655c.046 0 .053-.072 0-.099l-1.091-.655zm3.726-2.621l1.138-.656c.045 0 .052-.072 0-.098l-1.086-.656a.196.196 0 0 0-.17 0l-1.137.656c-.046 0-.052.065 0 .092l1.085.655a.176.176 0 0 0 .203.02l-.033-.013zm-6.786.327l1.138-.655c.046 0 .052-.072 0-.098l-1.085-.656a.196.196 0 0 0-.17 0l-1.138.656c-.046 0-.052.065 0 .091l1.085.656a.176.176 0 0 0 .203.02l-.033-.014zM37.328 52l3.328-1.928c.045 0 .052-.072 0-.091l-1.086-.656a.222.222 0 0 0-.17 0l-3.32 1.927c-.053 0-.053.072 0 .099l1.091.655c.057.038.13.04.19.007l-.033-.013zm9.375-5.52c.05.03.112.03.163 0l1.137-.656c.053 0 .053-.072 0-.098l-1.091-.656a.183.183 0 0 0-.164 0l-1.137.656c-.046.033-.052.072 0 .098l1.092.656zm-1.393-.905l1.144-.655c.046 0 .052-.066 0-.092l-1.092-.656a.163.163 0 0 0-.163 0l-1.138.656c-.045 0-.052.072 0 .098l1.086.656c.058.04.135.042.196.006l-.033-.013zm-9.642 7.388l1.137-.655c.046 0 .052-.072 0-.092l-1.085-.656a.196.196 0 0 0-.17 0l-1.138.656c-.045 0-.052.072 0 .092l1.086.655a.222.222 0 0 0 .202.013l-.032-.013zm7.36-4.353a.183.183 0 0 0 .164 0l1.138-.655c.045 0 .052-.066 0-.092l-1.092-.655a.163.163 0 0 0-.164 0l-1.137.655c-.052 0-.052.072 0 .098l1.092.65zM27.34 57.787l1.138-.655c.045 0 .052-.072 0-.099l-1.02-.655a.196.196 0 0 0-.17 0l-1.138.655c-.046.033-.052.072 0 .099l1.085.655c.049.02.103.02.15 0h-.045zm1.66-.963l1.138-.656c.046-.033.052-.072 0-.098l-1.085-.656a.183.183 0 0 0-.164 0l-1.137.656c-.052.032-.052.072 0 .098l1.092.656c.059.047.143.047.202 0H29zm-3.327 1.927l1.138-.656c.052-.032.052-.072 0-.098l-1.092-.656a.163.163 0 0 0-.164 0l-1.137.656c-.052 0-.052.072 0 .098l1.092.656a.183.183 0 0 0 .209 0h-.046zm6.655-3.848l1.138-.656c.045 0 .052-.072 0-.098l-1.086-.656a.196.196 0 0 0-.17 0l-1.137.656c-.046 0-.052.065 0 .092l1.085.655a.196.196 0 0 0 .216.007h-.046zm-1.602.957l1.138-.656c.052 0 .052-.072 0-.098l-1.092-.656a.183.183 0 0 0-.163 0l-1.138.656c-.046 0-.052.066 0 .092l1.085.655a.163.163 0 0 0 .17.007zm3.328-1.92l1.137-.656c.053 0 .053-.073 0-.092l-1.091-.656a.202.202 0 0 0-.164 0l-1.137.656c-.053 0-.053.072 0 .092l1.091.655a.202.202 0 0 0 .144 0h.02zm9.074-13.4a.196.196 0 0 0 .17 0l1.137-.656c.046 0 .052-.072 0-.098l-.288-.164a.163.163 0 0 0-.163 0l-1.137.655c-.053.033-.06.072 0 .099l.28.164zm-8.264 5.244a.183.183 0 0 0 .164 0l1.137-.656c.053 0 .053-.072 0-.098l-1.091-.655a.163.163 0 0 0-.164 0l-1.137.655c-.046.033-.053.072 0 .098l1.091.656zm3.328-1.927c.05.029.113.029.163 0l1.138-.656c.046 0 .052-.072 0-.098l-1.092-.656a.183.183 0 0 0-.163 0l-1.138.656c-.052 0-.052.065 0 .092l1.092.662zm-5.36 3.1c.052.03.116.03.17 0l1.137-.655c.046 0 .052-.072 0-.098l-1.085-.656a.196.196 0 0 0-.17 0l-1.138.656c-.046 0-.052.065 0 .091l1.085.662zm3.693-2.137c.053.03.117.03.17 0l1.137-.655c.046-.033.053-.072 0-.099l-1.085-.655a.196.196 0 0 0-.17 0l-1.137.655c-.046.033-.053.073 0 .099l1.085.655zm-7.015 4.065a.183.183 0 0 0 .164 0l1.137-.656c.046-.033.053-.072 0-.098l-1.085-.656a.183.183 0 0 0-.163 0l-1.144.656c-.046 0-.053.072 0 .098l1.091.656zm1.66-.964c.051.03.114.03.164 0l1.138-.655c.052 0 .052-.073 0-.099l-1.092-.623a.183.183 0 0 0-.163 0l-1.144.656c-.053.033-.053.072 0 .098l1.098.623zm8.637-5.46c.05.029.113.029.163 0l1.138-.656c.045 0 .052-.072 0-.099l-.288-.163a.183.183 0 0 0-.163 0l-1.138.655c-.052 0-.052.072 0 .098l.288.164zm4.988-2.885a.202.202 0 0 0 .163 0l1.138-.656c.045 0 .052-.072 0-.091l-.295-.17a.183.183 0 0 0-.163 0l-1.138.655c-.045.032-.052.072 0 .098l.295.164zm2.288 1.311a.202.202 0 0 0 .163 0l1.138-.656c.045 0 .052-.072 0-.091l-1.086-.656a.202.202 0 0 0-.163 0l-1.137.656c-.053 0-.06.072 0 .091l1.085.656zm3.164 3.658l1.137-.656c.053 0 .053-.072 0-.098l-1.091-.655a.202.202 0 0 0-.164 0l-1.137.655c-.053 0-.053.066 0 .092l1.091.655c.04.033.093.048.144.04l.02-.033zm-8.78-3.061c.05.029.113.029.164 0l1.137-.656c.052 0 .052-.072 0-.098l-.294-.164a.163.163 0 0 0-.164 0l-1.137.655c-.046 0-.052.072 0 .099l.294.164zm-13.624 8.351a.183.183 0 0 0 .164 0l1.137-.655c.053-.033.06-.072 0-.099l-1.091-.655a.163.163 0 0 0-.164 0l-1.137.655c-.046 0-.053.073 0 .099l1.091.655z" fill="#000" opacity=".1"/><path fill="#000" opacity=".4" d="M32.6669552 58.4558889L32.9022985 58.5935556 39.0996716 62.1794444 50.1215821 55.7943333 50.3503881 55.6632222 43.9176716 51.9462222z"/><path fill="#90CAF9" d="M32.9022985 58.5935556L39.0996716 62.1794444 50.1215821 55.7943333 43.9176716 52.2084444z"/><path fill="#000" opacity=".45" d="M32.9022985 58.5935556L39.0996716 62.1794444 50.1215821 55.7943333 43.9176716 52.2084444z"/><path d="M5.42 26.714L39.171 7.172c.392-.23.706-.046.706.406V29.5a1.555 1.555 0 0 1-.706 1.226L5.419 50.26c-.392.223-.706.04-.706-.413V27.946c.027-.5.289-.957.706-1.232z" fill="#FFF"/><path d="M28.705 26.688l-.804-.263c.654-3.782-.653-4.831-2.615-4.74.837.374 1.484 2.295 1.092 4.242l-.804-.262c-.157-.052-.366.243-.34.479l.399 3.52c0 .157.144.197.268.085l2.746-2.491c.17-.17.215-.518.058-.57z" fill="#90CAF9"/><path d="M26.012 24.02c-.15-1.135-.615-2.026-1.157-2.269 0 0-2.04.446-3.641 3.626 0 0 2.516-2.708 4.798-1.357z" fill="#90CAF9" opacity=".8"/><path d="M18.35 30.746l.804.255c-.653 3.783.654 4.832 2.615 4.746-.83-.38-1.477-2.294-1.085-4.241l.804.262c.157.046.366-.249.34-.485l-.399-3.514c0-.164-.144-.203-.268-.085l-2.745 2.491c-.183.17-.223.518-.066.57z" fill="#90CAF9"/><path d="M21.044 33.433c.15 1.128.614 2.026 1.157 2.269 0 0 2.04-.453 3.641-3.626 0-.02-2.517 2.668-4.798 1.357z" fill="#90CAF9" opacity=".8"/><path d="M39.878 7.572c0-.446-.314-.656-.706-.4L5.419 26.714c-.417.275-.68.732-.706 1.232v1.738L39.878 9.315V7.572z" fill="#E0E0E0"/></g></g><g transform="translate(59.49 134.389)"><path d="M16.343 27.442a1.78 1.78 0 0 1-.87-.21L.988 18.847a.721.721 0 0 1 0-1.31l2.615-1.502-1.242-.715a.721.721 0 0 1 0-1.31L23.685 1.664a1.891 1.891 0 0 1 1.732 0l14.46 8.352a.787.787 0 0 1 .445.655.793.793 0 0 1-.444.656l-2.615 1.514 1.235.715a.721.721 0 0 1 0 1.311L17.193 27.232c-.26.14-.553.213-.85.21z" fill="#000" opacity=".05"/><path d="M38.675 13.111a.511.511 0 0 0-.301-.42l-14.487-8.39a1.63 1.63 0 0 0-1.457 0L1.11 16.63a.511.511 0 0 0-.3.42v.656a.492.492 0 0 0 .3.413l14.487 8.39c.46.23.999.23 1.458 0l21.318-12.343a.518.518 0 0 0 .3-.413v-.643z" fill="#EBEBEB"/><path d="M1.111 16.631L22.43 4.287a1.63 1.63 0 0 1 1.457 0l14.487 8.391a.446.446 0 0 1 0 .84L17.056 25.862c-.458.235-1 .235-1.458 0L1.111 17.477a.446.446 0 0 1 0-.846z" fill="#FFF"/><path d="M16.343 26.039v.655a1.448 1.448 0 0 1-.725-.17L1.11 18.139a.511.511 0 0 1-.3-.42v-.655c.015.187.13.35.3.426l14.487 8.385c.23.12.487.176.745.164z" fill="#E0E0E0"/><path d="M40.021 9.558a.511.511 0 0 0-.3-.426L25.234.747c-.457-.235-1-.235-1.458 0L2.458 13.111a.505.505 0 0 0-.3.42v.655a.511.511 0 0 0 .3.42l14.487 8.384c.457.236 1 .236 1.458 0L39.72 10.646a.505.505 0 0 0 .3-.413v-.675z" fill="#EBEBEB"/><path d="M2.458 13.111L23.776.767c.458-.236 1-.236 1.458 0l14.487 8.385a.446.446 0 0 1 0 .845L18.403 22.341a1.63 1.63 0 0 1-1.458 0l-14.487-8.39a.44.44 0 0 1 0-.84z" fill="#FFF"/><path d="M17.65 22.492v.656a1.455 1.455 0 0 1-.725-.177L2.438 14.586a.511.511 0 0 1-.3-.42v-.655a.505.505 0 0 0 .3.42l14.487 8.39c.223.12.473.179.726.171z" fill="#E0E0E0"/></g><g transform="translate(84.331 106.2)"><path fill="#000" opacity=".1" d="M3.7981791 2.17644444L17.1604478 9.89233333 15.558806 10.8232222 2.2880597 3.04833333 0.967522388 1.19966667z"/><path d="M2.497 2.557L.91.656A.079.079 0 0 1 .98.53l2.425.538-.909 1.488z" fill="#F28F8F"/><path fill="#FFA8A7" d="M0.967522388 0.537555556L0.967522388 0.537555556 3.39286567 1.07511111 2.90910448 1.85522222 2.65414925 1.69788889 0.954447761 0.622777778z"/><path d="M.98.538A.078.078 0 0 0 .91.662l.307.367a.426.426 0 0 1 .242-.36h.039L.981.538z" fill="#263238"/><path d="M14.382 7.716l-.196-.118-.235-.144L3.412 1.075a1.124 1.124 0 0 0-.653.446c-.24.285-.327.668-.236 1.03l10.539 6.378.45.275c-.313-.197.576-1.678.87-1.488z" fill="#37474F"/><path d="M14.382 7.716l-.196-.118-.235-.144L3.412 1.075a1.164 1.164 0 0 0-.77.603l10.995 6.726v.046c.229-.426.582-.839.745-.734z" fill="#455A64"/><path d="M13.63 7.264l-.431-.27c-.124-.078-.373.145-.589.44-.215.295-.464.95-.3 1.055l.32.197.118.066c-.164-.105 0-.656.3-1.056.21-.282.445-.498.57-.446 0 0 .012.007.012.014z" fill="#EBEBEB"/><path d="M13.526 7.211c-.288-.19-1.177 1.311-.89 1.488l.439.269c-.288-.19.595-1.678.882-1.495l-.431-.262z" fill="#37474F"/><path d="M14.382 7.716l-.431-.262c-.281-.19-1.15 1.245-.91 1.475l.439.262c-.281-.184.608-1.665.902-1.475z" fill="#EBEBEB"/><path d="M16.206 8.824l-1.83-1.108c-.125-.085-.367.138-.582.426-.288.393-.471.95-.308 1.062l1.837 1.114c.367.217.903-.472 1.014-1.01a.447.447 0 0 0-.131-.484z" fill="#F28F8F"/><path d="M15.65 9.007c-.31.284-.47.695-.438 1.115.02.096.083.178.17.223.36.118.85-.525.955-1.036a.433.433 0 0 0-.124-.479c-.138-.078-.353-.026-.563.177z" fill="#000" opacity=".1"/></g><g transform="translate(101.328 117.344)"><path d="M2.118 19.13a12.689 12.689 0 0 1 9.237 0c2.504 1.16 2.504 3.047 0 4.208a12.689 12.689 0 0 1-9.237 0c-2.589-1.16-2.589-3.016 0-4.209z" opacity=".05" fill="#000"/><path d="M2.425 10.109a14.233 14.233 0 0 1 8.623 0c2.34.898 2.34 2.347 0 3.238a14.135 14.135 0 0 1-8.623 0C0 12.456 0 11.007 2.425 10.11z" fill="#F0997A"/><path d="M.399 5.566h12.61l-.954 14.9c-.059.538-.562 1.076-1.53 1.489-2.444.886-5.12.886-7.564 0-.993-.413-1.516-.951-1.582-1.489L.4 5.566z" fill="#FAFAFA"/><path d="M13.01 5.579l-.197 3.028a5.591 5.591 0 0 1-1.046.57 15.244 15.244 0 0 1-10.041 0c-.124-.045-.222-.104-.334-.15a6.382 6.382 0 0 1-.79-.452L.404 5.572l12.604.007z" fill="#E0E0E0"/><path d="M.177 6.07V3.973h1.346c.183-.092.38-.184.595-.27a14.031 14.031 0 0 1 9.237 0c.21.086.393.178.57.27h1.307V6.07c0 .656-.654 1.364-1.883 1.888a14.077 14.077 0 0 1-9.237 0C.824 7.434.177 6.752.177 6.07z" fill="#37474F"/><path d="M2.118 2.091a14.031 14.031 0 0 1 9.237 0c2.504 1.043 2.504 2.727 0 3.77a14.031 14.031 0 0 1-9.237 0c-2.589-1.043-2.589-2.727 0-3.77z" fill="#455A64"/><path d="M1.844 3.39l.523-1.404h8.681l.523 1.403c.196.544-.255 1.115-1.36 1.528a11.534 11.534 0 0 1-6.949 0c-1.15-.413-1.621-.984-1.418-1.528z" fill="#37474F"/><path d="M3.641 1.016a10.217 10.217 0 0 1 6.172 0c1.68.656 1.68 1.659 0 2.288a10.217 10.217 0 0 1-6.172 0c-1.739-.63-1.739-1.659 0-2.288z" fill="#455A64"/><path d="M2.942 2.163s.046.105.19.217c.22.15.46.272.712.36a9.018 9.018 0 0 0 2.903.44 8.581 8.581 0 0 0 2.856-.44c.246-.085.477-.207.687-.36.144-.118.183-.204.183-.223 0-.02-.15-.308-.87-.577a8.418 8.418 0 0 0-2.856-.44 8.842 8.842 0 0 0-2.903.44c-.72.262-.902.524-.902.583z" fill="#37474F"/><path d="M3.131 2.38c.22.15.46.272.713.36a9.018 9.018 0 0 0 2.903.44 8.581 8.581 0 0 0 2.856-.44c.246-.085.477-.207.687-.36a2.39 2.39 0 0 0-.687-.367 8.594 8.594 0 0 0-2.856-.433 8.842 8.842 0 0 0-2.903.44 2.612 2.612 0 0 0-.713.36z" fill="#263238"/><path d="M4.87 2.419a.874.874 0 0 0-.653-.131c-.125.072 0 .242.228.393.201.138.45.185.687.131.098-.078-.013-.249-.262-.393z" fill="#000"/><path d="M12.454 17.117c0 .55-.556 1.1-1.66 1.527a13.36 13.36 0 0 1-8.12 0c-1.144-.42-1.713-.97-1.713-1.52l-.353-5.39c0 .59.601 1.174 1.817 1.62 2.805.898 5.819.898 8.623 0 1.17-.446 1.759-1.03 1.759-1.62l-.353 5.383z" fill="#FFBDA7"/><path d="M4.753 17.379a7.159 7.159 0 0 1-.484-.911 2.696 2.696 0 0 0-1.406-1.24.176.176 0 0 0-.222.08c-.29.748-.084 1.599.517 2.13.53.586 1.36.795 2.105.53.039 0 .045-.091 0-.104a1.689 1.689 0 0 1-.51-.485zm-1.556-2.301c.326.13.627.317.889.55.275.246.497.545.654.879.17.422.447.793.804 1.075a.176.176 0 0 0 .242-.04 1.865 1.865 0 0 0-.432-2.268 1.899 1.899 0 0 0-2.164-.504.17.17 0 0 0 .007.308z" fill="#9E6767"/></g><g transform="translate(143.167 35.4)"><path d="M14.487 19.09c3.268 1.894 3.268 4.969 0 6.863-3.269 1.895-8.577 1.895-11.852 0-3.276-1.894-3.27-4.969 0-6.863 3.268-1.895 8.576-1.895 11.852 0z" opacity=".05" fill="#000"/><path d="M3.347 22.944c-2.85-2.917-4.524-10.193-1.745-12.508h14.146c2.779 2.315 1.105 9.591-1.745 12.508l-.079.08-.098.097-.255.23-.065.052-.216.164c-.126.088-.25.166-.372.236a9.351 9.351 0 0 1-8.499 0 4 4 0 0 1-.372-.242 2.321 2.321 0 0 1-.203-.151l-.079-.066a2.068 2.068 0 0 1-.248-.223L3.4 23.01a.616.616 0 0 1-.052-.066z" fill="#EBEBEB"/><path d="M14.52 9.506c3.222 1.868 3.222 4.897 0 6.765-3.224 1.868-8.46 1.868-11.69 0-3.229-1.868-3.222-4.897 0-6.765 3.224-1.869 8.46-1.869 11.69 0z" fill="#FAFAFA"/><path d="M12.231 10.83c1.962 1.134 1.962 2.976 0 4.117a7.858 7.858 0 0 1-7.112 0c-1.961-1.141-1.961-2.983 0-4.117a7.825 7.825 0 0 1 7.112 0z" fill="#EBEBEB"/><path d="M5.119 12.783a7.825 7.825 0 0 1 7.112 0c.476.258.88.63 1.177 1.082a3.272 3.272 0 0 1-1.177 1.082 7.858 7.858 0 0 1-7.112 0 3.272 3.272 0 0 1-1.177-1.082 3.272 3.272 0 0 1 1.177-1.082z" fill="#E0E0E0"/><path d="M11.8 13.865a16.385 16.385 0 0 0 2.569-3.429c1.19-2.104 1.406-4.93.791-5.244-.614-.315-3.112 2.465-3.112 2.465.228-1.183.316-2.389.262-3.593-.105-1.874-.556-3.579-1.092-3.933-.536-.354-1.739 2.02-2.249 3.737a52.535 52.535 0 0 0-.824 3.12 26.993 26.993 0 0 0-.921-3.933C6.603 1.278 6.034.872 5.596 1.049c-.438.177-.726 1.01-.856 3.376a23.922 23.922 0 0 0 .11 3.396s-.882-.97-1.862-1.914c-.981-.944-1.53-1.18-1.837-.977-.308.203-.393 1.803 1.268 4.818a16.902 16.902 0 0 0 3.138 4.15s2.288 1.455 6.243-.033z" fill="#90CAF9"/></g></g><g transform="translate(226 28)"><path d="M12.319 17.403V9.987l-6.271-.55a.5.5 0 0 0-.263.052L.414 12.57a.459.459 0 0 0-.099.709l6.646 7.213 5.358-3.089z" fill="#90CAF9"/><path d="M6.96 20.472L.316 13.26a.459.459 0 0 1 .374-.767l6.272.544v7.436z" fill="#90CAF9"/><path d="M12.319 9.98L6.96 13.056.689 12.51a.473.473 0 0 0-.216 0c.499-.295 5.089-2.924 5.312-3.049a.487.487 0 0 1 .263-.052l6.27.57z" fill="#90CAF9"/><path d="M12.319 9.98L6.96 13.056.689 12.51a.473.473 0 0 0-.216 0c.499-.295 5.089-2.924 5.312-3.049a.487.487 0 0 1 .263-.052l6.27.57z" fill="#FFF" opacity=".5"/><path d="M6.96 4.072a3.435 3.435 0 0 1 1.557-2.688L9.784.656a3.425 3.425 0 0 1 3.113 0l19.43 11.22c.92.6 1.497 1.6 1.557 2.694v21.351a3.422 3.422 0 0 1-1.557 2.689l-1.267.734a3.465 3.465 0 0 1-3.113 0L8.537 28.118A3.422 3.422 0 0 1 6.98 25.43L6.96 4.072z" fill="#90CAF9"/><path d="M33.884 35.921a3.422 3.422 0 0 1-1.557 2.689l-1.267.734a3.485 3.485 0 0 1-2.843.125c.729.275 1.313-.138 1.313-1.023v-21.35a3.23 3.23 0 0 0-.453-1.535l4.38-2.525c.277.466.433.993.453 1.534l-.026 21.351z" fill="#000" opacity=".2"/><path d="M7.007 3.633c.183-.656.788-.872 1.503-.46l19.437 11.253c.46.286.838.686 1.097 1.16l4.38-2.517a3.077 3.077 0 0 0-1.097-1.16L12.897.655a3.425 3.425 0 0 0-3.113 0l-1.247.728a3.475 3.475 0 0 0-1.53 2.249z" fill="#FFF" opacity=".5"/><path d="M9.981 20.236l1.13-.597c-1.97-5.455-.316-7.357 2.666-7.75-1.143.78-1.603 3.803-.5 6.596l1.13-.603c.223-.118.61.269.657.656l.335 5.33c0 .25-.158.342-.375.204l-4.767-2.977c-.335-.23-.492-.767-.276-.859z" fill="#FFF"/><path d="M13.297 15.554c-.072-1.718.381-3.174 1.123-3.679 0 0 3.165.125 6.396 4.42 0 0-4.472-3.35-7.519-.74z" fill="#FFF" opacity=".8"/><path d="M26.523 23.515l-1.13.603c1.97 5.45.315 7.357-2.666 7.744 1.143-.773 1.602-3.803.5-6.557l-1.13.603c-.224.118-.611-.269-.657-.656l-.335-5.33c0-.243.158-.335.374-.197l4.768 2.977c.335.19.492.695.276.813z" fill="#FFF"/><path d="M23.206 28.197c.073 1.718-.38 3.173-1.123 3.678 0 0-3.165-.13-6.395-4.426 0 .007 4.471 3.37 7.518.748z" fill="#FFF" opacity=".8"/></g><g transform="translate(164 26)"><path d="M99.11 60.96c.884 1.385.53 3.508-1.964 6.534-2.148 2.613-5.238 3.62-5.998 2.829-.76-.79 4.616-10.258 7.962-9.363z" fill="#FFA8A7"/><g transform="translate(73.332 48.35)"><path d="M11.301 28.931l.452-.065c.366-.048.707-.21.975-.464L28.691 8.977a.463.463 0 0 0-.046-.653L18.791.516a1.58 1.58 0 0 0-1.028-.19l-.451.066c-.368.05-.711.212-.982.464L.367 20.255a.463.463 0 0 0 .052.653l9.854 7.84c.311.178.675.242 1.028.183z" fill="#90CAF9"/><path d="M11.301 28.931l.452-.065c.366-.048.707-.21.975-.464L28.691 8.977a.463.463 0 0 0-.046-.653L18.791.516a1.58 1.58 0 0 0-1.028-.19l-.451.066c-.368.05-.711.212-.982.464L.367 20.255a.463.463 0 0 0 .052.653l9.854 7.84c.311.178.675.242 1.028.183z" fill="#FFF" opacity=".6"/><path d="M10.339 28.788c.3.138.634.188.962.143l.452-.065c.37-.047.714-.212.982-.47L28.691 8.977a.483.483 0 0 0 .118-.346l-1.794.248a.49.49 0 0 1-.111.347L10.94 28.65a.498.498 0 0 1-.602.138z" fill="#90CAF9"/><path d="M26.904 9.226L10.94 28.65a.485.485 0 0 1-.655.092L.432 20.94a.463.463 0 0 1-.052-.654L16.343.862a.485.485 0 0 1 .654-.091l9.848 7.795a.457.457 0 0 1 .059.66z" fill="#90CAF9"/><path d="M26.904 9.226L10.94 28.65a.485.485 0 0 1-.655.092L.432 20.94a.463.463 0 0 1-.052-.654L16.343.862a.485.485 0 0 1 .654-.091l9.848 7.795a.457.457 0 0 1 .059.66z" fill="#FFF" opacity=".4"/><path d="M24.77 10.245l-8.997-7.122a.426.426 0 0 0-.576.079L2.462 18.7a.391.391 0 0 0 .046.561l8.996 7.122a.407.407 0 0 0 .57-.078l12.735-15.498a.398.398 0 0 0-.04-.562z" fill="#FFF"/><path d="M9.245 13.205h.786C11.144 11.1 12.683 10.74 14.3 11.1a4.052 4.052 0 0 0-2.757 2.078h.786c.15 0 .196.189.072.307l-1.866 1.81a.17.17 0 0 1-.262 0l-1.218-1.752c-.085-.143.033-.333.19-.34z" fill="#90CAF9"/><path d="M12.67 12.212a3.67 3.67 0 0 1 1.964-1.026 2.508 2.508 0 0 1 1.473 2.496 3.211 3.211 0 0 0-3.438-1.47z" fill="#90CAF9" opacity=".8"/><path d="M16.16 16.988h-.786c-1.12 2.11-2.652 2.47-4.276 2.11a4.039 4.039 0 0 0 2.763-2.084h-.786c-.157 0-.203-.183-.078-.307l1.872-1.804a.17.17 0 0 1 .262 0l1.218 1.758a.215.215 0 0 1-.19.327z" fill="#90CAF9"/><path d="M12.735 17.974A3.76 3.76 0 0 1 10.771 19a2.502 2.502 0 0 1-1.473-2.496 3.218 3.218 0 0 0 3.437 1.47z" fill="#90CAF9" opacity=".8"/><path d="M21.515 5.168a.328.328 0 0 0-.452.066.307.307 0 0 0 .033.437c.142.106.342.08.452-.059a.32.32 0 0 0-.033-.444zm.092 1.28c-.498-.378-1.355-1.084-1.833-1.47a.19.19 0 0 0-.324.131c0 .05.02.097.055.131l1.84 1.457c.076.07.193.07.268 0a.176.176 0 0 0-.006-.248zm.465.367a.177.177 0 0 0-.249 0 .17.17 0 0 0 0 .248.177.177 0 0 0 .249-.033.17.17 0 0 0 0-.215zM6.587 23.325a.656.656 0 0 0-.825 1.013c.284.205.68.15.897-.124a.652.652 0 0 0-.072-.889z" fill="#263238"/></g><path d="M52.878 46.18c2.416 6.94 8.276 21.464 8.276 21.464s14.182-5.835 16.009-7.658c1.133-1.13 1.676-2.339 2.377-2.946 2.573-2.235 4.32-1.79 6.986-3.09.655-.328 1.538-.334 1.571.6.046 1.072-.916 2.17-1.768 2.718-.37.224-.763.408-1.172.55l-1.427.548c-.85.28-1.657.67-2.403 1.163-.245.19-.465.409-.655.653l-2.756 3.339-2.724 3.32-1.493 1.763a.45.45 0 0 0 .053.654l3.162 2.502s-10.751 5.88-14.064 7.416c-3.313 1.535-7.098 3.763-9.893-2.26-3-6.404-9.088-21.954-9.088-21.954L42.63 37.478c3.307.228 7.582 1.032 10.247 8.702z" fill="#FFA8A7"/><path d="M41.433 37.314s3.444-.222 5.506.693c1.84.816 4.78 1.705 6.79 6.429 1.506 3.528 6.967 18.994 6.967 18.994a18.02 18.02 0 0 1-11.982 4.86c-3.385-13.707-7.281-30.976-7.281-30.976z" fill="#37474F"/><path d="M51.758 163.729l-2.737 11.186s-4.792 1.307-7.372-.837c-2.58-2.143-1.388-3.195-1.388-3.195l.183-.777 1.395-13.107 9.92 6.73z" fill="#FFA8A7"/><path d="M36.483 176.104c-.55-.046-1.238 1.914-1.225 2.548.014.634.701 1.96 1.592 3.189a23.03 23.03 0 0 1 2.96 4.77 23.368 23.368 0 0 0 3.6 6.017c2.004 2.535 6.6 6.07 13.606 3.92a6.551 6.551 0 0 0 3.156-1.758 3.085 3.085 0 0 0 .373-2.691l-24.062-15.995z" fill="#455A64"/><path d="M49.761 173.412c-.065 1.542-.393 4.926 1.69 8.298.962 1.561 3.437 3.267 4.786 4.43 2.874 2.528 3.228 2.992 3.424 5.945.203 3.078-11.059 2.529-13.128.915a13.667 13.667 0 0 1-4.7-5.88 43.881 43.881 0 0 0-2.548-4.829c-.982-1.66-2.776-3.508-2.9-5.26-.066-.96.818-2.79 1.682-4.298.793-1.392 1.618-2.712 2.39-2.614l-.183.778a5.674 5.674 0 0 0 2.364 1.26c.412.131.916 3.176 1.388 3.17.471-.007-.275-1.843.582-1.608 3.582.96 5.153-.307 5.153-.307z" fill="#90CAF9"/><path d="M49.761 173.412c-.065 1.542-.393 4.926 1.69 8.298.962 1.561 3.437 3.267 4.786 4.43 2.874 2.528 3.228 2.992 3.424 5.945.203 3.078-11.059 2.529-13.128.915a13.667 13.667 0 0 1-4.7-5.88 43.881 43.881 0 0 0-2.548-4.829c-.982-1.66-2.776-3.508-2.9-5.26-.066-.96.818-2.79 1.682-4.298.793-1.392 1.618-2.712 2.39-2.614l-.183.778a5.674 5.674 0 0 0 2.364 1.26c.412.131.916 3.176 1.388 3.17.471-.007-.275-1.843.582-1.608 3.582.96 5.153-.307 5.153-.307z" fill="#000" opacity=".35"/><path d="M46.54 193a8.172 8.172 0 0 1 5.14-6.128c3.804-1.562 5.238-.575 6.43.058.746.399 3.889 3.104 2.186 6.338-.334.7-6.691 5.07-13.756-.268z" fill="#FAFAFA"/><path d="M45.407 180.227c.079 1.96-.078 4.678.465 6.736.413 1.575.884 3.221 1.25 4.802.164.7.321 1.399.459 2.104a3.54 3.54 0 0 1-.085 2.228 2.7 2.7 0 0 1-.655.823 6.255 6.255 0 0 1-4.4 1.49c-.84 0-1.666-.225-2.39-.653-1.414-.928-1.964-2.614-2.73-4.032-.825-1.542-.34-2.352-.478-4.03a59.847 59.847 0 0 0-.87-6.665c3.011-3.502 5.604-3.77 9.434-2.803z" fill="#FFA8A7"/><path d="M35.92 196.666c-.524.17-.386 2.247-.125 2.822a6.822 6.822 0 0 0 2.482 2.516 11.119 11.119 0 0 1 3.601 3.62 18.973 18.973 0 0 0 5.991 5.52c2.842 1.549 6.64 1.712 10.116.432 3.477-1.281 3.817-2.235 3.726-3.574L35.92 196.666z" fill="#455A64"/><path d="M46.605 187.995c.8 2.117 2.888 7.756 6.784 10.402 3.097 2.104 7.248 4.45 8.597 7.096 1.4 2.75-4.65 4.573-7.275 4.515-2.043-.066-4.753-.072-6.79-1.346a17.87 17.87 0 0 1-2.808-2.157c-1.729-1.6-2.98-3.606-4.23-4.874-1.25-1.267-3.929-2.509-4.714-4.07-.44-.863-.354-2.888-.151-4.626.183-1.588.052-3.071.812-3.267l.13.921c1.014.11 2.036.124 3.052.04.426-.04 1.382 1.208 1.807 1.019.426-.19-.406-1.15.092-1.882 1.624-2.391 4.694-1.77 4.694-1.77z" fill="#90CAF9"/><path d="M46.605 187.995c.8 2.117 2.888 7.756 6.784 10.402 3.097 2.104 7.248 4.45 8.597 7.096 1.4 2.75-4.65 4.573-7.275 4.515-2.043-.066-4.753-.072-6.79-1.346a17.87 17.87 0 0 1-2.808-2.157c-1.729-1.6-2.98-3.606-4.23-4.874-1.25-1.267-3.929-2.509-4.714-4.07-.44-.863-.354-2.888-.151-4.626.183-1.588.052-3.071.812-3.267l.13.921c1.014.11 2.036.124 3.052.04.426-.04 1.382 1.208 1.807 1.019.426-.19-.406-1.15.092-1.882 1.624-2.391 4.694-1.77 4.694-1.77z" fill="#000" opacity=".3"/><path d="M47.921 208.662s.812-5.162 5.238-7.24c4.427-2.078 6.07-.183 6.764.314.694.496 4.053 3.15 1.781 6.292.007 0-5.9 5.2-13.783.634z" fill="#FAFAFA"/><path d="M54.777 91.374c3.843 19.32 8.38 40.091 6.187 48.513-1.643 6.312-9.54 27.494-9.54 27.494-2.756.386-8.4 1-10.6-3.828-.563-7.84.334-56.256.334-56.256l13.619-15.923z" fill="#455A64"/><path d="M41.158 107.297a35.832 35.832 0 0 0 9.166-7.965s-1.034 3.92-6.213 8.965c0 0 5.238 27.958 5.205 33.322-.033 5.364-2.92 24.6-2.92 24.6l-5.238-58.922z" fill="#37474F"/><path d="M54.777 91.374c-3.732 7.723-7.936 14.041-13.62 15.923 0 0 5.154 28.317 5.507 34.74.583 10.683-.897 34.733-.792 42.077-1.27 2.882-7.975 3-9.821 1.157-.491-3.574-5.317-15.792-5.893-26.534-.4-7.892 1.048-12.335 1.218-14.374-.819-1.895-13.154-23.404-15.55-39.477-1.055-7.095-.367-10.963-.407-15.027l39.358 1.555" fill="#455A64"/><path d="M18.333 39.797s-3.143.072-2.743 10.768a88.026 88.026 0 0 0-1.735 17.19c-.086 10.01 1.368 25.442 1.368 25.442 5.29 5.979 31.513 4.195 39.54-1.823-.405-1.79-2.252-12.564-3.162-18.784.256-7.658.465-16.334.242-21.117-.386-8.285-3.142-14.172-10.181-14.172l-10.03.569-13.299 1.927z" fill="#F0F0F0"/><path d="M29.51 16.164c0 5.88 4.583 10.696 10.3 10.696 5.715 0 10.036-4.796 10.292-10.696.452-10.454-4.583-10.702-10.293-10.702-5.71 0-10.3 4.796-10.3 10.702zm-6.22-4.148c1.204-1.876 2.337-1.588 2.337-1.588l.792 9.101 1.27.262.112 12.283a3.57 3.57 0 0 1-1.558-1.66c-.426-.862-1.31-6.056-1.847-9.147 0-.026-2.134-7.644-1.106-9.251z" fill="#263238"/><path d="M27.5 21.83c-.596.365-1.447-.824-2.187-1.621-.74-.797-3.136-1.895-4.335.732-1.198 2.626 1.061 6.2 2.953 6.82 3.274 1.06 3.745-1.11 3.745-1.11l.25 12.212c4.32 6.67 14.116 6.435 10.593-.327v-3.711c1.451.24 2.925.317 4.394.229 2.39-.38 3.928-2.346 4.629-5.045 1.165-4.325 1.61-7.84.615-16.334-1.08-9.33-11.523-9.428-17.16-5.737C25.358 11.63 27.5 21.83 27.5 21.83z" fill="#FFA8A7"/><path d="M43.37 13.022c-4.844.124-7.856-.895-11.857-1.366a1.529 1.529 0 0 0-.805.052c-.884.399-1.074 3.143-1.231 3.92-.524 2.673-.956 7.188-1.964 7.188-.301 0-1.44-1.96-2.187-2.66-1.028-.973.301-9.8.301-9.8.046-.307-.23-.862-.242-1.202a4.07 4.07 0 0 1 .655-2.228 6.774 6.774 0 0 1 3.588-2.92c2.71-1.06 5.696-.929 8.387-2.137A22.595 22.595 0 0 1 41.25.49a3.279 3.279 0 0 1 3.273.653c.486.618.784 1.362.858 2.143a5.626 5.626 0 0 1 2.017-1.888c1.571-.692 3.529.288 4.334 1.804.805 1.515.688 3.377.19 5.024a6.37 6.37 0 0 1-.655 1.548c-1.506 2.418-5.277 3.182-7.896 3.248z" fill="#263238"/><path d="M25.634 10.892l-3.608-2.013a1.963 1.963 0 0 1 2.73-.94 2.284 2.284 0 0 1 .878 2.953z" fill="#263238"/><path d="M38.526 34.825s-5.35-1.124-7.203-2.156a6.285 6.285 0 0 1-2.586-2.66 8.988 8.988 0 0 0 1.467 3.137c1.368 1.816 8.335 3.155 8.335 3.155l-.013-1.476z" fill="#F28F8F"/><path d="M37.242 20.438a1.073 1.073 0 0 1-2.143-.111 1.073 1.073 0 0 1 1.07-1.046 1.118 1.118 0 0 1 1.073 1.157zm-1.335-4.104l-2.292 1.307a1.455 1.455 0 0 1 .53-1.901 1.266 1.266 0 0 1 1.762.594z" fill="#263238"/><path d="M38.041 28.134l2.449.954a1.307 1.307 0 0 1-1.663.843 1.443 1.443 0 0 1-.786-1.797z" fill="#F28F8F"/><path d="M46.867 17.74l-2.088-1.674a1.231 1.231 0 0 1 1.813-.287c.58.488.698 1.332.275 1.96zm-.713 2.384a1.11 1.11 0 0 1-1.074 1.15 1.161 1.161 0 1 1-.944-1.952 1.167 1.167 0 0 1 2.018.802z" fill="#263238"/><path fill="#F28F8F" d="M40.4179813 19.2288037L40.5423846 25.9846933 44.3857922 25.102638z"/><path d="M9.94 112.7c1.027.961 1.584 2.242 2.618 4.136 1.035 1.895 6.233 2.078 6.646-3.266.308-4.012-.275-5.88-3.385-8.71-3.11-2.83-4.04-4.11-4.256-5.593-.216-1.483-.164-24.926-.164-24.926l7.399-19.876s3.464-10.088-.458-14.681c0 0-5.01-.242-8.427 3.162-3.994 3.98-7.47 22.006-8.466 25.978-.792 3.137-1.624 4.437-.95 10.794.675 6.358 2.62 24.273 3.451 27.22.832 2.946 3.254 3.195 5.991 5.763z" fill="#FFA8A7"/><path d="M19.407 39.647s-4.485-.719-8.001 1.705C7.89 43.776 6.757 46.58 4.858 53.211S2.082 64.455 2.082 64.455s-.543 1.96 5.114 3.973c5.657 2.012 7.006.542 7.006.542s5.526-14.831 6.423-17.837c.897-3.005 1.82-8.52-1.218-11.486z" fill="#37474F"/></g></g></g></g></g></svg>