<svg height="414" width="544" xmlns="http://www.w3.org/2000/svg" xmlns:xlink="http://www.w3.org/1999/xlink"><defs><rect id="c" height="398.769" rx="12" width="531.692"/><filter id="b" height="107%" width="104.9%" x="-1.3%" y="-1.8%"><feOffset dx="12" dy="14" in="SourceAlpha" result="shadowOffsetOuter1"/><feColorMatrix in="shadowOffsetOuter1" values="0 0 0 0 0 0 0 0 0 0 0 0 0 0 0 0 0 0 0.12 0"/></filter><path id="a" d="M0 0h438v365H0z"/><mask id="d" fill="#fff"><use fill-rule="evenodd" xlink:href="#a"/></mask></defs><g fill="none" fill-rule="evenodd"><g transform="translate(0 .4)"><use fill="#000" filter="url(#b)" xlink:href="#c"/><use fill="#eee" xlink:href="#c"/></g><circle cx="30.115" cy="199.784" fill="#eee" r="14.615" stroke="#ccc" stroke-width="4"/><circle cx="513.519" cy="199.784" fill="#9c9c9c" r="6.808" stroke="#ccc" stroke-width="3"/><path d="M59.712 18.053h436.153v363.462H59.712z" fill="#000"/><g transform="translate(59 18)"><use fill="#6553b9" xlink:href="#a"/><path d="M-31 242L316.462 51.797 510 165.013V-15H-21.946z" fill="#000" fill-opacity=".1" mask="url(#d)"/><g mask="url(#d)"><g fill-rule="nonzero" transform="translate(67 71)"><ellipse cx="38.715" cy="24.022" fill="#000" fill-opacity=".1" rx="38.048" ry="23.793" transform="translate(216 206)"/><path d="M6.455 197.696a6.946 6.946 0 0 0 3.24 5.386l90.59 52.428a7.114 7.114 0 0 0 6.464 0l123.93-71.751a6.096 6.096 0 0 0 3.228-5.382 6.096 6.096 0 0 0-3.228-5.382l-90.576-52.443a7.158 7.158 0 0 0-6.463 0L9.694 192.318a6.938 6.938 0 0 0-3.239 5.378z" fill="#37474f"/><path d="M103.502 249.283v7.01a6.582 6.582 0 0 1-3.231-.746L9.657 203.082A6.073 6.073 0 0 1 6.43 197.9a6.075 6.075 0 0 1 2.901-5.373c-1.448 1.042-1.337 2.57.327 3.53l90.629 52.443c.988.53 2.095.8 3.216.783z" fill="#263238"/><path d="M3.425 192.43a6.962 6.962 0 0 1-3.031-5.498V78.538a7.163 7.163 0 0 1 3.231-5.61L127.556 1.177a6.921 6.921 0 0 1 6.27-.12 6.962 6.962 0 0 1 3.03 5.498V114.95a7.163 7.163 0 0 1-3.23 5.61L9.693 192.317a6.943 6.943 0 0 1-6.27.112z" fill="#455a64"/><path d="M9.308 192.512a6.958 6.958 0 0 1-5.883-.082 6.962 6.962 0 0 1-3.031-5.498V78.538a6.509 6.509 0 0 1 .95-3.189l6.062 3.502a6.636 6.636 0 0 0-.95 3.188V190.44c0 1.922 1.247 2.778 2.852 2.07z" fill="#263238"/><path d="M6.455 82.054V190.44c0 2.07 1.486 2.905 3.24 1.877l123.93-71.759a7.163 7.163 0 0 0 3.232-5.61V6.556c0-2.063-1.449-2.905-3.232-1.87L9.695 76.438a7.163 7.163 0 0 0-3.24 5.617z" fill="#37474f"/><path d="M9.694 196.057l90.592 52.443a7.158 7.158 0 0 0 6.463 0l123.93-71.751c1.79-1.035 1.79-2.712 0-3.725l-90.576-52.443a7.158 7.158 0 0 0-6.463 0L9.694 192.318c-1.79 1.028-1.79 2.704 0 3.74z" fill="#455a64"/><path d="M11.433 82.456L130.92 13.29c1.07-.619 1.939-.112 1.939 1.124v93.861a4.308 4.308 0 0 1-1.939 3.367l-119.488 69.13c-1.078.618-1.947.119-1.947-1.125V85.786a4.278 4.278 0 0 1 1.947-3.33z" fill="#fafafa"/><path d="M20.206 193.25l115.039-66.612a3.535 3.535 0 0 1 3.231 0l5.883 3.404a.99.99 0 0 1 0 1.87L29.306 198.516a3.535 3.535 0 0 1-3.232 0l-5.868-3.397a.99.99 0 0 1 0-1.87z" fill="#37474f"/><path d="M35.367 202.032l115.04-66.604a3.58 3.58 0 0 1 3.23 0l36.193 20.955a.99.99 0 0 1 0 1.87L74.925 224.76a3.572 3.572 0 0 1-3.24 0l-36.31-20.858a.983.983 0 0 1-.008-1.87z" fill="#263238"/><path d="M138.49 165.374l3.596-2.078c.156-.09.149-.239 0-.336l-4.167-2.413a.622.622 0 0 0-.572 0l-3.603 2.086c-.156.082-.149.23 0 .327l4.16 2.414a.637.637 0 0 0 .587 0zm-7.108-8.284l-3.61 2.101c-.157.09-.142.238 0 .335l4.16 2.406a.637.637 0 0 0 .579 0l3.603-2.085c.148-.09.14-.239 0-.336l-4.168-2.406a.622.622 0 0 0-.564 0zm-11.64 6.794l-6.092 3.524c-.156.089-.149.238 0 .335l4.16 2.413a.66.66 0 0 0 .58 0l6.09-3.523c.157-.09.142-.239 0-.335l-4.137-2.414a.637.637 0 0 0-.602 0zm6.373-3.725l-3.603 2.086c-.149.09-.141.239 0 .335l4.167 2.414c.18.09.392.09.572 0l3.603-2.086c.149-.09.141-.238 0-.328l-4.167-2.42a.622.622 0 0 0-.572 0zM112 168.354l-3.603 2.078c-.149.09-.141.238 0 .335l4.167 2.414c.18.093.393.093.572 0l3.603-2.086c.149-.082.141-.231 0-.328l-4.182-2.413a.622.622 0 0 0-.572 0zm-5.267 3.046l-3.596 2.086c-.156.082-.148.231 0 .328l4.168 2.414c.18.089.391.089.572 0l3.603-2.086c.156-.09.14-.239 0-.336l-4.16-2.413a.637.637 0 0 0-.602-.008zm16.387 9.804l3.603-2.086c.149-.09.141-.239 0-.335l-4.167-2.407a.622.622 0 0 0-.572 0l-3.603 2.086c-.156.09-.141.239 0 .336l4.16 2.406c.18.083.389.077.564-.015zm-5.267 3.046l3.603-2.085c.156-.09.141-.239 0-.336l-4.16-2.406a.637.637 0 0 0-.58 0l-3.602 2.086c-.149.09-.141.238 0 .335l4.167 2.414c.18.077.385.069.557-.023zm-5.267 3.047l3.603-2.086c.156-.09.149-.238 0-.327l-4.16-2.414a.622.622 0 0 0-.572 0l-3.603 2.086c-.156.09-.148.238 0 .335l4.168 2.414a.645.645 0 0 0 .55-.023zm-5.259 3.047l3.603-2.086c.148-.082.141-.23 0-.328l-4.205-2.443a.622.622 0 0 0-.572 0l-3.603 2.078c-.156.09-.14.239 0 .336l4.16 2.413a.639.639 0 0 0 .602.015zm25.91-21.886l3.604-2.086c.148-.09.14-.238 0-.335l-4.168-2.414a.645.645 0 0 0-.572 0l-3.603 2.086c-.148.09-.14.239 0 .328l4.168 2.413a.64.64 0 0 0 .557-.007zm-4.857 9.684l8.037-4.656c.156-.09.141-.238 0-.328l-10.132-5.855a.637.637 0 0 0-.58 0l-4.152 2.406c-.156.09-.149.239 0 .336l5.348 3.099c.171.096.179.245 0 .327l-3.32 1.93c-.156.089-.149.238 0 .335l4.167 2.406a.622.622 0 0 0 .617 0zm-26.907-3.725l-3.603 2.086c-.156.09-.14.239 0 .328l4.16 2.413a.637.637 0 0 0 .58 0l3.595-2.085c.156-.09.149-.239 0-.336l-4.167-2.413a.645.645 0 0 0-.58.022zm-5.267 3.047l-3.602 2.086c-.149.09-.142.238 0 .335l4.167 2.406c.18.093.393.093.572 0l3.603-2.086c.148-.089.141-.238 0-.335l-4.168-2.406a.622.622 0 0 0-.586.015zm-26.304 34.177c.18.09.392.09.572 0l3.603-2.085c.156-.09.148-.239 0-.328l-4.16-2.414a.66.66 0 0 0-.58 0l-3.595 2.086c-.156.09-.149.238 0 .335zm-15.823-9.766l-3.603 2.086c-.148.09-.141.239 0 .335l4.168 2.406a.621.621 0 0 0 .572 0l3.602-2.085c.149-.09.142-.239 0-.336l-4.167-2.406a.622.622 0 0 0-.572 0zm8.476 7.152c.18.089.392.089.572 0l3.603-2.086c.148-.09.141-.239 0-.335l-4.168-2.414a.622.622 0 0 0-.572 0l-3.602 2.086c-.149.09-.142.23 0 .328zm16.625 4.47l3.603-2.087c.156-.082.141-.23 0-.327l-4.16-2.414a.637.637 0 0 0-.58 0l-3.602 2.078c-.149.09-.141.239 0 .336l4.167 2.413a.622.622 0 0 0 .572.008zm-5.839 3.039a.66.66 0 0 0 .58 0l3.595-2.086c.156-.09.149-.239 0-.335L73.35 211.7a.622.622 0 0 0-.572 0l-3.618 2.093c-.156.082-.149.231 0 .328zm-13.995-17.73l-3.603 2.086c-.156.09-.149.238 0 .328l4.16 2.413c.18.093.393.093.572 0l3.603-2.085c.156-.09.148-.239 0-.336L59.91 198.8a.645.645 0 0 0-.564.015zm26.32-15.241l-3.604 2.086c-.156.09-.14.238 0 .335l4.16 2.406a.637.637 0 0 0 .58 0l3.603-2.086c.148-.089.14-.238 0-.335l-4.168-2.406a.622.622 0 0 0-.572.007zm-21.038 12.202l-3.603 2.086c-.149.09-.141.238 0 .328l4.167 2.413c.18.093.393.093.572 0l3.603-2.086c.156-.09.141-.238 0-.335l-4.16-2.413a.66.66 0 0 0-.58.007zm26.319-15.241l-3.595 2.086c-.156.089-.149.238 0 .335l4.167 2.406c.18.093.393.093.572 0l3.603-2.086c.156-.09.148-.238 0-.335l-4.16-2.406a.637.637 0 0 0-.61 0zm-10.526 6.093l-3.603 2.086c-.149.09-.141.238 0 .335l4.152 2.406c.18.09.392.09.572 0l3.603-2.085c.156-.09.141-.239 0-.328l-4.175-2.399a.622.622 0 0 0-.572-.015zm-5.26 3.047l-3.603 2.086c-.156.09-.148.238 0 .335l4.168 2.414c.18.092.392.092.572 0l3.603-2.086c.156-.09.148-.239 0-.328l-4.168-2.414a.645.645 0 0 0-.594-.007zm-5.267 3.054l-3.602 2.086c-.156.082-.142.23 0 .328l4.16 2.413a.637.637 0 0 0 .579 0l3.603-2.078c.148-.09.141-.238 0-.335l-4.168-2.414a.622.622 0 0 0-.594 0zm26.907 3.725l3.603-2.086c.156-.09.148-.238 0-.335l-4.168-2.414a.645.645 0 0 0-.572 0l-3.603 2.086c-.156.09-.148.238 0 .328l4.168 2.413c.174.083.377.08.55-.007zm46.235-46.059l-3.603 2.086c-.148.09-.14.238 0 .328l4.168 2.413c.18.093.392.093.572 0l3.603-2.086c.156-.09.14-.238 0-.335l-4.16-2.413a.66.66 0 0 0-.602-.008zm-6.374 3.687l-3.595 2.086c-.156.09-.149.239 0 .335l4.167 2.406c.18.093.393.093.572 0l3.603-2.085c.156-.09.149-.239 0-.336l-4.16-2.406a.637.637 0 0 0-.609-.015zm11.641-6.704l-3.603 2.086c-.156.082-.141.23 0 .328l4.16 2.413a.66.66 0 0 0 .58 0l3.602-2.086c.149-.089.142-.238 0-.335l-4.167-2.413a.622.622 0 0 0-.594-.038zm-27.248 28.173l3.603-2.086c.148-.089.141-.238 0-.335l-4.168-2.406a.622.622 0 0 0-.572 0l-3.602 2.086c-.149.09-.142.238 0 .335l4.167 2.406a.62.62 0 0 0 .55-.045zm33.087-31.212a.637.637 0 0 0-.58 0l-3.595 2.078c-.156.09-.149.238 0 .335l4.167 2.414c.18.093.393.093.572 0l3.603-2.086c.156-.082.149-.23 0-.328zm-52.074 49.09l3.602-2.078c.156-.09.142-.238 0-.335l-4.16-2.414a.637.637 0 0 0-.579 0l-3.618 2.034c-.148.082-.14.23 0 .328l4.168 2.413a.622.622 0 0 0 .564.008zm64.554-37.373l3.603-2.085c.156-.09.14-.239 0-.328l-4.16-2.414a.637.637 0 0 0-.58 0l-3.595 2.086c-.156.09-.149.238 0 .335l4.167 2.414c.18.063.378.044.543-.052zm-11.21-.394l3.603-2.086c.149-.09.141-.239 0-.335l-4.167-2.407a.622.622 0 0 0-.572 0l-3.603 2.086c-.156.09-.141.239 0 .335l4.16 2.407a.637.637 0 0 0 .557-.045zm4.68-7.874a.637.637 0 0 0-.58 0l-3.595 2.086c-.156.089-.148.238 0 .335l4.168 2.406c.18.093.392.093.572 0l3.603-2.086c.156-.09.148-.238 0-.335zm1.107-.648l10.118 5.862c.18.09.391.09.572 0l3.603-2.086c.148-.089.14-.238 0-.327l-10.118-5.863a.645.645 0 0 0-.572 0l-3.603 2.086c-.193.045-.186.194 0 .283zm-12.213 6.704l-3.602 2.086c-.149.09-.142.238 0 .335l4.167 2.406c.18.093.393.093.572 0l3.603-2.086c.156-.09.141-.238 0-.335l-4.16-2.406a.637.637 0 0 0-.602-.022zm-39.638 22.914l-3.603 2.086c-.156.09-.141.238 0 .335l4.16 2.414a.637.637 0 0 0 .58 0l3.595-2.086c.156-.09.148-.231 0-.328l-4.138-2.406a.645.645 0 0 0-.594-.015zm51.413-17.707a.637.637 0 0 0 .58 0l3.602-2.086c.149-.082.141-.23 0-.328l-4.19-2.428a.645.645 0 0 0-.572 0l-3.603 2.086c-.156.09-.14.238 0 .335zm-46.154 14.66l-3.595 2.086c-.156.09-.149.238 0 .335l4.167 2.414c.18.089.392.089.572 0l3.603-2.086c.156-.09.148-.238 0-.328l-4.16-2.413a.637.637 0 0 0-.587-.008zM75.155 208.58c.18.089.392.089.572 0l3.603-2.086c.148-.09.14-.238 0-.328l-4.168-2.413a.622.622 0 0 0-.572 0l-3.603 2.085c-.148.09-.14.239 0 .336zm-7.919-7.45l-3.603 2.079c-.156.09-.148.238 0 .335l4.16 2.414a.637.637 0 0 0 .58 0l3.595-2.086c.156-.082.149-.231 0-.328l-4.16-2.414a.622.622 0 0 0-.572 0zm13.735 4.47l3.596-2.086c.156-.09.148-.238 0-.335l-4.168-2.406a.622.622 0 0 0-.572 0l-3.602 2.086c-.156.09-.149.238 0 .335l4.16 2.406a.637.637 0 0 0 .586 0zm5.26-3.047l3.603-2.086c.156-.089.14-.238 0-.335l-4.16-2.406a.637.637 0 0 0-.58 0l-3.603 2.086c-.148.09-.14.238 0 .335l4.168 2.406a.62.62 0 0 0 .594-.03zm5.267-3.047l3.603-2.085c.148-.09.14-.239 0-.336l-4.168-2.413a.645.645 0 0 0-.572 0l-3.603 2.086c-.156.09-.14.238 0 .327l4.16 2.414a.637.637 0 0 0 .602-.022zm-19.025-1.393L68.87 200.2c-.148.09-.14.239 0 .335l4.168 2.414c.18.09.391.09.572 0l3.603-2.086c.156-.09.14-.238 0-.328l-4.16-2.413a.66.66 0 0 0-.558-.037zm5.267-3.046l-3.603 2.086c-.156.089-.141.238 0 .335l4.16 2.413a.66.66 0 0 0 .58 0l3.602-2.085c.149-.09.142-.239 0-.328l-4.167-2.414a.622.622 0 0 0-.55-.037zM98.8 182.85l-3.595 2.086c-.156.09-.149.238 0 .327l4.167 2.414c.18.093.393.093.572 0l3.603-2.086c.156-.09.148-.238 0-.335l-4.16-2.414a.66.66 0 0 0-.587.008zm-5.26 3.047l-3.602 2.085c-.156.09-.141.239 0 .328l4.16 2.414a.637.637 0 0 0 .58 0l3.602-2.086c.149-.09.141-.238 0-.335l-4.167-2.414a.645.645 0 0 0-.558.008zm10.527-6.094l-3.603 2.086c-.149.082-.141.23 0 .328l4.167 2.413c.18.093.393.093.572 0l3.603-2.078c.149-.09.141-.238 0-.335l-4.167-2.414a.622.622 0 0 0-.557 0zM83.014 191.99l-3.603 2.086c-.156.09-.148.238 0 .335l4.168 2.406c.18.093.392.093.572 0l3.603-2.085c.156-.09.148-.239 0-.336l-4.168-2.406a.622.622 0 0 0-.557 0zm5.26-3.047l-3.603 2.086c-.149.09-.141.239 0 .335l4.167 2.407c.18.092.393.092.572 0l3.603-2.086c.156-.09.141-.239 0-.335l-4.167-2.407a.622.622 0 0 0-.557 0zm-3.84 21.514l3.602-2.086c.149-.09.141-.238 0-.328l-4.175-2.443a.622.622 0 0 0-.572 0l-3.603 2.086c-.156.09-.14.238 0 .335l4.16 2.414a.66.66 0 0 0 .602.022zm-30.896-3.129l-4.16-2.406a.637.637 0 0 0-.58 0l-3.603 2.086c-.148.09-.14.238 0 .335l4.168 2.406c.18.093.392.093.572 0l3.603-2.086c.193-.089.178-.238.015-.335zm7.889 2.324l-4.16-2.413a.66.66 0 0 0-.58 0l-5.541 3.203c-.149.09-.141.238 0 .335l4.167 2.414c.18.093.393.093.572 0l5.542-3.203c.23-.09.178-.239.015-.336zm-14.278-6.98l-4.16-2.413a.637.637 0 0 0-.58 0l-4.456 2.57c-.149.09-.142.238 0 .328l4.167 2.413c.18.093.393.093.572 0l4.457-2.57c.193-.09.178-.238.015-.328zm3.402-1.974c.18.093.393.093.572 0l3.603-2.085c.149-.09.141-.239 0-.336l-4.175-2.361a.622.622 0 0 0-.572 0l-3.602 2.086c-.149.09-.142.238 0 .335zm18.23 11.606l-4.152-2.42a.622.622 0 0 0-.572 0l-6.931 4.007c-.149.09-.141.238 0 .335l4.167 2.406c.18.093.393.093.572 0l6.924-4.007c.163-.082.156-.231-.008-.32zm3.454 4.887l-4.167-2.413a.645.645 0 0 0-.572 0l-4.457 2.562c-.149.09-.141.238 0 .335l4.167 2.414c.18.09.392.09.572 0l4.457-2.563c.171-.097.164-.246 0-.342zM89.7 178.038a.66.66 0 0 0 .58 0l3.602-2.086c.149-.09.141-.238 0-.328l-4.167-2.413a.622.622 0 0 0-.572 0l-3.603 2.085c-.156.09-.141.239 0 .336zm-10.526 6.093a.637.637 0 0 0 .58 0l3.595-2.086c.156-.082.148-.23 0-.327l-4.168-2.414a.645.645 0 0 0-.572 0l-3.58 2.086c-.156.09-.149.238 0 .335zm-23.348 13.513a.637.637 0 0 0 .58 0L60 195.558c.156-.089.148-.238 0-.335l-4.168-2.406a.622.622 0 0 0-.572 0l-3.603 2.086c-.156.09-.14.238 0 .335zm28.615-16.56c.18.09.391.09.572 0L88.615 179c.156-.09.142-.239 0-.328l-4.16-2.414a.637.637 0 0 0-.579 0l-3.603 2.086c-.148.09-.141.238 0 .335zm-10.527 6.094c.18.093.393.093.572 0l3.603-2.078c.149-.09.141-.239 0-.336l-4.167-2.413a.622.622 0 0 0-.572 0l-3.603 2.086c-.149.082-.141.23 0 .327zm1.219 30.393a.637.637 0 0 0-.58 0l-5.542 3.21c-.148.09-.14.239 0 .328l4.168 2.414c.18.093.392.093.572 0l5.542-3.21c.148-.09.14-.24 0-.336zm-8.774-26.02c.18.089.392.089.572 0l3.603-2.086c.149-.09.141-.239 0-.335l-4.167-2.414a.645.645 0 0 0-.572 0l-3.603 2.086c-.149.09-.141.238 0 .328zm-5.266 3.046a.621.621 0 0 0 .572 0l3.602-2.085c.156-.09.149-.239 0-.336l-4.16-2.413a.66.66 0 0 0-.579 0l-3.595 2.086c-.156.089-.149.238 0 .327zm111.562-33.521a.622.622 0 0 0-.572 0l-8.87 5.132c-.148.09-.141.239 0 .335l4.168 2.414c.18.09.391.09.572 0l8.884-5.073c.156-.09.149-.238 0-.328zm-11.64 6.704a.645.645 0 0 0-.573 0l-3.603 2.086c-.148.09-.14.238 0 .328l4.168 2.413c.18.09.392.09.572 0l3.603-2.086c.148-.089.14-.238 0-.335zM89.7 207.343l3.603-2.086c.156-.09.148-.238 0-.327l-4.16-2.31a.622.622 0 0 0-.572 0l-3.603 2.086c-.156.09-.149.238 0 .335l4.167 2.414a.645.645 0 0 0 .572-.045zm60.78-33.462a.622.622 0 0 0-.571 0l-3.603 2.086c-.156.09-.141.238 0 .335l4.16 2.406a.637.637 0 0 0 .58 0l3.602-2.086c.149-.09.141-.238 0-.335zm27.434-15.882a.637.637 0 0 0-.58 0l-3.602 2.086c-.149.09-.141.238 0 .335l4.167 2.406c.18.093.393.093.572 0l3.603-2.086c.156-.089.141-.238 0-.335zm9.427-.64l-10.118-5.856a.622.622 0 0 0-.572 0l-3.602 2.086c-.156.082-.142.231 0 .328l10.11 5.855a.637.637 0 0 0 .58 0l3.602-2.086c.178-.015.171-.164.008-.26zm-56.531 27.904a.645.645 0 0 0-.572 0l-4.457 2.563c-.156.09-.142.238 0 .335l4.16 2.414a.66.66 0 0 0 .579 0l4.457-2.563c.149-.09.141-.238 0-.335zm13.304-7.628a.622.622 0 0 0-.572 0l-5.541 3.211c-.149.09-.142.238 0 .335l4.167 2.406c.18.093.393.093.572 0l5.542-3.21c.148-.09.14-.239 0-.328zm-25.487 14.757a.622.622 0 0 0-.572 0l-29.648 17.134c-.156.09-.14.238 0 .335l4.16 2.414a.66.66 0 0 0 .58 0l29.64-17.134c.156-.09.148-.238 0-.328zm-31.304 18.125a.637.637 0 0 0-.58 0l-4.457 2.562c-.148.09-.14.238 0 .335l4.168 2.406c.18.093.392.093.572 0l4.457-2.57c.156-.082.141-.23 0-.327zm37.403-21.656a.637.637 0 0 0-.58 0l-4.457 2.563c-.156.09-.148.238 0 .335l4.168 2.406a.621.621 0 0 0 .572 0l4.457-2.57c.156-.082.14-.23 0-.327zm-43.502 25.186a.622.622 0 0 0-.572 0l-4.457 2.57c-.156.09-.141.239 0 .336l4.16 2.406a.637.637 0 0 0 .58 0l4.456-2.57c.156-.09.149-.239 0-.328zm55.714-32.24a.637.637 0 0 0-.58 0l-4.456 2.57c-.156.09-.149.238 0 .328l4.167 2.413c.18.09.392.09.572 0l4.457-2.57c.156-.089.141-.238 0-.335zm18.84-10.913a.66.66 0 0 0-.58 0l-3.596 2.086c-.156.089-.148.238 0 .327l4.168 2.414c.18.093.392.093.572 0l3.603-2.086c.156-.09.148-.238 0-.335zm11.536-8.396l3.595-2.085c.156-.09.149-.239 0-.336l-4.167-2.406a.622.622 0 0 0-.572 0l-3.603 2.086c-.156.09-.149.239 0 .335l4.16 2.406a.637.637 0 0 0 .564 0zm-23.541-.156l3.602-2.086c.156-.082.142-.23 0-.328l-4.16-2.413a.66.66 0 0 0-.579 0l-3.603 2.086c-.148.09-.141.238 0 .335l4.168 2.414c.174.082.377.08.55-.008zm-11.886 20.687l10.526-6.094c.149-.09.141-.238 0-.335l-4.242-2.414a.645.645 0 0 0-.572 0l-10.533 6.086c-.156.09-.149.239 0 .336l4.16 2.406a.64.64 0 0 0 .601.015zm29.625-17.499c.18.093.393.093.572 0l3.603-2.085c.148-.09.141-.239 0-.336l-4.168-2.406a.622.622 0 0 0-.572 0l-3.602 2.086c-.149.09-.142.238 0 .335zm-5.378-3.426l3.603-2.086c.148-.09.14-.238 0-.335l-4.168-2.414a.622.622 0 0 0-.572 0l-3.603 2.086c-.148.082-.14.23 0 .328l4.168 2.413a.645.645 0 0 0 .512.008zm-29.514 23.971l3.603-2.085c.148-.09.141-.239 0-.328l-4.168-2.414a.622.622 0 0 0-.572 0l-3.602 2.086c-.149.09-.142.238 0 .335l4.167 2.414c.165.068.35.066.513-.008zm23.251-13.803c.18.093.393.093.572 0l3.603-2.086c.156-.09.149-.238 0-.328l-4.167-2.413a.645.645 0 0 0-.572 0l-3.603 2.086c-.156.089-.149.238 0 .335zm-49.57 29.052l3.602-2.086c.149-.09.142-.238 0-.335l-4.167-2.406a.622.622 0 0 0-.572 0l-3.603 2.086c-.156.09-.141.238 0 .335l4.16 2.406a.637.637 0 0 0 .52-.007zm5.259-3.047l3.603-2.085c.156-.09.148-.239 0-.336l-4.16-2.413a.645.645 0 0 0-.572 0l-3.603 2.086c-.156.089-.149.238 0 .327l4.167 2.414a.622.622 0 0 0 .49 0zm-10.526 6.094l3.603-2.086c.156-.09.14-.238 0-.335l-4.16-2.406a.637.637 0 0 0-.58 0l-3.603 2.086c-.148.089-.14.238 0 .335l4.168 2.406c.164.071.35.068.512-.008zm21-12.18l3.596-2.078c.156-.09.148-.238 0-.335l-4.168-2.414a.622.622 0 0 0-.572 0l-3.603 2.086c-.156.082-.14.23 0 .328l4.16 2.413a.637.637 0 0 0 .587 0zm-5.267 3.055l3.603-2.086c.149-.09.141-.239 0-.336l-4.167-2.413a.645.645 0 0 0-.572 0l-3.603 2.086c-.149.09-.141.238 0 .327l4.167 2.414a.645.645 0 0 0 .572-.015zm10.527-6.101l3.603-2.086c.156-.09.14-.239 0-.328l-4.16-2.414a.66.66 0 0 0-.58 0l-3.595 2.086c-.156.09-.149.239 0 .335l4.167 2.414a.642.642 0 0 0 .565-.03zm24.083-45.083a.637.637 0 0 0 .58 0l3.602-2.086c.149-.082.142-.231 0-.328l-1.106-.64a.637.637 0 0 0-.58 0l-3.603 2.085c-.148.09-.14.239 0 .335zm-25.896 16.76c.18.093.393.093.572 0l3.603-2.085c.149-.09.141-.239 0-.336l-4.167-2.406a.622.622 0 0 0-.572 0l-3.603 2.086c-.149.09-.141.238 0 .335zM130 154.707c.18.092.393.092.572 0l3.603-2.086c.156-.09.141-.239 0-.335l-4.16-2.414a.66.66 0 0 0-.58 0l-3.602 2.086c-.149.09-.142.238 0 .328zm-16.96 9.818a.66.66 0 0 0 .58 0l3.603-2.086c.148-.09.141-.238 0-.335l-4.168-2.414a.645.645 0 0 0-.572 0l-3.602 2.086c-.156.082-.142.23 0 .328zm11.693-6.772a.637.637 0 0 0 .58 0l3.595-2.085c.156-.09.149-.239 0-.336l-4.167-2.406a.622.622 0 0 0-.572 0l-3.603 2.086c-.156.09-.149.238 0 .335zm-22.219 12.835c.18.093.393.093.572 0l3.603-2.085c.156-.09.149-.239 0-.336l-4.175-2.361a.622.622 0 0 0-.572 0l-3.603 2.086c-.156.09-.148.238 0 .335zm5.275-2.98a.621.621 0 0 0 .572 0l3.602-2.085c.156-.09.142-.238 0-.335l-4.167-2.414a.645.645 0 0 0-.572 0l-3.603 2.086c-.148.09-.141.238 0 .328zm27.062-17.438c.18.093.392.093.572 0l3.603-2.086c.156-.09.148-.238 0-.335l-1.107-.64a.622.622 0 0 0-.572 0l-3.603 2.085c-.156.09-.141.238 0 .335zm15.793-9.14c.18.089.392.089.572 0l3.603-2.086c.156-.09.148-.238 0-.328l-1.107-.64a.622.622 0 0 0-.572 0l-3.603 2.085c-.156.09-.141.239 0 .335zm8.75 5.065c.181.09.393.09.573 0l3.603-2.086c.156-.089.14-.238 0-.327l-4.168-2.414a.622.622 0 0 0-.572 0l-3.603 2.086c-.148.09-.14.238 0 .335zm13.157 13.409l3.603-2.086c.156-.09.14-.238 0-.335l-4.16-2.414a.66.66 0 0 0-.58 0l-3.603 2.086c-.148.09-.14.238 0 .328l4.168 2.413c.186.08.4.063.572-.044zm-32.433-12.366c.18.09.391.09.572 0l3.603-2.086c.148-.09.14-.238 0-.335l-1.107-.64a.622.622 0 0 0-.572 0l-3.603 2.085c-.156.09-.149.239 0 .335zm-42.863 26.58a.637.637 0 0 0 .58 0l3.602-2.087c.149-.09.141-.238 0-.335l-4.167-2.406a.622.622 0 0 0-.572 0l-3.603 2.086c-.156.09-.141.238 0 .335z" fill="#455a64"/><path d="M120.603 205.354l35.546-20.612a4.283 4.283 0 0 1 3.877 0l20.384 11.8c1.07.625 1.07 1.631 0 2.234l-35.553 20.62a4.239 4.239 0 0 1-3.878 0l-20.384-11.8c-1.062-.618-1.062-1.624.008-2.242z" fill="#263238"/></g><g fill-rule="nonzero"><path d="M195.373 95.002v5.445l-80.904 46.841c-.558.32-1.01.06-1.01-.588l.059-1.952a9.838 9.838 0 0 0-1.486-.462L87.8 158.313a2.273 2.273 0 0 0-1.018 1.765v2.056a2.236 2.236 0 0 1-1.01 1.766l-2.793 1.616v-5.438a2.236 2.236 0 0 1 1.01-1.765l110.374-63.9c.557-.32 1.01-.06 1.01.589z" fill="#90caf9"/><path d="M195.38 176.541a2.236 2.236 0 0 1-1.017 1.758L83.989 242.2c-.557.328-1.01.06-1.01-.588v-76.095l2.793-1.616c.557-.32 1.486-5.26 2.028-5.587l24.232-14.027c.557-.32 1.88 3.322 2.437 2.98l80.904-46.819v76.094z" fill="#ebebeb"/><path d="M87.8 186.374l48.479-28.09c.557-.329 1.01-.06 1.01.588v47.78a2.236 2.236 0 0 1-1.01 1.765L87.8 236.508c-.557.32-1.01.06-1.01-.588v-47.78a2.236 2.236 0 0 1 1.01-1.766z" fill="#fafafa"/><path d="M87.8 173.755l102.76-59.49c.557-.327 1.01-.06 1.01.589v7.159a2.236 2.236 0 0 1-1.01 1.758L87.8 183.268c-.557.32-1.01.06-1.01-.588v-7.16a2.236 2.236 0 0 1 1.01-1.765z" fill="#455a64"/><path d="M153.469 141.41v1.893c0 .394.274.55.609.357l29.87-17.297v-3.307l-29.87 17.297a1.357 1.357 0 0 0-.61 1.058z" fill="#fafafa"/><path d="M187.15 121.2c.341-.193.609 0 .609.35v1.9c-.022.43-.249.824-.61 1.058l-3.201 1.855v-3.307z" fill="#90caf9"/><path d="M186.92 123.8l-.365-.111a1.92 1.92 0 0 0 .06-.462.835.835 0 0 0-.327-.745.504.504 0 0 0-.52 0 1.827 1.827 0 0 0-.743 1.49.85.85 0 0 0 .327.745c.07.039.15.059.23.06a.57.57 0 0 0 .29-.09c.267-.18.47-.442.58-.745l.356.112h.037a.126.126 0 0 0 .126-.09.134.134 0 0 0-.052-.164zm-1.152.686a.245.245 0 0 1-.253 0 .627.627 0 0 1-.193-.537 1.61 1.61 0 0 1 .58-1.258.378.378 0 0 1 .163-.053c.029-.01.06-.01.09 0 .126.067.192.269.192.53.033.507-.183.999-.579 1.318z" fill="#fafafa"/><path d="M195.373 100.447v6.622L82.98 172.14v-6.623l2.087-1.206c.557-.328.743-.82 1.01-1.766l.706-2.466a2.579 2.579 0 0 1 1.018-1.765l24.232-14.027a.89.89 0 0 1 1.426.35l.87 1.58c.319.55.475.878 1.032.55z" fill="#e6e6e6"/><g fill="#455a64"><path d="M190.619 98.42c.743-.409 1.278-.081 1.278.746a2.832 2.832 0 0 1-1.278 2.234c-.743.41-1.285.075-1.285-.744a2.81 2.81 0 0 1 1.285-2.235zm-4.606 2.66c.706-.41 1.278-.082 1.278.745a2.832 2.832 0 0 1-1.278 2.235c-.743.41-1.278.074-1.278-.745a2.825 2.825 0 0 1 1.278-2.235zm-4.613 2.697c.706-.41 1.278-.082 1.278.745a2.832 2.832 0 0 1-1.278 2.235c-.743.41-1.278.074-1.278-.745a2.825 2.825 0 0 1 1.278-2.235z"/><path d="M87.637 166l-1.598.917.61-1.17a.299.299 0 0 0 0-.283c-.052-.06-.134 0-.186.082l-.862 1.669v.06a.366.366 0 0 0 0 .089.187.187 0 0 0 0 .067v.037l.862.67a.096.096 0 0 0 .089 0 .372.372 0 0 0 .097-.126.269.269 0 0 0 0-.276l-.61-.462 1.598-.923a.358.358 0 0 0 .126-.276c.037-.067-.06-.12-.126-.074zm1.33-.774l1.596-.924-.609-.47c-.052-.036-.06-.163 0-.267.06-.105.127-.164.179-.127l.869.67a.224.224 0 0 1 0 .075c.003.03.003.06 0 .09a.29.29 0 0 1 0 .059l-.87 1.669a.268.268 0 0 1-.081.096.082.082 0 0 1-.097 0 .299.299 0 0 1 0-.283l.61-1.177-1.598.969c-.074.044-.126 0-.126-.12 0-.101.047-.197.126-.26zm5.229-4.604c0-.097-.097-.082-.134 0l-.223.537c-.371-.045-.824.32-1.129.968-.393.842-.393 1.833 0 2.235a.578.578 0 0 0 .743.044c.328-.21.587-.513.743-.871.052-.112.052-.238 0-.283-.052-.045-.134 0-.178.104-.297.626-.743.901-1.07.618a1.598 1.598 0 0 1 0-1.646c.208-.447.513-.745.743-.745l-.164.402c-.044.105 0 .209.06.164l.654-.424a.224.224 0 0 0 .074-.18zm17.13-13.312l.587-1.236a.38.38 0 0 0 0-.38c-.074-.067-.186 0-.252.141l-.58 1.237-.58-.566c-.074-.06-.178 0-.252.149a.38.38 0 0 0 0 .38l.58.566-.58 1.229a.388.388 0 0 0 0 .387.111.111 0 0 0 .126 0 .402.402 0 0 0 .127-.156l.58-1.23.579.56a.089.089 0 0 0 .126 0 .328.328 0 0 0 .126-.15.388.388 0 0 0 0-.387z" opacity=".5"/></g><path d="M96.313 162.142v-2.064a2.236 2.236 0 0 1 1.01-1.765l91.327-52.845c.557-.32 1.01-.06 1.01.588v2.064a2.236 2.236 0 0 1-1.01 1.765L97.323 162.73c-.557.32-1.01.06-1.01-.588z" fill="#fafafa"/></g><path d="M188.086 106.563l.267.566a.067.067 0 0 0 .082 0l.602-.23c.089 0 .133.096.059.223l-.43.812a.306.306 0 0 0 0 .156l.103.745c0 .112-.089.268-.17.26l-.536-.066a.111.111 0 0 0-.104.06l-.534.684c-.09.105-.186.068-.171-.067l.104-.849a.127.127 0 0 0 0-.119l-.439-.313c-.066-.052 0-.23.067-.305l.595-.455a.276.276 0 0 0 .089-.141l.267-.872c-.044-.112.074-.179.149-.09z" stroke="#e0e0e0" stroke-width=".75"/><path d="M190.857 105.222a.364.364 0 0 1-.305-.179.358.358 0 0 1 .134-.484l2.852-1.654a.358.358 0 0 1 .357.61l-2.838 1.655a.311.311 0 0 1-.2.052zm0 1.654a.364.364 0 0 1-.305-.18.351.351 0 0 1 .134-.476l2.852-1.661a.358.358 0 0 1 .357.61l-2.838 1.662a.37.37 0 0 1-.2.045zm0 1.653a.35.35 0 0 1-.171-.655l2.852-1.654a.34.34 0 0 1 .483.127.358.358 0 0 1-.126.484l-2.838 1.654a.37.37 0 0 1-.2.044z" fill="#455a64" fill-rule="nonzero" opacity=".5"/><g fill-rule="nonzero"><path d="M110.004 197.638c4.078-4.164 5.126-6.057 5.126-7.725 0-1.669-.699-2.72-2.868-1.49a6.909 6.909 0 0 0-3.209 3.948 2.499 2.499 0 0 1-1.59 1.49l-2.83.626c-.676.156-1.129-.276-.966-.954 1.241-5.073 4.368-9.758 8.759-12.299 5.274-3.054 8.35-.745 8.35 4.41 0 4.954-2.6 9.088-5.2 12.06a3.873 3.873 0 0 0-.81 2.168v1.684a2.415 2.415 0 0 1-1.085 1.885l-3.476 2.011c-.602.35-1.085.067-1.085-.626v-5.08a3.529 3.529 0 0 1 .884-2.108zm-.95 14.801a5.963 5.963 0 0 1 2.874-5.147c1.865-1.088 2.838-.127 2.838 1.84a5.963 5.963 0 0 1-2.838 5.17c-1.91 1.102-2.875.104-2.875-1.863z" fill="#455a64"/><path d="M224.07 77.15l-2.724-1.598a1.602 1.602 0 0 0-1.655.157l-67.81 39.376a5.188 5.188 0 0 0-2.33 4.054v98.112c-.053.58.198 1.145.66 1.493l2.747 1.598 66.703-41.138a5.18 5.18 0 0 0 2.323-4.054z" fill="#90caf9"/><path d="M152.913 220.342l-2.708-1.575a1.647 1.647 0 0 1-.654-1.494V119.14c.031-.86.287-1.697.743-2.426l2.775 1.59a4.881 4.881 0 0 0-.742 2.434v98.12a1.685 1.685 0 0 0 .586 1.485z" fill="#000" opacity=".15"/><path d="M154.605 116.69l67.81-39.383c1.283-.747 2.322-.142 2.322 1.351v98.112a5.18 5.18 0 0 1-2.322 4.054l-67.81 39.383c-1.283.747-2.33.142-2.33-1.35v-98.12a5.188 5.188 0 0 1 2.33-4.047z" fill="#90caf9"/><path d="M221.346 75.552l2.657 1.546a1.698 1.698 0 0 0-1.559.209l-67.809 39.383a4.66 4.66 0 0 0-1.566 1.613l-2.753-1.59a4.698 4.698 0 0 1 1.566-1.628l67.772-39.338a1.595 1.595 0 0 1 1.655-.15z" fill="#fff" opacity=".4"/><path d="M162.301 120.543l54.303-31.544c.972-.568 1.759-.105 1.759 1.023v83.926a3.924 3.924 0 0 1-1.76 3.068l-54.302 31.485c-.972.56-1.766.104-1.766-1.023v-83.852a3.894 3.894 0 0 1 1.766-3.083z" fill="#fff"/><path d="M205.33 139.021l.55-.455a6.753 6.753 0 0 0-3.384-2l-.179.686a6.17 6.17 0 0 1 3.014 1.77z" fill="#37474f"/><path d="M206.54 141.806l-1.12-1.105a1.5 1.5 0 0 1 0-2.068 1.478 1.478 0 0 1 2.055 0l1.114 1.105a1.5 1.5 0 0 1 0 2.068c-.574.55-1.475.55-2.049 0z" fill="#90caf9"/><path d="M216.418 167.325l2.509 4.316s16.43-8.765 17.358-9.915c.928-1.15.868-3.472 1.01-4.726.23-2.09-.535-3.89-.646-4.644-.186-1.314 1.692-1.389 2.62.44.682 1.33.742 2.852 1.32 2.867a16.279 16.279 0 0 0 2.309-1.978c1.016-1.12 2.857-2.987 4.252-2.733.485.114.853.513.928 1.008.04.772.216 1.53.52 2.24.226.27.41.571.548.896.045.482.045.967 0 1.448.06.695.743.986.817 1.665a11.527 11.527 0 0 1-.17 1.56c0 .337.103.628.103.964a3.129 3.129 0 0 1-.846 1.836 19.435 19.435 0 0 1-4.876 4.107c-1.484.985-3.473 1.859-5.195 2.785-1.722.925-21.062 15.872-23.637 14.11-1.054-.746-3.83-4.307-6.746-8.294m-.609.515a133.756 133.756 0 0 1-8.163-12.939c-2.969-8.362.393-13.932.393-13.932s4.268-1.328 7.822 4.316c1.566 2.486 5.663 9.474 8.35 14.088" fill="#ffa8a7"/><path d="M192.751 149.048s4.705-1.918 7.756-1.717 5.306 1.068 7.547 4.689c2.969 4.83 7.934 13.178 7.934 13.178a23.961 23.961 0 0 1-9.611 10.34l-9.113-13.827z" fill="#455a64"/><path d="M177.82 157.41a10.209 10.209 0 0 0-3.325 4.92 24.348 24.348 0 0 0-1.01 7.213v15.716l-.2 29.745c9.915 3.397 22.517.403 33.092-11.423 0 0-.586-38.077-.586-44.297v-.858c-.386-8.818-7.949-12.909-15.4-8.668l-6.263 3.554-6.286 4.098z" fill="#f0f0f0"/><path d="M181.27 121.23s-4.86-.38-5.937 4.158c-.987 4.047 6.346 20.024 6.182 19.756-.163-.27-.245-23.914-.245-23.914z" fill="#263238"/><path d="M198.436 112.091s-1.803-4.882-10.56-1.41c-4.453 1.769-6.123 7.316-6.123 7.316z" fill="#90caf9"/><path d="M198.436 112.091s-1.803-4.882-10.56-1.41c-4.453 1.769-6.123 7.316-6.123 7.316z" fill="#000" opacity=".4"/><path d="M184.61 125.06c0 6.72 4.676 10.885 10.45 9.325 5.773-1.56 10.449-8.213 10.449-14.932 0-6.72-4.98-6.72-10.754-5.152-5.774 1.568-10.145 4.054-10.145 10.759zm-5.455 10.617s1.537 7.988 2.153 9.205a2.374 2.374 0 0 0 1.892 1.262l-.104-5.883zm1.93-12.558a4.289 4.289 0 0 0-2.969 2c-1.261 1.845-.556 6.37 1.025 10.558l2.894-.396z" fill="#263238"/><path d="M182.925 135.05c-.586.56-1.41-.516-2.13-1.195-.72-.68-3.057-1.24-4.23 1.934s1.032 6.488 2.88 6.667c3.176.299 3.651-2.195 3.651-2.195l.104 13.64c5.336 5.69 14.672-1.015 10.472-3.531v-4.054a18.31 18.31 0 0 0 4.282-.896c2.337-1.053 3.807-3.584 4.52-6.72 1.135-5.024 1.565-8.959.6-17.97-1.053-9.885-11.243-7.242-16.742-1.74-5.5 5.503-3.407 16.06-3.407 16.06z" fill="#ffa8a7"/><path d="M182.925 136.222c-.296.09-1.41-1.755-2.13-2.33-1.001-.791.29-10.736.29-10.736-1.158-2.568.98-6.443 3.213-8.018a13.006 13.006 0 0 1 5.307-1.964 59.289 59.289 0 0 1 4.794-.664 43.167 43.167 0 0 0 5.803-.702 19.96 19.96 0 0 0 4.334-1.583c1.218-.56 2.227.702 1.15 2.8a15.805 15.805 0 0 1-3.933 4.972c-4.734 3.576-10.234 4.435-15.02 4.965-1.077.12-1.314 1.396-1.893 4.868-.512 3.016-.935 8.07-1.915 8.392zm-5.484-13.021l-3.518-1.247c.498-1.306 1.692-2.083 2.657-1.74.965.344 1.358 1.68.861 2.987z" fill="#263238"/><path d="M193.664 146.316s-5.195.186-7.035-.448a4.462 4.462 0 0 1-2.524-2.24 7.755 7.755 0 0 0 1.433 3.031c1.336 1.62 8.126 1.247 8.126 1.247z" fill="#f28f8f"/><path d="M192.403 130.995a1.62 1.62 0 0 1-1.04 1.494c-.57.149-1.038-.291-1.038-.986a1.62 1.62 0 0 1 1.039-1.538c.578-.127 1.039.284 1.039 1.03zm-1.67-4.591l-2.227 2.038a1.987 1.987 0 0 1 .52-2.24 1.028 1.028 0 0 1 1.707.202z" fill="#263238"/><path d="M193.197 139.156l2.382.396a1.635 1.635 0 0 1-1.618 1.35c-.66-.104-1.002-.888-.764-1.746z" fill="#f28f8f"/><path d="M201.998 124.433l-2.04-1.277c.423-.746 1.21-1.142 1.773-.791a1.59 1.59 0 0 1 .267 2.068zm-.89 3.852a1.62 1.62 0 0 1-1.047 1.546c-.578.15-1.046-.291-1.046-.986-.01-.684.409-1.3 1.046-1.538.58-.157 1.047.284 1.047.978z" fill="#263238"/><path d="M195.943 128.703l.118 7.332 3.748-1.971z" fill="#f28f8f"/><path d="M162.116 201.923c2.924-30.237 7.651-40.981 15.058-43.99 2.486 1.956 2.887 10.878.074 17.575 0 0-6.19 20.054-6.68 26.878-.312 6.382-.076 12.78.706 19.12.08.771.482 1.472 1.106 1.927 1.58 1.09 1.44 2.613 2.553 4.084.875 1.15 1.706 1.373 1.484 1.792a1.993 1.993 0 0 1-2.227 1.15 5.973 5.973 0 0 1-1.937-1.12 16.38 16.38 0 0 0 1.96 4.554c2.003 3.262 1.855 5.42-3.058 6.025-3.08.38-5.27-1.59-6.627-9.363-.386-2.24-1.336-6.271-1.7-9.168-1.054-8.265-1.187-14.596-.712-19.464z" fill="#ffa8a7"/><path d="M179.296 156.5s-5.388 1.747-8.163 6.084c-2.776 4.338-5.551 11.356-7.659 23.892 0 0 3.265 4.733 12.178 1.082 0 0 4.223-15.947 4.72-22.286.513-6.913-1.076-8.772-1.076-8.772z" fill="#455a64"/><path d="M184.306 112.33c-5.04 3.173-7.214 7.026-7.34 11.67a89.55 89.55 0 0 0 .379 9.556 7.83 7.83 0 0 0-3.221 5.973c0 3.143 2.53 5.01 5.655 4.166a7.95 7.95 0 0 0 5.655-7.212 4.093 4.093 0 0 0-3.436-4.308 46.565 46.565 0 0 1 .037-13.372c1.12-6.72 13.603-10.594 16.401-6.72-.839-3.344-7.124-4.195-14.13.247z" fill="#90caf9"/><path d="M184.306 112.33c-5.04 3.173-7.214 7.026-7.34 11.67a89.55 89.55 0 0 0 .379 9.556 7.83 7.83 0 0 0-3.221 5.973c0 3.143 2.53 5.01 5.655 4.166a7.95 7.95 0 0 0 5.655-7.212 4.093 4.093 0 0 0-3.436-4.308 46.565 46.565 0 0 1 .037-13.372c1.12-6.72 13.603-10.594 16.401-6.72-.839-3.344-7.124-4.195-14.13.247z" fill="#000" opacity=".15"/><path d="M182.488 137.274a2.028 2.028 0 0 0-.822-1.73 2.001 2.001 0 0 0-1.887-.263 3.81 3.81 0 0 0-2.71 3.457 2.032 2.032 0 0 0 .837 1.712 2 2 0 0 0 1.88.251 3.803 3.803 0 0 0 2.702-3.427z" fill="#90caf9"/><g fill="#90caf9"><path d="M139.755 185.244a3.08 3.08 0 0 0-.334.388 2.17 2.17 0 0 0-.393.747.75.75 0 0 0 0 .485.53.53 0 0 0 .156.291.688.688 0 0 0 .133.12l-2.723-1.583a.67.67 0 0 1-.26-.261.856.856 0 0 1 0-.657 2.08 2.08 0 0 1 .252-.523c.141-.213.3-.413.475-.597z"/><path d="M139.777 185.214c-1.417 1.493-.92 2.501 1.114 2.24l11.384-1.322v-13.984z"/><path d="M139.777 185.214c-.898.94-1.024 1.687-.49 2.053l-2.723-1.583c-.571-.358-.445-1.12.46-2.075l12.505-13.043 2.754 1.605z"/></g><path d="M139.755 185.244a3.08 3.08 0 0 0-.334.388 2.499 2.499 0 0 0-.393.747.916.916 0 0 0 0 .485c.022.11.076.212.156.291a.688.688 0 0 0 .133.12l-2.723-1.583a.67.67 0 0 1-.26-.261.856.856 0 0 1 0-.657 2.38 2.38 0 0 1 .252-.523c.141-.213.3-.413.475-.597z" fill="#000" opacity=".15"/><path d="M152.283 172.148l-12.506 13.066-2.76-1.605 12.512-13.043z" fill="#fff" opacity=".4"/><path d="M216.418 167.325l2.509 4.316s16.43-8.765 17.358-9.915c.928-1.15.868-3.472 1.01-4.726.23-2.09-.535-3.89-.646-4.644-.223-1.605 2.07-1.232 2.798-.597a6.952 6.952 0 0 1 1.18 1.724c.356.598 1.024 2.546 1.707 2.666.534.097 1.595-.665 2.033-.993 1.803-1.374 2.917-3.278 4.304-5.018a2.46 2.46 0 0 1 .995-.866 2.38 2.38 0 0 1 2.019.53 4.61 4.61 0 0 1 1.484 1.33c.24.409.41.855.504 1.32.743 3.167-.875 5.84-2.783 8.214a28.59 28.59 0 0 1-6.723 5.972c-1.485.986-3.474 1.86-5.195 2.785-1.722.926-20.172 16.478-22.754 14.716a45.813 45.813 0 0 1-8.23-8.347m129.987-35.457c5.939 0 9.057 1.786 11.522 7.284 2.36 5.26 9.689 20.518 9.325 24.215-.364 3.697-15.413 19.44-15.413 19.44l-4.299-5.208 9.325-15.697-9.183-13.317z" fill="#ffa8a7"/><path d="M323.557 302.24s.668 2.031 1.032 3.817c.29 1.413.698 3.771.2 4.835-.497 1.064-2.42 1.748-5.405 1.726-1.937 0-4.952 1.302-7.016 2.463-2.064 1.16-6.57 1.666-8.827 1.398-2.658-.312-5.412-1.86-5.843-2.976s-.794-2.61 6.407-4.924c.06 0 8.709-2.842 11.738-6.198z" fill="#263238"/><path d="M323.557 302.441l-1.374-.171-6.34.126c-3.03 3.356-11.678 6.183-11.738 6.197l-1.15.387c-1.255 1.012-.194 2.73 2.776 2.976 2.97.246 12.228-2.857 14.277-3.846a6.146 6.146 0 0 0 3.549-5.669z" fill="#ffa8a7"/><path d="M323.557 299.71v2.731c0 .997-1.159 2.47-4.188 2.358-2.123-.074-3.608-.647-3.526-2.403v-2.507z" fill="#ffa8a7"/><path d="M343.884 290.835c.542.224.654 1.28.676 3.37 0 1.578.29 4.345-1.574 4.851-1.864.506-4.559.141-5.702-1.376-1.425-1.897-2.383-3.564-4.454-5.892-1.775-2.016-3.713-3.906-4.366-6.696-.601-2.514 0-3.578 1.7-4.263s3.267-.119 5.643 1.868c.662.45 1.372.826 2.116 1.123 1.58.499 5.412 6.792 5.961 7.015z" fill="#263238"/><path d="M343.936 288.901l-.074 2.567s-1.708 3.355-6.467 0c-.103-.253-.534-5.208-.534-5.208z" fill="#ffa8a7"/><path d="M337.945 283.835a11.084 11.084 0 0 1-2.116-1.123c-1.916-.618-5.94.096-4.135 2.894a21.643 21.643 0 0 0 5.701 5.862c2.153 1.064 2.903-.253 2.903-.253l-.742-6.019a4.74 4.74 0 0 0-1.611-1.361z" fill="#ffa8a7"/><path d="M347.41 253.43c-.95-8.414-2.768-13.272-2.768-13.272s1.61-11.323 2.873-22.177c2.97-25.495.995-25.904-2.599-34.772 0 0-32.614-4.203-33.98 9.389-1.7 16.924-.929 49.747-.646 55.75.282 6.004.742 8.72 2.553 21.292 1.352 9.575 2.636 30.502 2.636 30.502 4.276 2.47 8.39-.431 8.39-.431s4.09-25.733 3.994-32.66a59.219 59.219 0 0 0-2.228-15.154s2.777-27.585 3.482-31.99c0 0 .787 8.802 1.077 14.805.29 6.004 1.908 11.77 3.34 22.951 1.24 9.671 3.305 29.929 3.305 29.929 4.276 2.47 7.26 1.354 7.26 1.354s4.255-27.11 3.312-35.516z" fill="#90caf9"/><path d="M324.173 134.83l1.195 12.707 11.137-.707-.891-14.09z" fill="#ffa8a7"/><path d="M346.512 145.73c-1.135-3.364-3.437-5.335-8.537-5.395l-1.879.06c-.356 1.875-5.843 3.392-11.262 1.488-.743.2-2.859.588-4.04.744l-2.598.38c-3.942 1.294-5.687 8.183-6.065 19.052-.379 10.869-2.005 34.176-2.005 34.176s8.486 4.553 21.88 2.79c11.99-1.577 16.652-8.682 16.236-7.774a82.808 82.808 0 0 0-6.192-17.445c6.311-15.556 6.14-23.085 4.462-28.077z" fill="#455a64"/><path d="M325.368 199.412c2.22.024 4.437-.11 6.637-.402 10.929-1.435 15.77-7.44 16.222-7.833a82.69 82.69 0 0 0-6.177-17.386c3.193-7.856 4.722-13.66 5.242-18.13-.52 3.258-5.323 15.876-11.612 19.662 0 0 3.55.55 6.586 4.732 3.036 4.18.542 18.457-16.898 19.357z" fill="#37474f"/><path d="M320.795 142.612c-5.234.662-9.74 1.6-11.649 6.748a57.143 57.143 0 0 1-11.366 18.985c-3.252 3.49-16.6 10.17-19.608 9.671s-5.716-4.79-7.26-3.898c-1.545.893 1.84 3.958 1.655 4.717-.186.758-5.605-.819-8.167-2.641-2.561-1.823-4.083 3.407-.742 7.32 3.34 3.913 9.592 4.218 16.393 2.857 6.8-1.362 19.228-5.409 24.166-10.021 6.473-6.063 7.654-9.359 10.46-14.581 8.94-6.949 6.118-19.157 6.118-19.157z" fill="#ffa8a7"/><path d="M318.345 119.051s-4.202-5.021-.906-9.917c3.89-5.773 10.736-7.722 19.2-5.207 4.186 1.242 10.341 7.045 10.653 15.184.238 6.271-17.313 10.415-17.031 14.715z" fill="#263238"/><path d="M315.94 120.889s-2.465 3.72-2.146 4.136c.578.38 1.22.655 1.893.811z" fill="#f28f8f"/><path d="M323.445 109.053c-2.398 1.242-6.54 3.533-7.61 12.386-1.09 9.084.928 12.238 2.16 13.428.84.804 5.146 1.094 7.425.395 2.814-.87 8.91-3.884 11.753-8.57 3.355-5.52 4.046-12.87.17-15.757-5.486-4.055-11.87-2.931-13.898-1.882z" fill="#ffa8a7"/><g fill="#263238"><path d="M322.74 109.44s-2.094 8.287.408 13.524c0 0 1.485-3.236 4.24-2.306 2.754.93 2.539 4.665.341 6.57a4.137 4.137 0 0 1-4.328.922s.074 4.59 3.987 6.405c0 0 8.166 3.92 15.59-3.995 6.682-7.186 5.843-20.086-4.038-23.352-9.882-3.266-16.2 2.231-16.2 2.231z"/><path d="M355.986 144.405a11.822 11.822 0 0 1-8.384-3.49 11.871 11.871 0 0 1-3.45-8.413v-15.206c6.531 0 11.826 5.305 11.826 11.85zM316.37 105.72c-3.675 3.72-3.883 14.588 6.778 17.252l6.987-19.187c-4.069-2.655-10.483-1.428-13.765 1.935z"/><path d="M322.08 125.925a2.115 2.115 0 0 1-.68-3.632c.59-.49 1.398-.62 2.112-.34z"/></g><path d="M329.132 219.923l1.775-11.375a24.942 24.942 0 0 0 10.082-3.512s-2.227 3.356-8.093 4.754l-1.811 13.175-.743 13.8z" fill="#000" opacity=".1"/></g></g></g></g></svg>