<svg width="159" height="19" xmlns="http://www.w3.org/2000/svg"><path d="M2.388 18.32v-5.094c.486.486 1.368.972 2.88.972 2.736 0 3.906-1.836 3.906-5.022S8.04 4.082 5.358 4.082c-1.98 0-2.97 1.026-3.222 1.368L1.92 4.28H.12L.3 6.872V18.32h2.088zm2.43-6.012c-1.278 0-1.998-.54-2.43-1.098V7.07A3.075 3.075 0 0 1 4.8 5.918c1.62 0 2.286 1.17 2.286 3.258 0 2.052-.666 3.132-2.268 3.132zM13.368 14V8.42c.144-.576.81-2.43 3.312-2.43V4.046c-2.268 0-3.186 1.188-3.51 1.854l-.252-1.62H11.1l.18 2.808V14h2.088zm8.694.252c3.564 0 4.356-1.944 4.392-3.258h-2.088c-.036.594-.522 1.512-2.322 1.512-1.584 0-2.268-.792-2.394-2.682h6.858c0-4.158-1.206-5.796-4.446-5.796-3.402 0-4.554 1.908-4.554 5.13s1.152 5.094 4.554 5.094zm2.232-6.138h-4.608c.18-1.638.882-2.394 2.358-2.394 1.296 0 1.998.63 2.25 2.394zm7.866 6.138c3.096.018 4.302-1.08 4.302-2.934 0-4.104-6.318-2.304-6.318-4.338 0-.684.432-1.278 2.088-1.242 1.458.018 1.944.63 1.944 1.602h2.052c0-2.07-1.242-3.294-4.05-3.312-2.826-.018-4.14 1.062-4.122 2.862.036 3.978 6.336 2.124 6.3 4.32-.018.828-.612 1.296-2.214 1.278-1.386-.018-2.196-.63-2.196-1.782h-2.07c0 2.196 1.476 3.528 4.284 3.546zm9.81 0c3.096.018 4.302-1.08 4.302-2.934 0-4.104-6.318-2.304-6.318-4.338 0-.684.432-1.278 2.088-1.242 1.458.018 1.944.63 1.944 1.602h2.052c0-2.07-1.242-3.294-4.05-3.312-2.826-.018-4.14 1.062-4.122 2.862.036 3.978 6.336 2.124 6.3 4.32-.018.828-.612 1.296-2.214 1.278-1.386-.018-2.196-.63-2.196-1.782h-2.07c0 2.196 1.476 3.528 4.284 3.546zm12.78 2.232c1.458 0 2.52-.198 3.348-.504v-1.494c-.81.396-2.106.576-3.33.576-4.212 0-5.508-2.79-5.508-6.12 0-3.6 1.512-6.192 5.49-6.192 4.086 0 5.598 2.412 5.598 6.192 0 3.024-.396 3.618-1.116 3.618-.72 0-1.026-.774-1.026-2.106V5.018h-1.458l-.108.828a3.422 3.422 0 0 0-2.412-.954c-2.358 0-3.222 1.602-3.222 4.104 0 2.484.864 4.068 3.222 4.068 1.296 0 2.07-.468 2.52-1.008.27 1.026.918 1.728 2.268 1.728 2.124 0 2.898-1.35 2.898-4.842 0-4.428-1.908-7.614-7.164-7.614-5.13 0-7.038 3.366-7.038 7.614 0 4.392 1.854 7.542 7.038 7.542zm-.216-4.86c-1.242 0-1.836-1.008-1.836-2.628s.576-2.664 1.836-2.664c1.17 0 1.764.666 2.052 1.098v3.132c-.252.486-.81 1.062-2.052 1.062zm14.49 2.574c2.736 0 3.888-1.836 3.888-5.022s-1.116-5.094-3.816-5.094c-1.602 0-2.52.666-2.97 1.098V.428h-2.088v10.908L63.858 14h1.8l.198-1.08c.414.576 1.314 1.278 3.168 1.278zm-.468-1.89c-1.296 0-2.016-.558-2.43-1.134V7.07a3.075 3.075 0 0 1 2.412-1.152c1.62 0 2.286 1.17 2.286 3.258 0 2.052-.666 3.132-2.268 3.132zm9.936 5.796L83.136 4.28H80.94l-2.556 8.154-2.556-8.154h-2.322L76.98 14h.9l-1.278 4.104h1.89zm9.612-3.852c3.096.018 4.302-1.08 4.302-2.934 0-4.104-6.318-2.304-6.318-4.338 0-.684.432-1.278 2.088-1.242 1.458.018 1.944.63 1.944 1.602h2.052c0-2.07-1.242-3.294-4.05-3.312C85.296 4.01 83.982 5.09 84 6.89c.036 3.978 6.336 2.124 6.3 4.32-.018.828-.612 1.296-2.214 1.278-1.386-.018-2.196-.63-2.196-1.782h-2.07c0 2.196 1.476 3.528 4.284 3.546zm9.234 0c1.512 0 2.574-.594 3.276-1.296l.216 1.026h1.908l-.198-2.556v-2.25c0-3.024-.054-5.094-4.302-5.094-3.6 0-3.996 2.07-3.996 3.294h1.908c0-.702.342-1.602 2.196-1.602 1.764 0 2.07.63 2.106 2.268a19.92 19.92 0 0 0-2.556-.144c-2.412 0-4.086.774-4.086 3.33 0 1.98 1.116 3.024 3.528 3.024zm.468-1.746c-1.44 0-1.854-.648-1.854-1.404 0-1.152.882-1.512 2.52-1.512.882 0 1.512.054 1.98.09v1.314c-.144.63-1.152 1.512-2.646 1.512zM109.47 14l3.69-9.72h-2.304l-2.448 7.758-2.466-7.758h-2.322l3.69 9.72h2.16zm7.2-11.394V.266h-2.106v2.34h2.106zM116.652 14V4.28h-2.088V14h2.088zm4.5 0v-2.448h-2.124V14h2.124zm6.21.234c3.078 0 4.23-1.422 4.32-3.618h-2.07c-.036 1.296-.864 1.908-2.25 1.908-1.746 0-2.376-1.044-2.376-3.366 0-2.286.63-3.42 2.376-3.42 1.422 0 2.232.702 2.268 2.196h2.052c-.072-2.448-1.224-3.906-4.32-3.906-3.384 0-4.5 1.926-4.5 5.13 0 3.222 1.116 5.076 4.5 5.076zm10.422.018c3.456 0 4.572-1.872 4.572-5.094 0-3.222-1.116-5.148-4.572-5.13-3.474 0-4.572 1.908-4.572 5.13s1.098 5.094 4.572 5.094zm0-1.728c-1.854 0-2.448-1.062-2.448-3.366 0-2.304.594-3.402 2.448-3.402 1.836 0 2.43 1.098 2.43 3.402 0 2.304-.594 3.366-2.43 3.366zM146.55 14V7.412c.378-.54 1.116-1.332 2.358-1.332 1.422 0 1.854.774 1.854 2.25V14h1.926V8.402c0-.36-.018-.72-.054-1.026.396-.558 1.152-1.296 2.376-1.296 1.458 0 1.872.774 1.872 2.25V14h1.998l.018-5.598c0-3.096-.972-4.266-3.204-4.266-2.16 0-3.114 1.008-3.438 1.53-.486-1.08-1.368-1.53-2.7-1.53-1.926 0-2.862.792-3.258 1.35l-.216-1.206h-1.8l.18 2.574V14h2.088z" fill="#FFF"/></svg>