<svg height="400" width="400" xmlns="http://www.w3.org/2000/svg" xmlns:xlink="http://www.w3.org/1999/xlink"><defs><path id="a" d="M.5.5h400v400H.5z"/><mask id="b" fill="#fff"><use fill-rule="evenodd" xlink:href="#a"/></mask></defs><g fill="none" fill-rule="evenodd" opacity=".6" transform="translate(-.5 -.5)"><g mask="url(#b)" opacity=".2"><g stroke="#677078" stroke-width=".5"><path d="M385 115l134 15.95M464 440.5L366 369l-105.5-38.5-105.5-61L20.5 300 148 382.5l-84.25 57.75L20.5 300-98 247l149.5-55.5L-15 115l78.75-74.75L-34-31"/><path d="M-15 115l134 16 76.5 60.5L302 247l-147.25 22.25-103.5-78M185.5 453L148 382.5"/><path d="M260.5 330.5l29 91L366 369l54.5-69L302 247l-41.5 83.5-112.5 52 7-113 40.5-78L270 135l115-20-95.75-93.75L185.5 53 148-17.5 63.75 40.25 119 131l-67.5 60.5-31 108.5-54.5 69 98 71.5"/><path d="M260.5-69.5l29.25 91.25L366-31m-64 278l-32-112-151-4 66.5-78m266 138.5L270 135m-74.5 56.5h-144"/><path d="M-110.5 21.5L63.75 40.25 185.5 53l84.5 82 19.25-113.75L464 40.5 385 115l66.5 76.5L302 247l64 122M148-17.5l141.25 38.75m.25 400.25l-141.5-39M20.5-100L64 40.5m-12.5 151L-130 135"/></g><g fill="#677078" fill-rule="nonzero" transform="translate(18 19)"><circle cx="367" cy="96" r="2.5"/><circle cx="252" cy="116" r="2.5"/><circle cx="284" cy="228" r="2.5"/><circle cx="348" cy="350" r="2.5"/><circle cx="242.5" cy="311.5" r="2.5"/><circle cx="137" cy="250.5" r="2.5"/><circle cx="130" cy="363.5" r="2.5"/><circle cx="2.5" cy="281" r="2.5"/><circle cx="33.5" cy="172.5" r="2.5"/><circle cx="46" cy="21.5" r="2.5"/><circle cx="167.5" cy="34" r="2.5"/><circle cx="271.5" cy="2.5" r="2.5"/><circle cx="101" cy="112" r="2.5"/><circle cx="177.5" cy="172.5" r="2.5"/></g></g></g></svg>