<svg height="800" width="1770" xmlns="http://www.w3.org/2000/svg"><g fill="none"><path d="M0 0h1770v800H0z" fill="#f1f5f8"/><g opacity=".08"><path d="M1017 350L599 800h857z" fill="#7a89a3"/><path d="M1017 350l-84.1 450H1456z" fill="#000" opacity=".8"/><path d="M0 800l458-238 418 238z" fill="#7a89a3"/><path d="M397 800l61-238 418 238z" fill="#000" opacity=".8"/><path d="M1263 446l349 354H936z" fill="#7a89a3"/><path d="M1263 446l349 354h-390z" fill="#000" opacity=".8"/><path d="M701 595l245 205H427z" fill="#7a89a3"/><path d="M647 800l54-205 245 205z" fill="#000" opacity=".8"/><path d="M1770 800l-309-268-305 268z" fill="#7a89a3"/><path d="M1770 800l-309-268-36 268z" fill="#000" opacity=".8"/><path d="M1270 800l-239-213-246 213z" fill="#7a89a3"/><path d="M1003 800h267l-239-213z" fill="#000" opacity=".8"/></g></g></svg>