<svg viewBox="0 0 360 129.5" xmlns="http://www.w3.org/2000/svg"><g fill="#205d6d"><path d="M76.8 38.6v22.2c-5.9-2.5-11.9-4.5-18.1-5.9-5.4-1.3-10.9-1.9-16.5-2-5.5 0-9.7.7-12.4 2.1-2.5 1.1-4.1 3.7-4 6.4-.1 2.2 1.1 4.3 3.1 5.4 2 1.3 5.7 2.2 11 2.8l5.1.8c15 1.9 25 5 30.2 9.4S83 91 83 100.3c0 9.7-3.6 17.1-10.8 22s-17.9 7.4-32.2 7.3c-6.3 0-12.5-.5-18.7-1.4-6.7-1-13.4-2.5-19.9-4.3v-22.2c5.7 2.8 11.7 4.9 17.9 6.4 6.1 1.4 12.4 2.2 18.7 2.2 5.7 0 10-.8 12.9-2.4 2.7-1.3 4.4-4 4.3-7 .1-2.3-1-4.6-3-5.8-2-1.3-6-2.3-11.9-3l-5.1-.6c-13-1.6-22.2-4.7-27.4-9.1C2.6 77.8 0 71.1 0 62.1c0-9.7 3.3-16.9 10-21.5s16.8-7 30.5-7c5.7 0 11.4.4 17 1.2 6.5.9 12.9 2.2 19.3 3.8zm89-5.1V41c-7.3-4.7-16.5-7.4-27.3-7.4-26.5 0-45.3 21.5-45.3 47.9s18.8 47.9 45.3 47.9c9.8 0 19.3-3 27.3-8.6v8.6h23.8v-96zm-24.7 72.2c-13.3 0-24.2-10.8-24.2-24.1s10.8-24.1 24.1-24.1 24.2 10.8 24.2 24.1-10.8 24.1-24.1 24.1zm192-69.1h26.8v92.8h-26.8zm.1-36.6H360v22.2h-26.8zM204.9 74.7c0 26 17.8 48.6 43 54.8l-33.7-85.8c-6.1 9.2-9.3 20-9.3 31zm103.6-31.1l-25.7 65.3-8.1 20.6c30.3-7.4 48.9-37.9 41.5-68.2-1.6-6.3-4.2-12.3-7.7-17.7z"/></g><path d="M286.7 24.2c-16-8-34.8-8-50.8 0l25.4 70.6z" fill="#46ba8c"/></svg>