<svg height="413" width="544" xmlns="http://www.w3.org/2000/svg" xmlns:xlink="http://www.w3.org/1999/xlink"><defs><rect id="c" height="398.769" rx="12" width="531.692"/><filter id="b" height="107%" width="104.9%" x="-1.3%" y="-1.8%"><feOffset dx="12" dy="14" in="SourceAlpha" result="shadowOffsetOuter1"/><feColorMatrix in="shadowOffsetOuter1" values="0 0 0 0 0 0 0 0 0 0 0 0 0 0 0 0 0 0 0.12 0"/></filter><path id="a" d="M0 0h438v365H0z"/><mask id="d" fill="#fff"><use fill-rule="evenodd" xlink:href="#a"/></mask></defs><g fill="none" fill-rule="evenodd"><g transform="translate(.5)"><use fill="#000" filter="url(#b)" xlink:href="#c"/><use fill="#eee" xlink:href="#c"/></g><circle cx="30.615" cy="199.385" fill="#eee" r="14.615" stroke="#ccc" stroke-width="4"/><circle cx="514.019" cy="199.385" fill="#9c9c9c" r="6.808" stroke="#ccc" stroke-width="3"/><path d="M60.212 17.654h436.153v363.461H60.212z" fill="#000"/><g transform="translate(59 17)"><use fill="#2ac991" xlink:href="#a"/><path d="M540-90L-59-7l70.977 227H495z" fill="#000" fill-opacity=".1" mask="url(#d)" transform="matrix(1 0 0 -1 0 130)"/><g fill-rule="nonzero" mask="url(#d)"><g fill="#000" fill-opacity=".1" transform="translate(181 267)"><path d="M104.784 57.936l39.774-22.86a4.796 4.796 0 0 1 3.942-.18l40.562 23.315c1.111.51 1.159 1.421.094 2.033L148.618 83.49a3.75 3.75 0 0 1-3.73-.189L104.682 60.34a1.326 1.326 0 0 1 .103-2.403z"/><ellipse cx="40.878" cy="19.32" rx="40.61" ry="19.273"/></g><path d="M145.153 256.115v-1.892l-33.752 19.446 1.607.946zm-42.045-128.032a.464.464 0 0 1 .214.489L75.315 252.236l-.791 3.508a2.152 2.152 0 0 1-1.116-.22l-1.876-1.08a.456.456 0 0 1-.213-.49l28.71-126.911a.45.45 0 0 1 .665-.292z" fill="#37474f"/><path d="M106.574 126.396l-28.853 127.52a.789.789 0 0 1-.356.48l-1.876 1.096a1.958 1.958 0 0 1-.973.237l.791-3.508 28.038-123.988z" fill="#455a64"/><path d="M109.795 298.287v3.714a2.19 2.19 0 0 1-1.037-.237l-1.74-1.002a.725.725 0 0 1-.42-.599V189.371l3.22 1.853z" fill="#37474f"/><path d="M113.016 189.38v110.783a.733.733 0 0 1-.428.56l-1.733 1.001a2.089 2.089 0 0 1-1.052.253V191.224z" fill="#455a64"/><path d="M151.524 277.981a2.183 2.183 0 0 1-1.005-.291l-1.789-1.033a.915.915 0 0 1-.443-.615l-19.175-99.638 3.221 1.853 18.502 96.17z" fill="#37474f"/><path d="M154.737 276.113a.789.789 0 0 1-.443.607l-1.639.946-.079.047a2.186 2.186 0 0 1-1.052.253l-.689-3.587-18.502-96.138 3.229-1.845 19.143 99.591z" fill="#455a64"/><path d="M111.9 278.935l36.466-20.968v-3.697L111.9 275.238z" fill="#455a64"/><path d="M61.577 224.024v1.332c.04.721.421 1.38 1.029 1.774l10.802 6.211a2.287 2.287 0 0 0 2.05 0l91.173-52.428a2.276 2.276 0 0 0 1.02-1.773v-1.333a2.26 2.26 0 0 0-1.02-1.773l-10.802-6.212a2.255 2.255 0 0 0-2.058 0L62.606 222.25a2.253 2.253 0 0 0-1.029 1.774z" fill="#90caf9"/><path d="M62.606 223.433l10.802 6.211a2.287 2.287 0 0 0 2.05 0l91.173-52.428a.623.623 0 0 0 0-1.182l-10.802-6.212a2.255 2.255 0 0 0-2.058 0L62.606 222.25c-.57.324-.57.852 0 1.183z" fill="#fff" opacity=".4"/><path d="M74.429 229.889v3.697a2.12 2.12 0 0 1-1.021-.245l-10.802-6.227a2.276 2.276 0 0 1-1.029-1.774v-1.332c.025-.63.312-1.22.791-1.632-.356.324-.285.789.206 1.041l10.802 6.212c.323.175.685.265 1.053.26z" fill="#000" opacity=".1"/><path d="M69.506 227.398L66.5 225.67a4.09 4.09 0 0 1-1.828-2.948L58.476 115.73a3.489 3.489 0 0 1 1.583-2.948l89.812-51.64a3.804 3.804 0 0 1 3.426 0l3.008 1.726a4.058 4.058 0 0 1 1.82 2.948l6.204 106.993a3.504 3.504 0 0 1-1.583 2.948l-89.812 51.64a3.804 3.804 0 0 1-3.427 0z" fill="#e0e0e0"/><path d="M158.084 65.518c-.182-.867-.926-1.175-1.788-.686L66.499 116.48a3.27 3.27 0 0 0-1.179 1.285l-6.434-3.697a3.348 3.348 0 0 1 1.187-1.254l89.797-51.671a3.812 3.812 0 0 1 3.418 0l3.024 1.734a4.098 4.098 0 0 1 1.772 2.64z" fill="#fafafa"/><path d="M64.9 119.436l6.205 106.984a1.11 1.11 0 0 0 .58 1.108 1.12 1.12 0 0 0 1.248-.13l89.796-51.64a3.504 3.504 0 0 0 1.583-2.948l-6.188-106.993a1.11 1.11 0 0 0-.58-1.099 1.12 1.12 0 0 0-1.24.122l-89.805 51.64a3.512 3.512 0 0 0-1.598 2.956z" fill="#f0f0f0"/><path d="M132.294 79.47v5.755c-.026.506-.293.97-.72 1.245l-37.133 21.34c-.452.23-.988.23-1.44 0l-1.765-1.025a1.575 1.575 0 0 1-.712-1.238v-2.869l-6.41-3.697-3.165 1.845v-6.567c.027-.503.295-.963.72-1.237l37.13-21.362a1.59 1.59 0 0 1 1.441 0l11.356 6.566c.418.28.677.743.697 1.245z" fill="#263238"/><path d="M132.294 79.47v5.755a1.575 1.575 0 0 1-.72 1.237L94.441 107.81c-.222.113-.47.17-.72.166v-7.387c.251.003.499-.057.72-.173l37.155-21.362c.348-.197.388-.513.127-.734.345.286.552.705.57 1.151z" fill="#37474f"/><path d="M81.583 93.848l11.42 6.567c.451.23.987.23 1.44 0l37.154-21.362a.442.442 0 0 0 0-.828l-11.42-6.566a1.588 1.588 0 0 0-1.44 0L81.583 93.02a.434.434 0 0 0 0 .827z" fill="#455a64"/><path d="M75.845 140.175c.443 7.63 6.284 10.666 13.05 6.78 6.766-3.887 11.87-13.228 11.443-20.866-.427-7.639-6.283-10.665-13.057-6.771-6.775 3.894-11.87 13.203-11.436 20.857z" fill="#90caf9"/><path d="M95.986 118.27l-7.914 14.866-.791-13.818c3.284-1.877 6.33-2.145 8.705-1.049z" fill="#000" opacity=".1"/><path d="M98.447 135.62l-10.375-2.484 7.914-14.867c2.492 1.159 4.17 3.878 4.4 7.828a21.48 21.48 0 0 1-1.94 9.522z" fill="#000" opacity=".2"/><path d="M106.44 116.921l.07 1.214a.67.67 0 0 0 .349.66.674.674 0 0 0 .744-.069l41.562-23.892c.6-.392.96-1.06.958-1.774l-.063-1.214a.67.67 0 0 0-.349-.667.675.675 0 0 0-.751.076l-41.555 23.924a2.11 2.11 0 0 0-.965 1.742z" fill="#37474f"/><path d="M109.732 123.85l.118 2.002c0 .477-.24.922-.64 1.183l-1.449.757a.445.445 0 0 1-.728-.395l-.11-2.002c-.001-.477.24-.921.64-1.182l1.44-.789a.445.445 0 0 1 .729.426z" fill="#90caf9"/><path d="M149.664 103.733l-35.477 20.377a.675.675 0 0 1-.744.068.67.67 0 0 1-.348-.659l-.063-1.214a2.103 2.103 0 0 1 .957-1.773l35.446-20.377a.674.674 0 0 1 1.092.591l.071 1.222a2.08 2.08 0 0 1-.934 1.765z" fill="#455a64"/><path d="M110.135 132.79l.111 2.001c0 .477-.24.922-.641 1.183l-1.44.827a.445.445 0 0 1-.728-.394l-.111-2.002c0-.477.24-.921.64-1.182l1.441-.789a.445.445 0 0 1 .728.355z" fill="#90caf9"/><path d="M110.135 132.79l.111 2.001c0 .477-.24.922-.641 1.183l-1.44.827a.445.445 0 0 1-.728-.394l-.111-2.002c0-.477.24-.921.64-1.182l1.441-.789a.445.445 0 0 1 .728.355z" fill="#000" opacity=".1"/><path d="M150.068 112.712l-35.462 20.385a.675.675 0 0 1-.744.067.67.67 0 0 1-.348-.659l-.063-1.214a2.11 2.11 0 0 1 .958-1.773l35.46-20.385a.675.675 0 0 1 .745-.068c.24.13.376.39.348.66l.071 1.221c0 .714-.364 1.378-.965 1.766z" fill="#455a64"/><path d="M110.53 141.846l.12 1.995c0 .476-.24.921-.641 1.182l-1.456.836a.453.453 0 0 1-.729-.394l-.11-1.995a1.386 1.386 0 0 1 .64-1.182l1.449-.836a.445.445 0 0 1 .728.394z" fill="#90caf9"/><path d="M110.53 141.846l.12 1.995c0 .476-.24.921-.641 1.182l-1.456.836a.453.453 0 0 1-.729-.394l-.11-1.995a1.386 1.386 0 0 1 .64-1.182l1.449-.836a.445.445 0 0 1 .728.394z" fill="#000" opacity=".2"/><path d="M150.455 121.77l-35.477 20.376a.675.675 0 0 1-.744.068.67.67 0 0 1-.348-.66l-.063-1.205a2.103 2.103 0 0 1 .958-1.774l35.453-20.385a.674.674 0 0 1 1.092.592l.071 1.214a2.11 2.11 0 0 1-.942 1.773z" fill="#455a64"/><path d="M81.053 157.257l17.188-9.908a.675.675 0 0 1 .751-.076.67.67 0 0 1 .349.667l.166 2.861a2.103 2.103 0 0 1-.957 1.774l-17.197 9.9a.674.674 0 0 1-1.1-.591l-.166-2.861a2.11 2.11 0 0 1 .966-1.766z" fill="#37474f"/><path d="M77.468 180.425l25.26-14.528a.674.674 0 0 1 1.092.591l.072 1.214a2.08 2.08 0 0 1-.958 1.773l-25.26 14.528a.671.671 0 1 1-1.093-.591l-.07-1.23a2.08 2.08 0 0 1 .957-1.757zm.554 9.546l25.26-14.536a.663.663 0 1 1 1.092.583l.071 1.222a2.095 2.095 0 0 1-.957 1.774l-25.26 14.52a.675.675 0 0 1-.74.069.67.67 0 0 1-.353-.653l-.071-1.206a2.095 2.095 0 0 1 .958-1.773zm.554 9.553l25.26-14.551c.211-.17.505-.197.744-.068s.377.39.348.66l.071 1.213a2.08 2.08 0 0 1-.957 1.774l-25.26 14.52a.675.675 0 0 1-.745.068.67.67 0 0 1-.348-.66l-.071-1.19c0-.711.36-1.375.958-1.766zm.561 9.539l25.253-14.56a.675.675 0 0 1 .747-.077.67.67 0 0 1 .353.66l.071 1.222a2.126 2.126 0 0 1-.965 1.774l-25.23 14.52a.675.675 0 0 1-.75.076.67.67 0 0 1-.35-.667l-.063-1.175a2.103 2.103 0 0 1 .934-1.773z" fill="#455a64"/><path d="M112.43 165.897l3.633-2.09a.675.675 0 0 1 .744-.067c.239.13.376.39.348.659l1.123 19.045a2.095 2.095 0 0 1-.957 1.773l-3.633 2.081a.675.675 0 0 1-.747.077.67.67 0 0 1-.353-.66l-1.115-19.045a2.095 2.095 0 0 1 .957-1.773z" fill="#90caf9"/><path d="M113.894 190.853l3.633-2.089c.57-.323 1.052-.189 1.084.308a1.884 1.884 0 0 1-.982 1.482l-3.632 2.089c-.562.33-1.052.197-1.076-.3a1.876 1.876 0 0 1 .973-1.49z" fill="#37474f"/><path d="M125.361 167.812l3.633-2.089a.675.675 0 0 1 .75-.076.67.67 0 0 1 .35.667l.585 9.98a2.103 2.103 0 0 1-.957 1.774l-3.664 2.089a.675.675 0 0 1-.752.076.67.67 0 0 1-.348-.668l-.554-9.995a2.1 2.1 0 0 1 .957-1.758z" fill="#90caf9"/><path d="M125.361 167.812l3.633-2.089a.675.675 0 0 1 .75-.076.67.67 0 0 1 .35.667l.585 9.98a2.103 2.103 0 0 1-.957 1.774l-3.664 2.089a.675.675 0 0 1-.752.076.67.67 0 0 1-.348-.668l-.554-9.995a2.1 2.1 0 0 1 .957-1.758z" fill="#000" opacity=".1"/><path d="M126.295 183.759l3.632-2.089c.57-.323 1.053-.19 1.077.307a1.868 1.868 0 0 1-.974 1.482l-3.632 2.09c-.57.323-1.053.189-1.076-.308.053-.626.42-1.182.973-1.482z" fill="#37474f"/><path d="M136.963 146.135l3.632-2.09a.675.675 0 0 1 .744-.067c.24.13.377.39.348.659l1.393 24.515a2.11 2.11 0 0 1-.958 1.774l-3.632 2.089a.675.675 0 0 1-.751.076.67.67 0 0 1-.35-.667l-1.384-24.516a2.095 2.095 0 0 1 .958-1.773z" fill="#90caf9"/><path d="M136.963 146.135l3.632-2.09a.675.675 0 0 1 .744-.067c.24.13.377.39.348.659l1.393 24.515a2.11 2.11 0 0 1-.958 1.774l-3.632 2.089a.675.675 0 0 1-.751.076.67.67 0 0 1-.35-.667l-1.384-24.516a2.095 2.095 0 0 1 .958-1.773z" fill="#000" opacity=".2"/><path d="M138.72 176.594l3.632-2.09c.562-.33 1.052-.196 1.076.3a1.876 1.876 0 0 1-.973 1.49l-3.633 2.089c-.57.323-1.052.19-1.084-.307a1.884 1.884 0 0 1 .981-1.482z" fill="#37474f"/><path d="M149.996 149.816l3.633-2.089a.671.671 0 1 1 1.092.592l.791 13.691a2.087 2.087 0 0 1-.965 1.766l-3.633 2.09a.675.675 0 0 1-.74.068.67.67 0 0 1-.352-.652l-.791-13.692c0-.716.363-1.384.965-1.774z" fill="#90caf9"/><path d="M149.996 149.816l3.633-2.089a.671.671 0 1 1 1.092.592l.791 13.691a2.087 2.087 0 0 1-.965 1.766l-3.633 2.09a.675.675 0 0 1-.74.068.67.67 0 0 1-.352-.652l-.791-13.692c0-.716.363-1.384.965-1.774z" fill="#000" opacity=".3"/><path d="M151.096 169.444l3.633-2.089c.562-.323 1.044-.19 1.076.307a1.884 1.884 0 0 1-.973 1.482l-3.633 2.09c-.57.33-1.052.188-1.084-.3.06-.628.427-1.186.981-1.49z" fill="#37474f"/><path d="M239.736 185.629l6.14-3.621c.418 1.096.788 2.059 1.15 2.848.362.789 1.92 1.759 2.676 2.106 2.008.923 2.913 2.02 4.503 3.305 1.244 1.01 2.22 1.176 2.118 1.578a1.81 1.81 0 0 1-2.204 1.12c-.982-.25-1.93-.616-2.826-1.088a17.06 17.06 0 0 0 3.306 4.3c3.023 2.863 3.393 4.82-1.866 5.521-3.29.458-6.187-1.238-9.62-8.204a60.157 60.157 0 0 1-3.377-7.865z" fill="#b16668"/><path d="M230.95 124.514a42.203 42.203 0 0 1-2.519 5.711c-1 1.712-.157 29.023.347 31.311s10.478 24.653 10.478 24.653a8.35 8.35 0 0 0 7.81-2.438l-7.385-23.406-.496-19.912s.291-14.397-8.235-15.92z" fill="#90caf9"/><path d="M230.95 124.514a42.203 42.203 0 0 1-2.519 5.711c-1 1.712-.157 29.023.347 31.311s10.478 24.653 10.478 24.653a8.35 8.35 0 0 0 7.81-2.438l-7.385-23.406-.496-19.912s.291-14.397-8.235-15.92z" fill="#000" opacity=".1"/><path d="M207.074 282.102h-7.377v-12.654h7.377zm22.782-9.577l7.369.252.37-13.387-7.739-.253z" fill="#b16668"/><path d="M200.736 179.144c0 7.1-.488 48.122-.488 48.122-.173 2.028-2.117 5.64-2.275 12.954-.22 10.603 1.41 35.587 1.41 35.587a9.68 9.68 0 0 0 8.21.165s5.794-35.342 7.085-45.834c1.15-9.167 5.133-33.623 5.133-33.623l5.7 30.94a42.268 42.268 0 0 0-.914 11.74c.347 4.859 4.834 29.188 4.834 29.188a10.066 10.066 0 0 0 8.518.655s.44-38.182.52-42.6c.102-5.08-2.11-48.77-2.11-48.77z" fill="#37474f"/><path d="M207.074 278.489v-1.05c.393 0 .637.38.787 1.334.11.678.212 1.191.433 2.09a25.36 25.36 0 0 0 1.29 3.78c1.04 2.579 1.914 3.533 4.307 6.547a27.941 27.941 0 0 1 2.29 2.643c.442.789.6 3.005-.157 3.51-2.786 1.862-7.014 1.91-10.005 1.034a6.039 6.039 0 0 1-4.338-4.891c-.11-.679-.07-1.373-.15-2.06a9.761 9.761 0 0 0-1.85-4.29 12.872 12.872 0 0 1-1.409-2.368c-.622-1.522-.126-3.234.268-4.733.346-1.31.716-2.745 1.157-2.627v.789a5.841 5.841 0 0 0 3.692 1.246c1.079.048 3.692-.165 3.685-.954zm30.245-7.992c.386 0 .7.553 1.575 1.468a16.132 16.132 0 0 0 4.337 3.155c2.763 1.38 8.132 3.51 10.557 4.607 1.52.687 1.449 2.525-.118 3.574s-5.361 1.799-9.903.789c-2.48-.56-5.708-2.856-7.747-2.73-2.039.127-5.865.095-7.368-.946-1.504-1.042-.906-3.266-.48-5.175.464-2.083 1.047-5.333 1.731-5.191v.718c.89 1.349 5.464 1.893 7.416.899zm-17.476-74.013a27.327 27.327 0 0 0 10.234-5.901s-1.984 3.716-7.873 7.179l2.85 27.548z" fill="#263238"/><path d="M213.521 125.01c-2.503.608-7.565 1.436-8.699 6.446-1.362 6.011-1.81 19.115-1.81 19.115l-.465 29.188c5.078 3.7 23.735 5.72 34.418-2.098 0 0-1.307-35.003-1.307-40.446 0-5.444-3.023-12-11.36-12.48z" fill="#f5f5f5"/><path d="M224.18 124.127s3.747 2.982 4.763 7.392 1.18 53.644 1.18 53.644 5.212-.962 7.653-2.887c0 0-.315-38.853-.787-45.274-.788-9.743-.67-12.552-12.777-13.577zm-12.84-.718s6.952 4.284 7.023 21.3c.07 14.737.558 40.407.558 40.407s-11.501 1.696-18.79-2.666c0 0-.867-35.745-.733-41.275.158-6.311 1.638-14.531 3.669-15.344a57.699 57.699 0 0 1 8.273-2.422z" fill="#90caf9"/><path d="M195.383 135.187c-3.259 5.522-10.313 16.725-10.313 16.725-.621-.49-15.453-9.798-18.799-13.956a24.17 24.17 0 0 0-2.519-4.457 149.169 149.169 0 0 0-3.936-4.915 1.497 1.497 0 0 0-.346-.323c-.504-.3-1.173.142-1.339.702a2.94 2.94 0 0 0 .197 1.712c.236.726.976 1.735-.055 1.909a4.935 4.935 0 0 1-2.559-.576 54.191 54.191 0 0 1-3.857-1.862 5.802 5.802 0 0 0-2.582-.923 3.307 3.307 0 0 0-3.007 2.288 4.955 4.955 0 0 0 .472 3.897 9.893 9.893 0 0 0 2.708 2.958c2.307 1.791 5.361 2.612 8.156 3.353a12.529 12.529 0 0 1 3.936 1.846c2.228 1.578 13.832 11.47 19.39 15.541 5.03 3.692 6.447 2.249 9.383-.733 2.937-2.982 14.005-17 14.005-17z" fill="#b16668"/><path d="M205.106 125.105c-7.542 2.21-7.038 4.883-12.06 12.922s-8.385 11.676-8.385 11.676l-16.028-10.122a15.11 15.11 0 0 0-5.14 6.595s16.114 12.528 18.358 13.932c3.196 2.004 4.841 2.777 7.463.552 2.621-2.224 13.233-13.916 13.233-13.916 4.857-4.899 5.865-18.018 2.559-21.639z" fill="#90caf9"/><path d="M205.106 125.105c-7.542 2.21-7.038 4.883-12.06 12.922s-8.385 11.676-8.385 11.676l-16.028-10.122a15.11 15.11 0 0 0-5.14 6.595s16.114 12.528 18.358 13.932c3.196 2.004 4.841 2.777 7.463.552 2.621-2.224 13.233-13.916 13.233-13.916 4.857-4.899 5.865-18.018 2.559-21.639zm5.44 7.62l3.18 3.953-1.59 4.489 4.18 10.745-5.039-10.745 1.764-4.236zm22.443-1.27l-.685 4.087 2.756 3.59-3.834 12.101 2.968-11.967-2.543-3.36z" opacity=".1" fill="#000"/><g fill="#263238" transform="translate(146 86)"><circle cx="79.456" cy="14.719" r="10.142" transform="rotate(-45 79.456 14.72)"/><path d="M61.94 21.947s1.637 7.731 2.298 9.001a3.481 3.481 0 0 0 2.016 1.633l-.126-5.443z"/><path d="M63.994 10.87a3.774 3.774 0 0 0-3.149 1.105c-1.354 1.389-.598 5.72 1.087 9.972l3.086.355z"/></g><path d="M211.954 108.302c-.621.37-1.503-.789-2.267-1.625-.763-.836-3.259-1.894-4.51.733s1.102 6.225 3.07 6.84c3.385 1.065 3.936-1.112 3.936-1.112l.244 12.622c2.362 3.006 7.612 6.548 10.439 6.043 2.267-.402 2.755-4.236.598-6.745v-3.724c1.51.242 3.04.321 4.566.237 2.487-.387 4.054-2.367 4.81-5.057 1.212-4.347 1.677-7.889.645-16.385-1.125-9.356-11.99-9.467-17.854-5.759-5.865 3.708-3.677 13.932-3.677 13.932z" fill="#b16668"/><path d="M211.954 109.351c-.307 0-1.495-1.972-2.267-2.674-1.07-.978.307-9.806.307-9.806a4.298 4.298 0 0 1 .74-4.733c1.465-1.578 3.511-3.59 10.163-2.801 4.724.56 9.896 2.043 14.068 0a7.109 7.109 0 0 1-2.472 7.55s-1.511.978-5.51 1.46c-4 .48-10.148-.096-11.022-.206-1.149-.158-1.393.955-2.015 4.008-.488 2.634-.945 7.178-1.992 7.202z" fill="#263238"/><path d="M210.002 97.557l-3.747-2.02a2.064 2.064 0 0 1 2.834-.938 2.235 2.235 0 0 1 .913 2.958z" fill="#263238"/><path d="M223.417 121.334s-5.566-1.12-7.51-2.161a6.438 6.438 0 0 1-2.685-2.659 8.749 8.749 0 0 0 1.527 3.156c1.417 1.822 8.66 3.155 8.66 3.155z" fill="#9a4a4d"/><path d="M222.078 106.906a1.119 1.119 0 0 1-2.233-.083c.01-.61.506-1.1 1.115-1.1a1.133 1.133 0 0 1 1.118 1.183zm-1.18-4.213l-2.362 1.317a1.43 1.43 0 0 1 .55-1.9 1.336 1.336 0 0 1 1.811.583z" fill="#263238"/><path d="M222.913 114.62l2.543.963a1.348 1.348 0 0 1-1.732.844 1.429 1.429 0 0 1-.811-1.806z" fill="#9a4a4d"/><path d="M232.013 103.624l-2.173-1.68a1.322 1.322 0 0 1 1.89-.292c.604.476.73 1.344.283 1.972zm-.669 2.966a1.119 1.119 0 0 1-2.235-.057 1.119 1.119 0 0 1 1.125-1.103 1.133 1.133 0 0 1 1.11 1.16z" fill="#263238"/><path d="M225.668 105.533l.362 6.713 3.503-1.19z" fill="#9a4a4d"/><path d="M226.88 131.03c-.684 1.625-1.944 2.288-4.235 2.548a8.444 8.444 0 0 1-6.298-2.209l2.842-2.832 3.606 2.722.307-3.038z" fill="#90caf9"/><path d="M226.88 131.03c-.684 1.625-1.944 2.288-4.235 2.548a8.444 8.444 0 0 1-6.298-2.209l2.842-2.832 3.606 2.722.307-3.038z" fill="#000" opacity=".1"/><path d="M225.086 130.178c.333.98.461 2.02.377 3.053a5.236 5.236 0 0 1-1.015 2.54 2.782 2.782 0 0 1-2.456.268 6.743 6.743 0 0 1-2.362-5.096l3.149.355z" fill="#90caf9"/><path d="M224.448 135.7s3.7 20.511 3.85 22.089-2.126 7.526-3.535 7.573c-1.41.048-4.18-5.262-4.228-6.76-.047-1.5 1.457-22.665 1.457-22.665z" fill="#90caf9"/><path d="M221.992 136a2.468 2.468 0 0 0 2.456-.268l.055.323a2.814 2.814 0 0 1-2.55.513z" fill="#000" opacity=".1"/><path d="M222.771 131.259l-10.43-7.96-.048-2.367s-2.425.915-2.968 5.207a18.476 18.476 0 0 0 8.132 8.677l2.189-3.944zm.646-9.238a5.21 5.21 0 0 1 3.361 2.074c1.04 1.72.787 8.315.787 8.315l-2.48-2.232-2.314 1.12c.22-2.201.653-6.2.653-6.2z" fill="#e0e0e0"/><g><path d="M288.435 307.558c.417.559.496 1.835.913 3.56.417 1.725.567 3.065.283 3.939a6.566 6.566 0 0 1-4.408 3.45 8.702 8.702 0 0 1-6.164-1.331c-2.708-1.623-3.771-2.86-9.95-3.309a14.551 14.551 0 0 1-8.66-3.584c-2.362-2.119-1.811-5.876 2.314-5.853 4.952 0 11.895.898 18.61 0zm23.947-7.775c.418.559.496 1.835.914 3.56.417 1.725.566 3.065.283 3.939a6.566 6.566 0 0 1-4.409 3.45 8.702 8.702 0 0 1-6.164-1.331c-2.708-1.623-3.77-2.86-9.95-3.309a14.551 14.551 0 0 1-8.66-3.584c-2.362-2.119-1.81-5.876 2.315-5.853 4.951 0 11.895.898 18.61 0z" fill="#263238"/><path d="M312.398 294.576v6.065s-.834 2.017-4.29 2.143a5.226 5.226 0 0 1-4.59-2.19v-6.018z" fill="#ffa8a7"/><path d="M300.818 254.89c-.047 7.546 2.118 42.348 2.118 42.348s3.085 3.9 9.785 0l2.275-38.599z" fill="#37474f"/><path d="M289.647 302.5l-1.212 6.066s-.835 2.017-4.29 2.143a5.187 5.187 0 0 1-4.582-2.198l.488-6.972z" fill="#ffa8a7"/><path d="M282.759 265.288c-.638 3.482-3.236 38.378-3.236 38.378s3.425 4.774 10.124.867l7.14-34.054z" fill="#37474f"/><path d="M301.093 278.68v48.217c-.023.448-.26.858-.637 1.102l-1.724 1a1.448 1.448 0 0 1-1.276 0l-1.724-.992a1.45 1.45 0 0 1-.637-1.11v-48.218c0-1.197.968-2.17 2.165-2.174h1.669a2.173 2.173 0 0 1 2.164 2.174z" fill="#455a64"/><path d="M296.598 276.49a1.504 1.504 0 0 1 1.496 1.504v50.62c0 .402-.283.567-.638.37l-1.747-1.008a1.37 1.37 0 0 1-.614-1.072v-48.91a1.505 1.505 0 0 1 1.503-1.505z" fill="#263238"/><path d="M359.05 278.68v48.217c.026.45.266.86.645 1.102l1.716 1c.406.197.878.197 1.283 0l1.717-.992c.376-.248.612-.66.637-1.11v-48.218c0-1.197-.968-2.17-2.165-2.174h-1.669a2.173 2.173 0 0 0-2.164 2.174z" fill="#455a64"/><path d="M363.553 276.49a1.51 1.51 0 0 0-1.504 1.504v50.62c0 .402.291.567.638.37l1.747-1.008c.363-.24.591-.637.614-1.072v-48.91c0-.828-.668-1.5-1.495-1.505z" fill="#263238"/><path d="M333.07 295.702v49.628a1.41 1.41 0 0 1-.637 1.11l-1.724.993a1.4 1.4 0 0 1-1.275 0l-1.724-.993a1.434 1.434 0 0 1-.638-1.11v-49.628a.74.74 0 0 1 .74-.732h4.519a.74.74 0 0 1 .74.732z" fill="#455a64"/><path d="M327.812 294.97h1.52a.74.74 0 0 1 .74.732v51.384c0 .41-.284.575-.638.37l-1.724-.992a1.434 1.434 0 0 1-.638-1.11v-49.628a.74.74 0 0 1 .74-.756z" fill="#263238"/><path d="M291.277 279.821v.67a4.318 4.318 0 0 0 1.574 3.151l35.583 20.426a3.312 3.312 0 0 0 3.306.165l35.898-20.693a3.782 3.782 0 0 0 1.7-2.954v-.678a3.364 3.364 0 0 0-1.786-2.796l-35.875-20.726a4.264 4.264 0 0 0-3.495.158l-35.181 20.323a3.782 3.782 0 0 0-1.724 2.954z" fill="#90caf9"/><path d="M293 276.867l35.182-20.323a4.264 4.264 0 0 1 3.495-.158l35.875 20.718c.984.457 1.023 1.268.086 1.812l-35.858 20.662a3.312 3.312 0 0 1-3.307-.173l-35.583-20.403a1.182 1.182 0 0 1 .11-2.135z" fill="#fff" opacity=".4"/><path d="M298.023 201.308l-23.601 12.32 11.73 32.085 22.019-12.344z" fill="#90caf9"/><path d="M296.937 204.443l-19.8 10.343 10.384 27.579 18.477-10.351z" fill="#f5f5f5"/><path d="M292.764 207.42l-.385-.976c-.213-.544-1.858-.22-3.685.717l-3.48 1.804c-1.825.937-3.148 2.142-2.92 2.686l.386.977z" fill="#000" opacity=".15"/><path d="M292.379 203.498c-.134-.339-.85-.284-1.575.126l-1.37.732s-.842-2.119-3.975-.653c-3.133 1.465-2.425 3.938-2.425 3.938l-1.448.788c-.787.441-1.37 1.08-1.276 1.418l.174.63 12.162-6.35z" fill="#37474f"/><path d="M291.064 204.924c-1.126.551-1.574.787-1.244 1.654.37.96.717 1.646.717 1.646l-5.377 2.812s-.449-1.213-.646-1.685c-.197-.473-.59-.686-1.448-.245l-.315-.33 8.478-4.333z" fill="#263238"/><path d="M292.993 207.476l-.386-.985c-.213-.543-1.858-.22-3.676.725l-3.488 1.796c-1.818.945-3.149 2.143-2.913 2.686l.386.985z" fill="#37474f"/><path d="M358.593 264.13s-31.261-9.453-36.693-10.926c-5.432-1.473-15.863-3.994-18.894-2.631s-4.59 2.954-4.873 7.35c-.055.827 0 4.852 0 4.852s15.107 4.679 27.49 4.679c12.384 0 32.97-3.324 32.97-3.324z" fill="#263238"/><path d="M332.205 210.958l-.228 11.398 10.982 3.632 1.503-15.495z" fill="#ffa8a7"/><path d="M323.553 200.016s-2.417 4.23-2.023 4.6c.394.37 2.433.654 2.433.654z" fill="#f28f8f"/><path d="M329.402 186.097c-2.361 1.638-4.904 4.67-5.88 13.494-1.063 9.673 1.251 12.785 2.361 13.588 1.575 1.197 7.975 1 10.234-.047 2.85-1.316 8.432-4.884 10.793-10.24 2.787-6.303 2.504-14.125-1.983-16.622-6.338-3.505-13.501-1.568-15.525-.173z" fill="#ffa8a7"/><path d="M325.38 189.602a16.534 16.534 0 0 0 4.503 3.647c1.094 1.733-.662 6.507 1.74 7.665 0 0 1.101-3.616 4.156-3.017 3.054.599 3.322 4.56 1.267 6.877-2.054 2.316-3.833 1.315-3.833 1.315a7.092 7.092 0 0 0 2.763 6.35 8.93 8.93 0 0 0 8.21.953c2.079-.788 5.558-3.695 7.503-7.555 4.101-8.169 5.054-14.872-.165-17.33-.41-3.868-2.024-5.412-5.44-6.357-7.337-2.032-13.28 2.49-19.468 1.213-3.228-.693-3.063 4.026-1.236 6.24z" fill="#263238"/><path d="M346.115 185.68l3.803-1.631a2.07 2.07 0 1 0-3.803 1.63z" fill="#263238"/><path d="M357.546 260.467c0 6.01.787 12.493-1.74 16.897-2.417 4.261-13.076 13.14-25.853 10.989-8.344-1.41-35.315-11.69-35.315-11.69s-11.934-4.42-11.99-7.563c0-.787-.078-1.575 0-2.363.252-4.183 1.945-8.665 10.675-8.452 9.542.252 37.85 4.892 37.85 4.892z" fill="#37474f"/><path d="M356.562 222.545c-1.031-3.15-5.282-7.57-9.266-6.83-7.313 1.363-15.312 3.734-17.437 4.357s.952 16.133-7.321 21.016l-.292 28.359s.599 2.024 3.755 4.033c3.417 2.174 10.03 3.151 18.343.875 11.17-3.033 13.202-9.453 13.202-9.453s-.087-19.016 0-27.713c.079-7.87-.276-12.485-.984-14.644z" fill="#f0f0f0"/><path d="M322.498 244.877s4.149-4.3 5.676-9.507c0 0 .229 7.759-5.7 11.87z" fill="#e0e0e0"/><path d="M329.851 220.072c-4.519 1.355-7.266 1.575-12.257 9.28-4.991 7.703-16.28 22.056-17.359 23.907-1.503 2.544-1.787 6.412-.488 8.752 1.213 2.19 4.125.898 9.077-3.443 4.786-4.206 14.887-15.754 14.887-15.754a81.635 81.635 0 0 0 6.14-22.742z" fill="#ffa8a7"/><path d="M329.851 220.072a34.41 34.41 0 0 0-6.526 2.071 11.808 11.808 0 0 0-5.566 3.845c-4.054 5.42-9.281 14.58-9.281 14.58s.929 7.09 9.659 9.611l4.29-5.23a25.933 25.933 0 0 0 4.63-6.901c2.007-4.325 4.219-11.186 2.794-17.976z" fill="#f0f0f0"/><path d="M301.274 263.09c-4.18-.504-13.194-13.147-15.965-17.472a30.84 30.84 0 0 0-8.455-8.917c-4.416-3.27-3.778-8.295-1.85-12.895.67-1.576 2.937-.56 2.937-.56l.787 2.19 1.386 3.781c.936.867 1.464 1.15 1.527.89.118-.488-.685-2.52-.661-4.64 0-2.552 1.802-.874 2.361 0 .73 1.354 1.36 2.76 1.882 4.207.89 2.285.527 4.593 1.574 6.152s15.635 15.503 15.635 15.503z" fill="#ffa8a7"/><path d="M339.298 264.177v31.785a.717.717 0 0 0 .315.56l.866.496a.7.7 0 0 0 .637 0l.858-.497a.709.709 0 0 0 .323-.559v-31.785c0-.6-.486-1.087-1.086-1.087h-.835a1.078 1.078 0 0 0-1.078 1.087z" fill="#263238"/><path d="M341.565 263.09a.787.787 0 0 0-.787.788v32.92c0 .204.15.29.323.188l.873-.504a.701.701 0 0 0 .307-.536v-32.14a.787.787 0 0 0-.716-.716z" fill="#455a64"/><path d="M355.302 255.126v31.785a.717.717 0 0 0 .315.56l.866.496a.7.7 0 0 0 .638 0l.858-.497a.725.725 0 0 0 .323-.559v-31.785c0-.6-.487-1.087-1.087-1.087h-.834a1.078 1.078 0 0 0-1.079 1.087z" fill="#263238"/><path d="M357.546 254.039a.787.787 0 0 0-.748.748v32.99c0 .205.15.292.323.19l.874-.504a.701.701 0 0 0 .307-.536v-32.14a.787.787 0 0 0-.756-.748z" fill="#455a64"/><path d="M364.796 228.634a4.115 4.115 0 0 0-3.385-.102L333 241.656a3.15 3.15 0 0 0-1.252 1.134l-.134.22a5.952 5.952 0 0 0-.18.387 2.811 2.811 0 0 0-.221 1.055V265.5a3.671 3.671 0 0 0 1.574 2.9 4.162 4.162 0 0 0 3.204.165.858.858 0 0 0 .182-.071l1.409-.654 26.994-12.478a3.34 3.34 0 0 0 1.787-2.788v-21.049a3.664 3.664 0 0 0-1.567-2.89z" fill="#90caf9"/><path d="M366.394 231.525a1.166 1.166 0 0 0-1.787-1.142l-28.403 13.124a3.205 3.205 0 0 0-1.252 1.142l-3.196-1.851a3.15 3.15 0 0 1 1.244-1.142l28.403-13.132a4.115 4.115 0 0 1 3.386.103 3.664 3.664 0 0 1 1.605 2.898z" fill="#fff" opacity=".4"/><path d="M336.023 268.573a4.162 4.162 0 0 1-3.204-.166 3.671 3.671 0 0 1-1.575-2.899V244.46c.005-.363.08-.721.22-1.056.056-.133.119-.26.182-.386l.134-.22 3.196 1.851a3.152 3.152 0 0 0-.535 1.654v21.056a1.143 1.143 0 0 0 1.582 1.214z" fill="#000" opacity=".1"/></g></g></g></g></svg>