<svg height="413" width="544" xmlns="http://www.w3.org/2000/svg" xmlns:xlink="http://www.w3.org/1999/xlink"><defs><rect id="c" height="398.769" rx="12" width="531.692"/><filter id="b" height="107%" width="104.9%" x="-1.3%" y="-1.8%"><feOffset dx="12" dy="14" in="SourceAlpha" result="shadowOffsetOuter1"/><feColorMatrix in="shadowOffsetOuter1" values="0 0 0 0 0 0 0 0 0 0 0 0 0 0 0 0 0 0 0.12 0"/></filter><path id="a" d="M0 0h438v365H0z"/><mask id="d" fill="#fff"><use fill-rule="evenodd" xlink:href="#a"/></mask></defs><g fill="none" fill-rule="evenodd"><use fill="#000" filter="url(#b)" xlink:href="#c"/><use fill="#eee" xlink:href="#c"/><circle cx="30.115" cy="199.385" fill="#eee" r="14.615" stroke="#ccc" stroke-width="4"/><circle cx="513.519" cy="199.385" fill="#9c9c9c" r="6.808" stroke="#ccc" stroke-width="3"/><path d="M59.712 17.654h436.153v363.461H59.712z" fill="#000"/><g transform="translate(59 17)"><use fill="#2ac991" xlink:href="#a"/><ellipse cx="219.5" cy="340.5" fill="#000" fill-opacity=".1" mask="url(#d)" rx="337.5" ry="195.5"/><g mask="url(#d)"><path d="M352.857 329.193c-13.171 7.054-34.518 7.054-47.681 0-13.163-7.055-13.171-18.5 0-25.563 13.17-7.062 34.51-7.062 47.68 0 13.172 7.063 13.164 18.5 0 25.563z" fill="#000" fill-opacity=".1" fill-rule="nonzero"/><path d="M310.032 61.12l7.125 4.128c0-.32-.056-.64-.056-.944v-2.072c0-3.688 2.577-5.176 5.76-3.336 1.371.84 2.542 1.97 3.432 3.312.526-4.632 4.148-6.4 8.553-3.808 4.787 2.752 8.617 9.456 8.617 14.968v3.096a8.227 8.227 0 0 1-.726 3.584l5.912 3.432a7.06 7.06 0 0 1 3.191 5.544c0 2.048-1.428 2.872-3.191 1.856l-38.617-22.36a7.084 7.084 0 0 1-3.192-5.552c0-2.04 1.429-2.872 3.192-1.848zm-30.495 20.824l5.378 3.112c0-.24-.048-.48-.048-.72v-1.6c0-2.776 1.947-3.904 4.348-2.512a8.348 8.348 0 0 1 2.594 2.496c.39-3.496 3.127-4.8 6.454-2.872 3.59 2.08 6.503 7.136 6.503 11.296v2.336a6.174 6.174 0 0 1-.55 2.704l4.468 2.592a5.33 5.33 0 0 1 2.393 4.184c0 1.544-1.077 2.168-2.393 1.4l-29.147-16.872a5.356 5.356 0 0 1-2.394-4.192c-.015-1.496 1.062-2.128 2.394-1.352z" fill="#ebebeb" fill-rule="nonzero"/><g fill-rule="nonzero"><path d="M79.9 181.434l-2.99-1.721a1.76 1.76 0 0 1-.805-1.61v-58.616a5.573 5.573 0 0 1 2.522-4.368L211.36 38.853a1.791 1.791 0 0 1 1.748-.193l2.982 1.713-2.24 58.505a5.58 5.58 0 0 1-2.53 4.36z" fill="#fafafa"/><path d="M79.142 121.208v58.585c0 1.609 1.128 2.26 2.522 1.456l132.685-76.266a5.573 5.573 0 0 0 2.522-4.368V42.022c0-1.609-1.136-2.26-2.53-1.456L81.64 116.832a5.58 5.58 0 0 0-2.498 4.376z" fill="#ebebeb"/><path d="M76.902 179.704l2.893 1.666a1.84 1.84 0 0 1-.653-1.61V121.2a5.078 5.078 0 0 1 .661-2.34l-2.997-1.722a5.062 5.062 0 0 0-.661 2.349v58.585c-.06.634.23 1.25.757 1.608z" fill="#e0e0e0"/><path d="M89.882 166.198l-3.714-2.14a2.268 2.268 0 0 1-1.023-1.769v-30.857a2.252 2.252 0 0 1 1.023-1.77l36.378-20.97a2.292 2.292 0 0 1 2.047 0l3.714 2.14a2.284 2.284 0 0 1 1.023 1.777v30.857a2.268 2.268 0 0 1-1.023 1.77l-36.37 20.962a2.26 2.26 0 0 1-2.055 0z" fill="#37474f"/><path d="M91.76 166.279a2.26 2.26 0 0 1-1.87-.08l-3.722-2.14a2.268 2.268 0 0 1-1.023-1.77v-30.865c.012-.355.115-.701.298-1.006l5.769 3.323c-.19.304-.296.654-.306 1.013v30.857c0 .587.403.853.854.668z" fill="#263238"/><path d="M90.914 134.754v30.857c0 .652.451.917 1.023.587l36.37-20.962a2.268 2.268 0 0 0 1.023-1.77v-30.857c0-.652-.459-.917-1.023-.595l-36.37 20.97a2.236 2.236 0 0 0-1.023 1.77z" fill="#455a64"/><path d="M90.914 144.64l38.416-22.145v1.11L90.906 145.75z" fill="#263238"/><path d="M107.238 134.127l5.76-3.322v4.424l-5.76 3.322zm5.76-3.322l-.958-.556-5.761 3.323.959.555z" fill="#90caf9"/><path d="M112.998 130.805l-.958-.556-5.761 3.323.959.555z" fill="#fff" opacity=".4"/><path d="M106.279 133.572v4.424l.959.555v-4.424z" fill="#90caf9"/><path d="M106.279 133.572v4.424l.959.555v-4.424z" fill="#000" opacity=".1"/><path d="M99.615 125.278c-.652 0-1.184-.056-1.184-.708v-5.325a5.677 5.677 0 0 1 2.635-4.569l10.385-6.025a2.42 2.42 0 0 1 2.625-.132 2.412 2.412 0 0 1 1.195 2.336v5.39c0 .651-.524.708-1.177.708-.652 0-1.184-.057-1.184-.708v-5.39a.98.98 0 0 0 0-.265 1.266 1.266 0 0 0-.242.104l-10.418 6.001a3.393 3.393 0 0 0-1.458 2.526v5.35c0 .65-.524.707-1.177.707z" fill="#90caf9"/><path d="M134.487 92.49l30.617-17.632a.742.742 0 0 1 .7-.064l1.612.724-1.33 38.788a2.171 2.171 0 0 1-.99 1.714l-29.634 18.42s-1.467-.643-1.652-.74a.715.715 0 0 1-.298-.651V94.212a2.203 2.203 0 0 1 .975-1.721z" fill="#e0e0e0"/><path d="M136.13 93.23l30.618-17.632c.547-.314.99-.056.99.571v38.877a2.187 2.187 0 0 1-.99 1.714l-30.618 17.6c-.547.314-.999.056-.999-.571V94.944a2.195 2.195 0 0 1 1-1.713z" fill="#fff"/><path d="M159.794 133.314c-3.432-15.026-7.356-17.697-3.69-20.81 3.77-1.44 5.72.612 6.373 5.02.323 2.148 1.024 11.165 1.902 14.527.765 2.96 1.805 6.629 2.957 8.744.188.36.54.606.942.66 1.072.153 1.394.756 2.265 1.198.684.346 1.192.258 1.16.5a1.336 1.336 0 0 1-1.08 1.069 3.785 3.785 0 0 1-1.281-.088 7.022 7.022 0 0 0 1.87 1.713c1.675 1.086 1.95 2.148-.71 3.563-1.676.885-3.223.459-5.31-2.928a27.335 27.335 0 0 1-2.086-3.917 76.337 76.337 0 0 1-3.312-9.25z" fill="#b16668"/><path d="M150.037 114.314c-3.73 1.295-3.988 3.443-4.923 5.96a8.634 8.634 0 0 0-.177 5.591l2.602 7.98a52.545 52.545 0 0 0-2.634 7.296c6.526 2.454 14.672-1.93 16.638-5.518.08-.676-.427-5.63-.734-8.849 1.145-3.627 1.45-5.815.967-7.883-.902-3.837-4.39-6.87-5.938-6.314z" fill="#455a64"/><g fill="#263238"><path d="M154.477 109.182l-2.756.748c-3.827 1.046-6.953-1.69-6.97-6.105 0-5.285 3.69-10.594 8.283-11.841 4.593-1.255 8.331 2.019 8.356 7.312.016 4.416-3.078 8.84-6.913 9.886z"/><path d="M150.883 90.287c1.184 1.705-.072 3.418-1.82 5.252-1.75 1.834-3.328 3.097-4.513 1.4-1.184-1.697-.54-4.119 1.209-5.953 1.748-1.834 3.932-2.38 5.124-.7z"/><path d="M146.597 97.687l-1.757 1.97a1.454 1.454 0 0 1 .186-1.81 1.024 1.024 0 0 1 1.57-.16z"/></g><path d="M158.183 94.88c.878.354 1.974 2.606 1.885 7.963-.072 4.553-1.337 6.01-1.974 6.508-.636.499-1.877.635-3.07.732l.065 2.735s2.022 1.36 1.918 2.63c-.105 1.271-2.796 2.574-4.351 1.778a12.955 12.955 0 0 1-2.796-2.027.233.233 0 0 1-.065-.169v-6.853a1.274 1.274 0 0 1-1.901.104 2.563 2.563 0 0 1-.564-3.419c.765-1.11 2.183-1.255 2.74-.12a11.202 11.202 0 0 0 4.447-2.743 11.497 11.497 0 0 0 3.666-7.12z" fill="#b16668"/><path d="M155.677 102.908a.756.756 0 0 1-.467.74c-.274.088-.508-.097-.516-.419a.804.804 0 0 1 .46-.748c.273-.088.507.105.523.427z" fill="#263238"/><path d="M155.822 106.704l1.144.105a.805.805 0 0 1-.741.676c-.314-.024-.46-.378-.403-.78z" fill="#9a4a4d"/><path d="M159.714 100.06l-1-.53c.186-.379.557-.564.806-.42.302.22.386.632.194.95zm-.226 1.392a.804.804 0 0 1-.46.748c-.273.088-.507-.105-.523-.427a.756.756 0 0 1 .467-.74c.274-.088.508.097.516.419z" fill="#263238"/><path d="M157.272 101.452l-.016 3.716 1.555-.99zm-2.256 8.631c-1.265.153-3.867 0-4.278-1.07.148.516.473.963.919 1.263.805.555 3.376.716 3.376.716z" fill="#9a4a4d"/><path d="M151.737 140.16c-2.143 0-3.497-2.148-2.933-4.746 0-.105.04-.185.065-.258.419-1.279 1.321-1.367 1.321-1.367a3.273 3.273 0 0 1-1.442-2.51l-1.04-5.1c-.094-.9-.026-1.81.202-2.687l-2.619-2.799-.483.523a8.393 8.393 0 0 0 .105 4.65l2.602 7.98a48.64 48.64 0 0 0-2.634 7.295c4.834 1.81 10.474-.096 13.938-2.662a17.62 17.62 0 0 1-7.082 1.68z" fill="#37474f"/><path d="M138.225 139.058c2.9-14.48 4.73-20.674 7.912-22.87a10.586 10.586 0 0 1 2.152-1.07c.443.17.483 1.119.572 1.738a15.263 15.263 0 0 1-1.652 8.27s-4.238 11.422-4.915 15.283a64.984 64.984 0 0 0-1.216 10.32c-.015.452.153.89.467 1.215.806.756.806 1.537 1.273 2.47.395.732.806.933.7 1.15a.984.984 0 0 1-1.264.45 3.495 3.495 0 0 1-.967-.804c.124.951.382 1.88.765 2.76.87 2.018.653 3.217-1.99 3.137-1.66-.065-2.699-1.376-2.949-5.905a41.761 41.761 0 0 1 0-5.068c.315-4.464.572-8.365 1.112-11.076z" fill="#b16668"/><path d="M136.88 138.165l29.159-16.812c.966-.555 1.748-.161 1.748.885a3.74 3.74 0 0 1-1.748 2.895l-29.16 16.805c-.966.555-1.748.16-1.748-.877a3.732 3.732 0 0 1 1.749-2.896zm35.959-66.002l29.167-16.812c.958-.555 1.74-.16 1.74.877a3.74 3.74 0 0 1-1.74 2.896l-29.167 16.812c-.959.555-1.74.16-1.74-.885a3.74 3.74 0 0 1 1.74-2.888z" fill="#455a64"/><path d="M171.928 80.231l37.53-21.63c.484-.282.879-.08.879.434a1.866 1.866 0 0 1-.878 1.448l-37.49 21.63c-.484.282-.879.09-.895-.434a1.85 1.85 0 0 1 .854-1.448zm0 3.765l37.53-21.63c.484-.282.879-.08.879.442a1.874 1.874 0 0 1-.878 1.448l-37.49 21.63c-.484.274-.879.08-.895-.442a1.85 1.85 0 0 1 .854-1.448zm0 3.773l37.53-21.615c.484-.273.879-.08.879.443a1.874 1.874 0 0 1-.878 1.448l-37.49 21.63c-.484.282-.879.08-.895-.442a1.834 1.834 0 0 1 .854-1.464zm0 3.764l37.53-21.63c.484-.282.879-.08.879.434a1.866 1.866 0 0 1-.878 1.448l-37.49 21.63c-.484.282-.879.081-.895-.434a1.834 1.834 0 0 1 .854-1.448zm0 3.765l37.53-21.63c.484-.282.879-.081.879.442a1.858 1.858 0 0 1-.878 1.44l-37.49 21.638c-.484.274-.879.08-.895-.442a1.85 1.85 0 0 1 .854-1.448z" fill="#fff"/><path d="M172.839 102.216l3.021-1.738c.967-.563 1.749-.112 1.749 1.006v3.523a3.844 3.844 0 0 1-1.749 3.017l-3.053 1.761c-.967.555-1.74.105-1.74-1.005v-3.548a3.868 3.868 0 0 1 1.772-3.016z" fill="#90caf9"/><path d="M178.745 99.754c0 .523.386.716.87.443l8.057-4.658c.502-.316.827-.85.878-1.44 0-.522-.387-.716-.87-.442l-8.057 4.65a1.866 1.866 0 0 0-.878 1.447zm0 2.832c0 .523.386.716.87.442l8.057-4.657c.504-.315.83-.849.878-1.44 0-.523-.387-.716-.87-.443l-8.057 4.65a1.866 1.866 0 0 0-.878 1.448zm0 2.831c0 .523.386.724.87.443l8.057-4.65c.504-.318.83-.854.878-1.448 0-.514-.387-.715-.87-.434l-8.057 4.65a1.85 1.85 0 0 0-.878 1.44z" fill="#455a64"/><path d="M172.839 113.534l3.021-1.738c.967-.555 1.749-.104 1.749 1.006v3.523a3.844 3.844 0 0 1-1.749 3.017l-3.053 1.761c-.967.555-1.74.105-1.74-1.005v-3.548a3.868 3.868 0 0 1 1.772-3.016z" fill="#90caf9"/><path d="M178.745 111.072c0 .523.386.716.87.443l8.057-4.658c.504-.315.83-.848.878-1.44 0-.522-.387-.716-.87-.442l-8.057 4.65a1.866 1.866 0 0 0-.878 1.447zm0 2.832c0 .523.386.724.87.442l8.057-4.657c.505-.314.83-.848.878-1.44 0-.523-.387-.716-.87-.434l-8.057 4.649a1.85 1.85 0 0 0-.878 1.44zm0 2.84c0 .514.386.715.87.434l8.057-4.65c.504-.318.83-.854.878-1.448 0-.514-.387-.715-.87-.434l-8.057 4.65a1.858 1.858 0 0 0-.878 1.447z" fill="#455a64"/><path d="M194.61 89.908l3.02-1.745c.967-.555 1.741-.105 1.741 1.005V92.7a3.82 3.82 0 0 1-1.74 3.016l-3.054 1.77c-.967.555-1.74.105-1.74-1.006v-3.547a3.892 3.892 0 0 1 1.772-3.025z" fill="#90caf9"/><path d="M200.507 87.447c0 .515.395.716.878.434l8.057-4.65c.504-.318.83-.854.879-1.447 0-.515-.387-.716-.87-.434l-8.058 4.649c-.51.313-.84.851-.886 1.448zm0 2.84c0 .522.395.715.878.442l8.057-4.658a1.88 1.88 0 0 0 .895-1.415c0-.523-.387-.716-.87-.443l-8.058 4.65c-.51.305-.844.833-.902 1.424zm0 2.823c0 .523.395.724.878.442l8.057-4.657c.505-.314.83-.848.879-1.44 0-.523-.387-.716-.87-.442l-8.058 4.657c-.51.31-.84.845-.886 1.44z" fill="#455a64"/><path d="M194.61 101.226l3.02-1.737c.967-.563 1.741-.113 1.741 1.005v3.524a3.836 3.836 0 0 1-1.74 3.016l-3.054 1.754c-.967.555-1.74.104-1.74-1.006v-3.547a3.892 3.892 0 0 1 1.772-3.009z" fill="#90caf9"/><path d="M200.507 98.765c0 .523.395.716.878.442l8.057-4.657c.502-.317.827-.85.879-1.44 0-.523-.387-.716-.87-.442l-8.058 4.649c-.51.314-.839.852-.886 1.448zm0 2.831c0 .523.395.716.878.443l8.057-4.658a1.88 1.88 0 0 0 .879-1.44c0-.522-.387-.715-.87-.442l-8.058 4.65a1.87 1.87 0 0 0-.886 1.447zm0 2.832c0 .523.395.724.878.442l8.057-4.65c.504-.317.83-.854.879-1.447 0-.515-.387-.716-.87-.434l-8.058 4.65c-.51.31-.839.845-.886 1.439z" fill="#455a64"/><path d="M79.9 255.512l-2.99-1.722a1.76 1.76 0 0 1-.805-1.608v-58.626a5.565 5.565 0 0 1 2.57-4.327l132.685-76.306a1.807 1.807 0 0 1 1.748-.194l2.982 1.714-2.24 58.496a5.58 5.58 0 0 1-2.53 4.368z" fill="#fafafa"/><path d="M79.142 195.286v58.585c0 1.609 1.128 2.26 2.522 1.456l132.685-76.274a5.573 5.573 0 0 0 2.522-4.368V116.1c0-1.609-1.136-2.26-2.53-1.456L81.64 190.918a5.58 5.58 0 0 0-2.498 4.368z" fill="#ebebeb"/><path d="M76.902 253.782l2.893 1.657a1.833 1.833 0 0 1-.653-1.608v-58.553a5.054 5.054 0 0 1 .661-2.341l-2.997-1.721a5.03 5.03 0 0 0-.661 2.34v58.593a1.75 1.75 0 0 0 .757 1.61zm57.585-87.214l30.617-17.632a.726.726 0 0 1 .7-.073c.291.145 1.612.732 1.612.732l-1.345 38.83a2.187 2.187 0 0 1-.991 1.713l-29.634 18.396s-1.467-.643-1.652-.74a.691.691 0 0 1-.298-.643v-38.837a2.187 2.187 0 0 1 .99-1.746z" fill="#e0e0e0"/><path d="M136.13 167.309l30.618-17.633c.547-.314.99-.064.99.571v38.877a2.187 2.187 0 0 1-.99 1.713l-30.618 17.6c-.547.315-.999.057-.999-.57v-38.845a2.18 2.18 0 0 1 1-1.713z" fill="#fff"/><path d="M157.498 183.735s2.417-.749 4.407 2.413c1.362 2.14 6.124 10.28 6.124 10.28s9.25-4.899 9.773-5.534.491-1.947.564-2.647c.03-.88-.09-1.758-.355-2.598-.112-.732.951-.804 1.475.25.379.74.41 1.608.741 1.608a9.39 9.39 0 0 0 1.297-1.102c.572-.627 1.612-1.673 2.418-1.528a.668.668 0 0 1 .523.563c.026.43.127.852.298 1.247.124.152.227.32.307.498a4.57 4.57 0 0 1 0 .805c0 .386.41.547.459.925a6.626 6.626 0 0 1-.097.877c0 .185.065.354.065.539a1.833 1.833 0 0 1-.476 1.03 11.203 11.203 0 0 1-2.747 2.292c-.846.547-1.958 1.038-2.917 1.56-.959.523-11.86 8.849-13.31 7.884-1.45-.966-8.734-11.576-8.734-11.576-1.7-4.706.185-7.786.185-7.786z" fill="#ffa8a7"/><path d="M153.276 183.807a12.91 12.91 0 0 1 4.375-.965 4.738 4.738 0 0 1 4.246 2.622c1.684 2.703 4.472 7.368 4.472 7.368a13.402 13.402 0 0 1-5.414 5.776l-5.133-7.73z" fill="#455a64"/><path d="M144.872 188.48a5.687 5.687 0 0 0-1.877 2.752 13.405 13.405 0 0 0-.572 4.022v8.792l-.105 16.627c5.584 1.898 12.682.225 18.637-6.387 0 0-.33-21.269-.33-24.76v-.482c-.218-4.931-4.48-7.24-8.678-4.827l-3.53 1.995-3.536 2.293z" fill="#90caf9"/><path d="M148.692 170.397c0 3.749 2.634 6.082 5.89 5.213 3.254-.869 5.89-4.617 5.89-8.366 0-3.748-2.813-3.748-6.06-2.88-3.247.87-5.72 2.285-5.72 6.033zm-3.07 5.961a51.3 51.3 0 0 0 1.216 5.148c.212.401.612.668 1.064.708l-.056-3.29zm1.087-7.055a2.417 2.417 0 0 0-1.66 1.119c-.716 1.037-.314 3.563.573 5.904l1.611-.217z" fill="#263238"/><path d="M147.709 175.98c-.323.314-.806-.29-1.193-.668-.387-.378-1.724-.691-2.417 1.078-.693 1.77.58 3.628 1.611 3.725a1.724 1.724 0 0 0 2.063-1.223l.056 7.626c3.006 3.217 8.267-.571 5.898-1.979v-2.26a10.336 10.336 0 0 0 2.417-.507c1.314-.587 2.144-2.003 2.546-3.749.637-2.815.879-5.011.339-10.047-.596-5.526-6.333-4.022-9.435-.973-3.102 3.049-1.885 8.977-1.885 8.977z" fill="#ffa8a7"/><path d="M147.709 176.616c-.162.048-.806-.99-1.193-1.304-.572-.442.161-6.009.161-6.009-.652-1.431.548-3.595 1.813-4.48a7.315 7.315 0 0 1 2.981-1.094 28.76 28.76 0 0 1 2.707-.37 25.54 25.54 0 0 0 3.272-.394 7.354 7.354 0 0 0 2.586-1.11c.266-.185.532 0 .443.346a4.25 4.25 0 0 1-.306.86 7.96 7.96 0 0 1-.87 1.529c-.383.5-.806.968-1.265 1.4-2.417 2.284-5.487 2.911-8.178 3.217-.613.064-.741.804-1.064 2.719-.282 1.705-.5 4.529-1.087 4.69z" fill="#263238"/><path d="M146.71 169.722l-1.975-.692a1.315 1.315 0 0 1 1.5-.973c.547.185.756.933.474 1.665z" fill="#263238"/><path d="M153.792 182.279a17.568 17.568 0 0 1-3.964-.25 2.545 2.545 0 0 1-1.418-1.247c.141.618.416 1.197.805 1.698.758.909 4.577.7 4.577.7z" fill="#f28f8f"/><path d="M153.09 173.704a.917.917 0 0 1-.587.86c-.33.08-.589-.16-.589-.555a.901.901 0 0 1 .629-.869c.282-.072.548.17.548.564zm-.942-2.558l-1.265 1.134a1.093 1.093 0 0 1 .298-1.231.58.58 0 0 1 .967.097z" fill="#263238"/><path d="M153.526 178.273l1.345.217a.926.926 0 0 1-.91.764c-.37-.064-.564-.483-.435-.981z" fill="#f28f8f"/><path d="M158.489 170.044l-1.144-.716c.234-.443.677-.636.99-.443a.884.884 0 0 1 .154 1.159zm-.5 2.155a.909.909 0 0 1-.596.861c-.322.08-.588-.16-.588-.555a.917.917 0 0 1 .588-.86c.33-.113.596.16.596.554z" fill="#263238"/><path d="M155.073 172.433l.072 4.094 2.111-1.102z" fill="#f28f8f"/><path d="M136.566 213.618c1.232-16.94 3.746-23.014 7.88-24.792 1.426 1.062 1.772 6.042.281 9.822 0 0-3.222 11.262-3.392 15.131a62 62 0 0 0 .653 10.675c.055.43.292.818.653 1.061.902.588.805 1.44 1.49 2.245.508.635.983.748.886.981a1.136 1.136 0 0 1-1.264.676 3.41 3.41 0 0 1-1.104-.603 9.284 9.284 0 0 0 1.16 2.525c1.176 1.786 1.12 3-1.612 3.403-1.732.257-2.989-.804-3.859-5.14-.25-1.247-.806-3.483-1.08-5.1a49.32 49.32 0 0 1-.692-10.884z" fill="#ffa8a7"/><path d="M145.622 187.99a9.723 9.723 0 0 0-4.536 3.515c-1.515 2.462-2.965 6.435-3.98 13.45 0 0 1.9 2.606 6.872.442 0 0 2.16-8.969 2.353-12.516.21-3.87-.71-4.891-.71-4.891zm-8.742 24.253l29.159-16.812c.966-.555 1.748-.161 1.748.884a3.732 3.732 0 0 1-1.748 2.888l-29.16 16.812c-.966.555-1.748.161-1.748-.884a3.732 3.732 0 0 1 1.749-2.888zm35.959-66.01l29.167-16.804c.958-.555 1.74-.16 1.74.877a3.74 3.74 0 0 1-1.74 2.896l-29.167 16.804c-.959.555-1.74.16-1.74-.877a3.74 3.74 0 0 1 1.74-2.896z" fill="#455a64"/><path d="M171.928 154.31l37.53-21.64c.484-.273.879-.08.879.443a1.874 1.874 0 0 1-.878 1.448l-37.49 21.63c-.484.282-.879.081-.895-.442a1.835 1.835 0 0 1 .854-1.44zm0 3.764l37.53-21.63c.484-.282.879-.081.879.434a1.866 1.866 0 0 1-.878 1.448l-37.49 21.63c-.484.282-.879.089-.895-.434a1.834 1.834 0 0 1 .854-1.448zm0 3.805l37.53-21.63c.484-.282.879-.081.879.442a1.874 1.874 0 0 1-.878 1.448l-37.49 21.59c-.484.273-.879.08-.895-.442a1.85 1.85 0 0 1 .854-1.408zm0 3.732l37.53-21.638c.484-.274.879-.08.879.442a1.874 1.874 0 0 1-.878 1.448l-37.49 21.647c-.484.281-.879.08-.895-.443.031-.595.35-1.138.854-1.456zm0 3.765l37.53-21.63c.484-.282.879-.081.879.434a1.866 1.866 0 0 1-.878 1.448l-37.49 21.63c-.484.282-.879.08-.895-.434a1.834 1.834 0 0 1 .854-1.448z" fill="#fff"/><path d="M172.839 176.294l3.021-1.746c.967-.555 1.749-.104 1.749 1.006v3.523a3.844 3.844 0 0 1-1.749 3.017l-3.053 1.761c-.967.555-1.74.105-1.74-1.005v-3.54a3.852 3.852 0 0 1 1.772-3.016z" fill="#90caf9"/><path d="M178.745 173.824c0 .523.386.724.87.443l8.057-4.65c.504-.318.83-.854.878-1.448 0-.515-.387-.716-.87-.434l-8.057 4.65a1.85 1.85 0 0 0-.878 1.44zm0 2.84c0 .523.386.716.87.442l8.057-4.657c.502-.317.827-.85.878-1.44 0-.523-.387-.716-.87-.443l-8.057 4.65a1.866 1.866 0 0 0-.878 1.448zm0 2.831c0 .523.386.716.87.443l8.057-4.658c.504-.315.83-.848.878-1.44 0-.523-.387-.716-.87-.442l-8.057 4.65a1.866 1.866 0 0 0-.878 1.447z" fill="#455a64"/><path d="M172.839 187.62l3.021-1.746c.967-.555 1.749-.104 1.749 1.006v3.523a3.828 3.828 0 0 1-1.749 3.017l-3.053 1.77c-.967.554-1.74.104-1.74-1.006v-3.548a3.868 3.868 0 0 1 1.772-3.016z" fill="#90caf9"/><path d="M178.745 185.15c0 .515.386.716.87.435l8.057-4.65c.504-.318.83-.854.878-1.448 0-.515-.387-.716-.87-.434l-8.057 4.65a1.858 1.858 0 0 0-.878 1.447zm0 2.832c0 .523.386.716.87.442l8.057-4.657c.504-.315.83-.849.878-1.44 0-.523-.387-.716-.87-.443l-8.057 4.65a1.866 1.866 0 0 0-.878 1.448zm0 2.855c0 .523.386.724.87.443l8.057-4.658c.505-.314.83-.848.878-1.44 0-.522-.387-.715-.87-.434l-8.057 4.65a1.85 1.85 0 0 0-.878 1.44z" fill="#455a64"/><path d="M194.61 163.978l3.02-1.737c.967-.555 1.741-.105 1.741 1.005v3.524a3.836 3.836 0 0 1-1.74 3.016l-3.054 1.746c-.967.555-1.74.104-1.74-1.006v-3.547a3.892 3.892 0 0 1 1.772-3z" fill="#90caf9"/><path d="M200.507 161.517c0 .523.395.724.878.442l8.057-4.65c.504-.318.83-.854.879-1.447 0-.523-.387-.716-.87-.435l-8.058 4.65c-.51.31-.839.846-.886 1.44zm0 2.84c0 .514.395.715.878.434l8.057-4.65c.504-.318.83-.854.879-1.448 0-.514-.387-.716-.87-.434l-8.058 4.65c-.51.312-.84.85-.886 1.447zm0 2.83c0 .524.395.717.878.443l8.057-4.657c.504-.315.83-.849.879-1.44 0-.523-.387-.716-.87-.443l-8.058 4.65c-.51.314-.839.852-.886 1.448z" fill="#455a64"/><path d="M194.61 175.304l3.02-1.745c.967-.555 1.741-.105 1.741 1.005v3.524a3.836 3.836 0 0 1-1.708 3.016l-3.054 1.762c-.967.555-1.74.104-1.74-1.006v-3.54a3.892 3.892 0 0 1 1.74-3.016z" fill="#90caf9"/><path d="M200.507 172.843c0 .515.395.716.878.434l8.057-4.65c.504-.318.83-.854.879-1.447 0-.515-.387-.716-.87-.435l-8.058 4.65c-.51.313-.84.851-.886 1.448zm0 2.831c0 .523.395.716.878.443l8.057-4.658a1.88 1.88 0 0 0 .879-1.44c0-.522-.387-.716-.87-.442l-8.058 4.65a1.87 1.87 0 0 0-.886 1.447zm0 2.832c0 .523.395.716.878.442l8.057-4.657c.504-.315.83-.849.879-1.44 0-.523-.387-.716-.87-.443l-8.058 4.65c-.51.314-.839.852-.886 1.448z" fill="#455a64"/><path d="M108.672 193.452l.064.04-.08-.048-.153-.08z" fill="#000" opacity=".3"/><path d="M107.536 192.591l.225-.804z" fill="#90caf9"/><path d="M107.536 192.591l.225-.804z" fill="#fff" opacity=".4"/><g fill="#90caf9"><path d="M130.418 181.514l-4.295-2.485h-.128l-.33-.193c-.154-.08-.307-.177-.46-.266l-1.853-1.07-.29-.169-.58-.337a.363.363 0 0 0-.218-.04l-2.16.217a.629.629 0 0 0-.362.169.62.62 0 0 0-.113.152l-1.168 3.146v.056a.281.281 0 0 1 0 .064l-.08.089c-.07.066-.146.125-.226.177l-.08.048c-.226.105-.46.225-.694.354l-2.264-1.311a.194.194 0 0 0-.096 0 .395.395 0 0 0-.258.128l-1.418 1.505-.959.997a.804.804 0 0 0-.161.298.377.377 0 0 0 0 .225l.669 2.236a.249.249 0 0 1 0 .08.321.321 0 0 1 0 .145c.003.03.003.06 0 .089a.056.056 0 0 1 0 .04.29.29 0 0 1 0 .073l-.049.096a16.548 16.548 0 0 0-1.095 1.899.193.193 0 0 1-.049.072l-.064.072a.854.854 0 0 1-.403.234l-2.03.49a.693.693 0 0 0-.387.242.804.804 0 0 0-.073.136l-.129.427-.668 2.244-.226.804a.153.153 0 0 0 0 .121.257.257 0 0 0 0 .072l.056.057.347.193.088.056.274.161.145.088.17.089.064.04.177.105.991.563a8.69 8.69 0 0 0 0 .925.594.594 0 0 1 0 .25 1.174 1.174 0 0 1-.16.297l-2.071 2.502a.555.555 0 0 0-.13.257v.072a.337.337 0 0 0 0 .185l.992 2.172v.04c.08 0 .717.403 1.474.853.129.065.258.145.387.217l1.434.805.17.096.886.515a.097.097 0 0 1-.049-.064l-.983-2.172a.418.418 0 0 1 0-.266.675.675 0 0 1 .13-.249l2.07-2.502a.86.86 0 0 0 .16-.305.562.562 0 0 0 .041-.242 10.183 10.183 0 0 1 0-1.785.305.305 0 0 0-.314-.306l-1.861-.105a.282.282 0 0 1-.145 0 .217.217 0 0 1-.097-.257l.902-3.017.121-.426a.685.685 0 0 1 .46-.378l2.03-.49a.903.903 0 0 0 .41-.242.804.804 0 0 0 .106-.145c.33-.65.696-1.28 1.095-1.89a.803.803 0 0 0 .13-.467.2.2 0 0 0 0-.072l-.661-2.236a.506.506 0 0 1 0-.242.74.74 0 0 1 .169-.273l2.336-2.478a.315.315 0 0 1 .33-.112c.027.01.047.03.057.056l1.104 1.681c.08.12.29.113.467 0a10.07 10.07 0 0 1 1.338-.804 1.08 1.08 0 0 0 .467-.443l1.176-3.137a.33.33 0 0 1 .113-.169.597.597 0 0 1 .355-.16l2.167-.218a.339.339 0 0 1 .185 0 .217.217 0 0 1 .097.225l-.685 3.09a.362.362 0 0 0 .226.385 3.5 3.5 0 0 1 .943.547c.16.092.362.058.483-.08l2.208-2.02a.323.323 0 0 1 .322-.096zm-1.29 6.741c0 .282 0 .571-.04.861a.305.305 0 0 0 .315.306l1.853.104a.38.38 0 0 1 .137 0zm-6.268 12.332c-.08-.12-.282-.113-.467 0s-.435.29-.645.418l2.273 1.32a.153.153 0 0 1-.057-.049zm-5.922 1.198a3.426 3.426 0 0 1-.95-.555.395.395 0 0 0-.484.08l-2.207 2.02a.387.387 0 0 1-.242.113l3.513 2.027a.177.177 0 0 1-.089-.21l.677-3.096a.338.338 0 0 0-.218-.379z"/><path d="M123.368 196.147a6.245 6.245 0 0 1-2.812 1.818h-.83a2.167 2.167 0 0 1-2.038-1.36 3.671 3.671 0 0 1-.29-1.134c.16-.08.338-.17.507-.266a9.602 9.602 0 0 0 4.351-7.513v-.595a3.429 3.429 0 0 1 1.53-.322h.259a2.183 2.183 0 0 1 1.7 1.344c.894 2.155-.161 5.695-2.377 8.028z"/></g><path d="M123.368 196.147a6.245 6.245 0 0 1-2.812 1.818h-.83a2.167 2.167 0 0 1-2.038-1.36 3.671 3.671 0 0 1-.29-1.134c.16-.08.338-.17.507-.266a9.602 9.602 0 0 0 4.351-7.513v-.595a3.429 3.429 0 0 1 1.53-.322h.259a2.183 2.183 0 0 1 1.7 1.344c.894 2.155-.161 5.695-2.377 8.028z" fill="#000" opacity=".3"/><path d="M131.4 189.567a.38.38 0 0 0-.136 0l-1.853-.105a.298.298 0 0 1-.314-.298c0-.297.04-.587.04-.868a8.537 8.537 0 0 0-.04-.917.9.9 0 0 1 .201-.547l2.07-2.51a.57.57 0 0 0 .13-.515l-.983-2.172a.217.217 0 0 0-.057-.064.298.298 0 0 0-.314.096l-2.216 2.02a.387.387 0 0 1-.483.08 3.474 3.474 0 0 0-.943-.547.362.362 0 0 1-.225-.386l.684-3.09a.209.209 0 0 0-.096-.225.395.395 0 0 0-.202 0l-2.167.218a.588.588 0 0 0-.475.33l-1.169 3.137c-.103.201-.27.363-.475.458-.466.233-.913.502-1.338.805-.185.12-.386.128-.467 0l-1.104-1.69c-.08-.112-.258-.088-.403.057l-2.393 2.373a.61.61 0 0 0-.185.514l.66 2.237a.803.803 0 0 1-.12.539 18.55 18.55 0 0 0-1.096 1.89.854.854 0 0 1-.515.386l-2.03.49a.677.677 0 0 0-.46.379l-1.023 3.443a.241.241 0 0 0 .25.305l1.86.105c.171 0 .31.136.315.306a10.183 10.183 0 0 0 0 1.785.884.884 0 0 1-.202.547l-2.07 2.502a.538.538 0 0 0-.121.515l.983 2.172c.01.028.03.051.056.064h.08a.387.387 0 0 0 .243-.112l2.183-1.98a.395.395 0 0 1 .483-.08c.286.233.607.418.951.547.157.06.248.222.218.386l-.677 3.097a.177.177 0 0 0 .089.21.38.38 0 0 0 .201 0l2.16-.21a.62.62 0 0 0 .475-.33l1.176-3.137a.99.99 0 0 1 .467-.458l.693-.362.653-.41c.177-.129.379-.137.46 0l1.103 1.689c.012.022.032.04.056.048a.29.29 0 0 0 .347-.104l2.425-2.494a.627.627 0 0 0 .177-.523l-.66-2.236a.803.803 0 0 1 .128-.54c.4-.607.763-1.239 1.088-1.89.115-.19.3-.33.516-.386l2.03-.482a.685.685 0 0 0 .46-.386l1.023-3.435a.233.233 0 0 0-.121-.241zm-10.844 8.398h-.822a2.184 2.184 0 0 1-2.038-1.376 3.567 3.567 0 0 1-.298-1.126 4.016 4.016 0 0 1 0-.628 9.645 9.645 0 0 1 2.675-6.137 7.249 7.249 0 0 1 1.611-1.328c.175-.108.358-.202.548-.281a3.453 3.453 0 0 1 1.53-.322h.259a2.167 2.167 0 0 1 1.7 1.344c.918 2.027-.137 5.558-2.353 7.899a6.245 6.245 0 0 1-2.812 1.955z" fill="#90caf9"/></g><path d="M126.075 179.005l4.367 2.525"/><g fill-rule="nonzero"><path d="M115.826 190.564a.903.903 0 0 1-.41.241l-2.03.491a.685.685 0 0 0-.371.233l-4.384-2.518a.693.693 0 0 1 .387-.24l2.03-.492a.854.854 0 0 0 .403-.233z" fill="#000" opacity=".2"/><path d="M117.156 188.062l-4.367-2.518a.249.249 0 0 0 0-.08l-.669-2.236a.377.377 0 0 1 0-.225l3.336 1.914 1.031.595a.506.506 0 0 0 0 .242l.66 2.236a.2.2 0 0 1 .009.072zm6.961-8.245a.33.33 0 0 0-.113.169l-1.176 3.137-4.375-2.518 1.168-3.145a.62.62 0 0 1 .113-.153zm6.3 1.697a.323.323 0 0 0-.305.105l-2.208 2.019a.387.387 0 0 1-.483.08 3.474 3.474 0 0 0-.943-.547.362.362 0 0 1-.226-.386l.685-3.089a.217.217 0 0 0-.096-.225l-.806-.474h.129zm.976 8.044a.38.38 0 0 0-.137 0l-1.853-.104a.306.306 0 0 1-.314-.306c0-.29.04-.579.04-.86z" fill="#000" opacity=".3"/><path d="M124.02 202.324l-2.272-1.319c.21-.129.436-.265.645-.418.21-.153.387-.129.467 0l1.104 1.69c.015.02.034.036.057.047zm-6.864-.16l-.677 3.096a.177.177 0 0 0 .089.21l-3.505-2.027a.387.387 0 0 0 .242-.113l2.175-2.035a.395.395 0 0 1 .483-.08c.285.234.606.422.951.554a.34.34 0 0 1 .242.395z" fill="#000" opacity=".4"/><path d="M114.28 197.86a.86.86 0 0 1-.162.306l-2.07 2.501a.675.675 0 0 0-.13.25l-4.366-2.518a.555.555 0 0 1 .129-.258l2.07-2.501c.068-.091.122-.191.162-.298z" fill="#000" opacity=".2"/><path d="M122.82 183.14a1.09 1.09 0 0 1-.467.442 10.07 10.07 0 0 0-1.338.804c-.177.12-.386.129-.467 0l-1.104-1.681a.097.097 0 0 0-.056-.056l-2.079-1.207c.234-.129.467-.25.693-.354l.08-.048c.081-.052.156-.111.226-.177l.08-.089a.281.281 0 0 0 0-.064v-.056z" fill="#000" opacity=".1"/><path d="M114.32 197.619a.562.562 0 0 1-.04.24l-4.367-2.517a.594.594 0 0 0 0-.25 8.69 8.69 0 0 1 0-.924l2.086 1.206a.282.282 0 0 0 .145 0l1.862.105a.306.306 0 0 1 .314.306c-.055.61-.055 1.224 0 1.834z" fill="#000" opacity=".4"/><path d="M117.156 188.062a.803.803 0 0 1-.129.467c-.4.61-.765 1.24-1.096 1.89a.804.804 0 0 1-.105.145l-4.375-2.518.065-.072a.193.193 0 0 0 .048-.073c.323-.653.69-1.285 1.096-1.89l.048-.097a.29.29 0 0 0 0-.072.056.056 0 0 0 0-.04.418.418 0 0 0 0-.089.321.321 0 0 0 0-.144z" fill="#000" opacity=".1"/><path d="M111.516 187.974l-.065.072z" fill="#000" opacity=".3"/><path d="M112.958 203.418l-.886-.514-.17-.097-1.434-.804c-.128-.073-.257-.153-.386-.218-.758-.45-1.394-.804-1.475-.852s0 0 0-.04l-.99-2.172a.337.337 0 0 1 0-.185v-.073l4.366 2.518a.418.418 0 0 0 0 .266l.983 2.171h-.008z" fill="#000" opacity=".4"/><path d="M108.631 189.011a.804.804 0 0 0-.072.137l-.129.427-.669 2.244-.225.804a.153.153 0 0 0 0 .12.257.257 0 0 0 0 .073l.056.057.347.193.088.056.274.16.145.09.17.088.064.04.177.105.991.563 2.087 1.206a.217.217 0 0 1-.097-.257l.903-3.017.12-.426a.466.466 0 0 1 .09-.145z" fill="#000" opacity=".3"/><path d="M117.293 181.41l-2.264-1.311a.194.194 0 0 0-.097 0 .395.395 0 0 0-.258.128l-1.418 1.505-.959.997a.804.804 0 0 0-.16.298l3.335 1.914 1.031.595a.74.74 0 0 1 .17-.273l2.336-2.478a.315.315 0 0 1 .33-.112zm9.531-1.947a.339.339 0 0 0-.185 0l-2.167.217a.597.597 0 0 0-.355.161l-4.375-2.518a.629.629 0 0 1 .363-.169l2.16-.217a.363.363 0 0 1 .217.04l.58.338.29.17 1.853 1.07c.153.088.306.184.46.265l.33.193z" fill="#fff" opacity=".5"/></g><path d="M126.123 179.029l-.056-.024"/><path d="M85.91 224.944l.089.057-.113-.065-.201-.12z" fill="#000" fill-rule="nonzero" opacity=".3"/><path d="M84.347 223.754a.33.33 0 0 0 0 .177.225.225 0 0 1 0-.177l.314-1.054z" fill="#90caf9" fill-rule="nonzero"/><path d="M84.347 223.754a.33.33 0 0 0 0 .177.225.225 0 0 1 0-.177l.314-1.054z" fill="#fff" fill-rule="nonzero" opacity=".4"/><path d="M114.449 207.73l-5.906-3.41-.065-.04a.258.258 0 0 0-.112 0l-.46-.258-.628-.362-1.2-.7-.395-.233-.806-.459a.436.436 0 0 0-.298-.056l-2.973.29a.887.887 0 0 0-.492.24.467.467 0 0 0-.153.21l-1.611 4.32-.049.08a.241.241 0 0 1-.056.08 1.498 1.498 0 0 1-.419.37l-.113.065a13.48 13.48 0 0 0-.943.49l-3.118-1.801a.25.25 0 0 0-.137 0 .484.484 0 0 0-.346.177l-1.95 2.059-1.313 1.383a1.013 1.013 0 0 0-.234.403.514.514 0 0 0 0 .305l.919 3.073a.49.49 0 0 1 0 .113.554.554 0 0 1 0 .193.996.996 0 0 1 0 .129v.056a.45.45 0 0 1 0 .096l-.073.13a24.122 24.122 0 0 0-1.499 2.605l-.072.105-.097.096a1.153 1.153 0 0 1-.548.322l-2.787.668a1 1 0 0 0-.532.346.611.611 0 0 0-.105.185l-.17.587-.918 3.08-.314 1.055a.33.33 0 0 0 0 .177.217.217 0 0 0 0 .088.19.19 0 0 0 .065.073l.048.04.475.273.13.073.37.217.21.12.225.13.089.055.241.137 1.362.805c0 .434 0 .852.048 1.27a.803.803 0 0 1-.056.338c-.046.15-.12.289-.218.41l-2.844 3.444a.74.74 0 0 0-.177.354v.096a.49.49 0 0 0 0 .25l1.281 3.008.04.056h.049c.112.057-.363-.217.684.394l.532.306 1.966 1.134.234.137 1.225.708a.25.25 0 0 1-.081-.097l-1.346-2.984a.482.482 0 0 1 0-.354.94.94 0 0 1 .178-.346l2.844-3.443c.098-.122.174-.261.225-.41a.803.803 0 0 0 .057-.346 13.89 13.89 0 0 1 0-2.413.41.41 0 0 0-.427-.418l-2.554-.145a.532.532 0 0 1-.202-.056.313.313 0 0 1-.129-.362l1.233-4.143.177-.58a.555.555 0 0 1 .113-.2c.136-.156.316-.268.516-.322l2.796-.676a1.233 1.233 0 0 0 .709-.523 23.93 23.93 0 0 1 1.498-2.598 1.08 1.08 0 0 0 .178-.644.185.185 0 0 0 0-.096l-.903-3.065a.618.618 0 0 1 0-.338c.05-.14.126-.268.226-.378l.048-.048 3.223-3.395a.452.452 0 0 1 .451-.16c.032.017.06.042.08.072l1.515 2.317c.113.169.387.152.637 0a13.203 13.203 0 0 1 1.845-1.062c.268-.133.49-.344.637-.604l1.611-4.311a.611.611 0 0 1 .161-.225.806.806 0 0 1 .492-.226l2.973-.297a.516.516 0 0 1 .258 0c.108.056.161.18.128.297l-.934 4.248a.48.48 0 0 0 .306.53c.47.182.908.438 1.297.757a.549.549 0 0 0 .669-.113l3.037-2.775a.444.444 0 0 1 .452-.153zm-1.773 9.29c0 .395 0 .805-.056 1.191a.41.41 0 0 0 .427.419l2.546.145a.42.42 0 0 1 .185 0zm-8.621 16.95c-.105-.17-.379-.153-.628 0-.25.153-.605.394-.895.563l3.126 1.818a.314.314 0 0 1-.08-.064zm-8.13 1.64a4.933 4.933 0 0 1-1.305-.755.54.54 0 0 0-.66.112l-3.038 2.775a.556.556 0 0 1-.33.153l4.834 2.784a.265.265 0 0 1-.121-.29l.935-4.247a.466.466 0 0 0-.315-.531z" fill="#90caf9" fill-rule="nonzero"/><path d="M104.756 227.84a8.526 8.526 0 0 1-3.86 2.502l-.169.04h-.966a2.982 2.982 0 0 1-2.812-1.737 4.997 4.997 0 0 1-.403-1.56c.225-.105.467-.226.7-.363a13.148 13.148 0 0 0 5.971-10.32v-.805a4.663 4.663 0 0 1 2.111-.442h.346a2.996 2.996 0 0 1 2.345 1.842c1.233 2.8-.217 7.626-3.263 10.843z" fill="#90caf9" fill-rule="nonzero"/><path d="M104.756 227.84a8.526 8.526 0 0 1-3.86 2.502l-.169.04h-.966a2.982 2.982 0 0 1-2.812-1.737 4.997 4.997 0 0 1-.403-1.56c.225-.105.467-.226.7-.363a13.148 13.148 0 0 0 5.971-10.32v-.805a4.663 4.663 0 0 1 2.111-.442h.346a2.996 2.996 0 0 1 2.345 1.842c1.233 2.8-.217 7.626-3.263 10.843z" fill="#000" fill-rule="nonzero" opacity=".3"/><path d="M115.794 218.83a.33.33 0 0 0-.185-.047l-2.546-.145a.411.411 0 0 1-.427-.418c0-.403.056-.805.056-1.183s0-.853-.056-1.27c.008-.275.108-.538.282-.749l2.844-3.443a.755.755 0 0 0 .17-.7l-1.346-2.984a.177.177 0 0 0-.089-.097.411.411 0 0 0-.435.137l-3.038 2.767a.549.549 0 0 1-.668.113 4.65 4.65 0 0 0-1.298-.756.483.483 0 0 1-.306-.531l.943-4.247a.273.273 0 0 0-.129-.298.54.54 0 0 0-.282-.048l-2.973.297a.806.806 0 0 0-.653.45l-1.611 4.312c-.14.275-.366.496-.645.628-.642.304-1.26.659-1.845 1.062-.25.169-.532.177-.636 0l-1.555-2.341c-.105-.17-.347-.129-.548.072l-3.223 3.443a.852.852 0 0 0-.25.708l.91 3.073a1.07 1.07 0 0 1-.169.74 24.75 24.75 0 0 0-1.498 2.606 1.2 1.2 0 0 1-.71.523l-2.795.676a.894.894 0 0 0-.628.523l-1.41 4.721a.337.337 0 0 0 .346.427l2.554.145a.411.411 0 0 1 .427.41 13.854 13.854 0 0 0 0 2.453 1.246 1.246 0 0 1-.282.756l-2.844 3.443a.803.803 0 0 0-.17.708l1.346 2.976a.21.21 0 0 0 .089.097.25.25 0 0 0 .105 0 .556.556 0 0 0 .33-.153l3.038-2.775a.54.54 0 0 1 .66-.113c.391.318.829.573 1.297.756.22.076.352.303.307.531l-.935 4.248a.26.26 0 0 0 .12.29.444.444 0 0 0 .283.048l2.973-.29a.854.854 0 0 0 .653-.459l1.611-4.311c.14-.275.366-.495.645-.628.314-.144.636-.313.95-.498s.597-.362.895-.563.523-.185.636 0l1.523 2.316a.161.161 0 0 0 .072.073.398.398 0 0 0 .468-.145l3.271-3.443a.86.86 0 0 0 .25-.716l-.91-3.065c-.04-.259.02-.523.168-.74a25.898 25.898 0 0 0 1.5-2.606c.158-.26.412-.448.708-.523l2.788-.676a.894.894 0 0 0 .636-.523l1.41-4.721a.322.322 0 0 0-.169-.322zm-14.897 11.536l-.17.04h-.966a2.99 2.99 0 0 1-2.812-1.761 5.005 5.005 0 0 1-.411-1.553 7.64 7.64 0 0 1-.049-.869 13.238 13.238 0 0 1 3.682-8.438 10.286 10.286 0 0 1 2.248-1.826c.242-.142.492-.268.75-.378a4.784 4.784 0 0 1 2.11-.45h.347a2.972 2.972 0 0 1 2.337 1.842c1.265 2.783-.186 7.642-3.223 10.851a8.453 8.453 0 0 1-3.843 2.542z" fill="#90caf9" fill-rule="nonzero"/><path d="M108.47 204.311l6.01 3.475"/><path d="M94.394 220.198a1.233 1.233 0 0 1-.555.33l-2.796.676c-.2.054-.38.166-.516.322l-4.673-2.68a1 1 0 0 1 .532-.345l2.787-.668c.21-.053.4-.165.548-.321z" fill="#000" fill-rule="nonzero" opacity=".2"/><path d="M96.223 216.755l-4.657-2.678a.49.49 0 0 0 0-.113l-.918-3.073a.514.514 0 0 1 0-.305l3.223 1.858 1.418.804a.618.618 0 0 0 0 .338l.902 3.065c.021.03.032.067.032.104zm9.588-11.318a.611.611 0 0 0-.16.226l-1.612 4.311-4.673-2.662 1.611-4.32a.467.467 0 0 1 .153-.21zm8.638 2.293a.444.444 0 0 0-.42.145l-3.037 2.775a.549.549 0 0 1-.669.113 4.764 4.764 0 0 0-1.297-.756.483.483 0 0 1-.306-.531l.935-4.248a.257.257 0 0 0-.13-.297l-1.143-.66a.258.258 0 0 1 .112 0l.065.04zm1.33 11.085a.42.42 0 0 0-.186 0l-2.546-.145a.411.411 0 0 1-.427-.418c0-.403.056-.805.056-1.19z" fill="#000" fill-rule="nonzero" opacity=".3"/><path d="M105.658 236.359l-3.126-1.818c.29-.169.596-.362.895-.563s.523-.185.628 0l1.523 2.325c.024.022.05.041.08.056zm-9.435-.217l-.934 4.247a.265.265 0 0 0 .12.29l-4.834-2.784a.556.556 0 0 0 .33-.153l3.038-2.775a.54.54 0 0 1 .66-.112c.395.317.835.572 1.306.756.224.073.358.3.314.53z" fill="#000" fill-rule="nonzero" opacity=".4"/><path d="M92.275 230.253a1.367 1.367 0 0 1-.225.41l-2.844 3.444a.94.94 0 0 0-.178.345l-4.657-2.686a.74.74 0 0 1 .178-.354l2.844-3.443c.097-.122.171-.261.217-.41z" fill="#000" fill-rule="nonzero" opacity=".2"/><path d="M104.007 209.998c-.147.26-.37.47-.637.604-.643.304-1.26.659-1.845 1.062-.25.169-.524.185-.636 0l-1.523-2.325a.225.225 0 0 0-.08-.073l-1.532-.868c.315-.177.629-.346.943-.491l.113-.064a1.498 1.498 0 0 0 .419-.37.241.241 0 0 0 .056-.08l.048-.081z" fill="#000" fill-rule="nonzero" opacity=".1"/><path d="M92.332 229.883a.803.803 0 0 1-.057.346l-4.665-2.694a.803.803 0 0 0 .057-.338c0-.419-.057-.805-.049-1.271l1.515.885a.532.532 0 0 0 .202.056l2.554.145a.411.411 0 0 1 .427.418c-.068.817-.063 1.638.016 2.453z" fill="#000" fill-rule="nonzero" opacity=".4"/><path d="M96.223 216.755c.01.228-.052.453-.177.644a23.857 23.857 0 0 0-1.498 2.598 1.07 1.07 0 0 1-.154.193l-4.697-2.678.089-.097.072-.104c.445-.9.946-1.77 1.499-2.607l.072-.128a.45.45 0 0 0 0-.097v-.056a.996.996 0 0 0 0-.129.554.554 0 0 0 0-.193z" fill="#000" fill-rule="nonzero" opacity=".1"/><path d="M89.818 217.383l-.089.096z" fill="#000" fill-rule="nonzero" opacity=".3"/><path d="M90.503 237.863l-1.225-.708-.233-.136-2.007-1.135-.531-.305c-1.048-.612-.573-.338-.685-.395h-.049l-.04-.056-1.354-2.992a.49.49 0 0 1 0-.25v-.096l4.657 2.687a.482.482 0 0 0 0 .354l1.346 2.984a.25.25 0 0 0 .12.048z" fill="#000" fill-rule="nonzero" opacity=".4"/><path d="M85.854 218.847a.611.611 0 0 0-.105.185l-.17.587-.918 3.081-.314 1.054a.33.33 0 0 0 0 .177.217.217 0 0 0 0 .088.19.19 0 0 0 .065.073l.048.04.475.273.13.073.37.217.21.12.225.13.089.056.241.136 1.362.805 1.515.885a.313.313 0 0 1-.13-.362l1.234-4.143.177-.58a.555.555 0 0 1 .113-.2z" fill="#000" fill-rule="nonzero" opacity=".3"/><path d="M97.754 208.398l-3.118-1.802a.25.25 0 0 0-.137 0 .484.484 0 0 0-.346.177l-1.95 2.06-1.313 1.383a1.013 1.013 0 0 0-.234.402l3.223 1.858 1.418.804c.05-.14.126-.268.225-.378l.049-.048 3.223-3.394a.452.452 0 0 1 .45-.161zm11.756-3.451a.516.516 0 0 0-.258 0l-2.973.297a.806.806 0 0 0-.492.226l-4.665-2.687a.887.887 0 0 1 .492-.241l2.973-.29a.436.436 0 0 1 .298.056l.806.459.394.233 1.2.7.63.362.459.257z" fill="#fff" fill-rule="nonzero" opacity=".5"/><path d="M108.543 204.352l-.073-.04"/><g fill-rule="nonzero"><path d="M79.9 329.63l-2.99-1.721a1.76 1.76 0 0 1-.805-1.61v-58.616a5.573 5.573 0 0 1 2.522-4.368l132.733-76.266a1.791 1.791 0 0 1 1.748-.193l2.982 1.713-2.24 58.505a5.549 5.549 0 0 1-2.53 4.36z" fill="#fafafa"/><path d="M79.142 269.404v58.593c0 1.609 1.128 2.252 2.522 1.456l132.693-76.274a5.573 5.573 0 0 0 2.522-4.368v-58.585c0-1.609-1.136-2.26-2.53-1.456L81.64 265.044a5.549 5.549 0 0 0-2.498 4.36z" fill="#ebebeb"/><path d="M76.902 327.9l2.893 1.666a1.84 1.84 0 0 1-.653-1.61v-58.56a5.078 5.078 0 0 1 .661-2.34l-2.997-1.722a5.062 5.062 0 0 0-.661 2.349v58.585c-.06.634.23 1.25.757 1.608z" fill="#e0e0e0"/><path d="M89.882 314.394l-3.714-2.14a2.268 2.268 0 0 1-1.023-1.769v-30.857a2.252 2.252 0 0 1 1.023-1.77l36.378-20.97a2.292 2.292 0 0 1 2.047 0l3.714 2.147c.605.393.985 1.05 1.023 1.77v30.857a2.268 2.268 0 0 1-1.023 1.77l-36.37 20.962a2.26 2.26 0 0 1-2.055 0z" fill="#37474f"/><path d="M91.76 314.475a2.26 2.26 0 0 1-1.87-.08l-3.722-2.14a2.268 2.268 0 0 1-1.023-1.77v-30.857a2.04 2.04 0 0 1 .298-1.006l5.769 3.315c-.19.304-.296.654-.306 1.013v30.857c0 .587.403.853.854.668z" fill="#263238"/><path d="M90.914 282.95v30.857c0 .652.451.917 1.023.587l36.37-20.962a2.268 2.268 0 0 0 1.023-1.77V260.82c0-.652-.459-.917-1.023-.595l-36.37 20.97a2.236 2.236 0 0 0-1.023 1.754z" fill="#455a64"/><path d="M90.914 292.844l38.416-22.153v1.11l-38.424 22.145z" fill="#263238"/><path d="M107.238 282.323l5.76-3.322v4.432l-5.76 3.314zm5.76-3.322l-.958-.555-5.761 3.322.959.555z" fill="#90caf9"/><path d="M112.998 279l-.958-.554-5.761 3.322.959.555z" fill="#fff" opacity=".4"/><path d="M106.279 281.768v4.432l.959.547v-4.424z" fill="#90caf9"/><path d="M106.279 281.768v4.432l.959.547v-4.424z" fill="#000" opacity=".1"/><path d="M99.615 273.474c-.652 0-1.184-.056-1.184-.708v-5.349a5.677 5.677 0 0 1 2.635-4.569l10.385-6a2.42 2.42 0 0 1 2.625-.133 2.412 2.412 0 0 1 1.195 2.336v5.39c0 .651-.524.708-1.177.708-.652 0-1.184-.057-1.184-.708v-5.39a.98.98 0 0 0 0-.265 1.266 1.266 0 0 0-.242.104l-10.418 6.01a3.37 3.37 0 0 0-1.458 2.517v5.35c0 .651-.524.707-1.177.707z" fill="#90caf9"/><path d="M134.487 240.71l30.617-17.624a.726.726 0 0 1 .7-.072l1.612.724-1.33 38.788a2.171 2.171 0 0 1-.99 1.714l-29.634 18.42s-1.467-.643-1.652-.74a.715.715 0 0 1-.298-.651v-38.861a2.203 2.203 0 0 1 .975-1.697z" fill="#e0e0e0"/><path d="M136.13 241.427l30.618-17.633c.547-.314.99-.056.99.571v38.87a2.171 2.171 0 0 1-.99 1.713l-30.618 17.6c-.547.314-.999.056-.999-.571v-38.853a2.195 2.195 0 0 1 1-1.697z" fill="#fff"/><path d="M160.471 280.4c-3.69-16.144-8.13-19.072-4.19-22.435 4.593-.7 6.366.74 7.066 5.47.347 2.317 1.096 11.994 2.039 15.614.806 3.177 1.942 7.119 3.183 9.387.2.389.58.654 1.015.708 1.152.17 1.49.805 2.417 1.295.733.37 1.273.274 1.24.54a1.441 1.441 0 0 1-1.16 1.141 4.148 4.148 0 0 1-1.377-.088 7.738 7.738 0 0 0 2.006 1.834c1.805 1.166 2.103 2.309-.757 3.829-1.797.957-3.481.49-5.705-3.137a29.747 29.747 0 0 1-2.24-4.215c-1.53-3.934-2.949-7.336-3.537-9.943z" fill="#ffa8a7"/><path d="M162.775 254.426l-12.085 3.218c-2.869.764-5.19-1.288-5.19-4.594v-4.65c0-5.292 3.723-10.577 8.316-11.808l.62-.16c4.585-1.231 8.307 2.059 8.307 7.352v10.634z" fill="#90caf9"/><path d="M162.775 254.426l-12.085 3.218c-2.869.764-5.19-1.288-5.19-4.594v-4.65c0-5.292 3.723-10.577 8.316-11.808l.62-.16c4.585-1.231 8.307 2.059 8.307 7.352v10.634z" fill="#000" opacity=".5"/><path d="M148.393 238.796c-.45-.45-1.216-.281-1.708.37l.91.901a1.073 1.073 0 0 0-.628.12 1.857 1.857 0 0 0-.926 1.907l2.36-1.214a1.221 1.221 0 0 0-.048-.161 1.55 1.55 0 0 0 .04-1.923z" fill="#90caf9"/><path d="M148.393 238.796c-.45-.45-1.216-.281-1.708.37l.91.901a1.073 1.073 0 0 0-.628.12 1.857 1.857 0 0 0-.926 1.907l2.36-1.214a1.221 1.221 0 0 0-.048-.161 1.55 1.55 0 0 0 .04-1.923z" fill="#000" opacity=".5"/><path d="M150.762 259.622s-5.027 1.183-5.64 1.665c3.642 3.902.669 12.131.669 12.131l2.022 7.03a40.548 40.548 0 0 0-4.133 9.484c-1.217 4.022-1.982 6.999-2.909 19.033 4.778 3.797 20.707-.362 24.76-7.562 0 0-1.24-7.89-2.86-15.211-1.177-5.35-2.337-8.237-2.047-10.168 2.135-8.148 2.296-10.176 1.926-11.768-1.072-4.465-5.278-6.556-6.317-6.283z" fill="#37474f"/><path d="M159.528 239.383c.91.379 2.039 2.711 1.926 8.278-.089 4.722-1.41 6.226-2.07 6.74-.661.516-1.942.652-3.223.74v2.816s1.716 1.842 1.61 3.162c-.104 1.319-2.473 2.26-4.084 1.431a9.886 9.886 0 0 1-2.957-2.928v-6.483a1.322 1.322 0 0 1-1.974.096 2.668 2.668 0 0 1-.572-3.555c.806-1.142 2.272-1.28 2.836-.105a8.458 8.458 0 0 1 3.553-4.239c2.651-1.665 4.053-3.161 4.955-5.953z" fill="#ffa8a7"/><path d="M156.91 247.701a.804.804 0 0 1-.484.764c-.282.097-.523-.104-.54-.434a.804.804 0 0 1 .492-.805c.282-.08.524.137.532.475z" fill="#263238"/><path d="M157.047 251.643l1.192.112a.805.805 0 0 1-.805.7c-.299-.032-.484-.394-.387-.812z" fill="#f28f8f"/><path d="M161.108 244.733l-1.032-.547c.186-.394.572-.587.854-.435.308.23.385.659.178.982zm-5.68 1.987l1.03-1.102c-.185-.29-.571-.274-.861 0a.932.932 0 0 0-.17 1.102zm5.446-.507a.804.804 0 0 1-.492.804c-.282.089-.523-.104-.531-.442a.804.804 0 0 1 .483-.805c.266-.088.524.113.54.443z" fill="#263238"/><path d="M158.457 246.519l.08 3.53 1.62-1.013zm-2.256 8.623c-1.314.153-4.029 0-4.424-1.134a2.32 2.32 0 0 0 .943 1.319c.806.579 3.48.756 3.48.756z" fill="#f28f8f"/><path d="M146.83 277.054l3.682 4.673-2.699-1.279z" fill="#263238"/><path d="M136.429 286.506c3.118-15.517 5.269-22.846 8.677-25.219 1.716.17 2.232 2.414 2.417 3.733.266 2.91-.34 5.832-1.74 8.398 0 0-4.246 10.393-4.971 14.48a70.83 70.83 0 0 0-1.322 11.084c-.009.487.173.957.508 1.311.806.805.806 1.65 1.378 2.655.419.804.878 1.005.749 1.239a1.072 1.072 0 0 1-1.37.482 3.697 3.697 0 0 1-1.031-.869 10.87 10.87 0 0 0 .806 2.96c.934 2.18.7 3.476-2.135 3.371-1.781-.064-2.901-1.472-3.167-6.33a43.11 43.11 0 0 1-.048-5.454c.215-3.966.632-7.918 1.249-11.841z" fill="#ffa8a7"/><path d="M136.88 286.36l29.159-16.803c.966-.555 1.748-.161 1.748.877a3.732 3.732 0 0 1-1.748 2.895l-29.16 16.805c-.966.555-1.748.16-1.748-.877a3.732 3.732 0 0 1 1.749-2.896zm35.959-66l29.167-16.813c.958-.555 1.74-.16 1.74.885a3.74 3.74 0 0 1-1.74 2.888l-29.167 16.812c-.959.555-1.74.16-1.74-.885a3.74 3.74 0 0 1 1.74-2.888z" fill="#455a64"/><path d="M171.928 228.427l37.53-21.63c.484-.282.879-.08.879.442a1.858 1.858 0 0 1-.878 1.44l-37.49 21.639c-.484.273-.879.08-.895-.443a1.85 1.85 0 0 1 .854-1.448zm0 3.765l37.53-21.63c.484-.274.879-.08.879.442a1.874 1.874 0 0 1-.878 1.448l-37.49 21.63c-.484.274-.879.08-.895-.442a1.85 1.85 0 0 1 .854-1.448zm0 3.773l37.53-21.639c.484-.273.879-.08.879.443a1.874 1.874 0 0 1-.878 1.448l-37.49 21.63c-.484.282-.879.08-.895-.442.036-.59.354-1.125.854-1.44zm0 3.764l37.53-21.63c.484-.282.879-.08.879.434a1.866 1.866 0 0 1-.878 1.448l-37.49 21.63c-.484.282-.879.081-.895-.434a1.834 1.834 0 0 1 .854-1.448zm0 3.765l37.53-21.63c.484-.282.879-.081.879.442a1.874 1.874 0 0 1-.878 1.448l-37.49 21.63c-.484.274-.879.08-.895-.442a1.85 1.85 0 0 1 .854-1.448z" fill="#fff"/><path d="M172.839 250.412l3.021-1.738c.967-.555 1.749-.104 1.749 1.006v3.523a3.844 3.844 0 0 1-1.749 3.017l-3.053 1.761c-.967.555-1.74.105-1.74-1.005v-3.548a3.868 3.868 0 0 1 1.772-3.016z" fill="#90caf9"/><path d="M178.745 247.95c0 .523.386.716.87.443l8.057-4.658c.504-.315.83-.848.878-1.44 0-.522-.387-.715-.87-.442l-8.057 4.65a1.866 1.866 0 0 0-.878 1.447zm0 2.832c0 .523.386.716.87.442l8.057-4.657c.505-.314.83-.848.878-1.44 0-.523-.387-.716-.87-.442l-8.057 4.657c-.509.31-.836.847-.878 1.44zm0 2.84c0 .514.386.715.87.434l8.057-4.65c.504-.318.83-.854.878-1.448 0-.514-.387-.715-.87-.434l-8.057 4.65a1.858 1.858 0 0 0-.878 1.447z" fill="#455a64"/><path d="M172.839 261.73l3.021-1.738c.967-.555 1.749-.104 1.749 1.006v3.523a3.844 3.844 0 0 1-1.749 3.017l-3.053 1.761c-.967.555-1.74.105-1.74-1.005v-3.548a3.868 3.868 0 0 1 1.772-3.016z" fill="#90caf9"/><path d="M178.745 259.268c0 .523.386.716.87.443l8.057-4.658c.504-.315.83-.848.878-1.44 0-.522-.387-.715-.87-.442l-8.057 4.65a1.866 1.866 0 0 0-.878 1.447zm0 2.832c0 .523.386.724.87.442l8.057-4.65c.504-.318.83-.854.878-1.447 0-.515-.387-.716-.87-.434l-8.057 4.65a1.85 1.85 0 0 0-.878 1.439zm0 2.84c0 .514.386.715.87.434l8.057-4.65c.504-.318.83-.854.878-1.448 0-.514-.387-.715-.87-.434l-8.057 4.65a1.858 1.858 0 0 0-.878 1.448z" fill="#455a64"/><path d="M194.61 238.104l3.02-1.745c.967-.555 1.741-.105 1.741 1.005v3.532a3.836 3.836 0 0 1-1.708 3.032l-3.054 1.762c-.967.555-1.74.105-1.74-1.005v-3.548a3.892 3.892 0 0 1 1.74-3.033z" fill="#90caf9"/><path d="M200.507 235.643c0 .515.395.716.878.434l8.057-4.65c.504-.318.83-.854.879-1.447 0-.515-.387-.716-.87-.434l-8.058 4.649c-.51.314-.839.852-.886 1.448zm0 2.831c0 .523.395.716.878.443l8.057-4.658a1.88 1.88 0 0 0 .879-1.44c0-.522-.387-.715-.87-.442l-8.058 4.65a1.87 1.87 0 0 0-.886 1.447zm0 2.832c0 .523.395.724.878.442l8.057-4.649c.504-.318.83-.855.879-1.448 0-.515-.387-.716-.87-.434l-8.058 4.65c-.51.31-.839.845-.886 1.439z" fill="#455a64"/><path d="M194.61 249.422l3.02-1.737c.967-.555 1.741-.105 1.741 1.005v3.524a3.836 3.836 0 0 1-1.74 3.016l-3.054 1.762c-.967.555-1.74.105-1.74-1.006v-3.547a3.892 3.892 0 0 1 1.772-3.017z" fill="#90caf9"/><path d="M200.507 246.961c0 .523.395.716.878.442l8.057-4.657c.504-.315.83-.849.879-1.44 0-.523-.387-.716-.87-.442l-8.058 4.65c-.51.313-.839.85-.886 1.447zm0 2.832c0 .522.395.723.878.442l8.057-4.658c.505-.314.83-.848.879-1.44 0-.522-.387-.715-.87-.442l-8.058 4.658a1.85 1.85 0 0 0-.886 1.44zm0 2.84c0 .514.395.715.878.433l8.057-4.649c.504-.318.83-.855.879-1.448 0-.515-.387-.716-.87-.434l-8.058 4.65c-.51.312-.84.85-.886 1.447z" fill="#455a64"/></g><g fill-rule="nonzero"><path d="M251.698 138.204c-.086-1.518-.858-2.906-2.083-3.742l-1.695-1.012a4.444 4.444 0 0 0-4.165 0l-13.41 8.031c-.613.397-1.12.95-1.47 1.607a4.497 4.497 0 0 0-.612 2.128v16.063c.081 1.518.855 2.905 2.083 3.735l1.695 1.02c.143.081.29.154.442.216l.178.057c.1 0 .193.072.302.096.081.02.164.037.247.048.085 0 .17.04.256.048h1.022c.124 0 .255 0 .38-.048h.107a3.28 3.28 0 0 0 .403-.096h.054c.27-.074.53-.182.774-.321l13.41-8.032c1.224-.837 1.996-2.224 2.082-3.743z" fill="#90caf9"/><path d="M251.698 138.188v16.063c-.077 1.522-.851 2.913-2.083 3.743l-13.409 8.032a2.6 2.6 0 0 1-.503.224h-.27c-.775.089-1.301-.481-1.301-1.526v-16.063a4.497 4.497 0 0 1 .611-2.128 4.347 4.347 0 0 1 1.471-1.606l13.41-8.032c1.044-.626 1.904-.225 2.05.884 0-.113 0-.225-.053-.338.05.246.077.496.077.747z" fill="#90caf9"/><path d="M236.516 161.383c0 .217.147.297.325.193l11.288-6.795a.753.753 0 0 0 .317-.578v-6.94l-11.93 7.181zM248.13 143.2l-3.012 1.847v-1.196a.812.812 0 0 0-.371-.763.75.75 0 0 0-.82.048l-3.252 1.943c-.493.322-.8.875-.821 1.478v1.647l-3.043 1.823a.736.736 0 0 0-.325.57v2.41l11.992-7.157v-2.41c0-.256-.139-.344-.348-.24zm-7.572 3.333c.027-.326.195-.621.457-.803l3.252-1.952h.07c.005.03.005.06 0 .089v1.606l-3.794 2.273z" fill="#fafafa"/><path d="M251.667 137.819c-.147-1.1-1.014-1.502-2.052-.876l-13.416 8.032a4.275 4.275 0 0 0-1.464 1.606l-5.86-3.51a4.416 4.416 0 0 1 1.47-1.606l13.41-8.031a4.444 4.444 0 0 1 4.165 0l1.695 1.012a4.842 4.842 0 0 1 2.052 3.373z" fill="#fff" opacity=".4"/><path d="M235.827 166.218a.575.575 0 0 1-.124.048l-.31.105a4.438 4.438 0 0 1-.812.169h-.457a4.127 4.127 0 0 1-2.083-.514l-1.718-.996c-1.225-.837-1.997-2.224-2.083-3.743v-16.063c.008-.459.092-.912.248-1.341.07-.185.147-.362.224-.53l.14-.257 5.86 3.51a4.497 4.497 0 0 0-.611 2.128v16.063c0 1.044.534 1.606 1.3 1.526h.124z" fill="#000" opacity=".1"/><path d="M251.698 172.121c-.086-1.518-.858-2.906-2.083-3.742l-1.695-1.012a4.444 4.444 0 0 0-4.165 0l-13.41 8.031c-1.222.835-1.994 2.22-2.082 3.735v16.063c.073 1.516.838 2.906 2.06 3.743l1.695 1.02a2.8 2.8 0 0 0 .441.208l.178.065.302.096.248.048.256.048h1.509c.14 0 .271-.056.403-.096h.054c.27-.074.53-.182.774-.321l13.41-8.032c1.224-.836 1.996-2.224 2.082-3.742z" fill="#37474f"/><g fill="#f0f0f0"><path d="M244.854 184.843c-.184.236-.316.51-.387.803.195-.103.352-.27.45-.473 0-.057.1-.241 0-.33a.06.06 0 0 0-.063 0zm-1.695-.401a.193.193 0 0 0-.109.168.886.886 0 0 0 .109.57c.086-.22.12-.46.1-.698-.007-.08-.03-.08-.1-.04zm-1.696 2.433a.217.217 0 0 0-.077.12.224.224 0 0 0 .039.282c.085.08.247.08.44-.056-.17-.281-.309-.41-.402-.346z"/><path d="M243.159 180.386c-1.882 1.116-3.399 4.136-3.399 6.73 0 3.727 2.222 3.012 2.222 4.514a.423.423 0 0 0 .348.458 2.085 2.085 0 0 0 1.657-.996 1.64 1.64 0 0 0 .34-.868c0-1.501 2.223-3.453 2.223-7.18.03-2.658-1.518-3.815-3.391-2.658zm1.958 4.971c-.155.357-.43.643-.774.803-.07.29-.147.627-.209 1.029a20.969 20.969 0 0 0-.279 3.333.366.366 0 0 1-.139.28c-.077.04-.14 0-.14-.104a20.42 20.42 0 0 1 .287-3.437c.062-.375.132-.72.21-1.036a.94.94 0 0 1-.365 0 1.15 1.15 0 0 1-.542-.314 6.79 6.79 0 0 1-.55.964 4.096 4.096 0 0 1-.355.458c.07.225.139.49.2.803.199 1.018.295 2.054.287 3.092a.366.366 0 0 1-.139.273c-.077.049-.14 0-.14-.112a15.937 15.937 0 0 0-.278-2.996 5.55 5.55 0 0 0-.21-.803c-.34.273-.618.297-.773.153a.711.711 0 0 1-.062-.803.746.746 0 0 1 .387-.45c.217-.064.433.12.62.514.118-.127.227-.264.324-.41.201-.293.375-.605.52-.931a1.357 1.357 0 0 1-.202-.964.871.871 0 0 1 .38-.619c.185-.104.324-.048.37.16.04.417-.029.836-.2 1.214.14.153.32.262.518.313.108.02.218.02.325 0 .103-.466.32-.897.627-1.253.148-.128.287-.137.38 0a.887.887 0 0 1-.078.811zm-1.958-5.887c-.132.08-.233 0-.233-.176v-1.84a.552.552 0 0 1 .233-.45c.124-.08.224 0 .224.177v1.84a.56.56 0 0 1-.224.45zm-2.098 2.032c-.109.16-.248.193-.318.072l-.658-1.188a.496.496 0 0 1 .085-.49c.109-.153.248-.185.31-.072l.666 1.196a.52.52 0 0 1-.085.482zm-1.533 3.044c-.062.185-.202.33-.318.305l-1.145-.233c-.109 0-.148-.192-.086-.385s.202-.321.318-.305l1.146.233c.108.024.17.192.085.385zm-.565 3.229a.58.58 0 0 1-.225.458l-1.332.803c-.123.08-.232 0-.232-.177a.585.585 0 0 1 .232-.458l1.332-.803c.1-.08.225.016.225.177zm.565 2.562a.538.538 0 0 1-.085.49l-1.146 1.606c-.116.153-.256.185-.318.072a.538.538 0 0 1 .086-.49l1.145-1.606c.116-.152.256-.185.318-.072zm7.254-4.33c.062-.192.209-.328.317-.304l1.146.233c.116 0 .147.192.085.385s-.201.321-.31.305l-1.153-.233c-.108-.04-.147-.208-.085-.385zm.573-3.212c0-.18.084-.35.224-.458l1.332-.803c.124-.08.232 0 .232.177a.585.585 0 0 1-.232.458l-1.332.803c-.131.048-.224-.04-.224-.177zm-.573-2.594a.538.538 0 0 1 .085-.49l1.154-1.606c.108-.153.247-.185.31-.072a.513.513 0 0 1-.086.49l-1.146 1.606c-.108.152-.255.185-.317.072zm-1.533-1.205c-.108 0-.147-.192-.085-.385l.666-1.984c.062-.193.201-.33.317-.305.116.024.147.193.078.377l-.659 1.992c-.061.193-.209.33-.317.305z"/><path d="M244.366 190.666v1.197c-.03.327-.154.637-.356.891a2.162 2.162 0 0 1-1.71 1.028.44.44 0 0 1-.349-.506V192.2a.435.435 0 0 0 .348.386 2.139 2.139 0 0 0 1.711-1.028c.204-.253.329-.564.356-.892z"/></g><path d="M251.667 171.752c-.147-1.108-1.014-1.51-2.052-.883L236.2 178.9a4.315 4.315 0 0 0-1.464 1.606l-5.86-3.501c.35-.657.857-1.21 1.47-1.607l13.41-8.031a4.444 4.444 0 0 1 4.165 0l1.695 1.012a4.842 4.842 0 0 1 2.052 3.373z" fill="#455a64"/><path d="M235.827 200.135l-.124.048-.31.097c-.263.09-.536.146-.812.169h-.04a3.65 3.65 0 0 1-.417 0 4.127 4.127 0 0 1-2.083-.515l-1.718-.987c-1.225-.837-1.997-2.224-2.083-3.743V179.14c.008-.459.092-.912.248-1.341.07-.185.147-.362.224-.53l.14-.257 5.86 3.501a4.522 4.522 0 0 0-.611 2.129v16.063c0 1.036.534 1.606 1.3 1.526h.124c.104-.022.205-.055.302-.097z" fill="#263238"/><path d="M251.698 206.03c-.088-1.515-.86-2.9-2.083-3.734l-1.695-1.028a4.496 4.496 0 0 0-4.165 0l-13.432 8.031c-1.225.837-1.997 2.224-2.083 3.743v16.063c.086 1.519.858 2.906 2.083 3.743l1.695 1.012c.14.088.287.16.441.216l.178.065.302.096.248.048.256.048h1.509c.136-.02.27-.05.403-.088h.054c.27-.077.53-.187.774-.33l13.41-8.03c1.227-.83 2-2.217 2.082-3.735z" fill="#90caf9"/><path d="M251.667 205.669c-.147-1.108-1.014-1.51-2.052-.883l-13.416 8.031a4.315 4.315 0 0 0-1.464 1.606l-5.86-3.517c.35-.657.857-1.21 1.47-1.607l13.41-8.031a4.444 4.444 0 0 1 4.165 0l1.695 1.012a4.842 4.842 0 0 1 2.052 3.389z" fill="#fff" opacity=".4"/><path d="M251.698 206.022v16.063c-.077 1.522-.851 2.913-2.083 3.743l-13.409 8.032a2.6 2.6 0 0 1-.503.224l-.14.04h-.13c-.775.089-1.301-.481-1.301-1.525v-16.071a4.497 4.497 0 0 1 .611-2.129 4.355 4.355 0 0 1 1.471-1.606l13.41-8.032c1.044-.626 1.904-.224 2.05.884 0-.113 0-.225-.053-.337.048.235.074.474.077.714z" fill="#90caf9"/><path d="M249.058 217.78a.135.135 0 0 0-.085 0l-1.146-.064a.197.197 0 0 1-.193-.193v-.562a4.874 4.874 0 0 0 0-.586.558.558 0 0 1 .131-.353l1.278-1.607a.363.363 0 0 0 .077-.329l-.604-1.397-.039-.04c-.054 0-.123 0-.2.064l-1.363 1.3a.241.241 0 0 1-.302.049 2.104 2.104 0 0 0-.589-.353.227.227 0 0 1-.131-.25l.418-1.983a.13.13 0 0 0-.055-.145.321.321 0 0 0-.131 0l-1.34.145a.364.364 0 0 0-.294.209l-.72 2.015a.67.67 0 0 1-.294.298c-.288.143-.565.31-.828.498-.116.08-.24.08-.287 0l-.689-1.085c-.046-.08-.155-.064-.247 0l-1.464 1.607a.394.394 0 0 0-.116.329l.41 1.438a.538.538 0 0 1-.077.345c-.247.393-.472.8-.673 1.22a.552.552 0 0 1-.326.25l-1.254.313a.43.43 0 0 0-.286.24l-.635 2.218c-.01.049.003.1.035.138s.08.058.127.054l1.146.073c.05-.003.1.017.137.053a.196.196 0 0 1 .057.14 6.323 6.323 0 0 0 0 1.148.616.616 0 0 1-.124.353l-1.285 1.607a.371.371 0 0 0-.078.329l.612 1.397a.075.075 0 0 0 0 .048h.046a.244.244 0 0 0 .155-.072l1.363-1.3a.256.256 0 0 1 .302-.057c.176.15.374.27.588.353a.242.242 0 0 1 .14.25l-.426 1.991a.122.122 0 0 0 .054.137.15.15 0 0 0 .124 0l1.34-.137a.38.38 0 0 0 .293-.209l.728-2.024a.567.567 0 0 1 .287-.289l.425-.233a5.46 5.46 0 0 0 .403-.265c.132-.096.24-.088.286 0l.69 1.084a.197.197 0 0 0 .216-.064l1.471-1.606a.403.403 0 0 0 .109-.337l-.41-1.43a.546.546 0 0 1 .077-.353c.25-.388.476-.793.673-1.213a.552.552 0 0 1 .325-.25l1.255-.312a.422.422 0 0 0 .286-.25l.635-2.208a.166.166 0 0 0-.008-.137zm-6.712 5.406h-.511a1.348 1.348 0 0 1-1.262-.884 2.4 2.4 0 0 1-.178-1.132 6.297 6.297 0 0 1 1.657-3.944 4.63 4.63 0 0 1 1.014-.86l.34-.176c.295-.144.619-.216.945-.209h.163c.474.074.876.405 1.052.868.566 1.3-.085 3.574-1.455 5.076a3.872 3.872 0 0 1-1.765 1.26z" fill="#fafafa"/><path d="M235.827 234.052l-.124.048-.31.097c-.263.09-.536.146-.812.169h-.04a3.65 3.65 0 0 1-.417 0 4.127 4.127 0 0 1-2.083-.515l-1.718-.995c-1.223-.835-1.995-2.22-2.083-3.735v-16.063a4.14 4.14 0 0 1 .248-1.333c.07-.185.147-.362.224-.53l.14-.265 5.86 3.51a4.522 4.522 0 0 0-.611 2.128v16.063c0 1.044.534 1.606 1.3 1.534h.124a1.57 1.57 0 0 0 .302-.113z" fill="#000" opacity=".1"/><path d="M251.698 36.453c-.08-1.518-.854-2.905-2.083-3.734l-1.695-1.02a4.444 4.444 0 0 0-4.165 0l-13.432 8.031c-1.225.837-1.997 2.224-2.083 3.743v16.063c.086 1.519.858 2.906 2.083 3.743l1.695 1.012c.141.085.289.157.441.216l.178.065.302.088.248.056h1.765l.403-.088h.054c.27-.077.53-.188.774-.33l13.41-8.03c1.224-.838 1.996-2.225 2.082-3.744z" fill="#455a64"/><path d="M251.698 36.445v16.063c-.077 1.522-.851 2.913-2.083 3.743l-13.409 8.032a2.6 2.6 0 0 1-.503.224h-.27c-.775.089-1.301-.481-1.301-1.526V46.918a4.497 4.497 0 0 1 .611-2.128 4.347 4.347 0 0 1 1.471-1.606l13.41-8.032c1.044-.626 1.904-.225 2.05.884 0-.113 0-.233-.053-.346.05.249.077.502.077.755z" fill="#37474f"/><path d="M242.57 42.71c1.673-1.004 3.027-.193 3.027 1.807-.116 2.21-1.24 4.228-3.027 5.437-1.672.996-3.027.185-3.027-1.815.115-2.208 1.24-4.225 3.027-5.43zm5.962 10.698c0-3.285-2.222-4.747-4.97-3.1l-1.72 1.028c-2.93 1.983-4.774 5.298-4.962 8.923v.891l11.613-6.98z" fill="#f0f0f0"/><path d="M235.827 64.475l-.124.048-.31.097a4.438 4.438 0 0 1-.812.169h-.04a3.65 3.65 0 0 1-.417 0 4.127 4.127 0 0 1-2.083-.515l-1.718-.995c-1.225-.837-1.997-2.224-2.083-3.743V43.473c.01-.458.094-.912.248-1.341.07-.177.147-.354.224-.522l.14-.265 5.86 3.51a4.497 4.497 0 0 0-.611 2.128v16.063c0 1.044.534 1.606 1.3 1.534h.124z" fill="#263238"/><path d="M251.698 70.354c-.086-1.518-.858-2.906-2.083-3.742L247.92 65.6a4.444 4.444 0 0 0-4.165 0l-13.432 8.047a4.35 4.35 0 0 0-1.471 1.607 4.497 4.497 0 0 0-.612 2.128v16.063c.086 1.519.858 2.906 2.083 3.743l1.695 1.012c.143.081.29.154.441.216l.178.057a1.9 1.9 0 0 0 .302.096l.248.056.256.04h1.022c.127-.008.253-.024.379-.048h.108a3.28 3.28 0 0 0 .403-.096h.054c.27-.074.53-.182.774-.321l13.41-8.032c1.224-.837 1.996-2.224 2.082-3.743z" fill="#90caf9"/><path d="M249.716 74.458L236.57 82.33l6.573 1.165z" fill="#fafafa"/><path d="M243.143 85.486l-6.573-3.157v10.642l13.146-7.87V74.457z" fill="#fafafa"/><path d="M251.667 70.009c-.147-1.108-1.014-1.51-2.052-.883L236.2 77.157a4.339 4.339 0 0 0-1.464 1.606l-5.86-3.51a4.416 4.416 0 0 1 1.47-1.606l13.41-8.031a4.444 4.444 0 0 1 4.165 0l1.695 1.012a4.84 4.84 0 0 1 2.052 3.381z" fill="#fff" opacity=".4"/><path d="M235.827 98.384a.333.333 0 0 1-.124.048l-.31.105a4.438 4.438 0 0 1-.812.169h-.04a3.626 3.626 0 0 1-.417 0 4.127 4.127 0 0 1-2.083-.515l-1.718-.995c-1.225-.837-1.997-2.224-2.083-3.743V77.39c.008-.459.092-.912.248-1.341a8 8 0 0 1 .224-.522c.078-.169.093-.177.14-.265l5.86 3.51a4.497 4.497 0 0 0-.611 2.128v16.063c0 1.044.534 1.606 1.3 1.526h.124c.104-.025.205-.06.302-.105z" fill="#000" opacity=".1"/><path d="M251.698 104.287c-.086-1.518-.858-2.906-2.083-3.742l-1.695-1.012a4.444 4.444 0 0 0-4.165 0l-13.41 8.031c-.613.397-1.12.95-1.47 1.607a4.497 4.497 0 0 0-.612 2.128v16.063c.081 1.518.855 2.905 2.083 3.735l1.695 1.02c.143.081.29.154.442.216l.178.057c.1 0 .193.072.302.096.081.02.164.037.247.048l.256.048h1.022c.124 0 .255 0 .38-.048h.107a3.28 3.28 0 0 0 .403-.096h.054c.27-.074.53-.182.774-.321l13.41-8.032c1.224-.837 1.996-2.224 2.082-3.743z" fill="#90caf9"/><path d="M251.667 103.926c-.147-1.108-1.014-1.51-2.052-.883l-13.416 8.031a4.339 4.339 0 0 0-1.464 1.606l-5.86-3.51a4.416 4.416 0 0 1 1.47-1.606l13.41-8.031a4.444 4.444 0 0 1 4.165 0l1.695 1.012a4.84 4.84 0 0 1 2.052 3.381z" fill="#455a64"/><path d="M251.698 104.28v16.062c-.077 1.522-.851 2.913-2.083 3.743l-13.409 8.032a2.6 2.6 0 0 1-.503.224h-.27c-.775.089-1.301-.481-1.301-1.526v-16.063a4.497 4.497 0 0 1 .611-2.128 4.347 4.347 0 0 1 1.471-1.606l13.41-8.032c1.044-.626 1.904-.225 2.05.884 0-.113 0-.225-.053-.346.05.249.076.502.077.755z" fill="#37474f"/><path d="M242.578 110.343l-6.464 8.57 6.27.787 6.473-8.562z" fill="#f0f0f0"/><path d="M238.49 123.852c0 1.422 1.827 1.486 4.088.129 2.26-1.358 4.088-3.607 4.088-5.028v-3.076l-4.088 5.421-4.088-.522z" fill="#f0f0f0"/><path d="M235.827 132.301a.333.333 0 0 1-.124.048l-.31.105a4.438 4.438 0 0 1-.812.169h-.457a4.127 4.127 0 0 1-2.083-.514l-1.718-.996c-1.225-.837-1.997-2.224-2.083-3.743v-16.055c.008-.459.092-.912.248-1.341.07-.185.147-.362.224-.53l.14-.257 5.86 3.51a4.497 4.497 0 0 0-.611 2.128v16.063c0 1.044.534 1.606 1.3 1.526h.124a1.64 1.64 0 0 0 .302-.113z" fill="#263238"/><path d="M324.679 174.866l-37.931-10.402c-3.43-.594-4.87 7.87-1.433 8.465l38.99 3.979z" fill="#37474f"/><path d="M286.748 164.464c-3.43-.594-4.87 7.87-1.433 8.465l5.435.554c-2.228-.233-.676-8.102 1.019-7.636z" fill="#90caf9"/><path d="M340.68 191.039c4.568 0 7.002 1.39 8.912 5.675 1.83 4.1 7.496 16.004 7.217 18.89-.278 2.886-11.935 15.128-11.935 15.128l-3.326-4.083 7.217-12.243-7.082-10.32z" fill="#ffa8a7"/><path d="M329.525 317.304c.314.978.58 1.97.795 2.974.223 1.102.541 2.942.16 3.77s-1.87 1.367-4.186 1.35c-1.496 0-3.827 1.014-5.427 1.914s-5.084 1.302-6.827 1.093c-2.053-.241-4.185-1.447-4.52-2.307-.334-.86-.612-2.042 4.958-3.842.048 0 6.74-2.219 9.079-4.823z" fill="#263238"/><path d="M329.525 317.457l-1.059-.129-4.91.097c-2.339 2.612-9.03 4.823-9.078 4.823l-.891.305c-.971.804-.152 2.13 2.148 2.331 2.3.201 9.437-2.218 11.028-2.99a4.779 4.779 0 0 0 2.762-4.437z" fill="#ffa8a7"/><path d="M329.525 315.335v2.13c0 .772-.9 1.93-3.239 1.84-1.64-.055-2.793-.506-2.73-1.872v-1.97z" fill="#ffa8a7"/><path d="M345.248 308.406c.421.177.509.997.525 2.628 0 1.23.222 3.393-1.218 3.786-1.44.394-3.525.113-4.416-1.077-1.098-1.479-1.838-2.773-3.421-4.59-1.377-1.607-2.865-3.046-3.382-5.216-.462-1.954 0-2.79 1.32-3.32s2.523-.097 4.361 1.455a8.326 8.326 0 0 0 1.64.876c1.225.378 4.169 5.29 4.59 5.458z" fill="#263238"/><g fill="#ffa8a7"><path d="M345.287 306.903l-.055 1.993s-1.321 2.62-5.005 0c-.08-.193-.406-4.06-.406-4.06z"/><path d="M340.656 302.948a8.326 8.326 0 0 1-1.639-.876c-1.48-.483-4.607.08-3.183 2.259a16.802 16.802 0 0 0 4.409 4.565c1.67.804 2.251-.193 2.251-.193l-.588-4.694a3.702 3.702 0 0 0-1.25-1.061z"/><path d="M347.977 279.235a47.905 47.905 0 0 0-2.117-10.353s1.242-8.842 2.228-17.299c2.3-19.878-.533-20.24-3.31-27.153 0 0-23.935-3.215-24.993 7.363-1.313 13.199-.724 38.8-.501 43.48.223 4.677.597 6.8 1.973 16.606 1.05 7.468 2.324 24.171 2.324 24.171a5.609 5.609 0 0 0 5.967 0s3.406-20.795 3.334-26.188a46.4 46.4 0 0 0-1.71-11.825s2.14-21.51 2.69-24.918c0 0 .612 6.856.835 11.535.222 4.678 1.472 9.187 2.578 17.9.962 7.565 3.342 23.762 3.342 23.762 3.31 1.921 4.694.595 4.694.595s3.398-21.117 2.666-27.676z"/></g><path d="M342.2 217.983s4.376 6.616 6.254 13.48c1.878 6.865.995 14.244.295 21.575-.7 7.331-2.173 14.686-2.173 14.686s-4.042 4.204-12.532 6.43c-10.416 2.75-15.118-.53-15.118-.53s-.955-27.965 0-38.672c.955-10.707 2.069-15.562 2.069-15.562z" fill="#37474f"/><path d="M330.002 186.747l.923 9.903 8.617-.547-.692-10.988z" fill="#ffa8a7"/><path d="M347.285 195.243c-.876-2.628-2.666-4.164-6.605-4.204l-1.456.048c-.278 1.455-4.52 2.645-8.753 1.15-.588.152-2.968.45-3.883.57l-1.249.306c-3.055 1.005-5.705 3.103-5.8 11.6-.04 4.018 1.424 14.693 1.424 14.693s13.773 2.814 21.197-1.423c4.926-12.113 6.422-18.85 5.125-22.74z" fill="#90caf9"/><path d="M347.285 195.243c-.876-2.628-2.666-4.164-6.605-4.204l-1.456.048c-.278 1.455-4.52 2.645-8.753 1.15-.588.152-2.968.45-3.883.57l-1.249.306c-3.055 1.005-5.705 3.103-5.8 11.6-.04 4.018 1.424 14.693 1.424 14.693s13.773 2.814 21.197-1.423c4.926-12.113 6.422-18.85 5.125-22.74z" fill="#fff" opacity=".4"/><path d="M326.628 192.807l-20.608-.144s1.17-11.648 1.885-13.175c.717-1.527 2.46-1.84 4.162-2.34s1.719-1.317 1.719-1.317l-1.544-.153c-1.353-.145-1.894-1.849-1.305-2.998.278-.539.732-1.383 1.552-1.158l2.053.563s0-1.841-.653-2.597c-.652-.755-1.146-.53-2.506-1.004-1.019-.362-3.088-.997-4.775-.306-1.686.691-2.944 3.867-3.365 6.101a37.78 37.78 0 0 1-2.101 7.572c-1.496 4.156-3.684 12.677-3.883 16.077-.096 1.608.048 2.508 1.782 2.934 1.735.426 21.93 2.411 21.93 2.411 4.328-.562 6.81-4.815 5.657-10.466z" fill="#ffa8a7"/><path d="M325.498 174.44s-3.254-3.923-.708-7.74c3.008-4.494 8.307-6.022 14.856-4.02 3.238.973 7.997 5.498 8.235 11.84.191 4.888-13.383 8.127-13.169 11.479z" fill="#263238"/><path d="M323.58 175.87s-1.909 2.91-1.662 3.216c.447.296.943.511 1.464.635z" fill="#f28f8f"/><path d="M329.437 166.627c-1.854.972-5.06 2.757-5.88 9.646-.852 7.081.716 9.55 1.67 10.45.645.626 3.98.852 5.714.313 2.172-.683 6.883-3.038 9.087-6.696 2.594-4.3 3.135-10.032.135-12.282-4.217-3.111-9.15-2.235-10.726-1.431z" fill="#ffa8a7"/><g fill="#263238"><path d="M328.888 166.932s-1.591 6.43.326 10.546c0 0 1.13-2.516 3.278-1.792s1.966 3.633.263 5.12a3.199 3.199 0 0 1-3.35.724s.056 3.577 3.087 4.992c0 0 6.326 3.054 12.04-3.12 5.187-5.626 4.519-15.634-3.128-18.206-7.646-2.572-12.516 1.736-12.516 1.736z"/><path d="M354.613 194.19c-5.054 0-9.15-4.139-9.15-9.244v-11.889c5.053 0 9.15 4.14 9.15 9.244zm-30.642-30.16c-2.85 2.926-3.008 11.375 5.243 13.448l5.395-14.959c-3.143-2.066-8.1-1.101-10.638 1.511z"/><path d="M328.355 179.802a1.66 1.66 0 0 1-.979-2.115c.138-.416.44-.758.833-.945a1.577 1.577 0 0 1 1.252-.043z"/></g></g></g></g></g></svg>