<svg height="413" width="544" xmlns="http://www.w3.org/2000/svg" xmlns:xlink="http://www.w3.org/1999/xlink"><defs><rect id="c" height="398.769" rx="12" width="531.692"/><filter id="b" height="107%" width="104.9%" x="-1.3%" y="-1.8%"><feOffset dx="12" dy="14" in="SourceAlpha" result="shadowOffsetOuter1"/><feColorMatrix in="shadowOffsetOuter1" values="0 0 0 0 0 0 0 0 0 0 0 0 0 0 0 0 0 0 0.12 0"/></filter><path id="a" d="M0 0h438v365H0z"/><mask id="d" fill="#fff"><use fill-rule="evenodd" xlink:href="#a"/></mask></defs><g fill="none" fill-rule="evenodd"><use fill="#000" filter="url(#b)" xlink:href="#c"/><use fill="#eee" xlink:href="#c"/><circle cx="30.115" cy="199.385" fill="#eee" r="14.615" stroke="#ccc" stroke-width="4"/><circle cx="513.519" cy="199.385" fill="#9c9c9c" r="6.808" stroke="#ccc" stroke-width="3"/><path d="M59.712 17.654h436.153v363.461H59.712z" fill="#000"/><g transform="translate(59 17)"><use fill="#2ac991" xlink:href="#a"/><path d="M-38-25h552v180H-38z" fill="#000" fill-opacity=".1" mask="url(#d)"/><g fill-rule="nonzero" mask="url(#d)"><g fill="#000" fill-opacity=".12" transform="translate(55 182)"><path d="M204.232 102.913a8.927 8.927 0 0 0-1.303-4.58c-.176-.296-.36-.577-.557-.852l-.035-.042a9.025 9.025 0 0 0-.606-.747l-.063-.064a8.003 8.003 0 0 0-.655-.64l-.064-.05a6.404 6.404 0 0 0-.704-.536l-.423-.232-.19-.085-.219-.098a3.12 3.12 0 0 0-.31-.099h-.084a2.388 2.388 0 0 0-.366-.07 2.304 2.304 0 0 0-1.346.211c-3.727 1.867-25.2 15.535-35.084 21.693l-4.896 2.973c-.146.084-.271.2-.366.338a1.487 1.487 0 0 0-.148.268.909.909 0 0 0-.05.148 1.5 1.5 0 0 0-.056.19v.127l-.81.444-.705.395a28.222 28.222 0 0 0-5.58-4.143c-6.776-3.91-15.752-6.066-25.276-6.066s-18.5 2.156-25.277 6.066c-7.045 4.051-10.878 9.525-10.878 15.408 0 5.883 3.86 11.35 10.878 15.409 6.777 3.91 15.752 6.059 25.277 6.059s18.5-2.15 25.277-6.06c7.045-4.058 10.877-9.525 10.877-15.408a14.17 14.17 0 0 0-2.296-7.616l.648-.345a1.46 1.46 0 0 0 1.409.134c3.353-1.846 36.042-15.782 42.727-19.368.705-.472 1.205-1.402 1.254-2.762zm-57.768 39.976c-5.847 3.375-13.73 5.235-22.185 5.235-8.454 0-16.337-1.86-22.184-5.235-5.023-2.903-7.792-6.475-7.792-10.054s2.769-7.158 7.792-10.054c5.847-3.382 13.723-5.242 22.184-5.242s16.338 1.86 22.185 5.242c5.023 2.896 7.792 6.468 7.792 10.054s-2.79 7.151-7.827 10.054zm62.77-122.739L176.081.965a6.742 6.742 0 0 0-6.101 0L1.543 98.193c-1.684.972-1.684 2.55 0 3.522l33.16 19.185a6.742 6.742 0 0 0 6.101 0l63.116-36.446 9.707 5.636c5.136 2.966 13.463 2.966 18.606 0l28.92-16.578c5.142-2.966 5.142-7.75 0-10.744l-9.701-5.636 57.768-33.494c1.69-.938 1.69-2.502.014-3.488z"/><ellipse cx="264.847" cy="92.197" rx="32.512" ry="18.776"/></g><path d="M187.05 270.016l24.918-14.478c2.564-1.486 3.846-3.44 3.846-5.392v-3.482l-23.446-13.368a5.54 5.54 0 0 1-2.479-4.316v-30.903l-43.461 25.27v30.86a5.504 5.504 0 0 0 2.486 4.317l19.537 11.492c5.134 2.944 13.466 2.944 18.6 0z" fill="#37474f"/><path d="M156.837 259.67v3.468l-7.972-4.614a5.518 5.518 0 0 1-2.48-4.317v-30.86l8.29-4.805c.17 2.123.36 4.302.528 6.432l-5.81 3.376v24.117a5.475 5.475 0 0 0 2.48 4.316z" fill="#263238"/><path d="M149.393 252.474a5.518 5.518 0 0 0 2.48 4.316l16.578 9.688c5.134 2.98 13.459 2.98 18.6 0l24.924-14.471c5.135-2.98 5.135-7.784 0-10.785l-16.585-9.702a5.504 5.504 0 0 1-2.487-4.316v-24.117l-43.51 25.27z" fill="#455a64"/><path d="M200.44 234.457l-5.05-2.93a5.504 5.504 0 0 1-2.487-4.316v-24.124l-43.51 25.27v24.117a5.518 5.518 0 0 0 2.48 4.316l4.964 2.873z" fill="#000" opacity=".15"/><path d="M215.82 246.664v3.482c0 1.96-1.288 3.899-3.852 5.399l-24.917 14.464a18.574 18.574 0 0 1-8.874 2.215v-3.467a18.571 18.571 0 0 0 8.874-2.215l24.917-14.479c2.564-1.521 3.853-3.474 3.853-5.4z" fill="#37474f"/><path d="M79.521 285.769a6.641 6.641 0 0 0 6.008-.114L253.852 188a6.878 6.878 0 0 0 3.099-5.393V34.631a6.68 6.68 0 0 0-2.909-5.28 6.62 6.62 0 0 0-6.007.107L79.712 127.113a6.892 6.892 0 0 0-3.1 5.393v147.977a6.695 6.695 0 0 0 2.91 5.286z" fill="#455a64"/><path d="M85.529 285.648l168.323-97.62a6.892 6.892 0 0 0 3.099-5.392V34.63c0-1.989-1.409-2.796-3.1-1.798L85.565 130.49a6.894 6.894 0 0 0-3.1 5.392v147.97c-.034 1.988 1.354 2.795 3.065 1.797z" fill="#37474f"/><path d="M88.247 264.299V137.785a4.13 4.13 0 0 1 1.839-3.234l159.167-92.313c1.021-.595 1.86-.113 1.86 1.076v126.52a4.108 4.108 0 0 1-1.86 3.234L90.086 265.381c-1.008.595-1.839.114-1.839-1.082z" fill="#90caf9"/><path d="M88.247 264.299V137.785a4.13 4.13 0 0 1 1.839-3.234l159.167-92.313c1.021-.595 1.86-.113 1.86 1.076v126.52a4.108 4.108 0 0 1-1.86 3.234L90.086 265.381c-1.008.595-1.839.114-1.839-1.082z" fill="#fff" opacity=".7"/><path d="M169.352 230.848a1.824 1.824 0 0 1-.93-.24 2.396 2.396 0 0 1-1.028-2.201 6.75 6.75 0 0 1 3.085-5.364 2.105 2.105 0 0 1 2.409-.21 2.126 2.126 0 0 1 1.028 2.198 6.757 6.757 0 0 1-3.085 5.371c-.445.276-.955.43-1.479.446zm2.6-7.537c-.398.02-.784.141-1.12.354a6.084 6.084 0 0 0-2.733 4.756c-.196.632.07 1.315.64 1.646s1.294.22 1.74-.266a6.077 6.077 0 0 0 2.733-4.756 1.737 1.737 0 0 0-.704-1.585 1.144 1.144 0 0 0-.557-.149z" fill="#90caf9"/><path d="M279.908 65.825l-164.552 94.709V281.51a2.116 2.116 0 0 0 1.057 1.798 2.126 2.126 0 0 0 2.09.022l2.934-1.686 155.402-89.404a6.763 6.763 0 0 0 3.07-5.306z" fill="#f0f0f0"/><path d="M279.201 67.045v119.89a6.093 6.093 0 0 1-2.715 4.691L121.083 281.03l-2.934 1.686c-.214.127-.459.19-.707.19a1.416 1.416 0 0 1-.969-.395 1.36 1.36 0 0 1-.424-1.001V160.915L279.187 67.08m.707-1.22l-164.538 94.674V281.51a2.12 2.12 0 0 0 2.121 2.116c.368 0 .73-.096 1.047-.282l2.934-1.686L276.84 192.24a6.763 6.763 0 0 0 3.07-5.306V65.824z" fill="#e0e0e0"/><path d="M276.005 63.581l-164.567 94.667 3.918 2.258 164.552-94.681z" fill="#455a64" opacity=".8"/><path d="M116.459 283.358a2.116 2.116 0 0 1-1.103-1.848V160.534l-3.918-2.258V278.59a3.29 3.29 0 0 0 0 .444c.137.994.727 1.87 1.598 2.37l3.232 1.87.163.085z" fill="#ebebeb"/><path d="M111.438 158.304v-8.163a3.392 3.392 0 0 1 1.528-2.652l161.511-92.903a3.38 3.38 0 0 1 3.055 0l.842.486a3.37 3.37 0 0 1 1.534 2.646v8.17l-164.552 94.646z" fill="#90caf9"/><path d="M111.438 158.304v-8.163a3.392 3.392 0 0 1 1.528-2.652l161.511-92.903a3.38 3.38 0 0 1 3.055 0l.842.486a3.37 3.37 0 0 1 1.534 2.646v8.17l-164.552 94.646z" fill="#000" opacity=".3"/><path d="M115.356 152.392a3.385 3.385 0 0 1 1.527-2.653l161.498-92.917c.841-.494 1.527-.099 1.527.875v8.191l-164.552 94.646z" fill="#90caf9"/><path d="M115.356 152.392a3.385 3.385 0 0 1 1.527-2.653l161.498-92.917c.841-.494 1.527-.099 1.527.875v8.191l-164.552 94.646z" fill="#000" opacity=".4"/><path d="M115.801 150.882a3.148 3.148 0 0 0-.445 1.51v8.142l-3.91-2.25v-8.15a3.12 3.12 0 0 1 .445-1.502z" fill="#90caf9"/><path d="M115.801 150.882a3.148 3.148 0 0 0-.445 1.51v8.142l-3.91-2.25v-8.15a3.12 3.12 0 0 1 .445-1.502z" fill="#000" opacity=".5"/><path d="M272.724 65.521c0 .91.643 1.284 1.414.826a3.16 3.16 0 0 0 1.414-2.484c0-.91-.643-1.284-1.414-.825a3.166 3.166 0 0 0-1.414 2.483zm-5.742 3.295c0 .91.644 1.284 1.414.825a3.166 3.166 0 0 0 1.415-2.483c0-.91-.644-1.284-1.415-.825a3.166 3.166 0 0 0-1.414 2.483zm-5.749 3.323c0 .91.644 1.284 1.414.825a3.166 3.166 0 0 0 1.415-2.483c0-.91-.644-1.284-1.415-.825a3.16 3.16 0 0 0-1.414 2.483zm-145.877 88.395V281.51a2.116 2.116 0 0 0 1.057 1.798 2.126 2.126 0 0 0 2.09.022l2.934-1.686 35.957-20.693V136.37zm44.909-22.118v117.476l116.192-66.933V71.483z" fill="#fafafa"/><path d="M147.77 150.565l-26.82 15.465a1.97 1.97 0 0 0-.899 1.552v2.787c0 .571.403.797.898.515l26.82-15.465c.532-.345.866-.922.899-1.552v-2.78c0-.572-.403-.804-.898-.522z" fill="#90caf9"/><path d="M147.77 150.565l-26.82 15.465a1.97 1.97 0 0 0-.899 1.552v2.787c0 .571.403.797.898.515l26.82-15.465c.532-.345.866-.922.899-1.552v-2.78c0-.572-.403-.804-.898-.522z" fill="#fafafa" opacity=".8"/><g fill="#455a64"><path d="M153.738 151.672l-.785-.762c.159-.4.242-.825.248-1.255a1.48 1.48 0 0 0-.587-1.355.914.914 0 0 0-.962.042 3.137 3.137 0 0 0-1.245 2.561 1.48 1.48 0 0 0 .594 1.355c.126.076.27.115.418.113.192-.003.38-.056.544-.155a2.21 2.21 0 0 0 .707-.706l.65.621a.28.28 0 0 0 .213.092.319.319 0 0 0 .226-.1.303.303 0 0 0-.021-.45zm-2.086 0a.34.34 0 0 1-.34.043c-.134-.078-.282-.339-.282-.819a2.552 2.552 0 0 1 .933-2.025.418.418 0 0 1 .22-.07c.039-.01.08-.01.12 0 .127.078.275.332.275.818a2.587 2.587 0 0 1-.926 2.06zm-30.943 27.389l-.601.345s-.064 0-.064-.049v-1.623a.16.16 0 0 1 .064-.127l.6-.345s.064 0 .064.049v1.623c0 .05-.024.096-.063.127zm.898-.522l-.601.345c-.036 0-.064 0-.064-.049v-1.623c0-.048.024-.092.064-.12l.6-.331c.036 0 .064 0 .064.042v1.63a.155.155 0 0 1-.063.106zm.905-.522l-.601.352c-.036 0-.064 0-.064-.05v-1.629a.155.155 0 0 1 .064-.12l.6-.345c.036 0 .064 0 .064.049v1.623a.134.134 0 0 1-.063.12zm-1.803 3.14l-.601.345s-.064 0-.064-.05v-1.622a.16.16 0 0 1 .064-.127l.6-.346s.064 0 .064.05v1.622c0 .05-.024.097-.063.127zm.898-.523l-.601.346c-.036 0-.064 0-.064-.05v-1.622c0-.048.024-.093.064-.12l.6-.31c.036 0 .064 0 .064.042v1.63a.155.155 0 0 1-.063.084zm.905-.522l-.601.353c-.036 0-.064 0-.064-.05v-1.63a.155.155 0 0 1 .064-.12l.6-.345c.036 0 .064 0 .064.05v1.622a.134.134 0 0 1-.063.12zm-1.711 6.575l-.708-.444v-.134l.708-1.305c0-.064.092-.057.092 0v1.756c.007.078-.057.149-.092.127z"/><path d="M120.49 185.693l.975-.558v.459l-.976.564c-.077.05-.148 0-.148-.148 0-.122.055-.238.148-.317zm1.16-.664l.331-.19v.459l-.332.19zm1.23-.508v1.7a.374.374 0 0 1-.156.318c-.078.05-.149 0-.149-.14v-1.468l-.41.232v-.458l.559-.325c.085-.02.155.043.155.141zm-1.79 5.983a3.2 3.2 0 0 0-1.025 2.752c.12.882.644.846.707 1.256 0 .049.036.063.064.049l.658-.374a.176.176 0 0 0 .07-.12c.071-.543.743-1.2.743-2.519.007-1.008-.552-1.502-1.216-1.044zm.396 4.741l-.636.367c-.042 0-.078 0-.078-.063v-.579c0-.06.03-.118.078-.155l.636-.367c.043 0 .078 0 .078.064v.592a.19.19 0 0 1-.078.141zm-.24-18.484a3.849 3.849 0 0 0-1.153 2.44 2.58 2.58 0 0 0 .163 1.327l-.212 1.115c0 .092 0 .134.085.078l.643-.706a.999.999 0 0 0 .934-.268 3.849 3.849 0 0 0 1.152-2.441c.163-1.545-.657-2.314-1.612-1.545zm.226 3.64c-.587.339-1.067-.12-1.067-1.03a2.82 2.82 0 0 1 1.067-2.258c.594-.338 1.075.12 1.075 1.03a2.82 2.82 0 0 1-1.075 2.272zm-.226 17.786a3.827 3.827 0 0 0-1.153 2.434 2.59 2.59 0 0 0 .163 1.334l-.212 1.108c0 .091 0 .14.085.084l.643-.705a.999.999 0 0 0 .934-.268 3.87 3.87 0 0 0 1.152-2.441c.163-1.546-.657-2.329-1.612-1.546zm.226 3.64c-.587.34-1.067-.119-1.067-1.03a2.82 2.82 0 0 1 1.067-2.257c.594-.338 1.075.12 1.075 1.03a2.82 2.82 0 0 1-1.075 2.258zm.68 4.206c.008.464-.201.905-.567 1.192-.31.184-.565-.063-.565-.543a1.501 1.501 0 0 1 .565-1.192c.312-.177.566.063.566.543zm.968.17a.994.994 0 0 1-.375.796c-.212.12-.382-.042-.382-.36a.987.987 0 0 1 .382-.797c.205-.12.375.043.375.36zm-.87 3.252l-1.35.762v-1.708c.007-.367.188-.71.487-.924l.368-.212c.262-.148.481 0 .481.367zm.552-2.258l-.368.212v1.94l.707-.402v-1.51c-.014-.24-.163-.339-.34-.24zm-2.751.776c0 .317.17.48.375.36a.987.987 0 0 0 .375-.79c0-.325-.17-.487-.375-.367a1.01 1.01 0 0 0-.375.797zm.318.62l.36-.21v1.946l-.706.396v-1.51a.769.769 0 0 1 .346-.621z"/></g><path d="M126.556 175.25l15.713-9.072c.424-.247.763-.07.763.388-.037.52-.32.992-.763 1.27l-15.713 9.073c-.424.24-.763.07-.763-.388.037-.52.32-.992.763-1.27zm0 7.374l15.705-9.045c.425-.24.764-.07.764.388-.037.52-.32.992-.764 1.27l-15.705 9.045c-.424.24-.763.07-.763-.388.037-.521.32-.993.763-1.27zm0 7.38l15.713-9.01c.424-.247.763-.07.763.38a1.63 1.63 0 0 1-.763 1.27l-15.713 9.01c-.424.247-.763.07-.763-.388.037-.518.32-.988.763-1.263zm0 7.372l15.705-9.045c.425-.247.764-.07.764.388a1.622 1.622 0 0 1-.764 1.263l-15.705 9.052c-.424.24-.763.07-.763-.388.036-.52.32-.993.763-1.27zm0 7.373l15.705-9.045c.425-.24.764-.07.764.388-.037.52-.32.992-.764 1.27l-15.705 9.03c-.424.24-.763.071-.763-.387.041-.516.324-.981.763-1.256z" fill="#e0e0e0"/><path d="M129.434 210.774l15.705-9.045c.425-.247.764-.07.764.381a1.63 1.63 0 0 1-.764 1.27l-15.705 9.045c-.424.247-.763.07-.763-.381a1.63 1.63 0 0 1 .763-1.27z" fill="#455a64"/><path d="M129.434 215.755l15.705-9.045c.425-.247.764-.07.764.388a1.622 1.622 0 0 1-.764 1.263l-15.705 9.045c-.424.247-.763.07-.763-.381a1.63 1.63 0 0 1 .763-1.27zm0 4.98l15.705-9.044c.425-.247.764-.07.764.388a1.622 1.622 0 0 1-.764 1.263l-15.705 9.052c-.424.24-.763.07-.763-.388.037-.52.32-.992.763-1.27zm3.055 3.169l15.705-9.045c.424-.247.764-.07.764.38a1.63 1.63 0 0 1-.764 1.27l-15.705 9.046c-.417.247-.764.07-.764-.381.039-.52.322-.992.764-1.27z" fill="#e0e0e0"/><path d="M128.82 228.186l1.28-2.243c.049-.085.049-.198 0-.226l-1.28-.776c-.057-.035-.15.077-.15.197v3.02c.008.106.093.141.15.028z" fill="#455a64"/><path d="M132.49 228.863l15.704-9.065c.424-.24.764-.071.764.388-.037.52-.32.992-.764 1.27l-15.705 9.065c-.417.247-.764.071-.764-.388.04-.52.324-.99.764-1.27z" fill="#e0e0e0"/><path d="M128.82 233.153l1.28-2.243c.049-.085.049-.198 0-.233l-1.28-.776c-.057-.036-.15.084-.15.204v3.02c.008.12.093.134.15.028z" fill="#455a64"/><path d="M132.49 233.83l15.704-9.044c.424-.247.764-.071.764.388-.037.52-.32.992-.764 1.27l-15.705 9.044c-.417.24-.764.07-.764-.388.04-.52.324-.99.764-1.27z" fill="#e0e0e0"/><path d="M128.82 238.141l1.28-2.25c.049-.085.049-.198 0-.226l-1.28-.776c-.057-.036-.15.084-.15.204v3.02c.008.099.093.113.15.028z" fill="#455a64"/><path d="M132.49 238.797l15.704-9.045c.424-.246.764-.07.764.381a1.63 1.63 0 0 1-.764 1.27l-15.705 9.045c-.417.247-.764.07-.764-.38.039-.521.322-.992.764-1.27z" fill="#e0e0e0"/><path d="M128.82 243.08l1.28-2.244c.049-.084.049-.197 0-.226l-1.28-.776c-.057-.042-.15.078-.15.198v3.048c.008.091.093.113.15 0z" fill="#455a64"/><path d="M132.49 243.785l15.704-9.045c.424-.24.764-.07.764.389-.037.52-.32.992-.764 1.27l-15.705 9.044c-.417.24-.764.07-.764-.388.04-.52.324-.99.764-1.27z" fill="#e0e0e0"/><path d="M128.82 248.018l1.28-2.243c.049-.085.049-.198 0-.233l-1.28-.776c-.057-.035-.15.085-.15.205v3.047c.008.12.093.134.15 0z" fill="#455a64"/><path d="M132.49 248.724l15.704-9.045c.424-.247.764-.07.764.388a1.622 1.622 0 0 1-.764 1.263l-15.705 9.052c-.417.24-.764.07-.764-.388.04-.52.324-.99.764-1.27z" fill="#e0e0e0"/><path d="M128.82 253.013l1.28-2.25c.049-.085.049-.198 0-.226l-1.28-.776c-.057-.035-.15.085-.15.205v2.991c.008.148.093.162.15.056z" fill="#455a64"/><path d="M132.49 253.663l15.704-9.045c.424-.247.764-.07.764.38a1.63 1.63 0 0 1-.764 1.27l-15.705 9.045c-.417.247-.764.071-.764-.388.04-.517.324-.985.764-1.262z" fill="#e0e0e0"/><path d="M128.82 257.973l1.28-2.243c.049-.085.049-.198 0-.226l-1.28-.776c-.057-.042-.15.078-.15.197v3.02c.008.12.093.141.15.028z" fill="#455a64"/><path d="M132.49 258.65l15.704-9.044c.424-.24.764-.07.764.388-.037.52-.32.992-.764 1.27l-15.705 9.045c-.417.24-.764.07-.764-.388.04-.52.324-.99.764-1.27z" fill="#e0e0e0"/><path d="M128.82 262.94l1.272-2.222c.05-.085.05-.198 0-.233l-1.28-.776c-.056-.035-.148.085-.148.204v3.02c.014.099.099.113.155.007z" fill="#455a64"/><path d="M163.906 154.523l51.62-29.731c.45-.293.734-.783.763-1.32v-13.13c0-.486-.346-.705-.764-.436l-51.619 29.723c-.454.291-.74.782-.77 1.32v13.136c0 .487.346.685.77.438z" fill="#f0f0f0"/><path d="M168.403 145.26l.34-1.412-.467.268v-.296a.12.12 0 0 1 0-.05v-.042l.75-.43a.077.077 0 0 1 0 .042v.226c.002.045.002.09 0 .134l-.34 1.411a.45.45 0 0 1 0 .05.077.077 0 0 1 0 .035l-.226.127a.057.057 0 0 1-.057-.064zm1.357-2.364a.422.422 0 0 1 .239-.064c.06 0 .12.021.164.057a.328.328 0 0 1 .09.162c.01.077.01.155 0 .233v.43a1.5 1.5 0 0 1 0 .268 1.012 1.012 0 0 1-.09.254c-.047.08-.102.155-.164.226-.07.066-.15.123-.239.17a.553.553 0 0 1-.238.063.285.285 0 0 1-.255-.226.988.988 0 0 1 0-.233v-.423a1.406 1.406 0 0 1 0-.268.785.785 0 0 1 .099-.261c.042-.078.094-.151.156-.219a.88.88 0 0 1 .238-.17zm.197.973v-.409a.467.467 0 0 0 0-.106.182.182 0 0 0 0-.07.076.076 0 0 0-.057 0h-.09a.411.411 0 0 0-.09.07.324.324 0 0 0-.058.085.503.503 0 0 0 0 .106v.628a.14.14 0 0 0 0 .07.095.095 0 0 0 .057 0c.03.009.061.009.09 0a.285.285 0 0 0 .09-.07.2.2 0 0 0 .058-.085.255.255 0 0 0 0-.106.556.556 0 0 0-.04-.12zm.787-1.256v.184c.003.05.003.099 0 .148a.493.493 0 0 1-.226.339.262.262 0 0 1-.106 0 .1.1 0 0 1-.078 0 .12.12 0 0 1-.043-.078.338.338 0 0 1 0-.127v-.183a.486.486 0 0 1 .12-.395.311.311 0 0 1 .107-.085.184.184 0 0 1 .106 0 .106.106 0 0 1 .078 0l.042.085a.52.52 0 0 1 0 .112zm.389-.507v-.05a.07.07 0 0 1 .035 0l.128-.077-.778 2.017v.043a.085.085 0 0 1-.036.035l-.127.07zm-.707.86a.232.232 0 0 0 0 .085h.05a.134.134 0 0 0 .049-.057.43.43 0 0 0 0-.105v-.156a.204.204 0 0 0 0-.084.113.113 0 0 0-.05.063.324.324 0 0 0 0 .099.62.62 0 0 0-.042.155zm1.04.07v.184c.003.05.003.1 0 .148a.98.98 0 0 1-.043.134.642.642 0 0 1-.078.113.452.452 0 0 1-.106.092.262.262 0 0 1-.106 0 .128.128 0 0 1-.078 0 .162.162 0 0 1-.042-.085.338.338 0 0 1 0-.127v-.176a.535.535 0 0 1 0-.148.423.423 0 0 1 .042-.134.437.437 0 0 1 .05-.141.311.311 0 0 1 .106-.085.262.262 0 0 1 .106 0 .106.106 0 0 1 .078 0 .24.24 0 0 1 .042.085zm-.312.354a.204.204 0 0 0 0 .084h.05c.05 0 .035 0 .05-.056a.43.43 0 0 0 0-.106v-.155a.204.204 0 0 0 0-.085.113.113 0 0 0-.05.064.324.324 0 0 0 0 .098.62.62 0 0 0-.043.156zm-2.758-2.173l-.516-.798a10.173 10.173 0 0 0-1.223 3.295l.834-.07a7.693 7.693 0 0 1 .905-2.427zm1.464-1.58v-1.348a5.762 5.762 0 0 0-1.98 2.116l.516.797a4.315 4.315 0 0 1 1.464-1.566zm-2.489 5.262c.002-.421.042-.841.12-1.255l-.834.07a8.652 8.652 0 0 0-.17 1.693 6.087 6.087 0 0 0 .17 1.503l.834-.903a4.787 4.787 0 0 1-.12-1.108z" fill="#455a64"/><path d="M173.063 140.017a2.822 2.822 0 0 0-1.223-1.884 1.99 1.99 0 0 0-1.98.156v1.347a1.474 1.474 0 0 1 1.464-.106c.488.322.816.835.905 1.411.083.364.123.735.12 1.108a6.864 6.864 0 0 1-.12 1.256 7.87 7.87 0 0 1-.905 2.427 4.435 4.435 0 0 1-1.464 1.58 1.46 1.46 0 0 1-1.464.106 2.044 2.044 0 0 1-.905-1.41l-.834.902a2.758 2.758 0 0 0 1.223 1.884 1.97 1.97 0 0 0 1.98-.155 5.882 5.882 0 0 0 1.98-2.117 10.3 10.3 0 0 0 1.223-3.288 9.23 9.23 0 0 0 .163-1.7 6.484 6.484 0 0 0-.163-1.517z" fill="#90caf9"/><path d="M178.268 136.32l15.698-9.045c.424-.246.77-.07.77.381a1.636 1.636 0 0 1-.77 1.27l-15.698 9.031c-.425.247-.771.07-.771-.38.043-.518.329-.984.77-1.257z" fill="#455a64"/><path d="M178.268 139.657l27.188-15.662c.424-.247.764-.07.764.388a1.622 1.622 0 0 1-.764 1.263l-27.188 15.662c-.425.247-.771.07-.771-.388.04-.52.326-.989.77-1.263z" fill="#e0e0e0"/><path d="M219.895 122.26l51.62-29.731c.451-.296.735-.789.763-1.327v-13.13c0-.486-.34-.705-.763-.437l-51.62 29.724a1.692 1.692 0 0 0-.763 1.326v13.13c.014.487.353.684.763.444z" fill="#f0f0f0"/><path d="M224.661 111.79c0-.094.016-.187.046-.276a.91.91 0 0 1 .108-.247c.045-.074.099-.142.16-.204.056-.054.118-.1.185-.142a.814.814 0 0 1 .184-.056.295.295 0 0 1 .16.035c.05.033.09.076.116.127a.64.64 0 0 1 .038.233.746.746 0 0 1 0 .134.753.753 0 0 1 0 .127.723.723 0 0 1-.038.12l-.046.113-.322.804a.091.091 0 0 0 0 .043.089.089 0 0 1-.038.035l-.269.141a.04.04 0 0 1 0-.035l.223-.544a.416.416 0 0 1-.162 0 .209.209 0 0 1-.13-.049.289.289 0 0 1-.092-.127.581.581 0 0 1-.123-.233zm.683-.36a.24.24 0 0 0 0-.085.072.072 0 0 0-.038-.043h-.062a.133.133 0 0 0-.069 0l-.069.05-.054.077a.354.354 0 0 0-.046.092.383.383 0 0 0 0 .092.24.24 0 0 0 0 .085s0 .035.046.042h.054a.133.133 0 0 0 .07 0 .24.24 0 0 0 .068-.057.28.28 0 0 0 .062-.07.336.336 0 0 0 .038-.092.383.383 0 0 0 0-.092zm.896-1.108a.395.395 0 0 1 .228-.064c.06 0 .119.02.162.057a.42.42 0 0 1 .098.162.705.705 0 0 1 0 .233v.431c.011.088.011.178 0 .267a1.627 1.627 0 0 1-.098.254 1.076 1.076 0 0 1-.162.226 1.04 1.04 0 0 1-.228.17.578.578 0 0 1-.236.063.297.297 0 0 1-.162-.064.374.374 0 0 1-.098-.162.95.95 0 0 1 0-.226v-.43a1.427 1.427 0 0 1 0-.268 1.44 1.44 0 0 1 .098-.261.893.893 0 0 1 .162-.219.799.799 0 0 1 .236-.17zm.187.973a3.436 3.436 0 0 0 0-.409.374.374 0 0 0 0-.099.172.172 0 0 0 0-.077.093.093 0 0 0-.057 0h-.09a.282.282 0 0 0-.089.07.587.587 0 0 0-.065.085v.226a3.32 3.32 0 0 0 0 .402v.106a.313.313 0 0 0 0 .07c.02.01.045.01.065 0h.09l.089-.063a.368.368 0 0 0 .057-.092.509.509 0 0 0 0-.106.527.527 0 0 0 0-.113zm.83-1.248a.796.796 0 0 1 0 .183c.003.05.003.099 0 .148a1.08 1.08 0 0 1-.05.134.607.607 0 0 1-.07.113.46.46 0 0 1-.114.092.212.212 0 0 1-.106.035.106.106 0 0 1-.07 0 .247.247 0 0 1-.05-.085.634.634 0 0 1 0-.127.345.345 0 0 1 0-.084.5.5 0 0 1 0-.099.957.957 0 0 1 0-.141.754.754 0 0 1 .05-.134.416.416 0 0 1 .07-.12.558.558 0 0 1 .106-.085.262.262 0 0 1 .113 0 .092.092 0 0 1 .07 0 .247.247 0 0 1 .05.085.62.62 0 0 1 0 .085zm.395-.508v-.05h.036l.127-.077-.77 2.017a.232.232 0 0 1 0 .043v.035l-.128.07zm-.707.86v.085c0 .014 0 0 .043 0a.07.07 0 0 0 .05-.056v-.261a.352.352 0 0 0 0-.085h-.05a.106.106 0 0 0-.043.063.296.296 0 0 0 0 .1zm1.04.07a.795.795 0 0 1 0 .184c.003.05.003.1 0 .149-.014.045-.03.09-.05.134a.402.402 0 0 1-.078.112.261.261 0 0 1-.106.092.213.213 0 0 1-.106 0 .085.085 0 0 1-.07 0 .247.247 0 0 1-.05-.084.62.62 0 0 1 0-.12.598.598 0 0 1 0-.184 1.049 1.049 0 0 1 0-.148.754.754 0 0 1 .05-.134.31.31 0 0 1 .07-.113.41.41 0 0 1 .106-.092.262.262 0 0 1 .106 0 .1.1 0 0 1 .078 0 .247.247 0 0 1 .05.085.62.62 0 0 1 0 .092zm-.311.354v.084c0 .014 0 0 .042 0a.07.07 0 0 0 .05-.056.38.38 0 0 0 0-.106.57.57 0 0 0 0-.155.204.204 0 0 0 0-.085h-.05a.106.106 0 0 0-.042.064.296.296 0 0 0 0 .098zm-1.344-3.725v-1.348a5.762 5.762 0 0 0-1.98 2.117l.516.797a4.315 4.315 0 0 1 1.464-1.566z" fill="#455a64"/><path d="M229.533 107.479a2.78 2.78 0 0 0-1.223-1.884 1.97 1.97 0 0 0-1.98.155v1.348a1.46 1.46 0 0 1 1.464-.106c.488.322.816.834.905 1.41.083.364.123.736.12 1.108a6.927 6.927 0 0 1-.12 1.256 7.693 7.693 0 0 1-.905 2.427 4.435 4.435 0 0 1-1.464 1.58 1.46 1.46 0 0 1-1.464.106 2.044 2.044 0 0 1-.905-1.41 4.787 4.787 0 0 1-.12-1.108c.002-.422.042-.842.12-1.256a7.693 7.693 0 0 1 .884-2.427l-.516-.797a10.195 10.195 0 0 0-1.223 3.287 9.3 9.3 0 0 0-.17 1.7c-.002.507.055 1.01.17 1.503a2.758 2.758 0 0 0 1.223 1.884c.64.31 1.397.25 1.98-.155a5.819 5.819 0 0 0 1.98-2.117 10.364 10.364 0 0 0 1.223-3.287c.106-.56.16-1.13.163-1.7a6.484 6.484 0 0 0-.142-1.517z" fill="#90caf9"/><path d="M234.745 103.782l15.705-9.052c.417-.24.763-.07.763.388-.038.52-.321.991-.763 1.27l-15.705 9.045c-.424.246-.764.07-.764-.389a1.62 1.62 0 0 1 .764-1.262z" fill="#455a64"/><path d="M234.745 107.112l27.188-15.656c.425-.247.771-.07.771.388-.04.52-.326.99-.77 1.263l-27.19 15.663c-.423.24-.763.07-.763-.388.037-.521.32-.993.764-1.27z" fill="#e0e0e0"/><path d="M169.16 158.128l11.017-6.35c.424-.247.764-.07.764.381a1.63 1.63 0 0 1-.764 1.27l-11.017 6.35c-.424.247-.764.07-.764-.388a1.62 1.62 0 0 1 .764-1.263z" fill="#455a64"/><path d="M271.578 103.238v83.957a.98.98 0 0 1-.41.706l-107.325 61.804v-83.957c.033-.284.185-.54.417-.706l1.336-.769a2.39 2.39 0 0 0 1.125-1.933v-4.84a.98.98 0 0 1 .41-.706l15.408-8.875v4.515a1.148 1.148 0 0 0 1.131 1.25 1.43 1.43 0 0 0 .707-.198l87.215-50.24m.27-.897a.708.708 0 0 0-.34.106l-87.513 50.41a.708.708 0 0 1-.339.106c-.255 0-.424-.205-.424-.544v-4.86c0-.346-.177-.544-.425-.544a.708.708 0 0 0-.339.106l-15.705 9.045a1.692 1.692 0 0 0-.764 1.326v4.854a1.678 1.678 0 0 1-.77 1.32l-1.337.775c-.454.291-.74.782-.77 1.32v84.274c0 .346.176.55.424.55a.708.708 0 0 0 .346-.105l107.609-61.994c.451-.293.735-.783.763-1.32v-84.281c0-.346-.17-.544-.424-.544z" fill="#e0e0e0"/><path d="M170.058 169.43a.758.758 0 0 1-.375-.091.895.895 0 0 1-.403-.805v-3.196a2.045 2.045 0 0 1 .948-1.63l8.535-4.938a.886.886 0 0 1 .89-.057c.27.177.424.484.404.805v3.196a2.045 2.045 0 0 1-.948 1.63l-8.528 4.938a1.077 1.077 0 0 1-.523.148zm.523-5.108a1.312 1.312 0 0 0-.594 1.016v3.196a.268.268 0 0 0 .05.19.276.276 0 0 0 .19-.056l8.536-4.903c.342-.234.558-.61.587-1.023v-3.196a.268.268 0 0 0-.05-.19.276.276 0 0 0-.19.056z" fill="#e0e0e0"/><path d="M171.105 165.635l5.565-3.218c.282-.162.509-.049.509.254a1.08 1.08 0 0 1-.51.847l-5.564 3.224c-.283.163-.51.043-.51-.26.026-.348.215-.662.51-.847z" fill="#e0e0e0"/><path d="M177.942 161.888l.46.656s.05 0 .07-.042l.46-1.185v-.085l-.919.53a.113.113 0 0 0-.07.126z" fill="#455a64"/><g fill="#90caf9" transform="translate(111 54)"><path d="M57.884 146.438c.41-.233.707-.042.707.423a1.615 1.615 0 0 1-.707 1.277c-.41.233-.707.043-.707-.423.019-.514.281-.988.707-1.277zm5.756-6.618c.41-.233.743-.042.743.424-.028.52-.304.994-.743 1.277-.403.232-.707.042-.707-.424a1.63 1.63 0 0 1 .707-1.277zm5.735-3.309c.403-.232.707-.042.707.424a1.63 1.63 0 0 1-.707 1.277c-.41.232-.743.042-.743-.424.028-.52.304-.994.743-1.277zm5.742-1.855c.41-.233.707-.043.707.423a1.615 1.615 0 0 1-.707 1.277c-.41.233-.708.042-.708-.423.02-.514.282-.988.708-1.277zm5.748-5.962c.41-.233.708-.042.708.43a1.613 1.613 0 0 1-.708 1.27c-.403.24-.707.05-.707-.423a1.65 1.65 0 0 1 .707-1.277zm5.742-2.11c.41-.232.707-.042.707.424a1.615 1.615 0 0 1-.707 1.277c-.41.233-.707.042-.707-.423.019-.514.281-.988.707-1.277zm5.742-6.645c.41-.24.742-.05.742.423a1.63 1.63 0 0 1-.742 1.277c-.403.233-.707.042-.707-.43a1.63 1.63 0 0 1 .707-1.27zm5.749-1.63c.403-.233.707-.042.707.43-.023.51-.285.98-.707 1.27-.41.24-.707.05-.707-.423.02-.513.283-.986.707-1.277zm5.742-18.203c.41-.232.707-.042.707.43a1.643 1.643 0 0 1-.707 1.278c-.41.233-.708.042-.708-.43.022-.513.284-.986.708-1.278zm5.763 9.955c.403-.24.707-.049.707.424a1.65 1.65 0 0 1-.707 1.277c-.41.232-.743.042-.743-.43.029-.518.305-.99.743-1.27zm5.727 0c.41-.24.707-.049.707.424a1.636 1.636 0 0 1-.707 1.277c-.41.232-.707.042-.707-.43.02-.512.282-.984.707-1.27zm5.742 0c.41-.24.707-.049.707.424a1.643 1.643 0 0 1-.707 1.277c-.403.232-.707.042-.707-.43.023-.511.285-.981.707-1.27zm5.749-9.948c.403-.24.707-.049.707.424a1.65 1.65 0 0 1-.707 1.277c-.41.233-.743.042-.743-.43.03-.518.305-.99.743-1.27zm5.741-1.904c.41-.233.708-.043.708.423a1.615 1.615 0 0 1-.708 1.277c-.41.233-.707.042-.707-.423a1.62 1.62 0 0 1 .707-1.277zm5.763-8.03c.41-.232.743-.042.743.431-.029.518-.305.99-.743 1.27-.403.24-.707.05-.707-.423a1.65 1.65 0 0 1 .707-1.277z"/><ellipse cx="144.058" cy="91.046" rx="1.045" ry="1" transform="rotate(-60 144.058 91.046)"/><ellipse cx="149.807" cy="91.044" rx="1.045" ry="1" transform="rotate(-60 149.807 91.044)"/><path d="M155.565 86.87c.403-.232.707-.041.707.431-.023.51-.285.98-.707 1.27-.41.24-.743.05-.743-.423.032-.519.307-.993.743-1.277z"/><path d="M57.87 147.454a.191.191 0 0 1-.12-.042.183.183 0 0 1 0-.254l5.798-6.646.05-.043 5.7-3.28 5.734-1.856 5.713-5.933.07-.043 5.7-2.116 5.714-6.583a.297.297 0 0 1 .085-.056l5.657-1.63 5.699-18.082a.184.184 0 0 1 .148-.127.19.19 0 0 1 .177.091l5.692 9.835h11.314l5.664-9.8a.17.17 0 0 1 .1-.084l5.691-1.884 5.707-7.98a.191.191 0 0 1 .148-.07h11.441l5.7-3.288a.184.184 0 0 1 .247.064.183.183 0 0 1-.07.24l-5.742 3.316a.198.198 0 0 1-.092 0h-11.399l-5.692 7.951a.156.156 0 0 1-.085.063l-5.657 1.884-5.713 9.878a.184.184 0 0 1-.156.084h-11.49a.184.184 0 0 1-.149-.084l-5.544-9.581-5.621 17.835a.205.205 0 0 1-.12.12l-5.7 1.637-5.706 6.582-.07.05-5.714 2.116-5.714 5.934a.149.149 0 0 1-.07.042l-5.75 1.856-5.656 3.26-5.806 6.582a.175.175 0 0 1-.113.042z"/></g><path d="M168.884 204.982a.354.354 0 0 1-.304-.177.36.36 0 0 1 .127-.487l97.66-56.25a.352.352 0 0 1 .354.607l-97.66 56.229a.333.333 0 0 1-.177.078z" fill="#e0e0e0"/><g fill="#90caf9" transform="translate(111 54)"><path d="M57.884 143.13c.41-.234.707-.043.707.422a1.615 1.615 0 0 1-.707 1.277c-.41.233-.707.043-.707-.423.019-.514.281-.988.707-1.277zm5.756-9.928c.41-.232.743-.042.743.424-.028.52-.304.995-.743 1.277-.403.233-.707.042-.707-.424a1.63 1.63 0 0 1 .707-1.277z"/><ellipse cx="69.38" cy="132.82" rx="1.045" ry="1" transform="rotate(-60 69.38 132.82)"/><path d="M75.117 119.939c.41-.24.707-.05.707.423-.02.513-.282.987-.707 1.277-.41.233-.708.042-.708-.43.02-.512.283-.983.708-1.27zm5.748 3.337c.41-.233.708-.043.708.423-.02.513-.283.987-.708 1.277-.403.233-.707.042-.707-.423a1.63 1.63 0 0 1 .707-1.277zm5.742-1.658c.41-.233.707-.043.707.43-.02.512-.282.983-.707 1.27-.41.24-.707.05-.707-.423.022-.513.284-.986.707-1.277zm5.742-4.96c.41-.24.742-.05.742.423a1.63 1.63 0 0 1-.742 1.277c-.403.233-.707.043-.707-.423.02-.513.283-.986.707-1.277zm5.749-6.597c.403-.24.707-.049.707.424a1.65 1.65 0 0 1-.707 1.277c-.41.232-.707.042-.707-.43a1.61 1.61 0 0 1 .707-1.27zm5.742-1.679c.41-.233.707-.042.707.424-.02.513-.282.987-.707 1.277-.41.232-.708.042-.708-.424a1.62 1.62 0 0 1 .708-1.277zm5.763-4.96c.41-.24.707-.049.707.424a1.643 1.643 0 0 1-.707 1.277c-.404.233-.708.042-.708-.43.024-.511.285-.981.708-1.27zm5.727 0c.41-.24.707-.049.707.424a1.636 1.636 0 0 1-.707 1.277c-.41.233-.707.042-.707-.43.02-.512.282-.984.707-1.27zm5.742-13.242c.41-.233.707-.043.707.43-.02.511-.283.982-.707 1.27-.403.24-.707.05-.707-.423a1.65 1.65 0 0 1 .707-1.277zm5.749 6.575c.403-.233.707-.05.707.424a1.63 1.63 0 0 1-.707 1.277c-.41.232-.743.042-.743-.424.028-.52.304-.995.743-1.277zm5.741-6.575c.41-.233.708-.043.708.43a1.616 1.616 0 0 1-.708 1.27c-.41.24-.707.05-.707-.423.022-.513.284-.986.707-1.277zm5.75-3.31c.402-.232.706-.041.706.431-.023.51-.284.98-.707 1.27-.41.24-.742.05-.742-.423a1.64 1.64 0 0 1 .742-1.277zm5.741 0c.41-.232.707-.041.707.431-.02.512-.282.983-.707 1.27-.41.24-.707.05-.707-.423.022-.513.284-.986.707-1.277zm5.742-3.308c.41-.233.742-.042.742.43-.029.518-.305.99-.742 1.27-.403.24-.707.05-.707-.423a1.65 1.65 0 0 1 .707-1.277zm5.77 0c.403-.233.707-.042.707.43a1.63 1.63 0 0 1-.707 1.27c-.41.24-.743.05-.743-.423.032-.519.307-.992.743-1.277z"/><path d="M57.884 144.16a.156.156 0 0 1-.092 0 .176.176 0 0 1-.063-.24l5.784-9.949a.163.163 0 0 1 .12-.084l5.615-1.2 5.706-11.923a.184.184 0 0 1 .113-.092.17.17 0 0 1 .142 0l5.656 3.274 5.657-1.63 5.707-4.938 5.734-6.604a.141.141 0 0 1 .085-.057l5.707-1.643 5.713-4.939a.177.177 0 0 1 .12-.042h5.657l5.671-13.13a.198.198 0 0 1 .142-.106.17.17 0 0 1 .155.064l5.615 6.462 5.607-6.462a.141.141 0 0 1 .05-.043l5.763-3.316a.135.135 0 0 1 .085 0h5.699l5.657-3.273a.191.191 0 0 1 .085 0h5.79a.177.177 0 1 1 0 .352h-5.698l-5.657 3.274h-5.785l-5.699 3.28-5.72 6.597a.184.184 0 0 1-.27 0l-5.564-6.406-5.657 12.982a.177.177 0 0 1-.163.106h-5.657l-5.748 4.882h-.071l-5.692 1.637-5.72 6.582-5.757 4.981-.063.035-5.742 1.658a.156.156 0 0 1-.135 0l-5.586-3.217-5.657 11.832a.148.148 0 0 1-.12.092l-5.657 1.199-5.749 9.877a.17.17 0 0 1-.113.127z"/></g><g fill="#000" opacity=".3" transform="translate(167.569 137.252)"><path d="M1.315 59.878c.41-.233.707-.043.707.423a1.615 1.615 0 0 1-.707 1.277c-.41.233-.707.042-.707-.423.019-.514.281-.988.707-1.277zm5.756-9.927c.41-.233.743-.042.743.423-.028.52-.304.995-.743 1.277-.403.233-.707.043-.707-.423.02-.513.283-.986.707-1.277z"/><ellipse cx="12.811" cy="49.569" rx="1.045" ry="1" transform="rotate(-60 12.811 49.569)"/><path d="M18.548 36.687c.41-.24.707-.05.707.423-.02.514-.282.987-.707 1.277-.41.233-.708.043-.708-.43a1.61 1.61 0 0 1 .708-1.27zm5.748 3.337c.41-.233.708-.042.708.424-.02.513-.283.987-.708 1.277-.403.232-.707.042-.707-.424a1.63 1.63 0 0 1 .707-1.277zm5.742-1.658c.41-.233.707-.042.707.43-.02.512-.282.984-.707 1.27-.41.24-.707.05-.707-.423.022-.512.284-.985.707-1.277zm5.742-4.96c.41-.24.742-.049.742.424a1.63 1.63 0 0 1-.742 1.277c-.403.233-.707.042-.707-.424.02-.513.283-.986.707-1.277zm5.749-6.596c.403-.24.707-.05.707.423a1.65 1.65 0 0 1-.707 1.277c-.41.233-.707.042-.707-.43.02-.511.283-.982.707-1.27zm5.742-1.68c.41-.232.707-.042.707.424-.02.513-.282.987-.707 1.277-.41.233-.708.042-.708-.423.02-.514.282-.988.708-1.277zm5.762-4.96c.41-.239.708-.049.708.424a1.643 1.643 0 0 1-.708 1.277c-.403.233-.707.042-.707-.43.023-.51.285-.98.707-1.27zm5.728 0c.41-.239.707-.049.707.424a1.636 1.636 0 0 1-.707 1.277c-.41.233-.707.042-.707-.43.02-.512.282-.983.707-1.27zm5.742-13.242c.41-.233.707-.042.707.43a1.612 1.612 0 0 1-.707 1.27c-.403.24-.707.05-.707-.423a1.65 1.65 0 0 1 .707-1.277zm5.749 6.576c.403-.233.707-.05.707.423a1.63 1.63 0 0 1-.707 1.277c-.41.233-.743.042-.743-.423.028-.52.304-.995.743-1.277zm5.741-6.576c.41-.233.708-.042.708.43a1.613 1.613 0 0 1-.708 1.27c-.41.24-.707.05-.707-.423.022-.513.284-.985.707-1.277zm5.75-3.309c.402-.232.706-.042.706.43a1.628 1.628 0 0 1-.707 1.27c-.41.24-.742.05-.742-.423.031-.519.306-.992.742-1.277zm5.741 0c.41-.232.707-.042.707.43-.02.512-.282.984-.707 1.27-.41.24-.707.05-.707-.423.022-.512.284-.985.707-1.277zM93.226.31c.41-.232.742-.042.742.43-.029.518-.305.99-.742 1.27-.403.24-.707.05-.707-.423A1.65 1.65 0 0 1 93.226.31zm5.77 0c.403-.232.707-.042.707.43a1.628 1.628 0 0 1-.707 1.27c-.41.24-.743.05-.743-.423.032-.518.307-.992.743-1.277z"/><path d="M1.315 60.908a.156.156 0 0 1-.092 0 .176.176 0 0 1-.063-.24l5.784-9.948a.163.163 0 0 1 .12-.085l5.615-1.2 5.706-11.922a.184.184 0 0 1 .113-.092.17.17 0 0 1 .141 0l5.657 3.273 5.657-1.63 5.707-4.938 5.734-6.604a.141.141 0 0 1 .085-.056l5.707-1.644 5.713-4.939a.177.177 0 0 1 .12-.042h5.657l5.671-13.13a.198.198 0 0 1 .142-.105.17.17 0 0 1 .155.063l5.615 6.463 5.607-6.463a.141.141 0 0 1 .05-.042l5.763-3.316a.135.135 0 0 1 .084 0h5.7l5.657-3.274a.191.191 0 0 1 .085 0h5.79a.177.177 0 1 1 0 .353h-5.699L87.64 4.663h-5.785l-5.699 3.281-5.72 6.597a.184.184 0 0 1-.27 0l-5.564-6.406-5.657 12.981a.177.177 0 0 1-.163.106h-5.657l-5.748 4.882h-.071l-5.692 1.637-5.72 6.583-5.757 4.98-.063.036-5.742 1.658a.156.156 0 0 1-.135 0l-5.586-3.217-5.657 11.831a.148.148 0 0 1-.12.092l-5.657 1.2-5.749 9.877a.17.17 0 0 1-.113.127z"/></g><path d="M171.89 172.577l5.579-3.224c.282-.163.509-.05.509.26a1.08 1.08 0 0 1-.51.84l-5.564 3.225c-.276.162-.51.049-.51-.261a1.1 1.1 0 0 1 .495-.84z" fill="#e0e0e0"/><path d="M168.884 173.939c.41-.24.707-.05.707.423a1.615 1.615 0 0 1-.707 1.277c-.41.233-.742.042-.742-.423.028-.52.304-.995.742-1.277z" fill="#90caf9"/><path d="M168.884 173.939c.41-.24.707-.05.707.423a1.615 1.615 0 0 1-.707 1.277c-.41.233-.742.042-.742-.423.028-.52.304-.995.742-1.277z" fill="#000" opacity=".3"/><path d="M171.89 175.872l5.564-3.217c.283-.163.51-.05.51.254a1.08 1.08 0 0 1-.51.846l-5.565 3.224c-.275.163-.509.043-.509-.26.028-.347.216-.66.51-.847z" fill="#e0e0e0"/><path d="M168.884 177.276c.41-.233.707-.05.707.423a1.615 1.615 0 0 1-.707 1.277c-.41.233-.742.042-.742-.423.028-.52.304-.995.742-1.277zm0 44.095a.176.176 0 0 1-.12-.303l2.913-2.992 2.829-.36 2.892-3.725 2.892.395 2.828-2.533 2.871-1.714 2.92-4.043 2.907.91 2.793-2.49a.177.177 0 0 1 .248 0 .162.162 0 0 1 0 .247l-2.942 2.624-2.829-.896-2.828 3.916-2.87 1.714-2.907 2.625-2.829-.388-2.828 3.676-3.012.353-2.829 2.9a.19.19 0 0 1-.099.084z" fill="#90caf9"/><path d="M170.023 211.691a.318.318 0 0 1 .07-.063.786.786 0 0 1 .51-.183.503.503 0 0 1 .346.126.832.832 0 0 1 .226.36c.06.184.089.378.085.571 0 .222-.029.442-.085.657a3.008 3.008 0 0 1-.226.628c-.09.191-.207.37-.346.529a1.64 1.64 0 0 1-.432.367.871.871 0 0 1-.438.134.538.538 0 0 1-.34-.134.84.84 0 0 1-.233-.36 1.922 1.922 0 0 1-.078-.572c-.01-.12-.01-.24 0-.36.016-.116.04-.232.071-.345 0-.113.064-.219.099-.325.035-.106.07-.211.106-.31l.764-2.173a.754.754 0 0 0 .05-.106.17.17 0 0 1 .084-.099l.24-.134a.035.035 0 0 1 .057 0v.176zm-.545 1.834c0 .115.017.23.05.34a.543.543 0 0 0 .141.232.326.326 0 0 0 .212.092.56.56 0 0 0 .29-.085 1.35 1.35 0 0 0 .29-.247 1.7 1.7 0 0 0 .212-.339c.123-.245.186-.516.184-.79a1.232 1.232 0 0 0-.042-.338.543.543 0 0 0-.142-.233.326.326 0 0 0-.212-.092.61.61 0 0 0-.29.085c-.109.066-.207.15-.29.247a1.566 1.566 0 0 0-.212.345 1.818 1.818 0 0 0-.19.783zm2.496-1.037c.015.06.034.12.057.177a.247.247 0 0 0 .113.113.298.298 0 0 0 .198 0 1.02 1.02 0 0 0 .325-.134 1.223 1.223 0 0 0 .453-.459 1.41 1.41 0 0 0 .19-.734.803.803 0 0 0-.049-.324.268.268 0 0 0-.134-.156.333.333 0 0 0-.205 0 .977.977 0 0 0-.255.113l-.346.198a.064.064 0 0 1-.085 0 .14.14 0 0 1 0-.099v-.233a.359.359 0 0 1 0-.12l.042-.113.757-1.693-1.21.706a.05.05 0 0 1-.077 0s-.035-.05-.035-.099v-.233a.246.246 0 0 1 .035-.14.19.19 0 0 1 .078-.1l1.655-.952h.077a.127.127 0 0 1 0 .106v.197a.436.436 0 0 1 0 .127.543.543 0 0 1-.056.134l-.743 1.665a.822.822 0 0 1 .39-.12.404.404 0 0 1 .296.092c.094.08.16.185.191.303.052.162.076.332.07.501a2.537 2.537 0 0 1-.311 1.213 2.42 2.42 0 0 1-.332.466 1.696 1.696 0 0 1-.403.325 1.204 1.204 0 0 1-.488.183.496.496 0 0 1-.332-.07.543.543 0 0 1-.198-.254 1.077 1.077 0 0 1-.07-.381.225.225 0 0 1 0-.113.176.176 0 0 1 .063-.078l.19-.112h.079c.035.022.06.058.07.098zm2.504-1.439a.514.514 0 0 0 .056.176.219.219 0 0 0 .113.113.298.298 0 0 0 .198 0 1.02 1.02 0 0 0 .326-.134 1.223 1.223 0 0 0 .452-.465 1.39 1.39 0 0 0 .191-.727.803.803 0 0 0-.05-.325.297.297 0 0 0-.134-.155.333.333 0 0 0-.205 0 1.225 1.225 0 0 0-.254.106l-.354.205a.064.064 0 0 1-.078 0 .14.14 0 0 1 0-.1v-.232a.232.232 0 0 1 0-.12.972.972 0 0 1 .043-.113l.756-1.693-1.209.705a.064.064 0 0 1-.085 0 .14.14 0 0 1 0-.098v-.233a.317.317 0 0 1 0-.141.17.17 0 0 1 .085-.099l1.655-.96a.064.064 0 0 1 .077 0 .15.15 0 0 1 .036.106v.233a.472.472 0 0 1 0 .127c0 .042-.036.085-.057.134l-.742 1.665a.935.935 0 0 1 .382-.127c.11-.005.218.03.304.099a.705.705 0 0 1 .19.296c.05.165.074.336.071.508 0 .217-.028.433-.085.642-.053.196-.13.386-.226.565-.088.17-.2.326-.332.465-.117.13-.253.242-.403.332a1.24 1.24 0 0 1-.488.183.574.574 0 0 1-.34-.07.65.65 0 0 1-.198-.254 1.077 1.077 0 0 1-.063-.381.225.225 0 0 1 0-.113.162.162 0 0 1 .063-.085l.191-.105a.057.057 0 0 1 .078 0c.018.02.03.044.036.07z" fill="#455a64"/><path d="M169.4 223.65l24.827-14.358c.276-.162.51-.042.51.261-.028.347-.216.66-.51.847L169.4 224.736c-.275.162-.509.05-.509-.26a1.1 1.1 0 0 1 .51-.826zm0-16.552l5.565-3.217c.283-.162.51-.05.51.254a1.093 1.093 0 0 1-.51.847l-5.565 3.217c-.275.162-.509.05-.509-.254a1.11 1.11 0 0 1 .51-.847z" fill="#e0e0e0"/><path d="M168.884 241.21a.163.163 0 0 1-.12-.056.17.17 0 0 1 0-.247l2.913-2.992 2.885-.36 2.9-2.532 2.828-.762 2.92-5.793 2.92 1.411 2.83-2.483h.049l2.793-.53 2.828-4.874a.177.177 0 1 1 .304.176l-2.906 5.016-2.906.55-2.928 2.569-2.828-1.411-2.829 5.644-2.906.79-2.885 2.533-2.864.367-2.828 2.9a.191.191 0 0 1-.17.084z" fill="#90caf9"/><path d="M168.884 241.21a.163.163 0 0 1-.12-.056.17.17 0 0 1 0-.247l2.913-2.992 2.885-.36 2.9-2.532 2.828-.762 2.92-5.793 2.92 1.411 2.83-2.483h.049l2.793-.53 2.828-4.874a.177.177 0 1 1 .304.176l-2.906 5.016-2.906.55-2.928 2.569-2.828-1.411-2.829 5.644-2.906.79-2.885 2.533-2.864.367-2.828 2.9a.191.191 0 0 1-.17.084z" fill="#000" opacity=".3"/><path d="M170.348 234.176c.01.049.01.1 0 .148a.184.184 0 0 1-.085.092l-.17.099a.057.057 0 0 1-.077 0 .148.148 0 0 1 0-.106v-3.528l-.707 1.186c-.029.051-.057.08-.085.084a.057.057 0 0 1-.078 0l-.1-.14a.14.14 0 0 1 0-.114c0-.05.016-.099.043-.14l.898-1.581a.282.282 0 0 1 .071-.085l.064-.042.17-.099a.064.064 0 0 1 .084 0 .127.127 0 0 1 0 .099zm1.838-3.26c.078-.146.142-.3.191-.458.045-.166.066-.337.064-.508a.747.747 0 0 0-.134-.5c-.085-.1-.22-.1-.41 0a.806.806 0 0 0-.248.21 1.41 1.41 0 0 0-.177.276 2.486 2.486 0 0 0-.106.324c-.028.112-.05.225-.063.34a.423.423 0 0 1-.043.133.254.254 0 0 1-.07.078l-.191.106h-.064a.113.113 0 0 1 0-.085 2.888 2.888 0 0 1 .262-1.087 3.16 3.16 0 0 1 .31-.508 1.48 1.48 0 0 1 .418-.366.8.8 0 0 1 .41-.127c.11.004.212.05.29.127a.74.74 0 0 1 .184.338c.039.164.058.332.056.501.008.13.008.259 0 .388a3.196 3.196 0 0 1-.063.36 4.55 4.55 0 0 1-.128.367c-.05.127-.113.254-.183.395l-.94 1.884 1.286-.741a.057.057 0 0 1 .078 0v.331a.246.246 0 0 1 0 .142.162.162 0 0 1-.078.098l-1.81 1.045a.064.064 0 0 1-.078 0 .14.14 0 0 1-.035-.1v-.232a.408.408 0 0 1 0-.134c.02-.058.043-.115.07-.17zm3.324-2.335v1.087c0 .248-.02.496-.064.74-.043.242-.11.478-.198.706a2.242 2.242 0 0 1-.332.565 1.64 1.64 0 0 1-.474.409.836.836 0 0 1-.48.14.481.481 0 0 1-.326-.183 1.064 1.064 0 0 1-.198-.451 3.597 3.597 0 0 1-.07-.663v-1.115c.005-.25.029-.5.07-.748.037-.242.104-.48.198-.705.084-.201.194-.391.325-.565.133-.168.296-.309.481-.416a.8.8 0 0 1 .474-.134.467.467 0 0 1 .332.19c.098.135.165.29.198.452.048.227.069.46.064.691zm-1.747 2.117a1.33 1.33 0 0 0 .177.797c.113.134.283.134.502 0 .225-.133.399-.336.495-.578.126-.322.189-.664.184-1.01v-1.086a1.331 1.331 0 0 0-.184-.804c-.113-.134-.276-.134-.495 0a1.193 1.193 0 0 0-.502.578 2.69 2.69 0 0 0-.177 1.01z" fill="#455a64"/><path d="M169.4 243.482l24.827-14.35c.276-.163.51-.05.51.26a1.1 1.1 0 0 1-.51.84L169.4 244.59c-.275.162-.509.042-.509-.261.028-.347.216-.66.51-.847zm0-16.552l5.565-3.224c.283-.162.51-.042.51.261a1.093 1.093 0 0 1-.51.847l-5.565 3.217c-.275.162-.509.05-.509-.254a1.1 1.1 0 0 1 .51-.847z" fill="#e0e0e0"/><path d="M203.349 201.454a.184.184 0 0 1-.134-.07.17.17 0 0 1 0-.247l2.87-2.286 2.893-3.295 2.934-.43 2.829-.628 2.906-3.415 2.828.5 2.829-4.522 2.913.043 2.828-2.505a.177.177 0 0 1 .255 0 .176.176 0 0 1 0 .247l-2.92 2.603-2.829-.049-2.878 4.558-2.892-.508-2.828 3.35-2.935.664-2.828.41-2.829 3.216-2.899 2.364a.177.177 0 0 1-.113 0z" fill="#90caf9"/><path d="M204.487 191.795l.071-.063.078-.057a.808.808 0 0 1 .41-.098.51.51 0 0 1 .347.127.9.9 0 0 1 .226.36c.054.185.08.378.078.571a2.97 2.97 0 0 1-.078.656 3.512 3.512 0 0 1-.226.628 2.54 2.54 0 0 1-.347.53 1.64 1.64 0 0 1-.438.366.85.85 0 0 1-.432.134.56.56 0 0 1-.346-.134.832.832 0 0 1-.198-.416 1.71 1.71 0 0 1-.085-.572 3.083 3.083 0 0 1 0-.36c0-.12.042-.232.07-.345l.1-.332c.035-.106.077-.204.113-.303l.763-2.173.043-.106a.233.233 0 0 1 .085-.099l.24-.134h.064a.12.12 0 0 1 0 .085.134.134 0 0 1 0 .056.056.056 0 0 1 0 .036zm-.537 1.835a.99.99 0 0 0 .05.338.53.53 0 0 0 .134.233c.059.057.137.09.22.092.1-.001.197-.03.282-.085.11-.066.207-.15.29-.247.085-.107.159-.223.219-.345a1.95 1.95 0 0 0 .184-.783c0-.115-.017-.23-.05-.34a.613.613 0 0 0-.134-.232.361.361 0 0 0-.22-.092.637.637 0 0 0-.29.085 1.361 1.361 0 0 0-.502.593 1.818 1.818 0 0 0-.134.388c-.033.129-.05.261-.049.395zm3.45-2.872c.079-.149.143-.305.192-.465.04-.167.062-.337.063-.508a.76.76 0 0 0-.134-.494c-.085-.106-.226-.099-.41 0a1.046 1.046 0 0 0-.255.204 1.573 1.573 0 0 0-.276.6c0 .113-.049.226-.07.339a.331.331 0 0 1-.043.134.184.184 0 0 1-.063.077l-.191.113a.057.057 0 0 1-.07 0 .12.12 0 0 1 0-.084c0-.177.024-.352.07-.522a2.733 2.733 0 0 1 .502-1.066 1.49 1.49 0 0 1 .417-.374.78.78 0 0 1 .403-.12.41.41 0 0 1 .297.127.705.705 0 0 1 .177.332c.044.165.066.336.063.508a3.26 3.26 0 0 1 0 .38 2.155 2.155 0 0 1-.07.36 2.768 2.768 0 0 1-.12.368 9.207 9.207 0 0 1-.184.395l-.94 1.883 1.286-.74a.064.064 0 0 1 .078 0 .144.144 0 0 1 .035.105v.233a.373.373 0 0 1-.035.141.282.282 0 0 1-.078.1l-1.81 1.036h-.085a.148.148 0 0 1 0-.106v-.232a.408.408 0 0 1 0-.134.937.937 0 0 1 .07-.163zm2.857-3.788a.057.057 0 0 1 .078 0 .12.12 0 0 1 .036.105v.269a.873.873 0 0 1 0 .127c.002.051.002.103 0 .155l-.934 4.233a.94.94 0 0 1-.05.134.17.17 0 0 1-.077.092l-.191.113a.057.057 0 0 1-.07 0 .12.12 0 0 1 0-.092.218.218 0 0 1 0-.057l.933-4.233-1.415.797a.064.064 0 0 1-.077 0 .148.148 0 0 1-.036-.105v-.233a.373.373 0 0 1 .036-.141.233.233 0 0 1 .077-.099z" fill="#455a64"/><path d="M203.872 203.754l24.82-14.357c.283-.163.509-.043.509.26a1.093 1.093 0 0 1-.51.847l-24.819 14.35c-.283.163-.509.043-.509-.26a1.08 1.08 0 0 1 .51-.84zm0-16.559l5.558-3.217c.283-.162.516-.05.516.254a1.1 1.1 0 0 1-.516.847l-5.558 3.217c-.283.162-.509.05-.509-.254.025-.347.214-.661.51-.847z" fill="#e0e0e0"/><path d="M203.349 221.307a.22.22 0 0 1-.092 0 .19.19 0 0 1-.057-.247l2.935-4.797 2.956.543 2.779-.762 2.87-3.492 2.829-.706 2.9-5.164 2.969.86 2.786-.529 2.829-2.511a.177.177 0 0 1 .308.087.176.176 0 0 1-.075.174l-2.906 2.582h-.043l-2.927.55-2.737-.797-2.828 5.052-2.892.705-2.871 3.493h-.05l-2.913.797h-.042l-2.751-.508-2.829 4.593a.177.177 0 0 1-.148.077z" fill="#90caf9"/><path d="M203.349 221.307a.22.22 0 0 1-.092 0 .19.19 0 0 1-.057-.247l2.935-4.797 2.956.543 2.779-.762 2.87-3.492 2.829-.706 2.9-5.164 2.969.86 2.786-.529 2.829-2.511a.177.177 0 0 1 .308.087.176.176 0 0 1-.075.174l-2.906 2.582h-.043l-2.927.55-2.737-.797-2.828 5.052-2.892.705-2.871 3.493h-.05l-2.913.797h-.042l-2.751-.508-2.829 4.593a.177.177 0 0 1-.148.077z" fill="#000" opacity=".3"/><path d="M204.678 212.99l-.056.042h-.057a.871.871 0 0 1-.389.127.524.524 0 0 1-.34-.106.705.705 0 0 1-.204-.31 1.598 1.598 0 0 1-.092-.6c0-.222.029-.442.085-.656.055-.212.13-.418.226-.614a2.59 2.59 0 0 1 .34-.508c.112-.14.249-.26.402-.353a.928.928 0 0 1 .439-.141.5.5 0 0 1 .332.134.81.81 0 0 1 .212.36c.052.183.076.374.071.564.01.115.01.23 0 .346 0 .12-.056.24-.085.367s-.07.24-.113.36c-.042.12-.07.225-.106.317l-.764 2.173-.05.106a.17.17 0 0 1-.084.099l-.24.14a.042.042 0 0 1-.057 0 .155.155 0 0 1 0-.091v-.05a.275.275 0 0 0 0-.042zm.545-1.828a1.02 1.02 0 0 0-.05-.346.444.444 0 0 0-.127-.19.276.276 0 0 0-.205-.078.602.602 0 0 0-.269.078c-.1.06-.191.137-.268.226a1.41 1.41 0 0 0-.206.317c-.12.24-.18.507-.176.776-.003.12.012.238.042.353a.5.5 0 0 0 .134.219c.057.05.13.077.206.077a.467.467 0 0 0 .268-.077c.1-.061.192-.138.269-.226a1.684 1.684 0 0 0 .382-1.129zm1.089 1.34c.013.062.035.12.063.177a.261.261 0 0 0 .114.12.351.351 0 0 0 .198 0 1.02 1.02 0 0 0 .325-.134 1.223 1.223 0 0 0 .452-.459 1.8 1.8 0 0 0 .142-.339c.035-.128.052-.261.05-.395a.803.803 0 0 0-.05-.324.297.297 0 0 0-.135-.155.397.397 0 0 0-.205 0 .977.977 0 0 0-.254.113l-.354.197a.057.057 0 0 1-.078 0 .127.127 0 0 1 0-.099v-.233a.359.359 0 0 1 0-.12l.05-.112.757-1.694-1.217.706a.057.057 0 0 1-.077 0 .162.162 0 0 1-.036-.106v-.233a.345.345 0 0 1 .036-.14.233.233 0 0 1 .077-.1l1.662-.952a.057.057 0 0 1 .078 0 .14.14 0 0 1 .035.099v.233a.401.401 0 0 1 0 .127c-.016.045-.035.09-.056.134l-.743 1.665a.822.822 0 0 1 .382-.12.418.418 0 0 1 .297.091c.093.08.162.186.198.304.049.162.073.331.07.5a2.36 2.36 0 0 1-.084.643 2.42 2.42 0 0 1-.559 1.037 1.696 1.696 0 0 1-.403.324 1.24 1.24 0 0 1-.488.184.531.531 0 0 1-.34-.07.65.65 0 0 1-.197-.255 1.063 1.063 0 0 1-.064-.374.359.359 0 0 1 0-.12.19.19 0 0 1 .07-.077l.192-.113h.07a.083.083 0 0 1 .022.07z" fill="#455a64"/><path d="M203.872 223.586l24.82-14.371c.283-.163.509-.05.509.26a1.08 1.08 0 0 1-.51.84l-24.819 14.358c-.283.162-.509.042-.509-.261.032-.34.22-.645.51-.826zm0-16.551l5.558-3.225c.283-.162.516-.042.516.261a1.1 1.1 0 0 1-.516.847l-5.558 3.217c-.283.163-.509.05-.509-.254a1.08 1.08 0 0 1 .51-.846z" fill="#e0e0e0"/><path d="M240.692 169.268a3.245 3.245 0 0 1 3.245-.268l-3.274 8.805z" fill="#90caf9"/><path d="M237.418 172.796a9.716 9.716 0 0 1 3.274-3.528v8.565z" fill="#90caf9"/><path d="M235.388 178.242a17.183 17.183 0 0 1 2.03-5.446l3.274 5.037z" fill="#90caf9"/><path d="M237.418 172.796a17.183 17.183 0 0 0-2.03 5.446l5.304-.409v-8.565a9.716 9.716 0 0 0-3.274 3.528z" fill="#000" opacity=".3"/><path d="M243.937 169a4.571 4.571 0 0 1 2.03 3.104l-5.304 5.7zm-8.549 14.534a10.652 10.652 0 0 1-.276-2.49 15.1 15.1 0 0 1 .276-2.823l5.304-.409zm10.607-6.11a17.183 17.183 0 0 1-2.03 5.447l-3.273-5.038zm-5.303 8.974a3.245 3.245 0 0 1-3.274.24l3.274-8.805z" fill="#90caf9"/><path d="M235.388 183.534l5.304-5.7-3.274 8.804a4.571 4.571 0 0 1-2.03-3.104zm10.607-11.401c.187.816.277 1.652.269 2.49a15.015 15.015 0 0 1-.27 2.822l-5.302.41z" fill="#90caf9"/><path d="M243.937 182.87a9.716 9.716 0 0 1-3.274 3.528v-8.565z" fill="#90caf9"/><path d="M237.913 190.765l5.558-3.217c.282-.162.509-.05.509.254a1.093 1.093 0 0 1-.51.847l-5.557 3.217c-.283.162-.51.05-.51-.254.026-.347.215-.661.51-.847z" fill="#455a64"/><path d="M236.682 194.794l8.019-4.628c.283-.163.509-.05.509.26a1.08 1.08 0 0 1-.51.84l-8.018 4.643c-.283.162-.509.049-.509-.254.018-.353.209-.675.51-.861zm0 3.316l8.019-4.643c.283-.162.509-.042.509.262a1.08 1.08 0 0 1-.51.84l-8.018 4.641c-.283.163-.509.05-.509-.254a1.08 1.08 0 0 1 .51-.846zm0 3.344l8.019-4.642c.283-.163.509-.043.509.26a1.093 1.093 0 0 1-.51.847l-8.018 4.636c-.283.162-.509.049-.509-.254.025-.347.214-.662.51-.847z" fill="#e0e0e0"/><path d="M260.795 157.641a3.245 3.245 0 0 1 3.274-.24l-3.274 8.777zm-3.274 3.528a9.78 9.78 0 0 1 3.274-3.528v8.537zm-2.022 5.446a17.176 17.176 0 0 1 2.022-5.446l3.274 5.037zm8.57-9.214a4.571 4.571 0 0 1 2.03 3.105l-5.304 5.7z" fill="#90caf9"/><path d="M255.499 171.907a10.652 10.652 0 0 1-.276-2.49c.003-.948.096-1.893.276-2.823l5.296-.409zm10.6-6.11a17.12 17.12 0 0 1-2.03 5.447l-3.274-5.066z" fill="#90caf9"/><path d="M260.795 174.771a3.259 3.259 0 0 1-3.274.247l3.274-8.84z" fill="#90caf9"/><path d="M255.499 171.907l5.296-5.7-3.274 8.811a4.6 4.6 0 0 1-2.022-3.111z" fill="#90caf9"/><path d="M257.52 161.169a17.176 17.176 0 0 0-2.021 5.446c-.18.93-.273 1.875-.276 2.822-.007.839.086 1.674.276 2.49a4.6 4.6 0 0 0 2.022 3.112l3.274-8.861v-8.537a9.78 9.78 0 0 0-3.274 3.528z" fill="#000" opacity=".3"/><path d="M266.098 160.534c.19.816.282 1.652.276 2.49a15.1 15.1 0 0 1-.276 2.822l-5.303.41z" fill="#90caf9"/><path d="M264.069 171.244a9.66 9.66 0 0 1-3.274 3.527v-8.593z" fill="#90caf9"/><path d="M258.016 179.18l5.565-3.217c.283-.162.509-.049.509.254a1.08 1.08 0 0 1-.51.847l-5.564 3.224c-.283.163-.51.043-.51-.26.026-.348.215-.662.51-.847z" fill="#455a64"/><path d="M256.793 183.21l8.011-4.643c.283-.162.51-.042.51.26a1.093 1.093 0 0 1-.51.848l-8.011 4.635c-.283.162-.517.05-.517-.254a1.1 1.1 0 0 1 .517-.847zm0 3.315l8.011-4.635c.283-.162.51-.05.51.254a1.093 1.093 0 0 1-.51.846l-8.011 4.636c-.283.17-.517.05-.517-.254a1.1 1.1 0 0 1 .517-.847zm0 3.316l8.011-4.614c.283-.162.51-.05.51.254a1.093 1.093 0 0 1-.51.847l-8.011 4.642c-.283.162-.517.042-.517-.261a1.1 1.1 0 0 1 .517-.868z" fill="#e0e0e0"/><g><path d="M260.78 272.188a9.336 9.336 0 0 0-4.024-7.487c-1.146-.701-2.2-.806-2.985-.407-4.732 2.356-37.983 23.492-40.112 24.537a1.49 1.49 0 0 0-.707 1.36 4.7 4.7 0 0 0 2.023 3.764 1.503 1.503 0 0 0 1.52.196c3.367-1.836 36.194-15.703 42.9-19.264.834-.42 1.343-1.353 1.386-2.699z" fill="#90caf9"/><path d="M259.472 267.631a8.441 8.441 0 0 0-2.716-2.93c-1.139-.701-2.193-.806-2.97-.414l-.1.05c-4.321 2.194-29.07 17.84-37.396 22.93h-.056l-.34.21-.099.064-.19.112-.227.133c-.877.533-1.478.876-1.705.988-.07.044-.133.096-.19.155a1.619 1.619 0 0 0-.482 1.205c-.01.157-.01.314 0 .47v.19c0 .062 0 .189.057.287l.064.231c0 .091.056.175.092.267.019.069.043.137.07.203z" fill="#000" opacity=".1"/><path d="M214.982 293.97a4.665 4.665 0 0 1-2.016-3.751c.043-1.353 1.019-1.872 2.186-1.157a4.706 4.706 0 0 1 1.994 3.75c0 1.332-1.004 1.872-2.164 1.157z" fill="#90caf9"/><path d="M205.044 294.88a3.61 3.61 0 0 0 1.55 2.882c.331.25.772.31 1.16.154l8.048-4.241c.346-.23.54-.627.51-1.038a3.609 3.609 0 0 0-1.55-2.881 1.169 1.169 0 0 0-1.16-.147l-8.042 4.24c-.344.23-.54.621-.516 1.031z" fill="#37474f"/><path d="M205.568 293.836a1.153 1.153 0 0 0-.524 1.044c-.004.421.077.839.24 1.227l10.377-5.468a3.127 3.127 0 0 0-.891-.883 1.169 1.169 0 0 0-1.16-.147l-8.042 4.24z" fill="#263238"/><path d="M215.364 301.954c0-5.11-3.41-10.214-10.22-14.112-13.624-7.795-35.713-7.795-49.336 0-6.812 3.898-10.22 9.001-10.22 14.112v9.415c0 5.103 3.408 10.214 10.22 14.111 13.623 7.796 35.712 7.796 49.335 0 6.812-3.897 10.22-9.008 10.22-14.111zm-57.866-11.217c6.083-3.505 14.246-5.398 22.981-5.398 8.735 0 16.898 1.914 22.98 5.398 5.504 3.148 8.531 7.13 8.531 11.217s-3.027 8.076-8.53 11.216c-6.083 3.505-14.246 5.398-22.981 5.398-8.735 0-16.898-1.92-22.98-5.398-5.504-3.147-8.538-7.136-8.538-11.216s3.034-8.07 8.537-11.217z" fill="#90caf9"/><path d="M155.808 316.073c13.623 7.795 35.712 7.795 49.335 0 13.623-7.796 13.623-20.435 0-28.23-13.623-7.796-35.712-7.796-49.335 0-13.623 7.795-13.637 20.434 0 28.23zm-6.847-14.12c0-4.086 3.027-8.068 8.53-11.216 6.083-3.505 14.246-5.398 22.981-5.398 8.735 0 16.898 1.914 22.988 5.398 5.496 3.148 8.53 7.13 8.53 11.217s-3.034 8.076-8.53 11.216c-6.09 3.505-14.253 5.398-22.988 5.398s-16.898-1.92-22.98-5.398c-5.497-3.14-8.531-7.108-8.531-11.216z" fill="#fff" opacity=".3"/><path d="M148.961 301.954a9.29 9.29 0 0 0 1.358 4.71c1.415-2.376 3.82-4.605 7.18-6.519 6.075-3.505 14.238-5.398 22.98-5.398s16.898 1.914 22.974 5.398c3.352 1.914 5.793 4.143 7.179 6.52a9.29 9.29 0 0 0 1.358-4.711c0-4.087-3.027-8.07-8.537-11.217-6.076-3.505-14.246-5.398-22.974-5.398s-16.905 1.921-22.98 5.398c-5.51 3.148-8.538 7.13-8.538 11.217z" fill="#90caf9"/><path d="M148.961 301.954a9.29 9.29 0 0 0 1.358 4.71c1.415-2.376 3.82-4.605 7.18-6.519 6.075-3.505 14.238-5.398 22.98-5.398s16.898 1.914 22.974 5.398c3.352 1.914 5.793 4.143 7.179 6.52a9.29 9.29 0 0 0 1.358-4.711c0-4.087-3.027-8.07-8.537-11.217-6.076-3.505-14.246-5.398-22.974-5.398s-16.905 1.921-22.98 5.398c-5.51 3.148-8.538 7.13-8.538 11.217z" fill="#000" opacity=".1"/><path d="M157.491 294.993c6.083-3.506 14.246-5.398 22.981-5.398 8.735 0 16.898 1.92 22.988 5.398 4.534 2.6 7.384 5.77 8.247 9.113-.863 3.323-3.713 6.492-8.247 9.113-6.09 3.506-14.253 5.398-22.988 5.398s-16.898-1.92-22.98-5.398c-4.542-2.6-7.392-5.77-8.248-9.113.856-3.344 3.706-6.513 8.247-9.113z" fill="#fff" opacity=".4"/><path d="M172.253 321.365v9.401a45.859 45.859 0 0 1-16.445-5.286c-6.812-3.897-10.221-9.008-10.221-14.118v-9.408a11.82 11.82 0 0 1 .417-3.085c-1.655 6.078 1.613 12.514 9.797 17.204a46.265 46.265 0 0 0 16.452 5.292z" fill="#000" opacity=".1"/></g><g><path d="M337.118 264.313c.414.17.498.96.526 2.534 0 1.193.224 3.282-1.164 3.664-1.388.38-3.42.127-4.283-1.017-1.08-1.412-1.802-2.675-3.344-4.426-1.339-1.51-2.804-2.93-3.302-5.019-.455-1.891 0-2.696 1.27-3.218 1.766-.706 4.458 1.807 5.825 2.223 1.17.36 4.045 5.09 4.472 5.259z" fill="#263238"/><path d="M337.153 262.859l-.042 1.927a4.654 4.654 0 0 1-4.85 0c-.085-.184-.442-2.774-.442-2.774z" fill="#ffa8a7"/><path d="M321.331 275.099s.512 1.694.778 3.17c.21 1.171.505 3.133.077 4.002-.427.868-2.026 1.411-4.48 1.327-1.59-.05-4.093.98-5.818 1.898s-5.433 1.257-7.283.996c-2.18-.31-4.417-1.638-4.746-2.556s.154-1.856 5.355-3.952c.05 0 7.221-2.189 9.773-4.9z" fill="#263238"/><path d="M321.38 273.01s-.042 1.411-.056 2.251-.995 2.019-3.505 1.87c-1.746-.098-2.958-.6-2.853-2.046l.049-2.118z" fill="#ffa8a7"/><path d="M338.976 237.242a52.666 52.666 0 0 0-2.04-10.115s.876-8.668 1.402-16.899c.554-8.88 1.073-13.454-.666-26.287 0 0-27.053-2.45-27.789 7.821-.736 10.27.309 36.473.547 40.998s.918 8.534 1.683 15.875c.764 7.341 2.937 24.36 2.937 24.36a6.71 6.71 0 0 0 6.344 0s2.46-20.513 2.37-25.722a44.961 44.961 0 0 0-1.71-11.421s.7-8.47 1.401-15.826c.701-7.355 1.227-10.892 1.402-14.118l.617-.29s.344 12.707.582 17.253c.238 4.545.848 8.873 1.956 17.287.967 7.313 3.94 22.842 3.94 22.842 3.217 1.842 5.201-.113 5.201-.113s2.56-19.313 1.823-25.645z" fill="#37474f"/><path d="M324.822 205.944s7.01-3.276 10.516-6.29c0 0-3.31 4.482-7.571 6.41 0 0-1.858 15.769-1.844 15.451l-.519-15.579z" fill="#263238"/><path d="M319.978 147.341l1.052 9.403 8.819-.445-.975-10.977z" fill="#ffa8a7"/><path d="M333.186 150.941c3.28-.155 4.949.346 6.428 3.198 1.48 2.852 2.047 11.372 2.566 15.77s.638 7.489-1.157 7.94-8.79.65-8.79.65z" fill="#37474f"/><path d="M338.717 155.812c-.47-2.626-3.912-5.393-7.13-4.87l-2.18.373c-.386 1.581-4.69 2.57-8.805 1.596-1.24.331-5.32 1.1-6.358 1.447-2.952.988-4.206 3.917-4.634 13.623 0 0 .238 21.988.12 26.365 7.297 3.106 14.96 3.183 19.214 2.35 8.861-1.736 10.004-5.392 10.004-5.392l-1.318-10.06s2.166-19.475 1.087-25.432z" fill="#455a64"/><path d="M320.322 150.44l.07.593c1.784.38 3.628.38 5.412 0 2.867-.642 3.449-1.454 3.449-1.454l-.063-.706s.7-.261 1.086.84c.165.441.305.891.42 1.348 0 0 .33 2.026-3.042 3.057a10.375 10.375 0 0 1-8.412-.925l-1.318.282s1.143-2.654 1.486-3.19a.875.875 0 0 1 .828-.466z" fill="#37474f"/><path d="M293.395 140.353l-17.49 9.198 8.692 23.922 16.32-9.205z" fill="#455a64"/><path d="M292.596 142.696l-14.68 7.716 7.698 20.57 13.69-7.723z" fill="#f5f5f5"/><path d="M289.497 144.92s-.126-.332-.287-.706c-.161-.374-1.402-.162-2.727.537l-2.58 1.348c-1.353.706-2.32 1.595-2.16 1.997l.281.706z" fill="#000" opacity=".15"/><path d="M289.21 141.99c-.091-.254-.624-.211-1.185.092l-1.01.55s-.623-1.58-2.95-.486c-2.328 1.094-1.795 2.93-1.795 2.93l-1.073.592c-.596.332-1.016.805-.946 1.06l.133.465 9.008-4.73z" fill="#90caf9"/><path d="M288.242 143.05c-.84.416-1.17.62-.932 1.242s.533 1.22.533 1.22l-3.982 2.119s-.33-.904-.477-1.25c-.147-.346-.441-.515-1.072-.183l-.239-.254 6.31-3.226z" fill="#90caf9"/><path d="M288.242 143.05c-.84.416-1.17.62-.932 1.242s.533 1.22.533 1.22l-3.982 2.119s-.33-.904-.477-1.25c-.147-.346-.441-.515-1.072-.183l-.239-.254 6.31-3.226z" fill="#000" opacity=".3"/><path d="M289.666 144.955l-.28-.706c-.162-.409-1.403-.169-2.728.537l-2.587 1.341c-1.346.706-2.313 1.595-2.159 2.005l.288.706z" fill="#90caf9"/><path d="M314.258 154.358c-4.038.353-5.756 1.094-8.784 6.593-3.295 5.978-9.618 16.785-10.418 18.155-1.114 1.899-1.324 4.786-.364 6.53.897 1.63 3.75 2.371 7.01-1.307 3.849-4.376 11.006-15.063 11.006-15.063s6.043-8.075 1.55-14.908z" fill="#ffa8a7"/><path d="M296.353 186.885c-3.098-.374-10.326-10.25-12.38-13.476a22.939 22.939 0 0 0-6.267-6.656c-3.274-2.435-2.804-6.184-1.367-9.614.49-1.186 2.173-.417 2.173-.417l.589 1.63 1.024 2.824c.7.65 1.093.862 1.135.671.091-.367-.505-1.885-.49-3.466 0-1.899 1.338-.65 1.731 0a23.034 23.034 0 0 1 1.402 3.141c.66 1.702.393 3.424 1.192 4.582.799 1.157 11.588 11.569 11.588 11.569z" fill="#ffa8a7"/><path d="M315.022 154.139c-2.447-.057-5.384.339-7.662 3.317s-11.392 19.172-11.392 19.172l-5.11-4.616a8.97 8.97 0 0 0-3.94 5.576 56.093 56.093 0 0 0 4.626 6.353c2.167 2.386 4.578 4.045 6.555 3.31 1.977-.733 3.996-2.307 8.251-8.28s8.903-13.009 8.903-13.009 2.938-6.875-.231-11.823z" fill="#37474f"/><path d="M313.76 135.828s-2.201 3.36-1.949 3.692c.253.332 1.872.628 1.872.628z" fill="#f28f8f"/><path d="M314.79 137.988c-1.063 0-2.022-.645-2.429-1.635s-.18-2.13.573-2.886a2.616 2.616 0 0 1 2.867-.57 2.647 2.647 0 0 1 1.618 2.451 2.638 2.638 0 0 1-2.628 2.64zm0-4.701c-.828-.003-1.577.498-1.896 1.268s-.145 1.657.44 2.248a2.037 2.037 0 0 0 2.231.45 2.061 2.061 0 0 0 1.266-1.905 2.054 2.054 0 0 0-2.04-2.061z" fill="#263238"/><path d="M319.866 126.518c-4.459.946-5.748 2.922-6.17 10.044-.434 7.454.323 9.79 1.29 10.793.66.706 4.305.805 6.142.29 2.306-.636 7.508-2.492 9.94-6.24 2.868-4.405 3.618-10.384.554-12.833-4.304-3.452-9.933-2.443-11.756-2.054z" fill="#ffa8a7"/><path d="M320.034 147.856l-.21-1.369a8.713 8.713 0 0 1-4.564 1.038c.848.416 3.064.543 4.774.331z" fill="#f28f8f"/><g fill="#263238"><path d="M312.414 134.79l7.922 1.038-.316.558-7.606-.995z"/><path d="M312.954 129.398c.337.046.68.024 1.01-.064a1.602 1.602 0 0 0 .54 1.87c.586.401 1.326.5 1.997.269-.249.425-.326.93-.217 1.412a2.23 2.23 0 0 0 2.306 1.68c.05 1.044.063 2.06 1.164 2.534 0 0 .7-2.753 3.014-2.407 2.314.346 2.63 3.324 1.171 5.139-1.458 1.814-2.804 1.122-2.804 1.115.133.063.182.946.224 1.108.15.522.35 1.028.596 1.51a7.165 7.165 0 0 0 2.103 2.457 5.107 5.107 0 0 0 4.206 1.172 4.528 4.528 0 0 0 3.05-2.464c.102-.328.27-.633.49-.896.34-.244.727-.412 1.136-.494a3.347 3.347 0 0 0 2.033-1.932 3.381 3.381 0 0 0-.14-2.812 3.075 3.075 0 0 0 2.228-2.327 3.097 3.097 0 0 0-1.057-3.052 3.718 3.718 0 0 0 1.577-4.009 3.748 3.748 0 0 0-2.636-2.541c-.904-.261-.554-.402-.834-1.292a3.312 3.312 0 0 0-1.038-1.56 3.305 3.305 0 0 0-3.063-.572 3.125 3.125 0 0 0-2.23-2.407 2.967 2.967 0 0 0-1.57-.063c-.371.092-1.128.437-1.269.797-.47-.465-.623-1.08-1.191-1.496a3.368 3.368 0 0 0-2.729-.602 3.388 3.388 0 0 0-2.249 1.668 4.136 4.136 0 0 0-3.112-1.313 3.397 3.397 0 0 0-2.84 1.743 2.924 2.924 0 0 0 .386 3.262 3.36 3.36 0 0 0-1.724 1.496 2.13 2.13 0 0 0 .245 2.344c.215.304.52.533.87.656.117.031.236.055.357.07z"/><path d="M319.712 138.645l.077-3.12a1.555 1.555 0 0 0-1.588 1.52 1.556 1.556 0 0 0 1.51 1.6z"/></g></g></g></g></g></svg>