<svg height="413" width="544" xmlns="http://www.w3.org/2000/svg" xmlns:xlink="http://www.w3.org/1999/xlink"><defs><rect id="c" height="398.769" rx="12" width="531.692"/><filter id="b" height="107%" width="104.9%" x="-1.3%" y="-1.8%"><feOffset dx="12" dy="14" in="SourceAlpha" result="shadowOffsetOuter1"/><feColorMatrix in="shadowOffsetOuter1" values="0 0 0 0 0 0 0 0 0 0 0 0 0 0 0 0 0 0 0.12 0"/></filter><path id="a" d="M0 0h438v365H0z"/><mask id="d" fill="#fff"><use fill-rule="evenodd" xlink:href="#a"/></mask></defs><g fill="none" fill-rule="evenodd"><use fill="#000" filter="url(#b)" xlink:href="#c"/><use fill="#eee" xlink:href="#c"/><circle cx="30.115" cy="199.385" fill="#eee" r="14.615" stroke="#ccc" stroke-width="4"/><circle cx="513.519" cy="199.385" fill="#9c9c9c" r="6.808" stroke="#ccc" stroke-width="3"/><path d="M59.712 17.654h436.153v363.461H59.712z" fill="#000"/><g transform="translate(58 16)"><use fill="#22bb86" xlink:href="#a"/><ellipse cx="218.5" cy="55" fill="#000" fill-opacity=".1" mask="url(#d)" rx="297.5" ry="180"/><g fill-rule="nonzero" mask="url(#d)"><g fill="#000" fill-opacity=".1" transform="translate(67 292)"><ellipse cx="272.206" cy="19.666" rx="32.216" ry="17.318"/><ellipse cx="32.81" cy="17.446" rx="32.216" ry="17.318"/></g><path d="M298.905 194.328c.971.814 2.072 1.22 3.351 2.441a7.52 7.52 0 0 0 2.963 2.075c1.465.578 2.85.407 6.93-.244 4.986-.813 7.14-1.627 9.285-3.49 2.517-2.165 8.152-8.667 10.872-11.222 2.874-2.71 6.832-1.627 6.832-1.627a41.501 41.501 0 0 1-5.424 11.237c-2.177 3.117-6.25 6.103-8.095 7.641-2.947 2.441-4.509 3.442-10.985 3.93a66.66 66.66 0 0 1-9.528.375c-1.45-.05-2.348-.057-4.712-.26a13.907 13.907 0 0 1-3.044-.53 11.46 11.46 0 0 1-3.173-1.26 8.595 8.595 0 0 1-3.011-3.41 5.419 5.419 0 0 1-.567-2.442 3.64 3.64 0 0 1 .882-2.327 1.06 1.06 0 0 1 .405-.3c.308-.053.625.017.883.194a51.47 51.47 0 0 0 4.679 2.49c1.352.53 2.38.708 2.282.432-.097-.277-.922-.521-1.764-1.473-.842-.952-1.045-2.287-.502-2.694.542-.406.453-.341 1.44.464z" fill="#ffa8a7"/><path d="M340.28 182.22a7.397 7.397 0 0 0-4.947-.553c-2.517.724-4.533 2.376-6.937 4.972s-6.476 6.778-6.476 6.778 1.991 5.078 6.476 6.884l9.398-8.748z" fill="#90caf9"/><path d="M340.28 182.22a7.397 7.397 0 0 0-4.947-.553c-2.517.724-4.533 2.376-6.937 4.972s-6.476 6.778-6.476 6.778 1.991 5.078 6.476 6.884l9.398-8.748z" fill="#000" opacity=".1"/><path d="M296.023 194.816l8.905-5.207a3.062 3.062 0 0 1 2.776 0l8.5 4.418a3.08 3.08 0 0 1 1.393 2.441l.04 10.367a3.08 3.08 0 0 1-1.376 2.441l-8.905 5.208a3.062 3.062 0 0 1-2.776 0l-8.5-4.418a3.104 3.104 0 0 1-1.393-2.441l-.04-10.36a3.104 3.104 0 0 1 1.376-2.449z" fill="#37474f"/><path d="M317.597 196.184c-.097-.708-.672-.969-1.368-.562l-8.905 5.216a2.942 2.942 0 0 0-.98 1.042l-11.276-6.014a2.76 2.76 0 0 1 .98-1.041l8.904-5.216a3.046 3.046 0 0 1 2.768 0l8.509 4.418a3.11 3.11 0 0 1 1.368 2.157z" fill="#455a64" opacity=".4"/><path d="M294.687 207.6c.049.99.567 1.898 1.393 2.441l8.5 4.419a3.07 3.07 0 0 0 2.541.097c-.655.253-1.15-.113-1.157-.91l-.04-10.36c.015-.485.155-.959.404-1.375l-11.277-6.013c-.25.415-.39.89-.404 1.375z" fill="#263238"/><path d="M348.391 298.233h5.699v9.805h-5.699zm-10.07 2.465l-5.691.196-.292-10.375 5.982-.196z" fill="#ffa8a7"/><path d="M356.519 225.006c0 5.468-.964 37.285-.964 37.285.138 1.578 1.62 4.377 1.757 10.041.17 8.227-2.98 30.8-2.98 30.8a7.445 7.445 0 0 1-6.338.13s-2.59-30.605-3.61-38.742c-.89-7.104-2.429-26.397-2.429-26.397l-2.68 23.183a32.64 32.64 0 0 1 .705 9.106c-.267 3.767-1.32 27.072-1.32 27.072a7.744 7.744 0 0 1-6.565.545s-4.047-33.224-4.088-36.682c-.073-3.939 1.49-44.129 1.49-44.129z" fill="#37474f"/><path d="M352.779 184.767a5.261 5.261 0 0 1 2.744 2.872c.576 1.584.85 3.262.81 4.948v11.221l.161 21.157c-8.176 4.337-18.578 4.622-27.305-1.782 0 0 .486-27.284.486-31.735v-.61c.203-3.036 1.746-5.821 4.205-7.594s5.579-2.349 8.504-1.57l5.165 1.343 5.19 1.717z" fill="#90caf9"/><path d="M313.12 205.818c1.069.66 2.226.911 3.659 1.97a7.546 7.546 0 0 0 3.238 1.627c1.538.374 13.616-3.735 15.859-5.469 4.55-3.523 8.484-10.163 10.67-12.677 1.804-2.075 3.853-5.2 6.07-5.216 3.676 1.123 2.842 6.615-.234 11.563a45.832 45.832 0 0 1-12.84 12.857c-2.646 1.75-14.854 4.882-18.91 5.183-1.23.081-2.145.358-4.492.692-.964.2-1.952.254-2.931.162a12.903 12.903 0 0 1-3.473-1.066 8.65 8.65 0 0 1-3.456-2.953 5.33 5.33 0 0 1-.899-2.344c-.115-.854.08-1.72.55-2.441a.966.966 0 0 1 .365-.358 1.2 1.2 0 0 1 .898.065 50.53 50.53 0 0 0 4.97 1.815c1.417.333 2.43.366 2.324.105-.105-.26-.988-.39-1.95-1.212-.964-.822-1.353-2.116-.875-2.596.477-.48.38-.366 1.457.293z" fill="#ffa8a7"/><g fill="#263238" transform="translate(304.571 154)"><ellipse cx="33.571" cy="9.887" rx="7.828" ry="7.869"/><path d="M47.106 15.46s-1.263 5.998-1.773 6.983a2.69 2.69 0 0 1-1.562 1.26l.089-4.214z"/><path d="M45.52 6.9a2.922 2.922 0 0 1 2.428.855c1.044 1.074.462 4.435-.81 7.73l-2.388.277z"/></g><path d="M348.577 169.762c.478.285 1.158-.635 1.749-1.261a2.083 2.083 0 0 1 3.489.57c.98 2.074-.85 4.825-2.372 5.305-2.615.813-3.012-.863-3.012-.863l-.194 9.765c-3.238 4.199-12.288 3.84-8.524-.537v-2.889a16.55 16.55 0 0 1-3.53.18c-1.926-.302-3.14-1.832-3.723-3.923-.94-3.369-1.296-6.079-.494-12.702.866-7.25 9.26-7.324 13.762-4.46s2.85 10.815 2.85 10.815z" fill="#ffa8a7"/><path d="M348.577 170.576c.235 0 1.158-1.53 1.749-2.075.81-.757-.235-7.6-.235-7.6a3.267 3.267 0 0 0-.81-3.467c-1.133-1.253-3.027-1.392-6.257-1.904-1.692-.269-4.266-.74-5.958-1.058-2.024-.382-3.7-.814-5.125.464a3.634 3.634 0 0 0-.987 4.068 3.634 3.634 0 0 0 2.024 1.864s.882.814 3.95 1.163a45.23 45.23 0 0 0 8.5-.162c.89-.122 1.077.748 1.554 3.116.43 2.035.778 5.574 1.595 5.59z" fill="#263238"/><path d="M350.083 161.43l2.898-1.563a1.611 1.611 0 0 0-2.194-.732 1.746 1.746 0 0 0-.704 2.294z" fill="#263238"/><path d="M339.721 179.868s4.299-.87 5.796-1.676a4.95 4.95 0 0 0 2.08-2.067 6.785 6.785 0 0 1-1.181 2.441c-1.093 1.416-6.695 2.442-6.695 2.442z" fill="#f28f8f"/><path d="M339.931 168.647a.881.881 0 0 0 .242.632c.161.17.383.267.617.271a.898.898 0 0 0 .858-.528.907.907 0 0 0-.168-.998.895.895 0 0 0-.984-.215.903.903 0 0 0-.565.838zm.915-3.255l1.838 1.017a1.11 1.11 0 0 0-.43-1.473 1.007 1.007 0 0 0-1.408.456z" fill="#263238"/><path d="M340.11 174.66l-1.968.75c.089.266.28.485.532.608.251.122.541.138.804.042.551-.22.83-.838.632-1.4z" fill="#f28f8f"/><path d="M332.5 166.133l1.676-1.302a1.02 1.02 0 0 0-1.457-.22 1.119 1.119 0 0 0-.219 1.522zm.518 2.302a.868.868 0 0 0 .89.838.869.869 0 0 0 .842-.886.868.868 0 0 0-.874-.855c-.233.005-.455.102-.616.272s-.248.397-.242.631z" fill="#263238"/><path d="M337.406 167.614l-.284 5.207-2.703-.927z" fill="#f28f8f"/><path d="M348.391 305.206v-.813c-.542.236-1.813 5.094-4.048 7.169-1.797 1.627-4.25 3.548-4.857 5.387-.607 1.839 3.416 2.97 5.092 2.669 1.951-.35 5.335-1.734 6.185-3.011s1.247-3.166 1.935-4.11c.688-.943 2.282-1.985 2.655-3.067.11-1.016 0-2.043-.324-3.011-.267-1.01-.55-2.124-.899-2.026v.618a4.462 4.462 0 0 1-2.849.969c-.874.032-2.898-.13-2.89-.774zm-15.826-6.078c-.292 0-.535.431-1.19 1.14a12.226 12.226 0 0 1-3.352 2.44c-2.129 1.074-6.282 2.726-8.16 3.58-1.173.53-1.117 1.954.097 2.767 1.215.814 4.137 1.392 7.65.603 1.919-.432 4.412-2.206 5.991-2.116s4.525.073 5.667-.732c1.141-.806.704-2.531.372-4.012-.356-1.628-.81-4.134-1.344-4.02v.553c-.68 1.042-4.217 1.465-5.723.7zm9.415-61.005a21.175 21.175 0 0 1-7.934-4.573s1.53 2.88 6.088 5.558l-.607 20.253z" fill="#263238"/><path d="M352.835 184.767c2.712 1.334 3.813 3.369 2.607 7.91-1.085 4.068-5.238 11.01-8.5 14.41 0 0-5.594-2.66-8.565-6.127 2.947-4.524 4.363-7.193 7.132-11.026 2.769-3.833 5.667-5.63 7.326-5.167z" fill="#90caf9"/><path d="M352.835 184.767c2.712 1.334 3.813 3.369 2.607 7.91-1.085 4.068-5.238 11.01-8.5 14.41 0 0-5.594-2.66-8.565-6.127 2.947-4.524 4.363-7.193 7.132-11.026 2.769-3.833 5.667-5.63 7.326-5.167z" fill="#000" opacity=".1"/><path d="M100.943 180.448c3.045 0 6.271-.861 8.865 3.032 2.594 3.893 10.188 21.198 10.188 21.198s-6.182 3.251-6.338 3.024c-.156-.228-10.565-17.451-10.565-17.451z" fill="#ffa8a7"/><path d="M97.56 176.872c-6.986 0-12.65-5.608-12.65-12.525v-1.277c0-5.862 4.8-10.615 10.721-10.615h3.891c5.902.027 10.672 4.772 10.672 10.615v1.277c0 6.91-5.654 12.516-12.634 12.525z" fill="#90caf9"/><path d="M97.56 176.872c-6.986 0-12.65-5.608-12.65-12.525v-1.277c0-5.862 4.8-10.615 10.721-10.615h3.891c5.902.027 10.672 4.772 10.672 10.615v1.277c0 6.91-5.654 12.516-12.634 12.525z" fill="#000" opacity=".2"/><path d="M79.5 178.18c1.567 0 3.07-.618 4.174-1.718s1.721-2.59 1.713-4.142v-11.558c-1.569 0-3.072.62-4.177 1.721a5.798 5.798 0 0 0-1.71 4.148z" fill="#90caf9"/><path d="M79.5 178.18c1.567 0 3.07-.618 4.174-1.718s1.721-2.59 1.713-4.142v-11.558c-1.569 0-3.072.62-4.177 1.721a5.798 5.798 0 0 0-1.71 4.148z" fill="#000" opacity=".2"/><path d="M110.588 303.833a34.165 34.165 0 0 0 4.925 4.259c.285.176.522.419.69.707.23.48.591 1.625-1.642 2.438a8.281 8.281 0 0 1-6.821-.65c-1.815-1.122-1.897-3.463-3.612-4.804-1.273-.991-2.857-1.243-3.883-2.536-.714-.902-.526-2.097-.156-3.576.41-1.626.59-2.845 1.133-2.723l-.082.748c.673 1.065 4.17 1.382 5.746.642a62.584 62.584 0 0 0 3.702 5.495z" fill="#263238"/><path d="M112.123 305.344a24.203 24.203 0 0 1-1.535-1.503 42.872 42.872 0 0 1-2.857-4.17 6.466 6.466 0 0 1-1.223-3.048c0-1.43.107-3.975.107-3.975l-5.188-.341-.255 5.389c-.131 1.227.887 2.308 2.693 3.844 1.806 1.537 4.104 5.13 5.746 6.031 1.642.903 2.8.87 3.497.415.698-.455.772-.862-.985-2.642z" fill="#ffa8a7"/><path d="M93.325 308.961a34.165 34.165 0 0 0 4.925 4.26c.283.178.52.42.69.707.23.48.59 1.625-1.642 2.438a8.281 8.281 0 0 1-6.83-.65c-1.814-1.122-1.896-3.463-3.604-4.804-1.272-.983-2.857-1.244-3.883-2.536-.714-.894-.533-2.097-.156-3.576.403-1.626.591-2.845 1.133-2.723l-.09.748c.673 1.064 4.178 1.381 5.746.642a64.535 64.535 0 0 0 3.71 5.494z" fill="#263238"/><path d="M94.86 310.498a26.603 26.603 0 0 1-1.535-1.504 41.882 41.882 0 0 1-2.832-4.186 7.16 7.16 0 0 1-1.207-3.097c-.099-1.26 0-3.869 0-3.869h-5.18l-.18 4.975c-.132 1.219.886 2.3 2.692 3.836s4.104 5.137 5.746 6.04 2.8.869 3.497.406c.698-.464.764-.846-1.001-2.601z" fill="#ffa8a7"/><path d="M83.983 214.692c-4.515 9.754.624 46.81.624 46.81-.14 1.584-1.552 4.064-1.716 8.892-.213 6.218.903 29.171.903 29.171a6.625 6.625 0 0 0 5.91.114s5.353-31.155 6.395-39.356c.911-7.153 2.66-23.97 2.66-23.97l3.595 23.93a23.005 23.005 0 0 0-1.945 7.607c-.123 4.836.6 27.31.6 27.31 1.96.51 4.01.58 6 .204 0 0 5.442-30.407 5.96-36.21.303-3.472-2.315-45.973-2.315-45.973z" fill="#37474f"/><path d="M98.759 236.353l1.47-7.99s6.205-1.268 9.03-3.893a15.994 15.994 0 0 1-7.331 4.828l-1.642 6.99 1.642 20.881z" fill="#263238"/><path d="M92.8 180.708c-3.957.545-6.084 1.415-7.389 5.105a14.22 14.22 0 0 0 .23 8.372l3.464 10.022a54.047 54.047 0 0 0-5.147 10.485c10.13 5.592 23.626 2.617 26.671-1.471.131-.862-.69-5.056-.443-9.494.263-4.739 1.026-10.184.279-13.11-1.404-5.438-5.237-8.99-9.547-10.136z" fill="#f5f5f5"/><path d="M90.435 191.234c-.172 2.577-.952 9.665-.952 9.665l3.283 5.193-3.669-1.885-3.284-9.42z" fill="#e6e6e6"/><path d="M105.95 157.64c1.37.814 3.062 4.211 2.898 11.38-.148 6.056-2.126 7.551-3.128 7.982-1.001.43-2.914.17-4.777-.138v3.584s2.577 2.975 2.413 4.641c-.164 1.667-3.727 2.057-6.14.431a15.453 15.453 0 0 1-3.957-4.104v-8.763a2.372 2.372 0 0 1-3.325.317c-2.06-1.357-2.142-4.714-.944-5.917 1.199-1.203 3.785-.813 4.269.813a14.76 14.76 0 0 0 6.937-2.048 11.032 11.032 0 0 0 5.754-8.177z" fill="#ffa8a7"/><path d="M101.985 167.484c.014.203-.055.402-.19.555s-.328.245-.532.258a.815.815 0 0 1-.666-.757.813.813 0 0 1 .584-.82c.21-.009.415.068.567.212s.237.344.237.552z" fill="#263238"/><path d="M102.215 172.613l1.79.569c-.065.238-.225.44-.443.56s-.477.146-.715.074a.973.973 0 0 1-.632-1.203z" fill="#f28f8f"/><path d="M108.322 165.143l-1.56-1.073a.927.927 0 0 1 1.297-.26c.43.306.545.89.263 1.333z" fill="#90caf9"/><path d="M108.322 165.143l-1.56-1.073a.927.927 0 0 1 1.297-.26c.43.306.545.89.263 1.333z" fill="#000" opacity=".2"/><path d="M107.961 166.931a.816.816 0 0 1-.73.813.818.818 0 0 1-.821-.756.816.816 0 0 1 .73-.813c.432 0 .791.33.821.756z" fill="#263238"/><path d="M104.333 166.492l.123 4.585 2.438-.748zm-3.39 10.356c-1.97-.252-6.018-1.407-6.65-2.992a4.12 4.12 0 0 0 1.42 2.024c1.207 1.024 5.23 2.179 5.23 2.179z" fill="#f28f8f"/><path d="M133.351 195.664l-20.982 5.478-6.19 25.775 19.949-5.73z" fill="#90caf9"/><path d="M124.207 212.725c.189.528 1.338 1.991 3.784 1.877l.304-1.072zm-4.696.805c-.09.69-1.518 1.967-3.924 2.755-2.75.91-6.96.43-6.96.43l.377-1.283zm7.7-14.127l.173-.813c.09-.439-1.141-.455-2.75-.04l-3.095.812c-1.642.415-2.996 1.106-3.095 1.545l-.172.812z" opacity=".1" fill="#000"/><g fill="#37474f"><path d="M128.664 196.412c.058-.277-.443-.342-1.116-.163l-1.223.334s.36-1.707-2.348-1.114a4.27 4.27 0 0 0-3.284 2.544l-1.305.374c-.722.203-1.37.585-1.461.862l-.156.487 10.811-2.812s.017-.22.082-.512z"/><path d="M127.178 197.265c-.993.236-1.403.366-1.551 1.04a19.027 19.027 0 0 0-.238 1.342l-4.786 1.252s.23-.976.304-1.358-.09-.61-.821-.414l-.066-.301 7.495-1.886z"/><path d="M127.343 199.476s.073-.358.172-.813c.098-.455-1.141-.455-2.75-.04l-3.095.812c-1.642.415-2.996 1.106-3.095 1.545l-.172.813z"/></g><g fill="#ffa8a7"><path d="M82.875 211.871l3.825-6.315s16.804 4.877 18.47 4.999a4.378 4.378 0 0 0 4.162-2.658c.632-1.626 1.757-1.423 1.757-1.423s-.493 2.057-.657 2.715c-.164.659 3.85 1.195 6.067.455 2.216-.74 5.426.334 3.44 3.325s-5.862 3.34-8.546 3.34a27.943 27.943 0 0 1-3.358-.227c-.87-.106-1.74-.195-2.61-.26-5.5-.382-20.055-3.17-22.55-3.95zm48.342-8.664l-.936 3.251c-.172.634-2.618 1.788-4.153 2.203-1.535.414-3.235.918-2.463 3.056.673 1.967 3.21 2.438 4.507 2.357s3.062-1.276 3.751-3.251c.895-2.52.41-5.202.764-6.673.353-1.471-.698-1.82-1.47-.943z"/><path d="M86.7 205.556l3.357-12.647s1.938-6.852 0-11.664c0 0-1.592-.561-4.03 1.43-2.438 1.992-3.776 6.503-4.622 10.152s-2.586 15.72-2.38 16.972c.205 1.251 2.462 2.024 9.185 3.251z"/></g><g transform="translate(112 29)"><path d="M105.687 211.444c-11.763 0-21.303 5.5-21.303 12.28v29.602c0 6.78 9.54 12.28 21.303 12.28 11.764 0 21.304-5.5 21.304-12.28v-29.602c0-6.78-9.54-12.28-21.304-12.28z" fill="#ebebeb"/><path d="M105.687 211.444c-11.763 0-21.303 5.5-21.303 12.28v29.602c0 6.78 9.54 12.28 21.303 12.28 11.764 0 21.304-5.5 21.304-12.28v-29.602c0-6.78-9.54-12.28-21.304-12.28z" fill="#90caf9"/><path d="M84.384 223.724v29.602c0 5.492 6.256 10.136 14.892 11.709v-53.02c-8.636 1.564-14.892 6.217-14.892 11.709z" fill="#000" opacity=".1"/><path d="M130.233 226.608c.163-.244 59.032-94.958 59.032-94.958s-29.752 19.205-83.561 19.205a212.324 212.324 0 0 1-28.889-1.94c-35.462-4.888-54.68-17.265-54.68-17.265l58.99 94.942c3.617 5.801 13.247 9.949 24.554 9.949s20.93-4.148 24.546-9.95z" fill="#ebebeb"/><path d="M62.942 156.135l-8.962-11.782c-20.815-5.574-31.878-12.703-31.878-12.703l58.99 94.942c2.909 4.669 9.711 8.262 18.143 9.484z" fill="#e0e0e0"/><path d="M180.042 57.77c-17.987-10.389-40.872-16.223-64.359-17.502-30.142-1.63-61.19 4.196-84.237 17.51-41.035 23.703-41.027 62.122 0 85.817A126.082 126.082 0 0 0 63 156.135c28.18 7.235 60.75 6.95 88.595-.815a132.356 132.356 0 0 0 11.446-3.732 113.94 113.94 0 0 0 4.579-1.825 114.961 114.961 0 0 0 6.248-2.844 108.475 108.475 0 0 0 6.184-3.3c40.994-23.727 41.002-62.138-.009-85.849z" fill="#90caf9"/><path d="M115.626 40.268c-30.142-1.63-61.19 4.196-84.237 17.51-41.035 23.703-41.027 62.122 0 85.817a126.082 126.082 0 0 0 31.553 12.54c-3.919-5.468-6.518-18.488 1.034-19.295a113.586 113.586 0 0 1-27.951-11.163c-11.797-6.812-19.789-14.936-23.153-23.5-2.86-7.333-2.192-14.666 2.004-21.942C18.949 73.187 26.28 66.497 36 60.859c19.601-11.326 46.225-16.761 72.563-16.297 0-.024-.595-3.316 7.063-4.294z" fill="#000" opacity=".1"/><path d="M175.154 60.842C157.028 50.38 132.897 44.93 108.54 44.546c-26.339-.448-52.954 4.987-72.563 16.296C26.2 66.481 18.909 73.17 14.85 80.22c-4.195 7.243-4.888 14.666-2.004 21.942 3.365 8.564 11.357 16.688 23.153 23.5a113.586 113.586 0 0 0 27.952 11.163 148.298 148.298 0 0 0 11.853 2.599 165.432 165.432 0 0 0 21.638 2.355c1.499.07 2.998.12 4.497.146 2.485.066 4.994.074 7.479 0 8.439-.154 16.854-.95 25.173-2.379l.285-.049a148.436 148.436 0 0 0 15.837-3.642 138.967 138.967 0 0 0 10.672-3.626 103.421 103.421 0 0 0 4.253-1.76c1.67-.741 3.316-1.524 4.929-2.33 1.613-.807 3.08-1.63 4.57-2.445 9.776-5.646 17.108-12.352 21.182-19.392 8.977-15.628 1.083-32.617-21.166-45.459z" fill="#f5f5f5"/><path d="M105.687 111.491c-24.676 0-45.727 8.906-54.061 21.438a127.749 127.749 0 0 0 12.35 3.903 148.298 148.298 0 0 0 11.854 2.6 165.432 165.432 0 0 0 21.613 2.346c1.499.07 2.998.12 4.497.146 2.485.066 4.994.074 7.479 0 8.439-.154 16.854-.95 25.173-2.379l.285-.049a149.063 149.063 0 0 0 15.837-3.642c3.074-.896 6.061-1.89 8.962-2.982-8.326-12.5-29.329-21.38-53.989-21.38z" fill="#ebebeb"/><ellipse cx="130.918" cy="112.314" fill="#90caf9" rx="10.045" ry="10.047"/><path d="M128.115 115.932c-4.782-3.471-5.173-10.275-1.434-12.728a10.047 10.047 0 0 0 5.663 19.063c4.94-.722 8.6-4.96 8.594-9.953-.358 4.84-8.04 7.08-12.823 3.618z" fill="#000" opacity=".1"/><ellipse cx="165.387" cy="66.766" fill="#455a64" rx="16.847" ry="16.85"/><path d="M160.686 72.828C152.66 67.01 152 55.587 158.283 51.48c-7.59 3.528-11.441 12.09-9.048 20.11s10.308 13.07 18.589 11.86c8.28-1.21 14.42-8.314 14.418-16.684-.644 8.115-13.523 11.872-21.556 6.062z" fill="#37474f"/><circle cx="52.877" cy="25.143" fill="#455a64" r="13.215" transform="rotate(-45 52.877 25.143)"/><path d="M49.19 29.896c-6.298-4.555-6.81-13.518-1.89-16.737a13.217 13.217 0 0 0 7.481 25.062 13.216 13.216 0 0 0 11.305-13.076c-.505 6.364-10.607 9.314-16.896 4.75z" fill="#37474f"/><path d="M35.43 88.318l6.974-15.164a4.97 4.97 0 0 1 3.658-2.6l15.364-2.11A4.977 4.977 0 0 1 65.5 70.32l9.645 13.623a4.971 4.971 0 0 1 .416 4.474l-6.974 15.163a4.986 4.986 0 0 1-3.666 2.6l-15.356 2.085a4.961 4.961 0 0 1-4.074-1.874l-9.645-13.599a4.947 4.947 0 0 1-.416-4.473z" fill="#90caf9"/><path d="M45.491 106.415a4.961 4.961 0 0 0 4.074 1.874l15.356-2.086a5.026 5.026 0 0 0 3.454-2.224c-.627.928-1.629.912-2.37-.13l-9.646-13.633a4.498 4.498 0 0 1-.741-2.183l-20.514 2.566c.055.782.31 1.537.742 2.192z" fill="#000" opacity=".1"/><path d="M65.28 70.074c-.815-.815-1.793-.644-2.33.53l-6.982 15.172a4.833 4.833 0 0 0-.236 2.884 4.76 4.76 0 0 1-.09-.595L35.13 90.632a4.515 4.515 0 0 1 .326-2.29l6.973-15.163a4.97 4.97 0 0 1 3.666-2.6l15.357-2.135a4.994 4.994 0 0 1 3.829 1.63z" fill="#fff" opacity=".4"/><path d="M131.39 1.899L145.435.114a4.187 4.187 0 0 1 3.503 1.475l8.4 10.12c.75 1.11.928 2.51.48 3.772l-5.474 13.038a4.212 4.212 0 0 1-3.031 2.305l-14.077 1.81a4.212 4.212 0 0 1-3.504-1.475l-8.374-10.12a4.221 4.221 0 0 1-.481-3.773l5.483-13.037a4.212 4.212 0 0 1 3.03-2.33z" fill="#90caf9"/><path d="M122.877 17.266a4.221 4.221 0 0 0 .48 3.773l8.4 10.12a4.252 4.252 0 0 0 3.145 1.49c-.954 0-1.385-.765-.97-1.768l5.483-13.037a3.789 3.789 0 0 1 1.238-1.548L129.598 2.69a3.83 3.83 0 0 0-1.238 1.515z" fill="#000" opacity=".1"/><path d="M157.94 15.188c.253-.953-.342-1.58-1.425-1.442l-14.053 1.784a4.155 4.155 0 0 0-2.184 1.125c.123-.114.253-.228.391-.334L129.622 2.705a3.747 3.747 0 0 1 1.793-.815L145.452.106a4.203 4.203 0 0 1 3.51 1.467l8.4 10.12a4.254 4.254 0 0 1 .578 3.495z" fill="#fff" opacity=".4"/><path d="M98.176 59.123l7.585.13a2.24 2.24 0 0 1 1.776 1.043l3.674 6.005a2.266 2.266 0 0 1 0 2.046l-3.902 6.518a2.265 2.265 0 0 1-1.785.986l-7.584-.13a2.24 2.24 0 0 1-1.744-1.051l-3.674-6.006a2.241 2.241 0 0 1 0-2.037l3.903-6.518a2.248 2.248 0 0 1 1.751-.986z" fill="#37474f"/><path d="M111.235 68.208c.204-.489-.057-.872-.651-.88l-7.577-.13c-.45.011-.886.162-1.246.432a1.37 1.37 0 0 1 .236-.147l-4.815-8.067a2.134 2.134 0 0 1 1.01-.285l7.577.13c.72.045 1.376.43 1.768 1.035l3.674 6.005a2.28 2.28 0 0 1 .024 1.907z" fill="#455a64" opacity=".4"/><path d="M92.49 66.62a2.241 2.241 0 0 0 0 2.036l3.674 6.005c.346.552.913.926 1.556 1.027-.505-.09-.684-.505-.383-1.01l3.902-6.519c.205-.303.486-.547.815-.709l-4.815-8.066c-.328.161-.61.405-.814.709z" fill="#263238"/><ellipse cx="97.434" cy="294.479" fill="#90caf9" rx="11.122" ry="11.12" transform="rotate(-80.78 97.434 294.48)"/><path d="M94.33 298.467c-5.295-3.838-5.702-11.408-1.588-14.088a11.123 11.123 0 0 0 6.29 21.092 11.122 11.122 0 0 0 9.515-11.005c-.424 5.386-8.92 7.83-14.216 4z" fill="#000" opacity=".1"/><path d="M116.188 272.27l5.76.106a1.719 1.719 0 0 1 1.328.815l2.786 4.571a1.703 1.703 0 0 1 0 1.548l-2.965 4.938a1.71 1.71 0 0 1-1.352.75l-5.76-.098a1.703 1.703 0 0 1-1.328-.815l-2.794-4.563a1.728 1.728 0 0 1 0-1.548l2.965-4.946c.31-.451.813-.732 1.36-.758z" fill="#37474f"/><path d="M126.103 279.172c.155-.367-.04-.66-.489-.668l-5.76-.098a1.63 1.63 0 0 0-.945.326l.172-.114-3.658-6.128c.237-.13.502-.204.774-.211l5.76.097c.547.044 1.04.347 1.327.815l2.786 4.563c.214.446.226.962.033 1.418z" fill="#455a64" opacity=".4"/><path d="M111.863 277.966a1.728 1.728 0 0 0 0 1.548l2.794 4.563c.254.432.687.73 1.181.815-.383-.073-.521-.391-.293-.766l2.965-4.938c.146-.227.348-.412.587-.538l-3.658-6.127a1.63 1.63 0 0 0-.587.53z" fill="#263238"/></g></g></g></g></svg>