<svg height="317" viewBox="0 0 373 317" width="373" xmlns="http://www.w3.org/2000/svg"><g fill="none" fill-rule="evenodd"><g fill="#000" fill-opacity=".12" fill-rule="nonzero" transform="translate(0 236)"><path d="m1.61 71.28 14.82 8.5c1.5699453.803 3.4300547.803 5 0l116.86-67.5c1.37-.79 1.37-2.07 0-2.85l-15-8.43c-1.571893-.79487379-3.428107-.79487379-5 0l-116.68 67.42c-1.37.79-1.37 2.07 0 2.86z"/><path d="m371.09 71.28-14.82 8.5c-1.570732.7997285-3.429268.7997285-5 0l-116.86-67.5c-1.37-.79-1.36-2.07 0-2.85l15-8.43c1.571893-.79487379 3.428107-.79487379 5 0l116.68 67.4c1.37.81 1.37 2.09 0 2.88z"/></g><g transform="translate(243)"><g fill-rule="nonzero"><path d="m.74 10.63v232.57c.14574436 2.637046 1.53339605 5.048741 3.74 6.5l103.13 59.53c2.06 1.2 3.74.22 3.74-2.17v-232.56c-.145744-2.6370464-1.533396-5.0487405-3.74-6.5l-103.13-59.53c-2.06-1.2-3.74-.23-3.74 2.16zm5.39 27.76c0-2 1.44-2.88 3.22-1.85l93.76 54.12c1.899163 1.2425378 3.094496 3.3139534 3.22 5.58v182.17c0 2.06-1.45 2.88-3.22 1.86l-93.76-54.13c-1.78-1-3.22-2.33-3.22-4.37z" fill="#90caf9"/><path d="m.74 10.63v232.57c.14574436 2.637046 1.53339605 5.048741 3.74 6.5l103.13 59.53c2.06 1.2 3.74.22 3.74-2.17v-232.56c-.145744-2.6370464-1.533396-5.0487405-3.74-6.5l-103.13-59.53c-2.06-1.2-3.74-.23-3.74 2.16zm5.39 27.76c0-2 1.44-2.88 3.22-1.85l93.76 54.12c1.899163 1.2425378 3.094496 3.3139534 3.22 5.58v182.17c0 2.06-1.45 2.88-3.22 1.86l-93.76-54.13c-1.78-1-3.22-2.33-3.22-4.37z" fill="#000" opacity=".5"/><path d="m108.07 309.46c2.254537.951537 4.812788.86748 7-.23l4.29-2.48c2.222675-1.438809 3.620887-3.855931 3.76-6.5v-232.55c-.02064-.9682487-.241972-1.9216805-.65-2.8-.130513-.3076314-.277389-.6080607-.44-.9l-11.8 6.81c.248893.4441199.4661.9052677.65 1.38.2804.7422411.432568 1.5267521.45 2.32v232.56c.02 2.2-1.41 3.2-3.26 2.39z" fill="#90caf9"/><path d="m108.07 309.46c2.254537.951537 4.812788.86748 7-.23l4.29-2.48c2.222675-1.438809 3.620887-3.855931 3.76-6.5v-232.55c-.02064-.9682487-.241972-1.9216805-.65-2.8-.130513-.3076314-.277389-.6080607-.44-.9l-11.8 6.81c.248893.4441199.4661.9052677.65 1.38.2804.7422411.432568 1.5267521.45 2.32v232.56c.02 2.2-1.41 3.2-3.26 2.39z" fill="#000" opacity=".7"/></g><path d="m55.15 259c-3.27-1.88-5.92-.35-5.92 3.42.2245205 4.168296 2.4236148 7.979564 5.92 10.26 3.27 1.88 5.92.35 5.92-3.42-.2245205-4.168296-2.4236148-7.979564-5.92-10.26z" stroke="#e6e6e6"/><g fill-rule="nonzero"><path d="m56 43.25c-1.38-.8-2.51-.15-2.51 1.45.1000238 1.7685099 1.0308644 3.3854283 2.51 4.36 1.39.8 2.52.15 2.52-1.46-.0974879-1.7691218-1.0337994-3.3853738-2.52-4.35z" fill="#000"/><path d="m65.75 58.54-19.41-11.21c-1.16-.66-2.1-.19-2.1 1.06.1033196 1.4316799.8834455 2.7281749 2.1 3.49l19.41 11.2c1.16.67 2.1.2 2.1-1.06-.1064114-1.4280604-.8861601-2.7202154-2.1-3.48z" fill="#000"/><path d="m6.13 221.77c0 2 1.44 3.35 3.22 4.37l93.76 54.13c1.77 1 3.22.2 3.22-1.86v-182.17c-.125504-2.2660466-1.320837-4.3374622-3.22-5.58l-93.76-54.12c-1.78-1-3.22-.2-3.22 1.85z" fill="#90caf9"/><path d="m6.13 221.77c0 2 1.44 3.35 3.22 4.37l93.76 54.13c1.77 1 3.22.2 3.22-1.86v-182.17c-.125504-2.2660466-1.320837-4.3374622-3.22-5.58l-93.76-54.12c-1.78-1-3.22-.2-3.22 1.85z" fill="#fff" opacity=".5"/><g fill="#455a64"><path d="m12.4 52.17v-1.71c0-.37.15-.59.33-.49l.09.06c.2312593.2199405.3522686.531631.33.85v1.71c0 .37-.15.59-.33.48h-.09c-.2430926-.232935-.3648992-.5651347-.33-.9z"/><path d="m13.89 53v-3c0-.37.14-.59.32-.48h.09c.2305102.2245891.3511031.5388616.33.86v2.95c0 .37-.15.58-.33.48l-.09-.05c-.2003014-.202843-.3148829-.4749741-.32-.76z"/><path d="m15.37 53.88v-4.2c0-.37.15-.58.33-.48l.09.05c.2293683.2253395.3497524.5390677.33.86v4.2c0 .37-.15.58-.33.48h-.09c-.2434351-.2368674-.3650224-.5721535-.33-.91z"/><path d="m16.86 54.73v-7.24c0-.37.14-.59.32-.48h.09c.2293683.2253395.3497524.5390677.33.86v7.24c0 .37-.15.59-.33.48h-.09c-.2280122-.2256167-.3450712-.5402127-.32-.86z"/><path d="m20.88 57.55c-.0348538-.0856635-.0518672-.1775363-.05-.27v-1.06l-1.66-1c-.0854307-.0457541-.1472767-.1257901-.17-.22v-.38c-.0077425-.0630967-.0077425-.1269033 0-.19.0137815-.0476474.0304796-.0944022.05-.14l1.77-2.79s.06-.08.09-.09.06 0 .11 0l.23.14c.0722652.0352788.1291616.0957312.16.17.0175767.0925058.0175767.1874942 0 .28v3.72l.37.21c.0646385.0374319.1168119.0930834.15.16.0174454.0958796.0174454.1941204 0 .29v.25c.0211123.0718138.0211123.1481862 0 .22 0 0-.08 0-.15 0l-.37-.21v1.06c.0211123.0718138.0211123.1481862 0 .22 0 0-.08 0-.16 0l-.28-.16c-.0520061-.0583709-.0835977-.1320846-.09-.21zm.06-2.17v-2.65l-1.21 2z"/><path d="m22.85 58.05c-.3435439-.8717667-.510114-1.8031996-.49-2.74-.074097-.7571948.0977237-1.5181153.49-2.17.3333333-.38.7933333-.4 1.38-.06.4928713.2792998.9007002.6871287 1.18 1.18.0147363.0489142.0147363.1010858 0 .15.0038002.033225.0038002.066775 0 .1l-.15.38s0 .06-.06.05c-.0299542-.0242077-.0539105-.0550086-.07-.09-.211884-.3441026-.5034141-.6322029-.85-.84-.4-.23-.72-.22-.94.05-.28094.4944321-.3998464 1.0644837-.34 1.63-.0207118.6817569.091369 1.3610346.33 2 .1668799.4631552.4836275.85733.9 1.12.1275538.0789215.2655717.1395148.41.18.1081685.028388.2218315.028388.33 0v-1.69l-.69-.4c-.0674766-.0384546-.1202464-.0982603-.15-.17-.018323-.092434-.018323-.187566 0-.28v-.24c0-.12 0-.19 0-.22s.08 0 .15 0l1.1.64c.0792046.0436504.1396799.1147978.17.2.0350358.1064222.0519378.2179757.05.33v2.46c.0082621.0664107.0082621.1335893 0 .2-.0081109.036418-.0295029.0685061-.06.09-.4486696.1572324-.9465771.0742478-1.32-.22-.6224862-.38357-1.1033372-.9591872-1.37-1.64z"/><path d="m98.74 95c-.1043667-.3966992-.3362759-.7480767-.66-1l-5-2.88c-.43-.25-.76.24-.76 1.12v3.76c.0055722.5189654.1002837 1.0331138.28 1.52.0718417.1948897.1622579.3824194.27.56.0981875.1664889.2312304.3097659.39.42l5 2.88c.43.24.77-.25.77-1.13v-3.73c-.009169-.5195084-.1072539-1.0336082-.29-1.52zm-5.94 2.25c-.0762612-.2115419-.1135308-.4351594-.11-.66v-3.73c0-.65.27-1.05.58-.86l5 2.88c.0864918.0512961.1587039.1235082.21.21.0325254.057221.059322.1175134.08.18.0761778.2150253.1134267.4419053.11.67v3.72c0 .65-.27 1.05-.58.86l-5-2.88c-.1475332-.0970355-.2515334-.2476565-.29-.42z"/><path d="m95.94 94.18v4.41l-2.68-1.59-.09-.07c.0057003-.0498375.0057003-.1001625 0-.15v-3.35c0-.47.21-.77.44-.64z"/><path d="m99.27 96.66c.19.1.34.81.34 1.57v.69c0 .77-.15 1.32-.34 1.23l-.34-.16v-3.52z"/><path d="m86.9 93.41c0 .82-.43 1.24-1 .93-.6349171-.4898876-1.0047636-1.248073-1-2.05 0-.82.43-1.23 1-.93.6373989.4878613 1.0078883 1.2473645 1 2.05z"/><path d="m85.93 88.93c-.3833916-.2752574-.8767621-.3466948-1.3224826-.1914886-.4457206.1552063-.7880131.5176335-.9175174.9714886-.0774721.2658217-.0412639.5518664.1.79.18.32.45.4.56.14.0817788-.3271447.3229274-.5910421.6413952-.7019011.3184677-.110859.6713598-.053748.9386048.1519011.8016609.571812 1.3642341 1.4192325 1.58 2.38.11.38.38.62.57.5.1625423-.1880212.2015311-.4531445.1-.68-.3226395-1.353651-1.1212095-2.5461822-2.25-3.36z"/><path d="m85.93 86.55c-.5607203-.4102231-1.2773538-.5437088-1.9481678-.3628807-.670814.1808282-1.223263.6564143-1.5018322 1.2928807-.0954564.2751177-.0662457.5781789.08.83.17.32.43.4.55.17.2248532-.5202493.6746402-.9095931 1.2217442-1.0575643s1.1318227-.0384225 1.5882558.2975643c1.3728518.9685362 2.3690217 2.381543 2.82 4 .12.36.38.59.55.47.16-.1.19-.42.08-.74-.5538885-1.9780404-1.7677536-3.7070924-3.44-4.9z"/></g><path d="m.77 10c.27-2 1.83-2.66 3.71-1.57l103.13 59.57c1.108735.6907576 2.021273 1.6549491 2.65 2.8l11.8-6.81c-.635411-1.1407543-1.550839-2.1009208-2.66-2.79l-103.11-59.54c-2.3593946-1.20054428-5.1506054-1.20054428-7.51 0l-4.3 2.47c-2.02541036 1.32999523-3.37784051 3.46982407-3.71 5.87z" fill="#90caf9"/><path d="m.77 10c.27-2 1.83-2.66 3.71-1.57l103.13 59.57c1.108735.6907576 2.021273 1.6549491 2.65 2.8l11.8-6.81c-.635411-1.1407543-1.550839-2.1009208-2.66-2.79l-103.11-59.54c-2.3593946-1.20054428-5.1506054-1.20054428-7.51 0l-4.3 2.47c-2.02541036 1.32999523-3.37784051 3.46982407-3.71 5.87z" fill="#000" opacity=".2"/></g></g><g transform="translate(7)"><g fill-rule="nonzero"><path d="m119.52 8.47-103.13 59.53c-2.206604 1.4512595-3.5942556 3.8629536-3.74 6.5v232.56c0 2.39 1.68 3.37 3.74 2.17l103.13-59.53c2.206604-1.451259 3.594256-3.862954 3.74-6.5v-232.57c0-2.39-1.68-3.36-3.74-2.16zm-1.65 213.3c0 2-1.44 3.35-3.22 4.37l-93.76 54.13c-1.77 1-3.22.2-3.22-1.86v-182.17c.1255045-2.2660466 1.3208374-4.3374622 3.22-5.58l93.76-54.12c1.78-1 3.22-.2 3.22 1.85z" fill="#90caf9"/><path d="m119.52 8.47-103.13 59.53c-2.206604 1.4512595-3.5942556 3.8629536-3.74 6.5v232.56c0 2.39 1.68 3.37 3.74 2.17l103.13-59.53c2.206604-1.451259 3.594256-3.862954 3.74-6.5v-232.57c0-2.39-1.68-3.36-3.74-2.16zm-1.65 213.3c0 2-1.44 3.35-3.22 4.37l-93.76 54.13c-1.77 1-3.22.2-3.22-1.86v-182.17c.1255045-2.2660466 1.3208374-4.3374622 3.22-5.58l93.76-54.12c1.78-1 3.22-.2 3.22 1.85z" fill="#000" opacity=".5"/><path d="m15.93 309.46c-2.2545367.951537-4.8127882.86748-7-.23l-4.29-2.48c-2.22267474-1.438809-3.62088697-3.855931-3.76-6.5v-232.55c.02064007-.9682487.24197247-1.9216805.65-2.8.13051293-.3076314.27738947-.6080607.44-.9l11.8 6.81c-.2488925.4441199-.4660999.9052677-.65 1.38-.2804002.7422411-.4325683 1.5267521-.45 2.32v232.56c-.02 2.2 1.41 3.2 3.26 2.39z" fill="#90caf9"/><path d="m15.93 309.46c-2.2545367.951537-4.8127882.86748-7-.23l-4.29-2.48c-2.22267474-1.438809-3.62088697-3.855931-3.76-6.5v-232.55c.02064007-.9682487.24197247-1.9216805.65-2.8.13051293-.3076314.27738947-.6080607.44-.9l11.8 6.81c-.2488925.4441199-.4660999.9052677-.65 1.38-.2804002.7422411-.4325683 1.5267521-.45 2.32v232.56c-.02 2.2 1.41 3.2 3.26 2.39z" fill="#000" opacity=".7"/></g><path d="m68.85 259c3.27-1.88 5.92-.35 5.92 3.42-.2245205 4.168296-2.4236148 7.979564-5.92 10.26-3.27 1.88-5.92.35-5.92-3.42.2245205-4.168296 2.4236148-7.979564 5.92-10.26z" stroke="#e6e6e6"/><g fill-rule="nonzero"><path d="m68 43.25c1.38-.8 2.51-.15 2.51 1.45-.1000238 1.7685099-1.0308644 3.3854283-2.51 4.36-1.39.8-2.52.15-2.52-1.46.0974879-1.7691218 1.0337994-3.3853738 2.52-4.35z" fill="#000"/><path d="m58.25 58.54 19.41-11.21c1.16-.66 2.1-.19 2.1 1.06-.1033196 1.4316799-.8834455 2.7281749-2.1 3.49l-19.41 11.2c-1.16.67-2.1.2-2.1-1.06.1064114-1.4280604.8861601-2.7202154 2.1-3.48z" fill="#000"/><path d="m117.87 221.77c0 2-1.44 3.35-3.22 4.37l-93.76 54.13c-1.77 1-3.22.2-3.22-1.86v-182.17c.1255045-2.2660466 1.3208374-4.3374622 3.22-5.58l93.76-54.12c1.78-1 3.22-.2 3.22 1.85z" fill="#90caf9"/><path d="m117.87 221.77c0 2-1.44 3.35-3.22 4.37l-93.76 54.13c-1.77 1-3.22.2-3.22-1.86v-182.17c.1255045-2.2660466 1.3208374-4.3374622 3.22-5.58l93.76-54.12c1.78-1 3.22-.2 3.22 1.85z" fill="#fff" opacity=".9"/><g fill="#455a64"><path d="m93.47 60.57c0 .83.43 1.24 1 .93.625839-.4751943.995348-1.2142122 1-2 0-.82-.43-1.24-1-.93-.625839.4751943-.995348 1.2142122-1 2z"/><path d="m92.19 59.47c-.1015311.2268555-.0625423.4919788.1.68.19.11.46-.13.57-.51.2209561-.9585431.7824039-1.8042683 1.58-2.38.2686332-.2056062.6230039-.2614599.9418554-.1484492s.5589518.3795629.6381446.7084492c.11.25.38.18.56-.15.1441159-.2408197.1804028-.5311154.1-.8-.131919-.4521153-.4752032-.8119959-.9205913-.965098-.4453881-.1531022-.9373895-.0803511-1.3194087.195098-1.1307703.8162913-1.9295537 2.0126912-2.25 3.37z"/><path d="m91 58.63c-.11.32-.08.64.08.74.17.11.43-.11.55-.47.4561919-1.6159786 1.4512342-3.0273861 2.82-4 .4577611-.3354294 1.0436116-.443526 1.5909364-.2935473.5473249.1499787.996236.541622 1.2190636 1.0635473.12.22.38.15.55-.17.1429305-.2533206.1684846-.5563191.07-.83-.2782401-.6343246-.8297508-1.1077674-1.498899-1.2867257-.6691481-.1789582-1.3833643-.0440237-1.941101.3667257-1.6685453 1.187849-2.8820217 2.9092922-3.44 4.88z"/><path d="m23.6 101.8v-1.48c-.0071799-.30957.1294575-.6050019.37-.8l.11-.06c.2-.12.37 0 .37.36v1.48c.0071799.30957-.1294575.605002-.37.8l-.11.06c-.21.12-.37-.04-.37-.36z"/><path d="m25.31 100.81v-2.56c-.0071799-.3095697.1294575-.6050019.37-.8l.11-.06c.21-.12.38 0 .38.36v2.56c.0047649.311279-.1357125.607021-.38.8l-.11.06c-.2.12-.37-.04-.37-.36z"/><path d="m27 99.82v-3.64c-.001658-.3077803.138508-.5991779.38-.79l.1-.06c.21-.12.38 0 .38.36v3.63c.0047649.311279-.1357125.6070209-.38.8l-.1.06c-.19.12-.38-.04-.38-.36z"/><path d="m28.74 98.83v-6.28c-.0040813-.306084.1322535-.5971772.37-.79l.11-.06c.21-.12.38 0 .38.36v6.27c.0071799.3095697-.1294575.6050019-.37.8l-.11.06c-.21.12-.38-.04-.38-.36z"/><path d="m33.38 96.58s0-.09 0-.18v-.92l-1.93 1.11c-.1.06-.15 0-.15-.11v-.33c-.0058837-.0598558-.0058837-.1201442 0-.18l.07-.19 2-4.48c.0285216-.0625497.0619598-.1227384.1-.18.0393479-.0411326.0829219-.078003.13-.11l.27-.15c.08-.0533333.14-.0533333.18 0 .0246214.0643934.0246214.1356066 0 .2v3.21l.43-.24c.08-.05.13-.06.17 0s0 .09 0 .19v.22c.0176674.0790246.0176674.1609754 0 .24-.0412262.0676676-.0999603.1229467-.17.16l-.43.25v.91c.0170771.1714136-.074815.3352213-.23.41l-.32.18c-.03 0-.09.01-.12-.01zm.07-2v-2.3l-1.39 3.1z"/><path d="m35.66 94.7c-.38-.28-.56-.88-.56-1.8-.0128521-.8497942.179235-1.6901754.56-2.45.360874-.6936231.9125583-1.2695954 1.59-1.66.2412531-.1429594.5000963-.2538921.77-.33.1952853-.0614144.4047147-.0614144.6 0 .0125043.0216581.0125043.0483419 0 .07.0072732.036306.0072732.073694 0 .11l-.18.5c0 .07 0 .11-.07.12h-.08c-.3521543-.0340084-.7052796.0542729-1 .25-.46371.2738801-.8413364.6722933-1.09 1.15-.2745387.5628894-.4083687 1.1839979-.39 1.81 0 .71.13 1.17.38 1.36s.61.17 1.05-.08c.1651357-.0974153.3222941-.2077605.47-.33.1408724-.1078494.268433-.2320532.38-.37v-1.49l-.8.46c-.08.05-.14.06-.17 0-.0230199-.0612416-.0230199-.1287584 0-.19v-.21c-.0191905-.0822285-.0191905-.1677715 0-.25.0412262-.0676676.0999603-.1229467.17-.16l1.28-.73c.09-.06.15-.06.19 0s.06.11.06.23v2.13c.0066834.0664992.0066834.1335008 0 .2-.0166622.0547251-.043836.1056759-.08.15-.4011383.5563811-.9201541 1.0173491-1.52 1.35-.65.38-1.22.46-1.56.16z"/><path d="m108.91 46.77c-.199505-.2092946-.521289-.2431667-.76-.08l-5.76 3.31c-.571694.4541713-.897433 1.1500674-.88 1.88v3.22c-.031072.3643996.088146.7256663.33 1 .083913.0865164.191938.1457554.31.17.15598.0276422.31665-.0044916.45-.09l5.76-3.32c.571694-.4541713.897433-1.1500674.88-1.88v-3.22c.028295-.3610344-.090743-.7181497-.33-.99zm-6.86 8.88c-.094882-.1335108-.137572-.2971533-.12-.46v-3.19c-.005866-.5537776.240731-1.080097.67-1.43l5.76-3.32c.071369-.0455153.155609-.0665753.24-.06h.1c.094882.1335108.137572.2971533.12.46v3.22c.005866.5537776-.240731 1.080097-.67 1.43l-5.76 3.32c-.14.1-.26.11-.34.03z"/><path d="m105.68 49.34v3.82l-3.1 1.79h-.1c.005438-.0431627.005438-.0868373 0-.13v-2.82c.000897-.4100722.18412-.7985051.5-1.06z"/><path d="m109.53 47.6c.21-.12.38.32.38 1v.6c.050319.51465-.0883 1.030031-.39 1.45l-.38.25v-3z"/></g><path d="m123.23 10c-.27-2-1.83-2.66-3.71-1.57l-103.13 59.57c-1.1087348.6907576-2.0212732 1.6549491-2.65 2.8l-11.8-6.8c.6354115-1.1407543 1.55083903-2.1009208 2.66-2.79l103.11-59.55c2.355902-1.20040762 5.144098-1.20040762 7.5 0l4.31 2.47c2.02541 1.32999523 3.377841 3.46982407 3.71 5.87z" fill="#90caf9"/><path d="m123.23 10c-.27-2-1.83-2.66-3.71-1.57l-103.13 59.57c-1.1087348.6907576-2.0212732 1.6549491-2.65 2.8l-11.8-6.8c.6354115-1.1407543 1.55083903-2.1009208 2.66-2.79l103.11-59.55c2.355902-1.20040762 5.144098-1.20040762 7.5 0l4.31 2.47c2.02541 1.32999523 3.377841 3.46982407 3.71 5.87z" fill="#000" opacity=".2"/></g></g><g fill-rule="nonzero" transform="translate(37 63)"><g fill="#90caf9"><path d="m283.11 170.58s-10.69 10.7-24.9 6.61c0 0 4.28 4.22 14.35 1.39 6.79-1.91 10.55-8 10.55-8z"/><path d="m304.33 105s5.46 14.1-4 25.44c0 0 5.59-2.2 7.07-12.56.97-7.02-3.07-12.88-3.07-12.88z"/><path d="m282 175.07c10-10.29 14.35-22.3 14.45-34.57 0 0 2.91 7.3-1.63 18.82s-12.82 15.75-12.82 15.75z"/><path d="m6.13 160.19s-.13 15.12 12.75 22.39c0 0-6-.1-11-9.26-3.45-6.18-1.75-13.13-1.75-13.13z"/><path d="m2.87 166.25c-2.22296988-12.791595.69925015-25.943383 8.13-36.59 0 0-6.58 4.29-9.5 16.33s1.37 20.26 1.37 20.26z"/></g><g transform="translate(137 1)"><path d="m89.86 81 4.23-12.65c-11.14 2-14.17 3.52-17.46 12.73l-2.18 7.34-13.34 41.06c-3.16.83-42.5 11.67-43.87 11.84 0 0-.06.1-.1.15-12.85.82-17 1.39-17 1.39 3.61 9.44 10.38 14.76 19.73 16.68v-.22.07c16.55-2.82 43.7-9.22 52.53-12.15 3.72-1.19 5.31-5.38 6.84-8.88 6.25-14.29 12.78-33.55 15-45.14 1.44-6.98-.67-10.47-4.38-12.22z" fill="#b16668"/><path d="m94.09 68.3s-11.07-1.7-15.87 8.46c-3.22 6.86-13.07 36.24-13.07 36.24s7 9 22.33 9.55c0 0 14.48-33.25 13.67-34.31s-7.06-19.94-7.06-19.94z" fill="#37474f"/><path d="m92.06 68.09c-2.69.26-9.51 9.38-9.65 24.9-.19 20.79 10 46.24 12.56 51.73s7.54 16.24 16 24.22c2.73 2.56 21.37 9.81 33.38-3.69 12.22-13.73 10.29-31.77 7.85-37.42-4.09-9.46-11.32-20.47-11.06-32.92-1.53-8.94-4.46-20.51-11.14-25.36-2.75-.7-11.41-1.81-13.1-1.58z" fill="#fafafa"/><path d="m127.26 84.59-3.41 4.28c1 6.79 6.15 16.6 12.14 24.43 4.67 6.11 14.17 12.41 18 23.2-.10722-2.964165-.691374-5.891687-1.73-8.67-4.09-9.46-11.32-20.47-11.06-32.92-.25-1.48-.55-3-.89-4.61l-3.2-2.9z" fill="#ebebeb"/><path d="m130 69.55c5.85 1.44 9 4.53 14.12 10.38 5.88 6.6 17.88 20.48 17.88 20.48 8.39 14.54.85 29.33-5.44 26.9 0 0-14.18-13.85-22.88-24.35-5.83-7-8.8-11-9.13-18.71-.28-6.06.8-12.25 5.45-14.7z" fill="#b16668"/><path d="m126.94 69s5.05-1.12 11.62 4.17 22.63 22.77 22.63 22.77.48 18.51-11.31 26.86c0 0-17.4-17.46-21.69-23.5-6.08506-9.0601298-6.568117-20.7694422-1.25-30.3z" fill="#37474f"/><g fill="#263238"><path d="m123.85 34s-2.54 15.51-3.73 18.09c-.799116 1.5998417-2.185757 2.8288291-3.87 3.43l-.25-10.77z"/><path d="m115.6 11.49s4.19-2.11 7.06.56 3.06 11.85.9 23.74l-7.22-.38z"/><circle cx="89.526191" cy="26.15705" r="20.19" transform="matrix(.98098904 -.19406314 .19406314 .98098904 -3.37414 17.871004)"/><path d="m116.2 13.06 6.25-5.74c-.721071-.86571096-1.765219-1.39835413-2.889358-1.4739265-1.124139-.07557236-2.230185.31252-3.060642 1.0739265-1.724729 1.63764377-1.856865 4.3420177-.3 6.14z"/></g><path d="m78.81 14.35c-1.27 2.19-7.62 11.39-5.3 28.67 2.18 16.27 7.41 20.09 10.19 20.95s8.36.37 13.24-1l.88 6.91s-2.85 4.58 1 7.11 12.32.67 14.28-.89c4.61-3.69 3.91-6.8 3.91-6.8l-1-22.44s3.47 2.86 7.94-.51c4.22-3.17 4.41-11.55.85-14.43s-9.27-1.16-10.05 3.47c0 0-.15-17.2-9.92-21.77-12.51-5.86-26.02.73-26.02.73z" fill="#b16668"/><path d="m113.63 37.63c.55-.29 1.49-4.89 4.2-6.45 2.49-1.44-2.21-22-2.23-22.1-.28-1.51-1.83-3.28-2.84-4.38-1.526224-1.61966995-3.439639-2.82415781-5.56-3.5-2.914951-.88992812-5.999553-1.0750042-9-.54-4.66.72-9.13 2.66-13.84 2.68-4.47 0-8.74-1.73-13.12-2.6-.8381092-.2631766-1.7444372-.20251685-2.54.17-.4077259.28168669-.7268304.67363027-.92 1.13-.5504952 1.32361179-.6002612 2.80237237-.14 4.16.4799602 1.34406149 1.1537447 2.61077635 2 3.76-1.56-.73-3.76-.79-4.66.67-.71 1.15-.27 2.65.38 3.83 2.74 4.92 7.61 7.08 12.73 8.25 2.1516602.3646793 4.3279309.5652573 6.51.6 5.52.31 10.82-1.9 15.91-4.06 1.4-.6 4.13-1.62 5.66-.38 1.9 1.54 1.81 6.52 2.38 10.61.87 6.41 3 9.27 5.08 8.15z" fill="#263238"/><path d="m96 50-5.57 2.49c.2983828.7600689.8936906 1.3656734 1.6485313 1.6770452.7548408.3113719 1.6039891.3016054 2.3514687-.0270452 1.5436323-.7405036 2.2344439-2.5621341 1.57-4.14z" fill="#9a4a4d"/><path d="m76 36.71c.1117569 1.1280323 1.1100084 1.9563644 2.2392989 1.8581319 1.1292904-.0982324 1.9695244-1.0864868 1.8848306-2.2168733-.0846939-1.1303864-1.0628094-1.9824016-2.1941295-1.9112586-1.1589464.095549-2.0221124 1.1107754-1.93 2.27z" fill="#263238"/><path d="m92.06 35.72c.1117569 1.1280323 1.1100084 1.9563644 2.2392989 1.8581319 1.1292904-.0982324 1.9695244-1.0864868 1.8848306-2.2168733-.0846939-1.1303864-1.0628094-1.9824016-2.1941295-1.9112586-.5576605.0433052-1.0750026.307294-1.4373124.7334304s-.5396464.9792048-.4926876 1.5365696z" fill="#263238"/><path d="m86.62 36.16-.37 12.41-6.53-2.04z" fill="#9a4a4d"/><path d="m96.94 63c4.1-.94 12.12-4.39 13.64-7.39 0 0 .15 1.91-2.28 4.81s-10.95 5.8-10.95 5.8z" fill="#9a4a4d"/><g fill="#263238"><path d="m74.37 32.4 4.63-2c-.5951007-1.2870452-2.0978896-1.8775839-3.41-1.34-.6131289.2716482-1.0894491.7809235-1.3195342 1.4108288-.2300852.6299053-.1941557 1.3262897.0995342 1.9291712z"/><path d="m93.31 29.41 4.42 2.4c.655568-1.2585067.1900651-2.8101832-1.05-3.5-.58927-.3200917-1.284305-.3835507-1.9217992-.1754666-.6374942.2080842-1.1612483.6693675-1.4482008 1.2754666z"/></g></g><g transform="translate(8)"><path d="m89.21 67.22h-34.46c-17.131544-.0054385-31.0304081-13.8685269-31.0800616-31v-5.41c-.0331129-16.5315224 13.338551-29.96138235 29.8700616-30.00013572h5.62c7.9395506-.02376574 15.5628329 3.11004003 21.1900833 8.71102994 5.6272504 5.60098988 8.7966802 13.20953018 8.8099167 21.14910578z" fill="#263238"/><path d="m60.69 69.16c12.36-.93 20.15 4.8 20.41 16.29.14 5.79-4.88 28.84-4.88 28.84z" fill="#ffa8a7"/><path d="m60.69 69.16c6.29.63 13.23 11.37 19.27 25.18 2.37 5.44 6.7 12.76 1.24 22.94-3.38 6.29-10.34 8.83-10.34 8.83-2.519724 7.890941-6.1566508 15.380316-10.8 22.24-2.9003603 9.235107-8.1765383 17.545949-15.3 24.1-2.8 2.48-19.91 17.63-33.7 5.94-8.2-6.95-11.06-18-10.22-28.43.49-6.13 1.85-12.19 6.16-16.58 2.48485141-2.5285 4.7810045-5.235755 6.87-8.1 2.19-10.43-.32-17.51-.58-30 1.53-8.94 5.32-16.52 12-21.36 4.9474166-1.9577209 10.1506843-3.1937074 15.45-3.67z" fill="#90caf9"/><path d="m60.48 147.73-.84-6.73s-29-45.46-30.23-46.74c-.72-.77-7.68-5.41-13.12-9-1.4240128 3.1911446-2.4322614 6.5519731-3 10 .26 12.45 2.77 19.53.58 30 0 0-1.49 2.11-3.9 4.88 4.3 1.12 11.31-4.29 11.31-4.29s14 19.79 20.16 26.82c5.75 6.59 9.19 7.57 13.44 7.28 2.1869735-3.651294 3.926167-7.552728 5.18-11.62.15-.19.28-.4.42-.6z" fill="#000" opacity=".1"/><path d="m81.2 117.28c.29-.55.56-1.09.8-1.63-5.63 4.32-9.55 1.28-14.27.37-4.88-.94-8.5 6-17.63 5.14-12-1.16-16.35-8.71-16.35-8.71s-.32 13.07 14.55 15.94c9.94 1.92 13.59-3.45 16.34-3.45 1.2 0 2.27.93 6.22 1.17 0 0 6.96-2.54 10.34-8.83z" fill="#000" opacity=".05"/><path d="m77.83 17c1.24 2.14 7.4 11.07 5.15 27.84-2.12 15.79-7.2 18.36-9.9 19.2s-8.11.35-12.85-1l-1.07 9.5s4.6 6.54 3.69 10.84-10.1 3.75-15.86-1.2c-3.4672-3.0434738-5.6891704-7.2595202-6.24-11.84l1-21.8s-3.37 2.78-7.71-.49c-4.09-3.08-4.28-11.21-.82-14s9-1.13 9.75 3.36c0 0 10.72 2.48 20.21-2 12.11-5.68 13.88-13.91 14.65-18.41z" fill="#ffa8a7"/><path d="m43.17 43.4-.29-9.9200198c2.801221-.0076329 5.1071009 2.2010644 5.22 5.0000198.0219395 1.3132111-.4907517 2.5789523-1.4204041 3.506719-.9296525.9277667-2.1964321 1.4378869-3.5095959 1.413281z" fill="#263238"/><path d="m64.85 52.38 5.4 2.42c-.2919737.7327804-.8679944 1.3162624-1.5969567 1.6176421-.7289623.3013798-1.5488468.2950163-2.2730433-.0176421-1.5078936-.7106803-2.1837981-2.4865862-1.53-4.02z" fill="#f28f8f"/><path d="m80.55 38.85c.0009944.5518942-.2261109 1.079669-.6275559 1.4583907-.401445.3787218-.9415433.5747239-1.4924441.5416093-1.1258604-.0954405-1.9622253-1.0838717-1.87-2.21.0464445-.7145312.4705589-1.3500074 1.1125833-1.6670508.6420244-.3170435 1.4044201-.2674877 2 .13s.9338612 1.0825196.8874167 1.7970508z" fill="#263238"/><path d="m66.06 40c-.1166006 1.0859441-1.0828228 1.8775328-2.1704816 1.7781921-1.0876588-.0993408-1.8944916-1.0528705-1.8124358-2.1419696.0820558-1.0890992 1.0226525-1.9109727 2.1129174-1.8462225.5460001.0324266 1.0548968.2870543 1.4082027.7045977s.5201904.9615661.4617973 1.5054023z" fill="#263238"/><path d="m71.86 38.72.36 12.05 6.34-1.98z" fill="#f28f8f"/><path d="m60.23 63c-4-.91-11.76-4.26-13.24-7.17 0 0-.14 1.86 2.22 4.67s10.67 5.58 10.67 5.58z" fill="#f28f8f"/><path d="m81.19 33.48-4.49-1.94c.5808077-1.2459494 2.0365273-1.8176822 3.31-1.3.5953391.2628255 1.0577601.7570539 1.2804604 1.368536.2227003.6114822.1864204 1.2873362-.1004604 1.871464z" fill="#263238"/></g><path d="m62.3 156.43 9.76-18.67c3.24.47 6.48.92 9.72 1.37 6.45.89 30.82 3.88 32.2 3.9 2.690362-.042689 5.345302-.620589 7.81-1.7 3.86-1.45 6.72-3.77 9.84-4.41 1.445209-.284908 2.924872-.352318 4.39-.2 1.85.13 1.37 1.12 3.2 1.44.524959.047012 1.025086.244979 1.44.57.7.66.19 1.06-.18 1.6-.392664.683059-.644296 1.437955-.74 2.22-.14.67-.69 2.95.26 3.32 4.61 1.79 5.13 4.43 11.11 9.56 2.86 2.45 4.4 4.22 6.33 5.47 1.21 1.83 1.3 3-3 5.52-2.86 1.7-8 5-16.41 2.36-9.16-2.87-13.85-8-16.21-8.11-16.74-.94-50.41-2.33-59.52-4.24z" fill="#ffa8a7"/><path d="m72.06 137.76-24.66-40.43s-4.05-22.59-14.1-23.37c0 0-9.2 2.37-11.3 7.89-2.53 6.68-2.41 13.22 5.14 28 5.7 11.2 21.15 32.31 27.33 39.46 2.5 2.89 5.23 6.28 7.83 7.08" fill="#ffa8a7"/><g fill="#b16668"><path d="m122.12 160.7c.94522.238105 1.826196.682008 2.58 1.3 1.542381-.277073 2.980366-.968412 4.16-2 4.62-3.37 20.5 3.4 16.59 7.75-2.84 3.16-5.61 4-10.14 2.59-6.68-2.04-13.8-5.09-13.19-9.64z"/><path d="m137.52 137.28c-5.26.91-10.72 4.75-13.57 5.91s-5.79 1.85-3.17 4.36 9 0 13.41-1.56c3-1.08 6.79 0 8.48.7 1.24.51.58-2.84.58-2.84-1-1.46 11.41 0 11-1.44-6.56.28-12.49-6.1-16.73-5.13z"/></g></g></g></svg>