<svg height="327" width="388" xmlns="http://www.w3.org/2000/svg"><g fill="none"><g fill="#000" fill-opacity=".1" transform="translate(-1 133)"><path d="M222.58 117.92c-18.37-10.6-48.15-10.6-66.52 0-15.57 9-17.93 22.71-7.11 33.15a7.3 7.3 0 0 0-1.75.71l-58 33.5c-2.46 1.42-2.46 3.73 0 5.15l3.64 2.1a9.17 9.17 0 0 0 8.77-.25l54-35.37a4.46 4.46 0 0 0 .62-.49c18.38 10.51 48 10.48 66.34-.09s18.43-27.8.01-38.41zM351.7 79.35l-73.92 42.77a6.57 6.57 0 0 1-5.95 0L143.24 47.87c-1.64-.94-1.64-2.48 0-3.43l73.92-42.77a6.57 6.57 0 0 1 5.95 0L351.7 75.92c1.64.94 1.64 2.48 0 3.43zM22.53 160.24L2.76 148.82c-2.39-1.38-2.39-3.62 0-5l137.57-79.43a9.57 9.57 0 0 1 8.66 0l19.78 11.42c2.39 1.38 2.39 3.62 0 5L31.19 160.24a9.57 9.57 0 0 1-8.66 0z"/><ellipse cx="351.9" cy="162.98" rx="36.53" ry="19.96"/></g><path d="M348 198.5l-71.42 41.33a6.4 6.4 0 0 1-5.75 0l-124.3-71.75c-1.59-.91-1.59-2.4 0-3.31L218 123.43a6.38 6.38 0 0 1 5.74 0L348 195.18c1.54.92 1.54 2.4 0 3.32z" fill="#37474f"/><path d="M309.79 217.45a8.83 8.83 0 0 1-8 0c-2.2-1.27-2.2-3.33 0-4.6a8.77 8.77 0 0 1 8 0c2.21 1.27 2.21 3.33 0 4.6z" fill="#263238"/><path d="M276.53 239.83L348 198.5c1.42-.82 1.57-2.1.45-3a6.43 6.43 0 0 1 2.43 4.66v2.7a6.35 6.35 0 0 1-2.88 5l-71.42 41.33a5.89 5.89 0 0 1-2.87.69v-9.33a5.89 5.89 0 0 0 2.82-.72z" fill="#455a64"/><path d="M146.53 177.42a6.35 6.35 0 0 1-2.87-5v-2.7a6.43 6.43 0 0 1 2.43-4.67c-1.12.92-1 2.19.44 3l124.25 71.75a5.9 5.9 0 0 0 2.88.69v9.33a5.9 5.9 0 0 1-2.88-.69z" fill="#263238"/><path d="M264.6 231.17l67.37-39a1.05 1.05 0 0 0 0-2l-99.58-57.6a3.79 3.79 0 0 0-3.44 0l-67.4 39a1.05 1.05 0 0 0 0 2l99.6 57.6a3.81 3.81 0 0 0 3.45 0z" fill="#fafafa"/><path d="M172 173.34L204.18 192a4.79 4.79 0 0 0 4.33 0l56.6-32.67a1.32 1.32 0 0 0 0-2.5l-32.22-18.62a4.79 4.79 0 0 0-4.33 0L172 170.84a1.32 1.32 0 0 0 0 2.5z" fill="#ebebeb"/><g fill="#fafafa"><path d="M195.63 164.45l8.26 1.61a2.65 2.65 0 0 0 1.54-.14l7-3c1.11-.48 2.69 0 2.67.79l-.11 5c0 .32.26.62.71.81l7.12 2.91c1.13.46.86 1.47-.47 1.71l-8.35 1.51a1.52 1.52 0 0 0-1.1.64l-2.59 4.81c-.42.76-2.17.92-3 .27l-5-4.11a2.18 2.18 0 0 0-1.38-.41l-8.73.06c-1.39 0-2.19-.9-1.36-1.54l5.22-4a.65.65 0 0 0 .24-.89l-2.8-4.77c-.44-.8.81-1.52 2.13-1.26zM214 153.91l17.72-10.23a2.6 2.6 0 0 1 2.32-.16c.56.33.43.93-.28 1.34l-17.71 10.23a2.64 2.64 0 0 1-2.32.16c-.56-.33-.43-.93.27-1.34zm4.48 2.58l17.71-10.23a2.6 2.6 0 0 1 2.32-.16c.56.33.44.93-.28 1.34l-17.71 10.23a2.64 2.64 0 0 1-2.32.16c-.57-.33-.44-.93.28-1.34zm4.46 2.58l17.71-10.23a2.57 2.57 0 0 1 2.32-.16c.57.33.44.93-.28 1.34L225 160.25a2.64 2.64 0 0 1-2.32.16c-.58-.33-.46-.93.26-1.34zm4.46 2.57l17.72-10.22a2.55 2.55 0 0 1 2.31-.16c.57.32.44.92-.27 1.34l-17.72 10.22a2.57 2.57 0 0 1-2.32.16c-.56-.32-.43-.92.28-1.34zm4.47 2.58L249.58 154a2.57 2.57 0 0 1 2.32-.16c.56.32.44.92-.28 1.34l-17.71 10.22a2.57 2.57 0 0 1-2.32.16c-.59-.32-.44-.92.28-1.34zm4.46 2.58L254 156.58a2.57 2.57 0 0 1 2.32-.16c.56.32.44.92-.28 1.34L238.37 168a2.57 2.57 0 0 1-2.32.16c-.56-.34-.44-.94.28-1.36z"/></g><path d="M211.71 196.3l1.46.85a2.9 2.9 0 0 0 2.6 0l34-19.61c.72-.42.72-1.09 0-1.5l-1.47-.85a2.9 2.9 0 0 0-2.6 0l-34 19.61a.79.79 0 0 0 .01 1.5zm60.93-35.18l1.46.85c.72.41.72 1.08 0 1.5l-13.65 7.88a2.9 2.9 0 0 1-2.6 0l-1.46-.85c-.72-.41-.72-1.08 0-1.5l13.61-7.88a2.9 2.9 0 0 1 2.64 0z" fill="#e0e0e0"/><path d="M220.74 201.49L253 220.1a4.79 4.79 0 0 0 4.33 0l56.6-32.67a1.32 1.32 0 0 0 0-2.5l-32.22-18.62a4.79 4.79 0 0 0-4.33 0L220.74 199a1.32 1.32 0 0 0 0 2.49z" fill="#ebebeb"/><path d="M244.4 192.59l8.27 1.62a2.66 2.66 0 0 0 1.54-.14l7-3c1.12-.48 2.7 0 2.68.78l-.11 5c0 .32.25.62.7.8l7.13 2.91c1.13.47.85 1.48-.47 1.72l-8.34 1.49a1.56 1.56 0 0 0-1.1.64l-2.59 4.81c-.41.76-2.16.92-3 .27l-5-4.11a2.21 2.21 0 0 0-1.39-.41l-8.73.06c-1.38 0-2.19-.9-1.36-1.54l5.22-4a.67.67 0 0 0 .25-.89l-2.81-4.77c-.45-.77.8-1.49 2.11-1.24zm18.39-10.53l17.71-10.23a2.6 2.6 0 0 1 2.32-.16c.57.33.44.93-.28 1.34l-17.71 10.23a2.64 2.64 0 0 1-2.32.16c-.51-.33-.44-.93.28-1.34zm4.46 2.58L285 174.41a2.6 2.6 0 0 1 2.32-.16c.56.33.43.93-.28 1.34l-17.72 10.23a2.61 2.61 0 0 1-2.32.18c-.59-.35-.46-.95.25-1.36zm4.47 2.57L289.43 177a2.57 2.57 0 0 1 2.32-.16c.56.32.44.92-.28 1.34l-17.71 10.22a2.64 2.64 0 0 1-2.32.16c-.57-.33-.44-.93.28-1.35zm4.46 2.58l17.71-10.22a2.57 2.57 0 0 1 2.32-.16c.57.32.44.92-.28 1.34L278.22 191a2.57 2.57 0 0 1-2.32.16c-.56-.35-.44-.95.28-1.37zm4.46 2.58l17.72-10.22a2.55 2.55 0 0 1 2.31-.16c.57.32.44.92-.27 1.34l-17.72 10.22a2.57 2.57 0 0 1-2.32.16c-.56-.32-.43-.92.28-1.34zm4.47 2.63l17.71-10.22a2.57 2.57 0 0 1 2.32-.16c.56.32.44.92-.28 1.34l-17.71 10.22a2.57 2.57 0 0 1-2.32.16c-.57-.34-.44-.97.28-1.34z" fill="#fafafa"/><path d="M260.48 224.45l1.47.85a2.9 2.9 0 0 0 2.6 0l34-19.61a.79.79 0 0 0 0-1.5l-1.47-.85a2.9 2.9 0 0 0-2.6 0l-34 19.61a.79.79 0 0 0 0 1.5zm60.93-35.18l1.47.85c.72.41.72 1.08 0 1.5l-13.65 7.88a2.9 2.9 0 0 1-2.6 0l-1.47-.85a.79.79 0 0 1 0-1.5l13.66-7.88a2.88 2.88 0 0 1 2.59 0z" fill="#e0e0e0"/><path d="M188.28 147.19a2 2 0 0 1-1.76 0 .53.53 0 0 1 0-1 2 2 0 0 1 1.76 0c.49.27.49.72 0 1zm-2.81 7.99a3.9 3.9 0 0 1-3.52 0 1.08 1.08 0 0 1 0-2 3.9 3.9 0 0 1 3.52 0 1.08 1.08 0 0 1 0 2zm2.53-3.54c-.65-.38-.61-1 .08-1.4l11.58-6.69a2.67 2.67 0 0 1 2.43 0c.64.37.61 1-.08 1.4l-11.58 6.68a2.7 2.7 0 0 1-2.43.01z" fill="#263238"/><g><path d="M159.91 53.81v2.35l-8.12 4.69-12.18 7L32.09 130a4.48 4.48 0 0 0-1.53 1.61 4.37 4.37 0 0 0-.64 2.14v142.9c0 7.77-5.46 10.92-12.18 7s-12.19-13.33-12.19-21.1V119.64a4.79 4.79 0 0 1 2.17-3.75l119.69-69.11L139 40.1c.387.652.6 1.392.62 2.15v2.18l-127.84 74a4.27 4.27 0 0 0-1.45 1.5 4.4 4.4 0 0 0-.71 2.25v142.71c0 5.18 3.64 11.47 8.13 14.06s8.12.49 8.12-4.69v-142.9a4.76 4.76 0 0 1 2.13-3.75l131.28-75.8a4.16 4.16 0 0 1 .63 2z" fill="#e0e0e0"/><path d="M147.72 46.93v6.88L24 125.27a4.79 4.79 0 0 0-2.21 3.73v142.9c0 2.59-1.81 3.64-4.05 2.34a8.94 8.94 0 0 1-4.06-7V124.33a4.47 4.47 0 0 1 .63-2.14 4.66 4.66 0 0 1 1.53-1.61l131.27-75.79c.38.65.59 1.387.61 2.14z" fill="#e0e0e0"/><path d="M34.61 133.92a4.4 4.4 0 0 0-.63 2.13v141.67a23.1 23.1 0 0 1-.2 3.08c-.04.267-.08.527-.12.78 0 .24-.09.47-.14.71s-.1.42-.16.62-.1.39-.16.58a10 10 0 0 1-4.36 5.86c-2.91 1.67-6.81 1.47-11.1-1-9-5.18-16.25-18.34-16.25-29.38V117.29a4.4 4.4 0 0 1 .63-2.13l4.07 2.34a4.37 4.37 0 0 0-.64 2.14v142.9c0 7.77 5.46 17.22 12.19 21.1s12.18.74 12.18-7V133.71a4.37 4.37 0 0 1 .64-2.14z" fill="#ebebeb"/><path d="M26.49 129.23a4.43 4.43 0 0 0-.63 2.13v142.9c0 5.18-3.64 7.28-8.12 4.69s-8.13-8.88-8.13-14.06V122.14a4.4 4.4 0 0 1 .71-2.25l4 2.3a4.47 4.47 0 0 0-.63 2.14v142.9a8.94 8.94 0 0 0 4.06 7c2.24 1.3 4.05.25 4.05-2.34V129a4.37 4.37 0 0 1 .64-2.14z" fill="#ebebeb"/><path d="M139 40.1l-11.57 6.68L7.72 115.89a4.4 4.4 0 0 0-1.53 1.61l-4.07-2.34a4.43 4.43 0 0 1 1.53-1.62l119.7-69.11 2.31-1.34 2.34-1.32 2-1.16 1.19-.69 2.21-1.27a4.64 4.64 0 0 1 4.2-.08 4.05 4.05 0 0 1 1.4 1.53zm28.41 16.41l-11.57 6.68-20.31 11.72-99.38 57.39a4.54 4.54 0 0 0-1.54 1.62l-4-2.35a4.48 4.48 0 0 1 1.48-1.57L139.6 67.89l12.18-7 8.12-4.69 1.89-1.09.21-.11a4.63 4.63 0 0 1 4 0l.21.13a4.27 4.27 0 0 1 1.2 1.38zm-20.3-11.72L15.84 120.58a4.66 4.66 0 0 0-1.53 1.61l-4-2.3a4.27 4.27 0 0 1 1.45-1.5l127.84-74 1.88-1.09a4.64 4.64 0 0 1 4.2-.08 4.13 4.13 0 0 1 1.43 1.57zm12.2 7.02L28 127.61a4.46 4.46 0 0 0-1.54 1.62l-4.06-2.35a4.4 4.4 0 0 1 1.6-1.61l123.76-71.46 6-3.44a4.64 4.64 0 0 1 4.2-.07 4 4 0 0 1 1.35 1.51z" fill="#fafafa"/><path d="M168 58.66v141.67c0 5.81-2 9.88-5.23 11.68L28.65 289.45a10.22 10.22 0 0 0 4.71-6.54c.06-.2.11-.41.16-.62s.09-.47.14-.71.08-.51.12-.78a23.1 23.1 0 0 0 .2-3.08V136.05a4.4 4.4 0 0 1 .63-2.13c.37-.66.9-1.217 1.54-1.62l99.38-57.38 20.31-11.72 11.57-6.68a4.39 4.39 0 0 1 .59 2.14z" fill="#f5f5f5"/><path d="M48.34 134.65l20-11.57c1.2-.69 2.16-.14 2.16 1.25v27.83a4.77 4.77 0 0 1-2.16 3.75l-20 11.57c-1.2.69-2.17.13-2.17-1.25V138.4a4.78 4.78 0 0 1 2.17-3.75z" fill="#455a64"/><path d="M46.17 178.11l109.68-63.32v4.69L46.17 182.8z" fill="#90caf9"/><path d="M46.17 178.11l109.68-63.32v4.69L46.17 182.8z" fill="#fff" opacity=".4"/><path d="M47.47 191.43l21.78-12.57c.71-.42 1.29-.08 1.29.75v43.9a2.87 2.87 0 0 1-1.29 2.25l-21.78 12.57c-.72.42-1.3.08-1.3-.75v-43.9a2.86 2.86 0 0 1 1.3-2.25zm0 51.57l21.78-12.58c.71-.41 1.29-.07 1.29.75v34.36l-24.37 14.1v-34.35a2.86 2.86 0 0 1 1.3-2.28zm28.44-68l21.77-12.57c.72-.41 1.3-.08 1.3.75v58a2.87 2.87 0 0 1-1.3 2.25L75.91 236c-.72.41-1.3.08-1.3-.75v-58a2.89 2.89 0 0 1 1.3-2.25zm28.43-16.4l21.77-12.6c.72-.42 1.3-.08 1.3.75v43.9a2.86 2.86 0 0 1-1.3 2.25l-21.77 12.6c-.72.42-1.3.08-1.3-.75v-43.9a2.86 2.86 0 0 1 1.3-2.25zm28.44-16.42l21.77-12.57c.72-.42 1.3-.08 1.3.75v58a2.89 2.89 0 0 1-1.3 2.25l-21.77 12.57c-.72.41-1.3.08-1.3-.75v-58a2.86 2.86 0 0 1 1.3-2.25zm-56.87 98.5l21.77-12.57c.72-.42 1.3-.08 1.3.75v20.28l-24.37 14.08v-20.29a2.86 2.86 0 0 1 1.3-2.25zM103 212.44v34.36l24.37-14.07v-34.36c0-.83-.58-1.16-1.3-.75l-21.77 12.57a2.87 2.87 0 0 0-1.3 2.25zm29.77-4.59l21.78-12.57c.72-.42 1.3-.08 1.3.75v20.28l-24.37 14.07V210.1a2.87 2.87 0 0 1 1.29-2.25z" fill="#f0f0f0"/><g fill="#e0e0e0"><path d="M80 243l13.65-7.88c.72-.42 1.3-.08 1.3.75V247a2.86 2.86 0 0 1-1.3 2.25L80 257.11c-.72.41-1.3.08-1.3-.75v-11.07A2.86 2.86 0 0 1 80 243zm56.84-32.79l13.65-7.88c.71-.42 1.3-.08 1.3.75v11.07a2.9 2.9 0 0 1-1.3 2.25l-13.65 7.88c-.72.41-1.3.08-1.3-.75v-11.07a2.86 2.86 0 0 1 1.3-2.25zm-85.31-16.43l13.65-7.89c.72-.41 1.3-.07 1.3.75v11.08a2.89 2.89 0 0 1-1.3 2.25l-13.65 7.88c-.71.41-1.3.08-1.3-.75V196a2.87 2.87 0 0 1 1.3-2.22zm-.43 16.66l14.52-8.38c.48-.27.86-.05.86.5v.35a1.91 1.91 0 0 1-.86 1.5l-14.52 8.38c-.48.28-.87 0-.87-.5v-.35a1.92 1.92 0 0 1 .87-1.5zm0 4.69l14.52-8.38c.48-.27.86-.05.86.5v.35a1.91 1.91 0 0 1-.86 1.5l-14.52 8.38c-.48.28-.87 0-.87-.5v-.35a1.92 1.92 0 0 1 .87-1.5zm0 4.69l14.52-8.38c.48-.27.86-.05.86.5v.35a1.91 1.91 0 0 1-.86 1.5l-14.52 8.38c-.48.28-.87.05-.87-.5v-.35a1.92 1.92 0 0 1 .87-1.5zm0 4.69l14.52-8.38c.48-.27.86-.05.86.5v.37a1.91 1.91 0 0 1-.86 1.5l-14.52 8.38c-.48.28-.87.05-.87-.5V226a1.92 1.92 0 0 1 .87-1.49zm0 4.69l14.52-8.38c.48-.27.86-.05.86.5v.35a1.91 1.91 0 0 1-.86 1.5l-14.52 8.38c-.48.28-.87.05-.87-.5v-.35a1.92 1.92 0 0 1 .87-1.5zM80 177.36l13.65-7.88c.72-.42 1.3-.08 1.3.75v11.07a2.87 2.87 0 0 1-1.3 2.25L80 191.43c-.72.41-1.3.08-1.3-.75v-11.07a2.86 2.86 0 0 1 1.3-2.25zM79.53 194l14.52-8.38c.48-.28.87-.06.87.5v.34a1.91 1.91 0 0 1-.87 1.5l-14.52 8.38c-.47.28-.86 0-.86-.5v-.34a1.91 1.91 0 0 1 .86-1.5zm0 4.72l14.52-8.38c.48-.28.87-.06.87.5v.34a1.91 1.91 0 0 1-.87 1.5l-14.52 8.38c-.47.28-.86.05-.86-.5v-.34a1.91 1.91 0 0 1 .86-1.5zm0 4.69L94.05 195c.48-.28.87-.06.87.5v.34a1.91 1.91 0 0 1-.87 1.5l-14.52 8.38c-.47.28-.86.05-.86-.5v-.34a1.91 1.91 0 0 1 .86-1.47zm0 4.69l14.52-8.38c.48-.28.87-.06.87.5v.34a1.91 1.91 0 0 1-.87 1.5l-14.52 8.38c-.47.28-.86.05-.86-.5v-.34a1.91 1.91 0 0 1 .86-1.5zm0 4.69l14.52-8.38c.48-.28.87-.06.87.5v.34a1.91 1.91 0 0 1-.87 1.5l-14.52 8.38c-.47.28-.86.05-.86-.5v-.34a1.91 1.91 0 0 1 .86-1.5zm0 4.69l14.52-8.38c.48-.28.87-.05.87.5v.34a1.89 1.89 0 0 1-.87 1.5l-14.52 8.38c-.47.28-.86.06-.86-.5V219a1.94 1.94 0 0 1 .86-1.52zm0 4.69l14.52-8.38c.48-.28.87-.05.87.5v.34a1.89 1.89 0 0 1-.87 1.5l-14.52 8.38c-.47.28-.86.06-.86-.5v-.34a1.94 1.94 0 0 1 .86-1.5zm0 4.69l14.52-8.38c.48-.28.87-.05.87.5v.34a1.89 1.89 0 0 1-.87 1.5l-14.52 8.38c-.47.28-.86.06-.86-.5v-.34a1.94 1.94 0 0 1 .86-1.5zm-28 18.52l13.65-7.89c.72-.41 1.3-.07 1.3.75v11.08a2.87 2.87 0 0 1-1.3 2.25l-13.65 7.88c-.71.41-1.3.08-1.3-.75v-11.07a2.87 2.87 0 0 1 1.3-2.25zM51.1 262l14.52-8.38c.48-.27.86-.05.86.5v.35a1.91 1.91 0 0 1-.86 1.5l-14.52 8.38c-.48.28-.87.05-.87-.5v-.35a1.92 1.92 0 0 1 .87-1.5zm0 4.73l14.52-8.38c.48-.27.86-.05.86.5v.35a1.91 1.91 0 0 1-.86 1.5l-14.52 8.38c-.48.28-.87.05-.87-.5v-.35a1.92 1.92 0 0 1 .87-1.5zm0 4.7L65.62 263c.48-.27.86-.05.86.5v.35a1.91 1.91 0 0 1-.86 1.5l-14.52 8.38c-.48.28-.87.05-.87-.5v-.34a1.89 1.89 0 0 1 .87-1.46zm57.3-110.49l13.65-7.88c.72-.41 1.3-.08 1.3.75v11.07a2.86 2.86 0 0 1-1.3 2.25L108.4 175c-.71.41-1.3.07-1.3-.75v-11.06a2.91 2.91 0 0 1 1.3-2.25zm-.4 16.67l14.52-8.38c.47-.27.86 0 .86.5v.35a1.94 1.94 0 0 1-.86 1.5L108 180c-.48.27-.87 0-.87-.5v-.35a1.92 1.92 0 0 1 .87-1.54zm0 4.69l14.52-8.38c.47-.27.86 0 .86.5v.35a1.94 1.94 0 0 1-.86 1.5L108 184.65c-.48.27-.87 0-.87-.5v-.35a1.92 1.92 0 0 1 .87-1.5zm0 4.7l14.52-8.38c.47-.27.86-.05.86.5v.35a1.94 1.94 0 0 1-.86 1.5L108 189.34c-.48.27-.87 0-.87-.5v-.35A1.92 1.92 0 0 1 108 187zm0 4.68l14.52-8.38c.47-.27.86-.05.86.5v.35a1.94 1.94 0 0 1-.86 1.5L108 194c-.48.27-.87.05-.87-.5v-.35a1.92 1.92 0 0 1 .87-1.47zm0 4.69l14.49-8.37c.47-.27.86-.05.86.5v.35a1.94 1.94 0 0 1-.86 1.5L108 198.72c-.48.27-.87.05-.87-.5v-.35a1.92 1.92 0 0 1 .87-1.5zm28.84-51.84l13.65-7.88c.71-.42 1.3-.08 1.3.75v11.07a2.9 2.9 0 0 1-1.3 2.25l-13.65 7.88c-.72.41-1.3.08-1.3-.75v-11.07a2.86 2.86 0 0 1 1.3-2.25zm-.44 16.66l14.52-8.38c.48-.27.87-.05.87.5v.35a1.92 1.92 0 0 1-.87 1.5l-14.52 8.38c-.47.28-.86.05-.86-.5v-.35a1.94 1.94 0 0 1 .86-1.5zm0 4.7l14.52-8.39c.48-.27.87-.05.87.5v.35a1.92 1.92 0 0 1-.87 1.5l-14.52 8.38c-.47.28-.86.05-.86-.5v-.34a1.91 1.91 0 0 1 .86-1.5zm0 4.69l14.52-8.39c.48-.27.87-.05.87.5v.31a1.92 1.92 0 0 1-.87 1.5l-14.52 8.38c-.47.28-.86.05-.86-.5v-.34a1.91 1.91 0 0 1 .86-1.46zm0 4.69l14.52-8.39c.48-.27.87 0 .87.5v.35a1.92 1.92 0 0 1-.87 1.5l-14.52 8.38c-.47.28-.86 0-.86-.5v-.34a1.91 1.91 0 0 1 .86-1.5zm0 4.73l14.52-8.39c.48-.27.87 0 .87.5v.35a1.92 1.92 0 0 1-.87 1.5l-14.52 8.34c-.47.28-.86 0-.86-.5v-.34a1.91 1.91 0 0 1 .86-1.46zm0 4.65l14.52-8.38c.48-.28.87-.06.87.5v.34a1.91 1.91 0 0 1-.87 1.5L136.4 187c-.47.28-.86 0-.86-.5v-.34a1.92 1.92 0 0 1 .86-1.51zm0 4.69l14.52-8.34c.48-.28.87-.06.87.5v.34a1.91 1.91 0 0 1-.87 1.5l-14.52 8.38c-.47.28-.86 0-.86-.5v-.34a1.92 1.92 0 0 1 .86-1.54zm0 4.66l14.52-8.38c.48-.28.87-.06.87.5v.34a1.91 1.91 0 0 1-.87 1.5l-14.52 8.38c-.47.28-.86.06-.86-.5v-.34a1.92 1.92 0 0 1 .86-1.5zm-28 18.54l13.65-7.88c.72-.41 1.3-.08 1.3.75v11.07a2.86 2.86 0 0 1-1.3 2.25l-13.65 7.89c-.71.41-1.3.07-1.3-.75v-11.08a2.91 2.91 0 0 1 1.3-2.25zm-.4 16.67l14.52-8.38c.47-.27.86-.05.86.5v.35a1.94 1.94 0 0 1-.86 1.5L108 231.56c-.48.27-.87.05-.87-.5v-.35a1.92 1.92 0 0 1 .87-1.5zm0 4.69l14.52-8.38c.47-.27.86 0 .86.5v.35a1.94 1.94 0 0 1-.86 1.5L108 236.25c-.48.27-.87.05-.87-.5v-.35a1.92 1.92 0 0 1 .87-1.5zm0 4.69l14.52-8.38c.47-.27.86 0 .86.5v.35a1.94 1.94 0 0 1-.86 1.5L108 240.94c-.48.27-.87.05-.87-.5v-.35a1.92 1.92 0 0 1 .87-1.5z"/></g><path d="M79.3 147.06c-.2-.067-.3-.257-.3-.57a2.85 2.85 0 0 1 .18-.89l1.08-3.44a1.67 1.67 0 0 1 .45-.82.5.5 0 0 1 .48 0 3.59 3.59 0 0 0 3.43-.36 4.8 4.8 0 0 0 2-2.27 9.15 9.15 0 0 0 .65-3.68v-20.17a4.1 4.1 0 0 1 .31-1.7A2.58 2.58 0 0 1 88.7 112l2.22-1.28c.5-.29.86-.33 1.07-.11a2 2 0 0 1 .32 1.35v20.24a19 19 0 0 1-1.76 8.23 12.57 12.57 0 0 1-5.15 5.65c-2.407 1.393-4.44 1.72-6.1.98zm18.01-12.15c-1.793-1.84-2.69-5.363-2.69-10.57a32.5 32.5 0 0 1 2.69-13.67 18.94 18.94 0 0 1 7.79-8.8c3.39-2 6-2 7.77-.18s2.69 5.35 2.69 10.56a32.5 32.5 0 0 1-2.69 13.67 18.93 18.93 0 0 1-7.77 8.79c-3.4 1.96-5.997 2.027-7.79.2zm11.92-10.84a24.84 24.84 0 0 0 1.4-9c0-3.607-.467-6.06-1.4-7.36-.93-1.3-2.3-1.42-4.13-.37a9.87 9.87 0 0 0-4.16 5.16 24.78 24.78 0 0 0-1.39 9c0 3.6.46 6.06 1.39 7.35s2.32 1.42 4.16.35a9.72 9.72 0 0 0 4.13-5.13zm9.11 1.82a1.92 1.92 0 0 1-.32-1.32V97.14a4.11 4.11 0 0 1 .32-1.71 2.38 2.38 0 0 1 1-1.1l8.8-5.09c2.213-1.273 3.88-1.447 5-.52s1.67 2.76 1.65 5.5a13.9 13.9 0 0 1-.67 4.27 10.58 10.58 0 0 1-1.85 3.52c2.06-.14 3.09 1.593 3.09 5.2 0 1.77-.267 3.53-.79 5.22a15.61 15.61 0 0 1-2.41 4.74 12.83 12.83 0 0 1-4 3.52l-8.8 5.09c-.47.27-.81.31-1.02.11zm9-23.44a4.74 4.74 0 0 0 1.86-2 6.59 6.59 0 0 0 .67-3.07c0-1.26-.21-2-.62-2.35s-1.05-.2-1.91.29L123 97.84V105zm.48 12.86a4.67 4.67 0 0 0 2-2.23 7.85 7.85 0 0 0 .65-3.22c0-1.32-.25-2.17-.75-2.54s-1.21-.3-2.11.22l-4.61 2.65v7.91zm11.99-1.41a5.43 5.43 0 0 1-3.47-.14.75.75 0 0 1-.45-.67 2.47 2.47 0 0 1 .15-.73l1.24-3.72c.05-.267.187-.51.39-.69a.48.48 0 0 1 .45 0 5.79 5.79 0 0 0 2.55.1 8.78 8.78 0 0 0 2.91-1.08 7.28 7.28 0 0 0 2.59-2.35 5.88 5.88 0 0 0 .84-3.19 3.08 3.08 0 0 0-.41-1.8 1.83 1.83 0 0 0-1.2-.7 18.24 18.24 0 0 0-2.45-.16 11.81 11.81 0 0 1-3.26-.38 3.85 3.85 0 0 1-2.19-1.72 7.43 7.43 0 0 1-.86-4 15.35 15.35 0 0 1 2.08-7.92 14.83 14.83 0 0 1 5.46-5.49c3-1.73 5.27-2.18 6.85-1.37a.83.83 0 0 1 .45.67 2.47 2.47 0 0 1-.15.73l-1.23 3.72a1.19 1.19 0 0 1-.39.68.45.45 0 0 1-.45 0c-1.22-.527-2.7-.29-4.44.71a6 6 0 0 0-3.25 5.49 3.12 3.12 0 0 0 .38 1.74c.23.354.589.605 1 .7a10.73 10.73 0 0 0 2.08.17h.84a11.79 11.79 0 0 1 3.45.53 3.45 3.45 0 0 1 1.94 1.77 9.13 9.13 0 0 1 .67 4 15.17 15.17 0 0 1-2 7.54 14.79 14.79 0 0 1-5.7 5.67 15.41 15.41 0 0 1-4.42 1.89z" fill="#455a64"/></g><g><path d="M264.77 17.67l-4.06-2.35a1.82 1.82 0 0 0-1.84.18L207.2 45.4a5.77 5.77 0 0 0-2.6 4.5v106.5c-.07.656.22 1.3.76 1.68l4 2.34h.06a1.84 1.84 0 0 0 1.76-.21l13.65-7.88v8.21c0 1.45.23 2.29.61 2.52l4 2.33c.46.25 1.13-.39 1.88-2l9.68-20.5 21.77-12.64a5.77 5.77 0 0 0 2.6-4.5V19.34a1.83 1.83 0 0 0-.6-1.67z" fill="#90caf9"/><path d="M264.67 17.61a1.92 1.92 0 0 0-1.74.23l-51.68 29.91a5.21 5.21 0 0 0-1.8 1.89l-4.06-2.35a5.13 5.13 0 0 1 1.8-1.89l51.67-29.91a2.383 2.383 0 0 1 1.15-.35c.24-.005.479.054.69.17z" fill="#fff" opacity=".4"/><path d="M225.51 163.1c-.37-.23-.6-1.07-.6-2.52v-8.2L229 150v12.9c0 1.38.21 2.22.54 2.5z" fill="#000" opacity=".2"/><path d="M209.44 160.43l-4.06-2.34a1.85 1.85 0 0 1-.75-1.67V49.9a5.35 5.35 0 0 1 .8-2.61l4.06 2.35a5.33 5.33 0 0 0-.79 2.61v106.5a1.81 1.81 0 0 0 .74 1.68z" fill="#000" opacity=".1"/><g fill="#455a64"><path d="M218.94 52.68l36.29-21c1.2-.69 2.17-.13 2.17 1.25V56a4.8 4.8 0 0 1-2.17 3.76l-36.29 21c-1.19.69-2.16.13-2.16-1.25V56.43a4.8 4.8 0 0 1 2.16-3.75zm38.46 12.91a4.64 4.64 0 0 1-2.17 3.6l-36.29 20.95c-1.19.69-2.16.2-2.16-1.1a4.65 4.65 0 0 1 2.16-3.59l36.29-20.95c1.2-.69 2.17-.2 2.17 1.09zm0 9.41a4.64 4.64 0 0 1-2.17 3.6l-36.29 21c-1.19.69-2.16.2-2.16-1.1a4.65 4.65 0 0 1 2.16-3.59l36.29-21c1.2-.72 2.17-.23 2.17 1.09zm0 9.35a4.64 4.64 0 0 1-2.17 3.6l-36.29 21c-1.19.69-2.16.2-2.16-1.1a4.65 4.65 0 0 1 2.16-3.59l36.29-21c1.2-.69 2.17-.2 2.17 1.09zm0 9.38a4.64 4.64 0 0 1-2.17 3.6l-36.29 20.95c-1.19.69-2.16.2-2.16-1.1a4.65 4.65 0 0 1 2.16-3.59l36.29-21c1.2-.59 2.17-.15 2.17 1.14zm-40.62 32.84c0 1.29 1 1.78 2.16 1.09l3.8-2.19a4.65 4.65 0 0 0 2.16-3.59c0-1.3-1-1.79-2.16-1.1l-3.8 2.19a4.65 4.65 0 0 0-2.16 3.6zm13.62-7.85c0 1.29 1 1.78 2.17 1.09l22.66-13.1a4.64 4.64 0 0 0 2.17-3.6c0-1.29-1-1.78-2.17-1.09l-22.66 13.1a4.64 4.64 0 0 0-2.17 3.6zM216.78 136c0 1.29 1 1.78 2.16 1.09l3.8-2.19a4.65 4.65 0 0 0 2.16-3.59c0-1.3-1-1.79-2.16-1.1l-3.8 2.19a4.65 4.65 0 0 0-2.16 3.6zm13.62-7.9c0 1.29 1 1.78 2.17 1.09l22.66-13.1a4.64 4.64 0 0 0 2.17-3.6c0-1.29-1-1.78-2.17-1.09l-22.66 13.1a4.64 4.64 0 0 0-2.17 3.6zm-13.62 17.23c0 1.29 1 1.78 2.16 1.09l3.8-2.19a4.65 4.65 0 0 0 2.16-3.59c0-1.3-1-1.79-2.16-1.1l-3.8 2.19a4.65 4.65 0 0 0-2.16 3.6zm13.62-7.85c0 1.29 1 1.78 2.17 1.09l22.66-13.1a4.64 4.64 0 0 0 2.17-3.59c0-1.3-1-1.79-2.17-1.1l-22.66 13.1a4.64 4.64 0 0 0-2.17 3.6z"/></g></g><g><path d="M313.54 45.75l-4-2.35a1.82 1.82 0 0 0-1.84.18L256 73.47a5.77 5.77 0 0 0-2.6 4.5v106.5c-.07.656.22 1.3.76 1.68l4.05 2.34h.05a1.85 1.85 0 0 0 1.77-.21l13.65-7.88v8.21c0 1.45.23 2.29.6 2.52l4 2.33h.05c.46.25 1.13-.39 1.87-2l9.69-20.5 21.77-12.64a5.77 5.77 0 0 0 2.6-4.5V47.42a1.83 1.83 0 0 0-.72-1.67z" fill="#90caf9"/><path d="M313.43 45.69a1.92 1.92 0 0 0-1.74.23L260 75.83a5.21 5.21 0 0 0-1.8 1.89l-4.06-2.35a5.21 5.21 0 0 1 1.8-1.89l51.68-29.91a2.331 2.331 0 0 1 1.15-.35c.238-.003.472.055.68.17z" fill="#fff" opacity=".4"/><path d="M274.27 191.18c-.37-.23-.6-1.07-.6-2.52v-8.2l4.06-2.35V191c0 1.38.21 2.22.55 2.5z" fill="#000" opacity=".2"/><path d="M258.2 188.51l-4.05-2.34a1.83 1.83 0 0 1-.75-1.67V78a5.33 5.33 0 0 1 .79-2.61l4.06 2.35a5.33 5.33 0 0 0-.79 2.61v106.5a1.81 1.81 0 0 0 .74 1.66z" fill="#000" opacity=".1"/><g fill="#455a64"><path d="M267.71 80.76l36.29-21c1.19-.69 2.16-.13 2.16 1.25v23.13A4.81 4.81 0 0 1 304 87.9l-36.29 21c-1.2.69-2.17.13-2.17-1.25V84.51a4.78 4.78 0 0 1 2.17-3.75zm38.45 12.91a4.65 4.65 0 0 1-2.16 3.6l-36.29 20.95c-1.2.69-2.17.2-2.17-1.1a4.64 4.64 0 0 1 2.17-3.59L304 92.58c1.19-.69 2.16-.2 2.16 1.09zm0 9.38a4.65 4.65 0 0 1-2.16 3.6l-36.29 20.95c-1.2.69-2.17.2-2.17-1.1a4.64 4.64 0 0 1 2.17-3.59L304 102c1.19-.73 2.16-.24 2.16 1.05zm0 9.38A4.65 4.65 0 0 1 304 116l-36.29 21c-1.2.69-2.17.2-2.17-1.1a4.64 4.64 0 0 1 2.17-3.59L304 111.34c1.19-.69 2.16-.2 2.16 1.09zm0 9.38a4.65 4.65 0 0 1-2.16 3.6l-36.29 21c-1.2.69-2.17.2-2.17-1.1a4.64 4.64 0 0 1 2.17-3.59l36.29-21c1.19-.72 2.16-.2 2.16 1.09zm-40.62 32.84c0 1.29 1 1.78 2.17 1.09l3.79-2.19a4.64 4.64 0 0 0 2.17-3.59c0-1.3-1-1.79-2.17-1.1l-3.79 2.19a4.64 4.64 0 0 0-2.17 3.6zm13.63-7.85c0 1.29 1 1.78 2.17 1.09l22.66-13.1a4.65 4.65 0 0 0 2.16-3.6c0-1.29-1-1.78-2.16-1.09l-22.67 13.1a4.65 4.65 0 0 0-2.16 3.6zM265.54 164c0 1.29 1 1.78 2.17 1.09l3.79-2.19a4.64 4.64 0 0 0 2.17-3.59c0-1.3-1-1.79-2.17-1.1l-3.79 2.19a4.64 4.64 0 0 0-2.17 3.6zm13.63-7.82c0 1.29 1 1.78 2.17 1.09l22.66-13.1a4.65 4.65 0 0 0 2.16-3.6c0-1.29-1-1.78-2.16-1.09l-22.67 13.1a4.65 4.65 0 0 0-2.16 3.6zm-13.63 17.23c0 1.29 1 1.78 2.17 1.09l3.79-2.19a4.64 4.64 0 0 0 2.17-3.59c0-1.3-1-1.79-2.17-1.1l-3.79 2.19a4.64 4.64 0 0 0-2.17 3.6zm13.63-7.85c0 1.29 1 1.78 2.17 1.09l22.66-13.1a4.65 4.65 0 0 0 2.16-3.59c0-1.3-1-1.79-2.16-1.1L281.33 162a4.65 4.65 0 0 0-2.16 3.56z"/></g></g><g><path d="M366.38 4.47L361 1.39h-.05c-2.37-1.33-5.62-1.13-9.22.94-7.25 4.19-13.12 14.37-13.12 22.74 0 4.17 1.46 7.11 3.83 8.48l4.86 2.78 1.16-2a13.21 13.21 0 0 0 3.77-1.46c7.24-4.18 13.12-14.36 13.12-22.73a14.29 14.29 0 0 0-.41-3.35z" fill="#90caf9"/><path d="M338.64 25c0 4.18 1.46 7.12 3.83 8.49l4.86 2.78 1.16-1.94a13.56 13.56 0 0 0 3.77-1.47A27.26 27.26 0 0 0 362 22.22l-19-11A27.21 27.21 0 0 0 338.64 25z" fill="#263238"/><path d="M366.39 4.47l-5.34-3.08H361c-2.37-1.34-5.62-1.14-9.22.94a26.21 26.21 0 0 0-8.78 8.91l19 11a26.23 26.23 0 0 0 3.36-12 14.29 14.29 0 0 0-.41-3.35z" fill="#455a64"/><path d="M356.83 5.22C349.59 9.4 343.71 19.58 343.71 28s5.88 11.76 13.12 7.57S370 21.16 370 12.79 364.08 1 356.83 5.22z" fill="#37474f"/><path d="M357.79 12.15a2.35 2.35 0 0 1 1.21-.09c.33.076.633.239.88.47.238.232.42.516.53.83.126.32.2.657.22 1a.94.94 0 0 1-.11.48.75.75 0 0 1-.28.32l-1 .57c-.16.1-.28.12-.36.07a.58.58 0 0 1-.22-.26A1.11 1.11 0 0 0 358 15a1.67 1.67 0 0 0-1.27.34 3.43 3.43 0 0 0-.7.52 3.73 3.73 0 0 0-.58.68 3.16 3.16 0 0 0-.39.78 2.57 2.57 0 0 0-.14.82 1.27 1.27 0 0 0 .16.73.63.63 0 0 0 .5.25c.3.013.6-.017.89-.09l1.32-.31a4.91 4.91 0 0 1 1.43-.16 1.65 1.65 0 0 1 1 .36c.27.244.458.565.54.92.113.488.167.989.16 1.49a7.15 7.15 0 0 1-.22 1.67 8.32 8.32 0 0 1-1.62 3.23 8.06 8.06 0 0 1-1.31 1.3V29a1.06 1.06 0 0 1-.12.47.7.7 0 0 1-.26.33l-1.15.66a.2.2 0 0 1-.27 0 .46.46 0 0 1-.11-.34v-1.48a3.23 3.23 0 0 1-1.19.18 2 2 0 0 1-1-.32 2.05 2.05 0 0 1-.67-.82 3.47 3.47 0 0 1-.28-1.35.89.89 0 0 1 .11-.48.77.77 0 0 1 .27-.33l1-.57c.16-.09.28-.12.37-.08a.51.51 0 0 1 .21.27c.07.149.15.292.24.43a.78.78 0 0 0 .38.28c.197.046.403.046.6 0a2.86 2.86 0 0 0 .9-.38 6.06 6.06 0 0 0 .82-.57 4.68 4.68 0 0 0 .69-.72 3.78 3.78 0 0 0 .48-.85 2.42 2.42 0 0 0 .18-.94.88.88 0 0 0-.2-.67.81.81 0 0 0-.6-.17 4.88 4.88 0 0 0-1 .16c-.4.1-.85.19-1.37.29a3.92 3.92 0 0 1-1.24.09 1.44 1.44 0 0 1-.87-.37 2.08 2.08 0 0 1-.52-.93 6.27 6.27 0 0 1-.17-1.59c0-.57.073-1.139.22-1.69a8.8 8.8 0 0 1 .58-1.63 7.82 7.82 0 0 1 .9-1.47 8.31 8.31 0 0 1 1.14-1.22v-1.47a1.19 1.19 0 0 1 .11-.47.77.77 0 0 1 .27-.33l1.15-.66a.19.19 0 0 1 .26 0 .43.43 0 0 1 .12.34z" fill="#fafafa"/><path d="M366.38 102.32L361 99.24h-.05c-2.37-1.34-5.62-1.14-9.22.94-7.25 4.18-13.12 14.36-13.12 22.73 0 4.18 1.46 7.11 3.83 8.49l4.86 2.77 1.16-1.94a13.52 13.52 0 0 0 3.77-1.46c7.24-4.19 13.12-14.37 13.12-22.74a14.36 14.36 0 0 0-.41-3.35z" fill="#90caf9"/><path d="M338.64 122.89c0 4.18 1.46 7.11 3.83 8.49l4.86 2.77 1.16-1.94a13.56 13.56 0 0 0 3.77-1.47 27.23 27.23 0 0 0 9.74-10.66l-19-11a27.27 27.27 0 0 0-4.36 13.81z" fill="#263238"/><path d="M366.39 102.32l-5.34-3.08H361c-2.37-1.34-5.62-1.14-9.22.94a26.21 26.21 0 0 0-8.76 8.93l19 11a26.3 26.3 0 0 0 3.37-12.11 14.36 14.36 0 0 0-.41-3.35z" fill="#455a64"/><path d="M356.83 103.07c-7.24 4.18-13.12 14.36-13.12 22.73s5.88 11.76 13.12 7.58S370 119 370 110.65s-5.92-11.76-13.17-7.58z" fill="#37474f"/><path d="M363.51 121.21l-13.35 7.71c-.16.09-.28 0-.28-.27v-11.84a.74.74 0 0 1 .28-.6l13.35-7.71c.15-.09.28 0 .28.27v11.85a.74.74 0 0 1-.28.59z" fill="#fafafa"/><path d="M359.46 111.62c-.15.09-.28 0-.28-.27v-1.8l-4.69 2.71v1.8a.74.74 0 0 1-.29.6c-.15.09-.28 0-.28-.27v-2.24a.74.74 0 0 1 .28-.59l5.26-3c.16-.09.28 0 .28.27V111a.72.72 0 0 1-.28.62z" fill="#fafafa"/><path d="M359.46 109.39l-5.26 3c-.15.09-.28 0-.28-.27v-1a.77.77 0 0 1 .28-.6l5.26-3c.16-.09.28 0 .28.27v1a.74.74 0 0 1-.28.6z" fill="#fafafa"/><path d="M358.74 116.78l-3.82 2.2c-.11.07-.2 0-.2-.2v-.72a.54.54 0 0 1 .2-.43l3.82-2.2c.12-.07.21 0 .21.19v.72a.54.54 0 0 1-.21.44z" fill="#37474f"/><path d="M366.38 53.4L361 50.31h-.05c-2.37-1.34-5.62-1.14-9.22.94-7.25 4.19-13.12 14.36-13.12 22.73 0 4.18 1.46 7.12 3.83 8.49l4.86 2.77 1.16-1.94a13.21 13.21 0 0 0 3.77-1.46c7.24-4.19 13.12-14.36 13.12-22.73a14.38 14.38 0 0 0-.41-3.36z" fill="#90caf9"/><path d="M338.64 74c0 4.18 1.46 7.12 3.83 8.49l4.86 2.77 1.16-1.94a13.21 13.21 0 0 0 3.77-1.46A27.26 27.26 0 0 0 362 71.15l-19-11A27.27 27.27 0 0 0 338.64 74z" fill="#263238"/><path d="M366.39 53.4l-5.34-3.09H361c-2.37-1.33-5.62-1.14-9.22.94a26.21 26.21 0 0 0-8.76 8.93l19 11a26.29 26.29 0 0 0 3.36-12.05 14.38 14.38 0 0 0-.41-3.36z" fill="#455a64"/><path d="M356.83 54.14c-7.24 4.19-13.12 14.36-13.12 22.73s5.88 11.77 13.12 7.58S370 70.09 370 61.72s-5.92-11.72-13.17-7.58z" fill="#37474f"/><g fill="#fff"><path d="M352 67.46c0-1.9 1-4 2.24-4.74s2.24.25 2.24 2.16-1 4-2.24 4.74-2.24-.25-2.24-2.16zm6.24 9.6L350 81.82l.44-5.48c.19-2.33 1.42-4.72 2.88-5.56l1.59-.92c1.46-.84 2.69.12 2.88 2.24zm-.8-15.31c0-1.9 1-4 2.24-4.74s2.24.25 2.24 2.16-1 4-2.24 4.74-2.24-.25-2.24-2.16z"/><path d="M363.66 71.35l-5.05 2.92-.23-2.62c-.17-1.84-1-3-2.1-3a6.41 6.41 0 0 1 2.47-3.55l1.59-.91c1.46-.85 2.69.11 2.88 2.23z"/></g></g><g><path d="M229.5 257.82c0-6.2-4.1-12.4-12.3-17.13-16.39-9.47-43-9.47-59.36 0-8.2 4.73-12.3 10.93-12.3 17.13v11.43c0 6.2 4.1 12.4 12.3 17.14 16.39 9.46 43 9.46 59.36 0 8.2-4.74 12.3-10.94 12.3-17.14zm-69.63-13.62c7.32-4.23 17.14-6.55 27.65-6.55s20.33 2.32 27.65 6.55c6.62 3.82 10.27 8.66 10.27 13.62s-3.65 9.8-10.27 13.62c-7.32 4.23-17.17 6.56-27.65 6.56s-20.33-2.33-27.65-6.56c-6.62-3.82-10.27-8.66-10.27-13.62s3.65-9.82 10.27-13.62z" fill="#90caf9"/><path d="M157.83 275c16.4 9.46 43 9.46 59.37 0s16.39-24.81 0-34.27-43-9.47-59.37 0-16.39 24.77 0 34.27zm-8.23-17.14c0-5 3.64-9.8 10.26-13.62 7.32-4.23 17.15-6.55 27.66-6.55s20.33 2.32 27.65 6.55c6.62 3.82 10.26 8.66 10.26 13.62s-3.64 9.8-10.26 13.62c-7.32 4.19-17.17 6.52-27.65 6.52s-20.34-2.33-27.66-6.56c-6.62-3.82-10.26-8.66-10.26-13.62z" fill="#fff" opacity=".3"/><path d="M149.6 257.82a11.27 11.27 0 0 0 1.64 5.72c1.66-2.88 4.59-5.59 8.63-7.91 7.31-4.23 17.14-6.56 27.65-6.56s20.33 2.33 27.65 6.56a23.08 23.08 0 0 1 8.64 7.91 11.35 11.35 0 0 0 1.63-5.72c0-5-3.65-9.8-10.27-13.62-7.32-4.22-17.14-6.55-27.65-6.55s-20.34 2.33-27.65 6.55c-6.63 3.8-10.27 8.66-10.27 13.62z" fill="#90caf9"/><path d="M149.6 257.82a11.27 11.27 0 0 0 1.64 5.72c1.66-2.88 4.59-5.59 8.63-7.91 7.31-4.23 17.14-6.56 27.65-6.56s20.33 2.33 27.65 6.56a23.08 23.08 0 0 1 8.64 7.91 11.35 11.35 0 0 0 1.63-5.72c0-5-3.65-9.8-10.27-13.62-7.32-4.22-17.14-6.55-27.65-6.55s-20.34 2.33-27.65 6.55c-6.63 3.8-10.27 8.66-10.27 13.62z" fill="#000" opacity=".1"/><path d="M159.86 249.37c7.32-4.22 17.15-6.55 27.66-6.55s20.33 2.33 27.65 6.55c5.46 3.16 8.89 7 9.93 11-1 4-4.47 7.88-9.93 11-7.32 4.3-17.17 6.63-27.65 6.63s-20.34-2.33-27.66-6.56c-5.46-3.15-8.89-7-9.92-11 1.06-4.07 4.46-7.91 9.92-11.07z" fill="#fff" opacity=".4"/><path d="M177.63 281.38v11.42a55.09 55.09 0 0 1-19.79-6.41c-8.2-4.74-12.3-10.94-12.3-17.14v-11.43a14.51 14.51 0 0 1 .5-3.74c-2 7.38 1.94 15.19 11.79 20.88a55.1 55.1 0 0 0 19.8 6.42z" fill="#000" opacity=".1"/><path d="M159.08 282.23a6.49 6.49 0 0 0-2.92-5.1 2.07 2.07 0 0 0-2.07-.22L140 285a2 2 0 0 0-.86 1.89A6.5 6.5 0 0 0 142 292a2.06 2.06 0 0 0 2.08.21l14.13-8.06a2.08 2.08 0 0 0 .87-1.92z" fill="#37474f"/><path d="M158.21 284.14a2.08 2.08 0 0 0 .87-1.91 5.59 5.59 0 0 0-.49-2.2l-18.23 10.42A5.68 5.68 0 0 0 142 292a2.06 2.06 0 0 0 2.08.21l14.13-8.06z" fill="#263238"/><path d="M144.38 292a8.45 8.45 0 0 0-3.8-6.65 2.69 2.69 0 0 0-2.66-.29l-46.87 25 7 12.36 45.24-28a2.67 2.67 0 0 0 1.09-2.42z" fill="#90caf9"/><path d="M98 322.41l45.24-28a2.67 2.67 0 0 0 1.13-2.47 7.94 7.94 0 0 0-1.27-4L94.4 316z" fill="#000" opacity=".1"/><path d="M94.47 322a11.1 11.1 0 0 1-5-8.72c0-3.2 2.26-4.49 5-2.88a11.08 11.08 0 0 1 5 8.71c.02 3.25-2.23 4.54-5 2.89z" fill="#90caf9"/><path d="M94.47 322a11.1 11.1 0 0 1-5-8.72c0-3.2 2.26-4.49 5-2.88a11.08 11.08 0 0 1 5 8.71c.02 3.25-2.23 4.54-5 2.89z" fill="#000" opacity=".2"/></g><g><path d="M370.73 211.56c.51-19-1-23.57-6.07-27.06l-2 11s2.31 13 2.06 17.31c-.21 3.8-.58 8.56-1.48 11.63a2.33 2.33 0 0 1-1 1.3 13.51 13.51 0 0 0-2.78 2.65c-.76.8-1.41 1-1.31 1.25.303.579 1 .827 1.6.57a8.55 8.55 0 0 0 1.83-1 11.74 11.74 0 0 1-1.87 3.22c-1.81 2.21-1.89 3.57 1.76 3.61 2.29 0 4.12-1.39 5.84-6.43a43.11 43.11 0 0 0 1.61-5.66 102.19 102.19 0 0 0 1.81-12.39z" fill="#ffa8a7"/><path d="M360.4 183.06a7.29 7.29 0 0 1 7.82 3.95c2.12 3.79 2.64 10.32 2.88 16.81 0 0-4.21 3.53-9.27 1.8z" fill="#90caf9"/><path d="M367.51 287.66c.38.15.48.88.54 2.33 0 1.1.27 3-1 3.41s-3.18.18-4-.85c-1-1.3-1.73-2.43-3.2-4-1.28-1.37-2.66-2.65-3.17-4.57-.47-1.74-.08-2.49 1.1-3 1.63-.69 4.19 1.58 5.47 1.93 1.08.3 3.87 4.61 4.26 4.75z" fill="#263238"/><path d="M367.51 286.32v1.78a4.36 4.36 0 0 1-4.51.12c-.08-.17-.47-2.55-.47-2.55z" fill="#ffa8a7"/><path d="M353.05 298c.316.955.58 1.926.79 2.91.22 1.08.54 2.88.16 3.69s-1.85 1.34-4.14 1.32c-1.9.232-3.728.87-5.36 1.87a14.13 14.13 0 0 1-6.75 1.07c-2-.23-4.14-1.41-4.47-2.25s.11-1.72 4.9-3.76c0 0 6.66-2.17 9-4.73z" fill="#263238"/><path d="M353.05 296v2.08c0 .76-.88 1.89-3.2 1.8-1.62-.06-2.76-.49-2.69-1.83v-1.93z" fill="#ffa8a7"/><path d="M368.67 262.64a48.55 48.55 0 0 0-2.11-9.3s.64-8 .94-15.62c.33-8.21 0-18.54.14-20.59 0 0-26.5-5.36-27 4.14s1 33.66 1.36 37.83 1 7.85 1.89 14.61 3.24 22.43 3.24 22.43a6.24 6.24 0 0 0 5.89-.12s1.87-19 1.67-23.79a41.33 41.33 0 0 0-1.82-10.51s.5-7.83.94-14.64.92-10.08 1-13l.57-.28s.58 11.75.9 15.92 1 8.17 2.18 15.91c1.05 6.72 4.16 20.94 4.16 20.94 3 1.64 4.84-.21 4.84-.21s2.02-17.89 1.21-23.72z" fill="#37474f"/><path d="M354.86 234s6.43-3.17 9.65-6c0 0-3 4.21-6.91 6.07 0 0-1.4 14.6-1.39 14.31L355.4 234z" fill="#263238"/><path d="M349.14 180.05l1.57 8.63 7.79-.57-1.63-9.78z" fill="#ffa8a7"/><path d="M366.74 187.48c-.78-2.35-3.75-4.9-6.73-4.35a88.66 88.66 0 0 0-13.01 3.26c-2.73 1-5.21 3.33-5.44 12.3 0 0-.91 20.92-.93 25a33.09 33.09 0 0 0 17.91 1.77c8.2-1.79 9.19-5.19 9.19-5.19s.1-15-.14-21.54c-.25-5.55-.32-9.64-.85-11.25z" fill="#f5f5f5"/><path d="M343.12 169.55s-2 3.15-1.73 3.45 1.75.54 1.75.54z" fill="#ffa8a7"/><path d="M348.61 160.83c-4.12 1-5.27 2.82-5.52 9.4-.25 6.89.5 9 1.43 9.94.62.61 4 .65 5.71.14 2.13-.64 6.92-2.46 9.11-6 2.57-4.13 3.15-9.66.24-11.86-4.08-3.06-9.29-2.01-10.97-1.62z" fill="#ffa8a7"/><path d="M343.14 162.55a8.41 8.41 0 0 0 3.84 3.06c.79.9.35 4.41 1.74 5 0 0 .6-2.56 2.75-2.29s2.51 3 1.19 4.72-2.6 1.09-2.6 1.09.15 3.63 1.81 5.65a11 11 0 0 0 5.19-.24c2.06-.49 4.93-3.15 6.1-5.92 2.48-5.85 2.54-11.07-1.2-12.55-.46-2.67-2.59-3.82-5-4.31-5.19-1.07-8.53 2.17-12.52 1.88-2.29-.19-2.72 1.48-1.3 3.91z" fill="#263238"/><path d="M362.05 161.93l2.44-1.52a1.44 1.44 0 1 0-2.44 1.52z" fill="#263238"/><path d="M314 201.93c1.28.57 16.38 11.73 18.74 10.43s14.43-15.42 14.43-15.42a9.75 9.75 0 0 0 0-10.59 10 10 0 0 0-5.9 3.79c-2 3.06-10.78 14-10.78 14-2.16-1.08-4.32-2.18-6.46-3.29-1.77-.92-3.55-1.83-5.28-2.82a6.16 6.16 0 0 1-1.36-.84c-.86-.84-.71-2.89-.69-4a13.3 13.3 0 0 1 .07-1.55c.08-.64.2-2.19-.95-1.7a1.49 1.49 0 0 0-.54.46 2.53 2.53 0 0 0-.41.78c-.22.67-.15 1.41-.34 2.08a.56.56 0 0 1-.15.27.46.46 0 0 1-.36.11c-1.66-.05-3.24-2.38-4-3.62a3.47 3.47 0 0 0-1.26-1.44 2.26 2.26 0 0 0-2.59 1 5.27 5.27 0 0 0-.83 3.67 7.3 7.3 0 0 0 2.17 4.6 22.31 22.31 0 0 0 6.49 4.08z" fill="#ffa8a7"/><path d="M348.52 185.9c-1.66.19-4-.12-7.26 3.39a102.61 102.61 0 0 0-7.35 9.45 9.28 9.28 0 0 0 7.31 6.88s5.71-5.86 7.3-9.08 1.97-8.46 0-10.64z" fill="#90caf9"/></g></g></svg>