<svg height="535" width="920" xmlns="http://www.w3.org/2000/svg" xmlns:xlink="http://www.w3.org/1999/xlink"><defs><path id="a" d="M0 0h920v32.425H0z"/><mask id="b" fill="#fff"><use fill-rule="evenodd" xlink:href="#a"/></mask></defs><g fill="none" fill-rule="evenodd" transform="translate(20 .451)"><rect fill="#222" height="509.98" rx="20" stroke="#d8d8d8" stroke-width="5" width="795" x="42.5" y="2.5"/><g transform="translate(-20 495.907)"><rect fill="#ddd" height="38.147" rx="10" width="920"/><use fill="#eaeaea" xlink:href="#a"/><path d="M402.343-25.749h115.314c4.96 0 8.852.928 12.111 2.671a18.173 18.173 0 0 1 7.56 7.56C539.073-12.257 540-8.365 540-3.405v1.09c0 4.96-.928 8.852-2.671 12.111s-4.301 5.818-7.56 7.56c-3.26 1.744-7.152 2.672-12.112 2.672H402.343c-4.96 0-8.852-.928-12.111-2.671-3.26-1.743-5.818-4.301-7.56-7.56S380 2.643 380-2.317v-1.09c0-4.96.928-8.852 2.671-12.111a18.173 18.173 0 0 1 7.56-7.56c3.26-1.744 7.152-2.672 12.112-2.672z" fill="#000" fill-opacity=".12" mask="url(#b)"/></g><g fill="#000"><path d="M70 45.776h740v419.613H70z"/><path d="M70 45.776h740v420H70z"/></g></g></svg>