<svg height="431" width="464" xmlns="http://www.w3.org/2000/svg"><g fill="none"><ellipse cx="228.48" cy="316.186" fill="#000" fill-opacity=".1" rx="226.52" ry="114.64"/><g fill="#000" opacity=".1" transform="translate(36.459 231.18)"><path d="M295.959 112.96c-16.771 7.227-16.771 18.937 0 26.154 16.77 7.217 43.703 7.227 60.375 0 16.673-7.227 16.682-18.927 0-26.154s-43.752-7.218-60.375 0zm-109.88-12.55c-5.495 3.17-5.495 8.324 0 11.503s14.413 3.18 19.918 0 5.495-8.333 0-11.502c-5.495-3.17-14.423-3.18-19.918 0z"/><ellipse cx="257.139" cy="60.829" rx="36.748" ry="21.237"/><path d="M178.137 27.388L46.998 103.165c-1.52.771-3.314.771-4.834 0l-40.447-23.4c-1.332-.77-1.332-2.023 0-2.793L132.866 1.205a5.264 5.264 0 0 1 4.824 0l40.447 23.39c1.332.77 1.332 2.063 0 2.793z"/></g><path d="M388.008 270.282s-.197-2.764-2.374-3.059c0 0-1.772-.295-2.757 2.469a5.688 5.688 0 0 0-5.14.59 3.197 3.197 0 0 0 2.373 3.55s-1.684 1.28-.887 4.338c0 0 4.442 1.476 5.525-1.288 0 0 .394 2.469 4.737 2.469a4.117 4.117 0 0 0 0-4.918s3.063-.099 3.555-2.37c0-.01-2.078-3.463-5.032-1.781z" fill="#fafafa"/><path d="M385.339 270.715a3.033 3.033 0 0 0-3.29 2.036s0 1.603 2.778 1.84c2.777.235 3.19-1.378 3.19-1.378a2.726 2.726 0 0 0-2.678-2.498z" fill="#f0997a"/><path d="M401.775 264.607s-.985-1.968-2.57-2.194a4.376 4.376 0 0 0-1.576 2.823 4.07 4.07 0 0 0-3.496.856 3.71 3.71 0 0 0 2.226 2.557 4.972 4.972 0 0 0 .108 3.64s3.072.226 4.156-2.332c0 0 1.142 1.702 4.264 1.102a3.185 3.185 0 0 0-1.133-3.718s1.97-1.111 1.704-2.95a4.84 4.84 0 0 0-3.683.216z" fill="#fafafa"/><path d="M400.032 265.767a2.254 2.254 0 0 0-2.186 1.85s.187 1.18 2.245 1.042c2.058-.138 2.176-1.367 2.176-1.367a1.97 1.97 0 0 0-2.235-1.525z" fill="#f0997a"/><g fill="#fafafa"><path d="M387.023 261.42s-.6-1.761-1.753-1.161-.758 1.711.246 1.967c0 0-2.156.708-1.556 1.86.6 1.15 2.462-.05 2.866-.65 0 0 .404 1.76 1.91 1.131 1.507-.63 0-2.144 0-2.144s2.305-.895 1.054-1.967-2.767.964-2.767.964zm13.462 16.79s.177-1.85-1.123-1.78c-1.3.068-1.388 1.249-.58 1.888 0 0-2.256-.256-2.187 1.043.069 1.298 2.265.983 2.876.59 0 0-.365 1.78 1.27 1.82 1.635.039.886-1.968.886-1.968s2.472.138 1.773-1.337c-.7-1.476-2.915-.256-2.915-.256zm-28.884-1.062s-1.497-1.968-.354-2.45 1.605 1.23 1.605 1.23 1.132-1.348 1.674-.394c.542.955-.837 1.968-.837 1.968s1.556.836.66 1.672-1.97-.472-1.97-.472-.61 1.485-1.566 1.072c-.955-.413-.344-2.154.788-2.626z"/></g><path d="M69.963 350.682s-1.389-2.823-3.684-3.148a6.333 6.333 0 0 0-2.274 4.063 5.786 5.786 0 0 0-5.013 1.23 5.353 5.353 0 0 0 3.19 3.678 7.104 7.104 0 0 0 .158 5.223s4.422.324 5.968-3.344c0 0 1.645 2.439 6.135 1.583a4.6 4.6 0 0 0-1.634-5.35s2.787-1.594 2.452-4.27a6.901 6.901 0 0 0-5.298.335z" fill="#fafafa"/><path d="M67.451 352.344a3.229 3.229 0 0 0-3.121 2.666s.256 1.692 3.21 1.505c2.954-.187 3.141-1.967 3.141-1.967a2.954 2.954 0 0 0-3.23-2.204z" fill="#f0997a"/><path d="M49.243 334.856s-.483-2.45-2.177-3.177a5.029 5.029 0 0 0-2.58 2.636 4.614 4.614 0 0 0-4.096-.099 4.247 4.247 0 0 0 1.674 3.482 5.611 5.611 0 0 0-.985 4.043s3.309 1.16 5.269-1.328c0 0 .738 2.203 4.362 2.489a3.636 3.636 0 0 0-.138-4.436s2.462-.65 2.767-2.764a5.49 5.49 0 0 0-4.096-.846z" fill="#fafafa"/><path d="M46.968 335.613A2.552 2.552 0 0 0 44.014 337s-.158 1.357 2.146 1.82c2.305.462 2.817-.856 2.817-.856a2.302 2.302 0 0 0-2.01-2.35z" fill="#f0997a"/><g fill="#fafafa"><path d="M62.606 337.295s-.866-2.528-2.53-1.662-1.084 2.449.364 2.813c0 0-3.102.984-2.246 2.665.857 1.682 3.546-.068 4.117-.934 0 0 .58 2.538 2.747 1.633 2.167-.905 0-3.079 0-3.079s3.32-1.298 1.517-2.813c-1.802-1.515-3.969 1.377-3.969 1.377zm-13.925 16.682s-2.146-2.833-.512-3.511c1.635-.68 2.315 1.75 2.315 1.75s1.634-1.967 2.402-.55c.769 1.416-1.201 2.793-1.201 2.793s2.235 1.2.985 2.41c-1.25 1.21-2.836-.689-2.836-.689s-.877 2.145-2.246 1.545c-1.369-.6-.541-3.06 1.093-3.748z"/></g><g transform="translate(276.731 -15.043)"><path d="M74.129 159.134l3.942-2.02 18.974 37.373v-45.889h7.47v35.945l19.388-31.323 3.785 2.346-23.172 37.453v72.825a1.853 1.853 0 0 1-1.094 1.518 5.806 5.806 0 0 1-5.283 0 1.853 1.853 0 0 1-1.094-1.518v-61.5z" fill="#d5b88a"/><path d="M74.129 159.134l3.942-2.02 18.974 37.373v-45.889h7.47v35.945l19.388-31.323 3.785 2.346-23.172 37.453v72.825a1.853 1.853 0 0 1-1.094 1.518 5.806 5.806 0 0 1-5.283 0 1.853 1.853 0 0 1-1.094-1.518v-61.5z" fill="#000" opacity=".5"/><ellipse cx="62.905" cy="112.091" fill="#2ac991" rx="54.446" ry="54.444" transform="rotate(-9.22 62.905 112.091)"/><ellipse cx="62.905" cy="112.091" fill="#000" opacity=".15" rx="54.446" ry="54.444" transform="rotate(-9.22 62.905 112.091)"/><path d="M45.832 98.185c-7.018-22.107-14.499-30.76-9.758-33.451 25.097-14.208 56.92-6.382 72.564 17.846 15.643 24.228 9.68 56.45-13.598 73.476-23.278 17.026-55.794 12.947-74.145-9.301 16.135 4.711 34.044-19.89 24.937-48.57z" fill="#000" opacity=".1"/><ellipse cx="148.672" cy="127.516" fill="#2ac991" rx="38.262" ry="38.261"/><ellipse cx="148.672" cy="127.516" fill="#000" opacity=".15" rx="38.262" ry="38.261"/><path d="M148.672 89.255a38.086 38.086 0 0 1 22.364 7.225c1.035 23.368-18.816 46.165-13.267 53.823 5.55 7.658 19.22 2.957 23.97-3.548-9.329 16.036-28.819 23.07-46.239 16.685s-27.75-24.345-24.506-42.612 19.125-31.575 37.678-31.573z" fill="#000" opacity=".15"/><ellipse cx="100.818" cy="86.241" fill="#2ac991" rx="70.197" ry="70.195" transform="rotate(-14.53 100.818 86.24)"/><path d="M32.526 102.305c7.33 31.286 34.97 53.6 67.1 54.17 32.129.57 60.543-20.748 68.98-51.755 8.436-31.006-5.26-63.782-33.25-79.568a70.324 70.324 0 0 1 16.43 12.882c7.206 30.855-7.156 62.712-35.05 77.744-27.893 15.032-62.4 9.511-84.21-13.473z" fill="#000" opacity=".1"/></g><g transform="translate(-8 -18)"><path d="M74.08 162.09l3.942-2.02 18.983 37.374v-45.89h7.471V187.5l19.388-31.322 3.794 2.346-23.182 37.452v72.826a1.853 1.853 0 0 1-1.094 1.518 5.786 5.786 0 0 1-5.273 0 1.853 1.853 0 0 1-1.094-1.518V207.3z" fill="#d5b88a"/><path d="M74.08 162.09l3.942-2.02 18.983 37.374v-45.89h7.471V187.5l19.388-31.322 3.794 2.346-23.182 37.452v72.826a1.853 1.853 0 0 1-1.094 1.518 5.786 5.786 0 0 1-5.273 0 1.853 1.853 0 0 1-1.094-1.518V207.3z" fill="#000" opacity=".5"/><ellipse cx="62.853" cy="115.064" fill="#2ac991" rx="54.446" ry="54.444" transform="rotate(-9.22 62.853 115.064)"/><ellipse cx="62.853" cy="115.064" fill="#000" opacity=".15" rx="54.446" ry="54.444" transform="rotate(-9.22 62.853 115.064)"/><path d="M45.782 101.142c-7.017-22.107-14.508-30.76-9.757-33.451 25.097-14.208 56.92-6.382 72.563 17.846 15.644 24.228 9.68 56.45-13.597 73.476-23.278 17.026-55.794 12.946-74.145-9.301 16.135 4.71 34.044-19.89 24.936-48.57z" fill="#000" opacity=".1"/><ellipse cx="148.623" cy="130.473" fill="#2ac991" rx="38.262" ry="38.261"/><ellipse cx="148.623" cy="130.473" fill="#000" opacity=".15" rx="38.262" ry="38.261"/><path d="M148.623 92.212a38.027 38.027 0 0 1 22.354 7.225c1.044 23.368-18.806 46.165-13.257 53.823 5.549 7.658 19.21 2.957 23.97-3.548-9.329 16.036-28.82 23.07-46.24 16.685s-27.749-24.346-24.506-42.613 19.125-31.574 37.679-31.572z" fill="#000" opacity=".15"/><ellipse cx="101.085" cy="88.447" fill="#2ac991" rx="70.147" ry="70.145" transform="rotate(-18.072 101.085 88.447)"/><path d="M32.437 105.261c7.34 31.274 34.974 53.575 67.094 54.145 32.12.57 60.527-20.736 68.973-51.73 8.445-30.993-5.228-63.765-33.197-79.567a70.738 70.738 0 0 1 16.48 12.882 70.192 70.192 0 0 1-68.334 86.22 70.03 70.03 0 0 1-51.016-21.95z" fill="#000" opacity=".1"/></g><g transform="translate(207.825 296.754)"><circle cx="20.08" cy="20.266" fill="#f5f5f5" r="15.095" transform="rotate(-22.443 20.08 20.266)"/><g fill="#455a64"><path d="M24.68 13.615c-2.13.166-4.206.75-6.11 1.717a33.901 33.901 0 0 0 0 6.131 20.717 20.717 0 0 0 5.463 1.883s2.943-2.413 3.698-4.58a12.644 12.644 0 0 0-3.05-5.15z"/><path d="M14.508 12.752l-.422-.853-.088.127-.069.089.403.804L18.5 15.43l.45.334.05-.089a.51.51 0 0 1 .108-.098l-.48-.343zm8.662-5.885c-.344 0-.726-.079-1.148-.108a10.28 10.28 0 0 0-6.278 1.618l-.844.49c.031.074.057.15.079.226l.902-.52a9.927 9.927 0 0 1 6.131-1.579c.53 0 .981.088 1.423.147a.795.795 0 0 1-.265-.274zm2.972 2.02l-.206.667-1.373 4.022-.324.854c.078.009.154.029.226.058l.323-.833 1.374-4.022.206-.677a.863.863 0 0 1-.226-.069zm7.308 10.006a4.718 4.718 0 0 1-.48.353 47.37 47.37 0 0 0-5.229-.598h-.088a3.1 3.1 0 0 0-.314 0c.005.078.005.157 0 .235.133-.015.268-.015.402 0 1.756.106 3.504.306 5.238.598a2.61 2.61 0 0 0 .461-.343 2.06 2.06 0 0 1 .01-.245zm-2.197-8.426a11.771 11.771 0 0 1 3.374 4.845c.057.183.097.37.118.56a1.07 1.07 0 0 1 .226-.089 2.805 2.805 0 0 0-.118-.54 11.997 11.997 0 0 0-3.433-4.904l-.295-.284a8.318 8.318 0 0 0-.569-.5.53.53 0 0 1 0 .107l-.088.079c.177.137.353.294.55.48s.127.138.235.246zm-7.092 12.88a8.19 8.19 0 0 1 .274-.825.863.863 0 0 1-.284.089 9.306 9.306 0 0 0-.226.706l1.491 5.64 1.08.736h.058a.98.98 0 0 1 .245-.059 46.52 46.52 0 0 1-1.206-.824zm10.496.765c-.108.284-.236.578-.373.873a15.057 15.057 0 0 1-3.688 4.6c-.216.108-.589.304-.981.471a.795.795 0 0 1 .186.177c.451-.206.834-.403.932-.452a15.018 15.018 0 0 0 3.777-4.698c.127-.275.245-.55.353-.815a.98.98 0 0 1-.206-.156zm-15.43-3.16l-.717.413a32.97 32.97 0 0 0-4.492 3.6 12.14 12.14 0 0 0-.471.873l.167.216c.176-.383.363-.726.49-.981a35.137 35.137 0 0 1 4.434-3.492c.294-.177.559-.314.785-.432a1.05 1.05 0 0 1-.197-.196zm3.335 11.321c-.403 0-.854 0-1.354-.079-2.02-.148-3.958-.862-5.591-2.06s-.324-.078-.726-.225a2.09 2.09 0 0 1 0 .245c.333.108.598.177.677.196a11.124 11.124 0 0 0 5.699 2.1c.46 0 .883.058 1.265.068a.53.53 0 0 1 .03-.245zm-12.87-9.152a.48.48 0 0 1 .235 0 7.308 7.308 0 0 1-.167-.805 23.14 23.14 0 0 1 .295-5.974c.066-.361.154-.718.264-1.069a.48.48 0 0 1-.166 0h-.079c-.101.323-.186.65-.255.981a23.356 23.356 0 0 0-.284 6.053c.03.275.083.547.157.814z"/><path d="M22.012 6.867a11.84 11.84 0 0 1 4.042 2.697 14.37 14.37 0 0 1 4.993.51 9.81 9.81 0 0 0-.265-1.481 15.097 15.097 0 0 0-7.534-2.707c-.43.302-.843.63-1.236.98zm14.714 10.427a11.654 11.654 0 0 0-1.961-2.01 21.06 21.06 0 0 1-1.747 4.09 39.404 39.404 0 0 1 1.403 5.66 14.469 14.469 0 0 0 2.423-.716c.249-1.088.374-2.2.373-3.316a15.421 15.421 0 0 0-.49-3.708zM11.948 31.243a9.554 9.554 0 0 0 3.6-.981s-.765-2.295-1.452-5.18a29.428 29.428 0 0 1-4.453-2.726s-.981.98-1.168 4.12a15.342 15.342 0 0 0 3.473 4.767zM8.73 13.674c.187.96.601 1.862 1.207 2.63 1.15-1.543 2.7-2.74 4.483-3.463.357-1.48.82-2.932 1.383-4.346a14.763 14.763 0 0 0-2.246-.088 15.352 15.352 0 0 0-4.827 5.267zm21.915 16.01a22.356 22.356 0 0 1-5.14-.766 26.485 26.485 0 0 1-4.297 3.394 8.593 8.593 0 0 0 2.413 3.002 16.676 16.676 0 0 0 5.591-1.609 11.477 11.477 0 0 0 1.433-4.022z"/></g><path d="M35.078 28.712c-2.54 3.61-12.32 5.886-18.559-2.217-6.239-8.102-2.639-17.402 1.903-20.227a15.165 15.165 0 1 0 16.676 22.444z" fill="#000" opacity=".1"/></g><g><g fill="#37474f"><path d="M318.603 329.106c0 2.845-6.466 14.818-8.676 15.144-4.245.702-8.362.464-11.044 2.075-2.054 1.235-5.326 4.386-4.216 6.223 1.11 1.838 2.516 1.729 4.275.988 2.23-.88 3.596-2.242 4.853-2.262 1.258-.02 8.608.642 11.664-.672 3.055-1.314 9.069-7.043 9.825-9.147s-6.681-12.349-6.681-12.349zm64.073 6.797c-.855-3.171-12.076-2.608-13.697-5.434l-11.84 5.039a12.265 12.265 0 0 0 3.93 4.317c1.965 1.373 3.43 1.136 5.375 1.234 1.945.1 8.47-1.234 9.826-.355 1.63 1.057 1.454 1.077 1.837 2.963l.413 1.976c.103.914.442 1.786.982 2.529a2.114 2.114 0 0 0 2.751.346 2.95 2.95 0 0 0 .443-.336 5.45 5.45 0 0 0 1.375-3.784 35.848 35.848 0 0 0-1.395-8.495zm-19.003-20.558c3.488-6.628 10.73-9.147 12.773-13.168 2.781-5.581-.982-9.74-.982-11.548s3.665-.662 5.03 5.305c.983 4.465-.216 8.456-3.252 11.953-2.79 3.23-8.627 7.438-9.246 11.183z"/></g><path d="M395.98 335.834c-.727-3.191-11.958-3.083-13.461-5.928-4.913-14.511-6.22-15.4-11.575-17.692-5.777-2.48-13.5 0-18.954 3.467-4.264 2.746-14.424 6.816-17.99 4.613-8.794.988-19.563 3.952-16.704 9.474s2.948 8.288 7.93 13.741c7.948 8.743 22.913 6.787 30.793-.869 3.861-3.754 10.484-6.5 14.463-7.735a23.006 23.006 0 0 0 3.783 4.02c1.877 1.453 3.37 1.275 5.316 1.453s8.509-.89 9.825.05c1.592 1.115 1.415 1.125 1.72 3.032l.324 1.976c.071.918.376 1.802.884 2.568a2.115 2.115 0 0 0 2.742.454c.162-.087.314-.193.452-.316a5.399 5.399 0 0 0 1.523-3.724 35.616 35.616 0 0 0-1.071-8.584z" fill="#455a64"/><path d="M330.55 337.543c-2.485-3.36-3.527-8.605-3.979-10.729l-6.642-1.195-2.947 3.33c.12.253.225.513.314.78a33.79 33.79 0 0 0 7.959 14.64c6.563 7.23 22.157 5.927 27.04 1.106-8.627 1.857-18.148-3.062-21.744-7.932z" fill="#f5f5f5"/><path d="M312.305 303.51c-3.46-.464-7.301 2.401-7.91 3.508-.61 1.106 1.346 5.423 1.346 5.423z" fill="#263238"/><path d="M327.023 328.938a11.939 11.939 0 0 1-9.678-.573 1.427 1.427 0 0 1-.806-.73c.05-.8-.638-2.45-1.886-2.075a44.603 44.603 0 0 0-4.913 2.272c-.26.142-.53.267-.806.375-3.36 1.373-5.738.119-6.485-1.304-3.537-.306-5.6-3.724-5.895-4.346-.884-1.877 3.675-4.712 5.699-6.48s1.503-2.115 1.326-4.031c-.098-1.107 1.838-3.428 2.752-4.495 2.947-3.438 6.877-5.69 11.869-4.179 4.991 1.512 8.273 4.831 11.84 10.778 1.68 2.805 1.778 4.159 3.026 5.473" fill="#455a64"/><path d="M328.527 330.193c4.382-2.964 4.411-4.485 4.913-7.686l-10.976 5.7-3.635-.05c-.462.268-.914.564-1.366.87-.059.237-.128.455-.187.702.148.681.325 1.55.57 2.558 3.696.767 7.543.013 10.68-2.094z" fill="#000" opacity=".1"/><path d="M302.243 316.096a5.381 5.381 0 0 1 1.867-.87c.824-.219 1.7.045 2.27.682.41.757.568 1.626.452 2.48 0 .988-.266 2.292.157 3.18a5.11 5.11 0 0 0 2.564 1.848c3.469 1.255 6.17-.504 9.207-1.472 1.72-.543 4.048-1.195 5.68-.188s2.426 4.16 1.964 5.612c-3.851 2.064-8.764 2.499-9.904.266a6.577 6.577 0 0 0-.187-.652c-.088-.227-.687-1.53-1.817-1.225a29.946 29.946 0 0 0-4.324 1.927c-.405.218-.822.416-1.248.592-3.36 1.374-5.748.05-6.494-1.373-3.538-.306-5.6-3.724-5.896-4.346-.825-1.867 3.744-4.693 5.709-6.461z" fill="#f5f5f5"/><path d="M316.54 327.634c2.8 1.59 8.489 1.087 11.466-1.64 2.437-2.232 3.812-4.267 4.294-7.468.82.252 1.459.902 1.7 1.729-.246 1.827-.6 3.26-3.056 6.046-3.174 3.605-9.492 5.927-13.638 3.428a2.18 2.18 0 0 1-.767-2.095z" fill="#2ac991"/><path d="M298.126 324.66c1.18-.187 2.29-.533 2.722-1.382.432-.85.226-2.154-.58-2.46a6.423 6.423 0 0 0-3.193-.316 2.087 2.087 0 0 0-1.061 1.926c.226.968 1.05 1.541 2.112 2.233z" fill="#263238"/><path d="M302.469 326.903c1.769.188 5.836-1.452 9.315-3.951a13.522 13.522 0 0 1-5.483 3.951c-3.075 1.057-3.832 0-3.832 0z" fill="#000" opacity=".1"/><path d="M304.798 326.548a10.303 10.303 0 0 1 5.394 2.568c1.621 1.482 4.48.395 3.577-1.768-.904-2.164-4.088-3.013-4.088-3.013a24.725 24.725 0 0 1-4.883 2.213z" fill="#ffa8a7"/><path d="M312.982 314.456a1.373 1.373 0 0 0-.872-1.25 1.36 1.36 0 0 0-1.483.334 1.379 1.379 0 0 0-.257 1.506c.225.508.733.829 1.286.813a1.37 1.37 0 0 0 1.326-1.403zm9.65-3.467a9.627 9.627 0 0 0-2.772.158 6.756 6.756 0 0 1-1.395.237c-.48.015-.94-.193-1.248-.563a1.984 1.984 0 0 1 .246-2.085 10.19 10.19 0 0 1 5.512-4.475 31.956 31.956 0 0 1 7.35-2.035c2.898-.247 5.492.78 6.455 3.162a6.228 6.228 0 0 0 1.887 2.41c1.07.8 2.112 1.363 2.525 2.37 1.189 2.964-.983 4.822-3.832 4.782a28.86 28.86 0 0 1-7.86-1.58c-1.17-.366-2.24-1.156-3.41-1.581a14.154 14.154 0 0 0-3.459-.8z" fill="#263238"/><path d="M330.403 333.473c.983 2.647-.452 16.131-2.377 17.317-3.665 2.252-7.556 3.596-9.443 6.095-1.444 1.916-3.301 6.085-1.582 7.36s2.948.652 4.343-.652c1.74-1.67 2.496-3.448 3.655-3.952 1.16-.504 8.215-2.657 10.553-5.038s5.768-9.958 5.699-12.19-10.848-8.94-10.848-8.94z" fill="#455a64"/><path d="M311.764 327.99c.147.006.286-.072.358-.2s.067-.289-.014-.413a6.875 6.875 0 0 0-3.626-2.38 16.91 16.91 0 0 1-1.1.533 6.81 6.81 0 0 1 4.078 2.282c.067.104.18.17.304.178z" fill="#f28f8f"/></g><g><path d="M333.776 256.993a8.512 8.512 0 0 0-.924-.858 9.047 9.047 0 0 1-2.574-3.068c-.658-1.52-.57-3.315-1.523-4.687a3.926 3.926 0 0 0-2.859-1.598c-1.395-.138-1.965.592-3.222.79a16.498 16.498 0 0 1-4.805-.356l-.196 7.212c1.287 0 2.456-.06 3.429 0 1.63.414 2.947 1.756 4.165 2.871a25.669 25.669 0 0 1 3.37 3.877c.362.479.653 1.007.865 1.569.092.374.203.743.334 1.105a2.183 2.183 0 0 0 3.095.78 4.671 4.671 0 0 0 1.866-3.424 5.275 5.275 0 0 0-1.021-4.213z" fill="#ffa8a7"/><path d="M328.215 246.575c1.113 0 2.086.754 2.368 1.835a13.637 13.637 0 0 0 1.758 4.39c.934 1.224 2.948 3.167 3.37 4.568.423 1.4.983 4.933-.255 6.373a4.354 4.354 0 0 1-4.087 1.737c-1.435-.237-3.154-18.903-3.154-18.903z" fill="#37474f"/><path d="M255.354 206.905c-2.466-.779-4.912-1.618-7.32-2.594a17.511 17.511 0 0 1-3.93-2.042 7.365 7.365 0 0 1-2.701-3.463 4.05 4.05 0 0 1-.118-2.437 2.59 2.59 0 0 1 1.621-1.746 3.693 3.693 0 0 1 3.056.828c.71.566 1.462 1.077 2.25 1.53.166.098 1.493.986 1.404.434a.82.82 0 0 0-.186-.336 2.495 2.495 0 0 1-.285-2.259.582.582 0 0 1 .285-.355c.255-.099.51.138.678.355a25.197 25.197 0 0 0 2.505 2.723 8.848 8.848 0 0 0 2.564 2.022 144.332 144.332 0 0 0 14.904 2.635 128.106 128.106 0 0 0 9.187-10.695c2.849-4.074 5.226-5.87 10.345-4.863-.805 2.278-.265 4.873-1.326 8.879 0 0-10.807 15.035-15.415 15.785a10.363 10.363 0 0 1-3.881-.395c-3.488-.79-6.877-1.904-10.316-2.96z" fill="#ffa8a7"/><path d="M312.947 245.954c-3.006-.987-5.964-1.757-9.5-1.194-1.867-11.257-1.818-23.599-5.493-31.817-4.814.632-10.571 6.906-16.25 6.58a64.567 64.567 0 0 0 3.046 18.39 68.56 68.56 0 0 0 7.182 14.927c2.161 3.6 5.187 3.64 10.532 2.96 3.586-.445 10.237-1.204 15.209-1.392a7.257 7.257 0 0 0 .196-7.211 42.603 42.603 0 0 1-4.922-1.243z" fill="#455a64"/><path d="M328.637 261.847a41.359 41.359 0 0 0-5.698-5.92c-.845-.473-2.191-.424-1.513-1.065.678-.641 2.417-2.25 2.093-3.344-.325-1.095.982-.346 1.424-.77.442-.424-.982-1.115-1.749-1.894-.766-.78-1.14-1.204-1.14-1.204h-.815s-.196-.631 1.366-.799c1.562-.167 2.869-.68 3.93-.592a5.012 5.012 0 0 1 1.64.336 6.916 6.916 0 0 1 1.651 3.226c.393 2.713 2.22 4.725 3.134 5.86 1.592 1.973 2.063 3.266 1.385 4.933s-5.708 1.233-5.708 1.233z" fill="#2ac991"/><path d="M328.637 261.847a41.359 41.359 0 0 0-5.698-5.92c-.845-.473-2.191-.424-1.513-1.065.678-.641 2.417-2.25 2.093-3.344-.325-1.095.982-.346 1.424-.77.442-.424-.982-1.115-1.749-1.894-.766-.78-1.14-1.204-1.14-1.204h-.815s-.196-.631 1.366-.799c1.562-.167 2.869-.68 3.93-.592a5.012 5.012 0 0 1 1.64.336 6.916 6.916 0 0 1 1.651 3.226c.393 2.713 2.22 4.725 3.134 5.86 1.592 1.973 2.063 3.266 1.385 4.933s-5.708 1.233-5.708 1.233z" fill="#000" opacity=".5"/><path d="M294.378 255.326l8.282-16.091-10.001 14.64a5.773 5.773 0 0 0 1.72 1.45z" fill="#000" opacity=".2"/><path d="M290.006 227.021c-1.434 3.197-4.028 9.047-5.07 11.514l3.243-10.744c-2.78-2.24-3.223-2.624-4.333-5.071a12.998 12.998 0 0 0 6.16 4.301zm11.299-43.872l-4.215.306a13.615 13.615 0 0 1-10.618-3.951 13.735 13.735 0 0 1-3.992-10.64c.492-7.36 7.664-12.964 14.993-12.46 7.33.493 13.401 6.846 12.91 14.206l-.128 1.815c-.432 6.068-4.539 10.566-8.95 10.724z" fill="#263238"/><path d="M306.767 160.833a7.022 7.022 0 0 1 8.106-1.085c2.417 1.253 4.912 5.298 5.276 9.195.363 3.897 2.053 6.777 4.185 7.221 1.69.346 3.419 1.411 3.566 3.325a4.3 4.3 0 0 1-1.395 3.354 7.112 7.112 0 0 1-3.31 1.648c-4.435 1.065-8.95-1.43-10.425-5.762-1.375-3.759-.52-7.942-.982-11.917-.157-1.312-.61-2.792-1.818-3.295-1.208-.504-2.22.088-3.232.453v-1.637c.03-.217-.118-1.352.03-1.5z" fill="#263238"/><path d="M283.522 284.814c.128-.483.688-1.973 1.444-4.015l-8.046-1.746c-.187 1.785-.374 3.502-.531 5.06a13.74 13.74 0 0 1-.874 3.631 32.436 32.436 0 0 1-8.568 9.777c-.098.07-.186.109-.294.197-.12.08-.23.177-.325.286a.841.841 0 0 0-.176.681c.076.191.21.353.383.464a7.891 7.891 0 0 0 6.003 1.046 6.099 6.099 0 0 0 4.205-2.674 20.144 20.144 0 0 1 2.692-3.187c1.14-1.164 3.419-.887 4.215-2.259.58-.986 0-1.973-.217-2.733a7.19 7.19 0 0 1 .089-4.528z" fill="#ffa8a7"/><path d="M304.42 210.418c-.296-.612-.482-.987-.482-.987l-20.986-.75c-.236 4.48-.983 7.557-.776 10.852 1.15 1.056.756 1.56 1.67 3.138.982 1.973 4.736 4.498 6.16 4.301-2.564 5.633-5.423 12.381-7.997 18.232-2.31 5.278-2.653 6.314-3.095 13.387-.364 5.772-1.258 13.694-1.965 20.452a10.273 10.273 0 0 0 8.047 1.746c1.964-5.337 5.433-14.137 5.944-16.298.884-3.69 1.06-6.363.49-8.77 0 0 5.316-7.893 8.195-11.968 4.234-6.087 8.754-12.825 9.009-19.08s-1.582-9.49-4.215-14.255z" fill="#455a64"/><path d="M284.14 291.355c.364.118.168 1.243 0 1.608a3.843 3.843 0 0 1-1.964 1.49 5.603 5.603 0 0 0-3.124 2.368 6.402 6.402 0 0 1-3.606 3.857 10.483 10.483 0 0 1-7.212.73c-2.033-.602-2.672-1.618-2.8-2.14-.058-.7-.058-1.403 0-2.102z" fill="#37474f"/><path d="M281.33 293.585a5.657 5.657 0 0 0 2.82-1.835c.197-2.398-.658-3.069-.442-4.37.334-2.063 0-2.339-.206-2.33-.088.287-.304 1.037-.304 1.037-.19.472-.486.894-.865 1.233-.386.213-.833.29-1.267.217a1.058 1.058 0 0 1-.511-.178 1.302 1.302 0 0 1-.334-.453 3.944 3.944 0 0 0-1.052-1.362 4.142 4.142 0 0 0-3.409-.74.98.98 0 0 0-.403.129c-.275.187-.245.601-.314.937-.295 1.41-1.63 2.96-2.85 4.202a14.665 14.665 0 0 1-2.72 2.339 13.247 13.247 0 0 0-2.86 2.11 4.047 4.047 0 0 0-.894 3.602 3.12 3.12 0 0 0 2.034 1.924 8.693 8.693 0 0 0 2.653.532 8.809 8.809 0 0 0 3.419-.483 7.158 7.158 0 0 0 4.116-3.275 6.949 6.949 0 0 1 3.39-3.236z" fill="#2ac991"/><path d="M281.33 293.585a5.657 5.657 0 0 0 2.82-1.835c.197-2.398-.658-3.069-.442-4.37.334-2.063 0-2.339-.206-2.33-.088.287-.304 1.037-.304 1.037-.19.472-.486.894-.865 1.233-.386.213-.833.29-1.267.217a1.058 1.058 0 0 1-.511-.178 1.302 1.302 0 0 1-.334-.453 3.944 3.944 0 0 0-1.052-1.362 4.142 4.142 0 0 0-3.409-.74.98.98 0 0 0-.403.129c-.275.187-.245.601-.314.937-.295 1.41-1.63 2.96-2.85 4.202a14.665 14.665 0 0 1-2.72 2.339 13.247 13.247 0 0 0-2.86 2.11 4.047 4.047 0 0 0-.894 3.602 3.12 3.12 0 0 0 2.034 1.924 8.693 8.693 0 0 0 2.653.532 8.809 8.809 0 0 0 3.419-.483 7.158 7.158 0 0 0 4.116-3.275 6.949 6.949 0 0 1 3.39-3.236z" fill="#000" opacity=".5"/><g fill="#f5f5f5"><path d="M277.97 289.027a5.174 5.174 0 0 0-3.84-1.273s-.688.168-.61.809a5.79 5.79 0 0 1 4.097 1.342c.256.207.472.237.688 0 .216-.237-.118-.73-.334-.878zm-1.13 1.766a5.791 5.791 0 0 0-4.057-1.372s-.845.227-.854.878c0 0 1.896-.503 4.313 1.313a.51.51 0 0 0 .835-.178.613.613 0 0 0-.236-.641zm-1.463 2.515a.584.584 0 0 0-.118-.76 5.88 5.88 0 0 0-4.028-1.499s-.983.276-1.14.908a6.33 6.33 0 0 1 4.421 1.46.578.578 0 0 0 .855-.089zm-1.208 2.398a4.511 4.511 0 0 1 1.14 3.72 7.696 7.696 0 0 1-1.524.67 8.809 8.809 0 0 1-3.419.483 8.693 8.693 0 0 1-2.652-.532c-.875-.336-2.103-.987-2.398-1.974a4.542 4.542 0 0 1 .983-3.817c.378-.4.847-.7 1.366-.879 1.876-.572 4.941.523 6.504 2.329zm30.85-106.914c2.534.444 3.212 1.904 3.762 4.43.32 1.451.482 2.933.482 4.42l-.983 14.285.786 9.619c-4.224 2.91-19.109 5.436-27.99-1.075-.207-3.187-.354-18.193 1.07-23.678 1.965-7.626 5.748-10.595 9.471-10.31l8.95 1.293z"/></g><path d="M323.037 224.15c.098 2.615.216 4.933.373 6.906.321 2.519.076 5.078-.717 7.488a4.116 4.116 0 0 1-2.387 2.457 4.492 4.492 0 0 1-2.2.06 2.443 2.443 0 0 1-1.534-.77 2.881 2.881 0 0 1-.206-2.378c.216-1.065.413-2.14.639-3.216 0-.148.599-2.062.049-1.717a.769.769 0 0 0-.236.296 2.444 2.444 0 0 1-1.965 1.125.568.568 0 0 1-.442-.119c-.187-.207-.059-.532.079-.769a26.502 26.502 0 0 0 1.542-3.354c.49-.988.794-2.058.894-3.157 0-.78-1.366-12.46-2.358-15.203l-7.211-10.211c-2.948-4.933-4.775-10.33-2.329-12.825 6.2-.316 7.506 4.025 15.926 17.353 1.838 2.96 1.916 13.881 2.083 18.035zm-20.19-49.93c.482.346.6.504.983-.305.874-1.746 3.723-2.23 4.578 0 .855 2.23-1.287 5.012-2.947 5.396-2.83.661-3.105-1.154-3.105-1.154l-.983 9.994a8.938 8.938 0 0 1-7.093 4.597c-4.912.286-4.588-3.828-2.83-5.692l.217-2.812a11.746 11.746 0 0 1-3.596-.641c-1.523-.543-2.643-1.579-3.488-4.035-1.13-3.315-1.042-6.827.471-13.319 1.76-7.517 11.102-7.024 15.651-3.64 4.55 3.384 2.142 11.612 2.142 11.612z" fill="#ffa8a7"/><path d="M303.85 173.915l-.217 2.25a2.158 2.158 0 0 1-1.965-2.26l.226-4.716 3.036.8z" fill="#263238"/><path d="M294.408 156.561c-3.25-.33-6.497.65-9.027 2.723s-4.135 5.073-4.463 8.337l-.157 1.598 5.993.602a5.592 5.592 0 0 0 6.013-4.282l-1.14 4.607a4.91 4.91 0 0 0 5.247-3.088l.344-1.134a5.604 5.604 0 0 0 5.01 5.475h1.444l.58-8.622zm-.963 16.693a1.03 1.03 0 0 0 .987 1.07 1.03 1.03 0 0 0 1.066-.991 1.048 1.048 0 0 0-.982-1.105 1.063 1.063 0 0 0-1.071 1.026z" fill="#263238"/><path d="M293.376 178.897l-2.83.987c.111.381.371.701.721.887.35.186.76.222 1.136.1a1.56 1.56 0 0 0 .973-1.974z" fill="#f28f8f"/><path d="M284.583 169.288l2.387-.77a1.194 1.194 0 0 0-1.533-.839 1.303 1.303 0 0 0-.854 1.609zm.825 3.384a.985.985 0 0 0 .956.982c.53.015.976-.396 1.007-.928s-.364-.993-.892-1.04a1.043 1.043 0 0 0-1.07.986z" fill="#263238"/><path d="M290.851 171.626l-.51 5.485-2.82-1.095zm.865 12.618s4.912-.128 7.23-1.39a6.215 6.215 0 0 0 2.359-1.974 6.152 6.152 0 0 1-1.435 2.466c-2.387 2.427-8.243 2.121-8.243 2.121z" fill="#f28f8f"/><g fill="#f5f5f5"><path d="M327.91 260.91c2.368-.168 5.256-2.763 5.522-4.686a6.388 6.388 0 0 1 1.739 4.636c0 3.197-1.73 4.085-3.802 4.618-2.29.02-2.948-1.174-3.459-4.568zm-1.66-1.835s2.653-.73 3.38-2.062a.58.58 0 0 1 .884-.128c.53.414.049 1.144-.776 1.825a4.677 4.677 0 0 1-2.722 1.184c-.707 0-1.336-.642-.766-.82zm-1.543-1.687s2.643-.72 3.37-2.052a.58.58 0 0 1 .884-.129c.531.415 0 1.135-.776 1.826a4.677 4.677 0 0 1-2.721 1.183c-.698 0-1.336-.611-.757-.828zm-1.758-1.579s2.652-.73 3.38-2.062a.58.58 0 0 1 .884-.118c.53.404.049 1.134-.776 1.825a4.746 4.746 0 0 1-2.722 1.184c-.698-.02-1.336-.641-.766-.829z"/></g></g><g><g fill="#263238"><path d="M140.616 262.29a2.797 2.797 0 0 1-1.408-.373l-30.353-17.548a10.818 10.818 0 0 1-5.393-9.324V199.96a2.824 2.824 0 0 1 5.65 0v35.045a5.154 5.154 0 0 0 2.558 4.446l30.412 17.538a2.822 2.822 0 0 1-1.417 5.262zm-62.064 35.027a2.806 2.806 0 0 1-1.408-.384l-30.402-17.547a10.818 10.818 0 0 1-5.393-9.325v-35.056a2.824 2.824 0 0 1 5.64 0v35.086a5.144 5.144 0 0 0 2.568 4.446l30.402 17.518a2.822 2.822 0 0 1-1.407 5.262zm122.002-70.308a2.797 2.797 0 0 1-1.408-.374l-30.402-17.548a10.818 10.818 0 0 1-5.393-9.324v-35.085a2.822 2.822 0 0 1 4.28-2.583 2.822 2.822 0 0 1 1.36 2.583v35.085a5.144 5.144 0 0 0 2.568 4.446l30.402 17.537a2.822 2.822 0 0 1-1.407 5.263z"/><path d="M83.807 293.815v32.46a1.564 1.564 0 0 1-.984 1.298 4.983 4.983 0 0 1-4.537 0 1.574 1.574 0 0 1-.935-1.299v-32.459zm-26.81-15.265v32.459a1.574 1.574 0 0 1-.984 1.308 4.924 4.924 0 0 1-4.527 0 1.574 1.574 0 0 1-.984-1.308v-32.46zm148.714-55.072v32.459a1.594 1.594 0 0 1-.984 1.308 5.022 5.022 0 0 1-4.528 0 1.594 1.594 0 0 1-.984-1.308v-32.46zm-26.82-15.266v32.459a1.574 1.574 0 0 1-.935 1.298 4.983 4.983 0 0 1-4.537 0 1.564 1.564 0 0 1-.935-1.298v-32.459z"/></g><path d="M35.04 242.943l-.561-.324a3.62 3.62 0 0 1-1.624-2.823v-5.056a3.61 3.61 0 0 1 1.624-2.823l134.01-77.321a3.584 3.584 0 0 1 3.257 0l.56.324a3.59 3.59 0 0 1 1.635 2.823v5.056a3.61 3.61 0 0 1-1.634 2.823l-133.99 77.321a3.653 3.653 0 0 1-3.277 0z" fill="#455a64"/><path d="M40.512 237.268l-7.165-4.131a3.274 3.274 0 0 0-.472 1.603v5.056a3.62 3.62 0 0 0 1.624 2.823l.56.324c1.026.511 2.233.511 3.258 0l2.195-1.269z" fill="#263238"/><path d="M38.317 234.12l134.01-77.321c.905-.521 1.633-.098 1.633.984v5.055a3.61 3.61 0 0 1-1.633 2.823l-134.01 77.282c-.895.512-1.623.099-1.623-.983v-4.987a3.61 3.61 0 0 1 1.623-2.853z" fill="#37474f"/><path d="M35.04 258.405l-.561-.324a3.61 3.61 0 0 1-1.624-2.823v-5.056a3.61 3.61 0 0 1 1.624-2.823l134.029-77.292a3.584 3.584 0 0 1 3.258 0l.56.325a3.59 3.59 0 0 1 1.634 2.823v5.056a3.61 3.61 0 0 1-1.633 2.823l-134.01 77.291a3.653 3.653 0 0 1-3.277 0z" fill="#455a64"/><path d="M40.512 252.71l-7.165-4.13a3.303 3.303 0 0 0-.472 1.603v5.055a3.61 3.61 0 0 0 1.624 2.823l.56.325c1.026.51 2.233.51 3.258 0l2.195-1.27z" fill="#263238"/><path d="M38.317 249.583l134.01-77.322c.905-.521 1.633-.098 1.633.984v5.056a3.61 3.61 0 0 1-1.633 2.822l-134.01 77.282c-.895.512-1.623.099-1.623-.983v-5.056a3.61 3.61 0 0 1 1.623-2.783z" fill="#37474f"/><path d="M35.04 273.868l-.561-.325a3.61 3.61 0 0 1-1.624-2.823v-5.056a3.61 3.61 0 0 1 1.624-2.822l134.01-77.322a3.584 3.584 0 0 1 3.257 0l.56.325a3.59 3.59 0 0 1 1.635 2.823v5.026a3.59 3.59 0 0 1-1.634 2.823l-133.99 77.35a3.653 3.653 0 0 1-3.277 0z" fill="#455a64"/><path d="M40.512 268.192l-7.165-4.13a3.303 3.303 0 0 0-.472 1.602v5.056a3.61 3.61 0 0 0 1.624 2.823l.56.325c1.026.51 2.233.51 3.258 0l2.195-1.27z" fill="#263238"/><path d="M38.317 265.045l134.01-77.322c.905-.52 1.633-.098 1.633.984v4.987a3.59 3.59 0 0 1-1.633 2.823l-134.01 77.35c-.895.512-1.623.1-1.623-.983v-5.056a3.61 3.61 0 0 1 1.623-2.783zm2.195 18.157v.65a3.59 3.59 0 0 0 1.634 2.822l4.38 2.528a3.584 3.584 0 0 0 3.257 0l134.01-77.321a3.6 3.6 0 0 0 1.624-2.813v-.62a3.61 3.61 0 0 0-1.624-2.823l-4.39-2.528a3.584 3.584 0 0 0-3.258 0L42.146 280.41a3.59 3.59 0 0 0-1.634 2.793z" fill="#37474f"/><path d="M48.15 281.343v8.272a3.279 3.279 0 0 1-1.624-.393l-4.38-2.528a3.59 3.59 0 0 1-1.634-2.823v-.669a3.59 3.59 0 0 1 1.634-2.813l2.185-1.269z" fill="#263238"/><path d="M49.803 284.815l133.99-77.35a.984.984 0 0 0 0-1.88l-4.39-2.527a3.584 3.584 0 0 0-3.258 0l-133.999 77.35a.984.984 0 0 0 0 1.88l4.38 2.527a3.584 3.584 0 0 0 3.277 0z" fill="#455a64"/><path d="M53.888 290.943v.65a3.59 3.59 0 0 0 1.623 2.812l4.38 2.568c1.026.51 2.232.51 3.258 0l134.01-77.331a3.57 3.57 0 0 0 1.633-2.814v-.649a3.59 3.59 0 0 0-1.634-2.823l-4.38-2.528a3.584 3.584 0 0 0-3.257 0L55.51 288.12a3.61 3.61 0 0 0-1.623 2.823z" fill="#37474f"/><path d="M61.525 289.104v8.262a3.397 3.397 0 0 1-1.634-.383l-4.38-2.538a3.59 3.59 0 0 1-1.623-2.813v-.65a3.61 3.61 0 0 1 1.623-2.862l2.166-1.259z" fill="#263238"/><path d="M63.149 292.527l134.01-77.322a.984.984 0 0 0 0-1.878l-4.38-2.528a3.584 3.584 0 0 0-3.258 0L55.51 288.12a.984.984 0 0 0 0 1.879l4.38 2.528a3.584 3.584 0 0 0 3.258 0z" fill="#455a64"/><path d="M67.253 298.655v.649a3.59 3.59 0 0 0 1.634 2.823l4.38 2.528a3.584 3.584 0 0 0 3.257 0l134.01-77.322a3.61 3.61 0 0 0 1.623-2.823v-.649a3.59 3.59 0 0 0-1.624-2.813l-4.39-2.538a3.653 3.653 0 0 0-3.257 0l-134 77.322a3.61 3.61 0 0 0-1.633 2.823z" fill="#37474f"/><path d="M74.89 296.776v8.262a3.387 3.387 0 0 1-1.623-.383l-4.38-2.528a3.59 3.59 0 0 1-1.634-2.823v-.65a3.61 3.61 0 0 1 1.634-2.822l2.185-1.26z" fill="#263238"/><path d="M76.524 300.248l134.01-77.321a.984.984 0 0 0 0-1.879l-4.39-2.538a3.653 3.653 0 0 0-3.258 0l-134 77.322a.984.984 0 0 0 0 1.888l4.38 2.528c1.026.511 2.233.511 3.258 0z" fill="#455a64"/><g fill="#263238"><path d="M44.173 233.766a2.321 2.321 0 0 0-1.053 1.82c0 .669.473.983 1.053.6a2.292 2.292 0 0 0 1.044-1.81c0-.669-.463-.944-1.044-.61zm0 15.433a2.311 2.311 0 0 0-1.053 1.81c0 .669.473.983 1.053.61a2.311 2.311 0 0 0 1.044-1.86c0-.629-.463-.895-1.044-.56zm0 15.433a2.311 2.311 0 0 0-1.053 1.849c0 .669.473.983 1.053.61a2.311 2.311 0 0 0 1.044-1.82c0-.708-.463-.974-1.044-.64zm122.002-101.125a2.311 2.311 0 0 0-1.053 1.81c0 .669.473.984 1.053.61a2.311 2.311 0 0 0 1.044-1.82c0-.669-.463-.905-1.044-.6zm0 15.433a2.321 2.321 0 0 0-1.053 1.82c0 .668.473.934 1.053.6a2.282 2.282 0 0 0 1.044-1.81c0-.679-.463-.954-1.044-.61zm0 15.423a2.321 2.321 0 0 0-1.053 1.82c0 .668.473.934 1.053.6a2.292 2.292 0 0 0 1.044-1.81c0-.67-.463-.945-1.044-.61zM52.874 277.36a.56.56 0 0 0 0 1.062 2.048 2.048 0 0 0 1.85 0 .56.56 0 0 0 0-1.062 2.029 2.029 0 0 0-1.85 0zm13.405 7.81c-.512.285-.512.767 0 1.062.58.285 1.26.285 1.84 0 .512-.295.512-.777 0-1.063a2.029 2.029 0 0 0-1.84 0zm13.405 7.74c-.502.295-.512.777 0 1.063a2.029 2.029 0 0 0 1.84 0c.512-.286.512-.768 0-1.063a2.029 2.029 0 0 0-1.84 0zm95.113-85.849c-.512.295-.512.777 0 1.062a2.029 2.029 0 0 0 1.84 0c.512-.285.512-.767 0-1.062a2.029 2.029 0 0 0-1.84 0zm13.375 7.78a.56.56 0 0 0 0 1.063 2.029 2.029 0 0 0 1.84 0 .56.56 0 0 0 0-1.062 2.029 2.029 0 0 0-1.84 0zm13.405 7.78a.56.56 0 0 0 0 1.063 2.029 2.029 0 0 0 1.84 0 .56.56 0 0 0 0-1.062 2.048 2.048 0 0 0-1.84 0zm-95.34-23.832a2.311 2.311 0 0 0-1.053 1.81c0 .669.473.984 1.053.61a2.311 2.311 0 0 0 1.044-1.82c0-.669-.463-.934-1.044-.6zm0 15.433a2.311 2.311 0 0 0-1.053 1.81c0 .669.473.983 1.053.61a2.311 2.311 0 0 0 1.044-1.82c0-.669-.463-.935-1.044-.6zm0 15.423a2.321 2.321 0 0 0-1.053 1.82c0 .668.473.983 1.053.6a2.292 2.292 0 0 0 1.044-1.81c0-.67-.463-.945-1.044-.61zm8.592 12.698c-.511.295-.511.777 0 1.062a2.029 2.029 0 0 0 1.84 0c.513-.285.513-.767 0-1.062a2.088 2.088 0 0 0-1.84 0zm13.405 7.78a.56.56 0 0 0 0 1.063 2.029 2.029 0 0 0 1.84 0 .56.56 0 0 0 0-1.063 2.029 2.029 0 0 0-1.84 0zm13.415 7.78a.56.56 0 0 0 0 1.063 2.048 2.048 0 0 0 1.85 0 .56.56 0 0 0 0-1.062 2.029 2.029 0 0 0-1.85 0z"/></g></g><g><path d="M105.086 233.914s-4.075-10.761-6.89-17.135c-3.434-7.869-5.787-8.852-10.57-8.43l3.041 18.502s5.57 11.863 8.455 15.384c1.348 2.105 3.612 2.125 7.539.65 3.927-1.476 13.257-7.388 15.747-8.853a66.182 66.182 0 0 0 6.515-4.26c2.717-2.163 3.061-7.534.788-8.222-1.339-.404-2.441.747-3.612 1.446-1.487.885-3.042 1.918-4.183 2.567.235-.75.566-1.468.984-2.135a2.95 2.95 0 0 0 .403-1.426c0-.354-.275-1.16-.738-1.15-.462.01-.984.875-1.22 1.11a19.921 19.921 0 0 0-2.254 2.637 7.14 7.14 0 0 0-.984 1.79 3.935 3.935 0 0 1-1.25 1.741c-2.49 1.957-11.771 5.784-11.771 5.784z" fill="#ffa8a7"/><path d="M128.54 224.904c-2.402-5.902-4.489-17.98-5.906-23.135-1.575-5.901-3.848-3.836 1.644-7.367 4.074-.177 7.46-.934 9.734 8.292s4.586 17.498 4.586 17.498c.807.758 11.81 10.102 15.62 11.872.701.311 1.493.353 2.224.119 2.047-.61 4.202-.315 6.131-.414 1.506-.078 2.333-.56 2.47-.246a1.79 1.79 0 0 1-1.043 2.125c-.879.43-1.803.76-2.756.984 1.58.573 3.242.882 4.922.914 3.887.099 5.039 1.82 1.456 5.548-2.244 2.341-5.393 2.95-11.87.305a69.11 69.11 0 0 1-6.682-3.197c-5.266-2.862-9.183-4.554-12.686-6.472-6.565-3.61-6.959-4.593-7.845-6.826z" fill="#b16668"/><path d="M153.774 279.268c-.531.53-1.131 1.15-1.082 1.84a6.972 6.972 0 0 0 1.791 3.934c1.417 1.583 2.303 4.573 2.54 6.59.235 2.016.324 7.17 2.844 9.236 2.52 2.065 8.71 3.196 8.779-.56.069-3.758-7.087-18.306-7.087-18.306z" fill="#263238"/><path d="M157.17 281.687a54.86 54.86 0 0 1 2.362 8.105c.58 3.02 1.437 5.154 2.953 5.99 1.515.837 3.818.728 2.952-1.327s-3.937-12.502-3.937-12.502z" fill="#9a4a4d"/><path d="M136.758 228.74s11.259 5.567 17.134 8.852c5.876 3.286 13.78 8.095 14.921 10.682 1.142 2.587.768 9.187 0 15.384-.768 6.197-2.313 17.34-2.313 17.34l-16.908-26.32-19.586-13.427z" fill="#37474f"/><path d="M135.92 240.828l.916-1.072s11.2 6.886 14.665 9.158c3.464 2.272 7.155 4.918 8.799 8.96 1.643 4.043 6.692 19.889 6.692 19.889l-11.88-22.102zm31.722 59.695c-.502.325-.453 1.564-.423 2.48s-.65 2.094.65 3.52c1.298 1.427 3.523 1.584 5.294 3.532 1.772 1.947 4.478 5.537 9.439 5.901 4.96.364 8.395-1.76 9.094-3.324.699-1.564-.305-2.804-3.632-4.122-3.533-1.406-4.527-1.83-4.527-1.83z" fill="#263238"/><path d="M171.431 289.91s3.228 6.099 5.059 8.853a34.318 34.318 0 0 0 7.303 7.495c.62.492 1.968 1.367 2.49 1.76a.983.983 0 0 1 .167 1.437c-.846 1.19-5.206 2.252-8.021.865s-5.906-4.436-7.657-5.656c-.876-.6-1.703-1.18-2.313-1.613a2.036 2.036 0 0 1-.857-1.8v-.718c.08-1.485-2.903-6.964-2.903-6.964z" fill="#b16668"/><path d="M108.796 234.917c0 4.918.158 7.731 2.677 12.305 2.52 4.574 8.858 7.544 16.27 10.19 6.16 2.193 17.557 6.885 19.349 7.338 1.79.452 2.165 1.387 2.529 4.603.364 3.216 2.431 8.184 7.165 13.997 5.01 6.147 7.952 10.21 7.952 10.21a7.482 7.482 0 0 0 7.087-3.207s-11.88-30.197-14.065-34.072c-2.185-3.876-22.636-15.905-22.636-15.905.728-3.85 1.264-7.733 1.604-11.636z" fill="#37474f"/><path d="M138.5 234.799s-.227 3.875-2.58 6.03l1.477.875a8.406 8.406 0 0 0 1.103-6.905z" fill="#263238"/><path d="M110.765 196.586l-7.087 1.83s4.045 2.507 3.347 10.003c-.492 5.311.069 6.373-2.599 7.868-.462 6.709 4.636 24.876 4.636 24.876s7.037 2.174 16.899-.777a19.296 19.296 0 0 0 12.312-10.938l-6.25-5.833-1.427-5.33s4.675-4.102 3.08-10.2c-1.593-6.1-9.398-13.634-9.398-13.634l-4.921.768z" fill="#2ac991"/><path d="M110.765 196.586l-7.087 1.83s4.045 2.507 3.347 10.003c-.492 5.311.069 6.373-2.599 7.868-.462 6.709 4.636 24.876 4.636 24.876s7.037 2.174 16.899-.777a19.296 19.296 0 0 0 12.312-10.938l-6.25-5.833-1.427-5.33s4.675-4.102 3.08-10.2c-1.593-6.1-9.398-13.634-9.398-13.634l-4.921.768z" fill="#fff" opacity=".7"/><path d="M118.205 190.31l-8.76.807c-2.834-1.564-9.083-6.64-9.408-13.77-.394-8.597 5.689-15.04 14.29-15.433a15.556 15.556 0 0 1 10.827 3.698c5.797 0 6.83 4.859 6.151 8.597a6.699 6.699 0 0 1-3.68 4.918c.314 7.19-2.245 10.859-9.42 11.183z" fill="#263238"/><path d="M112.95 160.822c1.318 3.187-.62 7.003-4.321 8.538-3.7 1.534-7.785.216-9.104-2.951-1.319-3.167.62-6.994 4.32-8.538 3.701-1.544 7.786-.226 9.105 2.95z" fill="#263238"/><path d="M124.238 168.405c1.693.905 3.937 4.918 4.105 13.623.167 7.348-2.126 9.276-3.307 9.836-1.181.561-3.494.364-5.748.089l.157 3.58s4.065 3.817 3.937 5.902c-.128 2.085-5.118 3.167-8.11 1.328a25.327 25.327 0 0 1-5.58-5.174l-.443-10.554s-1.26 1.348-3.592-.512c-1.969-1.524-2.668-4.22-1.29-5.744a3.21 3.21 0 0 1 5.167.787 17.821 17.821 0 0 0 8.228-2.872 13.396 13.396 0 0 0 6.476-10.289z" fill="#b16668"/><path d="M120.056 180.553a.924.924 0 1 1-1.84.167.924.924 0 0 1 .826-1.033.984.984 0 0 1 1.014.866z" fill="#263238"/><path d="M120.587 186.809l2.175.59a1.102 1.102 0 0 1-1.358.826 1.18 1.18 0 0 1-.817-1.416z" fill="#9a4a4d"/><path d="M127.555 177.307l-2.391-.924a1.22 1.22 0 0 1 1.614-.758 1.328 1.328 0 0 1 .777 1.682zm.05 2.705a.925.925 0 1 1-.985-.866c.5-.003.924.37.984.866z" fill="#263238"/><path d="M119.288 191.973c-2.382-.197-7.313-1.377-8.16-3.266.353.96.988 1.79 1.822 2.38 1.505 1.17 6.397 2.361 6.397 2.361zm3.71-12.345l.453 5.44 2.923-1.426z" fill="#9a4a4d"/><path d="M115.804 275.59c3.297 2.114 11.613-3.316 13.405-6.404 1.79-3.089 1.968-4.86-.463-6.482s-17.49 6.157-12.942 12.885z" fill="#2ac991"/><path d="M115.794 276.317c3.307 2.105 11.623-4.023 13.415-7.112 1.79-3.088 1.968-4.859-.463-6.482-2.43-1.622-19.684 8.322-12.952 13.594zm-2.795-1.495c.797.708 2.372 2.852-3.15 6.944-5.521 4.092-8.424 7.525-11.928 5.46-6.014-3.542 7.549-16.643 15.078-12.404z" fill="#263238"/><path d="M160.388 324.514l-3.307-2.577a14.486 14.486 0 0 1-2.234-1.77 17.025 17.025 0 0 1-1.073-1.732 56.279 56.279 0 0 1-5.049-9.915c-1.535-5.43-8.985-31.633-10.52-35.459-1.821-4.544-16.122-14.095-23.159-18.58-2.342-1.495-15.186-8.194-15.186-8.194l-13.602-6.678c-1.358 4.918-2.46 8.783-1.152 14.016 1.31 5.233 5.847 8.646 12.588 13.269 5.58 3.826 21.84 10.426 23.523 11.321 1.683.895 3.504.925 3.799 4.308.295 3.384-.128 4.84 2.795 9.414 3.75 5.852 10.718 13.446 12.736 19.514.137.423.078.876.206 1.309.197.562.355 1.137.473 1.72.116 1.171.334 2.33.65 3.463.669 1.889 2.204 3.305 3.602 4.741 1.397 1.436 2.952 3.197 4.517 4.653a14.43 14.43 0 0 0 5.502 3.334c2.089.665 4.36.43 6.27-.65a2.716 2.716 0 0 0 1.496-2.458 3.435 3.435 0 0 0-1.507-1.967z" fill="#ffa8a7"/><path d="M126.482 280.537c.197-4.21-5.039-6.797-9.113-9.836-3.455-2.578-21.052-14.509-21.052-14.509 1.968-3.088 1.968-10.977 1.968-10.977l-13.73 3.561a19.022 19.022 0 0 0 .581 4.918c1.309 5.243 5.846 8.646 12.588 13.269 5.58 3.826 21.84 10.426 23.522 11.321 1.683.895 3.504.925 3.8 4.308.295 3.384-.128 4.84 2.795 9.413-2.47-4.868-1.477-9.059-1.359-11.468z" fill="#f28f8f"/><path d="M127.181 334.419a27.489 27.489 0 0 1-4.439-4.761c-1.092-1.643-.984-3.935-1.26-5.784a20.738 20.738 0 0 0-3.611-8.488c-1.772-2.508-3.347-5.144-5.187-7.643-2.195-3.01-4.547-5.901-6.555-9.059-2.953-4.564-2.51-6.079-2.815-9.423-.305-3.344-2.096-3.374-3.789-4.288-.709-.384-3.937-1.77-7.952-3.492-2.116-.895-4.4-1.898-6.634-2.882a.896.896 0 0 1-.167-.079c-7.805-4.121-13.011-9.58-14.832-13.249a38.342 38.342 0 0 1-3.405-14.302l5.757-2.38 5.551-.266 18.06-.895a.147.147 0 0 0 0 .06c-.256.737-4.261 9.285-4.261 9.285a95.24 95.24 0 0 0 12.637 11.508c5.708 4.259 11.121 8.852 12.204 11.538 1.437 3.62 2.401 7.465 3.514 11.193 1.623 5.489 3.76 10.82 5.334 16.308.827 2.882 1.663 5.794 2.618 8.636a48.1 48.1 0 0 0 2.44 6.482 28.421 28.421 0 0 0 9.016 10.476c1.604 1.13 4.773 1.83 4.557 4.21a3.315 3.315 0 0 1-2.283 2.596 11.896 11.896 0 0 1-4.459.305c-4.143-.285-7.096-2.911-10.039-5.606z" fill="#ffa8a7"/><path d="M112.645 274.507l.354.315s-3.671-1.446-9.252 2.282c-2.952 1.967-8.858 6.787-5.826 10.121 0 0-18.956-10.82-24.605-16.092-5.65-5.272-6.781-10.918-7.44-19.76l32.4-6.118s11.957 6.088 19.408 10.505c8.72 5.154 11.082 6.944 11.082 6.944s-2.372-.58-6.713 2.39c-6.24 4.279-8.04 9.482-6.24 11.203z" fill="#c4e5fb"/><path d="M112.645 274.507l.354.315s-3.671-1.446-9.252 2.282c-2.952 1.967-8.858 6.787-5.826 10.121 0 0-18.956-10.82-24.605-16.092-5.65-5.272-6.781-10.918-7.44-19.76l32.4-6.118s11.957 6.088 19.408 10.505c8.72 5.154 11.082 6.944 11.082 6.944s-2.372-.58-6.713 2.39c-6.24 4.279-8.04 9.482-6.24 11.203z" fill="#000" opacity=".4"/><path d="M112.645 274.507l-15.413-11.96a22.624 22.624 0 0 0 5-6.62 9.066 9.066 0 0 1-2.805 6.57l9.566 7.8 6.801 5.96z" fill="#000" opacity=".4"/><path d="M140.783 319.261c-.003.537.09 1.07.275 1.574a7.076 7.076 0 0 0 2.687 1.967 6.021 6.021 0 0 1 2.953 3.04 10.567 10.567 0 0 0 5 4.82 15.146 15.146 0 0 0 8.976.747c3.74-.748 4.005-2.951 4.005-2.951s.158-2.085-.787-2.39-23.11-6.807-23.11-6.807z" fill="#263238"/><path d="M139.818 310.114c.323 1.774.406 3.584.246 5.38-.078 1.092-.098 2.813.719 3.767 1.132 1.505 3.514 1.967 5.059 4.013 1.545 2.046 3.848 5.804 8.779 6.679 4.93.875 8.621-.757 9.507-2.164.886-1.406 0-2.715-3.16-4.357-3.375-1.741-7.873-7.023-7.873-7.023a19.001 19.001 0 0 1-3.179-5.282l-.984-3.6c-.256-.738-5.65.64-6.21 1.701l.66 3.286-1.477-3.079z" fill="#455a64"/><g fill="#fafafa"><path d="M151.412 328.842a6.256 6.256 0 0 1 3.534-5.4c3.67-1.968 5.905-.787 7.096 0 1.368.983 3.336 2.95 2.194 4.426-1.141 1.475-3.247 2.41-7.027 2.528a9.02 9.02 0 0 1-5.797-1.554zm-5.295-11.371a.433.433 0 0 0 .335-.187c.413-.59 3.06-2.833 5.679-2.164.128-.295-.099-.61-.64-.915a7.61 7.61 0 0 0-5.748 2.637.393.393 0 0 0 .118.56c.077.047.166.071.256.069zm7.54-.423a1.26 1.26 0 0 0-.749-.885 7.738 7.738 0 0 0-5.413 2.646.393.393 0 0 0 .118.56c.073.056.165.08.256.07a.413.413 0 0 0 .335-.178c.403-.58 2.913-2.705 5.452-2.213zm-2.707-3.698a.757.757 0 0 0-.532-.984c-2.952-.65-5.905 1.76-6.436 2.538a.393.393 0 0 0 .128.56c.073.056.164.08.255.07a.423.423 0 0 0 .335-.178c.433-.678 3.464-3.216 6.25-2.006zm6.88 7.84a2.332 2.332 0 0 0-1.192-1.073 7.698 7.698 0 0 0-5.64 2.636.403.403 0 0 0 .129.57c.076.049.166.07.256.06a.423.423 0 0 0 .334-.178c.443-.659 3.396-3.088 6.112-2.016zm-8.2.225a.404.404 0 0 0 .326-.187c.413-.58 3.011-2.773 5.59-2.173a1.456 1.456 0 0 0-.886-.925 7.777 7.777 0 0 0-5.413 2.656.403.403 0 0 0 .118.56c.081.046.173.07.266.07z"/></g><path d="M121.06 328.93c-.004.537.09 1.07.275 1.574a6.997 6.997 0 0 0 2.687 1.967 6.021 6.021 0 0 1 2.953 3.04 10.528 10.528 0 0 0 5 4.82 15.224 15.224 0 0 0 8.975.747c3.74-.748 4.006-2.951 4.006-2.951s.157-2.085-.787-2.39c-.945-.305-23.11-6.807-23.11-6.807z" fill="#263238"/><path d="M120.085 319.773c.33 1.776.416 3.59.256 5.39-.079 1.092-.098 2.803.718 3.767 1.132 1.505 3.514 1.967 5.06 4.013 1.544 2.046 3.847 5.803 8.778 6.679 4.931.875 8.622-.758 9.508-2.174.886-1.416 0-2.715-3.16-4.347-3.375-1.741-7.873-7.023-7.873-7.023a19.149 19.149 0 0 1-3.18-5.282l-.983-3.6c-.256-.738-5.65.639-6.21 1.701l.659 3.286-1.477-3.08z" fill="#455a64"/><g fill="#fafafa"><path d="M131.689 338.51a6.256 6.256 0 0 1 3.533-5.4c3.671-1.967 5.905-.787 7.096 0 1.368.984 3.337 2.951 2.195 4.427-1.142 1.475-3.248 2.41-7.027 2.527a9.02 9.02 0 0 1-5.797-1.554zm-5.295-11.37a.463.463 0 0 0 .334-.187c.404-.59 3.061-2.833 5.68-2.164.127-.305-.1-.61-.64-.915a7.61 7.61 0 0 0-5.748 2.636.383.383 0 0 0 .118.561c.077.047.166.07.256.069zm7.539-.423a1.26 1.26 0 0 0-.748-.885 7.738 7.738 0 0 0-5.413 2.646.393.393 0 0 0 .118.56.443.443 0 0 0 .59-.108c.404-.58 2.914-2.705 5.453-2.213zm-2.707-3.698a.757.757 0 0 0-.531-.984c-2.953-.65-5.905 1.76-6.437 2.538a.393.393 0 0 0 .128.56.404.404 0 0 0 .256.07.453.453 0 0 0 .335-.178c.433-.679 3.464-3.226 6.25-2.006zm6.88 7.83a2.362 2.362 0 0 0-1.191-1.063 7.698 7.698 0 0 0-5.64 2.636.393.393 0 0 0 .128.56c.074.056.165.08.256.07a.423.423 0 0 0 .335-.178c.423-.63 3.356-3.088 6.112-2.026zm-8.208.235a.423.423 0 0 0 .334-.187c.404-.59 3.012-2.783 5.59-2.183a1.466 1.466 0 0 0-.885-.915 7.777 7.777 0 0 0-5.413 2.616.393.393 0 0 0 .118.561c.073.06.162.097.256.108zM71.21 210.504l-5.59.895s-.837 15.64-3.79 17.085c-.384 15.462 4.577 31.003 4.577 31.003s8.247 2.036 20.353-2.203c10.6-3.708 11.486-12.059 11.486-12.059s-3.071-4.465-3.691-6.511c-1.654-5.479-1.093-15.01-1.644-18.689-1.29-8.577-5.236-11.626-5.236-11.626h-6.89z"/></g><path d="M70.796 251.54c-3.641-3.276-4.527-12.226-4.222-15.207.305-2.98 3.041-11.803 1.791-18.039l-2.569-3.354c-.62 4.76-1.968 12.55-3.936 13.544-.384 15.462 4.576 31.003 4.576 31.003s8.248 2.036 20.353-2.203a19.253 19.253 0 0 0 7.126-4.22c-5.994 2.784-19.595 1.614-23.119-1.524z" fill="#ebebeb"/><path d="M66.328 183.671c.856-.866 2.303-1.456 3.356-.511.162.163.295.353.394.56.059.128.108.256.157.384a9.761 9.761 0 0 1 .227 3.246l.147 2.852c.06 1.21.118 2.42.187 3.64l.748-.05.108 5.154-.068 4.28-.434-.06a3.562 3.562 0 0 1-2.273-2.065c-.65-1.28-1.486-2.48-2.087-3.807a31.64 31.64 0 0 1-1.564-4.2 13.32 13.32 0 0 1-.65-5.685 6.775 6.775 0 0 1 1.742-3.718zm26.2-1.102a.364.364 0 0 1 .177 0 .433.433 0 0 1 .177.148c.644.89.989 1.96.984 3.059a4.758 4.758 0 0 1-.561 2.41 3.316 3.316 0 0 1-1.88 1.564 1.32 1.32 0 0 1-.728 0 1.496 1.496 0 0 1-.69-.472 6.807 6.807 0 0 1-.836-1.19 3.46 3.46 0 0 1-.64-2.42.983.983 0 0 1 .178-.374c.092-.087.198-.156.315-.207.459-.305.902-.633 1.328-.983.404-.276.798-.551 1.171-.846.374-.295.6-.56 1.004-.689z" fill="#263238"/><path d="M71.652 194.678c-.56.305-1.299-.777-1.968-1.515a2.392 2.392 0 0 0-4.025.492c-1.22 2.33.521 5.37 2.066 6.354a2.747 2.747 0 0 0 3.534-.433l-.463 10.82a11.732 11.732 0 0 0 7.746 5.223c5.305.924 4.38-3.512 2.706-5.725l.119-3.305c1.334.267 2.694.39 4.054.364 2.225-.256 4.173-.689 5.04-4.338s1.387-6.885 1.053-14.823c-.345-8.35-10.827-8.42-16.17-5.34-5.345 3.078-3.692 12.226-3.692 12.226z" fill="#ffa8a7"/><path d="M71.623 195.583c-.276 0-1.26-1.79-1.969-2.44-.219-.349-.319-.76-.285-1.17 0-1.2.207-2.37.069-3.561a13.893 13.893 0 0 0-1.132-3.275 6.33 6.33 0 0 1-.403-3.561 5.37 5.37 0 0 1 2.303-3.148 9.915 9.915 0 0 1 3.71-1.386c2.815-.532 5.718-.355 8.582-.502 2.864-.148 5.837-.679 8.12-2.42.177-.137.413-.285.61-.177.065.043.119.1.158.167.767 1.151.088 2.686.157 4.063a4.086 4.086 0 0 0 2.845-.63c.635.728.84 1.737.54 2.656a8.594 8.594 0 0 1-1.968 4.269c-.984 1.092-2.893.983-4.173.472a.532.532 0 0 0-.246-.06c-.137 0-.236.129-.334.237a5.671 5.671 0 0 1-4.921 1.515c-1.782-.197-3.484-.856-5.246-1.18a4.727 4.727 0 0 0-2.067 0c-.827.235-1.092.747-1.555 1.435-.22.31-.41.64-.57.984a5.614 5.614 0 0 0-.276 1.15c-.148.876-.473 6.64-1.95 6.562z" fill="#263238"/><path d="M81.376 206.59s-4.92-1.181-6.584-2.165a5.628 5.628 0 0 1-2.293-2.459 7.807 7.807 0 0 0 1.25 2.843c1.19 1.652 7.578 3.088 7.578 3.088z" fill="#f28f8f"/><path d="M81.642 193.576a.984.984 0 1 1-1.96-.178.984.984 0 0 1 1.96.178zm-1.673-4.702l-2.155 1.092a1.259 1.259 0 0 1 .55-1.662 1.172 1.172 0 0 1 1.605.57z" fill="#263238"/><path d="M80.806 200.038l2.46 1.033a1.309 1.309 0 0 1-1.732.767 1.396 1.396 0 0 1-.728-1.8z" fill="#f28f8f"/><path d="M90.44 190.242l-1.87-1.555a1.181 1.181 0 0 1 1.694-.196c.515.443.593 1.213.177 1.75zm-.786 3.216c0 .543-.441.984-.985.984a1.029 1.029 0 1 1 .079-2.056.984.984 0 0 1 .906 1.072z" fill="#263238"/><path d="M84.624 192.661l.099 5.951 3.641-1.082z" fill="#f28f8f"/><path d="M51.624 248.156c.246-6.816 3.543-19.593 4.458-25.24 1.053-6.461 2.608-10.484 9.537-11.517 2.185 1.564 4.557 9.177 1.122 17.872-1.18 4.8-3.14 18.689-3.14 18.689.453 1.101 7.116 15.108 10.05 18.511.555.61 1.314.999 2.135 1.092 2.264.315 4.262 1.544 6.19 2.301 1.507.58 2.53.473 2.53.856 0 .384-.492 1.456-1.968 1.613a14.161 14.161 0 0 1-3.13-.246 16.318 16.318 0 0 0 4.41 3.05c3.759 1.81 4.123 4.013-.985 6.078-3.228 1.299-6.584.522-11.81-4.918-1.487-1.564-3.485-3.934-5.138-6.069-3.878-5.134-6.978-8.508-9.566-11.93-4.823-6.384-4.784-7.555-4.695-10.142z" fill="#ffa8a7"/><path d="M129.947 261.396a16.364 16.364 0 0 1-4.016-3.551c1 .322 2.034.527 3.08.61.954.13 1.862-.449 2.146-1.368 0-.373-.984-.383-2.41-1.15-1.832-.984-3.662-2.43-5.906-2.951a3.415 3.415 0 0 1-1.969-1.348c-3.789-4.318-9.202-13.564-12.066-17.96l-.709-19.85s2.431-12.432-3.7-15.56c-4.852 1.082-6.516 3.078-7.293 7.701-.778 4.623.305 26.902.699 30.148a8.742 8.742 0 0 0 1.643 3.65s2.953 3.6 3.73 4.416c2.953 3.403 6.742 7.672 8.553 9.61 2.018 2.4 4.104 5.576 5.403 7.308 4.498 6.02 7.736 7.19 11.092 6.285 5.355-1.525 5.236-3.748 1.723-5.99z" fill="#b16668"/></g></g></svg>