<svg height="369" width="335" xmlns="http://www.w3.org/2000/svg"><g fill="none"><path d="M197.339 335.869h-8.37a2.958 2.958 0 0 1-2.954-2.84c-.2-8.176-1.02-16.324-2.454-24.375a2.967 2.967 0 0 1 1.207-2.956 2.946 2.946 0 0 1 3.181-.14l87.685 50.786c.913.532 1.475 1.511 1.475 2.57s-.562 2.038-1.475 2.57a2.967 2.967 0 0 0-1.404 3.298 2.956 2.956 0 0 0 2.791 2.24l54.657 1.667a2.955 2.955 0 0 0 2.242-.935c.58-.62.866-1.458.787-2.304l-2.83-31.645c-.095-1.009-.694-1.9-1.59-2.367s-1.969-.445-2.846.058l-4.916 2.84a2.955 2.955 0 0 1-2.963 0l-81.825-47.406a2.976 2.976 0 0 1-1.35-3.422 2.964 2.964 0 0 1 3.001-2.116c12.617.7 26.602 1.098 42.135 1.193a2.968 2.968 0 0 1 2.944 2.963v1.22c0 1.038.539 2 1.421 2.539.883.54 1.982.578 2.9.103l40.267-20.986c.98-.512 1.594-1.529 1.594-2.637s-.614-2.124-1.594-2.636l-40.266-20.948c-.917-.475-2.014-.437-2.897.1s-1.422 1.496-1.425 2.531V246c0 .791-.315 1.55-.875 2.108a2.958 2.958 0 0 1-2.107.864c-85.44-.947-113.343-17.503-135.887-30.907-1.982-1.173-3.926-2.328-5.87-3.455l-69.472-40.24a248.565 248.565 0 0 0-44.22 19.879 182.264 182.264 0 0 0-26.008 18.07l76.22 44.14a613.512 613.512 0 0 0 5.964 3.399c23.233 13.1 49.41 27.868 52.033 72.888.05.817-.24 1.62-.798 2.216a2.959 2.959 0 0 1-2.155.936h-8.05a2.964 2.964 0 0 0-2.834 2.138 2.977 2.977 0 0 0 1.24 3.334l37.038 23.835a2.946 2.946 0 0 0 3.19 0l37.048-23.835a2.977 2.977 0 0 0 1.287-3.353 2.964 2.964 0 0 0-2.872-2.147z" fill="#000" fill-opacity=".1"/><path d="M329.905 357.773v5.953l-48.076-1.467v-5.953l1.522-.88-106.795-61.758c3.137 11.006 4.725 24.283 4.725 40.172h10.67v5.962l-32.19 20.697-32.19-20.669v-5.962h10.605c-2.316-52.995-35.715-67.407-60.363-81.66A99545.204 99545.204 0 0 0 3.028 208.98v-5.972a186.47 186.47 0 0 1 22.248-15 245.172 245.172 0 0 1 39.013-17.98l72.649 42.008c25.517 14.773 51.403 35.015 151.554 35.015v-6.208l35.762 18.615v5.952l-35.762 18.605v-6.198c-27.483 0-50.458-.9-69.492-2.707l101.681 58.787 6.663-3.861z" fill="#a28f79"/><g fill="#000"><path d="M329.905 357.773v5.953l-48.076-1.467v-5.953l1.522-.88-106.795-61.758c3.137 11.006 4.725 24.283 4.725 40.172h10.67v5.962l-32.19 20.697-32.19-20.669v-5.962h10.605c-2.316-52.995-35.715-67.407-60.363-81.66L3.028 208.98v-5.972a186.47 186.47 0 0 1 22.248-15 245.172 245.172 0 0 1 39.013-17.98l.246.142 72.403 41.866c25.517 14.773 51.403 35.015 151.554 35.015v-6.208l35.762 18.615v5.952l-35.762 18.605v-6.198c-27.483 0-50.458-.9-69.492-2.707l101.681 58.787 6.663-3.861z" opacity=".15"/><path d="M138.308 333.85h-.132c-2.325-52.996-35.725-67.408-60.372-81.66l-74.776-43.2v-5.972l74.747 43.22c25.574 14.762 60.533 29.714 60.533 87.612zm150.212-62.024v5.943c-27.483 0-50.458-.899-69.492-2.706l-12.806-7.372c10.632 1.381 22.682 2.413 36.386 3.104 13.704.69 28.938 1.031 45.912 1.031z" opacity=".15"/></g><path d="M281.829 356.306l6.672-3.851-114.412-66.169c4.792 12.303 7.154 27.936 7.154 47.554h10.708l-32.19 20.678-32.19-20.678H138.3c0-57.888-34.969-72.868-60.486-87.612L3.095 203.037a186.47 186.47 0 0 1 22.247-15 245.172 245.172 0 0 1 39.013-17.98l.246.142 72.403 41.866c25.517 14.772 51.403 35.015 151.554 35.015v-6.208l35.762 18.614-35.762 18.605v-6.198c-17.012 0-32.218-.341-45.884-1.032-13.666-.69-25.754-1.713-36.376-3.104l114.45 66.168 6.662-3.86 2.533 27.784z" fill="#a28f79"/><g fill="#000"><path d="M288.52 352.455l-5.15 2.98-106.795-61.758a75.474 75.474 0 0 0-2.467-7.381zm-128.758 2.072v5.953l-32.19-20.678v-5.952z" opacity=".15"/></g><g transform="translate(197 35)"><path d="M41.513 2.593a1.704 1.704 0 0 0-.95-1.325 5.297 5.297 0 0 0-4.753 0c-.526.248-.885.75-.95 1.325v242.003c0 1.041 1.501 1.893 3.355 1.893s3.355-.852 3.355-1.893V2.593z" fill="#37474f"/><ellipse cx="38.158" cy="2.593" fill="#455a64" rx="3.356" ry="1.893"/><path d="M76.087 45.463L69.5 34.107 25.733 8.97l-3.308 1.903v15.132l43.766 25.135 3.375-1.855z" fill="#a28f79"/><path d="M22.425 10.874l43.766 25.135 6.579 11.356-6.579 3.776-43.766-25.135z" fill="#a28f79"/><g fill="#000"><path d="M22.425 10.874l43.766 25.135 6.598 11.385-6.598 3.747-43.766-25.135z" opacity=".3"/><path d="M69.5 34.107l-3.309 1.902-43.766-25.135 3.308-1.903z" opacity=".1"/><path d="M66.191 36.009l3.309-1.902 6.587 11.356-3.298 1.93z" opacity=".2"/></g><path d="M76.087 98.478L69.5 87.122 25.733 61.987l-3.308 1.902V79.02l43.766 25.135 3.375-1.854z" fill="#a28f79"/><path d="M22.425 63.889l43.766 25.135 6.579 11.347-6.579 3.785-43.766-25.135z" fill="#a28f79"/><g fill="#000"><path d="M22.425 63.889l43.766 25.135 6.598 11.385-6.598 3.747-43.766-25.135z" opacity=".3"/><path d="M69.5 87.122l-3.309 1.902L22.425 63.89l3.308-1.902z" opacity=".1"/><path d="M66.191 89.024l3.309-1.902 6.587 11.356-3.298 1.93z" opacity=".2"/></g><path d="M50.64 53.668L6.872 28.495.285 32.28l6.588 11.347L50.639 68.8z" fill="#a28f79"/><path d="M6.873 28.495l3.213-1.93 43.833 25.22-3.28 1.883z" fill="#a28f79"/><path d="M6.873 28.495l3.213-1.93 43.833 25.22-3.28 1.883z" fill="#fff" opacity=".4"/><path d="M53.919 66.917l-3.28 1.883V53.668l3.28-1.883z" fill="#a28f79"/><path d="M53.919 66.917l-3.28 1.883V53.668l3.28-1.883z" fill="#000" opacity=".1"/></g><ellipse cx="74.257" cy="210.394" fill="#000" opacity=".1" rx="37.26" ry="21.465"/><g><path d="M104.673 205.961a3.059 3.059 0 0 1-.245 2.471 10.64 10.64 0 0 1-8.073 2.48 19.623 19.623 0 0 1-8.762-3.055 11.41 11.41 0 0 0-6.739-1.66c-2.448 0-4.263-.471-4.47-1.103-.37-1.123-.398-1.83.141-1.82z" fill="#263238"/><path d="M78.312 195.502a7.784 7.784 0 0 0 8.44.595l.51-15.986H76.706z" fill="#ffa8a7"/><path d="M102.48 202.774a52.794 52.794 0 0 1-10.879-5.216 26.935 26.935 0 0 1-1.749-1.339c-1.068-1.075-1.72-3.404-2.183-3.668s-1.238.584-1.607.782a7.09 7.09 0 0 1-2.486.82c-2.58.33-2.684-.188-2.76.652-.023.313-.023.629 0 .943-1.37-.18-2.457-.576-2.542-1.094l-.227-1.641c-1.361-.076-1.361 2.357-1.702 5.102-.283 2.216-.756 3.838-.085 5.441 2.127 1.717 5.738 1.142 7.817 1.406 2.94.377 4.386 2.48 8.507 3.772 6.617 2.018 10.671-.745 11.853-1.933.785-1.519.34-3.17-1.957-4.027z" fill="#37474f"/><path d="M64.786 220.145c-.114 1-.265 3.773-5.36 4.49-5.094.716-8.299-1.02-9.65-3.471-1.352-2.452-1.03-4.442-1.238-6.705-.208-2.264-2.08-3.48-2.619-4.65-.784-1.716.388-4.385.388-4.385z" fill="#263238"/><path d="M47.507 201.491c.615 4.64 9.632 4.3 8.904.594l1.645-11.25-10.199.282z" fill="#ffa8a7"/><path d="M64.426 217.835a30.967 30.967 0 0 0-2.334-2.83 25.13 25.13 0 0 1-5.246-13.505c0-.273-.057-.801-.321-.943-.265-.141-.558.066-.842.189a5.303 5.303 0 0 1-1.588.406c-1.417.04-2.835-.02-4.244-.18-.35.048-.463 1.123-.444 2.301-.633-.414-.841-1.216-1.418-1.688-.312-.254-.453-.264-.444-.679.01-.415 0-.509 0-.782-.463-.142-.86 1.631-1.238 2.98-.454 1.565-1.002 3.329-.397 4.923.387.868.865 1.694 1.427 2.461a10.126 10.126 0 0 1 1.834 4.508c.066.707 0 1.434.113 2.14a6.285 6.285 0 0 0 4.424 5.188c3.1.943 7.77.84 10.51-1.32.974-.736.653-2.33.208-3.17zM52.48 97.157c-2.023 18.56-2.354 51.559-2.354 51.559s-3.062 8.638-3.053 15.09c0 13.523.35 32.064.35 32.064a16.576 16.576 0 0 0 10.086.396s5.16-30.179 7.457-41.1c2.013-9.496 5.246-31.169 5.246-31.169l4.452 26.548a69.044 69.044 0 0 0-1.267 14.93c.208 5.111 4.008 24.746 4.008 24.746 1.664 1.566 7.722.255 9.859-1.103 0 0 1.493-33.093 1.947-38.46.595-7.073 1.682-57.754 1.682-57.754z" fill="#37474f"/><path d="M70.211 123.979l2.486-11.412c3.43-.844 6.66-2.35 9.509-4.432 0 0-1.456 3.64-7.562 6.432l-2.533 10.685 2.174 23.464z" fill="#263238"/><path d="M161.395 46.494c-.539-1.622-3.507-.226-6.616 1.273-2.836 1.377-8.375 4.018-8.772 3.452-.397-.566-.075-2.942-.765-4.489s-2.524-2.028-2.515-.65c0 .792-.482 3.423-.642 4.63-.161 1.207-.464 2.83-1.655 3.546-1.19.717-24.405 4.291-24.405 4.291s-18.053-10.685-21.74-13.118c-3.686-2.434-6.616-4.782-12.098-4.508-7.184 2.574-4.726 9.176-1.673 13.401 1.692 2.32 2.316 2.263 8.582 4.904 7.562 3.197 19.51 10.025 25.946 10.987 7.231-.736 26.286-6.055 28.158-6.356 2.23-.368 3.648.066 5.454-.236 2.164-.377 4.017-.594 5.973-1.754a2.236 2.236 0 0 0 1.21-1.443c.057-.32 0-.651 0-.943.174-.519.313-1.048.416-1.585 0-.707-.784-1.377-.747-2.084 0-.311.473-1.141.388-1.443a5.731 5.731 0 0 0-.747-1.264c-.142-.264-.567-.716-.283-1 .283-.282 1.314-.735 3.393-2.168 2.08-1.434 3.507-2.368 3.138-3.443z" fill="#ffa8a7"/><path d="M81.894 40.459c3.214 0 5.208-.51 14.121 5.102s20.095 12.703 20.095 12.703l11.72-1.622s-1.53 4.348 1.532 10.638c0 0-10.898 2.942-13.45 3.395-2.552.453-2.25.274-6.21-1.226S85.608 58.566 85.608 58.566z" fill="#e0e0e0"/><path d="M151.537 52.945c-1.72 1.122-3.904 1.886-4.018 3.065a1.628 1.628 0 0 0 1.815 1.67 1.61 1.61 0 0 0-.51 1.518c.137.54.57.956 1.115 1.075a1.534 1.534 0 0 0 .7 2.131c-.653 0-1.89-.368-1.494-1.584 0 0-1.578-.943-.945-2.31 0 0-.652 1.593-3.242 1.98a5.721 5.721 0 0 0 2.675-2.679 2.317 2.317 0 0 1-.728-2.282c.407-1.33 4.632-2.584 4.632-2.584z" fill="#f28f8f"/><path d="M68.548 40.836c-5.2.783-11.144 1.197-14.783 1.697-3.98.538-5.407 3.773-5.407 10.582 0 9.997 5.132 26.67 5.132 26.67l-1.011 17.41c4.66 4.98 26.608 6.78 38.517-.51 0 0 .312-33.904 0-39.61-.567-10.053-6.399-16.494-10.114-16.777 0-.056-3.402-.858-12.334.538z" fill="#f0f0f0"/><g fill="#263238"><path d="M63.519 9.714s-2.836.396-3.894 2.537c-.945 1.886-.586 6.356.633 11.26a44.774 44.774 0 0 0 3.063 9.214 3.723 3.723 0 0 0 2.174 1.735l-.142-5.818-.218-4.046s2.61-3.556 2.902-6.47c.369-3.772-.425-5.281-.425-5.281z"/><path d="M62.848 10.43L58.83 8.602a2.346 2.346 0 0 1 3.006-1.245 2.265 2.265 0 0 1 1.01 3.075zm5.265 4.942a10.864 10.864 0 0 0 6.75 10.021 10.907 10.907 0 0 0 11.861-2.39 10.847 10.847 0 0 0 2.324-11.85A10.89 10.89 0 0 0 78.964 4.48c-6.01.02-10.867 4.896-10.851 10.892z"/></g><path d="M65.296 23.954c-.945.85-1.777-1.348-2.609-2.206s-3.506-2.019-4.84.801 1.239 6.772 3.243 7.705c2.94 1.358 4.263-1.603 4.263-1.603l.312 12.26c3.1 5.564 9.197 5.451 10.16 7.998.577-2.264 3.781-5.084 1.683-7.545v-3.98a23.56 23.56 0 0 0 4.906.236c2.675-.425 4.074-2.443 4.877-5.329 1.285-4.649 1.805-12.458 0-21.483-2.996-2.31-13.394-1.886-19.68 2.046.464 8.007-1.341 10.252-2.315 11.1z" fill="#ffa8a7"/><path d="M88.784 4.414a.491.491 0 0 0-.397-.293.587.587 0 0 0-.359.151c-.748.6-1.544 1.136-2.382 1.603a8.704 8.704 0 0 0 0-3.244c-.123-.66-.302-2.178-1.124-2.339-.483-.103-.946.302-1.267.642-3.27 3.055-7.562 1.64-11.484 1.763-3.3.113-7.278 1.443-8.762 4.65-.68 1.461-.804 2.999.548 4.008a9.238 9.238 0 0 0 4.017 1.5c6.616 1.14 15.974 3.838 20.794-2.274a4.83 4.83 0 0 0 1.012-3.206 6.636 6.636 0 0 0-.652-2.924.047.047 0 0 1 .056-.037z" fill="#263238"/><path d="M77.49 37.384s-5.984-1.188-8.073-2.282a6.968 6.968 0 0 1-2.902-2.83 9.319 9.319 0 0 0 1.654 3.358c1.532 1.943 9.32 3.357 9.32 3.357z" fill="#f28f8f"/><path d="M76.08 22.144a1.206 1.206 0 0 1-1.19 1.245 1.243 1.243 0 1 1-.96-2.103 1.25 1.25 0 0 1 2.15.858zm-.453-4.452l-2.675 1.189a1.526 1.526 0 0 1 .766-1.971 1.43 1.43 0 0 1 1.91.782z" fill="#263238"/><path d="M76.525 30.113l3.78 1.424a2.008 2.008 0 0 1-2.59 1.264 2.13 2.13 0 0 1-1.19-2.688z" fill="#b16668"/><path d="M77.754 32.8c.338.126.705.156 1.058.086a1.889 1.889 0 0 0-1.89-1.773 1.582 1.582 0 0 0-.52.084 2.076 2.076 0 0 0 1.352 1.604z" fill="#f28f8f"/><path d="M87.007 18.456l-2.77-1.018a1.406 1.406 0 0 1 1.891-.943 1.546 1.546 0 0 1 .88 1.961zm-1.04 3.292a1.2 1.2 0 0 1-1.23 1.15 1.199 1.199 0 0 1 .03-2.395 1.22 1.22 0 0 1 1.2 1.245z" fill="#263238"/><path d="M80.041 21.455l.397 6.819 3.781-1.292-3.78-5.602a.947.947 0 0 0-.398.075z" fill="#f28f8f"/><path d="M65.617 37.46c-.765.056-1.096.17-1.72 1.405-.7 1.405-1.304 2.688-1.304 2.688a8.48 8.48 0 0 0 2.561 5.432 23.019 23.019 0 0 0 5.029 3.885 18.875 18.875 0 0 1 2.202-2.49 2.168 2.168 0 0 1 3.034-.103 8.759 8.759 0 0 0-1.36-2.122c-.464-.49-2.345-1.056-4.916-2.67a9.349 9.349 0 0 1-3.526-4.535zM76.081 48.2a5.491 5.491 0 0 1 1.096-2.829c.662-1.283.303-2.292.312-3.376.01-1.085 0-3.509 0-3.509a2.135 2.135 0 0 1 2.06 1.623c.549 1.348 1.693 3.017 1.693 6.064 0 2.735-.256 3.244-.256 3.244a16.859 16.859 0 0 0-2.608-1.98 1.544 1.544 0 0 0-2.297.763z" fill="#e0e0e0"/><path d="M53.765 42.496c-5.303 0-8.923 3.536-12.477 9.43-2.76 4.556-13.063 21.974-15.123 26.888-1.89 4.47-2.004 6.319 1.304 9.43 2.637 2.528 18.47 16.033 21.305 18.646a11.647 11.647 0 0 0 7.675 3.433c4.32.264 6.38-1.32 7.117-2.273 4.414-5.715-4.007-6.772-7.05-8.554a17.696 17.696 0 0 1-4-3.225l.143-2.33s-3.327.085-4.367-.717c-1.04-.801-9.518-11.241-9.518-11.241l13.989-20.06c2.854-3.31 4.716-14.769 1.002-19.427z" fill="#ffa8a7"/><path d="M54.653 42.496c-4.235-.642-8.261.386-12.505 7.082-4.244 6.696-15 25.784-16.23 28.774-1.228 2.99-3.005 6.13.511 9.374a303.698 303.698 0 0 0 7.051 6.281c.889-2.622 4.812-7.167 8.044-8.63l-2.042-3.14S51.77 64.007 54.02 60.81c2.25-3.197 4.036-10.543.633-18.314z" fill="#e0e0e0"/></g></g></svg>