<svg height="449" viewBox="0 0 468 449" width="468" xmlns="http://www.w3.org/2000/svg"><g fill="none"><ellipse cx="234" cy="313.81" fill="#000" fill-opacity=".1" rx="233.36" ry="134.73"/><g fill="#000" fill-opacity=".1" transform="translate(39 199)"><path d="m95.35 212.790963c-2.0141106.024819-4.001031-.467607-5.77-1.430963l-86.08-49.71c-2.09844146-.991423-3.4369208-3.104143-3.4369208-5.425s1.33847934-4.433577 3.4369208-5.425l151.57-87.51c3.610577-1.905947 7.929423-1.905947 11.54 0l86.08 49.71c2.104212.989123 3.447531 3.104904 3.447531 5.43s-1.343319 4.440877-3.447531 5.43l-151.57 87.5c-1.768969.963356-3.7558894 1.455782-5.77 1.430963z"/><path d="m276.8 197.7-20.67-12c-.535566-.181727-.895854-.684442-.895854-1.25s.360288-1.068273.895854-1.25l105.4-60.79c1.360966-.689591 2.969034-.689591 4.33 0l20.62 11.93c.535566.181727.895854.684442.895854 1.25s-.360288 1.068273-.895854 1.25l-105.35 60.86c-1.360966.689591-2.969034.689591-4.33 0z"/><path d="m290.27 79.94-65.74-38c-1.3-.75-1.3-2 0-2.71l65.74-38c1.479182-.74042955 3.220818-.74042955 4.7 0l65.74 38c1.29.75 1.29 2 0 2.71l-65.74 38c-1.476901.7500225-3.223099.7500225-4.7 0z"/></g><g transform="translate(34 93)"><g transform="translate(0 29)"><path d="m6.36 226.87c.20781454 2.70043 1.69452296 5.138632 4 6.56l86.07 49.71c2.4861857 1.259791 5.423814 1.259791 7.91 0l151.57-87.51c2.430693-1.28822 3.950679-3.81404 3.950679-6.565s-1.519986-5.27678-3.950679-6.565l-86.11-49.71c-2.486186-1.259791-5.423814-1.259791-7.91 0l-151.57 87.51c-2.2929106 1.432479-3.76421217 3.873502-3.96 6.57z" fill="#37474f"/><path d="m100.35 275.53v8.55c-1.3755949.03157-2.7360801-.292191-3.95-.94l-86.08-49.71c-2.35941891-1.239382-3.87012153-3.651757-3.95498166-6.315537-.08486012-2.66378 1.26923291-5.167418 3.54498166-6.554463-1.77 1.27-1.63 3.13.41 4.31l86.08 49.71c1.2129856.651282 2.5735227.9785 3.95.95z" fill="#263238"/><path d="m2.66 220.44c-2-1.18-1.94019224-3.18-1.94019224-5.7v-118.89c.1625155-2.7912731 1.64900907-5.3368933 4.00019224-6.85l151.57-87.51c2.385524-1.26315339 5.229912-1.31513959 7.66-.14 2 1.19 1.940192 3.18 1.940192 5.7v118.95c-.162435 2.788639-1.649341 5.331249-4.000192 6.84l-151.57 87.46c-2.38427399 1.267987-5.23098445 1.320016-7.66.14z" fill="#455a64"/><path d="m9.85 220.54c-2.29257673 1.036147-4.92712635.999505-7.19-.1-2-1.18-1.94-3.18-1.94-5.7v-118.89c.05258679-1.3611622.45186525-2.6863536 1.16-3.85l5.64 3.26c-.70816248 1.1782551-1.10717497 2.5163229-1.16 3.89v118.85c0 2.36 1.53 3.41 3.49 2.54z" fill="#263238"/><path d="m6.36 99.13v118.87c0 2.52 1.77 3.54 4 2.28l151.57-87.51c2.350851-1.508751 3.837757-4.051361 4-6.84v-118.88c0-2.52-1.77-3.54-4-2.28l-151.61 87.51c-2.33835316 1.5197467-3.80989739 4.0652209-3.96 6.85z" fill="#37474f"/><path d="m10.32 224.87 86.07 49.7c2.4861857 1.259791 5.423814 1.259791 7.91 0l151.57-87.51c2.18-1.26 2.18-3.3 0-4.56l-86.07-49.71c-2.486186-1.259791-5.423814-1.259791-7.91 0l-151.57 87.51c-2.19 1.26-2.19 3.31 0 4.57z" fill="#455a64"/><path d="m12.44 96.84 146.14-84.35c1.31-.75 2.37-.14 2.37 1.37v109.46c-.089026 1.669658-.969516 3.196585-2.37 4.11l-146.14 84.35c-1.31.75-2.37.14-2.37-1.37v-109.41c.074929-1.6871428.9568935-3.2352324 2.37-4.16z" fill="#00b0ff"/><path d="m12.44 96.84 146.14-84.35c1.31-.75 2.37-.14 2.37 1.37v109.46c-.089026 1.669658-.969516 3.196585-2.37 4.11l-146.14 84.35c-1.31.75-2.37.14-2.37-1.37v-109.41c.074929-1.6871428.9568935-3.2352324 2.37-4.16z" fill="#fff" opacity=".6"/><path d="m21.26 220.54 140.74-81.23c1.254673-.647703 2.745327-.647703 4 0l2.34 1.29c.492449.16186.8253.621632.8253 1.14s-.332851.97814-.8253 1.14l-140.81 81.21c-1.2546734.647703-2.7453266.647703-4 0l-2.32-1.27c-.4892139-.172368-.8123086-.639546-.8012273-1.158113.0116629-.518566.3549273-.971131.8512273-1.121887z" fill="#263238"/><path d="m32.29 227.1 140.71-81.23c1.102827-.637729 2.443476-.712003 3.61-.2l36.62 21.15c.91.52.75 1.45-.34 2.08l-140.54 81.1c-1.1077873.633199-2.4492012.70731-3.62.2l-36.73-21.02c-.95-.52-.8-1.45.29-2.08z" fill="#263238"/><path d="m154.2 180 4.41-2.55c.18-.1.2-.27 0-.37l-4.21-2.43c-.202934-.094203-.437066-.094203-.64 0l-4.4 2.55c-.19.1-.21.27 0 .37l4.21 2.43c.200112.091138.429888.091138.63 0zm-6.43-8.8-4.41 2.54c-.18.11-.2.27 0 .37l4.21 2.43c.200433.10492.439567.10492.64 0l4.41-2.54c.18-.11.2-.28 0-.37l-4.21-2.43c-.19879-.108066-.437931-.111803-.64-.01zm-14.23 8.21-7.46 4.31c-.18.11-.2.27 0 .37l4.21 2.43c.200433.10492.439567.10492.64 0l7.45-4.31c.19-.1.21-.27 0-.37l-4.21-2.43c-.198662-.094327-.428444-.097974-.63-.01zm7.79-4.5-4.4 2.55c-.19.11-.21.27 0 .37l4.21 2.43c.200433.10492.439567.10492.64 0l4.41-2.55c.19-.1.2-.27 0-.36l-4.19-2.47c-.21437-.0975-.461828-.090113-.67.02zm-17.28 10-4.4 2.54c-.19.11-.21.28 0 .37l4.21 2.44c.202934.094203.437066.094203.64 0l4.41-2.55c.18-.11.2-.27 0-.37l-4.21-2.43c-.198053-.117948-.441924-.129203-.65-.03zm-6.44 3.72-4.4 2.54c-.19.11-.21.28 0 .37l4.21 2.43c.200433.10492.439567.10492.64 0l4.41-2.54c.19-.11.2-.27 0-.37l-4.22-2.43c-.195477-.114444-.434675-.125656-.64-.03zm16.52 9.93 4.41-2.55c.18-.1.2-.27 0-.37l-4.21-2.43c-.200433-.10492-.439567-.10492-.64 0l-4.4 2.55c-.19.1-.21.27 0 .37l4.21 2.43c.204432.081723.434258.070779.63-.03zm-6.44 3.71 4.41-2.54c.19-.11.2-.27 0-.37l-4.22-2.43c-.200433-.10492-.439567-.10492-.64 0l-4.4 2.54c-.19.11-.21.28 0 .37l4.21 2.44c.207823.087646.444708.072841.64-.04zm-6.43 3.73 4.4-2.54c.19-.11.2-.28 0-.37l-4.22-2.44c-.201964-.0985-.438036-.0985-.64 0l-4.4 2.54c-.19.11-.21.27 0 .37l4.22 2.43c.19879.108066.437931.111803.64.01zm-6.44 3.72 4.4-2.55c.19-.1.21-.27 0-.37l-4.21-2.43c-.202934-.094203-.437066-.094203-.64 0l-4.37 2.53c-.19.1-.2.27 0 .37l4.22 2.43c.192572.085246.413532.077881.6-.02zm32.94-26 4.41-2.54c.19-.11.2-.27 0-.37l-4.17-2.45c-.200433-.10492-.439567-.10492-.64 0l-4.4 2.54c-.19.11-.21.28 0 .37l4.21 2.44c.189064.081111.403794.077472.59-.01zm-7.19 11.11 9.83-5.67c.18-.11.2-.28 0-.37l-10.23-5.91c-.200433-.10492-.439567-.10492-.64 0l-5.08 2.93c-.19.11-.21.28 0 .37l5.42 3.13c.16.1.15.26 0 .37l-4.12 2.32c-.18.11-.2.27 0 .37l4.21 2.43c.190736.097926.416156.101621.61.01zm-29.39-2.49-4.41 2.54c-.19.11-.2.27 0 .37l4.22 2.43c.200433.10492.439567.10492.64 0l4.4-2.54c.19-.11.21-.28 0-.37l-4.22-2.44c-.196545-.102999-.430285-.106709-.63-.01zm-6.44 3.66-4.41 2.55c-.19.1-.2.27 0 .37l4.22 2.43c.202934.094203.437066.094203.64 0l4.4-2.55c.19-.1.21-.27 0-.37l-4.21-2.43c-.200433-.10492-.439567-.10492-.64 0zm-35.63 39.69c.2029338.094203.4370662.094203.64 0l4.41-2.55c.18-.1.2-.27 0-.37l-4.16-2.42c-.2004331-.10492-.4395669-.10492-.64 0l-4.41 2.55c-.18.1-.2.27 0 .37zm-15.88-10-4.4 2.54c-.19.11-.21.28 0 .37l4.21 2.43c.2004331.10492.4395669.10492.64 0l4.41-2.54c.19-.11.2-.27 0-.37l-4.22-2.43c-.2134355-.080817-.4530252-.050869-.64.08zm8.17 7.45c.2004331.10492.4395669.10492.64 0l4.4-2.54c.19-.11.2-.28 0-.37l-4.22-2.44c-.2019635-.0985-.4380365-.0985-.64 0l-4.4 2.54c-.19.11-.2.27 0 .37zm17.76 4 4.4-2.55c.19-.11.21-.27 0-.37l-4.21-2.43c-.2004331-.10492-.4395669-.10492-.64 0l-4.41 2.55c-.18.1-.2.27 0 .37l4.21 2.43c.1934743.12344.4323679.152842.65.08zm-7.08 3.86c.2004331.10492.4395669.10492.64 0l4.41-2.54c.18-.11.2-.27 0-.37l-4.13-2.5c-.2004331-.10492-.4395669-.10492-.64 0l-4.41 2.54c-.18.11-.2.28 0 .37zm-12.41-18.9-4.4 2.54c-.19.11-.21.28 0 .37l4.21 2.44c.2029338.094203.4370662.094203.64 0l4.41-2.55c.18-.11.2-.27 0-.37l-4.22-2.53c-.2085692-.089629-.4478809-.070933-.64.05zm32.19-18.58-4.4 2.54c-.19.11-.21.27 0 .37l4.21 2.43c.2004331.10492.4395669.10492.64 0l4.41-2.54c.18-.11.2-.28 0-.37l-4.21-2.44c-.1979116-.116156-.4393395-.131014-.65-.04zm-25.75 14.86-4.41 2.55c-.18.11-.2.27 0 .37l4.21 2.43c.2004331.10492.4395669.10492.64 0l4.4-2.54c.19-.11.21-.28 0-.37l-4.21-2.44c-.1927851-.107329-.4226985-.125576-.63-.05zm32.19-18.58-4.41 2.54c-.18.11-.2.28 0 .37l4.21 2.44c.2016085.100026.4383915.100026.64 0l4.4-2.54c.19-.11.21-.27 0-.37l-4.21-2.43c-.1879064-.120802-.4226687-.14316-.63-.06zm-12.88 7.43-4.4 2.55c-.19.1-.21.27 0 .37l4.21 2.43c.2004331.10492.4395669.10492.64 0l4.41-2.55c.19-.1.2-.27 0-.37l-4.22-2.43c-.1954794-.110369-.4297518-.128671-.64-.05zm-6.42 3.67-4.4 2.54c-.19.11-.2.28 0 .37l4.22 2.44c.2019635.0985.4380365.0985.64 0l4.4-2.54c.19-.11.21-.27 0-.37l-4.22-2.43c-.19879-.108066-.4379308-.111803-.64-.01zm-6.43 3.72-4.41 2.54c-.19.11-.2.27 0 .37l4.22 2.43c.2004331.10492.4395669.10492.64 0l4.4-2.54c.19-.11.21-.28 0-.37l-4.21-2.43c-.2057354-.11204-.4542646-.11204-.66 0zm29.39 2.49 4.41-2.54c.18-.11.2-.28 0-.37l-4.21-2.43c-.200433-.10492-.439567-.10492-.64 0l-4.41 2.54c-.18.11-.2.27 0 .37l4.21 2.43c.19503.098078.42497.098078.62 0zm60.04-54.11-4.4 2.54c-.19.11-.21.28 0 .37l4.21 2.44c.201609.100026.438391.100026.64 0l4.41-2.54c.19-.11.2-.27 0-.37l-4.22-2.44c-.200433-.10492-.439567-.10492-.64 0zm-7.79 4.5-4.41 2.5c-.18.11-.2.28 0 .37l4.21 2.44c.201609.100026.438391.100026.64 0l4.4-2.54c.19-.11.21-.27 0-.37l-4.21-2.43c-.197744-.101465-.432256-.101465-.63 0zm14.23-8.22-4.44 2.52c-.18.1-.2.27 0 .37l4.21 2.43c.200433.10492.439567.10492.64 0l4.41-2.55c.18-.1.2-.27 0-.37l-4.21-2.43c-.194412-.085181-.415588-.085181-.61 0zm-35.59 33.06 4.41-2.54c.19-.11.2-.27 0-.37l-4.18-2.43c-.200433-.10492-.439567-.10492-.64 0l-4.4 2.54c-.19.11-.21.27 0 .37l4.21 2.43c.194086.082159.415078.07111.6-.03zm42.67-36.8c-.201609-.100026-.438391-.100026-.64 0l-4.41 2.54c-.18.11-.2.27 0 .37l4.21 2.43c.200433.10492.439567.10492.64 0l4.4-2.54c.19-.11.21-.28 0-.37zm-67.14 57.88 4.4-2.54c.19-.11.21-.27 0-.37l-4.21-2.43c-.200433-.10492-.439567-.10492-.64 0l-4.41 2.54c-.18.11-.2.28 0 .37l4.22 2.44c.207823.087646.444708.072841.64-.04zm79-45.58 4.4-2.54c.19-.11.21-.27 0-.37l-4.21-2.43c-.200433-.10492-.439567-.10492-.64 0l-4.42 2.5c-.18.11-.2.28 0 .37l4.21 2.43c.190736.097926.416156.101621.61.01zm-12.46.24 4.41-2.54c.18-.11.2-.27 0-.37l-4.21-2.43c-.200433-.10492-.439567-.10492-.64 0l-4.4 2.54c-.19.11-.21.28 0 .37l4.21 2.44c.190361.068785.400884.054266.58-.04zm6.67-9.06c-.200433-.10492-.439567-.10492-.64 0l-4.41 2.55c-.18.1-.2.27 0 .36l4.21 2.44c.202934.094203.437066.094203.64 0l4.4-2.55c.19-.11.21-.27 0-.37zm1.35-.78 10.24 5.91c.202934.094203.437066.094203.64 0l4.4-2.55c.19-.11.21-.27 0-.37l-10.22-5.96c-.201609-.100026-.438391-.100026-.64 0l-4.41 2.54c-.21.19-.22.3-.06.4zm-14.94 8.21-4.4 2.54c-.19.11-.21.27 0 .37l4.21 2.43c.200433.10492.439567.10492.64 0l4.41-2.54c.19-.11.2-.28 0-.37l-4.22-2.44c-.2035-.095358-.439579-.091669-.64.01zm-48.45 28-4.39 2.55c-.18.1-.2.27 0 .36l4.22 2.44c.202934.094203.437066.094203.64 0l4.4-2.55c.19-.11.21-.27 0-.37l-4.21-2.43c-.195477-.114444-.434675-.125656-.64-.03zm60.68-22.87c.200433.10492.439567.10492.64 0l4.43-2.58c.18-.11.2-.28 0-.37l-4.21-2.44c-.201609-.100026-.438391-.100026-.64 0l-4.4 2.54c-.19.11-.21.27 0 .37zm-54.23 19.12-4.41 2.55c-.19.11-.2.27 0 .37l4.22 2.43c.200433.10492.439567.10492.64 0l4.4-2.54c.19-.11.21-.28 0-.37l-4.21-2.44c-.202934-.094203-.437066-.094203-.64 0zm-50.45 41.3c.2004331.10492.4395669.10492.64 0l4.4-2.54c.19-.11.21-.28 0-.37l-4.21-2.44c-.2016085-.100026-.4383915-.100026-.64 0l-4.41 2.54c-.18.11-.2.27 0 .37zm-7.49-7.84-4.4 2.54c-.19.11-.21.27 0 .37l4.21 2.43c.2004331.10492.4395669.10492.64 0l4.41-2.54c.19-.11.2-.27 0-.37l-4.22-2.43c-.2004331-.10492-.4395669-.10492-.64 0zm14.57 4.1 4.4-2.54c.19-.11.21-.27 0-.37l-4.22-2.43c-.1969027-.104889-.4330973-.104889-.63 0l-4.41 2.54c-.19.11-.2.28 0 .37l4.22 2.43c.2004331.10492.4395669.10492.64 0zm6.43-3.71 4.41-2.55c.19-.11.2-.27 0-.37l-4.22-2.43c-.2004331-.10492-.4395669-.10492-.64 0l-4.4 2.54c-.19.11-.21.28 0 .37l4.22 2.44c.1991925.09528.4308075.09528.63 0zm6.44-3.72 4.41-2.54c.18-.11.2-.28 0-.37l-4.22-2.44c-.2029338-.094203-.4370662-.094203-.64 0l-4.4 2.55c-.19.11-.21.27 0 .37l4.21 2.43c.2004331.10492.4395669.10492.64 0zm-21-.39-4.4 2.56c-.19.11-.21.28 0 .37l4.21 2.44c.2016085.100026.4383915.100026.64 0l4.41-2.54c.18-.11.2-.27 0-.37l-4.21-2.43c-.1980532-.117948-.4419244-.129203-.65-.03zm6.44-3.72-4.41 2.55c-.18.11-.2.27 0 .37l4.21 2.43c.2004331.10492.4395669.10492.64 0l4.41-2.55c.18-.1.2-.27 0-.36l-4.21-2.44c-.2029338-.094203-.4370662-.094203-.64 0zm25.75-14.86-4.4 2.54c-.19.11-.21.27 0 .37l4.21 2.43c.200433.10492.439567.10492.64 0l4.41-2.54c.18-.11.2-.28 0-.37l-4.22-2.44c-.203168-.096889-.439958-.09319-.64.01zm-6.44 3.71-4.4 2.55c-.19.1-.21.27 0 .37l4.21 2.43c.202934.094203.437066.094203.64 0l4.41-2.55c.19-.1.2-.27 0-.37l-4.22-2.43c-.200433-.10492-.439567-.10492-.64 0zm12.88-7.43-4.41 2.54c-.18.11-.2.28 0 .37l4.21 2.43c.200433.10492.439567.10492.64 0l4.41-2.54c.18-.11.2-.27 0-.37l-4.21-2.43c-.200433-.10492-.439567-.10492-.64 0zm-25.75 14.86-4.38 2.55c-.19.11-.2.27 0 .37l4.22 2.43c.2004331.10492.4395669.10492.64 0l4.4-2.54c.19-.11.21-.28 0-.37l-4.26-2.44c-.1950304-.098078-.4249696-.098078-.62 0zm6.43-3.72-4.4 2.54c-.19.11-.2.28 0 .37l4.22 2.44c.2019635.0985.4380365.0985.64 0l4.4-2.54c.19-.11.21-.27 0-.37l-4.22-2.43c-.2004331-.10492-.4395669-.10492-.64 0zm-8.21 24.22 4.4-2.5c.19-.11.21-.28 0-.37l-4.21-2.44c-.2016085-.100026-.4383915-.100026-.64 0l-4.41 2.54c-.19.11-.2.27 0 .37l4.22 2.43c.2053253.095656.4445231.084444.64-.03zm-33.95-1.6-4.22-2.44c-.2019635-.0985-.4380365-.0985-.64 0l-4.4 2.54c-.19.11-.2.27 0 .37l4.22 2.43c.2004331.10492.4395669.10492.64 0l4.4-2.54c.15-.1.16-.26 0-.36zm8.35 2.1-4.21-2.43c-.2004331-.10492-.4395669-.10492-.64 0l-6.78 3.91c-.19.11-.2.28 0 .37l4.22 2.44c.2029338.094203.4370662.094203.64 0l6.77-3.92c.19-.11.21-.27 0-.37zm-14.68-6.91-4.22-2.43c-.2004331-.10492-.4395669-.10492-.64 0l-5.42 3.13c-.18.11-.2.27 0 .37l4.22 2.43c.2004331.10492.4395669.10492.64 0l5.42-3.13c.19-.11.2-.27.04-.37zm4.15-2.4c.2004331.10492.4395669.10492.64 0l4.41-2.54c.19-.11.2-.28 0-.37l-4.22-2.44c-.2019635-.0985-.4380365-.0985-.64 0l-4.4 2.54c-.19.11-.21.27 0 .37zm18.25 11.81-4.22-2.43c-.2004331-.10492-.4395669-.10492-.64 0l-8.43 4.93c-.19.11-.2.27 0 .37l4.22 2.43c.2004331.10492.4395669.10492.64 0l8.47-4.89c.14-.15.16-.31 0-.41zm3 5.24-4.22-2.44c-.2019635-.0985-.4380365-.0985-.64 0l-5.42 3.13c-.19.1-.2.27 0 .37l4.22 2.43c.2029338.094203.4370662.094203.64 0l5.42-3.13c.16-.1.17-.27.01-.36zm26.65-44.68c.2016085.100026.4383915.100026.64 0l4.41-2.54c.18-.11.2-.27 0-.37l-4.21-2.43c-.2004331-.10492-.4395669-.10492-.64 0l-4.4 2.54c-.19.11-.21.28 0 .37zm-12.87 7.43c.2004331.10492.4395669.10492.64 0l4.4-2.55c.19-.1.21-.27 0-.36l-4.22-2.44c-.2029338-.094203-.4370662-.094203-.64 0l-4.4 2.55c-.19.11-.2.27 0 .37zm-28.5 16.51c.2004331.10492.4395669.10492.64 0l4.41-2.54c.18-.11.2-.27 0-.37l-4.22-2.43c-.2004331-.10492-.4395669-.10492-.64 0l-4.4 2.54c-.19.11-.21.28 0 .37zm35-20.2c.2004331.10492.4395669.10492.64 0l4.41-2.54c.19-.11.2-.28 0-.37l-4.22-2.44c-.2019635-.0985-.4380365-.0985-.64 0l-4.4 2.54c-.19.11-.21.27 0 .37zm-12.87 7.44c.2019635.0985.4380365.0985.64 0l4.4-2.54c.19-.11.21-.27 0-.37l-4.21-2.43c-.2004331-.10492-.4395669-.10492-.64 0l-4.41 2.54c-.19.11-.2.28 0 .37zm-4.24 33.76c-.2004331-.10492-.4395669-.10492-.64 0l-6.78 3.91c-.19.11-.2.28 0 .37l4.22 2.43c.2004331.10492.4395669.10492.64 0l6.77-3.91c.19-.11.21-.27 0-.37zm-5.06-28.46c.2004331.10492.4395669.10492.64 0l4.4-2.54c.19-.11.21-.28 0-.37l-4.21-2.44c-.2029338-.094203-.4370662-.094203-.64 0l-4.41 2.55c-.18.11-.2.27 0 .37zm-6.44 3.72c.2029338.094203.4370662.094203.64 0l4.41-2.55c.18-.11.2-.27 0-.37l-4.21-2.43c-.2004331-.10492-.4395669-.10492-.64 0l-4.41 2.55c-.18.1-.2.27 0 .36zm130.77-44.12c-.200433-.10492-.439567-.10492-.64 0l-10.84 6.26c-.19.11-.21.27 0 .37l4.21 2.43c.200433.10492.439567.10492.64 0l10.85-6.26c.18-.11.2-.28 0-.37zm-14.23 8.21c-.202934-.094203-.437066-.094203-.64 0l-4.41 2.55c-.18.1-.2.27 0 .37l4.21 2.43c.200433.10492.439567.10492.64 0l4.41-2.55c.18-.1.2-.27 0-.37zm-86.93 48.43 4.4-2.54c.19-.11.2-.27 0-.37l-4.22-2.43c-.2004331-.10492-.4395669-.10492-.64 0l-4.4 2.54c-.19.11-.2.27 0 .37l4.22 2.43c.2004331.10492.4395669.10492.64 0zm74-41c-.200433-.10492-.439567-.10492-.64 0l-4.4 2.54c-.19.11-.21.27 0 .37l4.21 2.43c.200433.10492.439567.10492.64 0l4.41-2.54c.19-.11.2-.28 0-.37zm33.55-19.37c-.200433-.10492-.439567-.10492-.64 0l-4.36 2.59c-.18.11-.2.28 0 .37l4.21 2.44c.201609.100026.438391.100026.64 0l4.41-2.54c.18-.11.2-.27 0-.37zm10.65-1.29-10.2-5.89c-.200433-.10492-.439567-.10492-.64 0l-4.36 2.56c-.19.11-.2.27 0 .37l10.24 5.91c.202934.094203.437066.094203.64 0l4.4-2.55c.12-.12.14-.29-.03-.39zm-68.2 34.56c-.200433-.10492-.439567-.10492-.64 0l-5.43 3.13c-.18.11-.2.27 0 .37l4.21 2.43c.200433.10492.439567.10492.64 0l5.42-3.13c.19-.11.21-.28 0-.37zm16.26-9.39c-.200433-.10492-.439567-.10492-.64 0l-6.78 3.91c-.18.11-.2.27 0 .37l4.16 2.43c.200433.10492.439567.10492.64 0l6.78-3.91c.18-.11.2-.28 0-.37zm-31.17 18c-.201609-.100026-.438391-.100026-.64 0l-36.26 20.93c-.19.11-.2.27 0 .37l4.22 2.43c.2004331.10492.4395669.10492.64 0l36.25-20.93c.19-.11.21-.28 0-.37zm-38.29 22.1c-.2004331-.10492-.4395669-.10492-.64 0l-5.42 3.13c-.19.11-.21.28 0 .37l4.21 2.43c.2004331.10492.4395669.10492.64 0l5.42-3.13c.19-.11.21-.27 0-.37zm45.74-26.39c-.200433-.10492-.439567-.10492-.64 0l-5.42 3.13c-.19.11-.21.27 0 .37l4.22 2.43c.200433.10492.439567.10492.64 0l5.42-3.13c.18-.11.2-.27 0-.37zm-53.2 30.71c-.2019635-.0985-.4380365-.0985-.64 0l-5.42 3.13c-.19.1-.2.27 0 .37l4.22 2.43c.2029338.094203.4370662.094203.64 0l5.42-3.13c.19-.11.2-.28 0-.37zm68.11-39.32c-.202934-.094203-.437066-.094203-.64 0l-5.42 3.13c-.19.11-.21.28 0 .37l4.22 2.44c.198133.09984.431867.09984.63 0l5.43-3.13c.18-.1.2-.27 0-.37zm23-13.3c-.200433-.10492-.439567-.10492-.64 0l-4.4 2.54c-.19.11-.21.28 0 .37l4.21 2.44c.201609.100026.438391.100026.64 0l4.41-2.54c.18-.11.2-.27 0-.37zm14.46-10.09 4.41-2.54c.18-.11.2-.27 0-.37l-4.21-2.43c-.200433-.10492-.439567-.10492-.64 0l-4.4 2.54c-.19.11-.21.28 0 .37l4.21 2.44c.200389.093607.432683.08992.63-.01zm-26.27 1.27 4.4-2.54c.19-.11.21-.28 0-.37l-4.21-2.44c-.201609-.100026-.438391-.100026-.64 0l-4.41 2.54c-.18.11-.2.27 0 .37l4.21 2.43c.201425.111584.445238.115335.65.01zm-17.1 23.78 12.88-7.44c.18-.11.2-.27 0-.37l-4.21-2.43c-.200433-.10492-.439567-.10492-.64 0l-12.88 7.44c-.18.1-.2.27 0 .36l4.21 2.44c.202934.094203.437066.094203.64 0zm36.29-21.31c.200433.10492.439567.10492.64 0l4.41-2.54c.19-.11.2-.27 0-.37l-4.22-2.43c-.200433-.10492-.439567-.10492-.64 0l-4.4 2.54c-.19.11-.21.28 0 .37zm-5.38-3.49 4.41-2.55c.19-.11.2-.27 0-.37l-4.22-2.43c-.200433-.10492-.439567-.10492-.64 0l-4.4 2.55c-.19.1-.21.27 0 .36l4.21 2.44c.202934.094203.437066.094203.64 0zm-37.35 28.51 4.41-2.54c.18-.11.2-.27 0-.37l-4.21-2.43c-.200433-.10492-.439567-.10492-.64 0l-4.4 2.54c-.19.11-.21.28 0 .37l4.21 2.43c.197744.101465.432256.101465.63 0zm28.5-16.76c.200433.10492.439567.10492.64 0l4.41-2.54c.18-.11.2-.28 0-.37l-4.22-2.44c-.202934-.094203-.437066-.094203-.64 0l-4.4 2.55c-.19.11-.21.27 0 .37zm-60.69 35.39 4.41-2.55c.18-.1.2-.27 0-.36l-4.18-2.48c-.202934-.094203-.437066-.094203-.64 0l-4.4 2.55c-.19.11-.21.27 0 .37l4.21 2.43c.189533.091507.410467.091507.6 0zm6.44-3.72 4.4-2.54c.19-.11.21-.28 0-.37l-4.21-2.43c-.200433-.10492-.439567-.10492-.64 0l-4.41 2.54c-.18.11-.2.27 0 .37l4.21 2.43c.209727.096183.453649.081172.65-.04zm-12.88 7.43 4.41-2.54c.19-.11.2-.27 0-.37l-4.22-2.43c-.2004331-.10492-.4395669-.10492-.64 0l-4.4 2.54c-.19.11-.21.28 0 .37l4.21 2.44c.2093697.084622.4463125.066111.64-.05zm25.76-14.86 4.4-2.55c.19-.1.2-.27 0-.37l-4.22-2.43c-.202934-.094203-.437066-.094203-.64 0l-4.4 2.55c-.19.1-.2.27 0 .37l4.22 2.43c.208789.081725.443011.067087.64-.04zm-6.44 3.71 4.4-2.54c.19-.11.21-.27 0-.37l-4.19-2.47c-.200433-.10492-.439567-.10492-.64 0l-4.36 2.56c-.19.11-.2.28 0 .37l4.22 2.44c.186197.067774.391946.056945.57-.03zm12.87-7.43 4.41-2.54c.19-.11.2-.28 0-.37l-4.22-2.44c-.201964-.0985-.438036-.0985-.64 0l-4.4 2.54c-.19.11-.21.27 0 .37l4.19 2.42c.209117.105864.457676.098332.66-.02zm35.14-51.71c.200433.10492.439567.10492.64 0l4.4-2.54c.19-.11.21-.28 0-.37l-1.12-.65c-.200433-.10492-.439567-.10492-.64 0l-4.41 2.54c-.18.11-.2.28 0 .37zm-32 20.19c.200433.10492.439567.10492.64 0l4.4-2.54c.19-.11.21-.28 0-.37l-4.21-2.44c-.201609-.100026-.438391-.100026-.64 0l-4.41 2.54c-.19.11-.2.27 0 .37zm12.87-7.43c.202934.094203.437066.094203.64 0l4.41-2.55c.18-.11.2-.27 0-.37l-4.22-2.43c-.200433-.10492-.439567-.10492-.64 0l-4.4 2.54c-.19.11-.21.28 0 .37zm-20.73 12c.200433.10492.439567.10492.64 0l4.42-2.57c.19-.11.2-.28 0-.37l-4.22-2.44c-.202934-.094203-.437066-.094203-.64 0l-4.4 2.55c-.19.11-.2.27 0 .37zm14.3-8.26c.200433.10492.439567.10492.64 0l4.4-2.54c.19-.11.2-.27 0-.37l-4.18-2.4c-.200433-.10492-.439567-.10492-.64 0l-4.4 2.54c-.19.11-.21.28 0 .37zm-27.18 15.69c.200433.10492.439567.10492.64 0l4.4-2.54c.19-.11.21-.27 0-.37l-4.21-2.43c-.200433-.10492-.439567-.10492-.64 0l-4.41 2.54c-.18.11-.2.28 0 .37zm6.44-3.71c.202934.094203.437066.094203.64 0l4.4-2.55c.19-.11.21-.27 0-.37l-4.21-2.43c-.200433-.10492-.439567-.10492-.64 0l-4.41 2.54c-.19.11-.2.28 0 .37zm33.42-21.08c.201609.100026.438391.100026.64 0l4.41-2.54c.18-.11.2-.27 0-.37l-1.12-.65c-.202934-.094203-.437066-.094203-.64 0l-4.4 2.55c-.19.11-.21.27 0 .37zm19.31-11.16c.200433.10492.439567.10492.64 0l4.41-2.54c.19-.11.2-.27 0-.37l-1.12-.65c-.202934-.094203-.437066-.094203-.64 0l-4.37 2.51c-.19.1-.2.27 0 .37zm8.86 5.12c.201964.0985.438036.0985.64 0l4.4-2.54c.19-.11.21-.27 0-.37l-4.13-2.46c-.200433-.10492-.439567-.10492-.64 0l-4.41 2.54c-.19.11-.2.28 0 .37zm12.26 14.12 4.41-2.55c.18-.1.2-.27 0-.36l-4.21-2.44c-.202934-.094203-.437066-.094203-.64 0l-4.41 2.55c-.18.11-.2.27 0 .37l4.21 2.43c.200433.10492.439567.10492.64 0zm-34-11.8c.202934.094203.437066.094203.64 0l4.4-2.55c.19-.1.21-.27 0-.37l-1.12-.64c-.200433-.10492-.439567-.10492-.64 0l-4.41 2.54c-.18.11-.2.27 0 .37zm-52.74 32.23c.200433.10492.439567.10492.64 0l4.41-2.54c.18-.11.2-.28 0-.37l-4.21-2.44c-.201609-.100026-.438391-.100026-.64 0l-4.41 2.54c-.18.11-.2.27 0 .37z" fill="#00b0ff"/><path d="m154.2 180 4.41-2.55c.18-.1.2-.27 0-.37l-4.21-2.43c-.202934-.094203-.437066-.094203-.64 0l-4.4 2.55c-.19.1-.21.27 0 .37l4.21 2.43c.200112.091138.429888.091138.63 0zm-6.43-8.8-4.41 2.54c-.18.11-.2.27 0 .37l4.21 2.43c.200433.10492.439567.10492.64 0l4.41-2.54c.18-.11.2-.28 0-.37l-4.21-2.43c-.19879-.108066-.437931-.111803-.64-.01zm-14.23 8.21-7.46 4.31c-.18.11-.2.27 0 .37l4.21 2.43c.200433.10492.439567.10492.64 0l7.45-4.31c.19-.1.21-.27 0-.37l-4.21-2.43c-.198662-.094327-.428444-.097974-.63-.01zm7.79-4.5-4.4 2.55c-.19.11-.21.27 0 .37l4.21 2.43c.200433.10492.439567.10492.64 0l4.41-2.55c.19-.1.2-.27 0-.36l-4.19-2.47c-.21437-.0975-.461828-.090113-.67.02zm-17.28 10-4.4 2.54c-.19.11-.21.28 0 .37l4.21 2.44c.202934.094203.437066.094203.64 0l4.41-2.55c.18-.11.2-.27 0-.37l-4.21-2.43c-.198053-.117948-.441924-.129203-.65-.03zm-6.44 3.72-4.4 2.54c-.19.11-.21.28 0 .37l4.21 2.43c.200433.10492.439567.10492.64 0l4.41-2.54c.19-.11.2-.27 0-.37l-4.22-2.43c-.195477-.114444-.434675-.125656-.64-.03zm16.52 9.93 4.41-2.55c.18-.1.2-.27 0-.37l-4.21-2.43c-.200433-.10492-.439567-.10492-.64 0l-4.4 2.55c-.19.1-.21.27 0 .37l4.21 2.43c.204432.081723.434258.070779.63-.03zm-6.44 3.71 4.41-2.54c.19-.11.2-.27 0-.37l-4.22-2.43c-.200433-.10492-.439567-.10492-.64 0l-4.4 2.54c-.19.11-.21.28 0 .37l4.21 2.44c.207823.087646.444708.072841.64-.04zm-6.43 3.73 4.4-2.54c.19-.11.2-.28 0-.37l-4.22-2.44c-.201964-.0985-.438036-.0985-.64 0l-4.4 2.54c-.19.11-.21.27 0 .37l4.22 2.43c.19879.108066.437931.111803.64.01zm-6.44 3.72 4.4-2.55c.19-.1.21-.27 0-.37l-4.21-2.43c-.202934-.094203-.437066-.094203-.64 0l-4.37 2.53c-.19.1-.2.27 0 .37l4.22 2.43c.192572.085246.413532.077881.6-.02zm32.94-26 4.41-2.54c.19-.11.2-.27 0-.37l-4.17-2.45c-.200433-.10492-.439567-.10492-.64 0l-4.4 2.54c-.19.11-.21.28 0 .37l4.21 2.44c.189064.081111.403794.077472.59-.01zm-7.19 11.11 9.83-5.67c.18-.11.2-.28 0-.37l-10.23-5.91c-.200433-.10492-.439567-.10492-.64 0l-5.08 2.93c-.19.11-.21.28 0 .37l5.42 3.13c.16.1.15.26 0 .37l-4.12 2.32c-.18.11-.2.27 0 .37l4.21 2.43c.190736.097926.416156.101621.61.01zm-29.39-2.49-4.41 2.54c-.19.11-.2.27 0 .37l4.22 2.43c.200433.10492.439567.10492.64 0l4.4-2.54c.19-.11.21-.28 0-.37l-4.22-2.44c-.196545-.102999-.430285-.106709-.63-.01zm-6.44 3.66-4.41 2.55c-.19.1-.2.27 0 .37l4.22 2.43c.202934.094203.437066.094203.64 0l4.4-2.55c.19-.1.21-.27 0-.37l-4.21-2.43c-.200433-.10492-.439567-.10492-.64 0zm-35.63 39.69c.2029338.094203.4370662.094203.64 0l4.41-2.55c.18-.1.2-.27 0-.37l-4.16-2.42c-.2004331-.10492-.4395669-.10492-.64 0l-4.41 2.55c-.18.1-.2.27 0 .37zm-15.88-10-4.4 2.54c-.19.11-.21.28 0 .37l4.21 2.43c.2004331.10492.4395669.10492.64 0l4.41-2.54c.19-.11.2-.27 0-.37l-4.22-2.43c-.2134355-.080817-.4530252-.050869-.64.08zm8.17 7.45c.2004331.10492.4395669.10492.64 0l4.4-2.54c.19-.11.2-.28 0-.37l-4.22-2.44c-.2019635-.0985-.4380365-.0985-.64 0l-4.4 2.54c-.19.11-.2.27 0 .37zm17.76 4 4.4-2.55c.19-.11.21-.27 0-.37l-4.21-2.43c-.2004331-.10492-.4395669-.10492-.64 0l-4.41 2.55c-.18.1-.2.27 0 .37l4.21 2.43c.1934743.12344.4323679.152842.65.08zm-7.08 3.86c.2004331.10492.4395669.10492.64 0l4.41-2.54c.18-.11.2-.27 0-.37l-4.13-2.5c-.2004331-.10492-.4395669-.10492-.64 0l-4.41 2.54c-.18.11-.2.28 0 .37zm-12.41-18.9-4.4 2.54c-.19.11-.21.28 0 .37l4.21 2.44c.2029338.094203.4370662.094203.64 0l4.41-2.55c.18-.11.2-.27 0-.37l-4.22-2.53c-.2085692-.089629-.4478809-.070933-.64.05zm32.19-18.58-4.4 2.54c-.19.11-.21.27 0 .37l4.21 2.43c.2004331.10492.4395669.10492.64 0l4.41-2.54c.18-.11.2-.28 0-.37l-4.21-2.44c-.1979116-.116156-.4393395-.131014-.65-.04zm-25.75 14.86-4.41 2.55c-.18.11-.2.27 0 .37l4.21 2.43c.2004331.10492.4395669.10492.64 0l4.4-2.54c.19-.11.21-.28 0-.37l-4.21-2.44c-.1927851-.107329-.4226985-.125576-.63-.05zm32.19-18.58-4.41 2.54c-.18.11-.2.28 0 .37l4.21 2.44c.2016085.100026.4383915.100026.64 0l4.4-2.54c.19-.11.21-.27 0-.37l-4.21-2.43c-.1879064-.120802-.4226687-.14316-.63-.06zm-12.88 7.43-4.4 2.55c-.19.1-.21.27 0 .37l4.21 2.43c.2004331.10492.4395669.10492.64 0l4.41-2.55c.19-.1.2-.27 0-.37l-4.22-2.43c-.1954794-.110369-.4297518-.128671-.64-.05zm-6.42 3.67-4.4 2.54c-.19.11-.2.28 0 .37l4.22 2.44c.2019635.0985.4380365.0985.64 0l4.4-2.54c.19-.11.21-.27 0-.37l-4.22-2.43c-.19879-.108066-.4379308-.111803-.64-.01zm-6.43 3.72-4.41 2.54c-.19.11-.2.27 0 .37l4.22 2.43c.2004331.10492.4395669.10492.64 0l4.4-2.54c.19-.11.21-.28 0-.37l-4.21-2.43c-.2057354-.11204-.4542646-.11204-.66 0zm29.39 2.49 4.41-2.54c.18-.11.2-.28 0-.37l-4.21-2.43c-.200433-.10492-.439567-.10492-.64 0l-4.41 2.54c-.18.11-.2.27 0 .37l4.21 2.43c.19503.098078.42497.098078.62 0zm60.04-54.11-4.4 2.54c-.19.11-.21.28 0 .37l4.21 2.44c.201609.100026.438391.100026.64 0l4.41-2.54c.19-.11.2-.27 0-.37l-4.22-2.44c-.200433-.10492-.439567-.10492-.64 0zm-7.79 4.5-4.41 2.5c-.18.11-.2.28 0 .37l4.21 2.44c.201609.100026.438391.100026.64 0l4.4-2.54c.19-.11.21-.27 0-.37l-4.21-2.43c-.197744-.101465-.432256-.101465-.63 0zm14.23-8.22-4.44 2.52c-.18.1-.2.27 0 .37l4.21 2.43c.200433.10492.439567.10492.64 0l4.41-2.55c.18-.1.2-.27 0-.37l-4.21-2.43c-.194412-.085181-.415588-.085181-.61 0zm-35.59 33.06 4.41-2.54c.19-.11.2-.27 0-.37l-4.18-2.43c-.200433-.10492-.439567-.10492-.64 0l-4.4 2.54c-.19.11-.21.27 0 .37l4.21 2.43c.194086.082159.415078.07111.6-.03zm42.67-36.8c-.201609-.100026-.438391-.100026-.64 0l-4.41 2.54c-.18.11-.2.27 0 .37l4.21 2.43c.200433.10492.439567.10492.64 0l4.4-2.54c.19-.11.21-.28 0-.37zm-67.14 57.88 4.4-2.54c.19-.11.21-.27 0-.37l-4.21-2.43c-.200433-.10492-.439567-.10492-.64 0l-4.41 2.54c-.18.11-.2.28 0 .37l4.22 2.44c.207823.087646.444708.072841.64-.04zm79-45.58 4.4-2.54c.19-.11.21-.27 0-.37l-4.21-2.43c-.200433-.10492-.439567-.10492-.64 0l-4.42 2.5c-.18.11-.2.28 0 .37l4.21 2.43c.190736.097926.416156.101621.61.01zm-12.46.24 4.41-2.54c.18-.11.2-.27 0-.37l-4.21-2.43c-.200433-.10492-.439567-.10492-.64 0l-4.4 2.54c-.19.11-.21.28 0 .37l4.21 2.44c.190361.068785.400884.054266.58-.04zm6.67-9.06c-.200433-.10492-.439567-.10492-.64 0l-4.41 2.55c-.18.1-.2.27 0 .36l4.21 2.44c.202934.094203.437066.094203.64 0l4.4-2.55c.19-.11.21-.27 0-.37zm1.35-.78 10.24 5.91c.202934.094203.437066.094203.64 0l4.4-2.55c.19-.11.21-.27 0-.37l-10.22-5.96c-.201609-.100026-.438391-.100026-.64 0l-4.41 2.54c-.21.19-.22.3-.06.4zm-14.94 8.21-4.4 2.54c-.19.11-.21.27 0 .37l4.21 2.43c.200433.10492.439567.10492.64 0l4.41-2.54c.19-.11.2-.28 0-.37l-4.22-2.44c-.2035-.095358-.439579-.091669-.64.01zm-48.45 28-4.39 2.55c-.18.1-.2.27 0 .36l4.22 2.44c.202934.094203.437066.094203.64 0l4.4-2.55c.19-.11.21-.27 0-.37l-4.21-2.43c-.195477-.114444-.434675-.125656-.64-.03zm60.68-22.87c.200433.10492.439567.10492.64 0l4.43-2.58c.18-.11.2-.28 0-.37l-4.21-2.44c-.201609-.100026-.438391-.100026-.64 0l-4.4 2.54c-.19.11-.21.27 0 .37zm-54.23 19.12-4.41 2.55c-.19.11-.2.27 0 .37l4.22 2.43c.200433.10492.439567.10492.64 0l4.4-2.54c.19-.11.21-.28 0-.37l-4.21-2.44c-.202934-.094203-.437066-.094203-.64 0zm-50.45 41.3c.2004331.10492.4395669.10492.64 0l4.4-2.54c.19-.11.21-.28 0-.37l-4.21-2.44c-.2016085-.100026-.4383915-.100026-.64 0l-4.41 2.54c-.18.11-.2.27 0 .37zm-7.49-7.84-4.4 2.54c-.19.11-.21.27 0 .37l4.21 2.43c.2004331.10492.4395669.10492.64 0l4.41-2.54c.19-.11.2-.27 0-.37l-4.22-2.43c-.2004331-.10492-.4395669-.10492-.64 0zm14.57 4.1 4.4-2.54c.19-.11.21-.27 0-.37l-4.22-2.43c-.1969027-.104889-.4330973-.104889-.63 0l-4.41 2.54c-.19.11-.2.28 0 .37l4.22 2.43c.2004331.10492.4395669.10492.64 0zm6.43-3.71 4.41-2.55c.19-.11.2-.27 0-.37l-4.22-2.43c-.2004331-.10492-.4395669-.10492-.64 0l-4.4 2.54c-.19.11-.21.28 0 .37l4.22 2.44c.1991925.09528.4308075.09528.63 0zm6.44-3.72 4.41-2.54c.18-.11.2-.28 0-.37l-4.22-2.44c-.2029338-.094203-.4370662-.094203-.64 0l-4.4 2.55c-.19.11-.21.27 0 .37l4.21 2.43c.2004331.10492.4395669.10492.64 0zm-21-.39-4.4 2.56c-.19.11-.21.28 0 .37l4.21 2.44c.2016085.100026.4383915.100026.64 0l4.41-2.54c.18-.11.2-.27 0-.37l-4.21-2.43c-.1980532-.117948-.4419244-.129203-.65-.03zm6.44-3.72-4.41 2.55c-.18.11-.2.27 0 .37l4.21 2.43c.2004331.10492.4395669.10492.64 0l4.41-2.55c.18-.1.2-.27 0-.36l-4.21-2.44c-.2029338-.094203-.4370662-.094203-.64 0zm25.75-14.86-4.4 2.54c-.19.11-.21.27 0 .37l4.21 2.43c.200433.10492.439567.10492.64 0l4.41-2.54c.18-.11.2-.28 0-.37l-4.22-2.44c-.203168-.096889-.439958-.09319-.64.01zm-6.44 3.71-4.4 2.55c-.19.1-.21.27 0 .37l4.21 2.43c.202934.094203.437066.094203.64 0l4.41-2.55c.19-.1.2-.27 0-.37l-4.22-2.43c-.200433-.10492-.439567-.10492-.64 0zm12.88-7.43-4.41 2.54c-.18.11-.2.28 0 .37l4.21 2.43c.200433.10492.439567.10492.64 0l4.41-2.54c.18-.11.2-.27 0-.37l-4.21-2.43c-.200433-.10492-.439567-.10492-.64 0zm-25.75 14.86-4.38 2.55c-.19.11-.2.27 0 .37l4.22 2.43c.2004331.10492.4395669.10492.64 0l4.4-2.54c.19-.11.21-.28 0-.37l-4.26-2.44c-.1950304-.098078-.4249696-.098078-.62 0zm6.43-3.72-4.4 2.54c-.19.11-.2.28 0 .37l4.22 2.44c.2019635.0985.4380365.0985.64 0l4.4-2.54c.19-.11.21-.27 0-.37l-4.22-2.43c-.2004331-.10492-.4395669-.10492-.64 0zm-8.21 24.22 4.4-2.5c.19-.11.21-.28 0-.37l-4.21-2.44c-.2016085-.100026-.4383915-.100026-.64 0l-4.41 2.54c-.19.11-.2.27 0 .37l4.22 2.43c.2053253.095656.4445231.084444.64-.03zm-33.95-1.6-4.22-2.44c-.2019635-.0985-.4380365-.0985-.64 0l-4.4 2.54c-.19.11-.2.27 0 .37l4.22 2.43c.2004331.10492.4395669.10492.64 0l4.4-2.54c.15-.1.16-.26 0-.36zm8.35 2.1-4.21-2.43c-.2004331-.10492-.4395669-.10492-.64 0l-6.78 3.91c-.19.11-.2.28 0 .37l4.22 2.44c.2029338.094203.4370662.094203.64 0l6.77-3.92c.19-.11.21-.27 0-.37zm-14.68-6.91-4.22-2.43c-.2004331-.10492-.4395669-.10492-.64 0l-5.42 3.13c-.18.11-.2.27 0 .37l4.22 2.43c.2004331.10492.4395669.10492.64 0l5.42-3.13c.19-.11.2-.27.04-.37zm4.15-2.4c.2004331.10492.4395669.10492.64 0l4.41-2.54c.19-.11.2-.28 0-.37l-4.22-2.44c-.2019635-.0985-.4380365-.0985-.64 0l-4.4 2.54c-.19.11-.21.27 0 .37zm18.25 11.81-4.22-2.43c-.2004331-.10492-.4395669-.10492-.64 0l-8.43 4.93c-.19.11-.2.27 0 .37l4.22 2.43c.2004331.10492.4395669.10492.64 0l8.47-4.89c.14-.15.16-.31 0-.41zm3 5.24-4.22-2.44c-.2019635-.0985-.4380365-.0985-.64 0l-5.42 3.13c-.19.1-.2.27 0 .37l4.22 2.43c.2029338.094203.4370662.094203.64 0l5.42-3.13c.16-.1.17-.27.01-.36zm26.65-44.68c.2016085.100026.4383915.100026.64 0l4.41-2.54c.18-.11.2-.27 0-.37l-4.21-2.43c-.2004331-.10492-.4395669-.10492-.64 0l-4.4 2.54c-.19.11-.21.28 0 .37zm-12.87 7.43c.2004331.10492.4395669.10492.64 0l4.4-2.55c.19-.1.21-.27 0-.36l-4.22-2.44c-.2029338-.094203-.4370662-.094203-.64 0l-4.4 2.55c-.19.11-.2.27 0 .37zm-28.5 16.51c.2004331.10492.4395669.10492.64 0l4.41-2.54c.18-.11.2-.27 0-.37l-4.22-2.43c-.2004331-.10492-.4395669-.10492-.64 0l-4.4 2.54c-.19.11-.21.28 0 .37zm35-20.2c.2004331.10492.4395669.10492.64 0l4.41-2.54c.19-.11.2-.28 0-.37l-4.22-2.44c-.2019635-.0985-.4380365-.0985-.64 0l-4.4 2.54c-.19.11-.21.27 0 .37zm-12.87 7.44c.2019635.0985.4380365.0985.64 0l4.4-2.54c.19-.11.21-.27 0-.37l-4.21-2.43c-.2004331-.10492-.4395669-.10492-.64 0l-4.41 2.54c-.19.11-.2.28 0 .37zm-4.24 33.76c-.2004331-.10492-.4395669-.10492-.64 0l-6.78 3.91c-.19.11-.2.28 0 .37l4.22 2.43c.2004331.10492.4395669.10492.64 0l6.77-3.91c.19-.11.21-.27 0-.37zm-5.06-28.46c.2004331.10492.4395669.10492.64 0l4.4-2.54c.19-.11.21-.28 0-.37l-4.21-2.44c-.2029338-.094203-.4370662-.094203-.64 0l-4.41 2.55c-.18.11-.2.27 0 .37zm-6.44 3.72c.2029338.094203.4370662.094203.64 0l4.41-2.55c.18-.11.2-.27 0-.37l-4.21-2.43c-.2004331-.10492-.4395669-.10492-.64 0l-4.41 2.55c-.18.1-.2.27 0 .36zm130.77-44.12c-.200433-.10492-.439567-.10492-.64 0l-10.84 6.26c-.19.11-.21.27 0 .37l4.21 2.43c.200433.10492.439567.10492.64 0l10.85-6.26c.18-.11.2-.28 0-.37zm-14.23 8.21c-.202934-.094203-.437066-.094203-.64 0l-4.41 2.55c-.18.1-.2.27 0 .37l4.21 2.43c.200433.10492.439567.10492.64 0l4.41-2.55c.18-.1.2-.27 0-.37zm-86.93 48.43 4.4-2.54c.19-.11.2-.27 0-.37l-4.22-2.43c-.2004331-.10492-.4395669-.10492-.64 0l-4.4 2.54c-.19.11-.2.27 0 .37l4.22 2.43c.2004331.10492.4395669.10492.64 0zm74-41c-.200433-.10492-.439567-.10492-.64 0l-4.4 2.54c-.19.11-.21.27 0 .37l4.21 2.43c.200433.10492.439567.10492.64 0l4.41-2.54c.19-.11.2-.28 0-.37zm33.55-19.37c-.200433-.10492-.439567-.10492-.64 0l-4.36 2.59c-.18.11-.2.28 0 .37l4.21 2.44c.201609.100026.438391.100026.64 0l4.41-2.54c.18-.11.2-.27 0-.37zm10.65-1.29-10.2-5.89c-.200433-.10492-.439567-.10492-.64 0l-4.36 2.56c-.19.11-.2.27 0 .37l10.24 5.91c.202934.094203.437066.094203.64 0l4.4-2.55c.12-.12.14-.29-.03-.39zm-68.2 34.56c-.200433-.10492-.439567-.10492-.64 0l-5.43 3.13c-.18.11-.2.27 0 .37l4.21 2.43c.200433.10492.439567.10492.64 0l5.42-3.13c.19-.11.21-.28 0-.37zm16.26-9.39c-.200433-.10492-.439567-.10492-.64 0l-6.78 3.91c-.18.11-.2.27 0 .37l4.16 2.43c.200433.10492.439567.10492.64 0l6.78-3.91c.18-.11.2-.28 0-.37zm-31.17 18c-.201609-.100026-.438391-.100026-.64 0l-36.26 20.93c-.19.11-.2.27 0 .37l4.22 2.43c.2004331.10492.4395669.10492.64 0l36.25-20.93c.19-.11.21-.28 0-.37zm-38.29 22.1c-.2004331-.10492-.4395669-.10492-.64 0l-5.42 3.13c-.19.11-.21.28 0 .37l4.21 2.43c.2004331.10492.4395669.10492.64 0l5.42-3.13c.19-.11.21-.27 0-.37zm45.74-26.39c-.200433-.10492-.439567-.10492-.64 0l-5.42 3.13c-.19.11-.21.27 0 .37l4.22 2.43c.200433.10492.439567.10492.64 0l5.42-3.13c.18-.11.2-.27 0-.37zm-53.2 30.71c-.2019635-.0985-.4380365-.0985-.64 0l-5.42 3.13c-.19.1-.2.27 0 .37l4.22 2.43c.2029338.094203.4370662.094203.64 0l5.42-3.13c.19-.11.2-.28 0-.37zm68.11-39.32c-.202934-.094203-.437066-.094203-.64 0l-5.42 3.13c-.19.11-.21.28 0 .37l4.22 2.44c.198133.09984.431867.09984.63 0l5.43-3.13c.18-.1.2-.27 0-.37zm23-13.3c-.200433-.10492-.439567-.10492-.64 0l-4.4 2.54c-.19.11-.21.28 0 .37l4.21 2.44c.201609.100026.438391.100026.64 0l4.41-2.54c.18-.11.2-.27 0-.37zm14.46-10.09 4.41-2.54c.18-.11.2-.27 0-.37l-4.21-2.43c-.200433-.10492-.439567-.10492-.64 0l-4.4 2.54c-.19.11-.21.28 0 .37l4.21 2.44c.200389.093607.432683.08992.63-.01zm-26.27 1.27 4.4-2.54c.19-.11.21-.28 0-.37l-4.21-2.44c-.201609-.100026-.438391-.100026-.64 0l-4.41 2.54c-.18.11-.2.27 0 .37l4.21 2.43c.201425.111584.445238.115335.65.01zm-17.1 23.78 12.88-7.44c.18-.11.2-.27 0-.37l-4.21-2.43c-.200433-.10492-.439567-.10492-.64 0l-12.88 7.44c-.18.1-.2.27 0 .36l4.21 2.44c.202934.094203.437066.094203.64 0zm36.29-21.31c.200433.10492.439567.10492.64 0l4.41-2.54c.19-.11.2-.27 0-.37l-4.22-2.43c-.200433-.10492-.439567-.10492-.64 0l-4.4 2.54c-.19.11-.21.28 0 .37zm-5.38-3.49 4.41-2.55c.19-.11.2-.27 0-.37l-4.22-2.43c-.200433-.10492-.439567-.10492-.64 0l-4.4 2.55c-.19.1-.21.27 0 .36l4.21 2.44c.202934.094203.437066.094203.64 0zm-37.35 28.51 4.41-2.54c.18-.11.2-.27 0-.37l-4.21-2.43c-.200433-.10492-.439567-.10492-.64 0l-4.4 2.54c-.19.11-.21.28 0 .37l4.21 2.43c.197744.101465.432256.101465.63 0zm28.5-16.76c.200433.10492.439567.10492.64 0l4.41-2.54c.18-.11.2-.28 0-.37l-4.22-2.44c-.202934-.094203-.437066-.094203-.64 0l-4.4 2.55c-.19.11-.21.27 0 .37zm-60.69 35.39 4.41-2.55c.18-.1.2-.27 0-.36l-4.18-2.48c-.202934-.094203-.437066-.094203-.64 0l-4.4 2.55c-.19.11-.21.27 0 .37l4.21 2.43c.189533.091507.410467.091507.6 0zm6.44-3.72 4.4-2.54c.19-.11.21-.28 0-.37l-4.21-2.43c-.200433-.10492-.439567-.10492-.64 0l-4.41 2.54c-.18.11-.2.27 0 .37l4.21 2.43c.209727.096183.453649.081172.65-.04zm-12.88 7.43 4.41-2.54c.19-.11.2-.27 0-.37l-4.22-2.43c-.2004331-.10492-.4395669-.10492-.64 0l-4.4 2.54c-.19.11-.21.28 0 .37l4.21 2.44c.2093697.084622.4463125.066111.64-.05zm25.76-14.86 4.4-2.55c.19-.1.2-.27 0-.37l-4.22-2.43c-.202934-.094203-.437066-.094203-.64 0l-4.4 2.55c-.19.1-.2.27 0 .37l4.22 2.43c.208789.081725.443011.067087.64-.04zm-6.44 3.71 4.4-2.54c.19-.11.21-.27 0-.37l-4.19-2.47c-.200433-.10492-.439567-.10492-.64 0l-4.36 2.56c-.19.11-.2.28 0 .37l4.22 2.44c.186197.067774.391946.056945.57-.03zm12.87-7.43 4.41-2.54c.19-.11.2-.28 0-.37l-4.22-2.44c-.201964-.0985-.438036-.0985-.64 0l-4.4 2.54c-.19.11-.21.27 0 .37l4.19 2.42c.209117.105864.457676.098332.66-.02zm35.14-51.71c.200433.10492.439567.10492.64 0l4.4-2.54c.19-.11.21-.28 0-.37l-1.12-.65c-.200433-.10492-.439567-.10492-.64 0l-4.41 2.54c-.18.11-.2.28 0 .37zm-32 20.19c.200433.10492.439567.10492.64 0l4.4-2.54c.19-.11.21-.28 0-.37l-4.21-2.44c-.201609-.100026-.438391-.100026-.64 0l-4.41 2.54c-.19.11-.2.27 0 .37zm12.87-7.43c.202934.094203.437066.094203.64 0l4.41-2.55c.18-.11.2-.27 0-.37l-4.22-2.43c-.200433-.10492-.439567-.10492-.64 0l-4.4 2.54c-.19.11-.21.28 0 .37zm-20.73 12c.200433.10492.439567.10492.64 0l4.42-2.57c.19-.11.2-.28 0-.37l-4.22-2.44c-.202934-.094203-.437066-.094203-.64 0l-4.4 2.55c-.19.11-.2.27 0 .37zm14.3-8.26c.200433.10492.439567.10492.64 0l4.4-2.54c.19-.11.2-.27 0-.37l-4.18-2.4c-.200433-.10492-.439567-.10492-.64 0l-4.4 2.54c-.19.11-.21.28 0 .37zm-27.18 15.69c.200433.10492.439567.10492.64 0l4.4-2.54c.19-.11.21-.27 0-.37l-4.21-2.43c-.200433-.10492-.439567-.10492-.64 0l-4.41 2.54c-.18.11-.2.28 0 .37zm6.44-3.71c.202934.094203.437066.094203.64 0l4.4-2.55c.19-.11.21-.27 0-.37l-4.21-2.43c-.200433-.10492-.439567-.10492-.64 0l-4.41 2.54c-.19.11-.2.28 0 .37zm33.42-21.08c.201609.100026.438391.100026.64 0l4.41-2.54c.18-.11.2-.27 0-.37l-1.12-.65c-.202934-.094203-.437066-.094203-.64 0l-4.4 2.55c-.19.11-.21.27 0 .37zm19.31-11.16c.200433.10492.439567.10492.64 0l4.41-2.54c.19-.11.2-.27 0-.37l-1.12-.65c-.202934-.094203-.437066-.094203-.64 0l-4.37 2.51c-.19.1-.2.27 0 .37zm8.86 5.12c.201964.0985.438036.0985.64 0l4.4-2.54c.19-.11.21-.27 0-.37l-4.13-2.46c-.200433-.10492-.439567-.10492-.64 0l-4.41 2.54c-.19.11-.2.28 0 .37zm12.26 14.12 4.41-2.55c.18-.1.2-.27 0-.36l-4.21-2.44c-.202934-.094203-.437066-.094203-.64 0l-4.41 2.55c-.18.11-.2.27 0 .37l4.21 2.43c.200433.10492.439567.10492.64 0zm-34-11.8c.202934.094203.437066.094203.64 0l4.4-2.55c.19-.1.21-.27 0-.37l-1.12-.64c-.200433-.10492-.439567-.10492-.64 0l-4.41 2.54c-.18.11-.2.27 0 .37zm-52.74 32.23c.200433.10492.439567.10492.64 0l4.41-2.54c.18-.11.2-.28 0-.37l-4.21-2.44c-.201609-.100026-.438391-.100026-.64 0l-4.41 2.54c-.18.11-.2.27 0 .37z" fill="#455a64"/><path d="m125.67 224.93.91.52 23.99 13.84 42.66-24.63.89-.5-24.9-14.37z" fill="#263238"/><path d="m126.58 225.45 23.99 13.84 42.66-24.63-24.01-13.85z" fill="#37474f"/><path d="m.58 25.45 23.99 13.84 42.66-24.63-24.01-13.85z" fill="#263238" opacity=".5" transform="translate(126 200)"/><g fill="#00b0ff"><path d="m2.65 220.44c.38756201.215114.79642323.389382 1.22.52-.42477896-.122936-.83410509-.294047-1.22-.51l-.37-.25z"/><path d="m9.57 220.81c.0163524-.024745.04128936-.042557.07-.05z"/></g></g><path d="m192.59 91c0 1.52-.05 3.41-1 4.59-6.65 8.3-18.94 17.38-23.75 21.63 0 0-17-14.57-22.58-20-6.2-6.07-18.45-19.18-29.79-15.35 0 0-2.6 9.26-.19 15.8 1.56 4.25 10.13 11.5 17.79 17.26 6.68 5 27.46 21.89 34.25 22.68 2.79.33 8.26-3.8 15.15-10.2 5.638941-5.469339 10.93248-11.283882 15.85-17.41 2.62-3.21 7.59-9.63 10.22-12.79 9.13-11 10.41-14.86 6.18-19.89-5.76-6.84-11.69-5.9-11.66-1.61 0 5.66-2.84 8.51-2.84 8.51" fill="#ffa8a7"/><path d="m189.14 83.15-15-8.64c-4.07899-2.3490533-5.484214-7.5582268-3.14-11.64 1.129329-1.9551755 2.989366-3.3814032 5.170619-3.9646961 2.181253-.583293 4.504898-.2758315 6.459381.8546961l15 8.64z" fill="#37474f"/><path d="m188.35 67.89c-.737412 1.2894399-2.380392 1.7371183-3.67 1l-7.1-4.1c-.623978-.3522165-1.080931-.9396316-1.268825-1.6310802-.187893-.6914487-.091079-1.429344.268825-2.0489198.737412-1.2894399 2.380392-1.7371183 3.67-1l7.1 4.1c.62193.3541475 1.077092.9415344 1.264768 1.6321825.187677.690648.092392 1.4276129-.264768 2.0478175z" fill="#455a64"/><path d="m200 77.13v-12.49c-.083359-1.3883302-.82705-2.6526055-2-3.4l-3.45-2c-1.234169-.6303606-2.695831-.6303606-3.93 0l-10.81 6.24c-1.175704.7494257-1.919774 2.0180651-2 3.41v12.49c.083359 1.3883302.82705 2.6526055 2 3.4l3.44 2c1.234169.6303606 2.695831.6303606 3.93 0l10.82-6.25c1.17295-.7473945 1.916641-2.0116698 2-3.4z" fill="#00b0ff"/><path d="m200 64.33c-.13-1-1-1.39-1.94-.82l-10.82 6.24c-.576024.3653472-1.053372.8667341-1.39 1.46l-7.43-4.21c.33392-.5952704.811841-1.0972588 1.39-1.46l10.81-6.25c1.236478-.6206897 2.693522-.6206897 3.93 0l3.45 2c1.075978.6753469 1.805735 1.7845788 2 3.04z" fill="#fff" opacity=".5"/><path d="m187.19 69.75 10.81-6.24c1.08-.63 2-.12 2 1.13v12.49c-.083359 1.3883302-.82705 2.6526055-2 3.4l-10.82 6.25c-1.09.63-2 .12-2-1.14v-12.49c.0856-1.3902087.833234-2.6548631 2.01-3.4z" fill="#000" opacity=".1"/><path d="m194.94 71.77c-.655338-.3483046-1.452342-.2899872-2.05.15-1.690157 1.1167845-2.742527 2.976096-2.83 5-.086719.7357266.240348 1.4591217.85 1.88l25 14.44 3.94-7.06z" fill="#455a64"/><path d="m190.69 74.45c-.389095.7562651-.604336 1.589898-.63 2.44-.086719.7357266.240348 1.4591217.85 1.88l25 14.44 1.77-3.17z" fill="#37474f"/><path d="m217.83 86.34c-1.692737 1.1157072-2.748648 2.9747063-2.84 5 0 1.84 1.27 2.59 2.84 1.69 1.687706-1.1190705 2.739306-2.9770207 2.83-5 0-1.84-1.27-2.59-2.83-1.69z" fill="#263238"/><path d="m206.35 72.29c-1.84 0-5.47 1.57-5.490091 3.37-.019909 1.8 3.270091 2.33 3.270091 2.33s-.59.67.16 1.74 4.6 1.5 4.6 1.5-.66.66.21 1.49 6 0 6 0z" fill="#ffa8a7"/><path d="m200.22 84.17c.081691-1.7813484-.086612-3.5653573-.5-5.3-.65-2.53-2.65-3.35-3.57-3.19-.72.12-.14 2.95-.9 5.8-1 3.64-2.62 5.41-2.66 9.49" fill="#ffa8a7"/><path d="m66.48 209.59c-.72-9 .15-18.08.55-22.89 2-23.51 16.07-33.26 19.24-43.72l38.15 6.31 9.58-1.08c1.314804 6.932864 2.133547 13.950662 2.45 21z" fill="#00b0ff"/><path d="m66.48 209.59c-.72-9 .15-18.08.55-22.89 2-23.51 16.07-33.26 19.24-43.72l38.15 6.31 9.58-1.08c1.314804 6.932864 2.133547 13.950662 2.45 21z" fill="#000" opacity=".5"/><path d="m134.94 129.61c8.59-9.84 6.14-18.23 2.74-25-6.79-13.61-16.14-22.93-22.13-22.63l-18.55 2.24-10.43 3.54-5 2.62s-5.06 4-5.31 9.89c-.27 6.41-.84 11.14 5.06 21.34l5.41 12.63c.3265881 1.87198.3905373 3.780357.19 5.67-.6 3.08-3.9 8.65-7.35 13.41-1.9021201 2.551455-3.5531323 5.280816-4.93 8.15 0 0 5.27 7.75 20.16 10.56 13.55 2.56 36.9-1.75 41.19-10.06 0 0-.7-13.29-1.6-20.77.26-6.1.55-11.59.55-11.59z" fill="#fafafa"/><path d="m86.61 162.44c-.26-5.23 3.89-11.54 7.13-16.53s1.14-8.54-1.21-13.27c-2.778195-5.246773-3.1962602-11.426867-1.15-17 2.4-6.13.84-14.83-2.78-23.79l-10.88 12.49-1.56 3.08c.31 3.78 1.5 8 5.11 14.22l5.41 12.63c.3265881 1.87198.3905373 3.780357.19 5.67-.6 3.08-3.9 8.65-7.35 13.41-1.9021201 2.551455-3.5531323 5.280816-4.93 8.15 0 0 5.27 7.75 20.16 10.56 3.5488698.609677 7.152034.844301 10.75.7-8.93-1.21-18.66-5.82-18.89-10.32z" fill="#ebebeb"/><path d="m99 7.61-.7 2.68c-.2195541-1.96020784-.9621448-3.82531944-2.15-5.4-4.06-5.32-12.26-5.88-18.33-1.26s-7.68 12.69-3.62 18 12.26 5.88 18.32 1.26c2.5734233-1.931315 4.4535666-4.6427903 5.36-7.73 1.79462.1613709 3.443347-.9969654 3.9-2.74.519504-2.09031-.709441-4.21664972-2.78-4.81z" fill="#00b0ff"/><path d="m99 7.61-.7 2.68c-.2195541-1.96020784-.9621448-3.82531944-2.15-5.4-4.06-5.32-12.26-5.88-18.33-1.26s-7.68 12.69-3.62 18 12.26 5.88 18.32 1.26c2.5734233-1.931315 4.4535666-4.6427903 5.36-7.73 1.79462.1613709 3.443347-.9969654 3.9-2.74.519504-2.09031-.709441-4.21664972-2.78-4.81z" fill="#000" opacity=".5"/><path d="m110.26 73.8400068h-3c-7.8353076.0052999-15.3515177-3.1035448-20.8937934-8.6420693-5.5422756-5.5385245-8.6562066-13.0526281-8.6562066-20.8879375v-1.93c.52-16.58 14.06-29.61 30.25-29.1l3.42.1c16.19.51 28.89 14.36 28.38 30.93-.005501 16.294979-13.205035 29.507936-29.5 29.5300068z" fill="#00b0ff"/><path d="m33.26 60.8400068h-3c-7.8353076.0052999-15.3515177-3.1035448-20.89379338-8.6420693-5.54227565-5.5385245-8.65620662-13.0526281-8.65620662-20.8879375v-1.93c.52-16.58 14.06-29.61 30.25-29.1l3.42.1c16.19.51 28.89 14.36 28.38 30.93-.0055013 16.294979-13.205035 29.507936-29.5 29.5300068z" fill="#000" opacity=".4" transform="translate(77 13)"/><path d="m130.12 29.51c3.35 2.12 6.93 8.5 5.95 26.48-.83 15.23-5.89 18.85-8.4 19.85s-7.28.2-11.91-.72l-.28 9.15s12.55 12.66.28 11.93-18.77-12-18.77-12v-21.82s-3.14 3.32-8.17-.25c-2.0730226-1.4713221-3.4065936-3.7689064-3.6559325-6.2987368-.2493388-2.5298303.6100324-5.0435499 2.3559325-6.8912632 3.08-2.94 8.72-1.18 9.79 3.05 0 0 7.63-.09 17.46-5.62 12.31-6.92 13.55-13.11 15.35-16.86z" fill="#ffa8a7"/><path d="m117.87 51.07c-.027548 1.1531635-.97602 2.0704814-2.12946 2.0595139-1.15344-.0109674-2.084298-.9461547-2.089939-2.0996336-.005589-1.1534788.91612-2.0976842 2.069399-2.1199041.572777-.0026778 1.122731.2243488 1.526809.6303065.404078.4059576.62855.956959.623191 1.5297173z" fill="#263238"/><path d="m119.28 64.57 4.41 1.56c-.180409.5983285-.597509 1.0969351-1.154567 1.3801851-.557058.2832499-1.205678.3265343-1.795433.1198149-1.231581-.4600897-1.8772-1.8132368-1.46-3.06z" fill="#f28f8f"/><path d="m134.56 44.32-4.44-1.61c.183993-.5944127.603923-1.087238 1.1616-1.3632405.557676-.2760024 1.204201-.310982 1.7884-.0967595 1.233682.4646642 1.888231 1.8132997 1.49 3.07z" fill="#263238"/><path d="m133.15 50.14c.024327.571038-.180788 1.1280788-.569632 1.5469781-.388844.4188994-.929101.6648441-1.500368.6830219-.891394.0487423-1.723152-.4484603-2.102275-1.2566841-.379123-.8082237-.229716-1.7656727.377628-2.419961s1.551042-.8744359 2.385206-.5564251 1.391804 1.1105184 1.409441 2.0030702z" fill="#263238"/><path d="m123.17 49.23-.06 12.4 6.59-1.82z" fill="#f28f8f"/><path d="m115.76 75.12c-4.88-.79-14.88-4-16.33-8 .570413 2.0372824 1.749734 3.8516222 3.38 5.2 2.93 2.67 12.85 5.9 12.85 5.9z" fill="#f28f8f"/><path d="m86.56 87.76c-11.64 3.42-13.6 5.58-19 17-5 10.52-8.85 17.68-13.23 28.59-9.22-9.45-21.37-21.86-24.48-28.74-.66-1.47-1.42-3.1-1-4.65 1.22-4.12.1-6.4.24-10.36.12-3.08 1.1-4.71.42-5-.87-.45-3-.54-4.42 1.79-.781677 1.4838629-1.3537931 3.0689611-1.7 4.71-1.0253602-3.2049739-1.6008525-6.5367711-1.71-9.9-.33-8-2.71-11-10.43-4.29-4.84 4.23-6 10.59-.25 24.38 1.67 4 5.16 9.79 8 14.44 6.12 9.91 21.77 30.06 29.17 39.85 2.5706786 3.465527 7.1874218 4.7077 11.15 3 2.48-1.11 2.87-2 4.68-3.93 3.19-3.41 17.09-29.82 17.09-29.82s7.61-10.28 8.3-17.16c1.61-15.8-2.83-19.91-2.83-19.91z" fill="#ffa8a7"/></g><g transform="translate(267 60)"><path d="m65.68 86.89c-.0087017-.099623-.0322976-.1973772-.07-.29 0 0 0-.06 0-.09l-11.83-23.15 11.3-5c.1097669-.0548931.2108513-.1256523.3-.21.0520963-.0555725.0989611-.1158273.14-.18 0 0 0 0 0-.06.0369634-.0726883.0638764-.1500631.08-.23.0056145-.0565276.0056145-.1134724 0-.17.0099829-.0696441.0099829-.1403559 0-.21.0048373-.0665789.0048373-.1334211 0-.2-.0047226-.0163321-.0047226-.0336679 0-.05l-8.14-22.13 7.8-6.27c.2244531-.1787852.3685279-.4395453.4004227-.7247225.0318948-.2851771-.0510128-.5713235-.2304227-.7952775-.3759759-.4686746-1.0603145-.5447122-1.53-.17l-7.23 5.81-4.9-13.32c-.0883087-.4152057-.4116576-.7401753-.8264166-.8305588-.4147591-.0903835-.8440021.0705826-1.0970616.4113981-.2530594.3408154-.2829998.7982684-.0765218 1.1691607l5.15 14-12.44 10c-.0988217.0821514-.1833056.1801527-.25.29v.07c-.0481461.0944374-.0818545.1955624-.1.3-.0049463.0498777-.0049463.1001223 0 .15-.0098366.0763511-.0098366.1536489 0 .23.0106354.0550342.0274068.1087026.05.16-.0057437.0397938-.0057437.0802062 0 .12l8.58 16.81-15.68 6.93s-.06 0-.09.06l-.21.15c-.0579697.0838163-.1250453.1609533-.2.23-.0193476.042254-.0360466.0856713-.05.13 0 0 0 .06-.05.1s0 .06 0 .09c-.0098614.0830416-.0098614.1669584 0 .25-.0049626.0598974-.0049626.1201026 0 .18.0193955.0867784.049633.1707714.09.25 0 0 0 .09.05.12l12 19.22-19 4.37h-.06c-.1020953.0344673-.1995092.0814947-.29.14l-.06.05c-.0984916.0786048-.1830117.1732673-.25.28v.05c-.0017246.0366464-.0017246.0733536 0 .11-.029247.0704927-.0494088.1444193-.06.22-.0197696.1191858-.0197696.2408142 0 .36v.08c.0355424.1128644.0859876.2204809.15.32l15.49 21.45-22.35 2c-.0432096-.004631-.0867904-.004631-.13 0h-.1c-.1132019.039116-.2207857.092908-.32.16-.08367.073635-.1576005.157647-.22.25v.05c.0019024.023295.0019024.046705 0 .07-.0411375.09208-.0681093.189852-.08.29-.0148844.112845-.0148844.227155 0 .34v.1c.0326274.096612.07984.187664.14.27v.06l19 23.63-25.75-.18c-.073229-.005533-.146771-.005533-.22 0h-.07c-.1189229.032534-.230804.086779-.33.16l-.08.07c-.0772569.062958-.1446685.13711-.2.22-.0405047.09999-.0706621.203865-.09.31v.05c-.0153166.106117-.0153166.213883 0 .32v.11c.0297694.087869.0700622.171812.12.25l.06.09 22.45 25.77-29.24-1.86c-.04316915-.005335-.08683085-.005335-.13 0-.08965853-.011087-.18034147-.011087-.27 0-.06773534.019655-.13188232.050041-.19.09-.0596871.02391-.11667204.054078-.17.09-.07371076.063688-.13772021.137804-.19.22 0 0-.06.05-.08.08-.03696339.072688-.06387635.150063-.08.23-.00452959.063252-.00452959.126748 0 .19v.16c-.00480433.079928-.00480433.160072 0 .24.02596391.061935.05603066.122068.09.18.02705069.063281.06056164.123601.1.18.05386584.063658.11810396.117753.19.16.03146735.041521.06847862.078533.11.11l59.58 34.39h.07.08c.1239863.050383.2561911.077502.39.08.1123566-.00362.22356-.023839.33-.06h.1c.0841132-.033161.1619096-.080516.23-.14h.05c.0832232-.071266.1541686-.155725.21-.25.0369262-.069186.0638607-.143255.08-.22 0-.06 0-.12.05-.18.004939-.069913.004939-.140087 0-.21.005429-.066556.005429-.133444 0-.2-.026067-.058663-.056138-.115464-.09-.17-.0266611-.0717-.0637245-.139088-.11-.2l-26-29.84 25.1 2h.1c.0897402.009671.1802598.009671.27 0h.09l.17-.07.09-.06c.0510822-.034541.0980532-.074801.14-.12l.08-.09.09-.12c.0483515-.108365.0819833-.222713.1-.34.004941-.0365.004941-.0735 0-.11.009908-.089727.009908-.180273 0-.27v-.11c-.0295258-.096019-.0733511-.187041-.13-.27.0032828-.023218.0032828-.046782 0-.07l-22.49-28 21.64.16c.0894112.014559.1805888.014559.27 0h.1l.17-.07.09-.07.13-.11.08-.1.09-.11c.0585108-.10074.092749-.213726.1-.33.004853-.029804.004853-.060196 0-.09.0151644-.096072.0151644-.193928 0-.29 0 0 0-.07 0-.1-.0355424-.112864-.0859876-.220481-.15-.32l-19-26.23 18.19-1.65h.09.13l.13-.05.12-.07.11-.08.1-.09c.0362307-.034924.0666176-.07544.09-.12l.07-.08c.0496093-.100153.0801298-.20867.09-.32.0056777-.026364.0056777-.053636 0-.08.0149131-.106145.0149131-.213855 0-.32-.0046785-.019726-.0046785-.040274 0-.06-.0314894-.096755-.0716525-.190469-.12-.28l-15.42-24.59 14.74-3.39c.1367285-.0408124.265313-.1051046.38-.19l.06-.05c.0957276-.074684.1770543-.1661766.24-.27 0 0 0 0 0-.05s0 0 0 0c.0045429-.039871.0045429-.080129 0-.12.034282-.0931531.0545037-.1908912.06-.29.080027-.1913437.0836062-.4060957.01-.6zm-3.11-31.89-17.48-10.09 10.63-8.55zm-16.77-7.18 16.43 9.49-9.45 4.17zm16.2 36.41-24.05-13.88 13.84-6.11zm-2.46 117-49.78-28.74 26.59 2.13zm-41.77-51.23 42.15 24.34-22.52-1.81zm42.39 22-43.4-25 23.42.16zm-35.39-47.55 35.76 20.64-19.3-.14zm36 18.29-37-21.35 20.23-1.81zm-29-43.87 29.36 16.95-16.06 1.46zm29.62 14.6-30.53-17.63 17-3.91zm-22.6-40.17 22.91 13.23-12.78 2.94z" fill="#00b0ff"/><path d="m65.68 86.89c-.0087017-.099623-.0322976-.1973772-.07-.29 0 0 0-.06 0-.09l-11.83-23.15 11.3-5c.1097669-.0548931.2108513-.1256523.3-.21.0520963-.0555725.0989611-.1158273.14-.18 0 0 0 0 0-.06.0369634-.0726883.0638764-.1500631.08-.23.0056145-.0565276.0056145-.1134724 0-.17.0099829-.0696441.0099829-.1403559 0-.21.0048373-.0665789.0048373-.1334211 0-.2-.0047226-.0163321-.0047226-.0336679 0-.05l-8.14-22.13 7.8-6.27c.2244531-.1787852.3685279-.4395453.4004227-.7247225.0318948-.2851771-.0510128-.5713235-.2304227-.7952775-.3759759-.4686746-1.0603145-.5447122-1.53-.17l-7.23 5.81-4.9-13.32c-.0883087-.4152057-.4116576-.7401753-.8264166-.8305588-.4147591-.0903835-.8440021.0705826-1.0970616.4113981-.2530594.3408154-.2829998.7982684-.0765218 1.1691607l5.15 14-12.44 10c-.0988217.0821514-.1833056.1801527-.25.29v.07c-.0481461.0944374-.0818545.1955624-.1.3-.0049463.0498777-.0049463.1001223 0 .15-.0098366.0763511-.0098366.1536489 0 .23.0106354.0550342.0274068.1087026.05.16-.0057437.0397938-.0057437.0802062 0 .12l8.58 16.81-15.68 6.93s-.06 0-.09.06l-.21.15c-.0579697.0838163-.1250453.1609533-.2.23-.0193476.042254-.0360466.0856713-.05.13 0 0 0 .06-.05.1s0 .06 0 .09c-.0098614.0830416-.0098614.1669584 0 .25-.0049626.0598974-.0049626.1201026 0 .18.0193955.0867784.049633.1707714.09.25 0 0 0 .09.05.12l12 19.22-19 4.37h-.06c-.1020953.0344673-.1995092.0814947-.29.14l-.06.05c-.0984916.0786048-.1830117.1732673-.25.28v.05c-.0017246.0366464-.0017246.0733536 0 .11-.029247.0704927-.0494088.1444193-.06.22-.0197696.1191858-.0197696.2408142 0 .36v.08c.0355424.1128644.0859876.2204809.15.32l15.49 21.45-22.35 2c-.0432096-.004631-.0867904-.004631-.13 0h-.1c-.1132019.039116-.2207857.092908-.32.16-.08367.073635-.1576005.157647-.22.25v.05c.0019024.023295.0019024.046705 0 .07-.0411375.09208-.0681093.189852-.08.29-.0148844.112845-.0148844.227155 0 .34v.1c.0326274.096612.07984.187664.14.27v.06l19 23.63-25.75-.18c-.073229-.005533-.146771-.005533-.22 0h-.07c-.1189229.032534-.230804.086779-.33.16l-.08.07c-.0772569.062958-.1446685.13711-.2.22-.0405047.09999-.0706621.203865-.09.31v.05c-.0153166.106117-.0153166.213883 0 .32v.11c.0297694.087869.0700622.171812.12.25l.06.09 22.45 25.77-29.24-1.86c-.04316915-.005335-.08683085-.005335-.13 0-.08965853-.011087-.18034147-.011087-.27 0-.06773534.019655-.13188232.050041-.19.09-.0596871.02391-.11667204.054078-.17.09-.07371076.063688-.13772021.137804-.19.22 0 0-.06.05-.08.08-.03696339.072688-.06387635.150063-.08.23-.00452959.063252-.00452959.126748 0 .19v.16c-.00480433.079928-.00480433.160072 0 .24.02596391.061935.05603066.122068.09.18.02705069.063281.06056164.123601.1.18.05386584.063658.11810396.117753.19.16.03146735.041521.06847862.078533.11.11l59.58 34.39h.07.08c.1239863.050383.2561911.077502.39.08.1123566-.00362.22356-.023839.33-.06h.1c.0841132-.033161.1619096-.080516.23-.14h.05c.0832232-.071266.1541686-.155725.21-.25.0369262-.069186.0638607-.143255.08-.22 0-.06 0-.12.05-.18.004939-.069913.004939-.140087 0-.21.005429-.066556.005429-.133444 0-.2-.026067-.058663-.056138-.115464-.09-.17-.0266611-.0717-.0637245-.139088-.11-.2l-26-29.84 25.1 2h.1c.0897402.009671.1802598.009671.27 0h.09l.17-.07.09-.06c.0510822-.034541.0980532-.074801.14-.12l.08-.09.09-.12c.0483515-.108365.0819833-.222713.1-.34.004941-.0365.004941-.0735 0-.11.009908-.089727.009908-.180273 0-.27v-.11c-.0295258-.096019-.0733511-.187041-.13-.27.0032828-.023218.0032828-.046782 0-.07l-22.49-28 21.64.16c.0894112.014559.1805888.014559.27 0h.1l.17-.07.09-.07.13-.11.08-.1.09-.11c.0585108-.10074.092749-.213726.1-.33.004853-.029804.004853-.060196 0-.09.0151644-.096072.0151644-.193928 0-.29 0 0 0-.07 0-.1-.0355424-.112864-.0859876-.220481-.15-.32l-19-26.23 18.19-1.65h.09.13l.13-.05.12-.07.11-.08.1-.09c.0362307-.034924.0666176-.07544.09-.12l.07-.08c.0496093-.100153.0801298-.20867.09-.32.0056777-.026364.0056777-.053636 0-.08.0149131-.106145.0149131-.213855 0-.32-.0046785-.019726-.0046785-.040274 0-.06-.0314894-.096755-.0716525-.190469-.12-.28l-15.42-24.59 14.74-3.39c.1367285-.0408124.265313-.1051046.38-.19l.06-.05c.0957276-.074684.1770543-.1661766.24-.27 0 0 0 0 0-.05s0 0 0 0c.0045429-.039871.0045429-.080129 0-.12.034282-.0931531.0545037-.1908912.06-.29.080027-.1913437.0836062-.4060957.01-.6zm-3.11-31.89-17.48-10.09 10.63-8.55zm-16.77-7.18 16.43 9.49-9.45 4.17zm16.2 36.41-24.05-13.88 13.84-6.11zm-2.46 117-49.78-28.74 26.59 2.13zm-41.77-51.23 42.15 24.34-22.52-1.81zm42.39 22-43.4-25 23.42.16zm-35.39-47.55 35.76 20.64-19.3-.14zm36 18.29-37-21.35 20.23-1.81zm-29-43.87 29.36 16.95-16.06 1.46zm29.62 14.6-30.53-17.63 17-3.91zm-22.6-40.17 22.91 13.23-12.78 2.94z" fill="#000" opacity=".2"/><path d="m63.55 87.05c.0054963.0991088.025718.1968469.06.29v.12.05c.059966.1029858.1378576.1944238.23.27l.06.05c.1194203.0830727.250977.1471644.39.19l14.74 3.39-15.33 24.59c-.0483475.089531-.0885106.183245-.12.28-.0046785.019726-.0046785.040274 0 .06-.0149131.106145-.0149131.213855 0 .32v.08c.0180653.110851.0517327.218587.1.32l.06.08.09.12.11.09.11.08.12.07.13.05h.13.09l18.18 1.65-18.94 26.23c-.0686016.096915-.1193946.205274-.15.32v.1c-.0151644.096072-.0151644.193928 0 .29v.09c.0153485.115994.0526823.227996.11.33.0269498.03906.0570502.075849.09.11.0199311.03559.0433818.069091.07.1l.14.11.09.07.17.07h.09c.0927066.015296.1872934.015296.28 0l21.63-.16-22.49 28c-.0032828.023218-.0032828.046782 0 .07-.0566489.082959-.1004742.173981-.13.27-.0057979.036437-.0057979.073563 0 .11-.0149189.089382-.0149189.180618 0 .27v.42c.0159551.119019.0532166.234191.11.34l.09.12.08.09c.0419468.045199.0889178.085459.14.12l.08.06.17.07h.1c.0863563.010373.1736437.010373.26 0h.11l25.09-2-26 29.84c-.045823.062995-.0859797.129923-.12.2 0 .06-.06.11-.08.17-.0103178.066267-.0103178.133733 0 .2-.0098485.069654-.0098485.140346 0 .21-.004469.059917-.004469.120083 0 .18.0173234.075112.0407341.148688.07.22.0531872.096121.1245026.18102.21.25h.05c.0730955.057607.153875.104729.24.14h.09c.1068921.034388.2178444.054561.33.06.1338089-.002498.2660137-.029617.39-.08h.08.07l59.52-34.19.11-.11c.069737-.04523.133562-.098978.19-.16 0-.05.06-.12.1-.18.033969-.057932.064036-.118065.09-.18.004804-.079928.004804-.160072 0-.24.004646-.053232.004646-.106768 0-.16 0-.07 0-.12 0-.19-.020594-.078646-.047343-.15555-.08-.23l-.07-.08c-.055352-.079864-.119044-.153612-.19-.22-.054536-.033862-.111337-.063933-.17-.09-.059209-.038028-.123067-.068277-.19-.09-.08974-.009671-.18026-.009671-.27 0-.043192-.004958-.086808-.004958-.13 0l-29.18 2.34 22.46-25.77.06-.09c.049938-.078188.090231-.162131.12-.25v-.11c.01518-.106127.01518-.213873 0-.32v-.05c-.009923-.108133-.040474-.213364-.09-.31h-.05c-.05228-.082196-.116289-.156312-.19-.22l-.08-.07c-.099196-.073221-.211077-.127466-.33-.16h-.07c-.073229-.005533-.146771-.005533-.22 0l-25.75.18 19-23.63v-.06c.101705-.167745.166478-.355246.19-.55.0038-.033225.0038-.066775 0-.1.019408-.112502.019408-.227498 0-.34-.011891-.100148-.038862-.19792-.08-.29-.001902-.023295-.001902-.046705 0-.07v-.05c-.058845-.095044-.133209-.179549-.22-.25-.101608-.069142-.212785-.123046-.33-.16h-.1-.12l-22.35-2 15.49-21.45c.064012-.0995191.114458-.2071356.15-.32-.004476-.0264789-.004476-.0535211 0-.08.019953-.1191705.019953-.2408295 0-.36-.007047-.0751927-.023855-.1491477-.05-.22-.013941-.0396608-.034202-.0768068-.06-.11-.003838-.0164457-.003838-.0335543 0-.05-.060282-.108575-.141922-.2038216-.24-.28l-.07-.05c-.086934-.0584973-.181042-.1055512-.28-.14h-.06l-19-4.37 12-19.22c.0057437-.0397938.0057437-.0802062 0-.12.04464-.0773127.0751182-.1619743.09-.25.0098848-.0595929.0098848-.1204071 0-.18.0049411-.0832601.0049411-.1667399 0-.25 0 0 0-.06 0-.09s0-.06-.06-.1c.0030324-.0432803.0030324-.0867197 0-.13-.0240874-.0291269-.0508731-.0559126-.08-.08-.0352688-.0564565-.0791295-.107065-.13-.15-.0601296-.0581693-.1273212-.108563-.2-.15l-.09-.06-15.68-6.93 8.47-17.11s0-.08 0-.12c.0225932-.0512974.0393646-.1049658.05-.16.0099481-.076344.0099481-.153656 0-.23.0050126-.0498744.0050126-.1001256 0-.15-.0227415-.1032244-.0562586-.2037756-.1-.3 0 0 0 0 0-.07-.0668218-.1127732-.1551639-.2113086-.26-.29l-12.43-10 5.15-14c.0812577-.5115893-.2087602-1.0097015-.6937809-1.1915843s-1.0310532.0027106-1.3062191.4415843l-4.89 13.32-7.24-5.81c-.3018894-.2411543-.709501-.302934-1.0692915-.1620672-.3597905.1408667-.617099.462979-.6750001.845-.057901.3820211.0924021.7659129.3942916 1.0070672l7.8 6.27-8.13 22.11v.05c-.0048373.0665789-.0048373.1334211 0 .2-.004939.0699129-.004939.1400871 0 .21v.17c.0161236.0799369.0430366.1573117.08.23v.06c.0410389.0641727.0879037.1244275.14.18.0873169.0865668.1887751.1575875.3.21l11.29 5-11.82 23.15v.09c-.0377024.0926228-.0612983.190377-.07.29-.0081336.0714138.0021959.1437201.03.21zm10-50.74 10.63 8.55-17.51 10.14zm2.94 25.12-9.49-4.17 16.42-9.49zm1 2.81 13.84 6.11-24.05 13.88zm15.41 110.43 26.59-2.13-49.79 28.74zm-1.06-2.09-22.51 1.81 42.15-24.34zm-2.78-25.44 23.41-.16-43.39 25.02zm-1.06-2.14-19.29.14 35.76-20.64zm-2.8-25.4 20.23 1.84-37 21.35zm-1-2.27-16.06-1.46 29.35-16.95zm-2.85-25.33 17 3.91-30.5 17.59zm-1-2.46-12.79-2.94 22.92-13.23z" fill="#00b0ff"/><path d="m63.55 87.05c.0054963.0991088.025718.1968469.06.29v.12.05c.059966.1029858.1378576.1944238.23.27l.06.05c.1194203.0830727.250977.1471644.39.19l14.74 3.39-15.33 24.59c-.0483475.089531-.0885106.183245-.12.28-.0046785.019726-.0046785.040274 0 .06-.0149131.106145-.0149131.213855 0 .32v.08c.0180653.110851.0517327.218587.1.32l.06.08.09.12.11.09.11.08.12.07.13.05h.13.09l18.18 1.65-18.94 26.23c-.0686016.096915-.1193946.205274-.15.32v.1c-.0151644.096072-.0151644.193928 0 .29v.09c.0153485.115994.0526823.227996.11.33.0269498.03906.0570502.075849.09.11.0199311.03559.0433818.069091.07.1l.14.11.09.07.17.07h.09c.0927066.015296.1872934.015296.28 0l21.63-.16-22.49 28c-.0032828.023218-.0032828.046782 0 .07-.0566489.082959-.1004742.173981-.13.27-.0057979.036437-.0057979.073563 0 .11-.0149189.089382-.0149189.180618 0 .27v.42c.0159551.119019.0532166.234191.11.34l.09.12.08.09c.0419468.045199.0889178.085459.14.12l.08.06.17.07h.1c.0863563.010373.1736437.010373.26 0h.11l25.09-2-26 29.84c-.045823.062995-.0859797.129923-.12.2 0 .06-.06.11-.08.17-.0103178.066267-.0103178.133733 0 .2-.0098485.069654-.0098485.140346 0 .21-.004469.059917-.004469.120083 0 .18.0173234.075112.0407341.148688.07.22.0531872.096121.1245026.18102.21.25h.05c.0730955.057607.153875.104729.24.14h.09c.1068921.034388.2178444.054561.33.06.1338089-.002498.2660137-.029617.39-.08h.08.07l59.52-34.19.11-.11c.069737-.04523.133562-.098978.19-.16 0-.05.06-.12.1-.18.033969-.057932.064036-.118065.09-.18.004804-.079928.004804-.160072 0-.24.004646-.053232.004646-.106768 0-.16 0-.07 0-.12 0-.19-.020594-.078646-.047343-.15555-.08-.23l-.07-.08c-.055352-.079864-.119044-.153612-.19-.22-.054536-.033862-.111337-.063933-.17-.09-.059209-.038028-.123067-.068277-.19-.09-.08974-.009671-.18026-.009671-.27 0-.043192-.004958-.086808-.004958-.13 0l-29.18 2.34 22.46-25.77.06-.09c.049938-.078188.090231-.162131.12-.25v-.11c.01518-.106127.01518-.213873 0-.32v-.05c-.009923-.108133-.040474-.213364-.09-.31h-.05c-.05228-.082196-.116289-.156312-.19-.22l-.08-.07c-.099196-.073221-.211077-.127466-.33-.16h-.07c-.073229-.005533-.146771-.005533-.22 0l-25.75.18 19-23.63v-.06c.101705-.167745.166478-.355246.19-.55.0038-.033225.0038-.066775 0-.1.019408-.112502.019408-.227498 0-.34-.011891-.100148-.038862-.19792-.08-.29-.001902-.023295-.001902-.046705 0-.07v-.05c-.058845-.095044-.133209-.179549-.22-.25-.101608-.069142-.212785-.123046-.33-.16h-.1-.12l-22.35-2 15.49-21.45c.064012-.0995191.114458-.2071356.15-.32-.004476-.0264789-.004476-.0535211 0-.08.019953-.1191705.019953-.2408295 0-.36-.007047-.0751927-.023855-.1491477-.05-.22-.013941-.0396608-.034202-.0768068-.06-.11-.003838-.0164457-.003838-.0335543 0-.05-.060282-.108575-.141922-.2038216-.24-.28l-.07-.05c-.086934-.0584973-.181042-.1055512-.28-.14h-.06l-19-4.37 12-19.22c.0057437-.0397938.0057437-.0802062 0-.12.04464-.0773127.0751182-.1619743.09-.25.0098848-.0595929.0098848-.1204071 0-.18.0049411-.0832601.0049411-.1667399 0-.25 0 0 0-.06 0-.09s0-.06-.06-.1c.0030324-.0432803.0030324-.0867197 0-.13-.0240874-.0291269-.0508731-.0559126-.08-.08-.0352688-.0564565-.0791295-.107065-.13-.15-.0601296-.0581693-.1273212-.108563-.2-.15l-.09-.06-15.68-6.93 8.47-17.11s0-.08 0-.12c.0225932-.0512974.0393646-.1049658.05-.16.0099481-.076344.0099481-.153656 0-.23.0050126-.0498744.0050126-.1001256 0-.15-.0227415-.1032244-.0562586-.2037756-.1-.3 0 0 0 0 0-.07-.0668218-.1127732-.1551639-.2113086-.26-.29l-12.43-10 5.15-14c.0812577-.5115893-.2087602-1.0097015-.6937809-1.1915843s-1.0310532.0027106-1.3062191.4415843l-4.89 13.32-7.24-5.81c-.3018894-.2411543-.709501-.302934-1.0692915-.1620672-.3597905.1408667-.617099.462979-.6750001.845-.057901.3820211.0924021.7659129.3942916 1.0070672l7.8 6.27-8.13 22.11v.05c-.0048373.0665789-.0048373.1334211 0 .2-.004939.0699129-.004939.1400871 0 .21v.17c.0161236.0799369.0430366.1573117.08.23v.06c.0410389.0641727.0879037.1244275.14.18.0873169.0865668.1887751.1575875.3.21l11.29 5-11.82 23.15v.09c-.0377024.0926228-.0612983.190377-.07.29-.0081336.0714138.0021959.1437201.03.21zm10-50.74 10.63 8.55-17.51 10.14zm2.94 25.12-9.49-4.17 16.42-9.49zm1 2.81 13.84 6.11-24.05 13.88zm15.41 110.43 26.59-2.13-49.79 28.74zm-1.06-2.09-22.51 1.81 42.15-24.34zm-2.78-25.44 23.41-.16-43.39 25.02zm-1.06-2.14-19.29.14 35.76-20.64zm-2.8-25.4 20.23 1.84-37 21.35zm-1-2.27-16.06-1.46 29.35-16.95zm-2.85-25.33 17 3.91-30.5 17.59zm-1-2.46-12.79-2.94 22.92-13.23z" fill="#000" opacity=".2"/><g fill="#00b0ff"><path d="m64.62 216.17c-1.4966917 0-2.71-1.213308-2.71-2.71v-188.08c0-1.4966917 1.2133083-2.71 2.71-2.71s2.71 1.2133083 2.71 2.71v188.08c0 .718737-.285517 1.408036-.7937406 1.916259-.5082236.508224-1.1975227.793741-1.9162594.793741z"/><path d="m3 180.59c-.85850169-.001818-1.66575594-.408834-2.17770225-1.097993-.51194631-.689158-.66848821-1.57956-.42229775-2.402007l48.42-160.09c.5063697-1.3225423 1.9456607-2.0322016 3.3031081-1.6286362 1.3574473.4035654 2.1752812 1.7842619 1.8768919 3.1686362l-48.42 160.12c-.34545143 1.138281-1.39049571 1.920039-2.58 1.93z"/><path d="m126.26 180.590008c.264544 0 .527481-.041153.78-.120008.688412-.207933 1.265951-.68096 1.605435-1.314915.339485-.633954.413075-1.376847.204565-2.065085l-48.43-160.09c-.2404346-.9724958-.9977483-1.7330282-1.9692156-1.977585-.9714674-.2445568-1.9986075.0667579-2.6708355.8095003-.6722279.7427425-.8798795 1.7957451-.5399489 2.7380847l48.42 160.12c.358367 1.133438 1.411261 1.90286 2.6 1.900008z"/><path d="m63.35 27.07-15.26-8.81c-.7456298-.4882848-1.216537-1.3003216-1.27-2.19v-3.93c.0641511-.873075.5343731-1.6654176 1.27-2.14l15.26-8.82c.7960138-.39953046 1.7339862-.39953046 2.53 0l15.27 8.82c.746631.4859517 1.2151507 1.3002835 1.26 2.19v3.93c-.0496231.8883045-.516989 1.700631-1.26 2.19l-15.27 8.81c-.8038907.3838867-1.7419045.3653488-2.53-.05z"/></g><path d="m63.35 27.07-15.26-8.81c-.7456298-.4882848-1.216537-1.3003216-1.27-2.19v-3.93c.0641511-.873075.5343731-1.6654176 1.27-2.14l15.26-8.82c.7960138-.39953046 1.7339862-.39953046 2.53 0l15.27 8.82c.746631.4859517 1.2151507 1.3002835 1.26 2.19v3.93c-.0496231.8883045-.516989 1.700631-1.26 2.19l-15.27 8.81c-.8038907.3838867-1.7419045.3653488-2.53-.05z" fill="#000" opacity=".3"/><path d="m48.09 10 15.26-8.82c.7960138-.39953046 1.7339862-.39953046 2.53 0l15.27 8.82c.7.4.7 1 0 1.46l-15.27 8.81c-.7960138.3995305-1.7339862.3995305-2.53 0l-15.26-8.81c-.7-.46-.7-1.11 0-1.46z" fill="#00b0ff" opacity=".5"/><path d="m64.62 20.52v6.8501696c-.4414498.004769-.8774222-.0982166-1.27-.3001696l-15.26-8.82c-.7492255-.4848699-1.2212869-1.2988969-1.27-2.19v-3.92c.0423082-.7762975.4043469-1.5003749 1-2-.45.41-.38.93.23 1.3l15.26 8.82c.4080036.1950016.8584504.2844033 1.31.26z" fill="#000" opacity=".3"/></g><g transform="translate(305)"><path d="m29.83 31.93c-1.1190794-.6404682-2.5005618-.6096831-3.59.08-3.39 1.77-6.32 7.33-6.55 12.43-.13 3 .73 5.21 2.16 6.1.62.39 3.06 1.95 3.71 2.35 1.1127547.6276323 2.4803807.5930575 3.56-.09 3.4-1.77 6.33-7.33 6.55-12.43.13-3-.71-5.18-2.12-6.09z" fill="#00b0ff"/><path d="m29.83 31.93c-1.1190794-.6404682-2.5005618-.6096831-3.59.08-3.39 1.77-6.32 7.33-6.55 12.43-.13 3 .73 5.21 2.16 6.1.62.39 3.06 1.95 3.71 2.35 1.1127547.6276323 2.4803807.5930575 3.56-.09 3.4-1.77 6.33-7.33 6.55-12.43.13-3-.71-5.18-2.12-6.09z" fill="#000" opacity=".3"/><path d="m34.38 18.17c-2.56-1.61-5.82-1.66-9.44.22-6.19 3.22-11.8 11.24-14.86 20.31-.62 1.84-.42 3.63.46 4.24 1 .71 2.8 1.72 3.68 2.32 1.1.76 2.84-.64 3.62-3 2.16-6.38 6.16-12.03 10.47-14.26 1.4017739-.8031993 3.0276412-1.1262658 4.63-.92.56664.7523544 1.018246 1.5847924 1.34 2.47.1101701.3316588.3240188.6191275.61.82l3.7 2.34c.79.5 2-.1 2.92-1.59.9512564-1.4446502 1.2557739-3.2210018.84-4.9-.7672725-2.2802565-2.2465721-4.2538245-4.22-5.63z" fill="#00b0ff"/><path d="m34.38 18.17c-2.56-1.61-5.82-1.66-9.44.22-6.19 3.22-11.8 11.24-14.86 20.31-.62 1.84-.42 3.63.46 4.24 1 .71 2.8 1.72 3.68 2.32 1.1.76 2.84-.64 3.62-3 2.16-6.38 6.16-12.03 10.47-14.26 1.4017739-.8031993 3.0276412-1.1262658 4.63-.92.56664.7523544 1.018246 1.5847924 1.34 2.47.1101701.3316588.3240188.6191275.61.82l3.7 2.34c.79.5 2-.1 2.92-1.59.9512564-1.4446502 1.2557739-3.2210018.84-4.9-.7672725-2.2802565-2.2465721-4.2538245-4.22-5.63z" fill="#000" opacity=".3"/><path d="m48.7 11.82c-1.283926-2.83549746-3.3299132-5.25883254-5.91-7l-3.79-2.37c-4.12-2.6-9.37-2.7-15.18.32-9.21 4.8-17.62 16.24-22.74 29.53-.75 2-.64 4 .3 4.62 1.06.75 2.72 1.66 3.67 2.32 1.07.75 2.72-.55 3.57-2.77 4.14-10.87 11-20.23 18.54-24.14 3.88-2 7.45-2.33 10.47-1.22 1.2901063 1.2662128 2.3433547 2.7529526 3.11 4.39.1236695.2722024.3211331.5043088.57.67l3.68 2.33c.8.51 2-.06 2.92-1.56 1.09-1.67 1.4-3.88.79-5.12z" fill="#00b0ff"/><path d="m48.7 11.82c-1.283926-2.83549746-3.3299132-5.25883254-5.91-7l-3.79-2.37c-4.12-2.6-9.37-2.7-15.18.32-9.21 4.8-17.62 16.24-22.74 29.53-.75 2-.64 4 .3 4.62 1.06.75 2.72 1.66 3.67 2.32 1.07.75 2.72-.55 3.57-2.77 4.14-10.87 11-20.23 18.54-24.14 3.88-2 7.45-2.33 10.47-1.22 1.2901063 1.2662128 2.3433547 2.7529526 3.11 4.39.1236695.2722024.3211331.5043088.57.67l3.68 2.33c.8.51 2-.06 2.92-1.56 1.09-1.67 1.4-3.88.79-5.12z" fill="#000" opacity=".3"/><g fill="#00b0ff"><path d="m35.67 40.37c-.22 5.1-3.15 10.66-6.55 12.43s-6-.94-5.74-6 3.16-10.66 6.55-12.43 5.96.9 5.74 6z"/><path d="m28.63 20.72c-6.19 3.22-11.8 11.28-14.86 20.28-.62 1.84-.42 3.63.46 4.23 1.1.76 2.84-.64 3.62-3 2.15-6.35 6.15-12 10.46-14.23s8-.56 9.66 3.88c.6 1.61 2.31 1.22 3.54-.76.9512564-1.4446502 1.2557739-3.2210018.84-4.9-2.35-6.31-7.53-8.72-13.72-5.5z"/><path d="m27.54 5.1c-9.2 4.79-17.61 16.24-22.73 29.53-.75 1.95-.65 4 .3 4.62 1.07.75 2.72-.55 3.57-2.77 4.14-10.87 11-20.23 18.54-24.14s13.9-1.45 17.27 5.5c.69 1.42 2.29 1 3.48-.89 1-1.69 1.33-3.9.72-5.14-4.12-8.48-11.92-11.51-21.15-6.71z"/></g></g><g transform="translate(307 287)"><path d="m10.86 106.06-7.86-4.54c-1.28082981-.831598-2.0872206-2.2251303-2.17-3.75v-37.21c.0827794-1.5248697.88917019-2.9184022 2.17-3.75l97.22-56.13c1.360966-.68959139 2.969034-.68959139 4.33 0l7.85 4.53c1.28083.83159784 2.087221 2.22513032 2.17 3.75v37.22c-.083697 1.5220693-.88539 2.9138967-2.16 3.75l-97.23 56.13c-1.3582473.686218-2.9617527.686218-4.32 0z" fill="#00b0ff"/><path d="m15.19 63.84 97.22-56.13c1.2-.69 2.17-.13 2.17 1.25v37.22c-.083697 1.5220693-.88539 2.9138967-2.16 3.75l-97.23 56.13c-1.19.69-2.16.13-2.16-1.25v-37.22c.0836972-1.5220693.8853897-2.9138967 2.16-3.75z" fill="#00b0ff"/><path d="m14.69 106.29c-1.2538338.454255-2.639539.37104-3.83-.23l-7.86-4.54c-1.28082981-.831598-2.0872206-2.2251303-2.17-3.75v-37.21c.02331559-.7537639.24399648-1.4882175.64-2.13l12.18 7c-.3886996.6480937-.6055439 1.3846758-.63 2.14v37.21c-.02 1.22.72 1.79 1.67 1.51z" fill="#000" opacity=".15"/><g fill="#fff"><path d="m114.56 8.62c-.15-1.13-1.06-1.53-2.15-.9l-97.22 56.13c-.6346354.4026847-1.1601548.9556823-1.53 1.61l-12.18-7c.36364105-.6615401.89030167-1.2191807 1.53-1.62l97.22-56.13c1.360966-.68959139 2.969034-.68959139 4.33 0l7.85 4.54c1.171616.75824195 1.956153 1.98795873 2.15 3.37z" opacity=".4"/><path d="m38 80.22c.1578392-.1367323.3921608-.1367323.55 0 .1654182.1981176.2478303.4525202.23.71v4.69c.0010201.346559-.0776747.6887104-.23 1-.111821.2735395-.3034895.5070265-.55.67l-13.31 7.71c-.1545849.1352734-.3854151.1352734-.54 0-.177142-.1918781-.2643935-.4499972-.24-.71v-28.64c-.0012826-.3477486.0810287-.6907124.24-1 .1051972-.2744862.2941247-.5088962.54-.67l3.77-2.18c.1561479-.1310478.3838521-.1310478.54 0 .1713595.1947869.254596.4517345.23.71v22.71z"/><path d="m43.46 84.15c-.1578392.1367323-.3921608.1367323-.55 0-.1677648-.1963899-.247327-.4531591-.22-.71v-28.63c-.0023956-.3455937.0727844-.6873208.22-1 .1149115-.2716839.3059116-.5043568.55-.67l3.77-2.17c.1528436-.1398305.3871564-.1398305.54 0 .1730435.1898219.2567355.4445365.23.7v28.59c.0032273.3468027-.0755828.6894555-.23 1-.1080562.2728304-.29635.5064542-.54.67z"/><path d="m59.56 74.86c-.75.43-1.25.13-1.52-.89l-5.87-24.28c0-.18-.06-.3-.07-.35-.0048254-.0565639-.0048254-.1134361 0-.17.0023135-.2764459.0636842-.5492047.18-.8.0952598-.2193381.2514356-.4067491.45-.54l3.62-2.09c.38-.22.66-.26.82-.1.1563301.1464672.2614929.3392657.3.55l4 17.17 4-21.78c.057192-.3126117.1581866-.6155954.3-.9.1815354-.359419.467333-.6556726.82-.85l3.63-2.09c.1252683-.1120434.3147317-.1120434.44 0 .142691.1576569.2117518.3684739.19.58.0043606.0599208.0043606.1200792 0 .18 0 .07 0 .21-.07.44l-5.86 31c-.1050033 1.0623127-.6625042 2.0279189-1.53 2.65z"/><path d="m89.31 50.6c.1578392-.1367323.3921608-.1367323.55 0 .1654182.1981176.2478303.4525202.23.71v4.69c-.000384.3464003-.0790071.6882398-.23 1-.111821.2735395-.3034895.5070265-.55.67l-13.62 7.87c-.1578392.1367323-.3921608.1367323-.55 0-.1654182-.1981176-.2478303-.4525202-.23-.71v-28.62c.000384-.3464003.0790071-.6882398.23-1 .1084321-.2755453.3008619-.5099597.55-.67l13.39-7.74c.1578392-.1367323.3921608-.1367323.55 0 .1654182.1981176.2478303.4525202.23.71v4.69c.0010201.346559-.0776747.6887104-.23 1-.111821.2735395-.3034895.5070265-.55.67l-8.85 5.13v4.79l8.22-4.75c.1545849-.1352734.3854151-.1352734.54 0 .177142.1918781.2643935.4499972.24.71v4.69c.0012826.3477486-.0810287.6907124-.24 1-.1051972.2744862-.2941247.5088962-.54.67l-8.22 4.75v4.95z"/><path d="m101.49 27.88c3.54-2 6.41-.38 6.41 3.7-.245495 4.5128038-2.626 8.6387637-6.41 11.11-3.54 2-6.41.39-6.41-3.7.2454955-4.5128038 2.6259998-8.6387637 6.41-11.11z"/></g></g></g></svg>