<svg height="397" width="450" xmlns="http://www.w3.org/2000/svg"><g fill="none"><g fill="#1e2f37"><path d="M150.32 32.936a365.544 365.544 0 0 0-110.021 95.745c-15.176 19.876-23.295-49.366-7.746-76.309S94.787 2.968 141.443 2.968 181.6 15.32 150.32 32.936z"/><path d="M47.959 337.826c-74.787-39.16-52.536-136.532 7.391-207.01C155.02 13.586 289.924-36.154 374.812 29.92c84.887 66.074 86.61 226.915 57.083 273.83-29.528 46.915-95.477 68.19-210.17 68.19S83.988 356.686 47.96 337.825z"/></g><g transform="translate(0 135.957)"><path d="M440.57 147.983a93.954 93.954 0 0 1-6.54 16.066 50.77 50.77 0 0 1-2.145 3.715 87.992 87.992 0 0 1-3.016 4.51 92.794 92.794 0 0 1-3.935 5.208 101.254 101.254 0 0 1-6.434 7.277c-3.17 3.255-6.54 6.31-10.091 9.143-15.32 12.265-34.986 21.705-59.592 28.503 0 0-39.255 12.284-123.941 12.284S92.872 222.405 92.872 222.405c-.957-.287-1.8-.584-2.68-.89-13.596-4.644-24.233-10.159-35.618-16.143l-6.702-3.504c-14.199-7.506-24.893-17.08-32.553-28.206a80.138 80.138 0 0 1-5.553-9.44c-11.068-22.204-11.68-49.146-4.529-77.018.479-1.915 1.002-3.83 1.57-5.744a200.384 200.384 0 0 1 9.843-26.32c.115-.269.24-.527.364-.795l.43.296c.345.24.67.48.958.728.287.25.642.488.958.737a36.287 36.287 0 0 1 4.366 4.117c.507.565.957 1.15 1.484 1.743.268.335.536.68.794 1.034l.623.862c.255.364.504.737.746 1.12l.632 1.015c.173.287.345.584.508.88.057.096.115.192.163.288.172.306.335.622.497.957.163.335.364.718.537 1.082.172.364.296.632.43.958.355.794.67 1.608.958 2.432.143.373.268.756.392 1.149v.076c.115.354.22.728.326 1.092l.23.861.143.575c.154.641.288 1.302.412 1.915 0 .249.086.498.125.756s.086.536.124.814.086.747.124 1.12c.039.374.077.804.115 1.216.058.862.087 1.723.087 2.604a36.47 36.47 0 0 1-3.332 15.252 37.11 37.11 0 0 1-6.597 9.814 25.707 25.707 0 0 1 12.58 8.924 36.766 36.766 0 0 1 42.76.545c.47.345.958.7 1.37 1.063a36.383 36.383 0 0 1 4.93 4.864c.374.44.728.9 1.082 1.36.517.689 1.015 1.397 1.494 2.125a34.679 34.679 0 0 1 1.752 3.007c.268.517.517 1.034.766 1.57.479 1.053.957 2.144 1.302 3.255a35.512 35.512 0 0 1 1.915 11.49c0 1.449-.086 2.897-.259 4.337a35.253 35.253 0 0 1-2.02 8.176c-.105.259-.2.517-.306.766a16.277 16.277 0 0 1 10.761 4.318 25.918 25.918 0 0 1 11.93-7.018l.824-.21a17.694 17.694 0 0 1 2.48-.46c.296-.057.593-.086.89-.115.297-.029.833-.076 1.254-.096.421-.019.91 0 1.37 0a25.851 25.851 0 0 1 18.411 7.66 25.229 25.229 0 0 1 6.606 11.729 37.264 37.264 0 0 1 19.226-5.285c20.508 0 37.149 16.4 37.149 36.641v.555a16.324 16.324 0 0 1 23.936 7.22 16.277 16.277 0 0 1 25.851-5.793 31.596 31.596 0 0 1-.22-3.59 30.973 30.973 0 0 1 8.77-21.61l.575-.479a31.94 31.94 0 0 1 1.675-1.541c.383-.326.776-.642 1.168-.958l.613-.46c.402-.296.823-.593 1.245-.87a29.977 29.977 0 0 1 2.613-1.57l.68-.355c.46-.23.958-.45 1.389-.66.43-.211.957-.412 1.426-.594.47-.182.958-.364 1.455-.527a32.17 32.17 0 0 1 30.907 5.936 36.1 36.1 0 0 1 2.087 1.915 31.816 31.816 0 0 1 3.571 4.376 16.277 16.277 0 0 1 6.865-3.198 33.338 33.338 0 0 1-.91-3.524c-.076-.402-.153-.804-.22-1.216a31.452 31.452 0 0 1-.392-4.969 31.098 31.098 0 0 1 .258-4.03c.07-.562.157-1.127.259-1.695.28-1.581.687-3.137 1.216-4.653.191-.575.402-1.14.632-1.695.172-.412.354-.823.536-1.235a32.4 32.4 0 0 1 6.702-9.575 32.927 32.927 0 0 1 23.18-9.469c1.744.003 3.485.137 5.208.402.833.134 1.666.297 2.48.489l1.226.316.957.287c.485.153.964.316 1.436.488l1.168.45c.383.153.766.326 1.15.498l.832.393.22.105a32.553 32.553 0 0 1 16.133 17.99 16.21 16.21 0 0 1 10.935-4.212c.488 0 .957 0 1.445.057-.05-.416-.075-.835-.076-1.254a13.404 13.404 0 0 1 4.96-10.389l-1.207-.325a29.901 29.901 0 0 1-8.77-4.242c-.661-.469-1.302-.957-1.915-1.464a25.995 25.995 0 0 1-1.79-1.619 29.087 29.087 0 0 1-8.828-20.881 27.23 27.23 0 0 1 .258-3.773c.077-.565.173-1.13.278-1.695.105-.564.278-1.292.45-1.914a26.249 26.249 0 0 1-2.279-.537l-1.1-.335a30.321 30.321 0 0 1-2.155-.814c-.7-.296-1.388-.631-2.059-.957a26.895 26.895 0 0 1-4.682-3.15 26.11 26.11 0 0 1-9.383-20.04v-1.416c0-.335 0-.67.077-.958V85.3a.124.124 0 0 1 0-.058c0-.354.077-.689.134-1.034v-.258c.057-.383.134-.756.21-1.12s.173-.785.269-1.178.163-.603.258-.9c.096-.297.144-.498.22-.737.202-.613.431-1.226.68-1.82.096-.239.201-.478.307-.717l.115-.24c.105-.23.21-.46.325-.68.297-.612.632-1.216.958-1.81l.296-.478c.043-.077.09-.15.144-.22.258-.412.527-.804.823-1.197.042-.071.09-.139.144-.2l.383-.508c.391-.52.81-1.019 1.254-1.494.201-.22.402-.44.613-.651.21-.21.412-.43.632-.632.22-.201.43-.421.651-.613.22-.191.43-.392.651-.584a23.266 23.266 0 0 1 2.135-1.627 26.732 26.732 0 0 1 15.252-4.73c1.683.004 3.363.161 5.017.469v-.47c-.003-.591.032-1.183.106-1.77 0-.23.047-.45.086-.67a2.93 2.93 0 0 1 .048-.307c.067-.412.153-.814.258-1.216.129-.486.282-.966.46-1.436.086-.24.182-.479.277-.718.096-.24.163-.374.25-.556s.133-.287.21-.43a15.74 15.74 0 0 1 2.413-3.505l.335-.354c.263-.286.541-.557.833-.814.146-.139.3-.27.46-.392l.44-.355c.454-.369.934-.705 1.436-1.005l.507-.306.517-.278c.182-.105.374-.201.556-.287.354-.163.699-.316 1.063-.45l.555-.21c.335-.116.67-.23 1.024-.317s.517-.143.785-.2l.527-.106a9.89 9.89 0 0 1 1.206-.182l.623-.058h1.264a16.171 16.171 0 0 1 10.484 3.83c.312-6.325 5.549-11.283 11.882-11.25h.383a25.995 25.995 0 0 1-3.38-12.82A26.387 26.387 0 0 1 438.578.402a321.042 321.042 0 0 1 10.36 73.858c.87 28.388-2.337 54.488-8.369 73.723z" fill="#37474f"/><g fill="#263238"><path d="M306.44 217.273H272.06c.639-9.022 8.145-16.016 17.19-16.016s16.552 6.994 17.191 16.016zm-216.249 4.242c-13.595-4.644-24.232-10.159-35.617-16.143a22.021 22.021 0 0 1 35.58 16.143zm96.856-.345H123.06a14.802 14.802 0 0 1-2.968-8.894c.086-8.224 6.726-14.871 14.95-14.967 8.222-.097 15.016 6.393 15.295 14.612a22.107 22.107 0 0 1 36.709 9.25zM434.03 164.05a50.715 50.715 0 0 1-2.145 3.715 87.992 87.992 0 0 1-3.016 4.51 92.794 92.794 0 0 1-3.935 5.208 101.254 101.254 0 0 1-6.434 7.277c-3.17 3.255-6.54 6.31-10.091 9.143-15.32 12.265-34.986 21.705-59.592 28.503l-19.953 3.495-.096-3.495c9.695-17.3 31.459-23.648 48.935-14.275a16.736 16.736 0 0 1 15.808-11.135c1.56.005 3.113.224 4.615.65 1.181-18.94 16.927-33.673 35.904-33.596zm6.54-16.066a23.802 23.802 0 0 1-4.09-44.148 16.794 16.794 0 0 1-6.07-12.878 17.062 17.062 0 0 1 17.187-16.956c.517 0 1.024 0 1.522.067.69 28.58-2.518 54.68-8.55 73.915zM26.051 173.997a23.879 23.879 0 0 0-13.136-21.246 16.794 16.794 0 0 0 6.07-12.916A17.062 17.062 0 0 0 1.8 122.878c-.43 0-.852 0-1.264.058.086 14.812 3.007 28.8 9.23 41.285a80.138 80.138 0 0 0 5.553 9.44 81.306 81.306 0 0 0 8.474 10.38 23.534 23.534 0 0 0 2.26-10.044zm381.916-81.201a5.266 5.266 0 1 1 5.266 5.199 5.228 5.228 0 0 1-5.266-5.2zM40.672 147.744a5.266 5.266 0 1 1 5.266 5.199 5.228 5.228 0 0 1-5.266-5.2zm65.404 54.22a5.534 5.534 0 1 1 5.534 5.457 5.486 5.486 0 0 1-5.534-5.457zm210.188 8.53a5.534 5.534 0 1 1 5.534 5.458 5.496 5.496 0 0 1-5.534-5.457z"/></g><ellipse cx="397.168" cy="28.36" fill="#455a64" rx="4.136" ry="4.079"/><path d="M299.46 148.96a3.83 3.83 0 1 1 3.83 3.734 3.753 3.753 0 0 1-3.83-3.734z" fill="#455a64"/><ellipse cx="110.978" cy="137.164" fill="#455a64" rx="3.073" ry="3.035"/><path d="M42.252 91.637a5.87 5.87 0 1 1 5.87 5.745 5.83 5.83 0 0 1-5.87-5.745z" fill="#455a64"/><path d="M252.057 211.174c-.239-.239-.497-.46-.746-.68a31.27 31.27 0 0 0 .603 3.428c0-.928.057-1.838.143-2.748z" fill="#8e6eff"/><path d="M309.255 189.488a31.854 31.854 0 0 0-58.174 17.416c.004 1.2.08 2.4.23 3.59.249.22.507.441.746.68a31.845 31.845 0 0 1 54.48-18.928 31.118 31.118 0 0 1 8.08 14.697 30.888 30.888 0 0 0-5.362-17.455zm48.514-42.041c1.45.003 2.9.099 4.337.287a33.06 33.06 0 0 0-14.716-3.447c-17.975-.122-32.647 14.349-32.773 32.324a31.95 31.95 0 0 0 1.503 9.718 32.716 32.716 0 0 0 26.924 22.318 32.85 32.85 0 0 1-7.459-5.094 32.16 32.16 0 0 1-9.68-16.219 31.826 31.826 0 0 1-.91-7.564c.127-17.975 14.8-32.445 32.774-32.323zm52.976-2.528c-16.389.112-29.766-13.081-29.882-29.47 0-.402 0-.795.057-1.197.091-2.25.442-4.483 1.044-6.654-12.414-2.407-21.426-13.207-21.571-25.851a26.023 26.023 0 0 1 6.5-17.234 26.215 26.215 0 0 0 7.086 49.308 29.059 29.059 0 0 0-.958 7.401c.069 13.549 9.35 25.312 22.51 28.532a13.806 13.806 0 0 1 16.698-.545 29.815 29.815 0 0 0 12.255-7.66 30.093 30.093 0 0 1-13.74 3.37zm-7.296-67.567c.402-.076.804-.182 1.197-.287-.479 0-.958-.086-1.417-.163.076.153.153.297.22.45z" fill="#8e6eff"/><path d="M403.229 76.902a16.104 16.104 0 0 1-13.462-13.021 15.597 15.597 0 0 1-.268-2.777c-.004-1.861.32-3.708.957-5.457a16.152 16.152 0 0 1 10.867-9.948c-.363 0-.727-.058-1.1-.058a16.277 16.277 0 0 0-14.956 9.89 15.673 15.673 0 0 0-1.254 6.148v.488c.335 8.69 7.503 15.549 16.2 15.501a15.98 15.98 0 0 0 3.198-.316c-.03-.153-.106-.297-.182-.45zM137.997 182.7a37.015 37.015 0 0 1 7.142-5.553 25.717 25.717 0 0 0-25.056-19.484c-2.305.018-4.597.34-6.817.957 13.232.419 23.96 10.863 24.73 24.08zM56.89 112.222h-.785c16.864 3.294 29.05 18.043 29.107 35.225a35.291 35.291 0 0 1-4.385 17.08 36.086 36.086 0 0 1-5.745 7.794 36.479 36.479 0 0 1-25.478 10.934c2.4.478 4.84.718 7.286.718a36.633 36.633 0 0 0 17.445-4.385 36.172 36.172 0 0 0 16.344-18.191 35.263 35.263 0 0 0 2.585-13.29c0-19.81-16.286-35.885-36.374-35.885zm-23.648-27.42a36.546 36.546 0 0 1-9.939 25.065 25.707 25.707 0 0 0-14.256-.498 36.785 36.785 0 0 0 16.276-30.514 36.488 36.488 0 0 0-8.712-23.687c.115-.268.24-.527.364-.795a36.728 36.728 0 0 1 16.267 30.428z" fill="#8e6eff"/><g fill="#000" opacity=".3"><path d="M252.057 211.174c-.239-.239-.497-.46-.746-.68a31.27 31.27 0 0 0 .603 3.428c0-.928.057-1.838.143-2.748z"/><path d="M309.255 189.488a31.854 31.854 0 0 0-58.174 17.416c.004 1.2.08 2.4.23 3.59.249.22.507.441.746.68a31.845 31.845 0 0 1 54.48-18.928 31.118 31.118 0 0 1 8.08 14.697 30.888 30.888 0 0 0-5.362-17.455zm48.514-42.041c1.45.003 2.9.099 4.337.287a33.06 33.06 0 0 0-14.716-3.447c-17.975-.122-32.647 14.349-32.773 32.324a31.95 31.95 0 0 0 1.503 9.718 32.716 32.716 0 0 0 26.924 22.318 32.85 32.85 0 0 1-7.459-5.094 32.16 32.16 0 0 1-9.68-16.219 31.826 31.826 0 0 1-.91-7.564c.127-17.975 14.8-32.445 32.774-32.323zm52.976-2.528c-16.389.112-29.766-13.081-29.882-29.47 0-.402 0-.795.057-1.197.091-2.25.442-4.483 1.044-6.654-12.414-2.407-21.426-13.207-21.571-25.851a26.023 26.023 0 0 1 6.5-17.234 26.215 26.215 0 0 0 7.086 49.308 29.059 29.059 0 0 0-.958 7.401c.069 13.549 9.35 25.312 22.51 28.532a13.806 13.806 0 0 1 16.698-.545 29.815 29.815 0 0 0 12.255-7.66 30.093 30.093 0 0 1-13.74 3.37zm-7.296-67.567c.402-.076.804-.182 1.197-.287-.479 0-.958-.086-1.417-.163.076.153.153.297.22.45z"/><path d="M403.229 76.902a16.104 16.104 0 0 1-13.462-13.021 15.597 15.597 0 0 1-.268-2.777c-.004-1.861.32-3.708.957-5.457a16.152 16.152 0 0 1 10.867-9.948c-.363 0-.727-.058-1.1-.058a16.277 16.277 0 0 0-14.956 9.89 15.673 15.673 0 0 0-1.254 6.148v.488c.335 8.69 7.503 15.549 16.2 15.501a15.98 15.98 0 0 0 3.198-.316c-.03-.153-.106-.297-.182-.45zM137.997 182.7a37.015 37.015 0 0 1 7.142-5.553 25.717 25.717 0 0 0-25.056-19.484c-2.305.018-4.597.34-6.817.957 13.232.419 23.96 10.863 24.73 24.08zM56.89 112.222h-.785c16.864 3.294 29.05 18.043 29.107 35.225a35.291 35.291 0 0 1-4.385 17.08 36.086 36.086 0 0 1-5.745 7.794 36.479 36.479 0 0 1-25.478 10.934c2.4.478 4.84.718 7.286.718a36.633 36.633 0 0 0 17.445-4.385 36.172 36.172 0 0 0 16.344-18.191 35.263 35.263 0 0 0 2.585-13.29c0-19.81-16.286-35.885-36.374-35.885zm-23.648-27.42a36.546 36.546 0 0 1-9.939 25.065 25.707 25.707 0 0 0-14.256-.498 36.785 36.785 0 0 0 16.276-30.514 36.488 36.488 0 0 0-8.712-23.687c.115-.268.24-.527.364-.795a36.728 36.728 0 0 1 16.267 30.428z"/></g></g><g transform="translate(83.298 51.702)"><ellipse cx="140.773" cy="309.188" fill="#8e6eff" rx="59.927" ry="24.568"/><ellipse cx="140.773" cy="309.188" fill="#8e6eff" rx="59.927" ry="24.568"/><ellipse cx="140.773" cy="309.188" fill="#fff" opacity=".9" rx="59.927" ry="24.568"/><path d="M79.746 296.493c.387-14.423 12.19-25.913 26.617-25.913 14.427 0 26.23 11.49 26.617 25.913v1.484c-.307 3.686-2.873 7.305-7.794 10.139-10.388 6.003-27.268 6.003-37.675 0-4.864-2.872-7.468-6.453-7.765-10.14v-.737c0-.258-.02-.488 0-.746z" fill="#8e6eff"/><path d="M79.746 296.493c.387-14.423 12.19-25.913 26.617-25.913 14.427 0 26.23 11.49 26.617 25.913v1.484c-.307 3.686-2.873 7.305-7.794 10.139-10.388 6.003-27.268 6.003-37.675 0-4.864-2.872-7.468-6.453-7.765-10.14v-.737c0-.258-.02-.488 0-.746z" fill="#fff" opacity=".8"/><path d="M94.787 273.255a26.607 26.607 0 0 1 38.174 23.238v1.484c-.307 3.686-2.873 7.305-7.794 10.139a35.502 35.502 0 0 1-13.356 4.165c6.903-1.197 11.374-8.904 9.249-17.416-2.442-9.881-12.428-24.156-26.273-21.61z" fill="#fff" opacity=".3"/><path d="M79.746 297.977v-.738-.746a26.502 26.502 0 0 1 9.038-19.236c-2.872 2.978-9.325 14.18-2.336 22.73 4.596 5.62 26.425 13.634 44.387 3.332a18.728 18.728 0 0 1-5.649 4.787c-10.388 6.004-27.268 6.004-37.675 0-4.864-2.824-7.468-6.443-7.765-10.13z" fill="#8e6eff" opacity=".1"/><path d="M106.63 276.606c-1.186 2.71 1.102 6.339 5.114 8.1s8.243.958 9.43-1.713c1.188-2.672-1.1-6.348-5.112-8.11s-8.234-.996-9.431 1.723zm15.425 11.04c-.622 1.417.278 3.178 2.011 3.944s3.638.23 4.26-1.187c.623-1.417-.277-3.179-2.01-3.935-1.733-.756-3.638-.191-4.26 1.178z" fill="#fff" opacity=".5"/><path d="M189.326 302.247c-.254-12.3-10.298-22.14-22.601-22.14s-22.347 9.84-22.6 22.14v1.264c.248 3.13 2.46 6.204 6.615 8.617 8.819 5.093 23.151 5.093 31.989 0 4.136-2.404 6.338-5.477 6.597-8.617v-.632c0-.22.019-.412 0-.632z" fill="#8e6eff"/><path d="M189.326 302.247c-.254-12.3-10.298-22.14-22.601-22.14s-22.347 9.84-22.6 22.14v1.264c.248 3.13 2.46 6.204 6.615 8.617 8.819 5.093 23.151 5.093 31.989 0 4.136-2.404 6.338-5.477 6.597-8.617v-.632c0-.22.019-.412 0-.632z" fill="#fff" opacity=".8"/><path d="M176.534 282.514a22.577 22.577 0 0 0-32.41 19.733v1.264c.25 3.13 2.461 6.204 6.616 8.617a30.064 30.064 0 0 0 11.337 3.533c-5.86-1.006-9.661-7.555-7.851-14.793 2.087-8.397 10.57-20.518 22.308-18.354z" fill="#fff" opacity=".3"/><path d="M189.326 303.51v-.631-.632a22.471 22.471 0 0 0-7.66-16.334c2.451 2.527 7.918 12.044 1.982 19.302-3.907 4.787-22.443 11.585-37.704 2.872a15.922 15.922 0 0 0 4.787 4.07c8.818 5.093 23.15 5.093 31.988 0 4.146-2.442 6.348-5.516 6.607-8.646z" fill="#8e6eff" opacity=".1"/><path d="M166.49 285.32c1.015 2.307-.957 5.39-4.337 6.883-3.38 1.494-6.999.843-8.014-1.465-1.015-2.307.958-5.38 4.347-6.884 3.39-1.503 7-.804 8.004 1.465zm-13.097 9.42a2.968 2.968 0 1 1-3.62-.957 2.69 2.69 0 0 1 3.62.957z" fill="#fff" opacity=".5"/><path d="M212.304 306.124c-.288-8.046-6.894-14.42-14.945-14.42s-14.658 6.374-14.946 14.42c-.026.28-.026.563 0 .843.163 2.068 1.627 4.098 4.375 5.687 5.831 3.37 15.32 3.37 21.15 0 2.739-1.59 4.194-3.619 4.366-5.687v-.421c0-.143.01-.278 0-.422z" fill="#8e6eff"/><path d="M212.304 306.124c-.288-8.046-6.894-14.42-14.945-14.42s-14.658 6.374-14.946 14.42c-.026.28-.026.563 0 .843.163 2.068 1.627 4.098 4.375 5.687 5.831 3.37 15.32 3.37 21.15 0 2.739-1.59 4.194-3.619 4.366-5.687v-.421c0-.143.01-.278 0-.422z" fill="#fff" opacity=".9"/><path d="M203.85 293.084a14.936 14.936 0 0 0-21.437 13.04c-.026.28-.026.563 0 .843.163 2.068 1.627 4.098 4.375 5.687a19.685 19.685 0 0 0 7.497 2.336c-3.878-.67-6.386-4.997-5.19-9.775 1.38-5.534 6.99-13.567 14.755-12.131z" fill="#fff" opacity=".5"/><path d="M212.304 306.967v-.421-.422a14.87 14.87 0 0 0-5.074-10.8c1.627 1.666 5.237 7.966 1.311 12.763-2.585 3.16-14.84 7.66-24.893 1.915a10.656 10.656 0 0 0 3.179 2.69c5.83 3.37 15.319 3.37 21.15 0 2.661-1.627 4.155-3.657 4.327-5.725z" fill="#8e6eff" opacity=".1"/><path d="M197.234 294.96c.67 1.523-.613 3.562-2.872 4.549-2.26.986-4.625.555-5.295-.958-.67-1.513.613-3.562 2.872-4.548 2.26-.986 4.596-.574 5.295.958zm-8.694 6.205a1.963 1.963 0 0 1-3.523 1.541 1.923 1.923 0 0 1 3.523-1.541z" fill="#fff" opacity=".5"/><path d="M246.62 308.69c-.24-11.046-9.264-19.876-20.313-19.876s-20.072 8.83-20.312 19.876c-.01.189-.01.377 0 .565-.01.188-.01.377 0 .565.23 2.815 2.211 5.573 5.945 7.736 7.928 4.587 20.806 4.587 28.724 0 3.715-2.163 5.697-4.92 5.926-7.736.01-.188.01-.377 0-.565a5.57 5.57 0 0 0 .03-.565z" fill="#8e6eff"/><path d="M246.62 308.69c-.24-11.046-9.264-19.876-20.313-19.876s-20.072 8.83-20.312 19.876c-.01.189-.01.377 0 .565-.01.188-.01.377 0 .565.23 2.815 2.211 5.573 5.945 7.736 7.928 4.587 20.806 4.587 28.724 0 3.715-2.163 5.697-4.92 5.926-7.736.01-.188.01-.377 0-.565a5.57 5.57 0 0 0 .03-.565z" fill="#fff" opacity=".7"/><path d="M235.13 290.959a20.298 20.298 0 0 0-29.135 17.731c-.01.189-.01.377 0 .565-.01.188-.01.377 0 .565.23 2.815 2.211 5.573 5.945 7.736a27.057 27.057 0 0 0 10.188 3.189c-5.276-.91-8.684-6.789-7.066-13.29 1.895-7.554 9.517-18.45 20.068-16.496z" fill="#fff" opacity=".3"/><path d="M246.62 309.82c.009-.188.009-.377 0-.565.009-.188.009-.376 0-.565a20.24 20.24 0 0 0-6.894-14.687c2.202 2.279 7.113 10.829 1.78 17.35-3.513 4.288-20.163 10.407-33.874 2.546a14.122 14.122 0 0 0 4.308 3.657c7.928 4.587 20.806 4.587 28.724 0 3.743-2.163 5.725-4.92 5.955-7.736z" fill="#8e6eff" opacity=".1"/><path d="M226.101 293.505c.958 2.078-.833 4.845-3.906 6.195s-6.281.756-7.19-1.321c-.91-2.078.832-4.835 3.896-6.185s6.29-.757 7.2 1.311zm-11.767 8.435a2.671 2.671 0 0 1-4.787 2.097 2.671 2.671 0 0 1 4.787-2.097z" fill="#fff" opacity=".5"/><path d="M165.093 261.067a24.223 24.223 0 0 1-8.57 18.507 15.788 15.788 0 0 0-5.744 12.036v39.475c0 1.475-.958 2.959-2.92 4.079a12.39 12.39 0 0 1-3.668 1.34c-2.242.46-4.555.46-6.797 0a12.447 12.447 0 0 1-3.648-1.34c-1.915-1.12-2.92-2.604-2.92-4.079v-39.59a15.645 15.645 0 0 0-5.745-11.901 24.176 24.176 0 0 1-8.617-18.718c.053-13.421 10.975-24.258 24.396-24.205 13.42.053 24.257 10.976 24.204 24.396z" fill="#8e6eff"/><path d="M165.093 261.067a24.223 24.223 0 0 1-8.57 18.507 15.788 15.788 0 0 0-5.744 12.036v39.475c0 1.475-.958 2.959-2.92 4.079a12.39 12.39 0 0 1-3.668 1.34c-2.242.46-4.555.46-6.797 0a12.447 12.447 0 0 1-3.648-1.34c-1.915-1.12-2.92-2.604-2.92-4.079v-39.59a15.645 15.645 0 0 0-5.745-11.901 24.176 24.176 0 0 1-8.617-18.718c.053-13.421 10.975-24.258 24.396-24.205 13.42.053 24.257 10.976 24.204 24.396z" fill="#fff" opacity=".5"/><path d="M154.35 261.067a13.538 13.538 0 0 1-5.745 11.04 11.01 11.01 0 0 0-4.452 9.019v45.277a3.437 3.437 0 0 1-3.36 3.476h-.048a3.437 3.437 0 0 1-3.37-3.476v-45.46a10.838 10.838 0 0 0-4.443-8.846 13.52 13.52 0 0 1-5.745-11.413c.106-7.488 6.262-13.472 13.75-13.366 7.487.106 13.47 6.261 13.365 13.749z" fill="#8e6eff"/><g fill="#fff"><path d="M154.35 261.067a13.538 13.538 0 0 1-5.745 11.04 11.01 11.01 0 0 0-4.452 9.019v45.277a3.437 3.437 0 0 1-3.36 3.476h-.048a3.437 3.437 0 0 1-3.37-3.476v-45.46a10.838 10.838 0 0 0-4.443-8.846 13.52 13.52 0 0 1-5.745-11.413c.106-7.488 6.262-13.472 13.75-13.366 7.487.106 13.47 6.261 13.365 13.749z" opacity=".7"/><circle cx="150.932" cy="270.048" opacity=".7" r="6.338"/><path d="M147.054 257.438a3.83 3.83 0 1 1 7.66 0 3.83 3.83 0 0 1-7.66 0zm-7.391-6.175a1.915 1.915 0 1 1 3.83 0 1.915 1.915 0 0 1-3.83 0zm-15.32 2.298a5.209 5.209 0 1 1 5.2 5.208 5.199 5.199 0 0 1-5.2-5.208zm-.832 9.411a2.441 2.441 0 1 0 4.883 0 2.441 2.441 0 0 0-4.883 0z" opacity=".7"/><circle cx="129.255" cy="271.513" opacity=".7" r="3.964"/><path d="M134.751 277.497a3.265 3.265 0 1 1 6.53 0 3.265 3.265 0 0 1-6.53 0zm-15.913-20.059a1.666 1.666 0 1 1 3.332-.019 1.666 1.666 0 0 1-3.332.02zm36.201-6.884a2.193 2.193 0 1 1 4.385 0 2.193 2.193 0 0 1-4.385 0zm2.183 10.752a2.212 2.212 0 1 1 4.424-.019 2.212 2.212 0 0 1-4.424.02zm-22.854 1.781a2.212 2.212 0 1 1 2.202 2.212 2.202 2.202 0 0 1-2.202-2.212z" opacity=".7"/></g><path d="M169.468 22.02a1.308 1.308 0 0 0-.756.221 35.08 35.08 0 0 0-2.873 3.706c-2.068 3.121-6.386 9.277-7.908 15.788a9.124 9.124 0 0 0-.23 2.221c-2.633 46.044-.804 79.411-.086 131.333 0 1.82 1.599 3.677 4.912 4.73 2.518.803 5.216.857 7.764.153 3.352-.957 5.056-2.71 5.094-4.528 2.93-51.856 5.898-85.127 5.065-131.247a8.617 8.617 0 0 0-.134-2.221c-1.264-6.569-5.343-12.888-7.286-16.086a34.315 34.315 0 0 0-2.777-3.83 1.278 1.278 0 0 0-.785-.24z" fill="#455a64"/><path d="M180.412 44.76a8.177 8.177 0 0 1-2.815 2.289c-4.883 2.537-12.6 2.212-17.234-.737a8.09 8.09 0 0 1-2.69-2.652v.268l-.23 4.193a7.909 7.909 0 0 0 2.738 2.729c4.643 2.949 12.36 3.284 17.234.737a7.66 7.66 0 0 0 3.073-2.68c-.028-1.37-.048-2.758-.076-4.146z" fill="#8e6eff"/><path d="M168.712 22.213a35.08 35.08 0 0 0-2.873 3.705c-2.068 3.121-6.386 9.278-7.908 15.788a9.124 9.124 0 0 0-.23 2.222c-2.633 46.043-.804 79.41-.086 131.333 0 1.627 1.273 3.274 3.916 4.366.182-26.56.584-91.743.517-111.533-.125-25.009 5.6-42.406 7.42-46.073a1.321 1.321 0 0 0-.756.192zm-44.024 164.49c-4.385 14.198-8.847 28.378-13.595 42.462-.843 2.46.23 5.64 2.575 7.66a40.778 40.778 0 0 0 27.125 9.622 41.965 41.965 0 0 0 27.124-9.958c2.336-2.03 3.409-5.15 2.576-7.554-4.836-13.864-9.278-27.852-13.596-41.879z" fill="#37474f"/><path d="M140.793 235.379c-9.872.325-20.988-3.418-28.389-10.092l-1.34 3.897c-.843 2.46.23 5.64 2.575 7.66a41.027 41.027 0 0 0 27.125 9.622 42.195 42.195 0 0 0 27.153-9.977c2.336-2.03 3.409-5.15 2.576-7.554-.527-1.513-.786-2.279-1.312-3.83-7.794 6.875-18.172 9.939-28.388 10.274z" fill="#455a64"/><path d="M167.917 236.49a42.128 42.128 0 0 1-27.172 9.976h-2.001c-.651 0-1.303-.057-1.915-.105l-.958-.096-1.465-.163c-.316 0-.632-.086-.957-.143l-.958-.163-1.541-.297-.278-.067a42.058 42.058 0 0 1-3.791-1.063l-1.15-.412c-.507-.172-.957-.373-1.474-.574a36.985 36.985 0 0 1-2.67-1.206l-.633-.326c-.258-.124-.507-.268-.727-.392s-.7-.393-1.025-.585l-1.063-.65-1.005-.652c-.316-.21-.613-.43-.957-.641.699-3.763 1.053-5.659 1.752-9.488a40.328 40.328 0 0 0 6.73 3.217c-.248 1.847-.564 3.303-.497 3.57 2.604 9.537 25.41 11.232 43.755.26z" fill="#263238"/><path d="M166.95 51.386a23.38 23.38 0 0 0-.47-5.745c-3.59-16.841-14.054-31.844-19.55-39.743a24.147 24.147 0 0 0-4.194-4.682 3.447 3.447 0 0 0-3.897 0 20.748 20.748 0 0 0-4.184 4.682c-5.15 8.129-15.97 22.902-19.56 39.743a23.38 23.38 0 0 0-.47 5.745l3.265 149.525c0 4.682 4.3 9.373 12.888 11.93a35.301 35.301 0 0 0 20.03 0c8.616-2.557 12.877-7.248 12.877-11.93z" fill="#8e6eff"/><path d="M157.021 63.134c0 13.979-1.053 91.58-1.848 148.05 5.659-2.662 8.493-6.472 8.493-10.273l3.265-149.525a23.38 23.38 0 0 0-.47-5.745c-3.59-16.841-14.055-31.844-19.55-39.743a33.866 33.866 0 0 0-1.58-2.05c7.296 13.798 11.69 36.872 11.69 59.286z" fill="#fff" opacity=".5"/><path d="M150.807 212.84c8.617-2.556 12.878-7.247 12.878-11.93L166.31 80.81a16.334 16.334 0 0 0-2.5-3.275 3.17 3.17 0 0 0-3.609 0c-.871.603-2.968 4.07-3.973 5.563-4.96 7.305-14.707 21.112-18.03 36.718a21.916 21.916 0 0 0-.44 5.304l2.988 87.348c.002.615.085 1.226.249 1.82a35.426 35.426 0 0 0 9.813-1.447z" fill="#000" opacity=".1"/><path d="M142.736 1.245a3.447 3.447 0 0 0-3.897 0 20.748 20.748 0 0 0-4.184 4.682c-5.15 8.128-15.97 22.902-19.56 39.743a23.38 23.38 0 0 0-.47 5.745l3.265 149.524c0 4.127 3.342 8.254 9.996 10.925v-87.128c0-49.596 1.408-83.125 3.59-95.448 2.184-12.322 8.81-29.355 11.26-28.043z" fill="#000" opacity=".2"/><path d="M120.638 55.532c11.03 6.367 28.925 6.367 39.955 0a18.833 18.833 0 0 0 6.367-5.649 22.28 22.28 0 0 0-.48-4.213 55.546 55.546 0 0 0-.507-2.183 20.346 20.346 0 0 1-5.38 4.337c-11.03 6.367-28.925 6.367-39.955 0a20.891 20.891 0 0 1-5.112-4.03 43.984 43.984 0 0 0-.431 1.915 23.62 23.62 0 0 0-.479 4.71 19.312 19.312 0 0 0 6.022 5.113z" fill="#455a64"/><path d="M114.788 47.585c0 .201 0 .393-.067.594-.067.2 0 .574-.057.871v1.331a19.312 19.312 0 0 0 5.974 5.15 33.51 33.51 0 0 0 8.397 3.333c.115-2.681.24-5.218.374-7.612a34.018 34.018 0 0 1-8.77-3.38 20.891 20.891 0 0 1-5.113-4.03 43.984 43.984 0 0 0-.431 1.914c-.086.422-.163.843-.22 1.274-.039.124-.058.344-.087.555z" fill="#37474f"/><path d="M185.745 233.674h-8.35c-1.186 7.21 2.643 12.744 4.175 12.744s5.324-5.534 4.175-12.744z" fill="#8e6eff"/><path d="M185.745 233.674h-8.35c-1.186 7.21 2.643 12.744 4.175 12.744s5.324-5.534 4.175-12.744z" fill="#fff" opacity=".7"/><path d="M181.532 233.674h1.427a6.338 6.338 0 0 1 .775 3.83c-.172 1.915-1.34 4.472-2.202 4.472s-2.03-2.528-2.202-4.472a6.338 6.338 0 0 1 .775-3.83z" fill="#fff"/><path d="M185.678 220.71l-8.617 3.045-.68 2.873a3.485 3.485 0 0 0 1.56 3.054 5.63 5.63 0 0 0 1.312.718 7.047 7.047 0 0 0 4.988 0c.457-.18.888-.419 1.283-.709a3.466 3.466 0 0 0 1.561-3.054z" fill="#8e6eff"/><path d="M185.678 220.71l-8.617 3.045-.68 2.873a3.485 3.485 0 0 0 1.56 3.054 5.63 5.63 0 0 0 1.312.718 7.047 7.047 0 0 0 4.988 0c.457-.18.888-.419 1.283-.709a3.466 3.466 0 0 0 1.561-3.054z" fill="#000" opacity=".25"/><path d="M187.267 227.499l.287 1.216a3.83 3.83 0 0 1-1.714 3.179c-.43.323-.904.584-1.407.775a7.66 7.66 0 0 1-5.41 0 5.955 5.955 0 0 1-1.436-.785 3.83 3.83 0 0 1-1.704-3.188l-.785 3.37a3.83 3.83 0 0 0 1.915 3.13c.522.348 1.089.622 1.685.815a9.66 9.66 0 0 0 6.022 0 7.401 7.401 0 0 0 1.657-.814 3.83 3.83 0 0 0 1.914-3.131z" fill="#8e6eff"/><path d="M187.267 227.499l.287 1.216a3.83 3.83 0 0 1-1.714 3.179c-.43.323-.904.584-1.407.775a7.66 7.66 0 0 1-5.41 0 5.955 5.955 0 0 1-1.436-.785 3.83 3.83 0 0 1-1.704-3.188l-.785 3.37a3.83 3.83 0 0 0 1.915 3.13c.522.348 1.089.622 1.685.815a9.66 9.66 0 0 0 6.022 0 7.401 7.401 0 0 0 1.657-.814 3.83 3.83 0 0 0 1.914-3.131z" fill="#000" opacity=".25"/><path d="M187.267 227.48l-.067-.287-.134-.565a3.466 3.466 0 0 1-1.56 3.054c-.396.29-.828.528-1.284.708a7.047 7.047 0 0 1-4.988 0 5.63 5.63 0 0 1-1.312-.718 3.485 3.485 0 0 1-1.56-3.054l-.479 2.078a3.83 3.83 0 0 0 1.704 3.188c.44.327.924.59 1.436.785a7.66 7.66 0 0 0 5.41 0 5.745 5.745 0 0 0 1.407-.775 3.83 3.83 0 0 0 1.714-3.18z" fill="#455a64"/><path d="M186.405 223.803l-.727-3.092-8.617 3.044-.68 2.873-.192.852-.287 1.225-.555 2.346c4.902-1.398 8.856-4.002 11.058-7.248z" fill="#000" opacity=".15"/><path d="M156.207 233.674h-8.348c-1.188 7.21 2.642 12.744 4.174 12.744s5.371-5.534 4.174-12.744z" fill="#8e6eff"/><path d="M156.207 233.674h-8.348c-1.188 7.21 2.642 12.744 4.174 12.744s5.371-5.534 4.174-12.744z" fill="#fff" opacity=".7"/><path d="M152.033 233.674h1.436a6.338 6.338 0 0 1 .776 3.83c-.173 1.915-1.35 4.472-2.212 4.472s-2.03-2.528-2.202-4.472a6.338 6.338 0 0 1 .775-3.83z" fill="#fff"/><path d="M156.179 220.71h-7.9l-1.407 5.918a3.456 3.456 0 0 0 1.551 3.054 5.63 5.63 0 0 0 1.312.718 7.047 7.047 0 0 0 4.988 0 5.563 5.563 0 0 0 1.283-.709 3.466 3.466 0 0 0 1.561-3.054z" fill="#8e6eff"/><path d="M156.179 220.71h-7.9l-1.407 5.918a3.456 3.456 0 0 0 1.551 3.054 5.63 5.63 0 0 0 1.312.718 7.047 7.047 0 0 0 4.988 0 5.563 5.563 0 0 0 1.283-.709 3.466 3.466 0 0 0 1.561-3.054z" fill="#000" opacity=".25"/><path d="M157.701 227.193l.067.287.287 1.235a3.83 3.83 0 0 1-1.714 3.179c-.43.323-.904.584-1.407.775a7.66 7.66 0 0 1-5.41 0 6.147 6.147 0 0 1-1.436-.785 3.83 3.83 0 0 1-1.704-3.188l-.785 3.37a3.83 3.83 0 0 0 1.915 3.13c.522.348 1.089.622 1.685.815a9.66 9.66 0 0 0 6.022 0 7.21 7.21 0 0 0 1.657-.814 3.83 3.83 0 0 0 1.915-3.131z" fill="#8e6eff"/><path d="M157.701 227.193l.067.287.287 1.235a3.83 3.83 0 0 1-1.714 3.179c-.43.323-.904.584-1.407.775a7.66 7.66 0 0 1-5.41 0 6.147 6.147 0 0 1-1.436-.785 3.83 3.83 0 0 1-1.704-3.188l-.785 3.37a3.83 3.83 0 0 0 1.915 3.13c.522.348 1.089.622 1.685.815a9.66 9.66 0 0 0 6.022 0 7.21 7.21 0 0 0 1.657-.814 3.83 3.83 0 0 0 1.915-3.131z" fill="#000" opacity=".25"/><path d="M157.768 227.48l-.067-.287-.134-.565a3.466 3.466 0 0 1-1.56 3.054c-.395.292-.827.53-1.284.708a7.047 7.047 0 0 1-4.988 0 5.63 5.63 0 0 1-1.312-.718 3.456 3.456 0 0 1-1.55-3.054l-.489 2.078a3.83 3.83 0 0 0 1.704 3.188c.442.325.925.589 1.436.785a7.66 7.66 0 0 0 5.41 0 5.745 5.745 0 0 0 1.407-.775 3.83 3.83 0 0 0 1.714-3.18z" fill="#455a64"/><path d="M148.28 220.71l-.728 3.064c2.183 3.256 6.137 5.86 11.05 7.267l-.9-3.83-.135-.564-1.388-5.917z" fill="#000" opacity=".15"/><path d="M175.098 238.93l-8.129-2.106-8.129 2.107a32.84 32.84 0 0 0 .087 11.173c1.062 6.827 5.82 13.653 8.042 13.653s6.97-6.826 8.033-13.653c.666-3.692.699-7.47.096-11.173z" fill="#8e6eff"/><path d="M175.098 238.93l-8.129-2.106-8.129 2.107a32.84 32.84 0 0 0 .087 11.173c1.062 6.827 5.82 13.653 8.042 13.653s6.97-6.826 8.033-13.653c.666-3.692.699-7.47.096-11.173z" fill="#fff" opacity=".7"/><path d="M172.283 239.917h-11.126c-1.589 9.574 3.514 16.976 5.563 16.976s7.152-7.373 5.563-16.976z" fill="#8e6eff"/><path d="M166.72 239.917h1.915a8.368 8.368 0 0 1 1.034 5.132c-.23 2.585-1.79 5.955-2.94 5.955s-2.709-3.37-2.939-5.955a8.445 8.445 0 0 1 1.034-5.132h1.915" fill="#fff"/><path d="M174.102 229.835l-.9-3.83h-12.447l-.89 3.83a4.624 4.624 0 0 0 2.078 4.07 7.22 7.22 0 0 0 1.752.957 9.345 9.345 0 0 0 6.644 0 7.028 7.028 0 0 0 1.705-.958 4.615 4.615 0 0 0 2.058-4.069z" fill="#8e6eff"/><path d="M174.255 230.591l.086.374.383 1.647a5.094 5.094 0 0 1-2.269 4.25 7.985 7.985 0 0 1-1.915 1.025 10.216 10.216 0 0 1-7.21 0 8.043 8.043 0 0 1-1.914-1.043 5.113 5.113 0 0 1-2.279-4.261l-1.043 4.49a5.122 5.122 0 0 0 2.585 4.175 8.914 8.914 0 0 0 2.25 1.091c2.605.862 5.418.862 8.023 0a9.68 9.68 0 0 0 2.212-1.082 5.122 5.122 0 0 0 2.585-4.174z" fill="#8e6eff"/><path d="M174.36 230.965l-.086-.374-.172-.756a4.615 4.615 0 0 1-2.087 4.07c-.52.396-1.094.719-1.704.957a9.345 9.345 0 0 1-6.645 0 7.22 7.22 0 0 1-1.752-.958 4.624 4.624 0 0 1-2.078-4.069l-.65 2.767a5.113 5.113 0 0 0 2.278 4.26 8.043 8.043 0 0 0 1.915 1.044c2.323.877 4.886.877 7.21 0a7.985 7.985 0 0 0 1.914-1.024 5.094 5.094 0 0 0 2.27-4.251z" fill="#455a64"/><path d="M166.95 232.19a31.28 31.28 0 0 0 7.487-.89l-.076-.335-.087-.374-.172-.756-.9-3.83h-12.447l-.89 3.83-.345 1.475c2.433.586 4.927.882 7.43.88z" fill="#000" opacity=".15"/><path d="M176.888 204.482l34.957-12.868a35.272 35.272 0 0 0-.154-4.49c0-.46-.095-.9-.153-1.341-.057-.44-.134-.852-.22-1.254a17.889 17.889 0 0 0-.306-1.235c-.058-.211-.125-.403-.192-.604-.067-.2-.086-.306-.143-.45a10.168 10.168 0 0 0-4.587-5.744l-4.48-2.576-.48-.287a12.801 12.801 0 0 0-4.576-1.446 41.735 41.735 0 0 1-9.986-2.403 12.629 12.629 0 0 1-2.528-2.815c-3.408-5.208-4.27-16.4-4.05-21.964l-.957 18.977c-3.351-5.266-4.194-16.277-3.983-21.849l-3.083 59.486 5.209-1.915v.153z" fill="#8e6eff"/><path d="M211.845 191.614l-34.957 12.868.25-4.625v-.153l1.905-35.722.957-18.977c-.22 5.563.641 16.756 4.05 21.964a12.629 12.629 0 0 0 2.528 2.815c3.446 2.872 8.617 4.404 14.945 5.266.646.08 1.286.205 1.915.373.93.248 1.828.608 2.672 1.073a10.168 10.168 0 0 1 4.586 5.744c.057.144.095.297.143.45.048.154.134.393.192.604.115.392.21.804.306 1.235s.153.823.22 1.254.115.88.154 1.34c.14 1.493.184 2.993.134 4.49z" fill="#8e6eff"/><path d="M206.08 176.496a11.892 11.892 0 0 0-2.67-1.073 14.285 14.285 0 0 0-1.915-.373c-6.367-.862-11.49-2.374-14.946-5.266a41.735 41.735 0 0 0 9.986 2.403c1.603.19 3.156.68 4.577 1.446l.478.287z" fill="#000" opacity=".35"/><path d="M177.415 194.496l33.271-12.256a20.987 20.987 0 0 1 1.015 4.893l-34.573 12.724z" fill="#455a64"/><path d="M191.212 128.595a21.906 21.906 0 0 0-.431-5.305c-3.332-15.606-12.658-28.417-18.038-36.718-.958-1.512-3.093-4.96-3.974-5.562a3.145 3.145 0 0 0-1.8-.565c-.646 0-1.277.197-1.81.565-.87.603-2.958 4.069-3.973 5.562-4.96 7.306-14.706 21.112-18.029 36.718a21.916 21.916 0 0 0-.44 5.305l3.035 87.348c0 4.346 3.974 8.693 11.93 11.058a32.754 32.754 0 0 0 18.565 0c7.956-2.365 11.94-6.702 11.94-11.058z" fill="#8e6eff"/><path d="M191.212 128.595a21.906 21.906 0 0 0-.431-5.305c-3.332-15.606-12.658-28.417-18.038-36.718-.958-1.512-3.093-4.96-3.974-5.562a3.145 3.145 0 0 0-1.8-.565c-.646 0-1.277.197-1.81.565-.87.603-2.958 4.069-3.973 5.562-4.96 7.306-14.706 21.112-18.029 36.718a21.916 21.916 0 0 0-.44 5.305l3.035 87.348c0 4.346 3.974 8.693 11.93 11.058a32.754 32.754 0 0 0 18.565 0c7.956-2.365 11.94-6.702 11.94-11.058z" fill="#fff" opacity=".5"/><path d="M188.186 215.943l3.026-87.348a22.395 22.395 0 0 0-.431-5.305c-3.332-15.606-12.658-28.417-18.038-36.718l-.814-1.273c4.414 11.221 11.393 29.202 11.843 54.373.268 14.86-.794 54.7-1.704 84.868 4.07-2.412 6.118-5.486 6.118-8.597z" fill="#fff" opacity=".5"/><path d="M161.186 86.572c-1.819 2.681-4.299 6.262-6.855 10.475 2.518 1.685 5.917 4.27 12.638 4.27a19.149 19.149 0 0 0 12.59-4.203c-2.47-4.031-4.892-7.583-6.816-10.532-.958-1.513-3.093-4.96-3.974-5.563a3.14 3.14 0 0 0-1.8-.565c-.646 0-1.277.198-1.81.565-.87.594-2.958 4.06-3.973 5.553z" fill="#37474f"/><path d="M171.929 85.299c1.484 3.753 3.245 8.291 4.96 13.577a43.147 43.147 0 0 0 2.67-1.762c-1.914-3.14-3.83-5.965-5.457-8.464l-1.36-2.078-.545-.861z" fill="#455a64"/><path d="M159.501 89.043l-.527.785-.507.766c-.316.46-.632.957-.957 1.436l-.47.708-.612.958c-.163.24-.326.488-.48.747l-.631.957c-.326.527-.66 1.053-.957 1.599a28.79 28.79 0 0 0 4.576 2.69c3.457-9.746 7.535-19.58 9.575-18.89a3.456 3.456 0 0 0-.7-.287h-.076a2.757 2.757 0 0 0-.747-.106c-.646 0-1.277.198-1.81.565-.87.603-2.958 4.07-3.973 5.563l-1.158 1.704z" fill="#263238"/><path d="M187.382 112.28a6.894 6.894 0 0 1-.594 5.18 12.447 12.447 0 0 1-5.045 4.883 25.593 25.593 0 0 1-8.12 2.872c-3.322.603-6.194 3.274-6.338 6.645l-.057 1.388c-.144 3.38 2.489 6.156 5.83 5.658a31.596 31.596 0 0 0 10.973-3.628c4.787-2.767 7.133-6.396 7.056-10.015a8.11 8.11 0 0 0-.43-2.5 70.19 70.19 0 0 0-3.275-10.483z" fill="#37474f"/><path d="M191.087 125.301a24.29 24.29 0 0 0-.306-2.01c-.096-.431-.21-.853-.307-1.284a62.142 62.142 0 0 0-.478-1.914l-.201-.7c-.192-.67-.383-1.34-.584-2s-.422-1.245-.632-1.858c-.086-.24-.163-.488-.24-.718a63.422 63.422 0 0 0-.957-2.48 6.884 6.884 0 0 1-.603 5.123 12.054 12.054 0 0 1-4.462 4.519 137.931 137.931 0 0 1 1.302 13.48l.402-.2c4.759-2.748 7.114-6.358 7.066-9.958z" fill="#455a64"/><path d="M193.95 224.617c0-1.991-4.529-24.578-11.106-30.313a2.327 2.327 0 0 0-2.413-.43 5.745 5.745 0 0 0-2.116 1.732 30.083 30.083 0 0 0-6.386 19.044v10.455l9.191 3.543a14.046 14.046 0 0 0 10.666-.68 3.897 3.897 0 0 0 2.145-3.351z" fill="#8e6eff"/><path d="M190.953 222.31a3.753 3.753 0 0 0 2.04-3.122 90.285 90.285 0 0 0-.795-3.38 3.58 3.58 0 0 1-1.972 3.083 12.935 12.935 0 0 1-9.824.623l-8.464-3.255v3.274l8.818 3.39a13.452 13.452 0 0 0 10.197-.613z" fill="#455a64"/><path d="M180.46 193.873a5.678 5.678 0 0 0-2.145 1.733 30.112 30.112 0 0 0-6.386 19.054v10.445l9.191 3.543c.857.312 1.747.524 2.652.632-1.656-10.092-5.122-32.735-3.312-35.407z" fill="#000" opacity=".25"/><path d="M182.872 223.478c-.172-1.111-.354-2.27-.526-3.457a9.69 9.69 0 0 1-1.915-.488l-8.464-3.255v3.274l8.818 3.39c.676.249 1.375.428 2.087.536z" fill="#37474f"/><path d="M118.934 223.89l-8.129-2.107-8.128 2.106a33.032 33.032 0 0 0 .095 11.174c1.063 6.817 5.812 13.643 8.033 13.643 2.222 0 6.98-6.826 8.043-13.643a32.84 32.84 0 0 0 .086-11.174z" fill="#8e6eff"/><path d="M118.934 223.89l-8.129-2.107-8.128 2.106a33.032 33.032 0 0 0 .095 11.174c1.063 6.817 5.812 13.643 8.033 13.643 2.222 0 6.98-6.826 8.043-13.643a32.84 32.84 0 0 0 .086-11.174z" fill="#fff" opacity=".7"/><path d="M116.129 224.866h-11.126c-1.59 9.574 3.514 16.985 5.563 16.985s7.2-7.372 5.563-16.985z" fill="#8e6eff"/><path d="M110.566 224.866h1.915a8.473 8.473 0 0 1 1.034 5.132c-.23 2.595-1.79 5.965-2.94 5.965s-2.709-3.37-2.939-5.965a8.397 8.397 0 0 1 1.034-5.132h1.915" fill="#fff"/><path d="M117.938 214.794l-.89-3.83H104.6l-.9 3.83a4.644 4.644 0 0 0 2.087 4.069 7.497 7.497 0 0 0 1.743.957c2.144.81 4.51.81 6.654 0a7.372 7.372 0 0 0 1.704-.957 4.615 4.615 0 0 0 2.05-4.07z" fill="#8e6eff"/><path d="M118.12 215.55l.086.373.383 1.647a5.094 5.094 0 0 1-2.278 4.242 8.31 8.31 0 0 1-1.915 1.034 10.216 10.216 0 0 1-7.21 0 7.727 7.727 0 0 1-1.915-1.044 5.084 5.084 0 0 1-2.278-4.25l-1.054 4.49a5.122 5.122 0 0 0 2.585 4.174c.699.462 1.455.83 2.25 1.091 2.61.858 5.424.858 8.033 0a9.421 9.421 0 0 0 2.203-1.081 5.103 5.103 0 0 0 2.585-4.175z" fill="#8e6eff"/><path d="M118.206 215.923l-.086-.373-.182-.756a4.615 4.615 0 0 1-2.077 4.069 7.372 7.372 0 0 1-1.705.957c-2.144.81-4.51.81-6.654 0a7.497 7.497 0 0 1-1.742-.957 4.644 4.644 0 0 1-2.088-4.07l-.641 2.768a5.084 5.084 0 0 0 2.279 4.25c.585.437 1.23.789 1.914 1.044 2.324.876 4.887.876 7.21 0a8.31 8.31 0 0 0 1.915-1.034 5.094 5.094 0 0 0 2.279-4.241z" fill="#455a64"/><path d="M110.805 218.805c2.643 0 6.434-.842 7.478-2.546l-.077-.336-.086-.373-.182-.756-.89-3.83H104.6l-.9 3.83-.345 1.474c.7 1.771 4.835 2.537 7.45 2.537z" fill="#000" opacity=".15"/><path d="M107.856 57.16c.272-.002.538.074.766.22a35.53 35.53 0 0 1 2.92 3.715c2.06 3.111 6.387 9.268 7.91 15.778.168.728.242 1.475.22 2.222 2.642 46.053.813 79.41.095 131.342 0 1.82-1.599 3.667-4.912 4.73a13.816 13.816 0 0 1-3.877.643 14.116 14.116 0 0 1-3.888-.49c-3.36-.957-5.064-2.719-5.093-4.538-2.94-51.855-5.898-85.127-5.075-131.237a9.182 9.182 0 0 1 .144-2.231c1.264-6.568 5.343-12.887 7.277-16.085a36.574 36.574 0 0 1 2.776-3.83c.224-.153.486-.24.757-.249z" fill="#455a64"/><path d="M115.267 215.014c3.026-1.073 4.529-2.873 4.5-4.577.718-51.932 2.547-85.29-.096-131.342a8.665 8.665 0 0 0-.22-2.222c-1.522-6.51-5.85-12.667-7.908-15.778a35.53 35.53 0 0 0-2.92-3.715c3.513 8.349 5.351 22.423 5.993 47.69.46 17.78.603 76.625.651 109.944z" fill="#37474f"/><path d="M116.904 86.362a7.459 7.459 0 0 0 3.007-2.873c-.067-1.369-.144-2.748-.22-4.145a8.014 8.014 0 0 1-2.787 2.508c-4.787 2.748-12.447 2.748-17.234 0a8.282 8.282 0 0 1-2.729-2.432v.153c0 1.456 0 2.873-.067 4.318a7.937 7.937 0 0 0 2.796 2.5c4.75 2.728 12.476 2.728 17.234-.03zm-16.047 6.616a4.184 4.184 0 0 1 1.915 3.284c0 1.206-.852 1.694-1.915 1.091a4.203 4.203 0 0 1-1.914-3.284c.019-1.197.87-1.695 1.914-1.091zm-.076 7.774a3.964 3.964 0 0 1 1.8 3.112c0 1.149-.804 1.608-1.8 1.034a3.964 3.964 0 0 1-1.79-3.112c0-1.14.804-1.608 1.79-1.034zm.096 7.775a3.83 3.83 0 0 1 1.704 2.949c0 1.081-.766 1.522-1.704.957a3.734 3.734 0 0 1-1.695-2.94c0-1.062.756-1.503 1.695-.966zm.21 7.784a3.543 3.543 0 0 1 1.609 2.776c0 1.025-.718 1.436-1.609.958a3.543 3.543 0 0 1-1.599-2.767c0-1.063.718-1.427 1.6-.967zm.297 7.784a3.341 3.341 0 0 1 1.503 2.604c0 .957-.68 1.35-1.503.871a3.313 3.313 0 0 1-1.503-2.604c0-.957.65-1.35 1.503-.871zm.326 7.784a3.102 3.102 0 0 1 1.407 2.432c0 .9-.632 1.254-1.407.813a3.121 3.121 0 0 1-1.408-2.441c0-.89.632-1.254 1.408-.804zm.316 7.774c.774.5 1.262 1.34 1.311 2.26 0 .842-.584 1.177-1.311.756a2.872 2.872 0 0 1-1.303-2.26c0-.832.584-1.177 1.303-.756zm50.026 79.037l-34.947 27.489-4.94-2.873c-.268-10.12 3.016-19.062 10.34-28.503 3.112-4.021 5.975-7.765 8.54-11.307a122.601 122.601 0 0 0 10.13-15.942c4.213-8.31 5.257-19.216 5.19-24.95a3.83 3.83 0 0 0 0-.575v-.546l2.623 1.283z" fill="#8e6eff"/><path d="M144.92 189.421c-3.132 8.397-9.288 17.694-17.474 28.255-7.325 9.45-10.609 18.373-10.34 28.503l-4.941-2.873c-.268-10.12 3.016-19.062 10.34-28.503 3.112-4.021 5.975-7.765 8.54-11.307a122.601 122.601 0 0 0 10.13-15.942c4.213-8.31 5.257-19.216 5.19-24.95a3.83 3.83 0 0 0 0-.575v-.546l2.623 1.283c.192 5.323-.66 17.502-4.069 26.655z" fill="#000" opacity=".35"/><path d="M113.314 232.66a38.805 38.805 0 0 0-.958 6.041l4.931 2.872v-.153c.17-1.971.49-3.927.958-5.85z" fill="#37474f"/><path d="M148.97 162.766c.21 5.314-.642 17.502-4.05 26.646-3.132 8.406-9.288 17.703-17.474 28.254-7.325 9.44-10.618 18.383-10.34 28.503l34.946-27.488z" fill="#8e6eff"/><path d="M151.535 209.317l-33.28 26.215a36.804 36.804 0 0 0-1.016 6.051l34.574-27.192z" fill="#455a64"/><path d="M270.345 314.53c0-6.836-5.543-12.379-12.38-12.379-6.837 0-12.38 5.543-12.38 12.38-.01.115-.01.23 0 .345-.01.114-.01.23 0 .344.134 1.714 1.34 3.4 3.62 4.71 4.834 2.797 12.685 2.797 17.52 0 2.27-1.31 3.476-2.996 3.62-4.71v-.344c0-.114.01-.23 0-.345z" fill="#8e6eff"/><path d="M270.345 314.53c0-6.836-5.543-12.379-12.38-12.379-6.837 0-12.38 5.543-12.38 12.38-.01.115-.01.23 0 .345-.01.114-.01.23 0 .344.134 1.714 1.34 3.4 3.62 4.71 4.834 2.797 12.685 2.797 17.52 0 2.27-1.31 3.476-2.996 3.62-4.71v-.344c0-.114.01-.23 0-.345z" fill="#fff" opacity=".5"/><path d="M263.298 303.721a12.37 12.37 0 0 0-17.751 10.81c-.01.115-.01.23 0 .345-.01.114-.01.23 0 .344.134 1.714 1.34 3.4 3.619 4.71a16.277 16.277 0 0 0 6.214 1.916c-3.217-.546-5.295-4.136-4.3-8.1 1.179-4.577 5.822-11.193 12.218-10.025z" fill="#fff" opacity=".5"/><path d="M270.345 315.22v-.344-.345a12.341 12.341 0 0 0-4.204-8.952c1.34 1.378 4.338 6.597 1.082 10.532-2.135 2.613-12.293 6.348-20.642 1.55a8.617 8.617 0 0 0 2.623 2.232c4.835 2.795 12.686 2.795 17.522 0 2.317-1.274 3.475-2.978 3.619-4.673z" fill="#8e6eff" opacity=".2"/><path d="M257.83 305.272c.556 1.264-.507 2.95-2.374 3.773s-3.83.46-4.385-.805c-.555-1.263.508-2.949 2.375-3.762 1.867-.814 3.84-.47 4.385.794zm-7.17 5.142c.237.769-.19 1.586-.958 1.829a1.33 1.33 0 1 1 .958-1.83z" fill="#fff" opacity=".5"/><path d="M251.397 323.837c-.22-9.257-7.787-16.648-17.048-16.648s-16.827 7.39-17.047 16.648v.948c.192 2.355 1.858 4.672 4.988 6.492 6.655 3.83 17.464 3.83 24.138 0 3.111-1.82 4.787-4.137 4.969-6.492.01-.16.01-.32 0-.479a3.83 3.83 0 0 0 0-.469z" fill="#8e6eff"/><path d="M251.397 323.837c-.22-9.257-7.787-16.648-17.048-16.648s-16.827 7.39-17.047 16.648v.948c.192 2.355 1.858 4.672 4.988 6.492 6.655 3.83 17.464 3.83 24.138 0 3.111-1.82 4.787-4.137 4.969-6.492.01-.16.01-.32 0-.479a3.83 3.83 0 0 0 0-.469z" fill="#fff" opacity=".6"/><path d="M241.746 308.949a17.023 17.023 0 0 0-24.406 14.888v.948c.192 2.355 1.858 4.672 4.989 6.492a22.73 22.73 0 0 0 8.56 2.661c-4.424-.756-7.287-5.697-5.927-11.154 1.541-6.329 7.937-15.444 16.784-13.835z" fill="#fff" opacity=".5"/><path d="M251.397 324.785c.01-.16.01-.32 0-.479a3.83 3.83 0 0 0 0-.469 16.956 16.956 0 0 0-5.793-12.332c1.858 1.915 5.975 9.086 1.503 14.563-2.948 3.6-16.927 8.732-28.436 2.135.99 1.256 2.22 2.3 3.62 3.074 6.654 3.83 17.463 3.83 24.137 0 3.111-1.82 4.777-4.137 4.969-6.492z" fill="#8e6eff" opacity=".1"/><path d="M234.172 311.094c.766 1.733-.699 4.06-3.274 5.189-2.576 1.13-5.276.641-6.042-1.101s.709-4.06 3.284-5.19c2.576-1.13 5.276-.64 6.032 1.102zm-9.87 7.075a2.24 2.24 0 1 1-2.73-.756 2.03 2.03 0 0 1 2.73.756z" fill="#fff" opacity=".3"/><path d="M220.998 329.898c-.344-11.438-9.716-20.533-21.16-20.533-11.443 0-20.815 9.095-21.16 20.533v1.178c.24 2.93 2.308 5.802 6.195 8.052 8.254 4.787 21.677 4.787 29.95 0 3.83-2.25 5.936-5.123 6.175-8.052v-.594c0-.201.019-.383 0-.584z" fill="#8e6eff"/><path d="M220.998 329.898c-.344-11.438-9.716-20.533-21.16-20.533-11.443 0-20.815 9.095-21.16 20.533v1.178c.24 2.93 2.308 5.802 6.195 8.052 8.254 4.787 21.677 4.787 29.95 0 3.83-2.25 5.936-5.123 6.175-8.052v-.594c0-.201.019-.383 0-.584z" fill="#fff" opacity=".8"/><path d="M209.02 311.42a21.15 21.15 0 0 0-30.341 18.478v1.178c.24 2.93 2.307 5.802 6.194 8.052a28.206 28.206 0 0 0 10.618 3.312c-5.486-.957-9.038-7.075-7.353-13.844 1.963-7.851 9.9-19.207 20.882-17.177z" fill="#fff" opacity=".3"/><path d="M220.998 331.076v-.594-.584a21.064 21.064 0 0 0-7.181-15.32c2.298 2.366 7.41 11.28 1.848 18.068-3.648 4.471-21.006 10.848-35.282 2.652a14.83 14.83 0 0 0 4.49 3.83c8.254 4.787 21.677 4.787 29.95 0 3.867-2.25 5.936-5.123 6.175-8.052z" fill="#8e6eff" opacity=".1"/><path d="M199.628 314.043c.957 2.154-.881 5.045-4.07 6.443-3.188 1.398-6.548.795-7.496-1.369s.871-5.036 4.069-6.444 6.549-.746 7.497 1.37zm-12.265 8.818a2.777 2.777 0 1 1-3.39-.958 2.509 2.509 0 0 1 3.39.958z" fill="#fff" opacity=".3"/><path d="M280.82 317.432a7.478 7.478 0 0 0-14.956 0c-.005.07-.005.14 0 .21a1.417 1.417 0 0 0 0 .202 3.83 3.83 0 0 0 2.183 2.872 11.72 11.72 0 0 0 10.57.029 3.83 3.83 0 0 0 2.183-2.873 1.417 1.417 0 0 0 0-.2c.013-.08.02-.16.02-.24z" fill="#8e6eff"/><path d="M280.82 317.432a7.478 7.478 0 0 0-14.956 0c-.005.07-.005.14 0 .21a1.417 1.417 0 0 0 0 .202 3.83 3.83 0 0 0 2.183 2.872 11.72 11.72 0 0 0 10.57.029 3.83 3.83 0 0 0 2.183-2.873 1.417 1.417 0 0 0 0-.2c.013-.08.02-.16.02-.24z" fill="#fff" opacity=".2"/><path d="M276.587 310.902a7.468 7.468 0 0 0-10.723 6.942 3.83 3.83 0 0 0 2.183 2.872 10.034 10.034 0 0 0 3.753 1.168c-1.915-.335-3.198-2.499-2.595-4.893.69-2.795 3.495-6.778 7.382-6.089z" fill="#fff" opacity=".5"/><path d="M280.82 317.872a1.417 1.417 0 0 0 0-.2 7.449 7.449 0 0 0-2.537-5.62c.813.832 2.622 3.982.65 6.385-1.293 1.58-7.42 3.83-12.447.958a5.276 5.276 0 0 0 1.6 1.35 11.72 11.72 0 0 0 10.531 0 3.83 3.83 0 0 0 2.202-2.873z" fill="#455a64" opacity=".05"/><path d="M273.265 311.84c.335.757-.306 1.781-1.436 2.28-1.13.497-2.317.277-2.652-.49-.336-.765.306-1.78 1.436-2.278s2.317-.278 2.652.488zm-4.337 3.103a.957.957 0 1 1-1.197-.336.89.89 0 0 1 1.197.336z" fill="#fff" opacity=".3"/><path d="M11.145 308.422c0-6.837 5.542-12.38 12.38-12.38s12.38 5.543 12.38 12.38c.009.115.009.23 0 .345.01.115.01.23 0 .345-.135 1.714-1.341 3.399-3.62 4.72-4.835 2.786-12.686 2.786-17.521 0-2.27-1.321-3.476-3.006-3.62-4.72v-.345c0-.125-.009-.22 0-.345z" fill="#8e6eff"/><path d="M11.145 308.422c0-6.837 5.542-12.38 12.38-12.38s12.38 5.543 12.38 12.38c.009.115.009.23 0 .345.01.115.01.23 0 .345-.135 1.714-1.341 3.399-3.62 4.72-4.835 2.786-12.686 2.786-17.521 0-2.27-1.321-3.476-3.006-3.62-4.72v-.345c0-.125-.009-.22 0-.345z" fill="#fff" opacity=".5"/><path d="M18.191 297.613a12.37 12.37 0 0 1 17.752 10.81c.009.114.009.23 0 .344.01.115.01.23 0 .345-.134 1.714-1.34 3.399-3.62 4.72a16.602 16.602 0 0 1-6.213 1.915c3.217-.556 5.294-4.136 4.308-8.1-1.187-4.577-5.83-11.221-12.227-10.034z" fill="#fff" opacity=".5"/><path d="M11.145 309.112v-.345-.345a12.313 12.313 0 0 1 4.203-8.942c-1.34 1.379-4.337 6.597-1.082 10.532 2.135 2.614 12.294 6.338 20.643 1.55a8.713 8.713 0 0 1-2.624 2.232c-4.835 2.786-12.686 2.786-17.521 0-2.27-1.283-3.476-2.968-3.62-4.682z" fill="#8e6eff" opacity=".2"/><path d="M23.659 299.173c-.556 1.264.507 2.95 2.374 3.773s3.83.46 4.385-.805c.555-1.263-.507-2.948-2.374-3.772s-3.84-.46-4.385.804zm7.17 5.132a1.628 1.628 0 1 0 1.983-.545 1.474 1.474 0 0 0-1.982.545z" fill="#fff" opacity=".3"/><path d="M48.179 307.13c.225-9.756 8.198-17.547 17.957-17.547s17.731 7.791 17.957 17.547v1.005c-.202 2.48-1.915 4.921-5.257 6.827-7.008 4.06-18.392 4.06-25.42 0-3.284-1.915-5.036-4.347-5.237-6.827a4.5 4.5 0 0 1 0-.507 4.328 4.328 0 0 1 0-.498z" fill="#8e6eff"/><path d="M48.179 307.13c.225-9.756 8.198-17.547 17.957-17.547s17.731 7.791 17.957 17.547v1.005c-.202 2.48-1.915 4.921-5.257 6.827-7.008 4.06-18.392 4.06-25.42 0-3.284-1.915-5.036-4.347-5.237-6.827a4.5 4.5 0 0 1 0-.507 4.328 4.328 0 0 1 0-.498z" fill="#fff" opacity=".7"/><path d="M58.337 291.447a17.952 17.952 0 0 1 25.756 15.683v1.005c-.202 2.48-1.915 4.921-5.257 6.827a23.754 23.754 0 0 1-9.01 2.815c4.654-.805 7.66-6.004 6.243-11.748-1.666-6.664-8.406-16.296-17.732-14.582z" fill="#fff" opacity=".3"/><path d="M48.179 308.135a4.5 4.5 0 0 1 0-.507 4.328 4.328 0 0 1 0-.498 17.856 17.856 0 0 1 6.099-12.983c-1.915 2.01-6.3 9.574-1.58 15.319 3.102 3.83 17.828 9.201 29.949 2.25a12.504 12.504 0 0 1-3.83 3.227c-7.008 4.06-18.393 4.06-25.42 0-3.265-1.858-5.017-4.328-5.218-6.808z" fill="#8e6eff" opacity=".1"/><path d="M66.313 293.706c-.804 1.83.747 4.28 3.456 5.467 2.71 1.188 5.553.67 6.358-1.158.804-1.829-.738-4.28-3.447-5.467-2.71-1.187-5.563-.67-6.367 1.158zm10.407 7.459a2.355 2.355 0 1 0 2.873-.804 2.126 2.126 0 0 0-2.873.804z" fill="#fff" opacity=".5"/><path d="M32.362 317.671c.22-9.257 7.787-16.648 17.047-16.648 9.26 0 16.828 7.39 17.047 16.648.01.16.01.32 0 .479.01.156.01.313 0 .47-.191 2.364-1.857 4.681-4.988 6.49-6.654 3.83-17.464 3.83-24.128 0-3.12-1.809-4.787-4.126-4.978-6.49a3.83 3.83 0 0 1 0-.47c-.01-.16-.01-.32 0-.479z" fill="#8e6eff"/><path d="M32.362 317.671c.22-9.257 7.787-16.648 17.047-16.648 9.26 0 16.828 7.39 17.047 16.648.01.16.01.32 0 .479.01.156.01.313 0 .47-.191 2.364-1.857 4.681-4.988 6.49-6.654 3.83-17.464 3.83-24.128 0-3.12-1.809-4.787-4.126-4.978-6.49a3.83 3.83 0 0 1 0-.47c-.01-.16-.01-.32 0-.479z" fill="#fff" opacity=".6"/><path d="M42.013 302.793a17.023 17.023 0 0 1 24.443 14.878c.01.16.01.32 0 .479.01.156.01.313 0 .47-.191 2.364-1.857 4.681-4.988 6.49a22.577 22.577 0 0 1-8.56 2.672c4.424-.766 7.287-5.745 5.927-11.154-1.58-6.33-7.975-15.473-16.822-13.835z" fill="#fff" opacity=".5"/><path d="M32.362 318.62a3.83 3.83 0 0 1 0-.47c-.01-.16-.01-.32 0-.479a16.937 16.937 0 0 1 5.744-12.322c-1.857 1.915-5.974 9.086-1.503 14.553 2.95 3.6 16.928 8.742 28.436 2.135a11.738 11.738 0 0 1-3.619 3.074c-6.654 3.83-17.464 3.83-24.127 0-3.074-1.81-4.74-4.127-4.931-6.492z" fill="#8e6eff" opacity=".15"/><path d="M49.586 304.928c-.766 1.742.7 4.069 3.275 5.199s5.275.632 6.041-1.101-.708-4.07-3.284-5.2-5.275-.631-6.032 1.102zm9.871 7.075a2.24 2.24 0 1 0 2.73-.756 2.03 2.03 0 0 0-2.73.756z" fill="#fff" opacity=".3"/><path d="M63.967 327.341c.245-11.508 9.644-20.709 21.155-20.709s20.91 9.201 21.155 20.71v1.177c-.24 2.93-2.298 5.802-6.195 8.052-8.253 4.788-21.667 4.788-29.949 0-3.83-2.25-5.927-5.122-6.166-8.052v-.584c0-.201-.02-.392 0-.594z" fill="#8e6eff"/><path d="M63.967 327.341c.245-11.508 9.644-20.709 21.155-20.709s20.91 9.201 21.155 20.71v1.177c-.24 2.93-2.298 5.802-6.195 8.052-8.253 4.788-21.667 4.788-29.949 0-3.83-2.25-5.927-5.122-6.166-8.052v-.584c0-.201-.02-.392 0-.594z" fill="#fff" opacity=".8"/><path d="M75.935 308.872a21.13 21.13 0 0 1 30.342 18.47v1.177c-.24 2.93-2.298 5.802-6.195 8.052a28.149 28.149 0 0 1-10.618 3.323c5.496-.958 9.048-7.076 7.353-13.845-1.953-7.86-9.89-19.206-20.882-17.177z" fill="#fff" opacity=".3"/><path d="M63.967 328.52v-.585-.594a21.064 21.064 0 0 1 7.18-15.319c-2.297 2.365-7.41 11.27-1.857 18.058 3.658 4.471 21.007 10.848 35.282 2.652a14.582 14.582 0 0 1-4.49 3.83c-8.253 4.787-21.667 4.787-29.949 0-3.868-2.24-5.927-5.113-6.166-8.043z" fill="#8e6eff" opacity=".1"/><path d="M85.337 311.524c-.957 2.164.872 5.046 4.06 6.444s6.549.795 7.497-1.36c.947-2.154-.872-5.045-4.06-6.453-3.188-1.407-6.549-.785-7.497 1.37zm12.256 8.78a2.777 2.777 0 1 0 3.389-.957 2.518 2.518 0 0 0-3.39.957z" fill="#fff" opacity=".3"/><path d="M182.518 331.143c-.234-10.501-8.813-18.892-19.316-18.892s-19.083 8.39-19.317 18.892a7.516 7.516 0 0 0 0 1.072c.22 2.68 2.106 5.304 5.659 7.353 7.535 4.356 19.78 4.356 27.335 0 3.533-2.049 5.419-4.672 5.64-7.353a7.516 7.516 0 0 0 0-1.072z" fill="#8e6eff"/><path d="M182.518 331.143c-.234-10.501-8.813-18.892-19.316-18.892s-19.083 8.39-19.317 18.892a7.516 7.516 0 0 0 0 1.072c.22 2.68 2.106 5.304 5.659 7.353 7.535 4.356 19.78 4.356 27.335 0 3.533-2.049 5.419-4.672 5.64-7.353a7.516 7.516 0 0 0 0-1.072z" fill="#fff" opacity=".9"/><path d="M171.584 314.272a19.302 19.302 0 0 0-27.699 16.87 7.516 7.516 0 0 0 0 1.073c.22 2.68 2.106 5.304 5.659 7.353a25.755 25.755 0 0 0 9.689 3.026c-5.007-.862-8.253-6.463-6.702-12.639 1.771-7.171 9.019-17.53 19.053-15.683z" fill="#fff" opacity=".5"/><path d="M182.518 332.234a7.516 7.516 0 0 0 0-1.072 19.245 19.245 0 0 0-6.558-13.97c2.096 2.164 6.769 10.293 1.694 16.497-3.341 4.08-19.149 9.9-32.218 2.423a13.5 13.5 0 0 0 4.108 3.475c7.535 4.357 19.78 4.357 27.335 0 3.533-2.068 5.419-4.691 5.64-7.353z" fill="#8e6eff" opacity=".1"/><ellipse cx="157.737" cy="319.007" fill="#fff" opacity=".5" rx="5.764" ry="3.897" transform="rotate(-23.71 157.737 319.007)"/><path d="M151.813 324.718a2.547 2.547 0 1 1-3.093-.852 2.298 2.298 0 0 1 3.093.852z" fill="#fff" opacity=".5"/><path d="M101.834 333.24c.32-9.917 8.452-17.79 18.373-17.79 9.922 0 18.054 7.873 18.374 17.79v1.024c-.21 2.547-2.001 5.046-5.381 6.99-7.171 4.145-18.814 4.145-26.004 0-3.36-1.916-5.151-4.443-5.362-6.99v-.508c0-.173-.01-.344 0-.517z" fill="#8e6eff"/><path d="M101.834 333.24c.32-9.917 8.452-17.79 18.373-17.79 9.922 0 18.054 7.873 18.374 17.79v1.024c-.21 2.547-2.001 5.046-5.381 6.99-7.171 4.145-18.814 4.145-26.004 0-3.36-1.916-5.151-4.443-5.362-6.99v-.508c0-.173-.01-.344 0-.517z" fill="#fff" opacity=".9"/><path d="M112.232 317.202a18.354 18.354 0 0 1 26.349 16.037v1.025c-.21 2.547-2.001 5.046-5.381 6.99a24.415 24.415 0 0 1-9.22 2.872c4.787-.824 7.85-6.147 6.386-12.026-1.695-6.807-8.588-16.66-18.134-14.898z" fill="#fff" opacity=".5"/><path d="M101.834 334.264v-.508-.517a18.326 18.326 0 0 1 6.243-13.28c-2.001 2.06-6.434 9.795-1.609 15.693 3.17 3.878 18.192 9.412 30.638 2.298a12.734 12.734 0 0 1-3.896 3.303c-7.172 4.146-18.814 4.146-26.005 0-3.37-1.943-5.16-4.442-5.371-6.99z" fill="#8e6eff" opacity=".1"/><path d="M120.399 319.51c-.823 1.914.756 4.375 3.523 5.591 2.767 1.216 5.688.69 6.511-1.187.823-1.877-.756-4.376-3.533-5.592-2.777-1.216-5.687-.689-6.501 1.188zm10.637 7.62a2.422 2.422 0 1 0 2.95-.813 2.193 2.193 0 0 0-2.95.814z" fill="#fff" opacity=".5"/><path d="M149.505 339.664a7.487 7.487 0 0 0-14.965 0v.421a3.83 3.83 0 0 0 2.193 2.872 11.72 11.72 0 0 0 10.59 0 3.83 3.83 0 0 0 2.182-2.872c.005-.07.005-.14 0-.21.005-.07.005-.141 0-.211z" fill="#8e6eff"/><path d="M149.505 339.664a7.487 7.487 0 0 0-14.965 0v.421a3.83 3.83 0 0 0 2.193 2.872 11.72 11.72 0 0 0 10.59 0 3.83 3.83 0 0 0 2.182-2.872c.005-.07.005-.14 0-.21.005-.07.005-.141 0-.211z" fill="#fff" opacity=".9"/><path d="M145.273 333.134a7.41 7.41 0 0 0-3.245-.747 7.487 7.487 0 0 0-7.488 7.277v.421a3.83 3.83 0 0 0 2.193 2.872 10.034 10.034 0 0 0 3.753 1.169c-1.915-.336-3.198-2.5-2.595-4.893.69-2.805 3.495-6.817 7.382-6.099z" fill="#fff" opacity=".6"/><path d="M149.505 340.085c.005-.07.005-.14 0-.21a7.449 7.449 0 0 0-2.537-5.62c.814.842 2.623 3.992.651 6.385-1.292 1.58-7.42 3.83-12.447.958.435.551.975 1.01 1.59 1.35a11.72 11.72 0 0 0 10.59 0 3.83 3.83 0 0 0 2.153-2.863z" fill="#8e6eff" opacity=".1"/><path d="M141.951 334.072c.335.766-.306 1.781-1.436 2.28-1.13.497-2.317.277-2.652-.48s.306-1.79 1.436-2.288c1.13-.498 2.317-.278 2.652.488zm-4.337 3.102a.957.957 0 1 1-1.197-.325.89.89 0 0 1 1.197.325z" fill="#fff" opacity=".5"/><path d="M.67 311.323a7.487 7.487 0 0 1 14.965 0v.422a3.83 3.83 0 0 1-2.192 2.872 11.662 11.662 0 0 1-10.59 0 3.83 3.83 0 0 1-2.183-2.872 1.551 1.551 0 0 1 0-.211 1.628 1.628 0 0 1 0-.21z" fill="#8e6eff"/><path d="M.67 311.323a7.487 7.487 0 0 1 14.965 0v.422a3.83 3.83 0 0 1-2.192 2.872 11.662 11.662 0 0 1-10.59 0 3.83 3.83 0 0 1-2.183-2.872 1.551 1.551 0 0 1 0-.211 1.628 1.628 0 0 1 0-.21z" fill="#fff" opacity=".2"/><path d="M4.902 304.794a7.478 7.478 0 0 1 10.733 6.53v.42a3.83 3.83 0 0 1-2.192 2.873 10.044 10.044 0 0 1-3.754 1.178c1.915-.335 3.198-2.509 2.595-4.902-.69-2.806-3.495-6.817-7.382-6.1z" fill="#fff" opacity=".5"/><path d="M.67 311.745a1.551 1.551 0 0 1 0-.211 7.41 7.41 0 0 1 2.537-5.61c-.813.832-2.623 3.982-.65 6.386 1.292 1.58 7.42 3.83 12.446.957a5.256 5.256 0 0 1-1.59 1.34 11.662 11.662 0 0 1-10.589 0 3.83 3.83 0 0 1-2.154-2.862z" fill="#455a64" opacity=".05"/><path d="M8.224 305.732c-.335.766.307 1.79 1.437 2.279 1.13.488 2.317.287 2.652-.48.335-.765-.307-1.78-1.436-2.278-1.13-.498-2.317-.277-2.653.479zm4.338 3.112a.957.957 0 1 0 1.197-.335.88.88 0 0 0-1.197.335z" fill="#fff" opacity=".3"/></g><g fill="#fff" transform="translate(41.17 19.149)"><path d="M117.47 172.628a1.494 1.494 0 1 1-1.494-1.494 1.484 1.484 0 0 1 1.493 1.494z"/><circle cx="18.613" cy="149.084" r="1.494"/><path d="M143.11 35.57a1.494 1.494 0 1 1-2.988 0 1.494 1.494 0 0 1 2.988 0zM3.054 79.534a1.494 1.494 0 1 1-1.484-1.484c.82 0 1.484.664 1.484 1.484zM256.816 182.93a1.609 1.609 0 1 1-3.217 0 1.609 1.609 0 0 1 3.217 0zm4.49 2.815a.804.804 0 1 1-1.608 0 .804.804 0 0 1 1.608 0zm44.12 47.374a.804.804 0 1 1-.805-.804c.442.005.8.362.805.804zm-2.614 6.559a1.609 1.609 0 1 1-3.217.019 1.609 1.609 0 0 1 3.217-.02zm65.403-125.024a.804.804 0 0 1-.594 1.494.804.804 0 0 1 .594-1.494zm5.19 4.864a1.609 1.609 0 1 1-2.088.9 1.599 1.599 0 0 1 2.087-.9zM255.015 61.104a.804.804 0 1 1-.535 1.517.804.804 0 0 1 .535-1.517zm5.141 4.864a1.609 1.609 0 1 1-1.162 3 1.609 1.609 0 0 1 1.162-3zm77.956-13.06a1.609 1.609 0 1 1-1.163 3 1.609 1.609 0 0 1 1.163-3zM31.117 20.567a.747.747 0 1 1-.528 1.397.747.747 0 0 1 .528-1.397zm4.778 4.52a1.494 1.494 0 1 1-1.056 2.793 1.494 1.494 0 0 1 1.056-2.794zM67.48 151.783a.747.747 0 1 1-1.494 0 .747.747 0 0 1 1.494 0z"/><circle cx="70.87" cy="148.605" r="1.494"/><g opacity=".5"><path d="M263.509 122.448a1.695 1.695 0 1 1-1.686-1.685c.931 0 1.686.754 1.686 1.685zm-4.998 4.615a1.005 1.005 0 1 1-1.006-1.006.957.957 0 0 1 1.006 1.006zm-2.873-6.3a.814.814 0 1 1-1.627 0 .814.814 0 0 1 1.627 0z"/></g><g opacity=".5"><path d="M225.613 19.053a1.685 1.685 0 1 1-3.37 0 1.685 1.685 0 0 1 3.37 0zm-5.046 4.615a1.005 1.005 0 1 1-1.005-.957.957.957 0 0 1 1.005.957zm-2.853-6.3a.814.814 0 1 1-1.628 0 .814.814 0 0 1 1.628 0z"/></g><g opacity=".5"><path d="M12.935 57.447a1.685 1.685 0 1 1-2.669 2.058 1.685 1.685 0 0 1 2.67-2.058zm-1.158 6.702a1.006 1.006 0 1 1-1.59 1.235 1.006 1.006 0 0 1 1.59-1.235zm-6.118-3.236a.814.814 0 1 1-1.15-.144.823.823 0 0 1 1.15.144z"/></g><g opacity=".5"><path d="M122.16 255.227a1.676 1.676 0 0 1 .585 2.307 1.685 1.685 0 1 1-.584-2.307zm1.35 6.692a1.009 1.009 0 1 1-1.033 1.733 1.009 1.009 0 0 1 1.034-1.733zm-6.845-.775a.823.823 0 0 1 .278 1.12.814.814 0 1 1-.278-1.12z"/></g><path d="M305.741 87.846a1.609 1.609 0 1 1-1.608-1.609 1.618 1.618 0 0 1 1.608 1.609zm22.989 17.569l-3.15 1.091-.89 3.217a.383.383 0 0 1-.67.134l-2.011-2.661-3.332.143a.373.373 0 0 1-.326-.593l1.915-2.739-1.168-3.12a.383.383 0 0 1 .469-.499l3.188.958 2.605-2.087a.383.383 0 0 1 .612.296l.067 3.332 2.787 1.839a.373.373 0 0 1-.096.689zm-52.698-89.34l-3.16 1.092-.89 3.217a.383.383 0 0 1-.67.125l-2.01-2.662-3.333.153a.383.383 0 0 1-.325-.594l1.915-2.738-1.169-3.121a.383.383 0 0 1 .47-.498l3.188.957 2.604-2.077a.383.383 0 0 1 .622.287l.058 3.332 2.786 1.838a.383.383 0 0 1-.086.69zM88.947 6.396l-3.15 1.092-.89 3.217a.383.383 0 0 1-.67.125l-2.011-2.662-3.332.153a.373.373 0 0 1-.326-.593l1.915-2.739-1.187-3.073a.383.383 0 0 1 .469-.498l3.188.957L85.567.297a.383.383 0 0 1 .613.287l.067 3.332 2.796 1.829a.383.383 0 0 1-.096.65z"/><circle cx="88.621" cy="102.772" r="1.494"/><path d="M77.553 84.504l-1.273 3.083 1.819 2.796a.373.373 0 0 1-.345.584l-3.322-.249-2.097 2.595a.383.383 0 0 1-.67-.153l-.785-3.246-3.112-1.187a.383.383 0 0 1-.067-.68l2.872-1.743.173-3.332a.373.373 0 0 1 .622-.268l2.537 2.155 3.227-.862a.373.373 0 0 1 .421.507zM47.585 200.327l-2.776 1.857v3.332a.383.383 0 0 1-.613.297l-2.624-2.059-3.188.958a.383.383 0 0 1-.47-.498l1.16-3.131-1.915-2.72a.373.373 0 0 1 .325-.593l3.332.125 1.991-2.672a.373.373 0 0 1 .67.125l.958 3.207 3.16 1.073a.373.373 0 0 1-.01.699z"/></g><g transform="translate(132.128 97.66)"><path d="M200.221 66.897a3.006 3.006 0 1 1 6.013 0c0 1.666-1.34 61.564-3.006 61.564-1.666 0-3.007-59.898-3.007-61.564z" fill="#8e6eff"/><path d="M201.121 66.897a2.106 2.106 0 1 1 2.107 2.106 2.116 2.116 0 0 1-2.107-2.106z" fill="#8e6eff"/><path d="M201.878 66.897a1.35 1.35 0 1 1 2.7 0 1.35 1.35 0 0 1-2.7 0z" fill="#fff"/><path d="M0 127.149a1.599 1.599 0 0 1 3.198 0c0 .88-.709 32.812-1.6 32.812S0 128.03 0 127.149z" fill="#8e6eff"/><circle cx="1.551" cy="127.149" fill="#8e6eff" r="1.12"/><path d="M.833 127.149a.718.718 0 1 1 1.436 0 .718.718 0 0 1-1.436 0z" fill="#fff"/><path d="M23.62 2.422a2.097 2.097 0 0 1 4.184 0c0 1.159-.957 42.789-2.097 42.789S23.62 3.58 23.62 2.422z" fill="#8e6eff"/><path d="M24.252 2.422a1.465 1.465 0 1 1 2.93 0 1.465 1.465 0 0 1-2.93 0z" fill="#8e6eff"/><circle cx="25.707" cy="2.422" fill="#fff" r="1"/></g></g></svg>