<svg height="493" width="539" xmlns="http://www.w3.org/2000/svg"><g fill="none"><path d="M78.84 451.013c105.1 54.911 275.5 54.911 380.6 0 105.1-54.912 105.113-143.923 0-198.834-105.112-54.912-275.5-54.9-380.612 0-105.112 54.899-105.1 143.91.013 198.834z" fill="#000" fill-opacity=".1"/><g fill="#000" fill-opacity=".1"><path d="M253.447 402.864c28.285 13.442 74.133 13.442 102.355 0 28.223-13.44 28.285-35.22 0-48.662-28.284-13.441-74.12-13.441-102.355 0s-28.335 35.234 0 48.662z"/><path d="M498.3 369.597l-101.106 58.184a5.995 5.995 0 0 1-5.405 0l-126.384-72.782a1.643 1.643 0 0 1 0-3.111l101.107-58.184a5.995 5.995 0 0 1 5.405 0l126.421 72.782a1.643 1.643 0 0 1 1.1 1.57 1.644 1.644 0 0 1-1.137 1.541z"/></g><path d="M140.278 279.26c-3.62-.912-22.946-11.879-24.912-13.215-1.967-1.336-5.85-4.097-5.85-8.855 0-4.21.439-43.902 3.896-63.074a44.51 44.51 0 0 1 19.852-29.227c12.024-7.431 24.111-12.814 34.294-8.593 10.183 4.222 19.477 11.978 23.485 21.346 4.008 9.367 6.75 28.127 7.039 35.383.288 7.257 0 32.137 0 34.348 0 2.21-.401 5.083-12.337 12.49-11.937 7.406-28.42 16.236-33.518 18.522a19.516 19.516 0 0 1-11.949.874z" fill="#37474f"/><path d="M137.297 170.048c-1.102.624-4.283-.937-4.76-1.724-.475-.787-.6-7.594 1.78-11.353 2.38-3.76 17.221-10.692 20.891-10.18a10.236 10.236 0 0 1 6.826 4.347c.451.962.952 7.294 0 8.593-.951 1.3-4.346-.7-4.646-1.249-.301-.55 1.114-5.183-1.253-6.145-2.18-.874-12.525 3.51-16.733 7.032-1.83 1.536-1.741 5.346-1.654 7.232.088 1.886.1 3.122-.45 3.447zm-2.98 44.689c2.129-20.621 5.961-32.661 26.19-41.642s28.08-1.336 30.949 5.546c3.758 9.642 6.35 27.378 6.626 34.384.288 7.257 0 32.137 0 34.348 0 2.21-.401 5.083-12.337 12.49-11.937 7.406-28.42 16.236-33.518 18.522a19.515 19.515 0 0 1-11.949.912c-.8-.243-1.578-.547-2.33-.912-6.3-8.068-5.586-44.814-3.632-63.648z" fill="#455a64"/><path d="M181.473 165.04c-5.285-3.086-13.953-5.122-26.678.536-22.746 10.105-28.52 22.757-30.812 44.964-.413 4.072-1.027 8.918-1.252 14.126l-1.88-1.137c.264-5.62.815-10.429 1.253-14.775 2.505-22.37 9.231-34.734 30.962-44.39 12.037-5.345 19.94-4.645 25.176-2.01a39.391 39.391 0 0 1 3.231 2.685z" fill="#263238"/><path d="M182.263 165.614c-5.274-3.085-13.953-5.121-26.666.537-22.759 10.104-28.533 22.756-30.825 44.964-.413 4.071-1.027 8.917-1.252 14.126l-1.88-1.137c.264-5.62.815-10.429 1.253-14.776 2.505-22.369 9.231-34.746 30.963-44.389 12.036-5.345 20.153-4.458 25.388-1.836 1.053.78 2.06 1.618 3.019 2.51z" fill="#455a64"/><path d="M174.898 185.223l-6.877-3.922a1.48 1.48 0 0 0-2.004.55l-7.051 12.227c-.41.7-.174 1.6.526 2.011l6.788 3.947a1.48 1.48 0 0 0 2.017-.525l7.14-12.302a1.433 1.433 0 0 0-.54-1.986z" fill="#263238"/><path d="M167.52 198.637l6.777-11.653a.723.723 0 0 0-.276-1l-6.263-3.546a.74.74 0 0 0-1.002.275l-6.7 11.603a.736.736 0 0 0 .275.999l6.15 3.584a.74.74 0 0 0 1.04-.262z" fill="#455a64"/><path d="M168.973 193.067c.366-.221.607-.6.652-1.025v-5.583c0-.362-.288-.474-.652-.274-.366.22-.607.6-.65 1.024v5.583c0 .362.287.474.65.275zm-3.632 2.098c.365-.228.605-.61.651-1.037v-5.57c0-.362-.3-.487-.65-.275a1.336 1.336 0 0 0-.652 1.024v5.583c.037.35.288.475.651.275z" fill="#37474f"/><path d="M143.685 232.172s3.407 2.798 5.862 13.34c2.455 10.541 3.933 23.818 1.252 25.417-2.68 1.598-6.55-1.749-7.515-2.898-1.979-2.36-1.49-27.415.401-35.859z" fill="#263238"/><path d="M143.685 232.172s3.407 2.798 5.862 13.34c2.455 10.541 3.933 23.818 1.252 25.417l41.333-24.306c2.706-1.598 3.37-15.55.927-26.091-1.615-6.932-4.584-10.23-6.413-11.678a2.661 2.661 0 0 0-2.968-.187z" fill="#37474f"/><g fill="#263238"><path d="M185.795 210.465c1.979.974 5.335 3.66 6.85 10.791a5.349 5.349 0 0 1-1.69 5.42c-1.378.975-30.962 17.75-34.883 20.085-3.381 2.01-5.135-.662-5.874-2.336-1.252-2.973-2.33-5.283-3.256-7.057a14.782 14.782 0 0 0-3.244-5.183l39.416-21.608a2.863 2.863 0 0 1 2.68-.112zm-61.787 15.937a36.128 36.128 0 0 1 1.115 6.557c0 .45-.614.687-.79.687a7.987 7.987 0 0 1-3.832-1.948c.2-1.888.544-3.759 1.027-5.596z"/><path d="M125.286 224.641a2.389 2.389 0 0 0-2.393-2.385 2.389 2.389 0 0 0-2.392 2.385 2.389 2.389 0 0 0 2.392 2.386c.635 0 1.243-.252 1.692-.7s.7-1.053.7-1.686zm29.922-72.416c2.618-.25 5.085 0 5.712 2.61.626 2.61.4 4.996 0 5.32a6.27 6.27 0 0 1-3.532-1.673c-.301-.562 1.114-5.183-1.253-6.145a2.336 2.336 0 0 0-.902-.112z"/></g><path d="M183.928 208.53a2.863 2.863 0 0 1 2.693-.113c1.98.974 5.336 3.66 6.852 10.791a5.361 5.361 0 0 1-1.691 5.42c-1.378.975-30.95 17.749-34.87 20.084-3.382 2.011-5.148-.662-5.887-2.335-4.096-8.543-7.34-10.205-7.34-10.205z" fill="#37474f"/><g><path d="M176.339 353.507l-33.044-19.062a6.586 6.586 0 0 1-2.97-5.14v.375a6.561 6.561 0 0 1 2.97-5.14l66.45-38.348a6.528 6.528 0 0 1 5.927 0l33.044 19.074a6.511 6.511 0 0 1 2.97 5.128v-.375a6.561 6.561 0 0 1-2.958 5.14l-66.45 38.348a6.553 6.553 0 0 1-5.94 0z" fill="#90caf9"/><path d="M176.339 353.507l-33.044-19.062a6.586 6.586 0 0 1-2.97-5.14v.375a6.561 6.561 0 0 1 2.97-5.14l66.45-38.348a6.528 6.528 0 0 1 5.927 0l33.044 19.074a6.511 6.511 0 0 1 2.97 5.128v-.375a6.561 6.561 0 0 1-2.958 5.14l-66.45 38.348a6.553 6.553 0 0 1-5.94 0z" fill="#000" opacity=".7"/><path d="M179.246 303.757l-36.001 20.783a6.561 6.561 0 0 0-2.97 5.14v-.375a6.586 6.586 0 0 0 2.97 5.14l33.044 19.062c.913.486 1.935.73 2.97.71z" fill="#90caf9"/><path d="M179.246 303.757l-36.001 20.783a6.561 6.561 0 0 0-2.97 5.14v-.375a6.586 6.586 0 0 0 2.97 5.14l33.044 19.062c.913.486 1.935.73 2.97.71z" fill="#000" opacity=".7"/><path d="M143.282 327.97l33.032 19.075a6.64 6.64 0 0 0 5.94 0l66.45-38.36c1.647-.949 1.647-2.495 0-3.419l-33.045-19.074a6.528 6.528 0 0 0-5.927 0l-66.45 38.348c-1.647.948-1.647 2.483 0 3.43z" fill="#90caf9"/><path d="M143.282 327.97l33.032 19.075a6.64 6.64 0 0 0 5.94 0l66.45-38.36c1.647-.949 1.647-2.495 0-3.419l-33.045-19.074a6.528 6.528 0 0 0-5.927 0l-66.45 38.348c-1.647.948-1.647 2.483 0 3.43z" fill="#000" opacity=".5"/><path d="M143.282 321.696v3.168l34.292 19.798c1.062.61 2.37.61 3.432 0l67.697-39.084v-3.268l-69.42 33.682z" fill="#90caf9"/><path d="M176.326 340.77l-33.044-19.074a6.536 6.536 0 0 1-2.97-5.14v-6.1c.11-2.09 1.214-4 2.97-5.14l66.45-38.36a6.528 6.528 0 0 1 5.927 0l33.044 19.074a6.536 6.536 0 0 1 2.97 5.14v6.112a6.35 6.35 0 0 1-2.97 4.99l-66.45 38.46a6.528 6.528 0 0 1-5.927.038z" fill="#90caf9"/><path d="M176.326 340.77l-33.044-19.074a6.536 6.536 0 0 1-2.97-5.14v-6.1c.11-2.09 1.214-4 2.97-5.14l66.45-38.36a6.528 6.528 0 0 1 5.927 0l33.044 19.074a6.536 6.536 0 0 1 2.97 5.14v6.112a6.35 6.35 0 0 1-2.97 4.99l-66.45 38.46a6.528 6.528 0 0 1-5.927.038z" fill="#000" opacity=".6"/><path d="M179.246 284.533l-36.001 20.783a6.536 6.536 0 0 0-2.97 5.14v6.1c.11 2.09 1.214 4 2.97 5.14l33.044 19.074a5.991 5.991 0 0 0 2.957.71z" fill="#90caf9"/><path d="M179.246 284.533l-36.001 20.783a6.536 6.536 0 0 0-2.97 5.14v6.1c.11 2.09 1.214 4 2.97 5.14l33.044 19.074a5.991 5.991 0 0 0 2.957.71z" fill="#000" opacity=".7"/><path d="M143.282 308.734l33.032 19.074a6.553 6.553 0 0 0 5.94 0l66.45-38.347c1.647-.948 1.647-2.495 0-3.43l-33.045-19.075a6.528 6.528 0 0 0-5.927 0l-66.45 38.36c-1.647.948-1.647 2.483 0 3.418z" fill="#90caf9"/><path d="M143.282 308.734l33.032 19.074a6.553 6.553 0 0 0 5.94 0l66.45-38.347c1.647-.948 1.647-2.495 0-3.43l-33.045-19.075a6.528 6.528 0 0 0-5.927 0l-66.45 38.36c-1.647.948-1.647 2.483 0 3.418z" fill="#000" opacity=".5"/><g fill="#90caf9"><path d="M189.366 293.577c-3.656 2.121-3.656 5.527 0 7.623a14.754 14.754 0 0 0 13.253 0c3.656-2.096 3.656-5.502 0-7.623a14.68 14.68 0 0 0-13.253 0zm53.959 2.233a2.57 2.57 0 0 0-1.16 2.021c0 .749.523 1.06 1.16.699a2.57 2.57 0 0 0 1.16-2.02c0-.75-.524-1.061-1.16-.7zm0 4.479a2.57 2.57 0 0 0-1.16 2.02c0 .75.523 1.061 1.16.7a2.495 2.495 0 0 0 1.16-2.021c0-.749-.524-1.06-1.16-.7zm-80.838 78.43a.914.914 0 0 1-.437-.113l-32.02-18.6a5.464 5.464 0 0 1 0-9.456l23.472-13.548a.874.874 0 0 1 .874 1.51l-23.46 13.51a3.742 3.742 0 0 0 0 6.437l32.02 18.575a.86.86 0 0 1 .312 1.248.85.85 0 0 1-.761.437z"/><path d="M202.594 360.755l-6.938-27.844a7.483 7.483 0 0 0-.387-1.123l2.022-.287-4.406-2.495a5.792 5.792 0 0 0-5.964.262l-28.889 16.716a15.081 15.081 0 0 0-6.8 11.826v33.483c0 2.67.648 4.503 1.983 5.14l4.143 2.395-.998-2.645.225-.087c4.754-2.27 6.476-6.412 7.899-10.517l5.503-15.905c1.422-4.104 4.991-8.807 7.911-10.516 2.92-1.71 7.088 0 9.235 3.742l2.77 4.84a9.033 9.033 0 0 0 3.669 3.618l4.218 2.495-1.074-1.672a4.918 4.918 0 0 0 2.496-.673c2.883-1.722 4.43-6.512 3.382-10.753z"/></g><path d="M202.594 360.755l-6.938-27.844a7.483 7.483 0 0 0-.387-1.123l2.022-.287-4.406-2.495a5.792 5.792 0 0 0-5.964.262l-28.889 16.716a15.081 15.081 0 0 0-6.8 11.826v33.483c0 2.67.648 4.503 1.983 5.14l4.143 2.395-.998-2.645.225-.087c4.754-2.27 6.476-6.412 7.899-10.517l5.503-15.905c1.422-4.104 4.991-8.807 7.911-10.516 2.92-1.71 7.088 0 9.235 3.742l2.77 4.84a9.033 9.033 0 0 0 3.669 3.618l4.218 2.495-1.074-1.672a4.918 4.918 0 0 0 2.496-.673c2.883-1.722 4.43-6.512 3.382-10.753z" fill="#000" opacity=".7"/><path d="M195.269 331.788l2.022-.287-4.406-2.495a5.792 5.792 0 0 0-5.964.262l-28.889 16.716a13.276 13.276 0 0 0-4.043 3.93l6.876 4.191 35.165-19.86-.337-1.334a7.483 7.483 0 0 0-.424-1.123z" fill="#90caf9"/><path d="M195.269 331.788l2.022-.287-4.406-2.495a5.792 5.792 0 0 0-5.964.262l-28.889 16.716a13.276 13.276 0 0 0-4.043 3.93l6.876 4.191 35.165-19.86-.337-1.334a7.483 7.483 0 0 0-.424-1.123z" fill="#000" opacity=".5"/><path d="M203.617 374.103c-2.957 1.709-7.113 0-9.272-3.743l-2.757-4.84c-2.16-3.743-6.24-5.452-9.247-3.743-3.008 1.71-6.49 6.4-7.912 10.517l-5.49 15.893c-1.423 4.104-3.158 8.246-7.912 10.516-3.594 1.722-5.328-.45-5.328-4.79v-33.508a15.094 15.094 0 0 1 6.813-11.813l28.938-16.78a5.592 5.592 0 0 1 8.736 3.743l6.938 27.857c1.023 4.166-.537 8.982-3.507 10.69z" fill="#90caf9"/><path d="M203.617 374.103c-2.957 1.709-7.113 0-9.272-3.743l-2.757-4.84c-2.16-3.743-6.24-5.452-9.247-3.743-3.008 1.71-6.49 6.4-7.912 10.517l-5.49 15.893c-1.423 4.104-3.158 8.246-7.912 10.516-3.594 1.722-5.328-.45-5.328-4.79v-33.508a15.094 15.094 0 0 1 6.813-11.813l28.938-16.78a5.592 5.592 0 0 1 8.736 3.743l6.938 27.857c1.023 4.166-.537 8.982-3.507 10.69z" fill="#000" opacity=".6"/><path d="M192.399 341.456l.724 4.104 3.207-2.046.71 4.105-3.194 2.058.724 4.104-3.194 2.046-.724-4.104-3.195 2.058-.724-4.117 3.195-2.045-.724-4.105z" fill="#263238"/><path d="M193.322 341.942l.724 4.105 3.195-2.046.723 4.104-3.194 2.058.724 4.105-3.195 2.045-.724-4.104-3.194 2.046-.724-4.104 3.194-2.046-.723-4.104z" fill="#90caf9"/><g fill="#263238"><path d="M168.19 355.99a3.28 3.28 0 0 1-1.248 3.08c-.886.562-1.76.1-1.96-1.035a3.243 3.243 0 0 1 1.249-3.081c.873-.562 1.784-.1 1.959 1.035zm1.447 8.208a3.243 3.243 0 0 1-1.247 3.08c-.886.562-1.76.1-1.96-1.022a3.23 3.23 0 0 1 1.248-3.081c.874-.574 1.76-.113 1.96 1.023zm2.471-6.163a3.23 3.23 0 0 1-1.248 3.081c-.886.574-1.76.113-1.959-1.023a3.23 3.23 0 0 1 1.248-3.08c.886-.562 1.76-.113 1.96 1.022zm-6.389 4.104a3.23 3.23 0 0 1-1.248 3.082c-.886.573-1.76.112-1.959-1.023a3.243 3.243 0 0 1 1.248-3.082c.886-.561 1.76-.112 1.96 1.023z"/><path d="M168.252 356.027a3.243 3.243 0 0 1-1.248 3.08c-.886.562-1.76.113-1.959-1.022a3.23 3.23 0 0 1 1.248-3.081c.886-.574 1.722-.113 1.96 1.023zm1.448 8.208a3.23 3.23 0 0 1-1.248 3.081c-.886.574-1.76.113-1.96-1.023a3.23 3.23 0 0 1 1.249-3.08c.886-.562 1.76-.113 1.959 1.022zm2.47-6.15a3.23 3.23 0 0 1-1.247 3.069c-.874.574-1.76.112-1.96-1.023a3.268 3.268 0 0 1 1.248-3.082c.886-.56 1.76-.1 1.96 1.036zm-6.389 4.104a3.243 3.243 0 0 1-1.247 3.081c-.874.562-1.76.1-1.96-1.035a3.28 3.28 0 0 1 1.248-3.081c.886-.562 1.76-.1 1.96 1.035z"/><path d="M168.315 356.064a3.23 3.23 0 0 1-1.248 3.081c-.874.574-1.76.113-1.96-1.023a3.268 3.268 0 0 1 1.248-3.081c.886-.561 1.76-.112 1.96 1.023zm1.447 8.22a3.23 3.23 0 0 1-1.248 3.07c-.873.574-1.76.112-1.959-1.023a3.268 3.268 0 0 1 1.248-3.082c.886-.56 1.76-.1 1.96 1.036zm2.483-6.162a3.268 3.268 0 0 1-1.247 3.082c-.886.561-1.76.1-1.96-1.023a3.23 3.23 0 0 1 1.248-3.082c.874-.573 1.76-.112 1.96 1.023zm-6.389 4.105a3.268 3.268 0 0 1-1.248 3.08c-.886.562-1.76.113-1.959-1.022a3.23 3.23 0 0 1 1.248-3.081c.874-.574 1.76-.113 1.96 1.023z"/><path d="M168.39 356.114a3.268 3.268 0 0 1-1.248 3.081c-.886.562-1.76.1-1.96-1.035a3.23 3.23 0 0 1 1.248-3.07c.874-.573 1.76-.074 1.96 1.024zm1.447 8.208a3.268 3.268 0 0 1-1.248 3.082c-.886.561-1.76.112-1.959-1.023a3.23 3.23 0 0 1 1.248-3.082c.873-.573 1.76-.112 1.96 1.023zm2.47-6.162a3.23 3.23 0 0 1-1.247 3.081c-.886.574-1.76.112-1.96-1.023a3.243 3.243 0 0 1 1.249-3.081c.886-.562 1.76-.112 1.959 1.023zm-6.388 4.104a3.23 3.23 0 0 1-1.248 3.081c-.886.574-1.76.113-1.96-1.023a3.243 3.243 0 0 1 1.249-3.081c.886-.561 1.76-.112 1.959 1.023z"/><path d="M168.452 356.151a3.243 3.243 0 0 1-1.248 3.082c-.886.561-1.76.112-1.96-1.023a3.23 3.23 0 0 1 1.249-3.082c.886-.573 1.76-.112 1.959 1.023zm1.447 8.209a3.23 3.23 0 0 1-1.247 3.081c-.886.574-1.76.112-1.96-1.023a3.243 3.243 0 0 1 1.248-3.081c.886-.562 1.76-.112 1.96 1.023zm2.471-6.15c.18 1.178-.299 2.36-1.248 3.08-.886.562-1.76.1-1.959-1.034a3.243 3.243 0 0 1 1.248-3.082c.886-.561 1.76-.1 1.96 1.036zm-6.389 4.104a3.243 3.243 0 0 1-1.248 3.081c-.873.562-1.76.1-1.959-1.035a3.255 3.255 0 0 1 1.248-3.07c.886-.573 1.76-.111 1.96 1.024z"/><path d="M168.514 356.189a3.23 3.23 0 0 1-1.248 3.081c-.873.574-1.76.112-1.959-1.023a3.268 3.268 0 0 1 1.248-3.081c.886-.562 1.76-.15 1.96 1.023zm1.448 8.22c.18 1.179-.3 2.36-1.248 3.082-.874.561-1.76.1-1.96-1.035a3.268 3.268 0 0 1 1.249-3.082c.886-.561 1.76-.1 1.959 1.036zm2.47-6.162a3.243 3.243 0 0 1-1.247 3.081c-.874.562-1.76.113-1.96-1.023-.179-1.178.3-2.36 1.248-3.08.886-.575 1.76-.113 1.96 1.022zm-6.376 4.104a3.268 3.268 0 0 1-1.248 3.082c-.886.561-1.76.112-1.96-1.023a3.23 3.23 0 0 1 1.249-3.082c.873-.573 1.76-.074 1.959 1.023z"/><path d="M168.59 356.264a3.268 3.268 0 0 1-1.249 3.08c-.886.562-1.76.1-1.959-1.022a3.23 3.23 0 0 1 1.248-3.081c.874-.6 1.76-.138 1.96 1.023zm1.447 8.183a3.268 3.268 0 0 1-1.248 3.081c-.886.562-1.76.113-1.96-1.023a3.23 3.23 0 0 1 1.249-3.08c.873-.575 1.76-.113 1.959 1.022zm2.47-6.162c.18 1.177-.299 2.36-1.247 3.08-.886.575-1.76.113-1.96-1.022a3.243 3.243 0 0 1 1.248-3.081c.874-.562 1.76-.113 1.96 1.023zm-6.389 4.104a3.23 3.23 0 0 1-1.248 3.081c-.886.574-1.759.112-1.959-1.023a3.243 3.243 0 0 1 1.248-3.081c.886-.562 1.76-.112 1.96 1.023z"/><path d="M168.652 356.264a3.23 3.23 0 0 1-1.248 3.08c-.886.575-1.76.113-1.96-1.022a3.23 3.23 0 0 1 1.248-3.081c.886-.562 1.76-.1 1.96 1.023zm1.447 8.22a3.23 3.23 0 0 1-1.248 3.082c-.886.574-1.76.112-1.959-1.023a3.243 3.243 0 0 1 1.248-3.081c.886-.562 1.76-.113 1.96 1.023zm2.47-6.15a3.243 3.243 0 0 1-1.247 3.082c-.886.561-1.76.1-1.96-1.036a3.23 3.23 0 0 1 1.249-3.069c.886-.573 1.76-.112 1.959 1.023zm-6.388 4.167a3.243 3.243 0 0 1-1.248 3.081c-.874.562-1.76.1-1.96-1.023a3.23 3.23 0 0 1 1.249-3.08c.886-.637 1.76-.225 1.959 1.022z"/><path d="M168.714 356.326a3.23 3.23 0 0 1-1.248 3.069c-.886.574-1.76.112-1.96-1.023a3.243 3.243 0 0 1 1.249-3.081c.886-.562 1.76-.1 1.959 1.035zm1.448 8.208a3.243 3.243 0 0 1-1.248 3.082c-.874.561-1.76.1-1.96-1.036a3.23 3.23 0 0 1 1.248-3.069c.886-.573 1.76-.112 1.96 1.023zm2.47-6.162a3.243 3.243 0 0 1-1.248 3.081c-.873.561-1.76.112-1.959-1.023-.18-1.178.3-2.36 1.248-3.081.886-.574 1.76-.112 1.96 1.023zm-6.389 4.129a3.23 3.23 0 0 1-1.248 3.081c-.873.574-1.747.113-1.959-1.023-.18-1.178.3-2.36 1.248-3.08.886-.6 1.76-.138 1.96 1.022z"/><path d="M168.776 356.363a3.243 3.243 0 0 1-1.248 3.082c-.873.561-1.759.1-1.959-1.023-.18-1.178.3-2.36 1.248-3.082.886-.573 1.76-.112 1.96 1.023zm1.448 8.209a3.243 3.243 0 0 1-1.248 3.081c-.873.561-1.747.112-1.947-1.023a3.23 3.23 0 0 1 1.248-3.081c.874-.574 1.747-.112 1.947 1.023zm2.483-6.163c.18 1.178-.3 2.36-1.248 3.082-.886.573-1.76.112-1.959-1.023a3.243 3.243 0 0 1 1.248-3.082c.874-.561 1.76-.1 1.96 1.023zm-6.389 4.092a3.255 3.255 0 0 1-1.248 3.069c-.886.574-1.76.112-1.959-1.023a3.243 3.243 0 0 1 1.248-3.081c.873-.537 1.76-.075 1.959 1.035z"/><path d="M168.851 356.4c.18 1.179-.299 2.36-1.248 3.082-.886.574-1.76.112-1.959-1.023a3.243 3.243 0 0 1 1.248-3.081c.874-.562 1.76-.112 1.96 1.023zm1.448 8.21c.18 1.177-.3 2.36-1.248 3.08-.886.574-1.76.113-1.96-1.022a3.243 3.243 0 0 1 1.249-3.082c.923-.561 1.76-.1 1.959 1.023zm2.47-6.15a3.243 3.243 0 0 1-1.247 3.08c-.886.562-1.76.1-1.96-1.022a3.23 3.23 0 0 1 1.248-3.082c.949-.574 1.76-.112 1.96 1.023zm-6.389 4.103a3.243 3.243 0 0 1-1.247 3.082c-.886.561-1.76.1-1.96-1.023a3.23 3.23 0 0 1 1.248-3.082c.886-.573 1.76-.112 1.96 1.023z"/><path d="M168.914 356.45c.179 1.179-.3 2.36-1.248 3.082-.886.561-1.76.1-1.96-1.035a3.243 3.243 0 0 1 1.248-3.082c.886-.561 1.76-.1 1.96 1.036zm1.447 8.21a3.243 3.243 0 0 1-1.248 3.08c-.886.562-1.76.1-1.959-1.022a3.23 3.23 0 0 1 1.248-3.082c.861-.574 1.76-.112 1.96 1.023zm2.471-6.163a3.23 3.23 0 0 1-1.248 3.08c-.873.575-1.76.113-1.96-1.022-.178-1.178.3-2.36 1.249-3.081.886-.574 1.76-.113 1.959 1.023zm-6.39 4.104a3.23 3.23 0 0 1-1.247 3.081c-.874.574-1.76.112-1.96-1.023a3.268 3.268 0 0 1 1.249-3.081c.886-.562 1.76-.112 1.959 1.023zm25.957-21.145l.923.486-3.194 2.059-.924-.487zm-2.471 6.163l.923.486-3.194 2.046-.924-.487zm4.118-1.572l-.175-.96 2.459-1.573.91.487zm-7.313 3.617l.924.487.724 4.104-.924-.474zm4.643 6.163l.923.486-.724-4.104-.749.487z"/></g><path d="M168.914 356.45c.179 1.179-.3 2.36-1.248 3.082-.886.561-1.76.1-1.96-1.035a3.243 3.243 0 0 1 1.248-3.082c.886-.561 1.76-.1 1.96 1.036zm1.447 8.21a3.243 3.243 0 0 1-1.248 3.08c-.886.562-1.76.1-1.959-1.022a3.23 3.23 0 0 1 1.248-3.082c.861-.574 1.76-.112 1.96 1.023zm2.471-6.163a3.23 3.23 0 0 1-1.248 3.08c-.873.575-1.76.113-1.96-1.022-.178-1.178.3-2.36 1.249-3.081.886-.574 1.76-.113 1.959 1.023zm-6.39 4.104a3.23 3.23 0 0 1-1.247 3.081c-.874.574-1.76.112-1.96-1.023a3.268 3.268 0 0 1 1.249-3.081c.886-.562 1.76-.112 1.959 1.023z" fill="#90caf9"/></g><path d="M200.172 7.366l-13.373 7.753a14.33 14.33 0 0 0 .112-1.776V9.454c0-6.928-4.84-9.741-10.798-6.252a20.749 20.749 0 0 0-6.444 6.252C168.686.701 161.894-2.5 153.634 2.29c-8.932 5.19-16.172 17.795-16.172 28.15v5.827a15.476 15.476 0 0 0 1.369 6.752l-11.11 6.44a13.357 13.357 0 0 0-5.995 10.442c0 3.84 2.687 5.403 5.996 3.477l72.45-42.043a13.357 13.357 0 0 0 5.996-10.442c0-3.889-2.663-5.452-5.996-3.526z" fill="#f0f0f0"/><g><path d="M479.305 356.276l-2.503-1.412 1.777-.8s1.39.376 1.427.438a7.11 7.11 0 0 1-.1.962z" fill="#e0e0e0"/><path d="M479.305 356.276l-2.503-1.412 1.777-.8s1.39.376 1.427.438a7.11 7.11 0 0 1-.1.962z" fill="#90caf9"/><path d="M479.305 356.276l-2.503-1.412 1.777-.8s1.39.376 1.427.438a7.11 7.11 0 0 1-.1.962z" fill="#fff" opacity=".1"/><path d="M386.15 403.12a7.936 7.936 0 0 0 7.16 0l80.287-46.231-120.168-69.273-2.804-1.611-80.287 46.231c-1.965 1.137-1.965 2.999 0 4.123z" fill="#90caf9"/><path d="M386.15 403.12a7.936 7.936 0 0 0 7.16 0l80.287-46.231-120.168-69.273-2.804-1.611-80.287 46.231c-1.965 1.137-1.965 2.999 0 4.123z" fill="#fff" opacity=".8"/><path d="M416.305 315.705l28.001 16.081 18.126-10.446 21.042 12.17v15.132c0 1.837-2.066 4.448-2.817 4.023-1.389.335-2.74.813-4.03 1.425a30.251 30.251 0 0 0-5.821 4.298l-64.34-37.073z" fill="#e0e0e0"/><path d="M416.305 315.705l28.001 16.081 18.126-10.446 21.042 12.17v15.132c0 1.837-2.066 4.448-2.817 4.023-1.389.335-2.74.813-4.03 1.425a30.251 30.251 0 0 0-5.821 4.298l-64.34-37.073z" fill="#90caf9"/><path d="M416.305 315.705l28.001 16.081 18.126-10.446 21.042 12.17v15.132c0 1.837-2.066 4.448-2.817 4.023-1.389.335-2.74.813-4.03 1.425a30.251 30.251 0 0 0-5.821 4.298l-64.34-37.073z" fill="#fff" opacity=".1"/><path d="M393.348 403.107l4.844-2.798 72.689-41.884c.055-.947.4-1.854.989-2.599a10.509 10.509 0 0 1 3.18-2.798 7.307 7.307 0 0 1 3.43-1.062 3.66 3.66 0 0 1 2.252.737 12.314 12.314 0 0 0 1.34-5.998h2.754c0 3.749-1.252 7.597-2.792 8.472l-1.39.812c-.788.45-1.414.475-1.414 0v-.737c0-.825-1.252-.787-2.804.112-1.552.9-2.791 2.274-2.791 3.099v.75c0 .424-1.077 1.374-2.378 2.124l-70.299 40.52-7.61 4.374a7.522 7.522 0 0 1-3.568.837v-3.173a7.158 7.158 0 0 0 3.568-.788z" fill="#90caf9"/><path d="M393.348 403.107l4.844-2.798 72.689-41.884c.055-.947.4-1.854.989-2.599a10.509 10.509 0 0 1 3.18-2.798 7.307 7.307 0 0 1 3.43-1.062 3.66 3.66 0 0 1 2.252.737 12.314 12.314 0 0 0 1.34-5.998h2.754c0 3.749-1.252 7.597-2.792 8.472l-1.39.812c-.788.45-1.414.475-1.414 0v-.737c0-.825-1.252-.787-2.804.112-1.552.9-2.791 2.274-2.791 3.099v.75c0 .424-1.077 1.374-2.378 2.124l-70.299 40.52-7.61 4.374a7.522 7.522 0 0 1-3.568.837v-3.173a7.158 7.158 0 0 0 3.568-.788z" fill="#fff" opacity=".6"/><path d="M268.836 334.235v3.236a2.5 2.5 0 0 0 1.427 2.025l108.239 62.374 7.598 4.374a7.522 7.522 0 0 0 3.567.837v-3.174a7.158 7.158 0 0 1-3.58-.862l-4.831-2.786-110.993-63.987a2.5 2.5 0 0 1-1.427-2.037z" fill="#90caf9"/><path d="M268.836 334.235v3.236a2.5 2.5 0 0 0 1.427 2.025l108.239 62.374 7.598 4.374a7.522 7.522 0 0 0 3.567.837v-3.174a7.158 7.158 0 0 1-3.58-.862l-4.831-2.786-110.993-63.987a2.5 2.5 0 0 1-1.427-2.037z" fill="#fff" opacity=".1"/><path d="M389.73 382.578v18.543a4.713 4.713 0 0 0 2.378-.563l8.763-5.073 67.08-38.659v-19.342z" fill="#fff"/><path d="M272.328 317.23v14.256a5.259 5.259 0 0 0 2.379 4.124l103.895 59.85 8.762 5.073c.73.392 1.55.586 2.379.563V384.54z" fill="#f0f0f0"/><path d="M468.002 356.801a4.693 4.693 0 0 1 1.014-2.599 10.634 10.634 0 0 1 3.18-2.786 7.131 7.131 0 0 1 3.417-1.075 3.76 3.76 0 0 1 2.265.737v-19.304l-9.851 5.685z" fill="#455a64"/><path d="M471.945 351.578a10.008 10.008 0 0 0-2.93 2.624 4.693 4.693 0 0 0-1.013 2.6v-18.444h3.93z" fill="#f5f5f5"/><path d="M353.404 264.926l120.168 69.272v1.612c0 .887 1.252 1.249 2.792.324 1.54-.924 2.804-1.999 2.804-3.536l.15-1.524-122.459-70.572-.488-.287c-.128.226-.201.478-.213.737v.75c.025.924-1.214 2.361-2.754 3.224z" fill="#90caf9"/><path d="M353.404 264.926l120.168 69.272v1.612c0 .887 1.252 1.249 2.792.324 1.54-.924 2.804-1.999 2.804-3.536l.15-1.524-122.459-70.572-.488-.287c-.128.226-.201.478-.213.737v.75c.025.924-1.214 2.361-2.754 3.224z" fill="#fff" opacity=".6"/><path d="M393.348 380.517l78.51-45.257c.988-.513 1.902-.937 2.29-.737l-.513-.288-120.168-69.272-1.402-.812a4.601 4.601 0 0 0-3.755.562l-77.897 44.907c-1.965 1.137-1.965 2.986 0 4.123l115.837 66.774a7.936 7.936 0 0 0 7.098 0z" fill="#90caf9"/><path d="M393.348 380.517l78.51-45.257c.988-.513 1.902-.937 2.29-.737l-.513-.288-120.168-69.272-1.402-.812a4.601 4.601 0 0 0-3.755.562l-77.897 44.907c-1.965 1.137-1.965 2.986 0 4.123l115.837 66.774a7.936 7.936 0 0 0 7.098 0z" fill="#fff" opacity=".8"/><path d="M356.396 260.252l.488.288 122.459 70.609a.987.987 0 0 1 .263-.337l.413-.238.889-.5 1.089-.637a1.116 1.116 0 0 1 1.389.125.625.625 0 0 1 .138.125c.147.15.27.323.363.512.133.217.242.447.325.687.096.258.175.52.238.788.075.312.125.612.188.937.034.186.055.373.062.562v1.524-3.436a7.321 7.321 0 0 0-3.58-5.485l-115.85-66.773a7.196 7.196 0 0 0-6.37-.462l-1.465.85-.626.35a1.25 1.25 0 0 0-.413.511z" fill="#90caf9"/><path d="M356.396 260.252l.488.288 122.459 70.609a.987.987 0 0 1 .263-.337l.413-.238.889-.5 1.089-.637a1.116 1.116 0 0 1 1.389.125.625.625 0 0 1 .138.125c.147.15.27.323.363.512.133.217.242.447.325.687.096.258.175.52.238.788.075.312.125.612.188.937.034.186.055.373.062.562v1.524-3.436a7.321 7.321 0 0 0-3.58-5.485l-115.85-66.773a7.196 7.196 0 0 0-6.37-.462l-1.465.85-.626.35a1.25 1.25 0 0 0-.413.511z" fill="#fff" opacity=".8"/><path d="M393.348 380.529l4.856-2.811 55.841-32.162 17.825-10.271c1.252-.75 2.303-1.012 2.366-.625v.8c0 .9 1.251.9 2.791 0a3.75 3.75 0 0 0 2.203-2.8v-.874a1.248 1.248 0 0 1 .413-1.05l.413-.237.89-.5 1.088-.637a1.116 1.116 0 0 1 1.39.125.625.625 0 0 1 .137.125c.093.098.173.207.238.325a.612.612 0 0 1 .125.187c.133.217.243.447.326.688.096.257.175.52.238.787.075.312.125.612.187.937.034.186.055.373.063.562v13.57h-2.754v-12.046-.85l-.075-.686a.112.112 0 0 0 0-.063c-.25 2.187-2.34 4.136-4.156 5.16a6.868 6.868 0 0 1-3.355 1.05 3.76 3.76 0 0 1-2.503-.912l-.25.137-.476.288-70.298 40.521-7.523 4.423a7.434 7.434 0 0 1-3.505.812v-3.173a7.396 7.396 0 0 0 3.505-.8z" fill="#90caf9"/><path d="M393.348 380.529l4.856-2.811 55.841-32.162 17.825-10.271c1.252-.75 2.303-1.012 2.366-.625v.8c0 .9 1.251.9 2.791 0a3.75 3.75 0 0 0 2.203-2.8v-.874a1.248 1.248 0 0 1 .413-1.05l.413-.237.89-.5 1.088-.637a1.116 1.116 0 0 1 1.39.125.625.625 0 0 1 .137.125c.093.098.173.207.238.325a.612.612 0 0 1 .125.187c.133.217.243.447.326.688.096.257.175.52.238.787.075.312.125.612.187.937.034.186.055.373.063.562v13.57h-2.754v-12.046-.85l-.075-.686a.112.112 0 0 0 0-.063c-.25 2.187-2.34 4.136-4.156 5.16a6.868 6.868 0 0 1-3.355 1.05 3.76 3.76 0 0 1-2.503-.912l-.25.137-.476.288-70.298 40.521-7.523 4.423a7.434 7.434 0 0 1-3.505.812v-3.173a7.396 7.396 0 0 0 3.505-.8z" fill="#fff" opacity=".6"/><path d="M268.836 311.644v3.261a2.5 2.5 0 0 0 1.427 2.037l108.239 62.375 7.598 4.386a7.522 7.522 0 0 0 3.567.837v-3.174a7.296 7.296 0 0 1-3.58-.85l-4.831-2.786-110.993-63.987a2.499 2.499 0 0 1-1.427-2.099z" fill="#90caf9"/><path d="M268.836 311.644v3.261a2.5 2.5 0 0 0 1.427 2.037l108.239 62.375 7.598 4.386a7.522 7.522 0 0 0 3.567.837v-3.174a7.296 7.296 0 0 1-3.58-.85l-4.831-2.786-110.993-63.987a2.499 2.499 0 0 1-1.427-2.099z" fill="#fff" opacity=".1"/><path d="M348.21 264.713a4.601 4.601 0 0 1 3.755-.562l1.402.812c1.54-.9 2.779-2.337 2.779-3.224v-.75c.012-.258.084-.51.212-.737a1.25 1.25 0 0 1 .439-.5l.625-.35 1.465-.849a7.196 7.196 0 0 1 6.371.462l115.85 66.774.125.075-81.752 47.118a5.253 5.253 0 0 1-4.769 0l-116.6-67.86z" fill="#263238"/><path d="M406.028 366.135l-3.092-1.774a5.016 5.016 0 0 1 2.591-.188c.826.425.5 1.962.5 1.962z" fill="#90caf9"/><path d="M406.028 366.135l-3.092-1.774a5.016 5.016 0 0 1 2.591-.188c.826.425.5 1.962.5 1.962z" fill="#000" opacity=".7"/><path d="M408.156 364.223a3.758 3.758 0 0 0-5.52 0c-3.017 2.761-3.167 5.498-4.42 5.46-1.25-.037-1.25-22.053-1.25-22.053l11.903 11.008z" fill="#90caf9"/><path d="M408.156 364.223a3.758 3.758 0 0 0-5.52 0c-3.017 2.761-3.167 5.498-4.42 5.46-1.25-.037-1.25-22.053-1.25-22.053l11.903 11.008z" fill="#000" opacity=".7"/><path d="M283.707 284.193l-.2-.113 1.902-1.1 81.965-47.23 119.43 77.144c1.965 1.137 2.315 2.786.775 3.66l-2.791 1.613-76.607 44.22-.55-.4z" fill="#90caf9"/><path d="M283.707 284.193l-.2-.113 1.902-1.1 81.965-47.23 119.43 77.144c1.965 1.137 2.315 2.786.775 3.66l-2.791 1.613-76.607 44.22-.55-.4z" fill="#000" opacity=".5"/><path d="M397.954 337.209l5.933-1.25v23.74c-3.58 1.525-5.858 2.95-6.258 5.936z" fill="#455a64"/><path d="M406.504 360.012l75.893-43.732a5.259 5.259 0 0 0 2.391-4.123v-23.379l-76.632 44.545s-.914 3.311-3.63 4.348c-2.717 1.037-.639 2.1-.639 2.1v19.991c2.341-.337 2.617.25 2.617.25z" fill="#f0f0f0"/><path d="M399.506 336.397c.789-.45 1.415-.475 1.415 0v.737c0 .825 1.251.787 2.804-.112s2.804-2.275 2.804-3.1v-.749c0-.425 1.064-1.374 2.365-2.124l-123.472-70.622-1.915 1.1c-.266.281-.433.64-.476 1.025v.75c0 .824-1.252 2.21-2.792 3.098-1.54.887-2.803.937-2.803.112v-.75c0-.424-.626-.387-1.402.063z" fill="#90caf9"/><path d="M399.506 336.397c.789-.45 1.415-.475 1.415 0v.737c0 .825 1.251.787 2.804-.112s2.804-2.275 2.804-3.1v-.749c0-.425 1.064-1.374 2.365-2.124l-123.472-70.622-1.915 1.1c-.266.281-.433.64-.476 1.025v.75c0 .824-1.252 2.21-2.792 3.098-1.54.887-2.803.937-2.803.112v-.75c0-.424-.626-.387-1.402.063z" fill="#000" opacity=".6"/><path d="M283.707 261.59l-.2-.113 1.902-1.1 81.965-47.23 119.43 68.847c1.965 1.137 2.315 2.774.775 3.66l-2.791 1.6-76.632 46.069z" fill="#90caf9"/><path d="M283.707 261.59l-.2-.113 1.902-1.1 81.965-47.23 119.43 68.847c1.965 1.137 2.315 2.774.775 3.66l-2.791 1.6-76.632 46.069z" fill="#000" opacity=".5"/><path d="M277.41 265l123.448 71.147-4.318 3.374-122.985-70.872c.3-.911.872-1.71 1.64-2.287z" fill="#90caf9"/><path d="M277.41 265l123.448 71.147-4.318 3.374-122.985-70.872c.3-.911.872-1.71 1.64-2.287z" fill="#000" opacity=".5"/><path d="M273.968 300.449a1.364 1.364 0 0 1-.213-.163.338.338 0 0 1-.137-.125 1.312 1.312 0 0 1-.25-.337.45.45 0 0 1-.126-.175 2.884 2.884 0 0 1-.313-.687 5.416 5.416 0 0 1-.25-.8c-.075-.3-.125-.6-.175-.924a2.967 2.967 0 0 1-.076-.563v-.462-21.416a16.598 16.598 0 0 1 1.152-6.248l122.985 70.872.513 31.887-122.972-70.897z" fill="#90caf9"/><path d="M273.968 300.449a1.364 1.364 0 0 1-.213-.163.338.338 0 0 1-.137-.125 1.312 1.312 0 0 1-.25-.337.45.45 0 0 1-.126-.175 2.884 2.884 0 0 1-.313-.687 5.416 5.416 0 0 1-.25-.8c-.075-.3-.125-.6-.175-.924a2.967 2.967 0 0 1-.076-.563v-.462-21.416a16.598 16.598 0 0 1 1.152-6.248l122.985 70.872.513 31.887-122.972-70.897z" fill="#000" opacity=".7"/><path d="M396.477 339.47s-96.86-45.244-105.673-49.392c-5.82-2.736-8.674 3.011-7.297 8.959 1.251 5.198 6.346 10.558 6.346 10.558l-15.835-9.134a1.364 1.364 0 0 1-.213-.162.338.338 0 0 1-.137-.125 1.312 1.312 0 0 1-.25-.338.45.45 0 0 1-.126-.174 2.884 2.884 0 0 1-.313-.688 5.416 5.416 0 0 1-.25-.8c-.075-.3-.125-.6-.175-.924a2.967 2.967 0 0 1-.076-.562v-.463-21.428a16.598 16.598 0 0 1 1.152-6.248z" fill="#263238" opacity=".79"/><path d="M395.338 345.68h2.754a12.476 12.476 0 0 1 1.327-5.997 3.76 3.76 0 0 0 2.265.737 7.131 7.131 0 0 0 3.418-1.074 10.459 10.459 0 0 0 3.179-2.787c.065-.078.124-.162.175-.25a4.505 4.505 0 0 0 .814-2.349l72.689-41.883 2.504-1.437 3.154-1.812c.56-.254.93-.798.964-1.412v-3.21a1.687 1.687 0 0 1-.964 1.449l-8.35 4.798-70.285 40.521c-1.314.75-2.378 1.7-2.378 2.124v.75a2.26 2.26 0 0 1-.651 1.25 7.833 7.833 0 0 1-2.153 1.799c-1.552.9-2.804.937-2.804.112v-.737c0-.437-.614-.4-1.402 0l-1.39.812c-1.614 1-2.866 4.81-2.866 8.597z" fill="#90caf9"/><path d="M398.092 345.68V366.886l.062.687a.112.112 0 0 0 0 .062c.25-2.186 2.341-4.136 4.156-5.16a6.88 6.88 0 0 1 3.367-1.05 3.76 3.76 0 0 1 2.504.912l.238-.137.488-.287 70.286-40.522 4.043-2.324 1.151-.674 3.405-1.962c.455-.284.737-.777.751-1.312v3.211c-.02.505-.28.97-.7 1.25-.401.237-.827.462-1.252.724l-.79.463-1.351.774c-.3.188-.576.35-.839.488-.263.137-.413.25-.588.337l-1.039.612-55.84 32.162-17.825 10.271c-1.252.75-2.291 1.012-2.366.625a.736.736 0 0 1 0-.138v-.712c0-.9-1.252-.9-2.792 0a3.75 3.75 0 0 0-2.203 2.8v.874c.038.395-.116.785-.413 1.05l-.413.237-.876.5-1.09.637a1.116 1.116 0 0 1-1.389-.125.338.338 0 0 1-.137-.125 1.25 1.25 0 0 1-.25-.325.887.887 0 0 1-.126-.175 2.884 2.884 0 0 1-.313-.687 4.83 4.83 0 0 1-.25-.787 11.265 11.265 0 0 1-.175-.937 2.77 2.77 0 0 1-.075-.563v-.462-21.416z" fill="#90caf9"/><g fill="#000" opacity=".6"><path d="M395.338 345.68h2.754a12.476 12.476 0 0 1 1.327-5.997 3.76 3.76 0 0 0 2.265.737 7.131 7.131 0 0 0 3.418-1.074 10.459 10.459 0 0 0 3.179-2.787c.065-.078.124-.162.175-.25a4.505 4.505 0 0 0 .814-2.349l72.689-41.883 2.504-1.437 3.154-1.812c.56-.254.93-.798.964-1.412v-3.21a1.687 1.687 0 0 1-.964 1.449l-8.35 4.798-70.285 40.521c-1.314.75-2.378 1.7-2.378 2.124v.75a2.26 2.26 0 0 1-.651 1.25 7.833 7.833 0 0 1-2.153 1.799c-1.552.9-2.804.937-2.804.112v-.737c0-.437-.614-.4-1.402 0l-1.39.812c-1.614 1-2.866 4.81-2.866 8.597z"/><path d="M398.092 345.68V366.886l.062.687a.112.112 0 0 0 0 .062c.25-2.186 2.341-4.136 4.156-5.16a6.88 6.88 0 0 1 3.367-1.05 3.76 3.76 0 0 1 2.504.912l.238-.137.488-.287 70.286-40.522 4.043-2.324 1.151-.674 3.405-1.962c.455-.284.737-.777.751-1.312v3.211c-.02.505-.28.97-.7 1.25-.401.237-.827.462-1.252.724l-.79.463-1.351.774c-.3.188-.576.35-.839.488-.263.137-.413.25-.588.337l-1.039.612-55.84 32.162-17.825 10.271c-1.252.75-2.291 1.012-2.366.625a.736.736 0 0 1 0-.138v-.712c0-.9-1.252-.9-2.792 0a3.75 3.75 0 0 0-2.203 2.8v.874c.038.395-.116.785-.413 1.05l-.413.237-.876.5-1.09.637a1.116 1.116 0 0 1-1.389-.125.338.338 0 0 1-.137-.125 1.25 1.25 0 0 1-.25-.325.887.887 0 0 1-.126-.175 2.884 2.884 0 0 1-.313-.687 4.83 4.83 0 0 1-.25-.787 11.265 11.265 0 0 1-.175-.937 2.77 2.77 0 0 1-.075-.563v-.462-21.416z"/></g><path d="M273.493 268.587l116.888 67.372 88.349-50.917a1.45 1.45 0 0 0 0-2.748L363.068 215.62l-77.609 44.757-1.915 1.112c-.259.28-.421.634-.463 1.013v.75c0 .824-1.252 2.21-2.791 3.098a1.165 1.165 0 0 1-.25.125l-2.58-1.487-1.251.7-.175.087-.902.525a4.723 4.723 0 0 0-1.64 2.287z" fill="#263238"/><path d="M472.208 285.542l-3.518-1.874 3.205-.762c.63.734.753 1.775.313 2.636z" fill="#e0e0e0"/><path d="M472.208 285.542l-3.518-1.874 3.205-.762c.63.734.753 1.775.313 2.636z" fill="#e0e0e0" opacity=".5"/><path d="M378.99 332.398a7.911 7.911 0 0 0 7.148 0l80.287-46.231-120.168-75.832-2.817-1.624-80.274 52.778c-1.966 1.137-1.966 2.987 0 4.124z" fill="#90caf9"/><path d="M409.132 238.399l60.66 41.033-32.658-24.99 18.125-10.446 21.08 12.183v21.729c0 1.85-2.066 4.46-2.817 4.036-1.389.335-2.74.812-4.03 1.424a30.251 30.251 0 0 0-5.821 4.298l-64.327-43.645z" fill="#90caf9"/><path d="M409.132 238.399l60.66 41.033-32.658-24.99 18.125-10.446 21.08 12.183v21.729c0 1.85-2.066 4.46-2.817 4.036-1.389.335-2.74.812-4.03 1.424a30.251 30.251 0 0 0-5.821 4.298l-64.327-43.645z" fill="#000" opacity=".2"/><path d="M382.558 305.272v25.09a4.902 4.902 0 0 0 2.39-.563l8.763-5.073 67.093-38.659v-25.915z" fill="#fff"/><path d="M265.156 239.936v20.829a5.283 5.283 0 0 0 2.378 4.123L371.43 324.74l8.763 5.073c.732.386 1.55.58 2.378.562v-23.14z" fill="#f0f0f0"/><path d="M460.842 286.067a4.668 4.668 0 0 1 1.001-2.599 10.296 10.296 0 0 1 3.18-2.786 7.182 7.182 0 0 1 3.43-1.075 3.573 3.573 0 0 1 2.253.525v-25.665l-9.851 5.685z" fill="#455a64"/><path d="M464.772 280.832a10.446 10.446 0 0 0-2.929 2.636 4.668 4.668 0 0 0-1.001 2.599v-24.99h3.918z" fill="#f5f5f5"/><path d="M346.244 187.657l120.168 69.284v1.6c0 .9 1.252 1.25 2.792.337 1.54-.912 2.816-2.012 2.816-3.549l.15-1.524-122.458-70.572-.501-.287c-.126.23-.195.487-.2.75v.737c.012.887-1.227 2.324-2.767 3.224z" fill="#90caf9"/><path d="M346.244 187.657l120.168 69.284v1.6c0 .9 1.252 1.25 2.792.337 1.54-.912 2.816-2.012 2.816-3.549l.15-1.524-122.458-70.572-.501-.287c-.126.23-.195.487-.2.75v.737c.012.887-1.227 2.324-2.767 3.224z" fill="#000" opacity=".2"/><path d="M386.138 303.21l78.56-45.244c1-.525 1.915-.95 2.29-.75l-.513-.275-120.168-69.284-1.415-.8a4.488 4.488 0 0 0-3.755.562l-77.971 44.895c-1.966 1.137-1.966 2.998 0 4.123l115.85 66.773a7.911 7.911 0 0 0 7.122 0zm-36.915-120.264l.501.287 122.484 70.572a.987.987 0 0 1 .263-.337l.413-.225.876-.513 1.09-.637a1.128 1.128 0 0 1 1.389.125.65.65 0 0 1 .137.125c.145.156.271.328.376.512.129.217.234.448.313.688.098.261.182.528.25.8.063.3.125.6.175.924.038.19.063.382.075.575v1.524-3.436a7.296 7.296 0 0 0-3.58-5.498l-115.85-66.773a7.184 7.184 0 0 0-6.37-.45l-1.465.85-.613.362a1.25 1.25 0 0 0-.464.525zm36.915 149.452l4.844-2.798 72.689-41.896a4.706 4.706 0 0 1 1.001-2.6 10.484 10.484 0 0 1 3.18-2.785 7.257 7.257 0 0 1 3.417-1.063 3.622 3.622 0 0 1 2.266.738 12.564 12.564 0 0 0 1.327-6.01h2.753c0 3.748-1.251 7.597-2.79 8.484l-1.39.812c-.789.45-1.402.475-1.402 0v-.737c0-.825-1.252-.788-2.817.1-1.564.887-2.791 2.286-2.791 3.11v.738c0 .425-1.064 1.375-2.379 2.137l-70.298 40.52-7.61 4.387a7.522 7.522 0 0 1-3.568.837v-3.174a7.258 7.258 0 0 0 3.568-.8z" fill="#90caf9"/><path d="M386.138 332.398l4.844-2.798 72.689-41.896a4.706 4.706 0 0 1 1.001-2.6 10.484 10.484 0 0 1 3.18-2.785 7.257 7.257 0 0 1 3.417-1.063 3.622 3.622 0 0 1 2.266.738 12.564 12.564 0 0 0 1.327-6.01h2.753c0 3.748-1.251 7.597-2.79 8.484l-1.39.812c-.789.45-1.402.475-1.402 0v-.737c0-.825-1.252-.788-2.817.1-1.564.887-2.791 2.286-2.791 3.11v.738c0 .425-1.064 1.375-2.379 2.137l-70.298 40.52-7.61 4.387a7.522 7.522 0 0 1-3.568.837v-3.174a7.258 7.258 0 0 0 3.568-.8z" fill="#000" opacity=".4"/><path d="M386.113 303.223l4.844-2.8 55.84-32.161 17.9-10.296c1.252-.737 2.304-1 2.379-.612v.812c0 .887 1.251.887 2.791 0a3.75 3.75 0 0 0 2.203-2.812v-.874a1.248 1.248 0 0 1 .413-1.05l.413-.225.877-.512 1.089-.637a1.128 1.128 0 0 1 1.389.125.65.65 0 0 1 .138.125c.097.101.181.215.25.337.048.054.09.113.125.175.13.217.234.447.313.687.099.262.182.529.25.8.063.3.126.6.176.924.038.19.063.382.075.575V275.921h-2.754V257.43v-.863l-.063-.687c-.25 2.187-2.34 4.136-4.168 5.16a6.78 6.78 0 0 1-3.355 1.05 3.76 3.76 0 0 1-2.503-.912l-.238.138-.488.287-70.298 40.521-7.611 4.386a7.446 7.446 0 0 1-3.517.812v-3.174a7.396 7.396 0 0 0 3.53-.924z" fill="#90caf9"/><path d="M386.113 303.223l4.844-2.8 55.84-32.161 17.9-10.296c1.252-.737 2.304-1 2.379-.612v.812c0 .887 1.251.887 2.791 0a3.75 3.75 0 0 0 2.203-2.812v-.874a1.248 1.248 0 0 1 .413-1.05l.413-.225.877-.512 1.089-.637a1.128 1.128 0 0 1 1.389.125.65.65 0 0 1 .138.125c.097.101.181.215.25.337.048.054.09.113.125.175.13.217.234.447.313.687.099.262.182.529.25.8.063.3.126.6.176.924.038.19.063.382.075.575V275.921h-2.754V257.43v-.863l-.063-.687c-.25 2.187-2.34 4.136-4.168 5.16a6.78 6.78 0 0 1-3.355 1.05 3.76 3.76 0 0 1-2.503-.912l-.238.138-.488.287-70.298 40.521-7.611 4.386a7.446 7.446 0 0 1-3.517.812v-3.174a7.396 7.396 0 0 0 3.53-.924z" fill="#000" opacity=".4"/><path d="M261.676 234.338v3.224a2.5 2.5 0 0 0 1.415 2.036l108.25 62.375 7.599 4.386a7.522 7.522 0 0 0 3.555.837v-3.174a7.246 7.246 0 0 1-3.568-.85l-4.831-2.786-110.93-63.949a2.424 2.424 0 0 1-1.49-2.1z" fill="#90caf9"/><path d="M261.676 234.338v3.224a2.5 2.5 0 0 0 1.415 2.036l108.25 62.375 7.599 4.386a7.522 7.522 0 0 0 3.555.837v-3.174a7.246 7.246 0 0 1-3.568-.85l-4.831-2.786-110.93-63.949a2.424 2.424 0 0 1-1.49-2.1z" fill="#000" opacity=".2"/><path d="M261.676 263.501v3.224a2.5 2.5 0 0 0 1.415 2.037l108.3 62.387 7.6 4.386a7.522 7.522 0 0 0 3.554.837v-3.174a7.246 7.246 0 0 1-3.567-.85l-4.832-2.786-110.98-63.962a2.424 2.424 0 0 1-1.49-2.099z" fill="#90caf9"/><path d="M261.676 263.501v3.224a2.5 2.5 0 0 0 1.415 2.037l108.3 62.387 7.6 4.386a7.522 7.522 0 0 0 3.554.837v-3.174a7.246 7.246 0 0 1-3.567-.85l-4.832-2.786-110.98-63.962a2.424 2.424 0 0 1-1.49-2.099z" fill="#000" opacity=".2"/><path d="M311.67 150.134l-11.49 20.442 16.748 8.896 12.192-18.117z" fill="#ffd2b9"/><path d="M352.44 104.09c-6.383-1.087-16.047-1.374-22.33 9.384-6.285 10.758-19.829 37.31-19.829 37.31s7.912 10.22 19.365 12.083l18.714-29.638z" fill="#90caf9"/><path d="M323.062 354.44h14.295v24.427h-14.295zm-27.088-5.948l-14.295.487-.713-25.852 14.282-.487z" fill="#ffd2b9"/><path d="M323.062 371.82v-2.037c-1.365.588-4.544 12.695-10.214 17.856-4.507 4.11-10.653 8.846-12.217 13.42-1.628 4.76 8.561 7.396 12.767 6.647 4.895-.863 13.382-4.299 15.51-7.497 2.128-3.2 3.129-7.885 4.856-10.221s5.72-4.998 6.66-7.66c.513-1.487-.1-4.735-.814-7.497-.663-2.499-1.39-5.298-2.253-5.06v1.55c-1.04 1.149-3.906 2.286-7.148 2.41-2.09.1-7.16-.312-7.147-1.911zm-41.533-27.239c-.739 0-1.34 1.075-2.98 2.836a31.092 31.092 0 0 1-8.411 6.035c-5.358 2.687-15.735 6.798-20.466 8.934-2.942 1.325-2.804 4.873.238 6.898 3.041 2.024 10.377 3.473 19.201 1.499 4.795-1.075 11.053-5.498 15.021-5.26 3.968.237 11.366.187 14.283-1.825 2.916-2.011 1.752-6.247.926-9.996-.901-4.023-2.19-10.183-3.53-9.908v1.25c-1.715 2.598-10.464 3.66-14.245 1.749z" fill="#263238"/><path d="M394.937 205.887c3.13 22.053-1.089 26.24-22.08 47.406-11.266 11.358-29.48 28.013-29.48 28.013s.264 7.048.401 22.841c.138 13.907-5.683 59.164-5.683 59.164s-9.488 3.986-15.997-.15c0 0-2.942-33.674-4.531-51.23-2.153-23.74-3.28-35.71-2.066-40.82 1.077-4.511 22.444-31.45 27.376-38.997l-45.413 26.34a154.438 154.438 0 0 1 1.326 20.129c-.5 18.88-2.829 56.59-2.829 56.59s-10.39 4.635-15.546.637c0 0-13.081-82.467-13.081-89.24 0-10.283 44.737-40.983 53.212-48.13 4.832-4.074 10.214-8.484 10.214-8.484z" fill="#455a64"/><path d="M342.877 232.126a32.774 32.774 0 0 1-10.377-14.781c.25 3.784.79 7.543 1.615 11.245 1.252 4.898-36.651 29.863-36.651 29.863z" fill="#37474f"/><g fill="#263238" transform="translate(218.103 34.807)"><ellipse cx="130.259" cy="25.221" rx="20.256" ry="20.289" transform="rotate(-76.81 130.259 25.22)"/><path d="M172.892 81.553s5.007 4.099 5.007 17.043v27.952l-.714 47.006c-10.014 10.883-55.077 6.76-66.23-16.98 0 0 .088-49.618.088-60.739 0-11.12 6.259-25.552 23.282-26.552l22.056 5.123zm-7.56-41.933s-3.293 15.419-4.607 17.955a6.945 6.945 0 0 1-4.043 3.25l.225-10.846zM161.2 17.53a7.606 7.606 0 0 1 6.26 2.21c2.703 2.762 1.188 11.409-2.179 19.88l-6.196.712z"/></g><path d="M375.385 75.14c1.252.737 3.017-1.637 4.544-3.237 1.527-1.6 6.534-3.748 9.025 1.462 2.491 5.21-2.203 12.408-6.134 13.645-6.784 2.124-7.81-2.224-7.81-2.224l-.514 24.427c-5.845 6.523-25.836 4.998-22.068-.65v-7.496s-6.146.937-9.138.474c-5.007-.774-8.136-4.698-9.65-10.096-2.43-8.659-3.356-15.643-1.253-32.674 2.266-18.667 24.009-18.855 35.75-11.483 11.742 7.372 7.248 27.851 7.248 27.851z" fill="#ffd2b9"/><g fill="#263238"><path d="M358.098 79.413h-1.051c-3.823 0-6.922-3.094-6.922-6.91s3.099-6.91 6.922-6.91h1.064c3.823 0 6.922 3.094 6.922 6.91s-3.1 6.91-6.922 6.91zm-1.051-12.658c-3.18 0-5.758 2.574-5.758 5.748s2.578 5.748 5.758 5.748h1.064c3.18 0 5.758-2.574 5.758-5.748s-2.578-5.748-5.758-5.748zm-20.028 12.658h-1.064c-3.823 0-6.922-3.094-6.922-6.91s3.099-6.91 6.922-6.91h1.064c3.823 0 6.922 3.094 6.922 6.91s-3.1 6.91-6.922 6.91zm-1.064-12.658c-3.18 0-5.758 2.574-5.758 5.748s2.578 5.748 5.758 5.748h1.064c3.18 0 5.758-2.574 5.758-5.748s-2.578-5.748-5.758-5.748z"/><path d="M350.2 71.141a4.584 4.584 0 0 0-3.655-1.862 3.759 3.759 0 0 0-3.192 1.25l-.927-.7a4.786 4.786 0 0 1 4.181-1.662 5.686 5.686 0 0 1 4.594 2.412zm14.182-.05h14.72v1.162h-14.72z"/><path d="M375.385 77.226c.626 0 2.992-3.923 4.544-5.323 2.14-1.949-.626-19.567-.626-19.567s2.065-4.386-2.065-8.909c-2.93-3.223-7.836-3.586-16.21-4.898-4.394-.687-11.054-1.924-15.447-2.736-5.232-.975-9.576-2-13.269 1.25a9.26 9.26 0 0 0-2.566 10.383 9.494 9.494 0 0 0 5.258 4.81s2.278 2.024 10.226 2.986c7.949.963 20.329-.174 22.019-.412 2.303-.312 2.791 1.912 4.043 8.01 1.089 5.31 2.028 14.369 4.093 14.406z"/><path d="M379.29 53.76l7.511-4.035a4.15 4.15 0 0 0-5.683-1.874 4.494 4.494 0 0 0-1.828 5.91z"/></g><path d="M352.44 101.129s11.141-2.237 15.021-4.298a12.832 12.832 0 0 0 5.383-5.323 17.48 17.48 0 0 1-3.054 6.247c-2.854 3.636-17.362 6.31-17.362 6.31z" fill="#e8a897"/><path d="M355.12 72.366a2.239 2.239 0 0 0 2.3 2.148 2.238 2.238 0 0 0 2.178-2.272 2.239 2.239 0 0 0-2.25-2.2 2.28 2.28 0 0 0-2.229 2.324zm3.58-9.222l4.78 2.624a2.871 2.871 0 0 0-1.113-3.748 2.67 2.67 0 0 0-3.668 1.124z" fill="#263238"/><path d="M353.454 87.747l-5.094 1.912a2.67 2.67 0 0 0 3.455 1.687 2.847 2.847 0 0 0 1.64-3.6z" fill="#e8a897"/><path d="M334.64 65.094l4.357-3.337a2.63 2.63 0 0 0-3.756-.587 2.87 2.87 0 0 0-.6 3.924zm1.916 6.634a2.239 2.239 0 0 0 2.3 2.149 2.238 2.238 0 0 0 2.179-2.273 2.239 2.239 0 0 0-2.251-2.2 2.28 2.28 0 0 0-2.228 2.324z" fill="#263238"/><path d="M347.584 69.942l-.25 13.507-8-1.762z" fill="#e8a897"/><path d="M333.915 182.234v1.25a3.635 3.635 0 0 1-1.828 3.148l-34.761 19.992a3.648 3.648 0 0 1-3.643 0l-63.776-36.748a3.635 3.635 0 0 1-1.828-3.148v-.888l67.42 38.847z" fill="#90caf9"/><path d="M333.915 182.234v1.25a3.635 3.635 0 0 1-1.828 3.148l-34.761 19.992a3.648 3.648 0 0 1-3.643 0l-63.776-36.748a3.635 3.635 0 0 1-1.828-3.148v-.888l67.42 38.847z" fill="#000" opacity=".6"/><path d="M228.117 165.853l37.815-21.791a2.181 2.181 0 0 1 2.178 0l65.592 37.81a.487.487 0 0 1 0 .837l-38.166 21.99z" fill="#90caf9"/><path d="M228.117 165.853l37.815-21.791a2.181 2.181 0 0 1 2.178 0l65.592 37.81a.487.487 0 0 1 0 .837l-38.166 21.99z" fill="#000" opacity=".5"/><path d="M295.849 201.501l20.39-11.745-59.633-34.361-20.503 11.682zm10.026-32.662l-.375.213-10.002 5.76-17.775-10.246-.363-.212 10.365-5.973z" fill="#263238"/><path d="M305.5 169.052l-10.002 5.76-17.775-10.246 10.002-5.76z" fill="#263238"/><path d="M295.498 204.7v2.424a3.635 3.635 0 0 1-1.815-.487l-63.776-36.748a3.635 3.635 0 0 1-1.828-3.149v-.887z" fill="#000" opacity=".7"/><path d="M294.46 205.237a4.288 4.288 0 0 1-3.756-.287l-63.489-36.586a4.298 4.298 0 0 1-2.103-3.01l-6.947-41.384a4.332 4.332 0 0 1 1.19-3.773l65.98 38.034a3.212 3.212 0 0 1 1.614 2.237z" fill="#90caf9"/><path d="M294.46 205.237a4.288 4.288 0 0 1-3.756-.287l-63.489-36.586a4.298 4.298 0 0 1-2.103-3.01l-6.947-41.384a4.332 4.332 0 0 1 1.19-3.773l65.98 38.034a3.212 3.212 0 0 1 1.614 2.237z" fill="#000" opacity=".5"/><path d="M295.498 204.7l-.425.25c-.193.11-.394.207-.601.287l-7.51-44.77a3.211 3.211 0 0 0-1.553-2.236l-65.98-38.035c.263-.257.557-.48.877-.662l66.117 38.097a3.211 3.211 0 0 1 1.552 2.237z" fill="#e0e0e0"/><path d="M258.71 167.04c-.464-2.761-3.33-6.447-6.397-8.21-3.067-1.761-5.182-.961-4.707 1.813.476 2.773 3.33 6.447 6.397 8.221s5.182.95 4.706-1.824z" fill="#90caf9"/><path d="M271.715 193.98a22.293 22.293 0 0 0-1.039-5.274c-.976-3.061-3.88-14.856-10.515-16.63a4.715 4.715 0 0 0-2.428-.076c-1.84.5-2.679 2.412-3.042 4.124a28.774 28.774 0 0 0 0 7.622 14.94 14.94 0 0 0-3.542-2.962 7.256 7.256 0 0 0-4.068-1.449 1.253 1.253 0 0 0-1.064.5c-.238.437 0 .987.375 1.374.664.8 1.477 1.475 2.14 2.274.52.698 1.001 1.424 1.44 2.174.839 1.35 1.778 2.624 2.716 3.911a27.386 27.386 0 0 0 6.685 6.898 25.224 25.224 0 0 0 10.014 3.986c4.844.6 9.55.524 12.605-.538zm117.952-77.257c-4.468-2.3-11.002 6.81-8.924 16.33 2.077 9.522 12.317 42.996 12.317 42.996s-46.252 4.123-50.183 4.61c-2.741.325-5.808-1.062-8.35-1.899-3.454-1.15-6.946-1.949-10.351-3.198a4.4 4.4 0 0 0-1.89-.4 1.489 1.489 0 0 0-1.39 1.162c-.016.39.084.778.288 1.112a14.589 14.589 0 0 0 4.77 5.548 21.28 21.28 0 0 1 2.803 1.974c.539.537 1.728 2.024 1.252 2.836l-18.376 10.558s4.231 3.674 19.553-.612a100.422 100.422 0 0 0 16.11-5.71s54.5 2.261 64.352-.712c3.48-1.062 4.732-3.524 2.379-14.72-2.692-12.97-10.415-36.622-12.167-42.87-3.843-13.532-4.757-13.22-12.193-17.005z" fill="#ffd2b9"/><path d="M387.364 114.786s7.386 2.074 10.565 6.247 15.447 44.545 15.447 44.545a28.828 28.828 0 0 1-23.358 6.248s-9.864-27.927-10.915-35.386c-1.865-11.558 3.793-20.654 8.261-21.654zm-39.855 27.09c-.601-3.125 1.351-4.811 4.368-3.75a11.027 11.027 0 0 1 6.51 7.498c.6 3.16-10.29-.65-10.878-3.749z" fill="#90caf9"/><path d="M368.15 151.609l-8.875-5.636c.45 2.4-2.791 2.062-5.708 1.05-2.917-1.012-6.484-3.061-6.947-5.46l-7.736-.1c-.714 0-.726.924 0 1.687 1.915 2.136 6.371 5.922 15.734 9.183s12.956 2.25 14.308 1.25c.438-.375.038-1.462-.776-1.974z" fill="#90caf9"/></g></g></svg>