<svg height="411" width="450" xmlns="http://www.w3.org/2000/svg"><g fill="none"><ellipse cx="225.087" cy="281.139" fill="#000" fill-opacity=".1" rx="224.499" ry="129.613"/><g fill="#000" fill-opacity=".1" transform="translate(11.563 224.518)"><ellipse cx="374.502" cy="73.532" rx="44.393" ry="25.632"/><ellipse cx="47.12" cy="69.928" rx="46.349" ry="26.759"/><path d="M294.446 60.254a4.084 4.084 0 0 1-1.994-.492l-41.069-23.714a1.927 1.927 0 0 1 .154-3.546l36.868-17.027a4.818 4.818 0 0 1 1.927-.395 4.924 4.924 0 0 1 2.447.598l32.994 19.012a2.149 2.149 0 0 1 .193 3.777l-29.12 21.035a4.086 4.086 0 0 1-2.4.723zm-168.012-5.628a3.941 3.941 0 0 0 1.985-.5l41.078-23.715a1.927 1.927 0 0 0-.164-3.546L132.475 9.848a4.722 4.722 0 0 0-1.927-.395 4.953 4.953 0 0 0-2.447.597L95.146 29.081a2.294 2.294 0 0 0-1.224 1.84 2.265 2.265 0 0 0 1.04 1.928l29.12 21.035a4.115 4.115 0 0 0 2.4.723z"/><path d="M70.4 81.906l132.245 76.317a4.433 4.433 0 0 0 3.998 0l135.723-78.427a1.224 1.224 0 0 0 0-2.313L210.132 1.166a4.452 4.452 0 0 0-4.009 0L70.4 79.564a1.214 1.214 0 0 0 0 2.342z"/></g><path d="M328.866 210.17v51.07c.025.458.264.876.646 1.128l1.744.964c.406.203.885.203 1.291 0l1.744-.964c.382-.252.621-.67.646-1.127v-51.07a.732.732 0 0 0-.742-.743h-4.577a.743.743 0 0 0-.752.742z" fill="#263238"/><path d="M334.195 209.428h-1.542a.744.744 0 0 0-.752.742v52.892c0 .414.29.578.646.376l1.744-.964c.382-.252.621-.67.646-1.127v-51.07a.732.732 0 0 0-.742-.85z" fill="#37474f"/><path d="M299.554 227.033v51.07c.023.456.263.871.645 1.119l1.744.963c.407.203.885.203 1.291 0l1.745-.963c.382-.248.622-.663.645-1.118v-51.07a.752.752 0 0 0-.751-.752h-4.577a.752.752 0 0 0-.742.751z" fill="#263238"/><path d="M304.873 226.282h-1.542a.752.752 0 0 0-.742.751v52.844c0 .414.289.578.645.376l1.745-.964c.382-.247.622-.663.645-1.118v-51.07a.752.752 0 0 0-.751-.82z" fill="#37474f"/><path d="M301.5 189.53a2.756 2.756 0 0 1-2.38 3.064h-.347a2.756 2.756 0 0 1-2.717-2.409c-1.571-12.613.674-40.818 6.07-56.717.55-1.629 2.13-1.985 3.623-1.128 1.138.656 1.928 1.658 1.533 2.891-5.175 14.955-7.304 42.148-5.782 54.299z" fill="#455a64"/><g fill="#37474f"><path d="M333.27 196.786a1.734 1.734 0 0 0 1.657-2.284c-4.037-12.286-23.907-23.223-36.732-23.223a1.744 1.744 0 0 0 0 3.489c11.563 0 29.871 10.098 33.427 20.823a1.734 1.734 0 0 0 1.648 1.195zm1.879-15.928a1.744 1.744 0 0 0 1.657-2.284c-4.201-12.768-24.668-23.126-37.436-21.787a1.744 1.744 0 0 0 .357 3.469c11.313-1.147 30.083 8.22 33.726 19.407.241.727.93 1.212 1.696 1.195zm3.873-12.624c.242 0 .482-.05.704-.144a1.744 1.744 0 0 0 .896-2.303c-6.013-13.683-27.385-24.919-38.949-23.32a1.746 1.746 0 1 0 .473 3.46c10.223-1.416 29.871 9.039 35.287 21.267.273.634.899 1.043 1.59 1.04z"/></g><path d="M343.465 153.588a2.737 2.737 0 0 1 1.127 3.46c-6.302 14.723-9.636 32.704-9.636 52.39v2.64l-.212.222a1.099 1.099 0 0 1-.829.337 3.238 3.238 0 0 1-1.146-.28 4.866 4.866 0 0 0-.56-.173 2.746 2.746 0 0 1-2.736-2.746c0-20.419 3.47-39.141 10.08-54.559a2.737 2.737 0 0 1 3.854-1.3z" fill="#455a64"/><path d="M334.937 211.442v.665a4.394 4.394 0 0 1-1.61 3.16l-29.12 21.055a3.344 3.344 0 0 1-3.343.174l-41.078-23.714a3.854 3.854 0 0 1-1.725-2.997v-.684a3.401 3.401 0 0 1 1.812-2.833l36.857-17.017a4.317 4.317 0 0 1 3.537.154l32.945 19.04a3.854 3.854 0 0 1 1.725 2.997z" fill="#37474f"/><path d="M333.212 208.445l-32.945-19.04a4.317 4.317 0 0 0-3.537-.154l-36.857 17.017c-.964.462-1.041 1.281-.087 1.84l41.078 23.714a3.344 3.344 0 0 0 3.344-.173l29.12-21.036a1.195 1.195 0 0 0-.116-2.168z" fill="#90caf9"/><path d="M283.298 249.244c.732.51 1.58 1.099 1.667 1.927a8.19 8.19 0 0 1-1.205 4.972c-1.291 2.159-1.667 5.83-1.493 8.24.173 2.408 1.214 8.411-1.263 11.38s-9.424 5.656-10.34 1.3c-.915-4.355 4.183-22.885 4.183-22.885z" fill="#263238"/><path d="M279.877 252.877a66.806 66.806 0 0 0-.964 9.963c0 3.643-.52 6.322-2.11 7.632-1.59 1.31-4.278 1.696-3.777-.886.5-2.583 1.792-15.418 1.792-15.418z" fill="#9a4a4d"/><path d="M286.188 185.473s-15.311 9.453-21.42 14.59-8.19 7.236-8.933 10.502c-.79 3.45 1.388 9.048 5.069 18.646.963 2.592 7.554 17.904 7.554 17.904l8.894-28.84 18.154-16.806z" fill="#455a64"/><path d="M271.87 277.14c.664.26.886 1.715 1.05 2.785.164 1.07 1.214 2.293 0 4.24-1.214 1.946-3.749 2.64-5.377 5.3-1.629 2.66-2.467 6.292-8.152 7.795-5.685 1.503-10.166-.193-11.322-1.85-1.157-1.657-.28-3.334 3.295-5.608 3.806-2.428 4.876-3.132 4.876-3.132z" fill="#263238"/><path d="M265.115 265.616s-2.42 7.814-3.932 11.428c-1.513 3.613-2.505 5.936-5.319 9.193-.607.713-2.004 2.033-2.505 2.611a1.108 1.108 0 0 0 .115 1.706c1.263 1.194 6.572 1.464 9.54-.771 2.968-2.236 4.365-5.339 6.138-7.14.887-.897 1.715-1.754 2.332-2.39a2.409 2.409 0 0 0 .588-2.294l-.203-.819c-.414-1.715 1.831-8.759 1.831-8.759z" fill="#b16668"/><path d="M323.248 185.676c2.959 6.398 1.725 13.423-.202 19.272-1.927 5.849-9.636 12.343-16.294 16.294-6.659 3.95-16.912 8.76-18.906 9.636-1.995.877-2.207 2.1-1.927 5.926.28 3.826-1.012 10.06-5.233 17.894-4.461 8.268-6.995 13.645-6.995 13.645a8.846 8.846 0 0 1-8.952-2.159s7.12-37.802 8.807-42.793c1.686-4.992 20.419-21.2 20.419-21.2s-6.312-11.042-7.805-16.785z" fill="#455a64"/><path d="M270.944 225.838c1.031-5.04 4.722-9.019 8.258-12.382 2.891-2.756 10.33-9.434 12.913-11.756a30.999 30.999 0 0 1-1.86-5.454s1.474 2.65 2.775 4.645l.819 1.195.125.173-.077.096c-1.108.964-18.732 16.285-20.37 21.113-.964 2.775-3.546 15.658-5.685 26.566.192-1.667 2.139-19.387 3.102-24.196z" fill="#000" opacity=".6"/><path d="M300.46 133.43l-38.728-4.25s-23.608-13.49-25.805-17.644c-2.438-4.586-3.199-11.688-4.587-15.995-1.387-4.308-6.33 4.818-3.314 19.493.433 2.072 3.199 3.142 5.232 5.473 5.56 6.38 14.945 13.664 20.515 17.76a21.045 21.045 0 0 0 9.78 3.94l35.018 4.568z" fill="#b16668"/><path d="M287.49 161.239c-.53 4.876-2.362 25.16-2.362 25.16 10.494 8.46 33.91 6.6 38.169-.213a84.98 84.98 0 0 1-4.635-14.666l3.45-14.059s-6.38-8.672-.916-20.9l-8.817-1.57-12.247-1.793-5.31-.356s-7.217 7.795-9.183 12.815c-1.262 3.238-3.767 8.981 1.85 15.582z" fill="#90caf9"/><path d="M320.107 177.186l-.308-1.07c-.762-2.755-1.137-4.596-1.137-4.596l3.45-14.059c-.058-.057-.29-.558-.434-.722-.964-1.137-3.363-4.616-2.592-10.754s-2.564 8.518.221 12.604l-2.63 11.814-3.807 5.54 4.616-1.811a81.559 81.559 0 0 1 1.821 8.672c.106 1.657-3.854 7.16-12.208 9.27 7.506-.337 14.174-2.477 16.265-5.782a78.186 78.186 0 0 1-3.257-9.106z" fill="#000" opacity=".1"/><path d="M343.118 174.575c-1.84-7.179-9.154-23.126-11.37-28.908-2.535-6.591-6.12-9.067-10.832-9.135-1.734 2.236-4.817 14.907 1.147 21.141 2.274 4.818 9.636 19.147 9.636 19.147-.173 1.291-5.714 17.701-7.709 22.086a3.498 3.498 0 0 1-1.792 1.715c-2.1.915-3.064 2.043-4.74 3.344-1.311.963-2.323 1.166-2.227 1.57a1.927 1.927 0 0 0 2.265 1.205 13.22 13.22 0 0 0 2.948-1.08 17.518 17.518 0 0 1-3.517 4.395c-3.19 2.89-3.026 5.328 2.419 6.196 3.411.54 6.446-1.157 10.147-8.297 1.06-2.062 2.428-5.069 3.497-7.796 2.535-6.465 5.252-10.3 7.015-14.579 2.756-6.755 3.826-8.277 3.113-11.004z" fill="#b16668"/><g fill="#263238"><path d="M301.52 126.54l6.475.173a16.314 16.314 0 0 0 16.737-15.9 19.551 19.551 0 0 0-19.021-20.08 19.551 19.551 0 0 0-20.081 19.02 16.314 16.314 0 0 0 15.89 16.787z"/><path d="M321.572 101.342l4.818-1.706a2.496 2.496 0 0 0-3.219-1.657 2.708 2.708 0 0 0-1.6 3.363z"/><path d="M321.62 100.089l1.503-4.924a2.496 2.496 0 0 0-3.238 1.619 2.708 2.708 0 0 0 1.735 3.305z"/></g><path d="M293.444 99.193c-2.1 1.156-4.818 6.282-4.818 17.18 0 9.232 2.891 11.564 4.375 12.296 1.484.732 4.394.376 7.227 0l-.077 4.548s-5.059 4.818-4.876 7.382c.183 2.563 6.495 3.854 10.205 1.483 3.71-2.37 6.918-7.072 6.918-7.072l.27-12.797s1.619 1.657 4.49-.723c2.38-1.927 3.257-5.367 1.494-7.256a4.047 4.047 0 0 0-6.466 1.109s-3.912-.627-9.568-4.337a21.2 21.2 0 0 1-9.174-11.813z" fill="#b16668"/><path d="M311.242 118.359l1.494-4.924a2.515 2.515 0 0 0-3.238 1.619c-.4 1.39.37 2.85 1.744 3.305zm-11.563-4.953a1.185 1.185 0 0 0 1.07 1.281 1.204 1.204 0 1 0-1.07-1.281z" fill="#263238"/><path d="M298.455 122.155l-2.727.78a1.397 1.397 0 0 0 1.735.964 1.474 1.474 0 0 0 .992-1.744z" fill="#9a4a4d"/><path d="M289.83 110.688l2.39-1.57a1.368 1.368 0 0 0-1.927-.453 1.503 1.503 0 0 0-.462 2.023zm.396 2.515a1.156 1.156 0 1 0 1.253-1.108 1.176 1.176 0 0 0-1.253 1.108z" fill="#263238"/><path d="M296.586 112.712l-.145 7.574-3.642-1.243zm3.623 15.938c2.977-.308 9.125-1.927 10.146-4.278a6.234 6.234 0 0 1-2.225 3.016c-1.87 1.512-7.979 3.112-7.979 3.112z" fill="#9a4a4d"/><path d="M334.474 133.506c-6.687.006-12.115-5.405-12.131-12.093v-20.438c6.7 0 12.131 5.432 12.131 12.132z" fill="#263238"/><g><path d="M114.495 203.57v51.128a1.445 1.445 0 0 1-.646 1.127l-1.744.964c-.41.202-.89.202-1.3 0l-1.745-.964a1.445 1.445 0 0 1-.646-1.127V203.57a.742.742 0 0 1 .752-.742h4.538a.742.742 0 0 1 .79.742z" fill="#263238"/><path d="M109.166 202.828h1.542a.743.743 0 0 1 .751.742v52.882c0 .414-.289.578-.645.376l-1.744-.964a1.445 1.445 0 0 1-.646-1.127V203.57a.742.742 0 0 1 .742-.742z" fill="#37474f"/><path d="M143.836 220.442v51.129a1.455 1.455 0 0 1-.655 1.127l-1.744.964a1.445 1.445 0 0 1-1.291 0l-1.745-.964a1.445 1.445 0 0 1-.645-1.127v-51.129c0-.41.332-.742.742-.742h4.587a.743.743 0 0 1 .751.742z" fill="#263238"/><path d="M138.498 219.7h1.551c.41 0 .742.332.742.742v52.882c0 .415-.289.579-.645.376l-1.745-.963a1.445 1.445 0 0 1-.645-1.128v-51.167c0-.41.332-.742.742-.742z" fill="#37474f"/><path d="M141.88 182.91a2.775 2.775 0 0 0 .559 2.024 2.718 2.718 0 0 0 1.83 1.04h.338a2.727 2.727 0 0 0 2.717-2.4c1.58-12.622-.664-40.856-6.06-56.765-.56-1.638-2.14-1.985-3.633-1.127-1.137.655-1.928 1.657-1.532 2.89 5.174 15.004 7.304 42.187 5.781 54.338z" fill="#455a64"/><g fill="#37474f"><path d="M110.081 190.176a1.744 1.744 0 0 1-1.657-2.294c4.047-12.295 23.926-23.232 36.761-23.232a1.744 1.744 0 0 1 0 3.488c-11.563 0-29.871 10.108-33.446 20.843a1.744 1.744 0 0 1-1.658 1.195zm-1.869-15.938a1.744 1.744 0 0 1-1.657-2.293c4.2-12.778 24.677-23.127 37.455-21.797a1.744 1.744 0 1 1-.357 3.469c-11.322-1.147-30.103 8.229-33.784 19.416a1.744 1.744 0 0 1-1.657 1.205zm-3.883-12.633c-.243 0-.483-.052-.704-.154a1.734 1.734 0 0 1-.896-2.294c6.013-13.692 27.414-24.947 38.978-23.338a1.746 1.746 0 1 1-.473 3.46c-10.233-1.427-29.929 9.048-35.306 21.276a1.763 1.763 0 0 1-1.6 1.05z"/></g><path d="M99.887 146.939a2.746 2.746 0 0 0-1.128 3.469c6.302 14.733 9.636 32.762 9.636 52.43v2.64l.212.221c.216.225.517.348.829.337a3.286 3.286 0 0 0 1.146-.279c.182-.072.369-.13.56-.173a2.737 2.737 0 0 0 2.736-2.747c0-20.438-3.469-39.17-10.08-54.597a2.737 2.737 0 0 0-3.854-1.301z" fill="#455a64"/><path d="M108.414 204.842v.664a4.375 4.375 0 0 0 1.62 3.17l29.138 21.065a3.344 3.344 0 0 0 3.344.173l41.107-23.704a3.854 3.854 0 0 0 1.735-2.997v-.684a3.42 3.42 0 0 0-1.812-2.833L146.65 182.66a4.317 4.317 0 0 0-3.537.163l-32.974 19.022a3.854 3.854 0 0 0-1.725 2.997z" fill="#37474f"/><path d="M110.14 201.845l32.973-19.05a4.317 4.317 0 0 1 3.537-.164l36.896 17.036c.964.463 1.031 1.282.077 1.83l-41.107 23.734a3.344 3.344 0 0 1-3.344-.164l-29.139-21.054a1.195 1.195 0 0 1 .106-2.168z" fill="#90caf9"/><path d="M161.952 279.906h-8.075v-14.06h8.075z" fill="#ffa8a7"/><path d="M186.755 266.04l8.422.443-.203-1.696-.077-1.262-.77-12.354-9.184.328 1.31 12.324.087.945z" fill="#ffa8a7"/><path d="M161.933 277.68v-.694c1.04 0 4.74 7.824 8.277 11.053 2.814 2.563 7.766 6.08 7.641 8.518-.154 3.141-4.635 4.529-8.499 3.623-3.016-.704-7.333-2.534-9.404-4.77-2.072-2.235-2.737-5.174-3.855-6.63-1.118-1.455-3.575-3.093-4.163-4.817-.318-.964.068-2.968.511-4.684.443-1.715.867-3.314 1.407-3.17v.964a7.015 7.015 0 0 0 4.461 1.513c1.34.086 3.633.086 3.624-.906zm32.974-14.155c.424 0 .819.54 1.85 1.464 1.243 1.128 3.854 2.178 5.782 2.891 3.199 1.253 11.409 2.583 14.213 3.546 1.753.607 1.57 3.257-.685 4.943-1.676 1.253-7.246 2.833-12.391 2.168-2.804-.366-7.16-1.927-9.232-2.023-2.274-.145-6.437-.202-8.21-1.195-1.773-.992-1.339-3.527-1.06-5.676.309-2.36.28-5.935 1.06-5.849l.087.964c1.118 1.397 6.572 1.31 8.673 0z" fill="#263238"/><path d="M121.914 186.524c-1.802 12.69.627 15.128 12.681 27.279 6.485 6.533 20.544 17.74 20.544 17.74s-2.332 5.059-2.409 14.145c-.077 8.008.81 27.193.81 27.193s4.875 2.718 8.624.347c0 0 9.751-45.935 9.058-48.883-.501-2.082-15.89-21.912-15.89-21.912l-4.317-2.747 27.944 17.2s-.848 7.71-.28 12.614c1.186 10.214 3.932 16.776 6.746 29.66 0 0 6.668 1.088 9.636-1.215 0 0 .183-44.113.183-48.006 0-5.917-25.699-23.589-30.565-27.694a283.701 283.701 0 0 0-5.878-4.818z" fill="#90caf9"/><g fill="#000"><path d="M121.914 186.524c-1.802 12.69.627 15.128 12.681 27.279 6.485 6.533 20.544 17.74 20.544 17.74s-2.332 5.059-2.409 14.145c-.077 8.008.81 27.193.81 27.193s4.875 2.718 8.624.347c0 0 9.751-45.935 9.058-48.883-.501-2.082-15.89-21.912-15.89-21.912l-4.317-2.747 27.944 17.2s-.848 7.71-.28 12.614c1.186 10.214 3.932 16.776 6.746 29.66 0 0 6.668 1.088 9.636-1.215 0 0 .183-44.113.183-48.006 0-5.917-25.699-23.589-30.565-27.694a283.701 283.701 0 0 0-5.878-4.818z" opacity=".3"/><path d="M151.015 199.686s3.931-1.927 7.43-9.366a18.858 18.858 0 0 1-2.41 7.603c-1.57 2.457 22.895 18.964 22.895 18.964z" opacity=".35"/></g></g><g><path d="M149.695 123.976l40.355-.289s26.76-8.055 28.976-12.15c2.438-4.587 3.199-11.689 4.586-15.996 1.041-3.21 3.922-1.58 3.546 9.135-.096 2.89.53 6.668-.23 10.358-.434 2.072-2.66 3.758-5.233 5.473a196.188 196.188 0 0 1-24.09 13.144c-3.2 1.368-5.146 2.004-10.908 2.37-8.21.54-27.944 1.687-27.944 1.687z" fill="#ffa8a7"/><path d="M147.055 123.581l24.6-.433s5.878 6.63 1.06 14.56c-.665.347-18.221 1.56-18.221 1.56z" fill="#90caf9"/><path d="M147.055 123.581l24.6-.433s5.878 6.63 1.06 14.56c-.665.347-18.221 1.56-18.221 1.56z" fill="#000" opacity=".1"/><path d="M133.622 123.86c-.964.232-8.971 2.111-12.527 3.306v27.01l.164 34.573c5.782 6.331 35.085 3.45 38.67-10.011v-40.471c0-6.466-3.595-14.233-13.491-14.81z" fill="#f5f5f5"/><path d="M121.124 159.774l5.859-16.593-5.743 36.491z" fill="#000" opacity=".1"/><path d="M130.828 90.761a4.442 4.442 0 0 0-3.662 1.291c-1.57 1.61-1.243 4.587 0 11.42l4.847.597zm28.33-1.975a7.709 7.709 0 0 0 3.044-.617c1.484-.857 1.88.838 1.06 2.313a6.948 6.948 0 0 1-5.637 3.758c-.048-.212-1.397-3.797-1.397-3.797z" fill="#263238"/><path d="M133.102 104.069c-.713.424-1.744-.964-2.64-1.928s-3.787-2.206-5.243.848c-1.455 3.055 1.282 7.227 3.566 7.94 3.94 1.234 4.538-1.29 4.538-1.29l.3 14.212s2.581 6.312 9.568 7.256c6.986.944 5.54-4.818 3.247-7.632v-4.326c1.755.28 3.535.37 5.31.27 2.89-.444 4.721-2.727 5.607-5.869 1.407-5.04 2.42-8.913 1.215-18.819-1.31-10.86-14.454-11.168-21.2-6.87-6.745 4.297-4.268 16.208-4.268 16.208z" fill="#ffa8a7"/><path d="M133.102 105.254c-.357 0-1.735-2.284-2.64-3.103-1.244-1.137.366-11.39.366-11.39s-1.263-3.854 1.204-6.465c2.467-2.612 7.217-2.14 10.706-2.265 4.28.026 8.521-.827 12.459-2.505 4.943-2.15 5.32-2.4 5.926-.232.607 2.169.848 7.16-2.1 10.494l-2.458.896s-1.33 1.185-5.945 1.744c-4.26.32-8.542.238-12.787-.24-1.34-.184-1.629 1.108-2.351 4.654-.578 3.112-1.157 8.383-2.38 8.412z" fill="#263238"/><path d="M130.837 91.542l-4.365-2.342a2.409 2.409 0 0 1 3.305-1.089 2.602 2.602 0 0 1 1.06 3.43z" fill="#263238"/><path d="M146.467 119.158s-6.466-1.3-8.73-2.505a7.4 7.4 0 0 1-3.122-3.093 10.262 10.262 0 0 0 1.773 3.652c1.657 2.11 10.079 3.671 10.079 3.671z" fill="#f28f8f"/><path d="M147.286 102.739a1.3 1.3 0 1 1-1.301-1.359 1.34 1.34 0 0 1 1.3 1.359zm-1.234-5.358l-3.073.761c-.173-.857.35-1.7 1.194-1.927a1.542 1.542 0 0 1 1.88 1.166z" fill="#263238"/><path d="M147.585 111.315l2.958 1.108a1.551 1.551 0 0 1-2.004.964 1.657 1.657 0 0 1-.954-2.072z" fill="#f28f8f"/><path d="M158.232 98.162l-3.006-1.09a1.532 1.532 0 0 1 1.995-.963 1.686 1.686 0 0 1 1.011 2.053zm-1.03 4.326a1.3 1.3 0 1 1-1.302-1.358 1.33 1.33 0 0 1 1.301 1.358z" fill="#263238"/><path d="M150.234 101.766l.434 7.795 4.066-1.388z" fill="#f28f8f"/><path d="M107.18 171.694c-.48-2.313 4.684-25.189 6.746-32.425l10.05 10.532-5.983 22.163c.086 1.532 1.349 10.676 3.314 16.024a4.105 4.105 0 0 0 1.927 2.188c2.39 1.281 3.412 2.688 5.262 4.374 1.435 1.32 2.611 1.59 2.467 2.053a2.216 2.216 0 0 1-2.776 1.204c-1.18-.382-2.311-.9-3.372-1.541a20.708 20.708 0 0 0 3.71 5.492c3.478 3.71 3.787 6.119-2.689 6.61-4.057.318-7.468-1.927-11.13-10.705-1.05-2.525-2.38-6.187-3.372-9.492a154.176 154.176 0 0 1-4.153-16.477z" fill="#ffa8a7"/><path d="M126.983 143.19c2.014-7.159.443-14.27-2.477-17.026-7.458 1.272-9.337 4.818-11.38 11.717-3.15 10.667-4.75 17.595-4.75 17.595 1.86 2.487 10.32 5.58 13.808 4.52z" fill="#90caf9"/><path d="M126.983 143.19c2.014-7.159.443-14.27-2.477-17.026-7.458 1.272-9.337 4.818-11.38 11.717-3.15 10.667-4.75 17.595-4.75 17.595 1.86 2.487 10.32 5.58 13.808 4.52z" fill="#000" opacity=".1"/><g fill="#263238"><path d="M144.482 99.53a3.382 3.382 0 0 0 0 6.745h.617a3.382 3.382 0 0 0 0-6.745zm-3.98 3.382a4.028 4.028 0 0 1 3.98-4.066h.617a4.066 4.066 0 0 1 0 8.123h-.617a4.018 4.018 0 0 1-3.98-4.057zm16.13-3.382a3.382 3.382 0 0 0 0 6.745h.617a3.382 3.382 0 0 0 0-6.745zm-3.979 3.382a4.028 4.028 0 0 1 3.98-4.066h.616a4.066 4.066 0 0 1 0 8.123h-.616a4.018 4.018 0 0 1-3.98-4.057z"/><path d="M149.03 102.141a2.65 2.65 0 0 1 2.11-1.098 2.149 2.149 0 0 1 1.84.703l.53-.404a2.746 2.746 0 0 0-2.408-.964 3.247 3.247 0 0 0-2.64 1.426zm-18.202.386h10.021v-.646h-10.667c.256.17.476.39.646.646z"/></g></g><g><path d="M382.934 94.037c-8.952-.838-14.204 5.204-17.046 11.294-3.421 7.371-9.636 23.251-9.636 23.251s-26.451 4.481-29.988 5.204l2.621 7.468s24.65-.54 28.494-.752c3.402-.183 6.186.347 8.21-3.083 2.023-3.43 9.5-23.57 9.5-23.57z" fill="#ffc4c3"/><path d="M382.934 94.037s-6.64-1.349-10.33 1.244c-4.886 3.43-6.312 7.814-8.817 13.162s-4.22 9.916-4.22 9.916 6.937 7.487 13.037 6.6c6.1-.886 10.33-30.922 10.33-30.922z" fill="#37474f"/><path d="M326.226 133.786c-9.222 1.551-12.141 6.08-13.953 8.49-1.812 2.408-2.178 5.492-.077 7.987 2.1 2.496 3.218 2.072 7.43-2.553 2.235-2.457 4.605-4.182 5.174-4.182s-1.927 2.708-.578 4.577 2.38-1.503 3.257-2.573a11.322 11.322 0 0 0 2.765-6.745" fill="#ffc4c3"/><path d="M402.94 277.819l9.13-.262.448 15.643-9.131.261z" fill="#ffc4c3"/><path d="M403.256 288.944v-1.3c-.858.404-2.67 8.21-6.206 11.62-2.804 2.708-6.649 5.86-7.564 8.817-.915 2.959 5.608 4.577 8.287 4.019 3.112-.636 8.47-2.997 9.78-5.079 1.311-2.081 1.85-5.107 2.891-6.639s3.566-3.276 4.115-5.02c.299-.964-.145-3.035-.655-4.818-.511-1.783-.964-3.373-1.532-3.2v.964a7.256 7.256 0 0 1-4.52 1.677c-1.33.154-4.577-.02-4.596-1.04z" fill="#263238"/><path d="M386.904 282.218l-9.116.579-.935-16.545 9.578-.588z" fill="#ffc4c3"/><path d="M377.605 279.983c-.472 0-.838.703-1.85 1.87a20.052 20.052 0 0 1-5.271 4.017c-3.373 1.812-9.944 4.635-12.912 6.08-1.86.897-1.706 3.171.28 4.404s6.696 2.034 12.295.617c3.054-.77 6.966-3.729 9.5-3.642 2.535.086 7.266-.097 9.097-1.436 1.83-1.34.964-4.066.405-6.408-.646-2.563-1.484-6.562-2.332-6.36v.887c-1.05 1.696-6.745 2.534-9.154 1.378z" fill="#263238"/><path d="M412.622 160.66c.25 8.73.164 59.512.164 59.512.28 2.506 2.823 6.9 3.276 15.938.646 13.105-3.372 49.26-3.372 49.26a12.035 12.035 0 0 1-10.166.49s-5.541-48.69-7.555-61.67c-1.754-11.283-5.059-41.993-5.059-41.993l-3.238 37.108a51.957 51.957 0 0 1 1.552 14.454c-.26 6.013-.887 43.237-.887 43.237a12.46 12.46 0 0 1-10.522 1.108s-7.96-52.805-8.23-58.317c-.298-6.273.376-70.449.376-70.449z" fill="#90caf9"/><path d="M412.622 160.66c.25 8.73.164 59.512.164 59.512.28 2.506 2.823 6.9 3.276 15.938.646 13.105-3.372 49.26-3.372 49.26a12.035 12.035 0 0 1-10.166.49s-5.541-48.69-7.555-61.67c-1.754-11.283-5.059-41.993-5.059-41.993l-3.238 37.108a51.957 51.957 0 0 1 1.552 14.454c-.26 6.013-.887 43.237-.887 43.237a12.46 12.46 0 0 1-10.522 1.108s-7.96-52.805-8.23-58.317c-.298-6.273.376-70.449.376-70.449z" fill="#000" opacity=".3"/><path d="M389.91 182.245a33.89 33.89 0 0 1-12.922-6.928s2.583 4.529 10.002 8.595l-.048 32.32z" fill="#000" opacity=".35"/><path d="M407.13 97.844c2.004.896 3.14 3.787 3.95 5.84.713 1.82 2.891 4.817 2.891 8.267l-1.542 17.537.675 31.385a42.312 42.312 0 0 1-44.586-3.47s1.157-40.47 1.157-47.591v-.964a16.034 16.034 0 0 1 12.632-14.733c2.467-.56 16.035 2.254 16.035 2.254l8.768 1.484z" fill="#455a64"/><g fill="#263238"><path d="M395.769 64.359c0 6.918-5.609 12.526-12.527 12.526-6.918 0-12.527-5.608-12.527-12.526 0-6.919 5.609-12.527 12.527-12.527 6.918 0 12.527 5.608 12.527 12.527zm9.144 8.932s-2.033 9.56-2.842 11.13a4.365 4.365 0 0 1-2.506 2.023l.145-6.745zM402.36 59.59a4.712 4.712 0 0 1 3.902 1.368c1.677 1.715.742 7.083-1.349 12.334l-3.854.434z"/></g><path d="M399.893 73.734c.77.453 1.87-1.02 2.814-2.013.944-.993 4.047-2.342 5.589.905 1.541 3.248-1.36 7.71-3.797 8.46-4.201 1.32-4.818-1.377-4.818-1.377l-.318 16.988c-5.213 6.745-19.706 6.186-13.673-.81v-6.041c-1.873.3-3.773.4-5.666.299-3.084-.482-5.03-2.891-5.965-6.264-1.503-5.367-2.081-9.703-.8-20.235 1.397-11.564 14.859-11.689 22.163-7.112s4.47 17.2 4.47 17.2z" fill="#ffc4c3"/><path d="M399.893 75.026c.385 0 1.86-2.429 2.814-3.305 1.33-1.205-.386-12.132-.386-12.132a5.175 5.175 0 0 0-1.272-5.531c-1.82-1.995-3.796-3.257-9.038-3.537-3.581-.013-7.16.154-10.725.501-5.175.357-7.083-.963-10.05-1.753-2.275-.636-2.535 7.564 3.208 10.281 0 0 1.87 1.214 6.746 1.812 4.543.34 9.108.253 13.634-.26 1.427-.193 1.725 1.185 2.496 4.962.752 3.315 1.31 8.933 2.573 8.962z" fill="#263238"/><path d="M402.36 60.437l4.644-2.496a2.563 2.563 0 0 0-3.517-1.166 2.775 2.775 0 0 0-1.127 3.662z" fill="#263238"/><path d="M385.738 89.846s6.89-1.388 9.298-2.67a7.94 7.94 0 0 0 3.334-3.295c-.38 1.4-1.034 2.71-1.927 3.855-1.753 2.254-10.734 3.912-10.734 3.912z" fill="#ffa8a7"/><path d="M386.075 72.01a1.397 1.397 0 0 0 1.378 1.426 1.445 1.445 0 0 0 0-2.891c-.784.026-1.4.68-1.378 1.465zm1.465-5.213l2.948 1.628a1.754 1.754 0 0 0-.684-2.351 1.638 1.638 0 0 0-2.264.723z" fill="#263238"/><path d="M386.403 81.55l-3.151 1.184a1.657 1.657 0 0 0 2.148 1.041 1.754 1.754 0 0 0 1.003-2.226z" fill="#ffa8a7"/><path d="M374.155 67.943l2.689-2.071a1.628 1.628 0 0 0-2.342-.367 1.792 1.792 0 0 0-.347 2.438zm.829 3.672a1.407 1.407 0 0 0 1.378 1.435 1.436 1.436 0 0 0 1.387-1.445 1.388 1.388 0 1 0-2.765 0z" fill="#263238"/><path d="M382.018 70.304l-.453 8.306-4.336-1.474z" fill="#ffa8a7"/><path d="M416.852 85.066c.761-.472 4.587 1.05 7.073 4.038 2.486 2.987 3.016 7.381 2.37 8.354-.645.973-9.944-2.39-9.944-2.39z" fill="#37474f"/><path d="M431.817 86.3c-1.262 3.131-16.651 25.275-20.342 30.575-10.262-4.53-3.237-16.565-3.237-16.565s11.052-17.44 12.854-20.331a6.533 6.533 0 0 0 .8-2.429c.24-1.57 1.243-20.746.385-26.547a4.25 4.25 0 0 0-1.513-2.62c-2.139-1.793-2.89-3.431-4.384-5.522-1.185-1.638-2.313-2.159-2.072-2.592a2.303 2.303 0 0 1 3.065-.636c1.11.63 2.142 1.39 3.073 2.264a21.402 21.402 0 0 0-2.601-6.321c-2.727-4.48-2.535-6.976 4.114-6.119 4.163.53 8.181 3.855 10.05 13.413.479 3.475.736 6.977.772 10.484.366 8.124.51 20.949.289 26.567-.126 2.842.01 3.237-1.253 6.379z" fill="#ffc4c3"/><path d="M404.913 97.844l11.94-12.778s-.29 10.234 9.443 12.392l-12.672 19.08c-1.407 2.89-6.745.192-8.239-5.86-2.1-8.45-.472-12.834-.472-12.834z" fill="#37474f"/></g><g><path d="M61.41 93.324c7.304-.626 10.532 1.504 14.454 7.006 4.673 6.639 14.05 23.242 14.05 23.242s26.826-.26 30.43-.174l-1.253 7.805s-24.37 3.855-28.185 4.308c-3.373.414-6.032 1.435-8.673-1.59-2.64-3.026-13.49-21.517-13.49-21.517z" fill="#ffbda7"/><path d="M120.296 123.398c9.346-.106 13.027 3.855 15.234 5.888 2.207 2.033 3.112 5.02 1.494 7.853-1.62 2.833-2.814 2.602-7.767-1.204-2.64-2.024-5.28-3.296-5.782-3.2-.5.097 2.352 2.332 1.378 4.404s-2.611-1.07-3.661-1.927a11.284 11.284 0 0 1-3.922-6.186" fill="#ffbda7"/><path d="M30.382 280.821a47.997 47.997 0 0 0-.732 7.709c-.087 4.664-.964 6.312-1.05 10.137-.135 4.365.626 6.003 2.399 8.46 1.773 2.458 6.417 4.683 8.383.53 1.966-4.153 1.715-6.87 1.09-11.158-.627-4.288-.733-6.87-1.109-10.253-.337-2.977-.732-5.242-.732-5.242z" fill="#263238"/><path d="M43.612 244.185l-15.35-.28c.232 10.244 1.86 27.3 2.12 36.916 0 1.802 0 14.06.636 17.779 1.031 5.598 7.709 4.818 8.017 1.493.309-3.324-.424-17.653-.404-19.127-.087-6.167 2.804-22.25 4.345-33.321.078-.54.56-2.891.636-3.46z" fill="#ffbda7"/><path d="M66.17 272.843s-.8.048-.963.693c-.164.646-.183 1.985-.501 3.248a18.578 18.578 0 0 0-.55 6.08c.27 1.426 3.537 3.556 5.782 3.932 2.245.375 5.377 2.582 7.13 4.23a17.2 17.2 0 0 0 9.926 3.902c3.729 0 6.32-1.243 7.554-3.237s-1.118-2.236-5.386-5.001l-3.305-2.15c-6.746-4.413-9.222-6.744-11.13-11.187z" fill="#263238"/><path d="M74.814 270.443c-.116-3.17 1.503-26.537 1.503-26.537l-13.201 1.484c3.122 18.636 3.372 24.976 3.025 27.684a2.64 2.64 0 0 0-.086.78c0 3.624 4.095 5.58 7.284 7.989 1.263.963 4.49 3.854 8.287 5.184 2.448.828 6.986 1.146 7.565-.337-3.855-2.968-9.155-6.832-12.238-10.215-1.474-1.618-2.033-2.813-2.14-6.032z" fill="#ffbda7"/><path d="M35.056 145.262c-6.957 15.832-2.978 63.472-2.978 63.472-.212 2.554-3.132 7.574-4.22 18.81-1.282 13.278 2.37 48.806 2.37 48.806s3.508 2.621 8.595.183c0 0 9.29-52.208 10.956-65.409 1.455-11.563 5.522-35.44 5.522-35.44l6.649 35.344c-1.158 3.709-2 7.51-2.515 11.36-.752 7.767 6.812 46.725 6.812 46.725s3.537 1.87 8.557-.163c0 0 3.353-50.339 4.057-59.686 1.175-15.706-2.997-64.705-5.878-74.004z" fill="#455a64"/><path d="M55.3 175.683l1.706-11.727s9.897-1.32 14.387-5.54a16.246 16.246 0 0 1-11.65 7.37l-1.754 10.6 3.016 30.787z" fill="#000" opacity=".6"/><path d="M74.274 91.253h-26.72c-7.717 0-13.973-6.256-13.973-13.972v-9.579c0-10.624 8.6-19.245 19.224-19.272h2.245c10.644 0 19.272 8.629 19.272 19.272z" fill="#37474f"/><path d="M46.532 93.623c-2.958.202-5.3.617-6.793 1.455a8.48 8.48 0 0 0-4.683 7.95c-.049 4.047.963 6.639 2.168 13.297l2.409 12.797s-2.217 8.865-5.599 18.308c11.853 6.62 25.921 5.705 34.275 2.12a16.294 16.294 0 0 0 6.495-4.586c.202-1.369-1.494-14.503-1.494-21.845 2.795-7.025 2.997-8.557 1.822-13.192-2.197-8.624-10.706-17.017-14.454-16.709z" fill="#f5f5f5"/><path d="M66.845 150.119c-25.362 1.792-26.644-14.743-25.198-17.277 1.445-2.535 4.336 0 4.336 0s-5.512-10.61-4.548-14.06c1.927-6.378 2.264-16.67 2.264-16.67l-6.466-5.136a8.672 8.672 0 0 0-2.216 6.052c-.048 4.047.964 6.639 2.159 13.297l2.457 12.797s-2.217 8.865-5.599 18.308a41.29 41.29 0 0 0 32.81 2.689z" fill="#ebebeb"/><path d="M40.577 47.65l1.32 5.04a2.534 2.534 0 0 1-3.209-1.764 2.737 2.737 0 0 1 1.89-3.276z" fill="#37474f"/><path d="M36.617 49.905l4.346 2.89a2.525 2.525 0 0 1-3.556.839 2.737 2.737 0 0 1-.79-3.73z" fill="#37474f"/><path d="M67.172 57.122c2.15 1.272 4.818 6.678 4.539 18.01-.222 9.636-3.334 11.977-4.895 12.661-1.561.685-4.577.26-7.507-.221v5.781s4.048 4.703 3.797 7.343c-.25 2.64-5.849 3.267-9.636.684a24.514 24.514 0 0 1-6.254-6.523V79.92s-1.927 2.149-5.145 0A5.54 5.54 0 0 1 41 71.643a3.854 3.854 0 0 1 6.215 1.725s4.674.174 10.899-3.247a17.49 17.49 0 0 0 9.057-12.999z" fill="#ffbda7"/><path d="M59.916 72.723a1.206 1.206 0 1 1-2.409.106 1.206 1.206 0 0 1 2.41-.106z" fill="#263238"/><path d="M61.314 80.855l2.804.897a1.455 1.455 0 0 1-1.821.963 1.551 1.551 0 0 1-.983-1.86z" fill="#f0997a"/><path d="M69.822 69.013l-2.447-1.696a1.426 1.426 0 0 1 2.033-.414c.678.48.86 1.408.414 2.11zm-.568 2.833a1.214 1.214 0 0 1-1.137 1.31 1.233 1.233 0 0 1-1.272-1.195 1.206 1.206 0 0 1 2.409-.115z" fill="#263238"/><g fill="#f0997a"><path d="M63.357 71.152l.192 7.275 3.826-1.185zm-4.048 16.42c-3.083-.405-9.443-2.236-10.426-4.741a6.495 6.495 0 0 0 2.188 3.199c1.927 1.628 8.2 3.46 8.2 3.46z"/></g><path d="M50.54 175.587a.482.482 0 0 1-.192.433l-.52.3-28.475-16.816a1.484 1.484 0 0 1-.665-1.156v-29.872l29.872 17.258z" fill="#90caf9"/><path d="M50.54 175.587a.482.482 0 0 1-.192.433l-.52.3-28.475-16.816a1.484 1.484 0 0 1-.665-1.156v-29.872l29.872 17.258z" fill="#000" opacity=".6"/><path d="M50.04 175.876c0 .433-.3.597-.665.385l-28.523-16.468a1.494 1.494 0 0 1-.674-1.156v-29.871l29.871 17.258z" fill="#90caf9"/><path d="M50.04 175.876c0 .433-.3.597-.665.385l-28.523-16.468a1.494 1.494 0 0 1-.674-1.156v-29.871l29.871 17.258z" fill="#000" opacity=".5"/><path d="M19.783 135.867v22.163c.022.475.273.91.674 1.166l26.297 15.186v2.891l2.553-1.474c.193 0 .338-.183.338-.463v-25.342l-29.872-17.249-2.785 1.61z" fill="#ebebeb"/><path d="M46.85 176.84c0 .423-.299.597-.674.385l-28.513-16.468a1.465 1.465 0 0 1-.675-1.156v-25.353l29.872 17.258z" fill="#fff"/><path d="M46.84 151.497l2.795-1.61-29.862-17.248-2.785 1.61z" fill="#e6e6e6"/><path d="M45.578 151.824a.81.81 0 0 1 .193.174.655.655 0 0 1 .193.347.183.183 0 0 1 0 .125c0 .231-.174.308-.405.173a.8.8 0 0 1-.26-.25.752.752 0 0 1-.154-.395.067.067 0 0 1 0-.048c.057-.193.221-.25.433-.126z" fill="#263238"/><path d="M44.22 150.842c-.013.336.067.67.23.963.177.329.499.554.868.607.216.036.437.02.646-.048a.655.655 0 0 0-.193-.347.887.887 0 0 1-.598-.048 1.108 1.108 0 0 1-.568-1.108 3.671 3.671 0 0 1 1.657-2.891c.916-.53 1.658-.116 1.667.964l.376.221a1.416 1.416 0 0 0 0-.202 1.83 1.83 0 0 0-.221-.964 1.204 1.204 0 0 0-.877-.597c-.398-.05-.8.042-1.137.26a4.018 4.018 0 0 0-1.85 3.19z" fill="#263238"/><path d="M43.911 149.994l1.976 28.6.366-.213a.742.742 0 0 0 .337-.578l-2.168-28.108z" fill="#90caf9"/><path d="M43.911 149.994l1.976 28.6.366-.213a.742.742 0 0 0 .337-.578l-2.168-28.108z" fill="#000" opacity=".6"/><path d="M46.08 178.16c0 .433-.3.607-.666.385l-28.522-16.468a1.484 1.484 0 0 1-.665-1.156l-2.178-28.629 29.872 17.258z" fill="#90caf9"/><path d="M50.54 145.715l-29.852-17.258-6.648 3.845L43.91 149.54z" fill="#90caf9"/><path d="M50.54 145.715l-29.852-17.258-6.648 3.845L43.91 149.54z" fill="#000" opacity=".1"/><path d="M43.362 143.075c.19.321.222.712.087 1.06a1.744 1.744 0 0 1-.79.848 4.066 4.066 0 0 1-3.71 0 1.927 1.927 0 0 1-.713-.665 1.388 1.388 0 0 1 .713-1.927 4.066 4.066 0 0 1 3.71 0c.29.157.534.39.703.674z" fill="#455a64"/><path d="M42.398 144.655a.964.964 0 0 0 0-1.927 3.652 3.652 0 0 0-3.314 0 .964.964 0 1 0 0 1.927 3.68 3.68 0 0 0 3.314 0zm-6.311-3.295l.5-.29a1.108 1.108 0 0 0 0-2.1l-12.94-7.477a4.066 4.066 0 0 0-3.652 0l-.501.289a1.118 1.118 0 0 0 0 2.11l12.95 7.468a3.98 3.98 0 0 0 3.643 0z" fill="#f5f5f5"/><path d="M50.55 146.168l-6.61 3.816-.029-.443 6.63-3.826z" fill="#90caf9"/><path d="M50.55 146.168l-6.61 3.816-.029-.443 6.63-3.826z" fill="#000" opacity=".6"/><g fill="#ffbda7"><path d="M42.842 94.134c-6.996.115-10.706.54-13.26 9.636-1.927 6.745-6.58 22.74-7.92 29.457-.617 3.093.067 15.418 1.011 29.419.164 2.457.174 5.28 1.542 6.63 3.036 3.006 9.424 4.865 10.08 2.89l-3.922-2.265 1.82-33.436 8.056-22.163c-.481 1.696 6.004-13.124 2.593-20.168z"/><path d="M31.192 154.773c.24 1.59 1.84 3.854 3.054 5.984 1.022 1.763 1.754 4.972 2.245 5.521.492.55-.809 1.648-2.428.27-1.619-1.378-2.149-3.054-2.756-3.854l.357 7.92-4.076-.963z"/></g></g><g><path d="M145.31 68.618l-3.661-6.822 2.89-8.422V48.18l-8.932 5.155v5.155l3.854 6.65a.55.55 0 0 0 .26.23z" fill="#90caf9"/><path d="M145.31 68.618l-3.661-6.822 2.89-8.422V48.18l-8.932 5.155v5.155l3.854 6.65a.55.55 0 0 0 .26.23z" fill="#000" opacity=".2"/><path d="M166.635 7.246a5.897 5.897 0 0 0-2.679-4.635l-2.178-1.262a5.936 5.936 0 0 0-5.348 0l-33.427 19.33a5.907 5.907 0 0 0-2.679 4.635v36.78a5.936 5.936 0 0 0 2.68 4.635l2.177 1.262a5.955 5.955 0 0 0 5.358 0l10.744-6.215 3.854 6.64a.569.569 0 0 0 1.031-.107l4.047-11.678 13.76-7.979a5.897 5.897 0 0 0 2.68-4.635z" fill="#90caf9"/><path d="M120.324 62.094a5.907 5.907 0 0 0 2.68 4.635l2.177 1.262a5.974 5.974 0 0 0 4.895.212c-1.262.473-2.216-.23-2.216-1.763V29.67c.031-.933.3-1.842.78-2.641l-7.535-4.346a5.483 5.483 0 0 0-.78 2.63z" fill="#000" opacity=".2"/><path d="M166.548 6.485c-.308-1.137-1.349-1.503-2.582-.79l-33.437 19.359a5.3 5.3 0 0 0-1.927 1.994l-7.536-4.346a5.473 5.473 0 0 1 1.928-1.994L156.42 1.349a5.955 5.955 0 0 1 5.357 0l2.188 1.262a5.897 5.897 0 0 1 2.582 3.874z" fill="#fff" opacity=".3"/><path d="M160.651 33.321a.569.569 0 0 0-.193 0l-2.553-.144a.424.424 0 0 1-.434-.424c0-.405.058-.8.058-1.195.01-.425-.01-.85-.058-1.272.011-.276.113-.54.29-.752l2.89-3.46a.8.8 0 0 0 .173-.712l-1.358-2.997a.26.26 0 0 0-.077-.096c-.116-.058-.28 0-.444.135l-3.045 2.784a.54.54 0 0 1-.664.116 4.712 4.712 0 0 0-1.31-.761.472.472 0 0 1-.31-.53l.964-4.269a.27.27 0 0 0-.125-.308.54.54 0 0 0-.289 0l-2.978.298a.838.838 0 0 0-.655.453l-1.619 4.337c-.138.28-.37.505-.655.636a13.49 13.49 0 0 0-1.84 1.07c-.25.163-.53.182-.646 0l-1.522-2.333c-.106-.164-.357-.125-.55.077l-3.276 3.46a.896.896 0 0 0-.26.722l.915 3.084a1.06 1.06 0 0 1-.164.751 25.179 25.179 0 0 0-1.512 2.612c-.157.26-.41.45-.704.53l-2.804.674a.964.964 0 0 0-.636.53l-1.407 4.75c-.077.222.087.415.347.425l2.554.144a.424.424 0 0 1 .433.415c-.077.82-.077 1.646 0 2.466a1.243 1.243 0 0 1-.28.762l-2.89 3.459a.8.8 0 0 0-.173.713l1.358 2.997a.27.27 0 0 0 .087.096c.035.01.071.01.106 0a.559.559 0 0 0 .337-.154l3.045-2.794a.54.54 0 0 1 .665-.106c.397.314.839.567 1.31.751.219.084.347.31.309.54l-.964 4.269a.27.27 0 0 0 .126.298c.09.032.189.032.28 0l2.977-.289a.82.82 0 0 0 .655-.453l1.619-4.345c.144-.275.374-.495.655-.627.308-.144.626-.318.964-.5s.597-.367.905-.57c.309-.202.53-.183.636 0l1.523 2.332c.018.03.045.054.077.068.172.072.37.011.472-.145l3.286-3.459a.896.896 0 0 0 .25-.713l-.915-3.083a1.06 1.06 0 0 1 .164-.752 23.791 23.791 0 0 0 1.513-2.611c.156-.266.413-.458.713-.53l2.794-.675a.964.964 0 0 0 .636-.53l1.378-4.76a.328.328 0 0 0-.154-.405zm-14.955 11.563H144.54a3.016 3.016 0 0 1-2.814-1.927 6.34 6.34 0 0 1-.453-2.438 13.394 13.394 0 0 1 3.7-8.48 10.522 10.522 0 0 1 2.255-1.83 7.96 7.96 0 0 1 .752-.386 4.818 4.818 0 0 1 2.12-.443h.356a2.997 2.997 0 0 1 2.342 1.86c1.272 2.794-.183 7.709-3.238 10.908a8.528 8.528 0 0 1-3.864 2.775z" fill="#fff"/><path d="M302.8 68.618l3.624-6.822-2.89-8.422V48.18l8.932 5.155v5.155l-3.855 6.65a.501.501 0 0 1-.26.23z" fill="#90caf9"/><path d="M302.8 68.618l3.624-6.822-2.89-8.422V48.18l8.932 5.155v5.155l-3.855 6.65a.501.501 0 0 1-.26.23z" fill="#000" opacity=".2"/><path d="M281.476 7.246a5.897 5.897 0 0 1 2.68-4.635l2.177-1.262a5.955 5.955 0 0 1 5.358 0l33.417 19.33a5.907 5.907 0 0 1 2.679 4.635v36.78a5.907 5.907 0 0 1-2.679 4.635l-2.178 1.262a5.936 5.936 0 0 1-5.348 0l-10.753-6.215-3.855 6.64a.569.569 0 0 1-1.03-.107l-4.048-11.678-13.76-7.979a5.897 5.897 0 0 1-2.679-4.635z" fill="#90caf9"/><path d="M327.787 62.094a5.907 5.907 0 0 1-2.679 4.635l-2.178 1.262a5.965 5.965 0 0 1-4.895.212c1.263.473 2.217-.23 2.217-1.763V29.67a5.483 5.483 0 0 0-.78-2.641l7.534-4.346c.48.797.748 1.702.78 2.63z" fill="#000" opacity=".2"/><g fill="#fff"><path d="M281.563 6.485c.318-1.137 1.35-1.503 2.583-.79l33.436 19.359a5.3 5.3 0 0 1 1.88 1.994l7.535-4.346a5.396 5.396 0 0 0-1.927-1.994L291.69 1.349a5.955 5.955 0 0 0-5.357 0l-2.187 1.262a5.926 5.926 0 0 0-2.583 3.874z" opacity=".3"/><path d="M304.381 55.291l-4.702-2.746a1.349 1.349 0 0 1-.55-1.06v-2.004c0-.405.251-.598.55-.415l4.75 2.737c.345.249.552.645.56 1.07v1.994c-.049.415-.3.598-.608.424zm-6.1-20.052c.403.507.693 1.096.849 1.725a2.245 2.245 0 0 1-.964-.964c-.058-.125-.24-.52-.087-.703.154-.184.135-.116.203-.058zm3.73-.858a.482.482 0 0 1 .24.357c.056.42-.029.847-.24 1.214a3.257 3.257 0 0 1-.232-1.484c.03-.116.078-.174.232-.087zm3.729 5.126c.058 0 .106.097.173.26a.472.472 0 0 1-.086.598c-.193.174-.54.154-.964-.125.356-.56.674-.733.877-.733z"/><path d="M294.543 31.355c0 7.912 4.895 12.045 4.895 15.235v1.34l5.155 2.986v-1.349c0-3.19 4.895-1.676 4.895-9.578 0-5.511-3.353-11.9-7.477-14.28-4.124-2.38-7.468.144-7.468 5.646zm3.016 3.132c.212-.27.51-.26.838 0a5.994 5.994 0 0 1 1.369 2.67c.235.042.477.042.713 0a2.467 2.467 0 0 0 1.156-.656 5.078 5.078 0 0 1-.453-2.573c.106-.453.424-.578.829-.337.45.29.752.761.828 1.291a2.794 2.794 0 0 1-.452 2.053c.325.695.712 1.359 1.156 1.985.217.305.456.595.713.867.405-.848.886-1.243 1.368-1.089.402.19.706.54.839.964.296.515.243 1.16-.135 1.619-.347.308-.964.26-1.716-.318a11.38 11.38 0 0 0-.462 1.657 33.658 33.658 0 0 0-.617 6.35c0 .231-.135.337-.299.25a.742.742 0 0 1-.318-.587c.002-2.203.215-4.4.636-6.562.116-.562.267-1.116.453-1.658a9.02 9.02 0 0 1-.79-.963 13.78 13.78 0 0 1-1.204-2.043c-.34.316-.755.542-1.205.655a2.476 2.476 0 0 1-.79.058c.174.665.318 1.397.453 2.187.414 2.41.627 4.85.636 7.295 0 .221-.135.318-.308.221a.761.761 0 0 1-.309-.597 44.547 44.547 0 0 0-.616-7.073 25.34 25.34 0 0 0-.463-2.178 3.44 3.44 0 0 1-1.715-1.667 1.802 1.802 0 0 1-.135-1.82zm4.452-11.66a1.715 1.715 0 0 1-.646-1.368v-2.187c0-.55.29-.829.646-.617.417.326.657.83.645 1.359v2.149c0 .588-.289.867-.645.665zm-4.77-.79a1.426 1.426 0 0 1-.559-.819l-.713-2.322c-.183-.578-.077-1.127.231-1.224.309-.096.704.3.887.877l.713 2.323c.173.578.067 1.117-.241 1.214a.357.357 0 0 1-.318-.049zm-3.498 3.363a1.233 1.233 0 0 1-.318-.318l-1.243-1.82a1.686 1.686 0 0 1-.231-1.494c.173-.376.568-.309.877.144l1.243 1.821c.308.434.394.988.23 1.494a.366.366 0 0 1-.558.173zm-1.272 6.601l-1.465-.819a1.715 1.715 0 0 1-.645-1.368c0-.55.289-.829.645-.617l1.436.82c.416.33.654.836.646 1.367.029.55-.26.83-.617.617zm.039 8.47a1.455 1.455 0 0 1-.56-.819c-.182-.578-.076-1.127.232-1.224l1.243-.385c.308-.097.703.299.877.867.173.569.077 1.127-.231 1.224l-1.243.385a.424.424 0 0 1-.318-.048zm19.002 10.975a.964.964 0 0 1-.318-.318l-1.243-1.811a1.696 1.696 0 0 1-.232-1.494c.174-.375.569-.308.877.145l1.243 1.821c.309.43.394.98.232 1.484a.357.357 0 0 1-.56.173zm1.474-7.593l-1.436-.828a1.696 1.696 0 0 1-.636-1.369c0-.549.28-.819.636-.616l1.436.828c.415.328.654.83.646 1.359 0 .55-.29.829-.646.626zm-2.708-8.913a1.426 1.426 0 0 1-.559-.819c-.183-.578-.077-1.127.232-1.214l1.243-.395c.308-.097.703.298.877.877.173.578.077 1.127-.232 1.214l-1.243.395a.385.385 0 0 1-.318-.058zm-3.497-7.39a1.04 1.04 0 0 1-.318-.328 1.706 1.706 0 0 1-.241-1.484l.722-1.504c.174-.366.569-.298.877.155.306.43.395.978.241 1.484l-.674 1.503a.366.366 0 0 1-.607.173z"/></g></g><g><path d="M224.518 291.739v74.794a2.13 2.13 0 0 0 .964 1.677l2.062 1.195a2.14 2.14 0 0 0 1.927 0l2.062-1.195a2.13 2.13 0 0 0 .964-1.677V291.74c0-.617-.434-.867-.964-.56l-2.062 1.196a2.14 2.14 0 0 1-1.927 0l-2.062-1.195c-.501-.308-.964-.058-.964.559z" fill="#37474f"/><path d="M229.52 369.405l2.061-1.195a2.13 2.13 0 0 0 .964-1.677V291.74c0-.617-.434-.867-.964-.56l-2.062 1.196a2.149 2.149 0 0 0-.963 1.676v74.795c0 .617.433.867.963.559z" fill="#455a64"/><path d="M115.381 228.73v74.803a2.13 2.13 0 0 0 .964 1.677l2.062 1.185a2.081 2.081 0 0 0 1.927 0l2.062-1.185a2.13 2.13 0 0 0 .964-1.677V228.73c0-.617-.434-.867-.964-.559l-2.043 1.166a2.14 2.14 0 0 1-1.927 0l-2.062-1.185c-.55-.29-.983-.039-.983.578z" fill="#37474f"/><path d="M120.353 306.424l2.062-1.185a2.13 2.13 0 0 0 .964-1.677V228.73c0-.617-.434-.867-.964-.559l-2.062 1.166a2.14 2.14 0 0 0-.963 1.686v74.785c-.01.617.424.896.963.617z" fill="#455a64"/><path d="M318.546 237.44v74.766c.039.68.396 1.3.964 1.676l2.062 1.195a2.14 2.14 0 0 0 1.927 0l2.062-1.195a2.13 2.13 0 0 0 .964-1.676V237.44c0-.617-.434-.867-.964-.559l-2.062 1.185a2.14 2.14 0 0 1-1.927 0l-2.062-1.185c-.56-.308-.964-.058-.964.559z" fill="#37474f"/><path d="M323.518 315.096l2.062-1.195a2.13 2.13 0 0 0 .964-1.676V237.44c0-.617-.434-.867-.964-.559l-2.062 1.185a2.168 2.168 0 0 0-.963 1.687v74.784c0 .627.433.877.963.56z" fill="#455a64"/><path d="M96.244 235.561v-.703a3.854 3.854 0 0 1 1.773-3.055l119.698-69.138a3.854 3.854 0 0 1 3.537 0l116.595 67.307a3.854 3.854 0 0 1 1.773 3.055v.703a3.854 3.854 0 0 1-1.773 3.055l-119.67 69.148a3.941 3.941 0 0 1-3.536 0L98.046 238.625a3.903 3.903 0 0 1-1.802-3.064z" fill="#90caf9"/><path d="M96.244 235.561v-.703a3.854 3.854 0 0 1 1.773-3.055l119.698-69.138a3.854 3.854 0 0 1 3.537 0l116.595 67.307a3.854 3.854 0 0 1 1.773 3.055v.703a3.854 3.854 0 0 1-1.773 3.055l-119.67 69.148a3.941 3.941 0 0 1-3.536 0L98.046 238.625a3.903 3.903 0 0 1-1.802-3.064z" fill="#fff" opacity=".65"/><path d="M216.414 301.606v4.818a3.772 3.772 0 0 1-1.773-.424L98.046 238.693a3.854 3.854 0 0 1-1.763-3.055v-.713a3.854 3.854 0 0 1 1.435-2.823c-.636.54-.53 1.3.328 1.811l116.595 67.308c.548.28 1.159.412 1.773.385z" fill="#90caf9"/><path d="M216.414 301.606v4.818a3.772 3.772 0 0 1-1.773-.424L98.046 238.693a3.854 3.854 0 0 1-1.763-3.055v-.713a3.854 3.854 0 0 1 1.435-2.823c-.636.54-.53 1.3.328 1.811l116.595 67.308c.548.28 1.159.412 1.773.385z" fill="#fff" opacity=".5"/><path d="M98.017 233.836l116.595 67.317a3.941 3.941 0 0 0 3.537 0l119.698-69.148a1.07 1.07 0 0 0 0-2.033l-116.595-67.307a3.854 3.854 0 0 0-3.537 0L98.017 231.803a1.07 1.07 0 0 0 0 2.033z" fill="#90caf9"/><path d="M98.017 233.836l116.595 67.317a3.941 3.941 0 0 0 3.537 0l119.698-69.148a1.07 1.07 0 0 0 0-2.033l-116.595-67.307a3.854 3.854 0 0 0-3.537 0L98.017 231.803a1.07 1.07 0 0 0 0 2.033z" fill="#fff" opacity=".8"/><path d="M303.736 223.901l1.994-2.35-4.153 1.107" fill="#455a64" opacity=".1"/></g><g><path d="M232.275 206.287v.559a2.342 2.342 0 0 0 1.156 2.004l40.356 23.29c.347.205.744.312 1.147.309.409.003.811-.104 1.166-.309l21.989-12.661a2.303 2.303 0 0 0 1.156-1.995v-.77a.308.308 0 0 1-.144.26l-24.158 13.942z" fill="#90caf9"/><path d="M232.275 206.287v.559a2.342 2.342 0 0 0 1.156 2.004l40.356 23.29c.347.205.744.312 1.147.309.409.003.811-.104 1.166-.309l21.989-12.661a2.303 2.303 0 0 0 1.156-1.995v-.77a.308.308 0 0 1-.144.26l-24.158 13.942z" fill="#000" opacity=".3"/><path d="M232.275 206.287l23.926-13.818c.428-.24.95-.24 1.378 0l41.512 23.974a.308.308 0 0 1 0 .53l-24.157 13.943z" fill="#90caf9"/><path d="M232.275 206.287l23.926-13.818c.428-.24.95-.24 1.378 0l41.512 23.974a.308.308 0 0 1 0 .53l-24.157 13.943z" fill="#90caf9"/><path d="M232.275 206.287l23.926-13.818c.428-.24.95-.24 1.378 0l41.512 23.974a.308.308 0 0 1 0 .53l-24.157 13.943z" fill="#000" opacity=".2"/><path d="M275.155 228.883l12.912-7.439-37.744-21.787-12.97 7.4z" fill="#000" opacity=".3"/><path d="M237.353 207.058l.492.289 12.478-7.13 37.243 21.507.492-.28-37.735-21.796z" fill="#90caf9"/><path d="M237.353 207.058l.492.289 12.478-7.13 37.243 21.507.492-.28-37.735-21.796zm44.152 1.118l-.24.144-6.331 3.652-11.246-6.494-.23-.135 6.561-3.797z" fill="#000" opacity=".6"/><path d="M281.264 208.32l-6.33 3.652-11.246-6.494 6.331-3.662z" fill="#90caf9"/><path d="M281.264 208.32l-6.33 3.652-11.246-6.494 6.331-3.662z" fill="#000" opacity=".5"/><path d="M274.934 230.916v1.533c-.403.003-.8-.104-1.147-.309l-40.356-23.3a2.293 2.293 0 0 1-1.156-1.994v-.56z" fill="#90caf9"/><path d="M274.934 230.916v1.533c-.403.003-.8-.104-1.147-.309l-40.356-23.3a2.293 2.293 0 0 1-1.156-1.994v-.56z" fill="#90caf9"/><path d="M274.934 230.916v1.533c-.403.003-.8-.104-1.147-.309l-40.356-23.3a2.293 2.293 0 0 1-1.156-1.994v-.56z" fill="#000" opacity=".6"/><path d="M274.288 231.263a2.717 2.717 0 0 1-2.36-.183l-40.173-23.193a2.708 2.708 0 0 1-1.33-1.928l-4.404-26.229c-.01-.15-.01-.302 0-.453a2.775 2.775 0 0 1 .8-1.927l41.763 24.09c.511.305.864.82.963 1.407z" fill="#90caf9"/><path d="M274.934 230.916l-.27.155c-.12.072-.245.134-.376.183l-4.75-28.388a2.033 2.033 0 0 0-.964-1.407l-41.762-24.09c.171-.16.359-.301.558-.424l41.84 24.158c.515.306.868.825.963 1.416z" fill="#90caf9"/><g fill="#000"><path d="M274.934 230.916l-.27.155c-.12.072-.245.134-.376.183l-4.75-28.388a2.033 2.033 0 0 0-.964-1.407l-41.762-24.09c.171-.16.359-.301.558-.424l41.84 24.158c.515.306.868.825.963 1.416z" opacity=".1"/><path d="M269.142 201.99l.646-.377c.196.258.328.559.385.877l4.76 28.426-.27.155c-.118.072-.244.134-.375.183l-4.75-28.388a2.13 2.13 0 0 0-.396-.877z" opacity=".25"/><path d="M251.653 207.039c-.289-1.754-2.1-4.086-4.047-5.204-1.946-1.118-3.276-.607-2.978 1.147s2.101 4.085 4.048 5.213 3.276.607 2.977-1.156z" opacity=".3"/></g></g><g><path d="M136.532 214.988v.761a2.236 2.236 0 0 0 1.108 1.928l21.354 12.305c.339.197.725.3 1.117.299.396.001.785-.102 1.128-.3l39.19-22.624a2.264 2.264 0 0 0 1.127-1.928v-.54l-41.435 23.927-23.454-13.548a.29.29 0 0 1-.135-.28z" fill="#37474f"/><path d="M201.565 204.87l-23.232-13.422a1.378 1.378 0 0 0-1.34 0l-40.316 23.28a.299.299 0 0 0 0 .52l23.454 13.549z" fill="#455a64"/><g fill="#263238"><path d="M201.565 204.87l-23.232-13.422a1.378 1.378 0 0 0-1.34 0l-40.316 23.28a.299.299 0 0 0 0 .52l23.454 13.549z" opacity=".2"/><path d="M159.919 226.821l-12.537-7.236 36.655-21.161 12.604 7.198zm-6.158-20.11l.232.125 6.138 3.546 10.927-6.302.231-.135-6.379-3.67z"/></g><path d="M153.993 206.836l6.138 3.546 10.927-6.302-6.148-3.546z" fill="#37474f"/><path d="M153.993 206.836l6.138 3.546 10.927-6.302-6.148-3.546z" fill="#263238" opacity=".5"/><path d="M160.13 228.787v1.513c.393.002.78-.1 1.118-.299l39.18-22.644a2.255 2.255 0 0 0 1.118-1.928v-.54z" fill="#37474f"/><path d="M160.13 228.787v1.513c.393.002.78-.1 1.118-.299l39.18-22.644a2.255 2.255 0 0 0 1.118-1.928v-.54z" fill="#263238" opacity=".5"/><path d="M160.767 229.124c.75.288 1.59.221 2.283-.183l39.026-22.529a2.65 2.65 0 0 0 1.291-1.85l4.269-25.477c.014-.145.014-.29 0-.434a2.63 2.63 0 0 0-.79-1.927l-40.548 23.415c-.508.291-.861.792-.964 1.368z" fill="#455a64"/><path d="M160.767 229.124c.75.288 1.59.221 2.283-.183l39.026-22.529a2.65 2.65 0 0 0 1.291-1.85l4.269-25.477c.014-.145.014-.29 0-.434a2.63 2.63 0 0 0-.79-1.927l-40.548 23.415c-.508.291-.861.792-.964 1.368z" fill="#263238" opacity=".2"/><path d="M160.13 228.797l.27.144c.116.068.241.125.367.183l4.615-27.578a1.975 1.975 0 0 1 .964-1.368l40.548-23.416c-.16-.161-.342-.3-.54-.414l-40.615 23.464c-.507.291-.86.792-.964 1.368z" fill="#455a64"/><path d="M165.382 201.527l-4.615 27.568a2.544 2.544 0 0 1-.367-.173l-.27-.154 4.626-27.607c.047-.273.152-.533.308-.762l.627.367a1.927 1.927 0 0 0-.309.76z" fill="#263238" opacity=".5"/><path d="M182.746 205.603a8.576 8.576 0 0 1 3.932-5.06c1.927-1.088 3.18-.587 2.89 1.119a8.672 8.672 0 0 1-3.94 5.059c-1.87 1.088-3.17.587-2.882-1.118z" fill="#90caf9"/></g><g><path d="M131.367 223.478l-18.424 9.713-.385.587v.482a.694.694 0 0 0 .385.598l24.283 14.02c.396.206.867.206 1.262 0l18.01-10.397v-.472z" fill="#263238"/><path d="M137.852 248.54a1.204 1.204 0 0 1-.626-.153l-24.283-14.02a.646.646 0 0 1 0-1.186l17.615-10.176 25.94 15.004-18.01 10.397a1.224 1.224 0 0 1-.636.135z" fill="#455a64"/><path d="M130.558 221.627l-17.422 10.022-.173.25v1.87a.299.299 0 0 0 .173.25l24.292 14.02c.268.145.59.145.858 0l17.422-10.03v-1.928z" fill="#ebebeb"/><path d="M155.708 236.081l-.222.126-2.833 1.638-.53.308-13.837 7.979a.906.906 0 0 1-.858 0l-24.292-14.02a.27.27 0 0 1 0-.502l.231-.125 17.19-9.858 24.93 14.397h.057z" fill="#f0f0f0"/><path d="M137.852 246.276v1.87a.77.77 0 0 1-.424-.106l-24.292-14.02a.299.299 0 0 1-.173-.251v-1.87a.299.299 0 0 0 .173.25l24.292 14.021a.77.77 0 0 0 .424.106z" fill="#e0e0e0"/><path d="M155.708 235.87l-3.142 1.81-.491.28-13.79 7.96a.906.906 0 0 1-.857 0l-21.748-12.527-.55-.308a5.435 5.435 0 0 1-1.763-1.533.414.414 0 0 0 0-.067.337.337 0 0 1-.058-.135.395.395 0 0 1 .309-.434 7.709 7.709 0 0 0 1.638-.684l15.321-8.845z" fill="#fff"/><path d="M152.46 235.648a.25.25 0 0 0 0 .472.964.964 0 0 0 .81 0 .25.25 0 0 0 0-.472.964.964 0 0 0-.81 0z" fill="#000" opacity=".1"/><path d="M155.052 234.154a1.089 1.089 0 0 0-1.088.077 3.353 3.353 0 0 0-1.36 1.927.964.964 0 0 0 .29 0c.185-.71.62-1.329 1.224-1.744a1.07 1.07 0 0 1 .491-.154.655.655 0 0 1 .299.077c.282.238.432.596.405.964.004.08.004.16 0 .24l.28.165c.009-.135.009-.27 0-.405a1.397 1.397 0 0 0-.54-1.147zm.502 1.802v.068h-.058z" fill="#263238"/><path d="M150.022 234.24c-.221.136-.221.348 0 .473a.964.964 0 0 0 .81 0c.222-.125.222-.337 0-.472a.964.964 0 0 0-.81 0z" fill="#000" opacity=".1"/><path d="M152.624 232.728a1.089 1.089 0 0 0-1.089.077 3.44 3.44 0 0 0-1.368 1.927c.1.015.2.015.299 0a3.064 3.064 0 0 1 1.214-1.744c.152-.09.324-.143.5-.154.102 0 .202.027.29.077.286.235.438.595.405.964.005.08.005.16 0 .24l.28.164c.013-.134.013-.27 0-.404a1.416 1.416 0 0 0-.53-1.147z" fill="#263238"/><path d="M147.594 232.844a.24.24 0 0 0 0 .462c.25.136.55.136.8 0 .231-.125.231-.337 0-.462a.838.838 0 0 0-.8 0z" fill="#000" opacity=".1"/><path d="M150.186 231.321a1.089 1.089 0 0 0-1.089.077 3.44 3.44 0 0 0-1.368 1.927.8.8 0 0 0 .299 0 3.074 3.074 0 0 1 1.224-1.744c.148-.089.318-.139.491-.144.1-.003.2.02.29.067.289.233.444.594.413.964.005.08.005.16 0 .24l.29.165c.009-.135.009-.27 0-.405a1.397 1.397 0 0 0-.55-1.147z" fill="#263238"/><path d="M145.156 231.437a.24.24 0 0 0 0 .462.858.858 0 0 0 .81 0 .24.24 0 0 0 0-.462.858.858 0 0 0-.81 0z" fill="#000" opacity=".1"/><path d="M147.748 229.924a1.031 1.031 0 0 0-1.079.077 3.334 3.334 0 0 0-1.368 1.927c.098.02.2.02.299 0a3.006 3.006 0 0 1 1.214-1.734.964.964 0 0 1 .5-.154.501.501 0 0 1 .29.077c.29.23.443.594.405.963.005.08.005.161 0 .241l.279.164c.01-.135.01-.27 0-.405.02-.45-.181-.882-.54-1.156z" fill="#263238"/><path d="M142.728 230.03c-.222.125-.222.337 0 .472a.896.896 0 0 0 .8 0c.231-.135.231-.347 0-.472a.896.896 0 0 0-.8 0z" fill="#000" opacity=".1"/><path d="M145.32 228.517a1.05 1.05 0 0 0-1.089.077 3.373 3.373 0 0 0-1.368 1.927.79.79 0 0 0 .299 0 3.016 3.016 0 0 1 1.223-1.734.964.964 0 0 1 .492-.154c.101 0 .2.027.289.077.292.23.448.593.414.963.005.08.005.161 0 .241l.29.164c.008-.135.008-.27 0-.405a1.378 1.378 0 0 0-.55-1.156z" fill="#263238"/><path d="M140.29 228.623a.25.25 0 0 0 0 .472.964.964 0 0 0 .81 0 .25.25 0 0 0 0-.472.964.964 0 0 0-.81 0z" fill="#000" opacity=".1"/><path d="M142.882 227.11a1.07 1.07 0 0 0-1.089.077 3.392 3.392 0 0 0-1.358 1.928c.099.015.2.015.298 0 .178-.71.61-1.331 1.215-1.745a.964.964 0 0 1 .491-.154c.104 0 .207.027.299.077.287.234.439.595.404.964a2.1 2.1 0 0 1 0 .24l.28.165c.01-.135.01-.27 0-.405a1.378 1.378 0 0 0-.54-1.147z" fill="#263238"/><path d="M137.852 227.216c-.221.135-.221.347 0 .472a.964.964 0 0 0 .81 0c.221-.125.221-.337 0-.472a.964.964 0 0 0-.81 0z" fill="#000" opacity=".1"/><path d="M140.454 225.703a1.089 1.089 0 0 0-1.089.078 3.411 3.411 0 0 0-1.368 1.927c.099.014.2.014.299 0a3.035 3.035 0 0 1 1.214-1.744c.152-.091.324-.144.5-.155.102 0 .202.027.29.078.29.232.445.593.414.963.005.08.005.16 0 .241l.29.164c.009-.135.009-.27 0-.405a1.397 1.397 0 0 0-.55-1.147z" fill="#263238"/><path d="M135.424 225.82a.24.24 0 0 0 0 .462.858.858 0 0 0 .81 0 .24.24 0 0 0 0-.463.858.858 0 0 0-.81 0z" fill="#000" opacity=".1"/><path d="M138.016 224.297a1.089 1.089 0 0 0-1.089.077 3.382 3.382 0 0 0-1.358 1.927c.095.02.193.02.289 0a3.074 3.074 0 0 1 1.223-1.744 1.04 1.04 0 0 1 .492-.154c.101 0 .2.026.289.077.29.232.445.593.414.963.005.08.005.16 0 .241l.28.164c.01-.135.01-.27 0-.405a1.397 1.397 0 0 0-.54-1.146z" fill="#263238"/><path d="M132.976 224.412a.24.24 0 0 0 0 .463.858.858 0 0 0 .81 0 .24.24 0 0 0 0-.463.858.858 0 0 0-.81 0z" fill="#000" opacity=".1"/><path d="M135.578 222.9a1.05 1.05 0 0 0-1.08.067 3.44 3.44 0 0 0-1.367 1.927c.098.02.2.02.298 0a3.064 3.064 0 0 1 1.214-1.744 1.08 1.08 0 0 1 .502-.145c.1-.003.2.02.289.068.286.234.437.595.404.963.005.08.005.161 0 .241l.28.164c.01-.135.01-.27 0-.405a1.378 1.378 0 0 0-.54-1.137z" fill="#263238"/><path d="M130.558 223.005a.24.24 0 0 0 0 .463c.25.135.55.135.8 0 .23-.125.23-.337 0-.463a.838.838 0 0 0-.8 0z" fill="#000" opacity=".1"/><path d="M133.15 221.493a1.05 1.05 0 0 0-1.089.077 3.373 3.373 0 0 0-1.368 1.927.79.79 0 0 0 .298 0 3.016 3.016 0 0 1 1.224-1.735.964.964 0 0 1 .492-.154.501.501 0 0 1 .289.077c.292.23.448.593.414.964a1.87 1.87 0 0 1 0 .231l.29.164c.008-.132.008-.264 0-.395a1.378 1.378 0 0 0-.55-1.156z" fill="#263238"/><g fill="#ebebeb"><path d="M135.424 243.414a.27.27 0 0 1-.135-.51l13.394-7.71a.27.27 0 0 1 .376.097.27.27 0 0 1-.106.376l-13.394 7.709a.308.308 0 0 1-.135.038zm-1.628-.934a.27.27 0 0 1-.232-.135.28.28 0 0 1 .097-.376l13.403-7.709a.26.26 0 0 1 .366.106.27.27 0 0 1-.096.376l-13.394 7.709a.27.27 0 0 1-.144.029zm-1.62-.935a.29.29 0 0 1-.24-.135.28.28 0 0 1 .106-.376l13.394-7.709a.27.27 0 0 1 .376.106.27.27 0 0 1-.097.367l-13.403 7.708a.222.222 0 0 1-.135.039zm-1.618-.935a.28.28 0 0 1-.241-.135.28.28 0 0 1 .096-.375l13.404-7.71a.28.28 0 0 1 .376.097.27.27 0 0 1-.106.376l-13.394 7.709a.26.26 0 0 1-.135.038zm-1.629-.934a.27.27 0 0 1-.23-.145.27.27 0 0 1 .095-.376l13.394-7.709a.274.274 0 0 1 .28.473l-13.404 7.708a.318.318 0 0 1-.135.049zm-1.619-.945a.27.27 0 0 1-.134-.51l13.394-7.71a.28.28 0 0 1 .375.107.28.28 0 0 1-.106.376l-13.394 7.708a.308.308 0 0 1-.135.03zm-1.628-.934a.27.27 0 0 1-.231-.135.28.28 0 0 1 .096-.376l13.404-7.709a.26.26 0 0 1 .366.106.27.27 0 0 1-.096.376l-13.394 7.709a.27.27 0 0 1-.145.029zm-1.619-.935a.29.29 0 0 1-.24-.135.28.28 0 0 1 .105-.376l13.394-7.709a.274.274 0 1 1 .28.473l-13.404 7.708a.222.222 0 0 1-.135.039zm-1.619-.935a.28.28 0 0 1-.144-.51l13.403-7.71a.28.28 0 0 1 .376.097.27.27 0 0 1-.106.376l-13.394 7.709a.414.414 0 0 1-.135.038zm-1.628-.944a.26.26 0 0 1-.231-.135.27.27 0 0 1 .096-.376l13.394-7.709a.27.27 0 0 1 .376.097.28.28 0 0 1-.097.376l-13.403 7.708a.309.309 0 0 1-.135.039zm-1.619-.935a.27.27 0 0 1-.135-.51l13.394-7.71a.28.28 0 1 1 .27.482l-13.394 7.71a.222.222 0 0 1-.135.028zm-1.638-.934a.27.27 0 0 1-.231-.135.28.28 0 0 1 .096-.376l13.404-7.709a.28.28 0 0 1 .375.106.27.27 0 0 1-.106.366l-13.394 7.709a.27.27 0 0 1-.144.039zm-1.61-.887a.29.29 0 0 1-.24-.135.28.28 0 0 1 .106-.376l13.394-7.709a.274.274 0 0 1 .28.473l-13.404 7.708a.222.222 0 0 1-.135.039z"/></g><path d="M137.072 244.359a.26.26 0 0 1-.241-.145.26.26 0 0 1 .106-.366l14.165-8.2a.274.274 0 0 1 .28.472l-14.175 8.2a.318.318 0 0 1-.135.039z" fill="#90caf9"/><g fill="#455a64" opacity=".25"><path d="M144.154 234.154a1.166 1.166 0 0 0-.55-.356 2.255 2.255 0 0 1-.26-.135c-.125-.193-.288-.52-.076-.56.212-.038.385.116.52.155.135.039.067-.096 0-.116-.24-.096-.694-.385-.79 0a.597.597 0 0 0 .048.376.77.77 0 0 0-.347-.067c-.115 0-.212 0-.25.144a.26.26 0 0 0 0 .154.125.125 0 0 0 .106.116h-.126c-.163 0-.626-.116-.742.096-.115.212.058.203.049.241-.01.039-.338.126-.396.164-.057.039 0 .106 0 .116-.163.01-.327.01-.491 0-.27 0-.964-.077-.848.337l.058.106a.52.52 0 0 0 0 .106l-.068.048c-.067.048-.115 0-.144.068s.067.212-.087.318-.694-.145-.963 0c-.27.144.067.54-.29.549-.077 0 0 .116 0 .125.328 0 .29 0 .357-.308.106-.443.77-.135 1.137-.241.048 0 .048-.068 0-.096-.048-.03 0-.251.164-.318a.067.067 0 0 0 0-.097c0-.067-.183-.289-.096-.395.13-.016.263-.016.395 0h.867a.058.058 0 0 0 .058-.077c0-.096.327-.154.414-.173a.058.058 0 0 0 0-.077c-.183-.444.482-.28.752-.241.057 0 .096 0 .077-.077-.02-.078-.376-.309 0-.357a.655.655 0 0 1 .298.067c.17.286.404.527.685.704.472.116.742.02.54-.299zm-.125.077c.087.116-.174 0-.202 0a.964.964 0 0 1-.347-.366l.202.106c.139.06.259.156.347.28zm-6.581 2.814c0-.193 0-.405.125-.434.125-.029 0-.125 0-.125-.241 0-.318.202-.28.453-.1-.044-.202-.08-.308-.106-.154 0-.26 0-.308.125-.049.126 0 .164 0 .25s.115.078-.068.126a.877.877 0 0 1-.221 0 .337.337 0 0 0-.328.106c-.125.096.173.145-.173.087-.097 0-.184-.058-.28 0-.096.058-.193.058-.173.202.019.145.144.154.144.193 0 .308-.327.048-.453 0-.125-.048-.086 0-.086.048s.106.202-.116.222c0 0-.183-.087-.231-.087-.049 0-.27.183-.453.173s-.068 0-.058.077.125.222-.154.347h-.318c-.087 0 0 .126 0 .135 0 .01.559.193.694 0s-.097-.28 0-.356.25-.077.279-.087a.491.491 0 0 1 .212-.058s.077.058.116.058h.163c.058 0 .058-.096.078-.106.019-.01-.068-.067 0-.106.067-.039.134.048.202.067.067.02.26.116.347 0 .087-.115-.097-.25-.077-.346.019-.097.366-.058.5-.155.136-.096 0 0 0-.067-.086-.299.463-.058.637-.096a.067.067 0 0 0 .067-.058l-.077-.193c0-.183.299-.164.414-.135.106.376.405.742.723.646a.067.067 0 0 0 0-.058c.048-.366-.193-.617-.54-.742zm.115.299v-.087c.106.077.212.173.222.222.01.048-.183-.126-.222-.183zm4.76 1.628a1.224 1.224 0 0 0-.549-.347l-.27-.135c-.115-.202-.28-.53-.067-.568.18.024.356.076.52.154.077 0 .068-.087 0-.116-.24-.086-.694-.385-.8 0a.684.684 0 0 0 .058.376.77.77 0 0 0-.347-.067c-.115 0-.212 0-.25.144-.039.145 0 .106 0 .164 0 .058.096.106.115.116h-.125c-.173 0-.636-.126-.742.086-.106.212.058.212.048.241-.01.03-.337.126-.395.164-.058.039 0 .106 0 .116-.163.01-.327.01-.491 0-.27 0-.964-.077-.848.337 0 .048 0 0 .058.106s0 .096 0 .106c0 .01 0 0-.068.058-.067.058-.115 0-.144.058-.03.057.067.221-.097.318-.163.096-.684-.145-.915 0-.231.144.067.54-.29.549-.086 0 0 .116 0 .125.338 0 .3 0 .367-.308.106-.443.77-.135 1.137-.241v-.096c0-.028 0-.241.164-.318a.067.067 0 0 0 0-.097c0-.067-.183-.289-.096-.395.086-.106.346 0 .395-.048h.867a.067.067 0 0 0 .058-.087c-.049-.086.327-.154.414-.173.087-.02.048-.048 0-.077-.183-.444.482-.28.752-.232a.067.067 0 0 0 .077-.086c0-.154-.376-.299 0-.357a.655.655 0 0 1 .298.068c.17.288.404.532.685.713.414.144.674.048.481-.25zm-.125.077c.087.116-.173 0-.202 0a.906.906 0 0 1-.347-.366l.202.106a.829.829 0 0 1 .347.26zm4.269-3.478c-.048-.193-.058-.405.125-.434s0-.125 0-.125c-.24 0-.318.202-.289.453a1.61 1.61 0 0 0-.299-.106c-.154 0-.26 0-.308.125-.048.125 0 .164 0 .25s.116.078-.077.126a.964.964 0 0 1-.222 0 .347.347 0 0 0-.327.106c-.116.096.183.144-.174.086a.829.829 0 0 0-.27 0c-.125 0-.202.068-.173.212.029.145.144.155.144.193 0 .309-.337.048-.462 0s-.077 0-.077.048.096.203-.116.222c0 0-.183-.087-.231-.087s-.27.183-.463.174c0 0-.067 0 0 .077.068.077.126.221-.154.347h-.327c-.077 0 0 .125 0 .135s.558.192.684 0c.125-.193-.087-.28 0-.357.086-.077.24-.077.27-.087a.578.578 0 0 1 .221-.057s.068.057.106.057h.164c.048 0 .058-.096.087-.106.029-.01-.068-.077 0-.106.067-.029.135.049.192.068s.27.115.357 0c.087-.116-.096-.25-.077-.347.02-.096.356-.058.5-.154a.058.058 0 0 0 0-.068c-.086-.298.463-.058.637-.096.173-.039.067 0 .058-.058a1.445 1.445 0 0 0-.068-.193c.048-.183.299-.163.405-.135.116.376.405.742.732.646a.067.067 0 0 0 0-.058c-.019-.327-.298-.578-.568-.751zm.115.298a.376.376 0 0 1 0-.086.78.78 0 0 1 .222.221c-.01.183-.222-.077-.25-.135zm-12.324-7.169a1.224 1.224 0 0 0-.55-.347l-.26-.135c-.125-.202-.288-.52-.076-.568.18.024.355.076.52.154.077 0 .067-.087 0-.116-.241-.086-.694-.385-.79 0a.588.588 0 0 0 .048.376.77.77 0 0 0-.347-.067c-.116 0-.212 0-.25.144-.04.145 0 .106 0 .164s.096.106.115.116h-.125c-.174 0-.627-.125-.742.086-.116.212.058.212 0 .241-.058.03-.337.126-.395.164-.058.039 0 .106 0 .116-.164.01-.328.01-.492 0-.27 0-.963-.077-.848.337 0 0 .049 0 .058.116.01.115 0 .086 0 .096 0 .01 0 0-.067.058-.068.058-.116 0-.145.058-.029.058.068.221-.096.318-.164.096-.684-.145-.916 0-.23.144.068.54-.289.549-.086 0 0 .116 0 .125.338 0 .3 0 .367-.308.106-.443.77-.135 1.137-.241v-.096c0-.03 0-.241.163-.309a.067.067 0 0 0 0-.096c0-.077-.183-.299-.096-.405.087-.106.347 0 .395-.048h.867a.067.067 0 0 0 .058-.087c0-.086.328-.154.414-.173.087-.02 0-.048 0-.077-.183-.444.482-.28.752-.232a.067.067 0 0 0 .077-.086c0-.154-.376-.299 0-.357a.655.655 0 0 1 .299.068c.169.288.403.532.684.713.463.144.732.058.53-.25zm-.125.077c.086.116-.174 0-.203 0a.906.906 0 0 1-.346-.366l.202.106a.829.829 0 0 1 .347.26zm-6.582 2.747c-.048-.193-.048-.405.126-.434.173-.029 0-.125 0-.125-.241 0-.318.202-.29.453a1.07 1.07 0 0 0-.298-.097c-.154 0-.26 0-.308.125-.049.126.048.155 0 .241s.115.077-.068.126a1.725 1.725 0 0 1-.222 0c-.192 0-.212 0-.327.096s.173.154-.174.096a.703.703 0 0 0-.28 0c-.124 0-.192.068-.173.203s.145.154.145.192c0 .309-.328.049-.463 0s-.077 0-.077.049.106.212-.115.221c0 0-.183-.086-.231-.086s-.27.183-.453.173a.048.048 0 0 0-.058.077c.048.145.125.231-.154.347h-.318c-.087 0 0 .125 0 .135 0 .01.559.193.693 0 .135-.193-.096-.28-.048-.357.048-.077.241-.077.28-.086a.684.684 0 0 1 .212-.058s.077.058.115.058h.154c.049 0 .068-.087.087-.106s-.067-.068 0-.106c.068-.039.135.048.203.067.067.02.26.116.346 0 .087-.116-.096-.24-.077-.347s.357-.048.501-.144a.048.048 0 0 0 0-.068c-.086-.308.463-.067.636-.096.174-.03.068 0 .058-.068a1.445 1.445 0 0 0-.067-.192c.048-.183.298-.164.414-.126.106.367.405.742.723.636a.067.067 0 0 0 0-.057c.115-.318-.193-.569-.492-.742zm.116.308v-.096c.085.06.16.136.222.221.029.183-.193-.077-.222-.125zm4.76 1.667a1.224 1.224 0 0 0-.55-.347l-.269-.135c-.125-.202-.28-.52-.067-.559.212-.038.385.106.52.145.135.038.058-.087 0-.106-.24-.097-.694-.395-.8 0a.665.665 0 0 0 .058.376.77.77 0 0 0-.347-.068c-.115 0-.212 0-.25.145-.039.144 0 .106 0 .163 0 .058.096.106.115.116h-.125c-.173 0-.636-.116-.742.087s.058.212 0 .24c-.058.03-.337.126-.395.165-.058.038 0 .106 0 .115a2.67 2.67 0 0 1-.482 0c-.27 0-.963-.077-.848.337 0 .049.048 0 .058.116a.154.154 0 0 0 0 .096l-.067.058c-.068.058-.116 0-.145.068s.067.212-.096.308-.685-.144-.916 0 .068.54-.289.54c-.087 0 0 .125 0 .125.337 0 .299 0 .366-.308.106-.444.762-.135 1.137-.241.049 0 .049-.058 0-.097s0-.24.164-.308a.067.067 0 0 0 0-.096c0-.077-.183-.3-.096-.405.131-.011.263-.011.395 0 .289-.02.578-.02.867 0a.067.067 0 0 0 .058-.087c-.048-.087.328-.144.414-.164a.067.067 0 0 0 0-.077c-.183-.453.472-.289.752-.24a.067.067 0 0 0 .077-.087c-.048-.145-.376-.3 0-.357a.684.684 0 0 1 .299.077c.171.284.405.524.684.704.453.096.713.01.52-.3zm-.125.087c.087.106-.174 0-.212 0a.964.964 0 0 1-.337-.367l.202.106a.77.77 0 0 1 .347.26zm4.24-3.489c0-.192-.058-.404.125-.433.183-.03 0-.125 0-.125-.24 0-.318.202-.29.452a1.07 1.07 0 0 0-.298-.096c-.154 0-.26 0-.308.125-.048.126 0 .155 0 .241 0 .087.116.077-.077.126a1.927 1.927 0 0 1-.222 0c-.193 0-.212 0-.327.096-.116.096.183.154-.174.096a.636.636 0 0 0-.27 0c-.135 0-.202.068-.173.203.029.134.144.154.144.192 0 .309-.337.048-.462 0s-.077 0-.077.048c0 .049.096.212-.126.222a1.783 1.783 0 0 0-.221-.087c-.145 0-.28.183-.463.174-.183-.01-.067 0-.048.077.02.077.125.231-.154.347h-.328c-.077 0 0 .125 0 .135 0 .01.56.192.685 0 .125-.193-.087-.28-.049-.357.039-.077.25-.077.28-.087a.829.829 0 0 1 .221-.057s.068.057.106.057h.164c.048 0 .058-.086.077-.106.02-.019-.058-.067 0-.106.058-.038.126.049.193.068s.27.116.357 0c.086-.116-.097-.25-.078-.347.02-.096.357-.048.502-.145a.067.067 0 0 0 0-.067c-.087-.308.462-.067.636-.106 0 0 .067 0 .057-.058a1.445 1.445 0 0 0-.067-.192c0-.184.289-.164.405-.126.115.366.404.742.722.636a.058.058 0 0 0 .048-.058c.068-.318-.221-.54-.51-.742zm.115.3a.25.25 0 0 1 0-.088c.086.062.16.137.222.222.02.183-.193-.077-.222-.135zm-3.218 6.407a1.166 1.166 0 0 0-.55-.347l-.26-.135c-.125-.202-.289-.52-.067-.568.18.026.355.078.52.154.078 0 .058-.087 0-.106-.23-.096-.693-.395-.79 0a.597.597 0 0 0 .058.376.81.81 0 0 0-.337-.097c-.116 0-.203 0-.25.145-.049.144 0 .106 0 .164 0 .058.086.106.115.115h-.135c-.164 0-.626-.125-.732.087-.106.212.058.212 0 .241-.058.029-.338.125-.395.164-.058.038 0 .106 0 .115-.164.01-.328.01-.492 0-.26 0-.963-.077-.838.338 0 .048 0 0 .048.115v.097l-.058.057c-.058.058-.115 0-.154.058-.038.058.068.222-.087.318s-.693-.144-.915 0c-.222.145.058.55-.299.55-.077 0 0 .125 0 .125.328 0 .299 0 .357-.309.106-.443.77-.134 1.146-.24a.067.067 0 0 0 0-.097c-.106-.154 0-.24.164-.308a.058.058 0 0 0 0-.097c0-.077-.173-.298-.087-.404.087-.106.347 0 .396-.048.288-.015.578-.015.867 0a.058.058 0 0 0 .048-.087c0-.087.337-.145.414-.164a.067.067 0 0 0 0-.087c-.173-.443.482-.28.752-.23a.067.067 0 0 0 .077-.088c0-.154-.366-.298 0-.356a.597.597 0 0 1 .308.077c.17.286.404.527.685.703.433.164.693.077.491-.23zm-.116.077c.077.116-.183 0-.212 0a.964.964 0 0 1-.347-.366c.068.041.139.077.212.106a.896.896 0 0 1 .347.26zm3.383-3.18c-.049-.192-.058-.404.125-.424s0-.135 0-.135c-.25 0-.318.203-.29.453a1.31 1.31 0 0 0-.298-.096c-.164 0-.26 0-.318.125-.058.125 0 .154 0 .241s.125.077-.067.125-.164 0-.222 0c-.058 0-.212 0-.328.097-.115.096.174.154-.173.096a.655.655 0 0 0-.27 0c-.135 0-.202.068-.183.212.02.145.154.145.154.183 0 .309-.337.048-.462 0-.126-.048-.077 0-.077.048 0 .049.096.212-.126.222 0 0-.173-.087-.221-.087s-.28.193-.463.174c-.183-.02-.067 0-.058.086s.135.222-.144.338h-.337v.135s.568.192.693 0c.126-.193-.096-.27 0-.357.097-.087.25-.077.28-.087.072-.026.146-.045.221-.057 0 0 .068.067.106.057.039-.01.116 0 .164 0s.058-.086.077-.106c.02-.019-.058-.067 0-.096.058-.029.126 0 .193.067.067.068.26.106.357 0 .096-.106-.097-.24-.078-.346.02-.106.357 0 .502-.145a.067.067 0 0 0 0-.067c-.087-.309.462-.068.636-.097a.067.067 0 0 0 .057-.067l-.067-.193c0-.183.289-.154.405-.125.115.366.404.742.722.636 0 0 .048 0 0 0 .068-.357-.212-.636-.51-.81zm.115.309l-.048-.087a.732.732 0 0 1 .231.222c.058.183-.173-.087-.173-.135zm3.614-2.824a.087.087 0 0 0 0-.067c-.048-.193-.27-.048-.309.067s.049.154 0 .241c-.048.087.126.077-.067.125a1.927 1.927 0 0 1-.222 0c-.192 0-.212 0-.327.097-.116.096.173.154-.174.096a.655.655 0 0 0-.27 0c-.135 0-.202.068-.183.203.02.134.154.154.154.192 0 .309-.337 0-.462 0h-.077s.096.212-.125.222c0 0-.174-.087-.222-.087s-.28.183-.463.174c-.183-.01-.067 0-.057.077.01.077.135.231-.155.347h-.327c-.068 0 0 .125 0 .134s.568.193.694 0c.125-.192-.097-.279 0-.356.096-.077.25-.077.28-.087.07-.03.144-.05.22-.058 0 0 .068.058.107.058h.163c.049 0 .058-.086.078-.106.019-.019-.058-.067 0-.106.057-.038.125 0 .192.068.068.067.26.115.357 0s-.097-.241-.077-.347c.019-.106.356-.048.5-.145a.096.096 0 0 0 0-.067c-.086-.309.463-.068.637-.097a.067.067 0 0 0 .058-.067.906.906 0 0 1 0-.395.28.28 0 0 0 .077-.116z"/></g></g><g><path d="M148.712 251.027l2.293 1.32 18.068-10.57 1.994-2.352-4.162 1.099z" fill="#455a64" opacity=".1"/><path d="M167.078 238.914l3.855-.751a.116.116 0 0 1 .115.192l-2.611 2.959z" fill="#ffa8a7"/><path d="M171.039 238.355a.116.116 0 0 0-.116-.192l-.752.144c.21.132.329.37.309.617v.048z" fill="#263238"/><path d="M154.07 249.572l.318-.183.375-.212 13.664-7.834a2.014 2.014 0 0 0-1.349-2.4l-13.654 7.834-.723.415c.511-.27 1.85 2.1 1.369 2.38z" fill="#90caf9"/><path d="M155.274 248.859l.704-.405c.202-.106.086-.617-.155-1.147-.318-.703-.963-1.378-1.233-1.233l-.51.299-.184.106c.27-.145.906.54 1.224 1.233.231.51.347.964.173 1.137z" fill="#ebebeb"/><path d="M155.448 248.762c.481-.26-.897-2.64-1.378-2.38l-.704.395c.482-.25 1.86 2.13 1.378 2.38z" fill="#90caf9"/><path d="M154.07 249.572l.693-.395c.482-.25-.828-2.554-1.339-2.4l-.694.405c.482-.26 1.821 2.11 1.34 2.39z" fill="#ebebeb"/><path d="M171.058 238.23l-.135-.067-2.795 1.522-14.453 8.287h-.068c.405.646.713 1.455.443 1.59l.318-.183.376-.212 13.664-7.834 2.611-2.958a.145.145 0 0 0 .039-.145z" fill="#000" opacity=".15"/><path d="M151.121 251.23l2.949-1.687c.212-.106.096-.607-.145-1.137-.318-.704-.964-1.388-1.224-1.243l-2.968 1.696c-.587.337 0 1.619.617 2.187.194.216.501.29.771.183z" fill="#f28f8f"/><path d="M151.285 250.314a2.12 2.12 0 0 0-1.195-1.455.52.52 0 0 0-.443.057c-.444.415.067 1.59.693 2.13.193.21.492.287.762.193.231-.135.308-.472.183-.925z" fill="#000" opacity=".1"/></g><g><path d="M198.684 278.133c.404.006.803-.094 1.156-.29l19.272-11.129a1.05 1.05 0 0 0 .588-.886 1.031 1.031 0 0 0-.588-.877l-3.44-1.995 1.648-.963a.964.964 0 0 0 0-1.774l-28.387-16.38a2.319 2.319 0 0 0-1.157-.29 2.367 2.367 0 0 0-1.156.29l-19.272 11.129a1.05 1.05 0 0 0-.588.886c.02.378.246.715.588.877l3.44 1.995-1.648.964a1.031 1.031 0 0 0-.588.876c.021.38.246.72.588.887l28.378 16.381c.357.199.758.302 1.166.3z" fill="#455a64" opacity=".1"/><path d="M168.938 259.082a.665.665 0 0 1 .395-.558l19.272-11.14a2.14 2.14 0 0 1 1.927 0l28.388 16.382a.684.684 0 0 1 .395.558v.877a.684.684 0 0 1-.395.56l-19.272 11.138a2.14 2.14 0 0 1-1.927 0l-28.388-16.38a.684.684 0 0 1-.395-.55z" fill="#ebebeb"/><path d="M218.949 263.775l-28.388-16.381a2.14 2.14 0 0 0-1.927 0l-19.272 11.14a.588.588 0 0 0 0 1.117l28.387 16.381a2.14 2.14 0 0 0 1.928 0l19.272-11.14a.588.588 0 0 0 0-1.117z" fill="#fff"/><path d="M198.694 276.263v.868c.336.008.668-.072.963-.232l19.272-11.13c.226-.099.38-.312.405-.558v-.877a.665.665 0 0 1-.405.559l-19.272 11.14a1.975 1.975 0 0 1-.963.23z" fill="#e0e0e0"/><path d="M167.146 254.39a.665.665 0 0 1 .395-.56l19.272-11.138a2.14 2.14 0 0 1 1.927 0l28.387 16.38a.684.684 0 0 1 .395.56v.877a.684.684 0 0 1-.395.558l-19.272 11.13a2.14 2.14 0 0 1-1.927 0l-28.387-16.381a.684.684 0 0 1-.395-.55z" fill="#ebebeb"/><path d="M217.156 259.073l-28.387-16.381a2.14 2.14 0 0 0-1.927 0L167.57 253.83a.588.588 0 0 0 0 1.118l28.387 16.38a2.14 2.14 0 0 0 1.927 0l19.272-11.138a.588.588 0 0 0 0-1.118z" fill="#fff"/><path d="M196.901 271.561v.867c.336.008.669-.071.964-.231l19.272-11.13c.226-.1.38-.313.405-.558v-.877a.684.684 0 0 1-.405.559l-19.272 11.139a1.975 1.975 0 0 1-.964.231z" fill="#e0e0e0"/></g><g><path d="M243.116 253.956a2.114 2.114 0 0 1-1.06-.27l-29.68-17.132a1.148 1.148 0 0 1-.047-2.063l24.514-15.59c.352-.21.756-.317 1.166-.309a2.13 2.13 0 0 1 1.06.26l8.826 5.107a1.61 1.61 0 0 1 .626 2.12l-.356.694a.308.308 0 0 0 .116.385l17.788 10.35a1.168 1.168 0 0 1 .048 2.071l-21.835 14.06a2.23 2.23 0 0 1-1.166.317z" fill="#455a64" opacity=".1"/><path d="M243.55 252.193l22.23-12.874a.482.482 0 0 0 0-.915l-30.489-17.345a1.744 1.744 0 0 0-1.59 0l-22.028 12.72a.482.482 0 0 0 0 .915l30.286 17.49a1.773 1.773 0 0 0 1.59.009z" fill="#90caf9"/><path d="M243.55 252.193l22.23-12.874a.482.482 0 0 0 0-.915l-30.489-17.345a1.744 1.744 0 0 0-1.59 0l-22.028 12.72a.482.482 0 0 0 0 .915l30.286 17.49a1.773 1.773 0 0 0 1.59.009z" fill="#455a64" opacity=".2"/><path d="M211.654 233.75l25.054-15.9c.49-.26 1.08-.26 1.57 0l9.01 5.204a.964.964 0 0 1 .376 1.271l-.366.723a.964.964 0 0 0 .375 1.272l18.155 10.6a.51.51 0 0 1 0 .963l-22.288 14.348c-.488.26-1.074.26-1.561 0l-30.286-17.489a.512.512 0 0 1-.412-.481.512.512 0 0 1 .373-.512z" fill="#90caf9"/></g><g><path d="M301.577 222.658l-19.089 10.995 2.294 1.32 18.954-11.072" fill="#455a64" opacity=".1"/><path d="M303.437 223.198l2.264-2.698a.106.106 0 0 0-.106-.173l-3.459.76z" fill="#f28f8f"/><path d="M305.615 220.327l-3.46.76.684 1.119.376-.232 2.419-1.532z" fill="#ffa8a7"/><path d="M305.595 220.327a.106.106 0 0 1 .106.173l-.443.52a.597.597 0 0 0-.347-.51h-.048z" fill="#263238"/><path d="M286.468 230.54l.28-.163.337-.202 15.051-9.087c.39.08.735.308.964.636.349.401.479.949.346 1.464l-15.05 9.087-.647.386c.367-.27-.876-2.361-1.281-2.12z" fill="#37474f"/><path d="M286.468 230.54l.28-.163.337-.202 15.051-9.087c.473.113.874.426 1.098.857l-15.706 9.588v.058c-.376-.597-.838-1.195-1.06-1.05z" fill="#455a64"/><path d="M287.528 229.895l.626-.376c.174-.115.52.203.829.627.308.424.674 1.349.433 1.503l-.452.28-.174.096c.241-.155 0-.964-.433-1.504-.29-.404-.627-.713-.81-.636z" fill="#ebebeb"/><path d="M287.682 229.808c.414-.27 1.677 1.85 1.272 2.12l-.626.376c.414-.26-.858-2.39-1.272-2.12z" fill="#37474f"/><path d="M286.468 230.54l.617-.365c.395-.27 1.638 1.773 1.3 2.1l-.626.366c.357-.25-.886-2.341-1.291-2.1z" fill="#ebebeb"/><path d="M283.847 232.13l2.62-1.59c.174-.115.521.203.83.617.414.56.674 1.35.443 1.504l-2.63 1.59c-.521.318-1.282-.665-1.446-1.427a.626.626 0 0 1 .183-.693z" fill="#f28f8f"/><path d="M284.647 232.39c.438.404.666.987.616 1.581a.443.443 0 0 1-.23.318c-.521.174-1.215-.742-1.37-1.465a.626.626 0 0 1 .174-.684c.203-.115.501-.038.81.25z" fill="#000" opacity=".1"/></g></g></svg>